<svg viewBox="0 0 330 200" xmlns="http://www.w3.org/2000/svg"><g><g><g><g><g><line x1="50" y1="177" x2="45" y2="177" style="visibility: inherit;" fill="rgb(0, 0, 0)" stroke="rgb(204, 204, 204)" stroke-width="1px"></line><line x1="50" y1="159.3" x2="45" y2="159.3" style="visibility: inherit;" fill="rgb(0, 0, 0)" stroke="rgb(204, 204, 204)" stroke-width="1px"></line><line x1="50" y1="141.6" x2="45" y2="141.6" style="visibility: inherit;" fill="rgb(0, 0, 0)" stroke="rgb(204, 204, 204)" stroke-width="1px"></line><line x1="50" y1="123.89999999999999" x2="45" y2="123.89999999999999" style="visibility: inherit;" fill="rgb(0, 0, 0)" stroke="rgb(204, 204, 204)" stroke-width="1px"></line><line x1="50" y1="106.2" x2="45" y2="106.2" style="visibility: inherit;" fill="rgb(0, 0, 0)" stroke="rgb(204, 204, 204)" stroke-width="1px"></line><line x1="50" y1="88.5" x2="45" y2="88.5" style="visibility: inherit;" fill="rgb(0, 0, 0)" stroke="rgb(204, 204, 204)" stroke-width="1px"></line><line x1="50" y1="70.8" x2="45" y2="70.8" style="visibility: inherit;" fill="rgb(0, 0, 0)" stroke="rgb(204, 204, 204)" stroke-width="1px"></line><line x1="50" y1="53.10000000000001" x2="45" y2="53.10000000000001" style="visibility: inherit;" fill="rgb(0, 0, 0)" stroke="rgb(204, 204, 204)" stroke-width="1px"></line><line x1="50" y1="35.40000000000001" x2="45" y2="35.40000000000001" style="visibility: inherit;" fill="rgb(0, 0, 0)" stroke="rgb(204, 204, 204)" stroke-width="1px"></line><line x1="50" y1="17.699999999999996" x2="45" y2="17.699999999999996" style="visibility: inherit;" fill="rgb(0, 0, 0)" stroke="rgb(204, 204, 204)" stroke-width="1px"></line><line x1="50" y1="0" x2="45" y2="0" style="visibility: inherit;" fill="rgb(0, 0, 0)" stroke="rgb(204, 204, 204)" stroke-width="1px"></line></g><g transform="translate(40, 0)"><text x="0" y="177" dx="0em" dy="0.3em" style="text-anchor: end; visibility: hidden; font-family: Roboto, sans-serif; font-size: 12px; font-weight: 200;" fill="rgb(33, 33, 33)" stroke="none" stroke-width="1px">-0.1</text><text x="0" y="159.3" dx="0em" dy="0.3em" style="text-anchor: end; visibility: inherit; font-family: Roboto, sans-serif; font-size: 12px; font-weight: 200;" fill="rgb(33, 33, 33)" stroke="none" stroke-width="1px">0</text><text x="0" y="141.6" dx="0em" dy="0.3em" style="text-anchor: end; visibility: hidden; font-family: Roboto, sans-serif; font-size: 12px; font-weight: 200;" fill="rgb(33, 33, 33)" stroke="none" stroke-width="1px">0.1</text><text x="0" y="123.89999999999999" dx="0em" dy="0.3em" style="text-anchor: end; visibility: inherit; font-family: Roboto, sans-serif; font-size: 12px; font-weight: 200;" fill="rgb(33, 33, 33)" stroke="none" stroke-width="1px">0.2</text><text x="0" y="106.2" dx="0em" dy="0.3em" style="text-anchor: end; visibility: hidden; font-family: Roboto, sans-serif; font-size: 12px; font-weight: 200;" fill="rgb(33, 33, 33)" stroke="none" stroke-width="1px">0.3</text><text x="0" y="88.5" dx="0em" dy="0.3em" style="text-anchor: end; visibility: inherit; font-family: Roboto, sans-serif; font-size: 12px; font-weight: 200;" fill="rgb(33, 33, 33)" stroke="none" stroke-width="1px">0.4</text><text x="0" y="70.8" dx="0em" dy="0.3em" style="text-anchor: end; visibility: hidden; font-family: Roboto, sans-serif; font-size: 12px; font-weight: 200;" fill="rgb(33, 33, 33)" stroke="none" stroke-width="1px">0.5</text><text x="0" y="53.10000000000001" dx="0em" dy="0.3em" style="text-anchor: end; visibility: inherit; font-family: Roboto, sans-serif; font-size: 12px; font-weight: 200;" fill="rgb(33, 33, 33)" stroke="none" stroke-width="1px">0.6</text><text x="0" y="35.40000000000001" dx="0em" dy="0.3em" style="text-anchor: end; visibility: hidden; font-family: Roboto, sans-serif; font-size: 12px; font-weight: 200;" fill="rgb(33, 33, 33)" stroke="none" stroke-width="1px">0.7</text><text x="0" y="17.699999999999996" dx="0em" dy="0.3em" style="text-anchor: end; visibility: inherit; font-family: Roboto, sans-serif; font-size: 12px; font-weight: 200;" fill="rgb(33, 33, 33)" stroke="none" stroke-width="1px">0.8</text><text x="0" y="0" dx="0em" dy="0.3em" style="text-anchor: end; visibility: hidden; font-family: Roboto, sans-serif; font-size: 12px; font-weight: 200;" fill="rgb(33, 33, 33)" stroke="none" stroke-width="1px">0.9</text></g><line x1="50" y1="0" x2="50" y2="177" fill="rgb(0, 0, 0)" stroke="rgb(204, 204, 204)" stroke-width="1px"></line></g></g><g transform="translate(50, 0)" clip-path="url(#clip_0)"><clipPath id="clip_0"><rect width="280" height="176"></rect></clipPath><g><g><g><line x1="0" y1="0" x2="0" y2="177" fill="rgb(0, 0, 0)" stroke="rgb(66, 66, 66)" stroke-width="1px" opacity="0.25"></line><line x1="23.333333333333332" y1="0" x2="23.333333333333332" y2="177" fill="rgb(0, 0, 0)" stroke="rgb(66, 66, 66)" stroke-width="1px" opacity="0.25"></line><line x1="46.666666666666664" y1="0" x2="46.666666666666664" y2="177" fill="rgb(0, 0, 0)" stroke="rgb(66, 66, 66)" stroke-width="1px" opacity="0.25"></line><line x1="70" y1="0" x2="70" y2="177" fill="rgb(0, 0, 0)" stroke="rgb(66, 66, 66)" stroke-width="1px" opacity="0.25"></line><line x1="93.33333333333333" y1="0" x2="93.33333333333333" y2="177" fill="rgb(0, 0, 0)" stroke="rgb(66, 66, 66)" stroke-width="1px" opacity="0.25"></line><line x1="116.66666666666667" y1="0" x2="116.66666666666667" y2="177" fill="rgb(0, 0, 0)" stroke="rgb(66, 66, 66)" stroke-width="1px" opacity="0.25"></line><line x1="140" y1="0" x2="140" y2="177" fill="rgb(0, 0, 0)" stroke="rgb(66, 66, 66)" stroke-width="1px" opacity="0.25"></line><line x1="163.33333333333334" y1="0" x2="163.33333333333334" y2="177" fill="rgb(0, 0, 0)" stroke="rgb(66, 66, 66)" stroke-width="1px" opacity="0.25"></line><line x1="186.66666666666666" y1="0" x2="186.66666666666666" y2="177" fill="rgb(0, 0, 0)" stroke="rgb(66, 66, 66)" stroke-width="1px" opacity="0.25"></line><line x1="210" y1="0" x2="210" y2="177" fill="rgb(0, 0, 0)" stroke="rgb(66, 66, 66)" stroke-width="1px" opacity="0.25"></line><line x1="233.33333333333334" y1="0" x2="233.33333333333334" y2="177" fill="rgb(0, 0, 0)" stroke="rgb(66, 66, 66)" stroke-width="1px" opacity="0.25"></line><line x1="256.66666666666663" y1="0" x2="256.66666666666663" y2="177" fill="rgb(0, 0, 0)" stroke="rgb(66, 66, 66)" stroke-width="1px" opacity="0.25"></line><line x1="280" y1="0" x2="280" y2="177" fill="rgb(0, 0, 0)" stroke="rgb(66, 66, 66)" stroke-width="1px" opacity="0.25"></line></g><g><line x1="0" y1="177" x2="280" y2="177" fill="rgb(0, 0, 0)" stroke="rgb(66, 66, 66)" stroke-width="1px" opacity="0.25"></line><line x1="0" y1="159.3" x2="280" y2="159.3" fill="rgb(0, 0, 0)" stroke="rgb(66, 66, 66)" stroke-width="1px" opacity="0.25"></line><line x1="0" y1="141.6" x2="280" y2="141.6" fill="rgb(0, 0, 0)" stroke="rgb(66, 66, 66)" stroke-width="1px" opacity="0.25"></line><line x1="0" y1="123.89999999999999" x2="280" y2="123.89999999999999" fill="rgb(0, 0, 0)" stroke="rgb(66, 66, 66)" stroke-width="1px" opacity="0.25"></line><line x1="0" y1="106.2" x2="280" y2="106.2" fill="rgb(0, 0, 0)" stroke="rgb(66, 66, 66)" stroke-width="1px" opacity="0.25"></line><line x1="0" y1="88.5" x2="280" y2="88.5" fill="rgb(0, 0, 0)" stroke="rgb(66, 66, 66)" stroke-width="1px" opacity="0.25"></line><line x1="0" y1="70.8" x2="280" y2="70.8" fill="rgb(0, 0, 0)" stroke="rgb(66, 66, 66)" stroke-width="1px" opacity="0.25"></line><line x1="0" y1="53.10000000000001" x2="280" y2="53.10000000000001" fill="rgb(0, 0, 0)" stroke="rgb(66, 66, 66)" stroke-width="1px" opacity="0.25"></line><line x1="0" y1="35.40000000000001" x2="280" y2="35.40000000000001" fill="rgb(0, 0, 0)" stroke="rgb(66, 66, 66)" stroke-width="1px" opacity="0.25"></line><line x1="0" y1="17.699999999999996" x2="280" y2="17.699999999999996" fill="rgb(0, 0, 0)" stroke="rgb(66, 66, 66)" stroke-width="1px" opacity="0.25"></line><line x1="0" y1="0" x2="280" y2="0" fill="rgb(0, 0, 0)" stroke="rgb(66, 66, 66)" stroke-width="1px" opacity="0.25"></line></g></g></g><g><g><line x1="0" y1="159.3" x2="280" y2="159.3" fill="rgb(0, 0, 0)" stroke="rgb(153, 153, 153)" stroke-width="1.5px"></line></g></g><g><g><line x1="23.333333333333332" y1="0" x2="23.333333333333332" y2="177" fill="rgb(0, 0, 0)" stroke="rgb(153, 153, 153)" stroke-width="1.5px"></line></g></g><g><g><g><g><g><path stroke="rgb(204, 51, 17)" stroke-width="2px" d="M23.520000000000003,36.39766495227814L23.986666666666668,35.70541470050812L24.03333333333333,36.22920219898224L24.173333333333332,36.35166685581208L24.22,36.943829047679905L24.546666666666667,36.61883561611176L24.593333333333334,36.46408789157868L25.2,36.154792892932896L25.526666666666664,36.59062485694886L25.573333333333334,36.589211153984074L25.62,36.58141468763352L26.226666666666667,36.425917911529545L26.273333333333333,36.799641895294194L26.413333333333334,36.494155454635624L26.46,36.781094956398015L26.6,36.51951770782471L26.646666666666665,36.61273770332337L26.926666666666666,37.05428777933121L27.16,37.00813143253327L27.486666666666668,36.568332660198216L27.953333333333333,36.45578502416611L28.14,36.644577670097355L28.326666666666668,36.4043747663498L28.979999999999997,35.50669448375702L29.166666666666668,36.64405016899109L29.213333333333335,36.03616844415665L29.30666666666667,36.56302599906922L29.4,37.24079107046128L29.68,36.52241896390915L30.053333333333335,35.791967082023625L30.146666666666665,36.89543609619141L30.193333333333335,36.72335468530655L30.333333333333336,36.47604106664658L30.66,36.41266708374024L30.8,36.571708667278294L30.893333333333334,36.36620478630066L30.986666666666665,36.540807652473454L31.36,36.14345161914826L31.59333333333333,36.718470025062565L31.92,36.57270036935807L31.966666666666665,36.10412113666535L32.24666666666667,36.87469475269318L32.29333333333333,36.34151773452759L32.806666666666665,36.809221315383915L32.9,36.51559309959412L33.27333333333333,36.633531796932225L33.36666666666667,37.26829497814179L33.78666666666667,36.749128389358525L34.019999999999996,36.63274054527283L34.72,36.04532586336136L34.766666666666666,36.64476757049561L35.37333333333333,36.29901169538498L35.42,36.3255133509636L35.980000000000004,36.438008236885075L36.120000000000005,36.59226011037827L36.49333333333333,36.56190769672394L36.63333333333333,36.70175879001618L36.77333333333333,36.5191801071167L36.86666666666666,36.83459411859513L37.1,36.697992432117466L37.193333333333335,36.31045846939087L37.24,35.59542016983033L37.70666666666666,36.73427395820618L37.89333333333333,36.57564382553101L38.080000000000005,36.626009631156926L38.17333333333333,36.18137894868851L38.220000000000006,37.08480899333954L38.36,36.739253568649296L39.43333333333334,37.13217859268189L39.48,37.12968878746033L40.04,36.5665708065033L40.32,36.54616706371308L40.36666666666667,36.58380954265595L40.413333333333334,36.614742207527165L40.973333333333336,37.15775184631348L41.346666666666664,39.795014727115635L41.53333333333334,33.66968243122101L41.626666666666665,26.964805769920353L41.86,35.63504605293274L42.093333333333334,38.851494598388676L42.18666666666667,36.43078147172928L42.699999999999996,37.526918220520024L42.98,43.13744108676911L43.02666666666667,46.943530368804936L43.68,17.47259216308594L43.72666666666667,62.89953153133393L43.82,59.15542362928391L44.14666666666667,72.05288370251655L44.42666666666667,69.6635516166687L44.61333333333333,70.1823173046112L44.84666666666667,79.93802826404571L45.03333333333333,84.89000819921493L45.17333333333333,97.1265990614891L45.266666666666666,84.5688655257225L45.45333333333333,89.80434038043022L45.5,84.82704039216041L45.733333333333334,63.98927496671677L45.78,87.15817855596542L46.06,84.2696352481842L47.13333333333333,95.67455731630325L47.22666666666667,100.56228234171867L47.27333333333333,92.56331886649131L47.32,102.93027173280716L47.46,84.56390701532364L47.553333333333335,102.50171928405761L48.20666666666666,89.01728235483169L48.25333333333334,108.34576161503792L48.346666666666664,106.53044568300247L48.44,109.83985574841499L48.53333333333333,107.7513680934906L48.72,104.60337864160537L48.81333333333333,101.15863816738128L49,103.15990878939628L49.093333333333334,108.57613189816475L49.279999999999994,100.46926807165146L49.559999999999995,107.64093046188354L49.653333333333336,113.85881810188293L49.839999999999996,104.40499602556228L50.586666666666666,120.2058538377285L50.63333333333334,114.3714647769928L50.77333333333334,115.48632781505584L50.86666666666667,115.02553449869156L51.05333333333333,131.85194413661958L51.14666666666667,125.46585749387741L51.94,127.06191759109497L51.98666666666667,130.39175249934198L52.36,130.5972985804081L52.406666666666666,130.06827563345433L52.64,133.54944269657136L52.68666666666667,123.07716368436813L52.87333333333333,125.28841139674186L53.06,134.84453967511655L53.34,131.47622356116773L53.38666666666667,125.9901144683361L53.620000000000005,126.11387150287628L53.71333333333333,130.48024608492852L54.04,130.60407696962358L54.13333333333333,130.8937146395445L54.46,132.88046579360963L54.833333333333336,133.42234658002855L54.88,131.23787218630315L55.25333333333333,128.35387330055238L55.626666666666665,138.01576555073262L55.720000000000006,138.52099951654674L56.46666666666667,139.12579140365125L56.98,140.98704213202L57.07333333333334,134.1890905380249L57.166666666666664,143.52773406654597L57.21333333333334,133.95742260217668L57.306666666666665,134.0530321776867L57.35333333333333,134.7697004556656L57.446666666666665,131.3034458488226L57.49333333333333,138.74026985764505L57.54,136.78736844956876L57.77333333333333,128.85884747207166L58.053333333333335,138.17623402476312L58.986666666666665,131.2554406106472L59.36,137.6974529206753L59.5,138.41602284014226L59.54666666666667,137.05028291344644L59.64,139.14454406797887L59.733333333333334,130.8047779530287L59.82666666666667,132.50376670360566L60.10666666666667,141.86805074214936L60.85333333333333,140.42013933062555L60.9,141.32818632870914L60.99333333333333,141.09192781448365L61.13333333333333,139.2208853468299L61.50666666666667,137.3698813274503L61.55333333333333,138.41473573744298L61.97333333333333,141.65173836350442L62.160000000000004,144.24029838591815L62.53333333333333,141.36810761243106L62.67333333333333,141.4047069579363L63.32666666666666,137.36428849697114L63.56,136.52911182045938L63.74666666666666,146.62382664084436L63.980000000000004,141.38417793363334L64.58666666666666,141.12505092769862L64.68,145.11303709745408L64.96000000000001,143.10686862766744L65.10000000000001,138.67082697451116L65.19333333333333,145.6705952167511L65.38000000000001,144.88537817001344L65.42666666666666,146.4475634649396L65.70666666666666,145.07204498648645L66.73333333333333,147.19887933433057L66.82666666666667,146.15295014083387L67.29333333333334,145.9999642699957L67.62,141.86703794002534L68.27333333333334,142.1877652063966L69.02,144.384518507123L69.16,146.23925064057113L69.62666666666667,144.27520577162505L69.72,139.15558730363847L69.95333333333333,145.09638125002385L70.09333333333333,136.82496872842313L70.18666666666667,141.21098745167257L70.7,143.21675238311292L71.02666666666666,144.8092518478632L71.21333333333334,148.3247711017728L71.30666666666666,146.65677699744703L71.68,148.39261301904918L71.72666666666666,132.20285633504392L72.61333333333334,143.42157710641624L72.8,139.56708959788085L73.26666666666667,142.61807555258275L73.31333333333333,142.74945497810842L73.40666666666667,145.87734400033952L73.59333333333332,131.2435375481844L74.01333333333332,147.03210326582195L74.57333333333332,144.1823194205761L74.76,146.41429792642595L74.85333333333332,143.3840018838644L74.99333333333333,144.9142245680094L75.08666666666667,141.01810139715673L75.18,142.58417833149434L75.64666666666666,143.35883084982635L75.69333333333333,145.515802654624L75.83333333333333,142.6413462638855L75.88000000000001,146.3617218911648L76.02000000000001,141.69170448482038L76.16000000000001,143.25662751048804L76.25333333333333,144.07215081453325L76.48666666666666,141.7097463414073L76.81333333333333,147.36855270266534L77.04666666666667,144.46020172834397L77.09333333333333,148.53104711249472L77.65333333333334,145.8954030007124L78.12,144.022810998559L78.21333333333332,141.5894536703825L78.26,147.87403986901046L78.58666666666667,142.06463589817287L78.82,146.25048113912345L79.00666666666667,151.18428800180556L79.05333333333333,145.83095819056035L79.61333333333333,152.6300485275686L79.98666666666666,147.36019708514215L80.17333333333333,145.9233262717724L80.40666666666667,140.4331422328949L80.5,141.46737013310195L80.68666666666667,140.41706004291774L81.38666666666667,143.6896676748991L81.47999999999999,146.98236650526525L81.71333333333334,146.2065020531416L81.75999999999999,142.78611630499364L81.85333333333334,138.5708839774132L81.99333333333334,149.4355268843472L82.17999999999999,138.25436748862268L82.46,140.6939519673586L82.64666666666668,144.59763159155847L82.88,143.59513815790416L83.16,149.35857634171845L83.3,148.30588458403946L83.53333333333333,149.0681718170643L83.67333333333333,139.64815596789123L83.90666666666668,148.3728607401252L84.09333333333333,143.6498307913542L84.28,145.87801392674447L84.7,139.82409868687392L85.02666666666666,141.4992351561785L85.16666666666666,137.89223534166814L85.21333333333334,147.0677649781108L85.63333333333334,144.41311961710454L86.1,142.82574218809606L86.52,146.02307145595552L86.8,146.02246482968332L86.98666666666666,148.21237775981427L87.5,147.9774973422289L87.54666666666667,146.885621483624L87.73333333333333,137.94838124066592L88.01333333333334,141.40083509981633L88.2,152.54321722984315L88.34,147.5968103438616L89.46000000000001,145.42104235589505L90.34666666666666,151.67918162718416L90.44,146.98655486404897L90.48666666666666,144.27656804323198L90.53333333333333,151.20630985423924L90.95333333333332,145.77187279164792L91.32666666666667,144.15529026389123L91.37333333333332,147.64733176231385L91.46666666666667,146.10979263782502L91.51333333333332,146.81214453577996L92.12,145.5200688198209L92.21333333333332,148.5420830950141L92.72666666666666,145.05871371477843L92.86666666666666,142.98806219100953L93.05333333333333,147.65937461256982L93.24000000000001,146.98537326157094L93.42666666666666,137.5427131086588L93.75333333333333,145.89961773455144L93.80000000000001,148.09811574518682L93.94000000000001,148.5263325713575L94.08000000000001,145.0600364238024L94.64,144.1127156496048L94.92,144.8356770157814L95.06,140.55238385796548L95.10666666666667,147.20973135083915L95.57333333333332,147.6925623446703L95.71333333333332,147.1538610711694L96.22666666666667,151.19638228341938L96.36666666666667,149.2535680152476L96.50666666666667,149.30158578157426L96.74,148.74849955290557L96.88,146.02541224211456L97.3,144.01761775016786L97.81333333333333,144.8993332117796L98.04666666666667,146.95201541036369L98.14,145.88331795036794L99.25999999999999,146.53750899732114L99.63333333333334,148.24958702847363L99.72666666666667,144.87692232728006L99.86666666666667,148.96685665771366L100.14666666666668,149.24799166917802L100.19333333333333,147.74428910315038L100.52,149.7560068845749L100.89333333333333,150.85484246090056L101.08,145.62801005244256L101.26666666666668,150.69546459540726L101.45333333333333,147.6401260972023L101.59333333333333,151.88570820093156L101.68666666666667,149.26137700974942L101.96666666666667,147.29356446415187L102.38666666666666,147.5658117413521L102.75999999999999,145.39859190881253L102.85333333333334,149.53877269774677L102.99333333333334,152.70211375057698L103.08666666666666,149.69308325573803L103.13333333333334,146.44050813764335L103.17999999999999,148.62638436555864L103.50666666666666,149.01717696636916L103.69333333333334,149.16134301871062L103.74,146.72057825624944L104.06666666666666,147.18849811255933L104.44,144.87910354435445L104.48666666666666,143.45104331821204L104.67333333333333,148.42326610833408L104.76666666666667,146.71887179017068L105.18666666666667,146.72047011852266L105.7,146.686467397213L106.16666666666666,145.61557025760413L106.26,143.37502381503583L106.58666666666666,148.53779978603126L106.63333333333334,147.11426024436952L106.82000000000001,153.1620300963521L106.96000000000001,152.09874611645938L107.33333333333334,143.36778122484685L108.22,141.01169621497394L108.40666666666667,143.8935916900635L108.73333333333332,148.9176019012928L109.01333333333332,147.23507118523122L109.10666666666667,145.41726544797422L109.52666666666667,144.2267574325204L109.71333333333332,152.40549855977298L110.13333333333333,146.56589910686017L110.36666666666666,146.98639529496432L110.41333333333333,151.21842853277923L110.46000000000001,145.70817703306676L111.20666666666666,147.77343353927137L111.44000000000001,146.8972673892975L111.76666666666667,149.28018242418767L111.95333333333333,145.216975915432L112.09333333333333,148.2625127837062L112.37333333333333,146.42105125933887L112.42,148.6013729006052L112.60666666666667,148.8344209112227L112.84,147.8632221400738L113.12,148.3225780159235L113.16666666666667,145.29166479706765L113.63333333333333,142.4532314568758L113.68,146.12601065933706L113.86666666666667,149.77788367420436L113.91333333333333,146.90014490783216L114.1,145.46552520543338L114.19333333333333,143.11020111590625L114.47333333333333,146.1745816424489L114.61333333333333,147.86753446161748L114.8,150.45285167098046L114.84666666666666,151.36918637081982L114.94,148.79114801734687L114.98666666666666,149.35202675610782L115.08,148.13303763717414L115.59333333333333,146.91941188573838L115.68666666666667,150.4290824711323L116.05999999999999,148.02792381048204L116.10666666666667,149.20428292751313L116.24666666666667,152.85675333738328L117.88,148.48760739639403L118.34666666666668,148.03690847307445L118.86,148.49776904582978L119.18666666666667,147.31395897567273L119.23333333333333,146.03983939737083L119.79333333333334,147.95962824225427L119.93333333333334,147.19117254316808L120.35333333333334,149.41599549651147L120.82,148.6882681578398L121.19333333333334,146.32367851138116L121.33333333333334,148.7951629601419L121.47333333333334,145.29313520640136L121.75333333333334,147.17451801449062L121.98666666666666,148.51148934960366L122.03333333333333,147.14586942940952L122.22,146.1111878782511L122.26666666666667,150.99647584855558L122.59333333333333,147.49235457479955L123.01333333333334,151.44576238766314L123.15333333333334,147.21336319595576L124.08666666666666,150.67706205993892L124.55333333333334,149.22894887924195L125.39333333333335,144.77701098024846L125.72,148.2909806996584L126.04666666666667,146.45229514986278L126.42,148.992723993212L126.51333333333332,145.7427494555712L126.7,145.1552015796304L126.98,149.93478228449823L127.16666666666667,148.41881268024446L127.68,148.2021442383528L127.82000000000001,151.038566480577L128.05333333333334,144.772444139421L128.66,147.07713867276908L129.78,150.16097937449814L130.66666666666666,149.30136423110963L130.9,149.96908568143846L130.94666666666666,150.48809401988984L131.41333333333333,147.15014878213407L131.55333333333334,145.28608119785787L131.78666666666666,148.19241184294225L132.16,152.31359467953445L132.29999999999998,150.56963250339032L132.62666666666667,152.53650477826596L133.09333333333333,145.74045482575895L133.42,145.22130010575057L134.07333333333332,151.7701867774129L134.82,149.74854340329767L135.00666666666666,151.49929649680854L135.05333333333334,153.60636867508293L135.19333333333333,151.28906356841327L135.24,152.9170368231833L136.64,150.92392070889474L136.78,153.09274810105563L136.96666666666667,149.3124549418688L137.01333333333335,146.64898844361306L137.24666666666667,148.7074586480856L137.29333333333332,148.26963338926436L137.85333333333332,148.39671038389207L138.22666666666666,148.61484791636468L138.32,149.29181382358075L138.36666666666667,152.4799856722355L139.3,144.3747122615576L139.67333333333335,149.56465453952552L139.90666666666667,148.49950254634024L140,147.30538708269597L140.14,148.5593396343291L140.23333333333335,149.3133418031037L140.28,151.1388807065785L140.79333333333335,147.44788623154164L140.84,151.48065856397153L140.88666666666666,148.3657717846334L140.98,151.0735048569739L141.07333333333335,149.77375663742424L141.30666666666667,145.03333299905063L141.4,150.58126126527787L141.7733333333333,149.9010433137417L143.03333333333333,153.15590910539032L143.08,144.10967592447997L143.59333333333333,150.20231699869038L143.64000000000001,148.16428812146188L143.96666666666667,149.50408488437535L144.10666666666668,152.17376996129752L144.15333333333334,154.05410106405617L144.29333333333332,153.02211965918542L144.61999999999998,150.88842977508904L144.9466666666667,153.05938431546093L145.55333333333334,147.67415783107282L145.92666666666668,148.10568274855615L145.97333333333333,146.93683524727822L146.29999999999998,150.0850449308753L146.44,152.85751821398736L146.48666666666668,147.56411318778993L146.53333333333333,148.06151376217605L146.67333333333335,147.0052495032549L147.56,145.34376608133317L147.93333333333334,152.25076006650926L147.98,149.62118617370726L148.12,148.96331250965596L148.44666666666666,144.0518248781562L148.58666666666664,152.55330107286574L148.68,152.1657572194934L148.82,151.28341600969435L149.00666666666666,149.17987742945553L149.42666666666665,145.88526706695558L149.70666666666665,151.44932236075402L149.89333333333335,152.1797841332853L149.94,149.98941029906274L150.12666666666667,149.36936571747066L150.22,143.8243334323168L150.68666666666667,148.71762886941434L150.73333333333332,153.48599556013943L150.92000000000002,147.59688419401647L151.15333333333334,151.0725520581007L151.20000000000002,149.055511790514L151.24666666666667,147.88560664951802L151.38666666666666,149.42828099727632L151.80666666666667,150.88138301968576L151.85333333333332,147.6187464773655L151.9,149.0699376270175L152.13333333333333,148.4848202124238L152.36666666666667,146.48893933296205L152.50666666666666,147.5274518609047L152.64666666666668,150.6537557423115L152.74,150.7849914237857L152.83333333333331,150.52443620860578L152.97333333333333,149.9116328984499L153.29999999999998,145.81471115648748L153.85999999999999,151.15596580803395L153.95333333333332,150.75463241636754L154.56,147.56802197098733L154.60666666666668,150.78672426491977L155.12,148.73497178703548L155.58666666666667,149.52026532143356L155.77333333333334,150.06541859284044L156.05333333333334,147.77703900933267L156.38,147.9070680320263L156.42666666666665,149.96459730640055L156.66,150.3106017664075L156.84666666666666,151.8676946975291L156.89333333333335,150.54113557487727L157.08,149.68387110829354L157.78,152.15828582569958L157.82666666666665,147.25747811347247L158.24666666666667,151.09837983101608L158.34,148.3584421567619L158.43333333333334,148.6639582693577L158.80666666666667,147.2642077088356L159.18,148.50756210386754L159.32,152.04738663062454L159.36666666666667,150.74830372184516L159.50666666666666,151.9894841529429L159.6,148.85847298353912L159.64666666666668,151.4418358013034L159.78666666666666,151.35237425118686L160.06666666666666,153.9014033406973L160.25333333333333,151.42485685944558L160.3,152.49892494007946L160.95333333333332,150.97143009603025L161.09333333333333,153.0766566798091L161.23333333333332,149.86999393925072L161.56,151.77536947578193L161.70000000000002,153.83042345121504L161.79333333333332,149.0985941246152L162.07333333333332,148.84346953332425L162.30666666666667,147.47676427960397L162.58666666666667,152.8714508369565L162.67999999999998,152.16926444247366L163.0066666666667,151.60949147790672L163.14666666666668,151.19370257779957L163.2866666666667,148.17011173367501L163.42666666666668,153.35051151663066L163.79999999999998,150.36439237296582L164.22,152.84899445548655L164.45333333333335,149.06790872588755L164.68666666666664,151.57361085265876L164.92,151.65643116384746L165.52666666666664,148.93065293803812L165.62,143.41886575073005L166.41333333333336,153.30643088668586L166.55333333333334,144.34298966377975L166.78666666666666,149.77820413112642L167.20666666666665,150.0090214714408L167.25333333333336,150.79042996019126L167.53333333333336,149.8910517834127L167.81333333333336,151.5771385163069L168.14000000000001,142.83473080694677L168.18666666666667,147.79571518599988L168.23333333333332,151.14921181574465L168.32666666666665,146.08467567265035L168.51333333333332,148.91496967077256L168.70000000000002,147.88091452717782L168.88666666666666,154.23474381789566L168.93333333333334,147.89646394103767L168.98000000000002,153.07563069015742L169.2133333333333,147.74235844910146L169.30666666666667,150.7519612826407L169.7733333333333,146.2843955039978L170.10000000000002,150.22419840395452L170.56666666666666,153.84638992063702L171.40666666666667,147.2013928771019L171.64,149.90657811909915L172.06,146.76710781008006L172.2,146.33224249184133L172.29333333333332,150.70500313416125L172.62,153.22376355081798L172.80666666666667,150.22902437970043L172.85333333333332,150.43304202631117L173.2266666666667,146.00536983758212L173.41333333333333,151.70392472594978L173.46,150.97946525663139L173.6,154.0133173160255L173.69333333333333,151.84804857820274L174.02,151.2340577311814L174.39333333333335,151.7464109838009L174.58,145.07411410957576L174.67333333333335,150.20752013772727L174.95333333333335,152.29491718411447L175.7,147.99558799266816L175.84,148.5571274265647L176.12,150.20017864108087L176.4,145.87044692337514L177.0533333333333,145.85359062552453L177.24,151.38344340696932L177.61333333333332,150.9539381593466L177.98666666666668,151.8627790465951L178.59333333333333,150.28468827456237L179.20000000000002,149.81561055332423L179.43333333333334,151.81440785452725L179.9466666666667,149.42615978345276L180.36666666666667,147.3826884135604L180.6,153.116955126822L180.69333333333333,151.54573175981642L180.7866666666667,152.05491736829282L180.92666666666668,147.8188223719597L181.01999999999998,150.48273328989745L181.25333333333333,150.22532725632192L181.29999999999998,147.08667721152307L181.67333333333335,150.77585048899056L181.72,150.50269393175842L181.85999999999999,148.28343479633332L182.18666666666664,149.55571867078544L182.32666666666665,147.64555672109128L182.37333333333333,149.94769155532123L182.42,153.09842005670072L182.84,151.36492350250484L183.02666666666664,152.59724389314653L183.21333333333334,151.23177167326213L183.58666666666664,150.8302892625332L183.82,150.5611931450665L184.52,150.72655089497567L184.56666666666666,149.3575648583472L184.75333333333336,150.42882333621384L184.84666666666666,148.7411303624511L185.17333333333335,153.07754288166763L185.36,149.59784161224962L185.78,155.87487135753037L185.82666666666665,150.7287307932973L185.87333333333333,151.47194424569608L185.92000000000002,152.4608598008752L185.96666666666667,146.36201597303153L186.24666666666667,153.0359586507082L186.34,151.22368376255037L186.48000000000002,146.33617369383575L186.62,152.36118385121227L186.66666666666666,150.50435951650144L186.80666666666667,144.9040253341198L187.32000000000002,151.61149400398136L187.60000000000002,148.94558055996896L187.88000000000002,148.96044554114343L188.29999999999998,150.8401462800801L188.34666666666666,148.7723669998348L188.57999999999998,149.98558130040766L188.72,149.6744037821889L189,152.28593252152206L189.18666666666667,146.139021474123L189.37333333333333,150.01324609592558L189.74666666666667,146.56940303295852L189.88666666666668,151.32069121599199L190.16666666666669,153.28934710398318L190.21333333333334,152.75025350153447L190.58666666666667,154.30434363260866L190.7266666666667,154.99976416602732L190.77333333333334,149.96784869134427L191.33333333333334,150.4537952385843L191.94,150.67509975582362L191.98666666666665,150.66356330662967L192.03333333333333,152.08717669844629L192.08,150.48515188246967L192.73333333333335,152.6942342028022L193.85333333333335,151.52615949064494L193.9933333333333,152.4027753353119L194.08666666666667,153.99799604639412L194.18,151.80194498151542L194.32,151.54669708684088L194.41333333333333,152.68586078211666L194.50666666666666,151.0247855141759L194.64666666666668,150.22448061704637L194.69333333333333,151.69161944389344L195.53333333333333,150.77545684129L196,152.35334914103152L196.32666666666668,149.7093685336411L196.51333333333332,152.8472912862897L196.56,152.19158565178515L196.79333333333332,151.55266510248185L196.83999999999997,154.17946763634683L196.98000000000002,152.7798806011677L197.49333333333334,150.9907458677888L197.54,153.8754423737526L198.1,150.49139485806228L198.14666666666668,151.81266907900573L198.23999999999998,149.18756377995015L198.2866666666667,149.61450800970198L198.42666666666668,153.15936753451825L198.47333333333333,151.24894315302373L198.51999999999998,146.76683087199928L198.84666666666666,149.6127138465643L198.94,149.86079234182836L199.03333333333333,153.2699746258557L199.73333333333335,154.43693697005511L199.78,147.89506738185884L199.82666666666665,151.49485427811743L199.87333333333333,151.85546128749849L200.06,152.78667877167464L200.2,151.95851192548872L200.9,151.01322664618493L200.99333333333334,147.78010510951282L201.27333333333334,152.14593900293113L201.36666666666665,152.40758482664825L201.55333333333334,151.17522289529444L201.74,153.07492977306248L201.78666666666666,150.79910075962545L202.48666666666665,149.81664577424527L202.90666666666667,152.45670968592168L203,149.8650453194976L203.09333333333336,152.585890750587L203.23333333333332,149.27731215879322L203.32666666666665,153.31589161902667L203.46666666666667,153.81015685871245L203.88666666666666,152.5266431450844L204.02666666666667,152.89545675292612L204.16666666666666,150.9210458278656L205.19333333333333,149.7228310212493L205.42666666666668,151.8245048850775L205.70666666666668,149.55110633298756L205.84666666666666,152.85336875841023L206.03333333333333,152.59936708509923L206.31333333333333,143.78436731100084L206.45333333333332,149.40704248398544L206.54666666666668,150.99192549213768L206.78,150.08302723914386L206.87333333333333,153.6135037869215L207.01333333333332,148.62622149959208L207.80666666666667,153.777773565799L207.99333333333334,148.6190481439233L208.36666666666667,148.89816414490343L208.41333333333333,152.1023318052292L208.83333333333334,151.0779431194067L209.11333333333334,151.61141026318074L209.16,150.6415526635945L209.20666666666665,147.95226828306915L209.34666666666666,149.10978110432626L209.62666666666667,150.1136829659343L209.86,152.3723681934178L210,150.1083064109087L210.37333333333333,151.78226391524078L210.56,149.1558181039989L210.65333333333334,152.2420457482338L211.07333333333335,148.0709995508194L211.30666666666667,151.74108717888595L211.58666666666667,149.46145817935468L211.63333333333333,151.08940044343473L211.86666666666667,151.45161039680244L212.19333333333333,151.14593933075668L213.03333333333333,152.22237786948682L213.08,154.37015335187317L213.40666666666667,151.47592292279006L213.78,149.99650518894197L213.82666666666668,155.13690159581603L213.92000000000002,150.69121491461993L214.10666666666668,150.01403536945583L214.29333333333332,150.6196119144559L214.52666666666667,153.55393968075515L215.08666666666667,148.44115960523487L215.36666666666667,151.51542748063804L215.64666666666668,151.0870972417295L215.7866666666667,152.84982856661082L216.06666666666666,154.00213791914285L216.62666666666667,153.56704808324577L216.81333333333333,145.6677968233824L217.14,148.7344983547926L217.28,153.68286161050202L217.79333333333335,151.88483386784793L218.26,152.26454498916866L218.30666666666664,152.2109785705805L218.44666666666666,149.56254189759494L218.96,151.24569374620916L219.66,154.9315437667072L219.70666666666665,151.66482436582447L220.08,152.27672103345395L220.31333333333336,153.25037070661784L220.59333333333336,147.23225960433484L220.68666666666667,150.57094795927406L220.73333333333332,153.9984421145171L221.01333333333332,152.00185405388476L221.48000000000002,152.03933102935554L221.62,151.8322644263506L221.7133333333333,151.3832139439881L221.76000000000002,153.32989941090347L221.80666666666667,150.00524851977826L221.9933333333333,152.11570000201465L222.46,150.61723024696113L222.50666666666666,152.58440187871457L222.60000000000002,152.159636887908L223.06666666666666,150.1559661358595L223.11333333333332,149.48045745044948L223.90666666666667,152.57919280529023L224.23333333333332,150.31928905025126L224.42,150.05382675603033L224.84,150.24016256555916L225.07333333333332,154.50739463344217L225.30666666666667,153.85872586369516L225.58666666666667,153.54711975082756L226.0066666666667,151.2409963488579L226.19333333333333,155.71391098871828L226.38,151.8418451651931L226.8,151.18132806122304L227.03333333333333,152.9295814588666L227.31333333333333,150.45959049761296L227.54666666666665,152.3725640282035L227.68666666666667,153.2561666250229L227.73333333333335,153.00995152741672L228.06,149.09577397182585L228.43333333333334,145.85170349031688L228.80666666666667,156.58832220844926L228.9933333333333,154.640725813061L229.13333333333333,153.28376812040807L229.2733333333333,153.79562255479397L229.32,150.15198218375446L229.69333333333333,153.46605799645187L229.78666666666666,152.04644306302072L230.3,149.1731511309743L230.67333333333332,152.39141823649408L230.95333333333332,157.09226280748845L231.18666666666667,151.4216351464391L231.37333333333333,152.13232288062574L231.74666666666667,147.14448869526387L232.82,151.22258985713125L233.1,150.2817184433341L233.2866666666667,154.23846797570587L233.98666666666668,152.19364620298148L234.26666666666668,150.82004387229682L234.40666666666664,151.85950985848905L234.5,150.56925402134658L234.82666666666665,153.1656395226717L234.96666666666664,147.84972602427007L235.15333333333334,152.1478406444192L235.34,153.4449414677918L235.38666666666666,152.08840709477664L235.43333333333334,150.00251078903676L235.52666666666664,151.89771610423924L235.80666666666664,154.95520746633412L236.13333333333335,153.03232218995691L236.22666666666666,150.88360379934312L236.32,151.2181450009346L236.50666666666666,154.09003081284465L236.64666666666665,151.04794808775188L236.69333333333336,155.39889787808062L236.78666666666666,152.39723921120168L237.16,150.81509393379093L237.53333333333336,153.6685439117253L237.62666666666667,152.31957258582116L238.28,151.3748082138598L238.42000000000002,149.18074582815171L238.56,150.67423729151488L239.02666666666667,151.11883896142245L239.2133333333333,154.16926873214544L239.35333333333332,152.88490277454258L240.0533333333333,149.2046488814056L240.28666666666666,151.17459187209607L240.33333333333331,150.45111355483533L240.51999999999998,154.26812046132983L240.70666666666668,151.53580550774933L240.75333333333333,153.5014902457595L240.79999999999998,153.6174244388938L240.89333333333332,149.62597588375212L241.12666666666667,149.6211888112128L241.17333333333332,147.9364577561617L241.22,153.81174661517144L241.64,153.26945305913688L242.01333333333332,148.93136704266072L242.2,152.00956018567086L242.29333333333332,152.72728478461505L242.57333333333332,152.84311215877534L242.9466666666667,154.09706075415016L242.99333333333334,154.94666689373554L243.27333333333334,153.0237984314561L243.41333333333333,152.70606605261565L243.7866666666667,156.49736947864295L244.06666666666666,151.8317580252886L244.20666666666665,148.96329536587L244.25333333333333,150.95682227164508L244.39333333333335,148.06890537142755L244.53333333333333,150.5127507403493L244.67333333333335,150.06325979456307L245.23333333333335,152.40013453289868L245.42,151.0481775507331L245.74666666666667,152.4160960569978L246.02666666666667,154.75382270962L246.16666666666666,153.30964996218682L246.2133333333333,149.48025172501804L246.26,150.06418292149903L246.4,149.92135342508556L246.44666666666666,152.4041389256716L246.7733333333333,153.8087688714266L246.86666666666667,149.738609238714L246.96,153.63551970496775L247.24,151.21418742388488L247.52,150.05552267208697L247.66,149.74294727593661L247.8,152.20885405987502L247.89333333333332,153.0929070107639L247.98666666666668,151.11386264786125L248.73333333333332,152.38050687611104L248.82666666666668,149.73178271502258L248.92000000000002,151.73494838476182L248.96666666666667,147.70323896706105L249.01333333333332,151.85161052942277L249.33999999999997,153.80208246521653L249.38666666666668,149.83172043710948L250.2266666666667,154.08475547209383L250.36666666666667,154.75924641005696L250.88,152.80642577558757L251.16,149.8920929387212L251.76666666666668,152.6256247714162L252.37333333333333,152.52686469554902L252.46666666666664,154.5660580314696L252.65333333333334,153.1651067465544L253.16666666666666,152.84893708974124L253.26,147.2941513091326L253.35333333333335,154.8530311614275L253.54,153.41947041749955L253.63333333333335,152.26437289193274L253.86666666666665,152.11261675804855L254.05333333333334,155.51106109768153L254.28666666666666,151.95198343992234L255.64000000000001,152.21766530647875L255.73333333333332,152.03967126756908L256.2,151.60314036458732L256.24666666666667,151.32710431069137L257.32,149.52075787559153L257.64666666666665,154.76900847740472L257.74,156.45440319478513L257.8333333333333,151.11770285591484L258.86,153.18049791008235L259.37333333333333,151.93349056988956L259.42,152.1843489959836L259.5133333333333,151.8434843748808L259.6066666666667,151.91956322193147L259.74666666666667,151.12230134680868L260.2133333333333,153.60012833699585L260.3533333333333,149.5718127295375L260.40000000000003,152.53779847472907L260.68,153.84343558475376L260.7733333333333,153.10763154476882L260.8666666666667,155.70488874167205L261.1,151.7273695126176L261.1933333333333,148.8325970761478L261.38,153.88705926686526L261.4733333333333,150.68676742091776L262.36,151.50801674947144L262.5466666666667,155.183149266243L262.82666666666665,154.1842296525836L263.0133333333333,153.1399053812027L263.2,155.16788272485138L263.5266666666667,151.31739037781955L263.7133333333333,152.07777465060354L263.76,154.6663069792092L263.85333333333335,152.11444389000536L263.9,151.78872712254525L264.46,151.58691970556976L264.88,147.26703907102348L265.3933333333333,155.7044110234827L265.86,149.71154909133912L265.90666666666664,152.48157806620003L266,152.47422404140235L266.23333333333335,151.0922502681613L266.32666666666665,153.919677297771L266.56,152.68597617298366L266.84,153.3008538812399L267.1666666666667,155.04389424920083L267.35333333333335,149.4808715388179L267.77333333333337,154.5610240224749L268.4733333333333,153.47643855884672L268.52,153.21050612926484L268.70666666666665,153.20406995639206L268.8933333333333,154.55052872858943L269.0333333333333,148.08714372217656L269.5933333333333,150.75243273675443L270.0133333333333,151.00953941345216L270.24666666666667,148.84873267561198L270.34000000000003,152.38168650045992L270.43333333333334,153.05568257644774L270.52666666666664,152.47917332053186L270.85333333333335,155.05095946714283L271.50666666666666,153.83581055626274L271.55333333333334,154.22252260632814L271.6933333333333,152.96312921047212L271.7866666666667,150.97431486770512L271.97333333333336,152.65482327640058L272.02,155.99077686779202L272.20666666666665,150.5521089166403" style="fill: none;" fill="none"></path></g></g></g></g></g></g><g transform="translate(50, 177)" clip-path="url(#clip_1)"><clipPath id="clip_1"><rect width="280" height="22"></rect></clipPath><g><g><line x1="0" y1="0" x2="0" y2="5" style="visibility: inherit;" fill="rgb(0, 0, 0)" stroke="rgb(204, 204, 204)" stroke-width="1px"></line><line x1="23.333333333333332" y1="0" x2="23.333333333333332" y2="5" style="visibility: inherit;" fill="rgb(0, 0, 0)" stroke="rgb(204, 204, 204)" stroke-width="1px"></line><line x1="46.666666666666664" y1="0" x2="46.666666666666664" y2="5" style="visibility: inherit;" fill="rgb(0, 0, 0)" stroke="rgb(204, 204, 204)" stroke-width="1px"></line><line x1="70" y1="0" x2="70" y2="5" style="visibility: inherit;" fill="rgb(0, 0, 0)" stroke="rgb(204, 204, 204)" stroke-width="1px"></line><line x1="93.33333333333333" y1="0" x2="93.33333333333333" y2="5" style="visibility: inherit;" fill="rgb(0, 0, 0)" stroke="rgb(204, 204, 204)" stroke-width="1px"></line><line x1="116.66666666666667" y1="0" x2="116.66666666666667" y2="5" style="visibility: inherit;" fill="rgb(0, 0, 0)" stroke="rgb(204, 204, 204)" stroke-width="1px"></line><line x1="140" y1="0" x2="140" y2="5" style="visibility: inherit;" fill="rgb(0, 0, 0)" stroke="rgb(204, 204, 204)" stroke-width="1px"></line><line x1="163.33333333333334" y1="0" x2="163.33333333333334" y2="5" style="visibility: inherit;" fill="rgb(0, 0, 0)" stroke="rgb(204, 204, 204)" stroke-width="1px"></line><line x1="186.66666666666666" y1="0" x2="186.66666666666666" y2="5" style="visibility: inherit;" fill="rgb(0, 0, 0)" stroke="rgb(204, 204, 204)" stroke-width="1px"></line><line x1="210" y1="0" x2="210" y2="5" style="visibility: inherit;" fill="rgb(0, 0, 0)" stroke="rgb(204, 204, 204)" stroke-width="1px"></line><line x1="233.33333333333334" y1="0" x2="233.33333333333334" y2="5" style="visibility: inherit;" fill="rgb(0, 0, 0)" stroke="rgb(204, 204, 204)" stroke-width="1px"></line><line x1="256.66666666666663" y1="0" x2="256.66666666666663" y2="5" style="visibility: inherit;" fill="rgb(0, 0, 0)" stroke="rgb(204, 204, 204)" stroke-width="1px"></line><line x1="280" y1="0" x2="280" y2="5" style="visibility: inherit;" fill="rgb(0, 0, 0)" stroke="rgb(204, 204, 204)" stroke-width="1px"></line></g><g transform="translate(0, 8)"><text x="0" y="0" dx="0em" dy="0.95em" style="text-anchor: middle; visibility: hidden; font-family: Roboto, sans-serif; font-size: 12px; font-weight: 200;" fill="rgb(33, 33, 33)" stroke="none" stroke-width="1px">-500</text><text x="23.333333333333332" y="0" dx="0em" dy="0.95em" style="text-anchor: middle; visibility: inherit; font-family: Roboto, sans-serif; font-size: 12px; font-weight: 200;" fill="rgb(33, 33, 33)" stroke="none" stroke-width="1px">0</text><text x="46.666666666666664" y="0" dx="0em" dy="0.95em" style="text-anchor: middle; visibility: inherit; font-family: Roboto, sans-serif; font-size: 12px; font-weight: 200;" fill="rgb(33, 33, 33)" stroke="none" stroke-width="1px">500</text><text x="70" y="0" dx="0em" dy="0.95em" style="text-anchor: middle; visibility: inherit; font-family: Roboto, sans-serif; font-size: 12px; font-weight: 200;" fill="rgb(33, 33, 33)" stroke="none" stroke-width="1px">1k</text><text x="93.33333333333333" y="0" dx="0em" dy="0.95em" style="text-anchor: middle; visibility: inherit; font-family: Roboto, sans-serif; font-size: 12px; font-weight: 200;" fill="rgb(33, 33, 33)" stroke="none" stroke-width="1px">1.5k</text><text x="116.66666666666667" y="0" dx="0em" dy="0.95em" style="text-anchor: middle; visibility: inherit; font-family: Roboto, sans-serif; font-size: 12px; font-weight: 200;" fill="rgb(33, 33, 33)" stroke="none" stroke-width="1px">2k</text><text x="140" y="0" dx="0em" dy="0.95em" style="text-anchor: middle; visibility: inherit; font-family: Roboto, sans-serif; font-size: 12px; font-weight: 200;" fill="rgb(33, 33, 33)" stroke="none" stroke-width="1px">2.5k</text><text x="163.33333333333334" y="0" dx="0em" dy="0.95em" style="text-anchor: middle; visibility: inherit; font-family: Roboto, sans-serif; font-size: 12px; font-weight: 200;" fill="rgb(33, 33, 33)" stroke="none" stroke-width="1px">3k</text><text x="186.66666666666666" y="0" dx="0em" dy="0.95em" style="text-anchor: middle; visibility: inherit; font-family: Roboto, sans-serif; font-size: 12px; font-weight: 200;" fill="rgb(33, 33, 33)" stroke="none" stroke-width="1px">3.5k</text><text x="210" y="0" dx="0em" dy="0.95em" style="text-anchor: middle; visibility: inherit; font-family: Roboto, sans-serif; font-size: 12px; font-weight: 200;" fill="rgb(33, 33, 33)" stroke="none" stroke-width="1px">4k</text><text x="233.33333333333334" y="0" dx="0em" dy="0.95em" style="text-anchor: middle; visibility: inherit; font-family: Roboto, sans-serif; font-size: 12px; font-weight: 200;" fill="rgb(33, 33, 33)" stroke="none" stroke-width="1px">4.5k</text><text x="256.66666666666663" y="0" dx="0em" dy="0.95em" style="text-anchor: middle; visibility: inherit; font-family: Roboto, sans-serif; font-size: 12px; font-weight: 200;" fill="rgb(33, 33, 33)" stroke="none" stroke-width="1px">5k</text><text x="280" y="0" dx="0em" dy="0.95em" style="text-anchor: middle; visibility: hidden; font-family: Roboto, sans-serif; font-size: 12px; font-weight: 200;" fill="rgb(33, 33, 33)" stroke="none" stroke-width="1px">5.5k</text></g><line x1="0" y1="0" x2="280" y2="0" fill="rgb(0, 0, 0)" stroke="rgb(204, 204, 204)" stroke-width="1px"></line></g></g></g></g></svg>