<svg viewBox="0 0 330 200" xmlns="http://www.w3.org/2000/svg"><g><g><g><g><g><line x1="40" y1="177" x2="35" y2="177" style="visibility: inherit;" fill="rgb(0, 0, 0)" stroke="rgb(204, 204, 204)" stroke-width="1px"></line><line x1="40" y1="157.33333333333331" x2="35" y2="157.33333333333331" style="visibility: inherit;" fill="rgb(0, 0, 0)" stroke="rgb(204, 204, 204)" stroke-width="1px"></line><line x1="40" y1="137.66666666666666" x2="35" y2="137.66666666666666" style="visibility: inherit;" fill="rgb(0, 0, 0)" stroke="rgb(204, 204, 204)" stroke-width="1px"></line><line x1="40" y1="118.00000000000001" x2="35" y2="118.00000000000001" style="visibility: inherit;" fill="rgb(0, 0, 0)" stroke="rgb(204, 204, 204)" stroke-width="1px"></line><line x1="40" y1="98.33333333333334" x2="35" y2="98.33333333333334" style="visibility: inherit;" fill="rgb(0, 0, 0)" stroke="rgb(204, 204, 204)" stroke-width="1px"></line><line x1="40" y1="78.66666666666666" x2="35" y2="78.66666666666666" style="visibility: inherit;" fill="rgb(0, 0, 0)" stroke="rgb(204, 204, 204)" stroke-width="1px"></line><line x1="40" y1="59.00000000000001" x2="35" y2="59.00000000000001" style="visibility: inherit;" fill="rgb(0, 0, 0)" stroke="rgb(204, 204, 204)" stroke-width="1px"></line><line x1="40" y1="39.33333333333333" x2="35" y2="39.33333333333333" style="visibility: inherit;" fill="rgb(0, 0, 0)" stroke="rgb(204, 204, 204)" stroke-width="1px"></line><line x1="40" y1="19.666666666666675" x2="35" y2="19.666666666666675" style="visibility: inherit;" fill="rgb(0, 0, 0)" stroke="rgb(204, 204, 204)" stroke-width="1px"></line><line x1="40" y1="0" x2="35" y2="0" style="visibility: inherit;" fill="rgb(0, 0, 0)" stroke="rgb(204, 204, 204)" stroke-width="1px"></line></g><g transform="translate(30, 0)"><text x="0" y="177" dx="0em" dy="0.3em" style="text-anchor: end; visibility: hidden; font-family: Roboto, sans-serif; font-size: 12px; font-weight: 200;" fill="rgb(33, 33, 33)" stroke="none" stroke-width="1px">1.5</text><text x="0" y="157.33333333333331" dx="0em" dy="0.3em" style="text-anchor: end; visibility: inherit; font-family: Roboto, sans-serif; font-size: 12px; font-weight: 200;" fill="rgb(33, 33, 33)" stroke="none" stroke-width="1px">2</text><text x="0" y="137.66666666666666" dx="0em" dy="0.3em" style="text-anchor: end; visibility: hidden; font-family: Roboto, sans-serif; font-size: 12px; font-weight: 200;" fill="rgb(33, 33, 33)" stroke="none" stroke-width="1px">2.5</text><text x="0" y="118.00000000000001" dx="0em" dy="0.3em" style="text-anchor: end; visibility: inherit; font-family: Roboto, sans-serif; font-size: 12px; font-weight: 200;" fill="rgb(33, 33, 33)" stroke="none" stroke-width="1px">3</text><text x="0" y="98.33333333333334" dx="0em" dy="0.3em" style="text-anchor: end; visibility: hidden; font-family: Roboto, sans-serif; font-size: 12px; font-weight: 200;" fill="rgb(33, 33, 33)" stroke="none" stroke-width="1px">3.5</text><text x="0" y="78.66666666666666" dx="0em" dy="0.3em" style="text-anchor: end; visibility: inherit; font-family: Roboto, sans-serif; font-size: 12px; font-weight: 200;" fill="rgb(33, 33, 33)" stroke="none" stroke-width="1px">4</text><text x="0" y="59.00000000000001" dx="0em" dy="0.3em" style="text-anchor: end; visibility: hidden; font-family: Roboto, sans-serif; font-size: 12px; font-weight: 200;" fill="rgb(33, 33, 33)" stroke="none" stroke-width="1px">4.5</text><text x="0" y="39.33333333333333" dx="0em" dy="0.3em" style="text-anchor: end; visibility: inherit; font-family: Roboto, sans-serif; font-size: 12px; font-weight: 200;" fill="rgb(33, 33, 33)" stroke="none" stroke-width="1px">5</text><text x="0" y="19.666666666666675" dx="0em" dy="0.3em" style="text-anchor: end; visibility: hidden; font-family: Roboto, sans-serif; font-size: 12px; font-weight: 200;" fill="rgb(33, 33, 33)" stroke="none" stroke-width="1px">5.5</text><text x="0" y="0" dx="0em" dy="0.3em" style="text-anchor: end; visibility: hidden; font-family: Roboto, sans-serif; font-size: 12px; font-weight: 200;" fill="rgb(33, 33, 33)" stroke="none" stroke-width="1px">6</text></g><line x1="40" y1="0" x2="40" y2="177" fill="rgb(0, 0, 0)" stroke="rgb(204, 204, 204)" stroke-width="1px"></line></g></g><g transform="translate(40, 0)" clip-path="url(#clip_0)"><clipPath id="clip_0"><rect width="290" height="176"></rect></clipPath><g><g><g><line x1="0" y1="0" x2="0" y2="177" fill="rgb(0, 0, 0)" stroke="rgb(66, 66, 66)" stroke-width="1px" opacity="0.25"></line><line x1="24.166666666666664" y1="0" x2="24.166666666666664" y2="177" fill="rgb(0, 0, 0)" stroke="rgb(66, 66, 66)" stroke-width="1px" opacity="0.25"></line><line x1="48.33333333333333" y1="0" x2="48.33333333333333" y2="177" fill="rgb(0, 0, 0)" stroke="rgb(66, 66, 66)" stroke-width="1px" opacity="0.25"></line><line x1="72.5" y1="0" x2="72.5" y2="177" fill="rgb(0, 0, 0)" stroke="rgb(66, 66, 66)" stroke-width="1px" opacity="0.25"></line><line x1="96.66666666666666" y1="0" x2="96.66666666666666" y2="177" fill="rgb(0, 0, 0)" stroke="rgb(66, 66, 66)" stroke-width="1px" opacity="0.25"></line><line x1="120.83333333333334" y1="0" x2="120.83333333333334" y2="177" fill="rgb(0, 0, 0)" stroke="rgb(66, 66, 66)" stroke-width="1px" opacity="0.25"></line><line x1="145" y1="0" x2="145" y2="177" fill="rgb(0, 0, 0)" stroke="rgb(66, 66, 66)" stroke-width="1px" opacity="0.25"></line><line x1="169.16666666666669" y1="0" x2="169.16666666666669" y2="177" fill="rgb(0, 0, 0)" stroke="rgb(66, 66, 66)" stroke-width="1px" opacity="0.25"></line><line x1="193.33333333333331" y1="0" x2="193.33333333333331" y2="177" fill="rgb(0, 0, 0)" stroke="rgb(66, 66, 66)" stroke-width="1px" opacity="0.25"></line><line x1="217.5" y1="0" x2="217.5" y2="177" fill="rgb(0, 0, 0)" stroke="rgb(66, 66, 66)" stroke-width="1px" opacity="0.25"></line><line x1="241.66666666666669" y1="0" x2="241.66666666666669" y2="177" fill="rgb(0, 0, 0)" stroke="rgb(66, 66, 66)" stroke-width="1px" opacity="0.25"></line><line x1="265.8333333333333" y1="0" x2="265.8333333333333" y2="177" fill="rgb(0, 0, 0)" stroke="rgb(66, 66, 66)" stroke-width="1px" opacity="0.25"></line><line x1="290" y1="0" x2="290" y2="177" fill="rgb(0, 0, 0)" stroke="rgb(66, 66, 66)" stroke-width="1px" opacity="0.25"></line></g><g><line x1="0" y1="177" x2="290" y2="177" fill="rgb(0, 0, 0)" stroke="rgb(66, 66, 66)" stroke-width="1px" opacity="0.25"></line><line x1="0" y1="157.33333333333331" x2="290" y2="157.33333333333331" fill="rgb(0, 0, 0)" stroke="rgb(66, 66, 66)" stroke-width="1px" opacity="0.25"></line><line x1="0" y1="137.66666666666666" x2="290" y2="137.66666666666666" fill="rgb(0, 0, 0)" stroke="rgb(66, 66, 66)" stroke-width="1px" opacity="0.25"></line><line x1="0" y1="118.00000000000001" x2="290" y2="118.00000000000001" fill="rgb(0, 0, 0)" stroke="rgb(66, 66, 66)" stroke-width="1px" opacity="0.25"></line><line x1="0" y1="98.33333333333334" x2="290" y2="98.33333333333334" fill="rgb(0, 0, 0)" stroke="rgb(66, 66, 66)" stroke-width="1px" opacity="0.25"></line><line x1="0" y1="78.66666666666666" x2="290" y2="78.66666666666666" fill="rgb(0, 0, 0)" stroke="rgb(66, 66, 66)" stroke-width="1px" opacity="0.25"></line><line x1="0" y1="59.00000000000001" x2="290" y2="59.00000000000001" fill="rgb(0, 0, 0)" stroke="rgb(66, 66, 66)" stroke-width="1px" opacity="0.25"></line><line x1="0" y1="39.33333333333333" x2="290" y2="39.33333333333333" fill="rgb(0, 0, 0)" stroke="rgb(66, 66, 66)" stroke-width="1px" opacity="0.25"></line><line x1="0" y1="19.666666666666675" x2="290" y2="19.666666666666675" fill="rgb(0, 0, 0)" stroke="rgb(66, 66, 66)" stroke-width="1px" opacity="0.25"></line><line x1="0" y1="0" x2="290" y2="0" fill="rgb(0, 0, 0)" stroke="rgb(66, 66, 66)" stroke-width="1px" opacity="0.25"></line></g></g></g><g><g><line x1="0" y1="236" x2="290" y2="236" fill="rgb(0, 0, 0)" stroke="rgb(153, 153, 153)" stroke-width="1.5px"></line></g></g><g><g><line x1="24.166666666666664" y1="0" x2="24.166666666666664" y2="177" fill="rgb(0, 0, 0)" stroke="rgb(153, 153, 153)" stroke-width="1.5px"></line></g></g><g><g><g><g><g><path stroke="rgb(204, 51, 17)" stroke-width="2px" d="M24.360000000000003,22.697945912679042L24.843333333333334,29.34337202707926L24.891666666666666,29.628400802612312L25.036666666666665,31.922753969828296L25.084999999999997,32.78125381469727L25.423333333333336,36.30950005849203L25.471666666666668,37.56503709157308L26.099999999999998,45.78306357065837L26.438333333333333,50.66220029195149L26.486666666666668,51.051622708638504L26.535,51.28413581848145L27.16333333333333,60.068243662516274L27.21166666666667,58.20528793334962L27.35666666666667,60.73868115743L27.405,61.270589828491204L27.55,64.891188621521L27.598333333333333,65.05250549316406L27.888333333333332,65.7319081624349L28.130000000000003,67.34622097015381L28.468333333333334,73.37237485249837L28.951666666666664,67.26720364888509L29.145000000000003,74.06002998352051L29.338333333333335,68.82714398701985L30.014999999999997,70.44792747497559L30.208333333333336,69.28680610656738L30.256666666666668,73.80069637298584L30.353333333333335,70.87465476989746L30.45,68.03333218892416L30.74,74.2964817682902L31.12666666666667,71.86562538146973L31.223333333333333,67.09285163879395L31.27166666666667,71.96908124287924L31.416666666666668,77.20894432067871L31.755,71.63864517211914L31.9,67.88068040211995L31.99666666666667,73.54209423065186L32.093333333333334,73.7206474939982L32.480000000000004,73.45261128743489L32.721666666666664,74.33052317301431L33.06,70.65519555409749L33.108333333333334,72.15356127421062L33.39833333333333,73.7113447189331L33.446666666666665,70.0842940012614L33.97833333333333,72.90380382537842L34.074999999999996,72.3756275177002L34.461666666666666,72.22368844350179L34.55833333333334,68.04647986094157L34.99333333333333,70.22940603892009L35.235,73.72976271311441L35.96,71.02199872334798L36.00833333333333,69.28650601704916L36.63666666666666,68.17962582906087L36.685,72.6663204828898L37.265,72.26909573872884L37.410000000000004,68.54367192586263L37.79666666666667,72.98752880096436L37.94166666666666,72.6102975209554L38.086666666666666,73.3173459370931L38.18333333333333,70.26656087239584L38.425000000000004,70.78579076131186L38.52166666666667,77.35309982299805L38.57,70.64988772074382L39.05333333333333,71.50075403849283L39.24666666666667,74.84844017028809L39.440000000000005,70.14660008748372L39.53666666666667,72.67973073323569L39.585,72.55476220448811L39.730000000000004,72.3079760869344L40.84166666666667,73.76155344645183L40.88999999999999,73.75048764546712L41.47,70.03890546162923L41.76,69.84577910105388L41.80833333333333,71.23635641733806L41.85666666666667,72.46317863464355L42.43666666666667,74.75537490844727L42.82333333333333,72.39749654134116L43.01666666666667,72.44864304860434L43.11333333333334,70.04578876495361L43.355,66.93322277069092L43.59666666666667,73.25807825724284L43.693333333333335,70.50863933563232L44.225,69.7008171081543L44.515,72.93043677012126L44.56333333333333,70.99782276153564L45.24,74.30490303039551L45.288333333333334,75.56814861297607L45.385,79.21977853775024L45.723333333333336,76.14745267232259L46.013333333333335,77.08376948038737L46.20666666666666,76.26128037770589L46.44833333333334,78.85189692179362L46.641666666666666,77.1334155400594L46.78666666666666,80.47012964884439L46.88333333333333,79.66232617696127L47.07666666666667,80.3931754430135L47.125,80.03786007563274L47.36666666666667,75.0657237370809L47.415,81.16057936350505L47.705000000000005,80.52512105305989L48.81666666666667,81.51559464136758L48.913333333333334,79.54611651102701L48.961666666666666,79.2260897954305L49.010000000000005,83.73903290430704L49.155,80.93287706375122L49.251666666666665,80.5184253056844L49.928333333333335,78.86094649632773L49.97666666666667,79.20783122380575L50.07333333333333,81.03943697611491L50.169999999999995,84.42177406946819L50.266666666666666,85.09223969777425L50.459999999999994,84.548815091451L50.55666666666667,82.30082575480144L50.75,85.11055453618367L50.84666666666667,81.17863162358601L51.04,79.33630704879761L51.33,81.77574412027995L51.42666666666667,84.26556809743245L51.62,84.34548568725586L52.39333333333333,84.66635640462239L52.44166666666667,81.7607208887736L52.58666666666667,83.17011944452922L52.68333333333334,80.4669974644979L52.876666666666665,88.40139245986938L52.973333333333336,83.07704480489095L53.795,89.882981300354L53.843333333333334,82.97418912251791L54.23,85.31277736028035L54.278333333333336,93.29558054606119L54.52,88.63560295104979L54.568333333333335,86.98752069473267L54.76166666666666,85.32046715418498L54.955,88.23268588383992L55.245,89.31741571426392L55.29333333333334,86.5244075457255L55.535000000000004,89.57467683156331L55.63166666666667,88.48646783828735L55.97,88.71512667338054L56.06666666666666,90.08858013153076L56.405,90.46375767389934L56.791666666666664,88.06849002838135L56.84,85.80167945226034L57.22666666666667,87.10238933563232L57.61333333333333,88.00401767094931L57.71,90.05079698562623L58.483333333333334,89.66806093851724L59.01499999999999,90.18323961893717L59.11166666666667,87.933571656545L59.208333333333336,90.57288710276286L59.25666666666667,83.58741267522176L59.35333333333333,86.41942310333252L59.40166666666667,83.97119903564453L59.498333333333335,88.55630429585774L59.54666666666667,89.87055571873982L59.595,87.46515067418416L59.836666666666666,84.72459252675374L60.12666666666667,91.23432191212972L61.093333333333334,91.3479339281718L61.48,86.58340326944986L61.625,85.19061279296875L61.67333333333333,85.84504238764445L61.769999999999996,90.09462881088255L61.86666666666667,87.18747409184773L61.96333333333334,86.47711531321208L62.25333333333334,91.19044319788615L63.026666666666664,88.9886301358541L63.075,88.72442944844563L63.17166666666667,91.4792981147766L63.31666666666666,90.2737822532654L63.70333333333333,86.02488040924072L63.751666666666665,88.0724287033081L64.18666666666667,91.72037315368652L64.38,93.53190104166666L64.76666666666667,89.79483938217162L64.91166666666666,91.55384222666423L65.58833333333332,87.60608959197998L65.83,87.43290042877197L66.02333333333333,93.95742797851564L66.265,91.65927680333455L66.89333333333333,93.22474066416423L66.99000000000001,91.30842526753743L67.28,88.7398090362549L67.425,91.26748180389404L67.52166666666666,91.14045015970866L67.715,90.98174031575522L67.76333333333334,91.47956069310506L68.05333333333333,91.33858426411948L69.11666666666667,92.65555524826051L69.21333333333334,88.78685744603474L69.69666666666667,93.87026135126749L70.035,95.76561737060548L70.71166666666667,92.90300718943278L71.485,92.47450749079387L71.63,91.47777891159056L72.11333333333333,95.38713884353638L72.21,90.25288852055867L72.45166666666667,91.01581923166911L72.59666666666668,87.70427513122559L72.69333333333333,91.09710597991945L73.225,89.42035579681395L73.56333333333333,92.3115307490031L73.75666666666667,90.80973275502524L73.85333333333332,94.0400463740031L74.24,96.65781164169313L74.28833333333333,90.69250090916952L75.20666666666668,92.7085960706075L75.4,93.61737966537477L75.88333333333333,94.50366592407228L75.93166666666666,92.83800029754639L76.02833333333334,96.52077388763426L76.22166666666666,91.48164256413779L76.65666666666667,95.13801765441896L77.23666666666666,98.07408412297566L77.43,95.67805687586467L77.52666666666666,94.00437323252359L77.67166666666667,93.81300989786784L77.76833333333333,94.52438147862752L77.86500000000001,95.02488390604655L78.34833333333333,94.2883892059326L78.39666666666666,94.45721769332886L78.54166666666666,96.32434654235841L78.59,92.98031775156657L78.735,94.15659364064534L78.88000000000001,94.07599147160848L78.97666666666666,97.65823507308959L79.21833333333333,91.87223720550539L79.55666666666666,97.23189226786296L79.79833333333333,100.5046591758728L79.84666666666666,94.4420631726583L80.42666666666666,96.24805816014609L80.91000000000001,99.29791482289632L81.00666666666666,96.93679173787434L81.055,97.6905509630839L81.39333333333333,96.82672452926634L81.63499999999999,94.48311916987102L81.82833333333333,96.99518728256224L81.87666666666667,93.29599316914877L82.45666666666666,101.44550546010336L82.84333333333333,92.56663497289021L83.03666666666666,94.32801977793376L83.27833333333334,100.60983117421468L83.375,97.35463825861612L83.56833333333334,96.19408893585205L84.29333333333334,94.18059142430624L84.39,99.92072248458864L84.63166666666666,94.88157240549724L84.67999999999999,97.76833979288737L84.77666666666667,96.84215100606283L84.92166666666667,99.1331656773885L85.115,92.79451545079549L85.405,99.3139133453369L85.59833333333334,99.80571317672728L85.83999999999999,96.22168779373169L86.13,101.00968170166014L86.27499999999999,101.19066381454468L86.51666666666667,94.26352866490681L86.66166666666666,97.54980897903442L86.90333333333334,100.96467765172324L87.09666666666666,97.26160113016765L87.28999999999999,101.11986144383748L87.725,97.45362091064455L88.06333333333333,97.35153420766194L88.20833333333333,98.81946897506715L88.25666666666667,100.42627954483034L88.69166666666668,99.00994141896565L89.175,101.15590969721477L89.61,102.23917659123738L89.9,102.73618110020955L90.09333333333333,104.36117521921794L90.625,101.58187739054362L90.67333333333333,100.45393466949463L90.86666666666667,102.9939111073812L91.15666666666667,99.64618746439615L91.35,104.79649257659912L91.495,99.72423887252809L92.655,98.18601751327515L93.57333333333332,107.47640450795492L93.67,104.47596883773805L93.71833333333333,103.65302960077922L93.76666666666667,105.93227513631184L94.20166666666665,105.61479918162027L94.58833333333334,106.34351968765257L94.63666666666666,104.84855810801189L94.73333333333333,105.72107776006062L94.78166666666667,109.84503920873006L95.41000000000001,102.57231346766154L95.50666666666666,103.71126572291057L96.03833333333333,105.98010190327962L96.18333333333334,108.39305607477824L96.37666666666667,106.17998965581258L96.57000000000001,106.74397039413454L96.76333333333334,104.56347306569417L97.10166666666666,110.05870294570924L97.15,103.11375935872397L97.295,104.22871383031209L97.44000000000001,109.60382350285848L98.02000000000001,109.71873903274538L98.31,108.27139790852864L98.45500000000001,105.96794827779134L98.50333333333333,107.0017285346985L98.98666666666666,107.0577139854431L99.13166666666666,106.67533429463704L99.66333333333334,103.9371205965678L99.80833333333334,108.49569606781007L99.95333333333333,108.48881276448567L100.195,103.71901178359984L100.33999999999999,110.02171691258748L100.77499999999999,104.5319636662801L101.30666666666667,106.4850025177002L101.54833333333333,110.39232746760051L101.645,109.80925353368123L102.80499999999999,107.10169585545857L103.19166666666666,107.03065903981526L103.28833333333334,112.70613956451416L103.43333333333334,108.08560498555502L103.72333333333334,106.44398403167725L103.77166666666666,108.91166702906291L104.11,111.84680509567262L104.49666666666667,107.97315581639607L104.69,109.07403421401976L104.88333333333334,115.59371344248454L105.07666666666667,115.19278446833292L105.22166666666666,116.31749184926352L105.31833333333334,116.21469243367514L105.60833333333333,113.9732019106547L106.04333333333332,110.96076265970866L106.42999999999999,114.21143547693889L106.52666666666667,113.79766829808553L106.67166666666667,113.31807835896811L106.76833333333333,113.15354490280151L106.81666666666668,117.24409325917561L106.865,114.36706002553304L107.20333333333333,115.1972295443217L107.39666666666668,111.05189609527588L107.445,114.1322587331136L107.78333333333333,115.5645391146342L108.17,113.22378460566203L108.21833333333333,106.77689584096274L108.41166666666668,110.26045687993367L108.50833333333333,105.67707713445029L108.94333333333333,112.9756293296814L109.475,115.47077989578248L109.95833333333333,113.10125430425009L110.055,113.8491242726644L110.39333333333333,113.23395013809203L110.44166666666668,115.60297870635985L110.635,109.9461506207784L110.78,113.86682955423991L111.16666666666667,117.47217067082724L112.08500000000001,115.536190032959L112.27833333333334,116.43998463948567L112.61666666666666,113.22427225112915L112.90666666666667,113.68639135360719L113.00333333333333,118.30227454503377L113.43833333333333,117.80598274866739L113.63166666666666,117.41102743148804L114.06666666666666,119.15632931391399L114.30833333333334,118.8098103205363L114.35666666666665,114.93122831980386L114.405,110.94362942377727L115.17833333333333,119.0888279279073L115.42,116.86187299092612L115.75833333333334,113.65256563822427L115.95166666666667,116.90684890747072L116.09666666666666,113.64970541000365L116.38666666666666,115.71573734283446L116.435,113.59245395660402L116.62833333333333,119.2911539077759L116.87,111.2971911430359L117.16000000000001,116.30347204208375L117.20833333333333,118.04133733113606L117.69166666666666,117.07567739486693L117.74000000000001,112.87594334284465L117.93333333333334,119.56139389673869L117.98166666666667,116.81354920069377L118.175,113.90174309412639L118.27166666666666,117.27544323603311L118.56166666666667,117.33281660079957L118.70666666666666,112.84308354059854L118.89999999999999,118.63105074564616L118.94833333333334,113.3689997990926L119.04499999999999,115.46384032567342L119.09333333333333,119.91550890604655L119.19,117.82941786448161L119.72166666666666,109.7304425239563L119.81833333333334,119.56717061996459L120.205,118.18753719329835L120.25333333333334,119.80403502782185L120.39833333333334,118.29636653264363L122.08999999999999,117.8024566968282L122.57333333333334,121.61177428563435L123.10499999999999,117.13494507471721L123.44333333333334,116.21580839157103L123.49166666666667,124.40487623214723L124.07166666666667,121.26469262441L124.21666666666667,119.44594383239748L124.65166666666667,122.0778414408366L125.135,118.84252007802327L125.52166666666668,119.34798336029051L125.66666666666667,123.2778712908427L125.81166666666667,124.53536828358969L126.10166666666667,119.06819677352904L126.34333333333333,120.06560055414836L126.39166666666667,119.14101537068686L126.585,123.01759990056357L126.63333333333333,119.27344862620035L126.97166666666668,122.50454998016356L127.40666666666667,126.42977714538574L127.55166666666668,115.96438964207967L128.51833333333332,119.79757372538248L129.00166666666667,122.27115535736085L129.87166666666667,120.62610212961833L130.21,126.38331015904745L130.54833333333332,119.5358018875122L130.935,121.98796463012695L131.03166666666667,121.82789500554404L131.225,120.77102661132814L131.51500000000001,119.1599210103353L131.70833333333334,127.87493324279784L132.24,121.7525725364685L132.385,123.79998954137167L132.62666666666667,126.80648326873781L133.255,121.53226931889851L134.41500000000002,122.2788545290629L135.33333333333334,125.70895274480185L135.57500000000002,121.66781600316365L135.62333333333333,130.18356879552204L136.10666666666665,129.3358909289042L136.25166666666667,121.67510255177815L136.49333333333334,124.67547257741293L136.88,123.15376551946004L137.025,121.98258177439372L137.36333333333334,126.71509663263956L137.84666666666666,124.44170284271239L138.185,125.17136112848918L138.86166666666668,121.57391611735027L139.635,127.0375803311666L139.82833333333335,129.83763122558594L139.87666666666667,123.76888338724773L140.02166666666668,126.09873151779173L140.07,127.04136896133424L141.52,126.66036780675252L141.665,126.01163053512572L141.85833333333335,126.4819083213806L141.90666666666667,121.43747854232787L142.1483333333333,128.49516201019287L142.19666666666666,130.15782674153644L142.77666666666667,126.25625975926717L143.16333333333333,129.8139147758484L143.26,128.94902865091962L143.30833333333334,128.97901884714761L144.275,122.61354811986287L144.66166666666666,127.94127178192137L144.90333333333334,125.13028637568156L145,124.33626826604208L145.14499999999998,129.04722356796265L145.24166666666667,131.3377224604289L145.29,127.49712991714479L145.8216666666667,128.13254133860272L145.87,128.2545371055603L145.91833333333332,126.92960437138875L146.015,130.34781153996784L146.11166666666668,130.37438821792603L146.35333333333335,130.01351181666055L146.45,127.20381116867065L146.83666666666664,125.85682185490927L148.14166666666668,131.69677019119263L148.19,126.7167002360026L148.72166666666666,128.19905805587769L148.77,130.2255344390869L149.10833333333332,122.46386909484862L149.25333333333336,131.91323788960776L149.30166666666668,130.76309792200723L149.44666666666666,127.08953332901001L149.785,129.16923809051514L150.12333333333333,130.9816568692525L150.75166666666667,128.94210783640546L151.13833333333332,126.20611667633057L151.18666666666667,129.9287740389506L151.52499999999998,129.57060782114664L151.67000000000002,126.69986708958943L151.71833333333333,131.15663719177246L151.76666666666665,131.46346934636435L151.9116666666667,127.51492897669475L152.83,126.51554648081462L153.21666666666667,130.2937954266866L153.265,128.11841837565103L153.41,129.21056604385376L153.74833333333333,130.5537479718526L153.89333333333332,132.3354450861613L153.99,132.30450773239136L154.135,130.33611742655435L154.32833333333335,131.3751867612203L154.76333333333332,132.79000568389893L155.0533333333333,131.03604809443155L155.24666666666667,127.16494019826254L155.295,126.7027554512024L155.48833333333334,134.60048325856525L155.58499999999998,127.616903146108L156.06833333333333,129.58481518427533L156.11666666666667,129.19129467010498L156.31,130.86285893122354L156.55166666666668,130.14249404271445L156.60000000000002,131.669677734375L156.64833333333334,129.57171440124512L156.79333333333332,133.9465225537618L157.22833333333335,134.99044958750406L157.27666666666667,126.05338048934938L157.325,131.85950311024982L157.56666666666666,129.04348182678223L157.80833333333334,133.1392723719279L157.95333333333332,128.94992891947427L158.09833333333333,135.93025493621826L158.195,129.33302132288614L158.29166666666666,130.35070927937826L158.43666666666667,130.6325214703878L158.775,128.81908988952637L159.355,125.49527963002522L159.45166666666665,129.83948802947998L160.08,129.07379086812335L160.12833333333333,131.58750009536743L160.66000000000003,125.82939179738364L161.14333333333332,128.1569423675537L161.33666666666667,133.42011864980063L161.62666666666667,127.89428901672363L161.965,131.00553274154663L162.01333333333332,136.84173933664957L162.255,124.90443150202434L162.44833333333335,135.34487406412762L162.49666666666667,132.80613549550372L162.69000000000003,131.8589498202006L163.415,130.8234346707662L163.46333333333334,130.6409052213033L163.89833333333334,128.72743129730225L163.995,132.50786526997882L164.09166666666667,128.21907027562457L164.47833333333335,131.79596853256226L164.865,134.60399055480957L165.01,137.10361433029175L165.05833333333334,130.01189883550006L165.20333333333332,137.07752529780072L165.29999999999998,130.1262141863505L165.34833333333336,131.35870997111002L165.49333333333334,134.35970830917358L165.78333333333333,130.27127933502197L165.9766666666667,134.47402366002402L166.025,132.02752510706586L166.70166666666665,133.61519559224445L166.84666666666666,133.24035565058392L166.99166666666665,132.82436593373615L167.32999999999998,137.8164300918579L167.475,132.43615325291952L167.57166666666666,134.838538646698L167.86166666666665,136.5748659769694L168.10333333333332,131.2519718805949L168.39333333333335,132.15435043970743L168.48999999999998,130.7394283612569L168.82833333333335,136.74243783950806L168.97333333333333,129.94864559173584L169.11833333333334,128.51147937774658L169.26333333333332,136.45047887166342L169.64999999999998,137.48394028345743L170.085,134.23524618148804L170.32666666666668,134.78055572509766L170.56833333333333,136.26583941777548L170.81,138.8417328198751L171.43833333333333,135.4583641688029L171.535,133.225932598114L172.35666666666668,136.64106384913126L172.50166666666667,133.99689070383707L172.74333333333334,135.11268917719525L173.1783333333333,139.72794405619305L173.2266666666667,137.27655967076618L173.51666666666668,138.48579851786295L173.80666666666667,134.4236273765564L174.145,137.80033779144287L174.19333333333333,136.74023405710855L174.24166666666667,132.37847979863483L174.3383333333333,132.73516432444254L174.53166666666667,133.89103412628174L174.72500000000002,128.87381871541342L174.91833333333332,133.15570227305096L174.96666666666667,132.77813339233398L175.01500000000001,136.0999649365743L175.25666666666666,131.678746064504L175.35333333333335,139.0391354560852L175.83666666666664,137.0064322153727L176.175,135.01062122980753L176.65833333333333,132.83194319407147L177.52833333333334,136.7694083849589L177.77,133.46180295944214L178.205,136.28051567077637L178.35,138.18176094690958L178.44666666666666,136.61140187581378L178.78500000000003,139.1493058204651L178.97833333333332,131.92944272359213L179.02666666666664,131.80283308029175L179.41333333333336,133.2217313448588L179.60666666666665,134.5205281575521L179.655,132.54885562260947L179.8,135.39994049072266L179.89666666666665,134.63233963648477L180.235,133.61965942382812L180.62166666666667,139.8388271331787L180.81500000000003,135.08317724863687L180.91166666666666,135.91249338785806L181.20166666666668,136.58890453974405L181.975,131.52606614430746L182.12,137.56511449813843L182.41,135.62594540913898L182.7,135.79180113474527L183.37666666666667,137.87973022460938L183.57,135.55455223719278L183.95666666666665,141.0606228510539L184.34333333333333,136.149329662323L184.97166666666666,132.95714616775513L185.6,137.12019427617392L185.84166666666667,140.0298622449239L186.37333333333333,140.03734572728476L186.80833333333334,139.08677466710407L187.05,133.8706843058268L187.14666666666665,138.39474948247275L187.24333333333334,140.56394656499225L187.38833333333332,137.6153794924418L187.48499999999999,136.29552952448526L187.72666666666666,139.6592516899109L187.77499999999998,132.495889822642L188.1616666666667,131.84372027715045L188.21,137.0291077295939L188.355,132.14400672912598L188.69333333333333,142.05648867289224L188.83833333333334,136.82460610071817L188.88666666666666,137.6430064837138L188.935,134.3265202840169L189.37,131.11773808797201L189.56333333333333,133.18214766184488L189.75666666666666,131.92042128245038L190.14333333333332,132.2858271598816L190.385,133.43563890457153L191.11,134.05045668284097L191.15833333333333,135.02083365122476L191.3516666666667,136.7957599957784L191.44833333333332,138.04795853296918L191.78666666666666,142.05545711517334L191.98000000000002,137.7809445063273L192.415,141.40760135650635L192.4633333333333,135.04003938039142L192.51166666666668,142.4741382598877L192.56,135.93432490030926L192.60833333333335,136.38909180959064L192.89833333333334,143.139905611674L192.995,138.58683490753174L193.14000000000001,137.72133922576904L193.285,135.01105260849L193.33333333333331,140.50844875971475L193.47833333333335,135.48668511708576L194.01000000000002,140.9122660954793L194.3,136.9117914835612L194.59,139.8073271115621L195.025,140.13444344202676L195.07333333333332,134.5226756731669L195.315,143.17258723576862L195.46,143.00028896331787L195.75,141.05674982070923L195.94333333333333,135.0340657234192L196.13666666666666,135.10019795099896L196.5233333333333,138.9826342264811L196.66833333333335,139.42234977086383L196.95833333333334,137.06959168116254L197.00666666666666,138.87299839655557L197.39333333333332,138.64504289627075L197.53833333333336,135.23017422358197L197.58666666666667,138.04810857772827L198.16666666666666,139.0808572769165L198.795,140.06875197092694L198.84333333333333,136.63320525487265L198.89166666666665,136.64377403259277L198.94000000000003,136.03635533650717L199.61666666666667,136.93927780787152L200.77666666666667,139.16345691680908L200.92166666666665,141.46478716532388L201.01833333333335,136.23109467824298L201.115,135.79746532440186L201.26,142.69189071655273L201.35666666666668,136.34635718663534L201.45333333333332,134.6223241488139L201.59833333333336,140.47859923044842L201.64666666666668,139.80034065246582L202.51666666666668,142.98100821177164L203,140.86982218424478L203.33833333333334,137.68318096796673L203.53166666666667,140.18537425994873L203.57999999999998,139.2785037358602L203.82166666666666,143.07422351837158L203.86999999999998,144.22194401423135L204.01500000000001,140.873939037323L204.54666666666668,140.84980058670044L204.595,143.23030757904053L205.175,139.83476654688516L205.22333333333333,144.11162360509235L205.32,138.29071219762164L205.36833333333334,141.53965950012207L205.51333333333332,138.6020269393921L205.56166666666667,141.14376640319824L205.60999999999999,138.0752197901408L205.94833333333332,140.46592982610068L206.04500000000002,138.2336107889811L206.14166666666665,139.26568428675336L206.86666666666667,138.40193287531537L206.91500000000002,133.898948987325L206.96333333333334,140.39945062001544L207.01166666666666,134.0537107785543L207.205,137.7939140001933L207.35,140.04436031977338L208.07500000000002,139.12313238779706L208.17166666666665,133.99362723032635L208.46166666666667,142.6701717376709L208.5583333333333,140.42222929000854L208.75166666666667,135.91458463668823L208.94500000000002,141.15335988998413L208.99333333333334,142.36488691965738L209.71833333333333,137.9026214281718L210.15333333333334,141.70779403050742L210.25,141.97209787368774L210.3466666666667,144.6381400426229L210.49166666666667,137.08022610346478L210.5883333333333,140.82404915491742L210.73333333333335,138.33026774724325L211.16833333333332,143.5834004084269L211.31333333333333,141.7076908747355L211.45833333333331,136.17747243245444L212.52166666666668,133.27296225229898L212.76333333333335,142.14965709050495L213.05333333333334,138.51493533452353L213.19833333333332,140.05385065078735L213.39166666666668,139.22088654836017L213.68166666666667,137.6470576922099L213.82666666666665,138.6536423365275L213.92333333333335,138.44065380096436L214.16500000000002,140.95053688685098L214.26166666666666,136.79171816507974L214.40666666666667,138.901141166687L215.22833333333332,138.62254556020102L215.42166666666668,141.08998473485312L215.80833333333334,142.82352685928345L215.85666666666665,144.03531646728516L216.29166666666666,141.6522962252299L216.58166666666668,141.84069617589316L216.63,140.42848428090412L216.6783333333333,141.10899353027344L216.82333333333335,140.61983823776245L217.11333333333334,141.87667878468832L217.35500000000002,142.3316707611084L217.5,139.5807876586914L217.88666666666666,144.95676946640015L218.08,142.15555572509766L218.17666666666665,140.64341402053833L218.61166666666668,139.19540707270303L218.85333333333335,143.33731762568158L219.14333333333335,141.46467463175455L219.19166666666666,139.09646193186444L219.43333333333334,138.57595666249594L219.77166666666668,142.4937097231547L220.64166666666668,140.2307159105937L220.69,145.0836041768392L221.02833333333334,139.70117982228598L221.415,143.41860437393188L221.46333333333334,146.22843631108603L221.56,143.02537457148236L221.75333333333336,135.5601601600647L221.94666666666666,139.66629441579184L222.18833333333333,141.2896474202474L222.76833333333335,143.67635313669842L223.05833333333334,139.35944350560507L223.34833333333333,139.23858245213827L223.49333333333334,140.02100960413614L223.78333333333333,141.95387681325278L224.36333333333332,140.3165227572123L224.55666666666667,140.59231440226236L224.89499999999998,144.85862143834433L225.04000000000002,142.22006559371948L225.5716666666667,148.96986659367877L226.05499999999998,138.85479609171549L226.10333333333332,139.07247352600098L226.24833333333333,143.6817266146342L226.78,135.2736872037252L227.505,140.77085828781128L227.5533333333333,145.13325023651123L227.94,144.34841299057007L228.18166666666667,145.55132182439166L228.4716666666667,141.96038500467935L228.56833333333333,140.97862339019775L228.61666666666667,141.1836689313253L228.90666666666667,137.34440803527832L229.39000000000001,143.7274808883667L229.535,149.42997884750366L229.63166666666666,140.78915437062582L229.68,147.71310106913248L229.72833333333335,146.22266896565756L229.92166666666665,141.31891552607217L230.405,139.78962182998657L230.45333333333332,142.2574642499288L230.55,144.56695318222046L231.03333333333333,140.43127886454263L231.08166666666665,144.55290524164835L231.90333333333334,143.84769487380981L232.24166666666665,144.3210204442342L232.435,147.77387857437134L232.87,142.87027517954508L233.11166666666665,142.57891639073688L233.35333333333332,141.70102326075235L233.64333333333332,143.577876885732L234.07833333333335,140.58471838633218L234.27166666666665,148.46987056732178L234.465,144.6823000907898L234.9,141.63237778345743L235.14166666666665,142.01583592096964L235.43166666666664,149.17538102467853L235.67333333333332,143.67368046442667L235.81833333333336,148.59389193852743L235.86666666666667,140.8954610824585L236.205,145.86405261357626L236.59166666666667,142.8055683771769L236.97833333333335,141.24493408203125L237.17166666666665,143.48314237594604L237.31666666666666,148.59428580602008L237.46166666666664,150.37223180135092L237.51,137.2972846031189L237.89666666666668,143.64218044281006L237.99333333333334,148.08599042892456L238.525,139.57319164276123L238.91166666666666,146.4826683998108L239.20166666666665,147.51505136489868L239.44333333333333,150.60178152720133L239.63666666666668,137.35726499557495L240.02333333333334,143.05754041671753L241.135,145.81083361307782L241.425,143.10865879058838L241.61833333333334,144.74648173650104L242.34333333333333,145.8729427655538L242.63333333333333,145.0479310353597L242.7783333333333,143.76709270477295L242.875,148.2298552195231L243.21333333333334,145.16707595189413L243.35833333333332,143.0978930791219L243.55166666666668,153.16146071751913L243.745,140.97192764282227L243.79333333333332,143.96843401590982L243.84166666666667,143.85598484675089L243.93833333333333,143.12566073735553L244.22833333333332,144.14208269119263L244.5666666666667,138.29442580540973L244.66333333333333,144.3276974360148L244.76,144.49146191279092L244.95333333333335,148.94262409210205L245.09833333333333,142.52268711725873L245.14666666666668,144.28453143437704L245.24333333333334,147.15539407730103L245.63,142.78215201695758L246.01666666666668,144.99263016382852L246.11333333333334,143.65219593048096L246.79,144.92937692006427L246.935,145.4491976102193L247.07999999999998,146.54482444127402L247.56333333333333,147.235471089681L247.75666666666666,145.17227125167847L247.90166666666667,142.90817085901895L248.62666666666667,142.59456793467203L248.8683333333333,147.97628895441693L248.91666666666666,142.15921306610107L249.10999999999999,147.69519885381064L249.30333333333334,143.80806430180868L249.35166666666666,145.64253028233847L249.4,145.62100823720297L249.49666666666664,144.61269807815552L249.73833333333332,146.53724718093872L249.78666666666666,148.50332117080688L249.835,142.51845773061117L250.27,143.84008010228476L250.65666666666667,145.47207005818683L250.85,142.97262446085614L250.94666666666666,141.19678846995035L251.23666666666665,144.85088475545246L251.62333333333333,141.75065994262695L251.67166666666668,147.96997769673663L251.96166666666667,144.8297472000122L252.10666666666665,140.97860463460285L252.49333333333334,146.33144203821817L252.78333333333333,144.36400826772055L252.9283333333333,144.23230648040771L252.97666666666666,143.19218683242798L253.12166666666667,148.29745976130167L253.26666666666665,141.00632540384927L253.41166666666666,144.57029167811075L253.99166666666667,146.00475708643594L254.18499999999997,143.7269557317098L254.52333333333334,147.5513153076172L254.81333333333333,148.44448486963907L254.95833333333334,146.25372823079428L255.00666666666666,148.4701894124349L255.05499999999998,147.70746501286825L255.2,146.70632886886597L255.24833333333333,142.40729331970215L255.58666666666664,143.00359932581586L255.68333333333334,142.70350980758667L255.78,149.67446740468344L256.07,144.95416243871054L256.36,143.50688695907593L256.505,137.72476212183633L256.65,147.06412935256958L256.74666666666667,144.14016024271646L256.84333333333336,147.52466360727948L257.6166666666667,146.15929381052652L257.71333333333337,145.98822402954102L257.81,148.88287814458212L257.85833333333335,144.98096418380737L257.90666666666664,148.78729963302612L258.245,139.4600485165914L258.29333333333335,146.73141447703043L259.16333333333336,150.0759778022766L259.30833333333334,145.77890221277872L259.84000000000003,145.7184623082479L260.13,145.88483381271362L260.7583333333333,147.06708335876465L261.38666666666666,143.30052852630615L261.4833333333333,142.2332320213318L261.6766666666667,149.3115372657776L262.2083333333333,147.17468420664468L262.305,144.02876138687134L262.4016666666667,147.12712939580283L262.59499999999997,149.30483214060467L262.69166666666666,146.9552812576294L262.93333333333334,140.2378617922465L263.12666666666667,145.98860851923624L263.36833333333334,148.59998750686646L264.77,143.00996685028076L264.8666666666667,145.63840405146283L265.35,146.44179995854697L265.3983333333333,147.69116640090942L266.51,143.65284299850464L266.84833333333336,150.51477432250977L266.945,145.12332852681476L267.04166666666663,145.7224760055542L268.105,146.79869079589844L268.63666666666666,145.19362449645996L268.685,143.41435623168945L268.78166666666664,143.33740202585858L268.87833333333333,144.45192511876422L269.0233333333333,145.57626676559448L269.50666666666666,145.9392062822978L269.65166666666664,147.00035095214844L269.7,149.09920517603555L269.99,146.9544653892517L270.08666666666664,142.92567920684814L270.18333333333334,150.81345717112222L270.425,143.33316326141357L270.52166666666665,145.51190694173175L270.715,140.0498463312785L270.81166666666667,142.3732706705729L271.73,143.02996969223022L271.92333333333335,144.85702721277875L272.2133333333333,145.71550830205283L272.4066666666667,145.8906668027242L272.59999999999997,143.85080830256146L272.93833333333333,143.58224693934125L273.13166666666666,141.02170499165854L273.18,148.90264654159546L273.2766666666667,145.20187695821127L273.325,144.28790744145712L273.90500000000003,146.06776650746662L274.34,145.99248154958087L274.87166666666667,146.37142896652222L275.355,146.62626123428345L275.4033333333333,149.66777165730792L275.5,148.35201978683472L275.7416666666667,145.33383194605508L275.83833333333337,145.7889739672343L276.08,148.24968926111856L276.37,147.20187981923422L276.70833333333337,146.65309111277261L276.90166666666664,145.2553210258484L277.3366666666667,144.51470009485882L278.06166666666667,150.12834342320758L278.11,142.8971144358317L278.30333333333334,147.50536410013834L278.49666666666667,149.60605637232464L278.64166666666665,145.2917162577311L279.22166666666664,143.16753260294595L279.6566666666667,144.93449719746908L279.8983333333333,148.2104338010152L279.995,148.1946791013082L280.09166666666664,143.9164341290792L280.18833333333333,145.64283974965414L280.5266666666667,150.03270864486694L281.2033333333333,145.24051348368326L281.25166666666667,145.81068356831867L281.3966666666667,145.00956646601358L281.49333333333334,141.79317887624106L281.68666666666667,145.70800606409708L281.735,149.4535264968872L281.92833333333334,139.0193764368693" style="fill: none;" fill="none"></path></g></g></g></g></g></g><g transform="translate(40, 177)" clip-path="url(#clip_1)"><clipPath id="clip_1"><rect width="290" height="22"></rect></clipPath><g><g><line x1="0" y1="0" x2="0" y2="5" style="visibility: inherit;" fill="rgb(0, 0, 0)" stroke="rgb(204, 204, 204)" stroke-width="1px"></line><line x1="24.166666666666664" y1="0" x2="24.166666666666664" y2="5" style="visibility: inherit;" fill="rgb(0, 0, 0)" stroke="rgb(204, 204, 204)" stroke-width="1px"></line><line x1="48.33333333333333" y1="0" x2="48.33333333333333" y2="5" style="visibility: inherit;" fill="rgb(0, 0, 0)" stroke="rgb(204, 204, 204)" stroke-width="1px"></line><line x1="72.5" y1="0" x2="72.5" y2="5" style="visibility: inherit;" fill="rgb(0, 0, 0)" stroke="rgb(204, 204, 204)" stroke-width="1px"></line><line x1="96.66666666666666" y1="0" x2="96.66666666666666" y2="5" style="visibility: inherit;" fill="rgb(0, 0, 0)" stroke="rgb(204, 204, 204)" stroke-width="1px"></line><line x1="120.83333333333334" y1="0" x2="120.83333333333334" y2="5" style="visibility: inherit;" fill="rgb(0, 0, 0)" stroke="rgb(204, 204, 204)" stroke-width="1px"></line><line x1="145" y1="0" x2="145" y2="5" style="visibility: inherit;" fill="rgb(0, 0, 0)" stroke="rgb(204, 204, 204)" stroke-width="1px"></line><line x1="169.16666666666669" y1="0" x2="169.16666666666669" y2="5" style="visibility: inherit;" fill="rgb(0, 0, 0)" stroke="rgb(204, 204, 204)" stroke-width="1px"></line><line x1="193.33333333333331" y1="0" x2="193.33333333333331" y2="5" style="visibility: inherit;" fill="rgb(0, 0, 0)" stroke="rgb(204, 204, 204)" stroke-width="1px"></line><line x1="217.5" y1="0" x2="217.5" y2="5" style="visibility: inherit;" fill="rgb(0, 0, 0)" stroke="rgb(204, 204, 204)" stroke-width="1px"></line><line x1="241.66666666666669" y1="0" x2="241.66666666666669" y2="5" style="visibility: inherit;" fill="rgb(0, 0, 0)" stroke="rgb(204, 204, 204)" stroke-width="1px"></line><line x1="265.8333333333333" y1="0" x2="265.8333333333333" y2="5" style="visibility: inherit;" fill="rgb(0, 0, 0)" stroke="rgb(204, 204, 204)" stroke-width="1px"></line><line x1="290" y1="0" x2="290" y2="5" style="visibility: inherit;" fill="rgb(0, 0, 0)" stroke="rgb(204, 204, 204)" stroke-width="1px"></line></g><g transform="translate(0, 8)"><text x="0" y="0" dx="0em" dy="0.95em" style="text-anchor: middle; visibility: hidden; font-family: Roboto, sans-serif; font-size: 12px; font-weight: 200;" fill="rgb(33, 33, 33)" stroke="none" stroke-width="1px">-500</text><text x="24.166666666666664" y="0" dx="0em" dy="0.95em" style="text-anchor: middle; visibility: inherit; font-family: Roboto, sans-serif; font-size: 12px; font-weight: 200;" fill="rgb(33, 33, 33)" stroke="none" stroke-width="1px">0</text><text x="48.33333333333333" y="0" dx="0em" dy="0.95em" style="text-anchor: middle; visibility: inherit; font-family: Roboto, sans-serif; font-size: 12px; font-weight: 200;" fill="rgb(33, 33, 33)" stroke="none" stroke-width="1px">500</text><text x="72.5" y="0" dx="0em" dy="0.95em" style="text-anchor: middle; visibility: inherit; font-family: Roboto, sans-serif; font-size: 12px; font-weight: 200;" fill="rgb(33, 33, 33)" stroke="none" stroke-width="1px">1k</text><text x="96.66666666666666" y="0" dx="0em" dy="0.95em" style="text-anchor: middle; visibility: inherit; font-family: Roboto, sans-serif; font-size: 12px; font-weight: 200;" fill="rgb(33, 33, 33)" stroke="none" stroke-width="1px">1.5k</text><text x="120.83333333333334" y="0" dx="0em" dy="0.95em" style="text-anchor: middle; visibility: inherit; font-family: Roboto, sans-serif; font-size: 12px; font-weight: 200;" fill="rgb(33, 33, 33)" stroke="none" stroke-width="1px">2k</text><text x="145" y="0" dx="0em" dy="0.95em" style="text-anchor: middle; visibility: inherit; font-family: Roboto, sans-serif; font-size: 12px; font-weight: 200;" fill="rgb(33, 33, 33)" stroke="none" stroke-width="1px">2.5k</text><text x="169.16666666666669" y="0" dx="0em" dy="0.95em" style="text-anchor: middle; visibility: inherit; font-family: Roboto, sans-serif; font-size: 12px; font-weight: 200;" fill="rgb(33, 33, 33)" stroke="none" stroke-width="1px">3k</text><text x="193.33333333333331" y="0" dx="0em" dy="0.95em" style="text-anchor: middle; visibility: inherit; font-family: Roboto, sans-serif; font-size: 12px; font-weight: 200;" fill="rgb(33, 33, 33)" stroke="none" stroke-width="1px">3.5k</text><text x="217.5" y="0" dx="0em" dy="0.95em" style="text-anchor: middle; visibility: inherit; font-family: Roboto, sans-serif; font-size: 12px; font-weight: 200;" fill="rgb(33, 33, 33)" stroke="none" stroke-width="1px">4k</text><text x="241.66666666666669" y="0" dx="0em" dy="0.95em" style="text-anchor: middle; visibility: inherit; font-family: Roboto, sans-serif; font-size: 12px; font-weight: 200;" fill="rgb(33, 33, 33)" stroke="none" stroke-width="1px">4.5k</text><text x="265.8333333333333" y="0" dx="0em" dy="0.95em" style="text-anchor: middle; visibility: inherit; font-family: Roboto, sans-serif; font-size: 12px; font-weight: 200;" fill="rgb(33, 33, 33)" stroke="none" stroke-width="1px">5k</text><text x="290" y="0" dx="0em" dy="0.95em" style="text-anchor: middle; visibility: hidden; font-family: Roboto, sans-serif; font-size: 12px; font-weight: 200;" fill="rgb(33, 33, 33)" stroke="none" stroke-width="1px">5.5k</text></g><line x1="0" y1="0" x2="290" y2="0" fill="rgb(0, 0, 0)" stroke="rgb(204, 204, 204)" stroke-width="1px"></line></g></g></g></g></svg>