<svg viewBox="0 0 330 200" xmlns="http://www.w3.org/2000/svg"><g><g><g><g><g><line x1="50" y1="177" x2="45" y2="177" style="visibility: inherit;" fill="rgb(0, 0, 0)" stroke="rgb(204, 204, 204)" stroke-width="1px"></line><line x1="50" y1="164.35714285714286" x2="45" y2="164.35714285714286" style="visibility: inherit;" fill="rgb(0, 0, 0)" stroke="rgb(204, 204, 204)" stroke-width="1px"></line><line x1="50" y1="151.71428571428572" x2="45" y2="151.71428571428572" style="visibility: inherit;" fill="rgb(0, 0, 0)" stroke="rgb(204, 204, 204)" stroke-width="1px"></line><line x1="50" y1="139.07142857142856" x2="45" y2="139.07142857142856" style="visibility: inherit;" fill="rgb(0, 0, 0)" stroke="rgb(204, 204, 204)" stroke-width="1px"></line><line x1="50" y1="126.42857142857143" x2="45" y2="126.42857142857143" style="visibility: inherit;" fill="rgb(0, 0, 0)" stroke="rgb(204, 204, 204)" stroke-width="1px"></line><line x1="50" y1="113.78571428571428" x2="45" y2="113.78571428571428" style="visibility: inherit;" fill="rgb(0, 0, 0)" stroke="rgb(204, 204, 204)" stroke-width="1px"></line><line x1="50" y1="101.14285714285714" x2="45" y2="101.14285714285714" style="visibility: inherit;" fill="rgb(0, 0, 0)" stroke="rgb(204, 204, 204)" stroke-width="1px"></line><line x1="50" y1="88.5" x2="45" y2="88.5" style="visibility: inherit;" fill="rgb(0, 0, 0)" stroke="rgb(204, 204, 204)" stroke-width="1px"></line><line x1="50" y1="75.85714285714286" x2="45" y2="75.85714285714286" style="visibility: inherit;" fill="rgb(0, 0, 0)" stroke="rgb(204, 204, 204)" stroke-width="1px"></line><line x1="50" y1="63.21428571428571" x2="45" y2="63.21428571428571" style="visibility: inherit;" fill="rgb(0, 0, 0)" stroke="rgb(204, 204, 204)" stroke-width="1px"></line><line x1="50" y1="50.57142857142857" x2="45" y2="50.57142857142857" style="visibility: inherit;" fill="rgb(0, 0, 0)" stroke="rgb(204, 204, 204)" stroke-width="1px"></line><line x1="50" y1="37.92857142857143" x2="45" y2="37.92857142857143" style="visibility: inherit;" fill="rgb(0, 0, 0)" stroke="rgb(204, 204, 204)" stroke-width="1px"></line><line x1="50" y1="25.285714285714295" x2="45" y2="25.285714285714295" style="visibility: inherit;" fill="rgb(0, 0, 0)" stroke="rgb(204, 204, 204)" stroke-width="1px"></line><line x1="50" y1="12.642857142857137" x2="45" y2="12.642857142857137" style="visibility: inherit;" fill="rgb(0, 0, 0)" stroke="rgb(204, 204, 204)" stroke-width="1px"></line><line x1="50" y1="0" x2="45" y2="0" style="visibility: inherit;" fill="rgb(0, 0, 0)" stroke="rgb(204, 204, 204)" stroke-width="1px"></line></g><g transform="translate(40, 0)"><text x="0" y="177" dx="0em" dy="0.3em" style="text-anchor: end; visibility: hidden; font-family: Roboto, sans-serif; font-size: 12px; font-weight: 200;" fill="rgb(33, 33, 33)" stroke="none" stroke-width="1px">3.5</text><text x="0" y="164.35714285714286" dx="0em" dy="0.3em" style="text-anchor: end; visibility: inherit; font-family: Roboto, sans-serif; font-size: 12px; font-weight: 200;" fill="rgb(33, 33, 33)" stroke="none" stroke-width="1px">4</text><text x="0" y="151.71428571428572" dx="0em" dy="0.3em" style="text-anchor: end; visibility: hidden; font-family: Roboto, sans-serif; font-size: 12px; font-weight: 200;" fill="rgb(33, 33, 33)" stroke="none" stroke-width="1px">4.5</text><text x="0" y="139.07142857142856" dx="0em" dy="0.3em" style="text-anchor: end; visibility: inherit; font-family: Roboto, sans-serif; font-size: 12px; font-weight: 200;" fill="rgb(33, 33, 33)" stroke="none" stroke-width="1px">5</text><text x="0" y="126.42857142857143" dx="0em" dy="0.3em" style="text-anchor: end; visibility: hidden; font-family: Roboto, sans-serif; font-size: 12px; font-weight: 200;" fill="rgb(33, 33, 33)" stroke="none" stroke-width="1px">5.5</text><text x="0" y="113.78571428571428" dx="0em" dy="0.3em" style="text-anchor: end; visibility: inherit; font-family: Roboto, sans-serif; font-size: 12px; font-weight: 200;" fill="rgb(33, 33, 33)" stroke="none" stroke-width="1px">6</text><text x="0" y="101.14285714285714" dx="0em" dy="0.3em" style="text-anchor: end; visibility: hidden; font-family: Roboto, sans-serif; font-size: 12px; font-weight: 200;" fill="rgb(33, 33, 33)" stroke="none" stroke-width="1px">6.5</text><text x="0" y="88.5" dx="0em" dy="0.3em" style="text-anchor: end; visibility: inherit; font-family: Roboto, sans-serif; font-size: 12px; font-weight: 200;" fill="rgb(33, 33, 33)" stroke="none" stroke-width="1px">7</text><text x="0" y="75.85714285714286" dx="0em" dy="0.3em" style="text-anchor: end; visibility: hidden; font-family: Roboto, sans-serif; font-size: 12px; font-weight: 200;" fill="rgb(33, 33, 33)" stroke="none" stroke-width="1px">7.5</text><text x="0" y="63.21428571428571" dx="0em" dy="0.3em" style="text-anchor: end; visibility: inherit; font-family: Roboto, sans-serif; font-size: 12px; font-weight: 200;" fill="rgb(33, 33, 33)" stroke="none" stroke-width="1px">8</text><text x="0" y="50.57142857142857" dx="0em" dy="0.3em" style="text-anchor: end; visibility: hidden; font-family: Roboto, sans-serif; font-size: 12px; font-weight: 200;" fill="rgb(33, 33, 33)" stroke="none" stroke-width="1px">8.5</text><text x="0" y="37.92857142857143" dx="0em" dy="0.3em" style="text-anchor: end; visibility: inherit; font-family: Roboto, sans-serif; font-size: 12px; font-weight: 200;" fill="rgb(33, 33, 33)" stroke="none" stroke-width="1px">9</text><text x="0" y="25.285714285714295" dx="0em" dy="0.3em" style="text-anchor: end; visibility: hidden; font-family: Roboto, sans-serif; font-size: 12px; font-weight: 200;" fill="rgb(33, 33, 33)" stroke="none" stroke-width="1px">9.5</text><text x="0" y="12.642857142857137" dx="0em" dy="0.3em" style="text-anchor: end; visibility: inherit; font-family: Roboto, sans-serif; font-size: 12px; font-weight: 200;" fill="rgb(33, 33, 33)" stroke="none" stroke-width="1px">10</text><text x="0" y="0" dx="0em" dy="0.3em" style="text-anchor: end; visibility: hidden; font-family: Roboto, sans-serif; font-size: 12px; font-weight: 200;" fill="rgb(33, 33, 33)" stroke="none" stroke-width="1px">10.5</text></g><line x1="50" y1="0" x2="50" y2="177" fill="rgb(0, 0, 0)" stroke="rgb(204, 204, 204)" stroke-width="1px"></line></g></g><g transform="translate(50, 0)" clip-path="url(#clip_0)"><clipPath id="clip_0"><rect width="280" height="176"></rect></clipPath><g><g><g><line x1="0" y1="0" x2="0" y2="177" fill="rgb(0, 0, 0)" stroke="rgb(66, 66, 66)" stroke-width="1px" opacity="0.25"></line><line x1="23.333333333333332" y1="0" x2="23.333333333333332" y2="177" fill="rgb(0, 0, 0)" stroke="rgb(66, 66, 66)" stroke-width="1px" opacity="0.25"></line><line x1="46.666666666666664" y1="0" x2="46.666666666666664" y2="177" fill="rgb(0, 0, 0)" stroke="rgb(66, 66, 66)" stroke-width="1px" opacity="0.25"></line><line x1="70" y1="0" x2="70" y2="177" fill="rgb(0, 0, 0)" stroke="rgb(66, 66, 66)" stroke-width="1px" opacity="0.25"></line><line x1="93.33333333333333" y1="0" x2="93.33333333333333" y2="177" fill="rgb(0, 0, 0)" stroke="rgb(66, 66, 66)" stroke-width="1px" opacity="0.25"></line><line x1="116.66666666666667" y1="0" x2="116.66666666666667" y2="177" fill="rgb(0, 0, 0)" stroke="rgb(66, 66, 66)" stroke-width="1px" opacity="0.25"></line><line x1="140" y1="0" x2="140" y2="177" fill="rgb(0, 0, 0)" stroke="rgb(66, 66, 66)" stroke-width="1px" opacity="0.25"></line><line x1="163.33333333333334" y1="0" x2="163.33333333333334" y2="177" fill="rgb(0, 0, 0)" stroke="rgb(66, 66, 66)" stroke-width="1px" opacity="0.25"></line><line x1="186.66666666666666" y1="0" x2="186.66666666666666" y2="177" fill="rgb(0, 0, 0)" stroke="rgb(66, 66, 66)" stroke-width="1px" opacity="0.25"></line><line x1="210" y1="0" x2="210" y2="177" fill="rgb(0, 0, 0)" stroke="rgb(66, 66, 66)" stroke-width="1px" opacity="0.25"></line><line x1="233.33333333333334" y1="0" x2="233.33333333333334" y2="177" fill="rgb(0, 0, 0)" stroke="rgb(66, 66, 66)" stroke-width="1px" opacity="0.25"></line><line x1="256.66666666666663" y1="0" x2="256.66666666666663" y2="177" fill="rgb(0, 0, 0)" stroke="rgb(66, 66, 66)" stroke-width="1px" opacity="0.25"></line><line x1="280" y1="0" x2="280" y2="177" fill="rgb(0, 0, 0)" stroke="rgb(66, 66, 66)" stroke-width="1px" opacity="0.25"></line></g><g><line x1="0" y1="177" x2="280" y2="177" fill="rgb(0, 0, 0)" stroke="rgb(66, 66, 66)" stroke-width="1px" opacity="0.25"></line><line x1="0" y1="164.35714285714286" x2="280" y2="164.35714285714286" fill="rgb(0, 0, 0)" stroke="rgb(66, 66, 66)" stroke-width="1px" opacity="0.25"></line><line x1="0" y1="151.71428571428572" x2="280" y2="151.71428571428572" fill="rgb(0, 0, 0)" stroke="rgb(66, 66, 66)" stroke-width="1px" opacity="0.25"></line><line x1="0" y1="139.07142857142856" x2="280" y2="139.07142857142856" fill="rgb(0, 0, 0)" stroke="rgb(66, 66, 66)" stroke-width="1px" opacity="0.25"></line><line x1="0" y1="126.42857142857143" x2="280" y2="126.42857142857143" fill="rgb(0, 0, 0)" stroke="rgb(66, 66, 66)" stroke-width="1px" opacity="0.25"></line><line x1="0" y1="113.78571428571428" x2="280" y2="113.78571428571428" fill="rgb(0, 0, 0)" stroke="rgb(66, 66, 66)" stroke-width="1px" opacity="0.25"></line><line x1="0" y1="101.14285714285714" x2="280" y2="101.14285714285714" fill="rgb(0, 0, 0)" stroke="rgb(66, 66, 66)" stroke-width="1px" opacity="0.25"></line><line x1="0" y1="88.5" x2="280" y2="88.5" fill="rgb(0, 0, 0)" stroke="rgb(66, 66, 66)" stroke-width="1px" opacity="0.25"></line><line x1="0" y1="75.85714285714286" x2="280" y2="75.85714285714286" fill="rgb(0, 0, 0)" stroke="rgb(66, 66, 66)" stroke-width="1px" opacity="0.25"></line><line x1="0" y1="63.21428571428571" x2="280" y2="63.21428571428571" fill="rgb(0, 0, 0)" stroke="rgb(66, 66, 66)" stroke-width="1px" opacity="0.25"></line><line x1="0" y1="50.57142857142857" x2="280" y2="50.57142857142857" fill="rgb(0, 0, 0)" stroke="rgb(66, 66, 66)" stroke-width="1px" opacity="0.25"></line><line x1="0" y1="37.92857142857143" x2="280" y2="37.92857142857143" fill="rgb(0, 0, 0)" stroke="rgb(66, 66, 66)" stroke-width="1px" opacity="0.25"></line><line x1="0" y1="25.285714285714295" x2="280" y2="25.285714285714295" fill="rgb(0, 0, 0)" stroke="rgb(66, 66, 66)" stroke-width="1px" opacity="0.25"></line><line x1="0" y1="12.642857142857137" x2="280" y2="12.642857142857137" fill="rgb(0, 0, 0)" stroke="rgb(66, 66, 66)" stroke-width="1px" opacity="0.25"></line><line x1="0" y1="0" x2="280" y2="0" fill="rgb(0, 0, 0)" stroke="rgb(66, 66, 66)" stroke-width="1px" opacity="0.25"></line></g></g></g><g><g><line x1="0" y1="265.5" x2="280" y2="265.5" fill="rgb(0, 0, 0)" stroke="rgb(153, 153, 153)" stroke-width="1.5px"></line></g></g><g><g><line x1="23.333333333333332" y1="0" x2="23.333333333333332" y2="177" fill="rgb(0, 0, 0)" stroke="rgb(153, 153, 153)" stroke-width="1.5px"></line></g></g><g><g><g><g><g><path stroke="rgb(204, 51, 17)" stroke-width="2px" d="M23.520000000000003,8.811981337411071L23.986666666666668,17.454993520464214L24.03333333333333,17.746632303510395L24.173333333333332,20.67900793892997L24.22,21.698200362069276L24.546666666666667,26.280961172921327L24.593333333333334,27.917311804635194L25.2,38.52754742758614L25.526666666666664,44.738459995814736L25.573333333333334,45.239338874816895L25.62,45.53939356122699L26.226666666666667,56.85545580727714L26.273333333333333,54.406837872096474L26.413333333333334,57.70770468030658L26.46,58.35059288569859L26.6,63.04302569798061L26.646666666666665,63.23712199074882L26.926666666666666,64.04754454748971L27.16,66.12968485695976L27.486666666666668,73.94043895176479L27.953333333333333,66.10700532368251L28.14,74.81367935453143L28.326666666666668,68.11998571668353L28.979999999999997,70.33210229873657L29.166666666666668,68.67673751286098L29.213333333333335,74.56715849467686L29.30666666666667,70.72983210427421L29.4,66.979896068573L29.68,75.13513551439557L30.053333333333335,72.11409146445138L30.146666666666665,65.82003266470772L30.193333333333335,72.11404323577881L30.333333333333336,78.8863616670881L30.66,71.73357929502215L30.8,66.87919460024152L30.893333333333334,74.18752649852208L30.986666666666665,74.3921366419111L31.36,74.10428380966187L31.59333333333333,75.15088217599052L31.92,70.44628368105207L31.966666666666665,72.43969529015678L32.24666666666667,74.332489831107L32.29333333333333,69.74531609671456L32.806666666666665,73.30356727327619L32.9,72.66644239425659L33.27333333333333,72.45424829210553L33.36666666666667,66.99286958149501L33.78666666666667,69.87365259443011L34.019999999999996,74.3907380104065L34.72,70.9932450566973L34.766666666666666,68.6762672833034L35.37333333333333,67.3025097165789L35.42,73.06733117784772L35.980000000000004,72.54054144450596L36.120000000000005,67.72868238176618L36.49333333333333,73.4465411731175L36.63333333333333,72.94156285694667L36.77333333333333,73.87671681812832L36.86666666666666,69.90919712611607L37.1,70.59629896708897L37.193333333333335,79.09536061968122L37.24,70.57908133098057L37.70666666666666,71.51035288402012L37.89333333333333,75.83717618669782L38.080000000000005,69.7847671508789L38.17333333333333,73.10517862864903L38.220000000000006,72.81543282100132L38.36,72.54751048769269L39.43333333333334,74.36026954650879L39.48,74.34639174597604L40.04,69.65480293546405L40.32,69.40940339224679L40.36666666666667,71.1919230733599L40.413333333333334,72.76482888630458L40.973333333333336,75.63437461853027L41.346666666666664,72.22606638499668L41.53333333333334,73.16686310086932L41.626666666666665,71.035336630685L41.86,65.79485729762486L42.093333333333334,73.46731567382812L42.18666666666667,70.27813441412789L42.699999999999996,69.0829314504351L42.98,72.43378727776664L43.02666666666667,69.40526778357369L43.68,77.8673621586391L43.72666666666667,73.00196926934379L43.82,78.23180212293353L44.14666666666667,72.43916477475848L44.42666666666667,73.98435115814209L44.61333333333333,72.85274975640434L44.84666666666667,74.78986644744873L45.03333333333333,71.87297221592495L45.17333333333333,74.41493674686977L45.266666666666666,75.17029421670097L45.45333333333333,75.36203936168125L45.5,75.616240637643L45.733333333333334,72.20032433101109L45.78,76.72671788079398L46.06,76.32234457560948L47.13333333333333,75.96653754370553L47.22666666666667,72.73610871178764L47.27333333333333,73.46735184533256L47.32,77.78871325084141L47.46,76.8045710154942L47.553333333333335,73.70915835244315L48.20666666666666,73.50446380887713L48.25333333333334,71.18924638203212L48.346666666666664,73.80349363599505L48.44,77.67943913596017L48.53333333333333,78.8398209980556L48.72,78.59085253306797L48.81333333333333,76.1926817893982L49,79.51930270876203L49.093333333333334,73.69021654129028L49.279999999999994,72.47964068821499L49.559999999999995,74.59153808866229L49.653333333333336,76.9044646535601L49.839999999999996,78.35776335852486L50.586666666666666,76.51305280412946L50.63333333333334,73.61072363172259L50.77333333333334,75.26353229795184L50.86666666666667,71.85392189025879L51.05333333333333,79.65150955745152L51.14666666666667,73.71822534288678L51.94,82.240702016013L51.98666666666667,72.88227776118687L52.36,75.85967486245292L52.406666666666666,86.19885328837803L52.64,79.71014356613159L52.68666666666667,79.08722203118461L52.87333333333333,76.6279696737017L53.06,79.00709009170532L53.34,80.8829322542463L53.38666666666667,78.07564973831177L53.620000000000005,81.97974872589111L53.71333333333333,79.95685734067645L54.04,80.23314734867641L54.13333333333333,81.95764793668475L54.46,82.15619332449776L54.833333333333336,78.99915647506714L54.88,76.39674936022077L55.25333333333333,78.481096131461L55.626666666666665,78.26005206789289L55.720000000000006,80.8194512639727L56.46666666666667,80.24096039363316L56.98,80.63744831085205L57.07333333333334,78.71615062441144L57.166666666666664,80.77546671458653L57.21333333333334,73.16132886069161L57.306666666666665,76.78882435389927L57.35333333333333,73.53873028073993L57.446666666666665,79.92904145377022L57.49333333333333,80.55638796942574L57.54,77.74271515437535L57.77333333333333,75.35177871159145L58.053333333333335,82.3903797013419L58.986666666666665,83.52514008113316L59.36,76.47902747562954L59.5,74.58564213344029L59.54666666666667,75.62216070720127L59.64,80.78672810963222L59.733333333333334,78.24035065514701L59.82666666666667,77.08432143075126L60.10666666666667,81.8065595626831L60.85333333333333,79.18250983101981L60.9,78.71310016087124L60.99333333333333,82.28882217407227L61.13333333333333,81.0061685698373L61.50666666666667,75.80772052492414L61.55333333333333,78.29101487568447L61.97333333333333,82.51880059923444L62.160000000000004,84.47811453683036L62.53333333333333,80.08363846370152L62.67333333333333,82.3399807385036L63.32666666666666,77.84149953297207L63.56,77.7381454876491L63.74666666666666,84.684714112963L63.980000000000004,82.47846937179565L64.58666666666666,84.52823618480137L64.68,81.49468885149274L64.96000000000001,78.47876909800938L65.10000000000001,82.36235884257725L65.19333333333333,81.1990591457912L65.38000000000001,81.10718352454049L65.42666666666666,81.52407217025757L65.70666666666666,81.53931243079049L66.73333333333333,82.92873225893292L66.82666666666667,78.10410465512958L67.29333333333334,84.66176932198661L67.62,87.68907104219709L68.27333333333334,83.96275499888829L69.02,83.09800284249442L69.16,81.55153839928764L69.62666666666667,86.8584406716483L69.72,80.98862539018903L69.95333333333333,81.1208563532148L70.09333333333333,78.04478338786534L70.18666666666667,81.78041962214878L70.7,79.33805935723441L71.02666666666666,82.82778964723859L71.21333333333334,80.39468928745815L71.30666666666666,84.78623546872821L71.68,87.90395389284406L71.72666666666666,82.54709877286639L72.61333333333334,83.53654616219657L72.8,85.25562102454049L73.26666666666667,85.95927735737392L73.31333333333333,83.7989342553275L73.40666666666667,88.08709021977016L73.59333333333332,83.69875124522618L74.01333333333332,86.14429460253034L74.57333333333332,90.3263474873134L74.76,86.92688921519688L74.85333333333332,85.2079108101981L74.99333333333333,84.74326372146606L75.08666666666667,86.21447937829154L75.18,86.63424968719482L75.64666666666666,85.57666724068778L75.69333333333333,85.48559944970268L75.83333333333333,88.29682465962001L75.88000000000001,83.46587909970965L76.02000000000001,85.64538104193551L76.16000000000001,85.31818567003522L76.25333333333333,89.80741902760097L76.48666666666666,82.70577110563006L76.81333333333333,88.78835923331124L77.04666666666667,93.4116803577968L77.09333333333333,85.03536067690167L77.65333333333334,87.73387547901699L78.12,91.92263214928764L78.21333333333332,89.23452268327986L78.26,89.30584083284651L78.58666666666667,89.02512584413802L78.82,85.41394369942802L79.00666666666667,87.93891968045916L79.05333333333333,83.94756296702793L79.61333333333333,93.45421804700578L79.98666666666666,82.79136494227818L80.17333333333333,85.26126377923148L80.40666666666667,94.12219721930367L80.5,89.7892006465367L80.68666666666667,88.44710520335606L81.38666666666667,85.39080599376133L81.47999999999999,92.30058819907052L81.71333333333334,85.9325225012643L81.75999999999999,90.13270936693465L81.85333333333334,89.5440663610186L81.99333333333334,90.93756151199341L82.17999999999999,84.38517788478306L82.46,92.41874844687325L82.64666666666668,92.49339437484741L82.88,88.02857678277152L83.16,93.36122110911778L83.3,93.7443014553615L83.53333333333333,84.72908449172974L83.67333333333333,90.30001463208879L83.90666666666668,93.44417442594255L84.09333333333333,89.35779517037528L84.28,94.00010633468628L84.7,90.15121712003435L85.02666666666666,89.7806521143232L85.16666666666666,92.18328401020595L85.21333333333334,92.93838827950614L85.63333333333334,91.49661622728621L86.1,94.48248951775687L86.52,95.41849953787667L86.8,96.05758973530361L86.98666666666666,97.83403260367257L87.5,94.29420478003365L87.54666666666667,92.99996423721313L87.73333333333333,97.54240587779454L88.01333333333334,92.7449792453221L88.2,97.7750368799482L88.34,91.9601902280535L89.46000000000001,90.29329878943307L90.34666666666666,101.3440671648298L90.44,98.1567427090236L90.48666666666666,97.48580953053066L90.53333333333333,99.42631428582328L90.95333333333332,99.79447991507394L91.32666666666667,100.96233722141811L91.37333333333332,98.54139048712594L91.46666666666667,99.88284690039498L91.51333333333332,105.08474329539708L92.12,95.91867910112654L92.21333333333332,96.95132732391357L92.72666666666666,100.36602585656303L92.86666666666666,103.76420606885637L93.05333333333333,100.25150687353951L93.24000000000001,101.07291351045882L93.42666666666666,99.61836086000716L93.75333333333333,105.48981591633388L93.80000000000001,96.24652556010655L93.94000000000001,97.6188724381583L94.08000000000001,105.02491562707084L94.64,105.30799382073539L94.92,103.34384495871407L95.06,100.994168145316L95.10666666666667,101.37225682394845L95.57333333333332,101.37527111598423L95.71333333333332,100.96058893203735L96.22666666666667,96.86252628053938L96.36666666666667,103.00109583990914L96.50666666666667,102.98538534981864L96.74,96.93180676868984L96.88,105.42429726464408L97.3,98.65285900660923L97.81333333333333,101.03795978001186L98.04666666666667,105.76842090061733L98.14,105.17142227717808L99.25999999999999,101.59682158061436L99.63333333333334,101.26090887614659L99.72666666666667,109.03975970404488L99.86666666666667,102.51479407719204L100.14666666666668,100.36397613797868L100.19333333333333,103.75153398513794L100.52,107.23788826806205L100.89333333333333,102.10050977979387L101.08,104.2626132283892L101.26666666666668,111.921133518219L101.45333333333333,111.84213495254517L101.59333333333333,112.68167557035173L101.68666666666667,112.92441047940935L101.96666666666667,110.32360696792603L102.38666666666666,106.4115743637085L102.75999999999999,110.90061480658395L102.85333333333334,109.7771761076791L102.99333333333334,108.70865780966622L103.08666666666666,108.92697695323399L103.13333333333334,114.6509005001613L103.17999999999999,110.6395891734532L103.50666666666666,111.65112529482161L103.69333333333334,106.30081721714565L103.74,110.60996471132552L104.06666666666666,112.38462311880929L104.44,109.70498984200614L104.48666666666666,101.62014014380318L104.67333333333333,105.38869244711739L104.76666666666667,99.73925808497837L105.18666666666667,109.12288182122367L105.7,112.33579158782959L106.16666666666666,109.44224003383091L106.26,110.72386877877372L106.58666666666666,109.19539363043648L106.63333333333334,112.44464370182583L106.82000000000001,104.30762263706752L106.96000000000001,109.50039175578526L107.33333333333334,115.38310820715768L108.22,113.23057815006801L108.40666666666667,113.98089572361538L108.73333333333332,109.12869337626866L109.01333333333332,109.96320615495955L109.10666666666667,116.15760040283203L109.52666666666667,115.68958936418807L109.71333333333332,114.01338979176113L110.13333333333333,117.09158481870378L110.36666666666666,116.58597952978951L110.41333333333333,110.99466071810042L110.46000000000001,106.65492418834141L111.20666666666666,116.83228336061751L111.44000000000001,114.09423310416085L111.76666666666667,109.62755870819092L111.95333333333333,114.39209338596889L112.09333333333333,109.7692666053772L112.37333333333333,112.68865667070662L112.42,109.64724806376866L112.60666666666667,116.94084610257829L112.84,106.80164786747524L113.12,113.17266757147652L113.16666666666667,115.84005076544625L113.63333333333333,115.0039826120649L113.68,109.07964481626237L113.86666666666667,117.15352249145508L113.91333333333333,114.03168051583427L114.1,110.49287755148751L114.19333333333333,115.16697141102382L114.47333333333333,114.80296550478255L114.61333333333333,108.78859683445522L114.8,115.8609458378383L114.84666666666666,108.96454708916801L114.94,112.02619968141829L114.98666666666666,117.6696536881583L115.08,115.16167831420898L115.59333333333333,104.92208003997803L115.68666666666667,117.06791659763881L116.05999999999999,115.63712862559727L116.10666666666667,117.54743017469133L116.24666666666667,115.08722530092513L117.88,115.07636179242814L118.34666666666668,120.03844111306327L118.86,114.2166736466544L119.18666666666667,113.20404032298497L119.23333333333333,123.91486889975411L119.79333333333334,119.60322557176863L119.93333333333334,117.37461478369576L120.35333333333334,120.44065618515015L120.82,116.38491419383458L121.19333333333334,117.37260123661586L121.33333333333334,122.07224423544747L121.47333333333334,124.18931416102818L121.75333333333334,116.89132731301444L121.98666666666666,117.9827060018267L122.03333333333333,116.9890386036464L122.22,122.1210275377546L122.26666666666667,116.60922574996948L122.59333333333333,121.26408842631749L123.01333333333334,125.74602719715664L123.15333333333334,112.8951597894941L124.08666666666666,117.328725201743L124.55333333333334,120.71592133385795L125.39333333333335,119.23684440340315L125.72,126.13696881702968L126.04666666666667,117.59570707593645L126.42,120.38556698390416L126.51333333333332,120.64404855455672L126.7,119.36914770943778L126.98,116.61492879050118L127.16666666666667,128.03651537214006L127.68,120.19585950034005L127.82000000000001,122.42304754257202L128.05333333333334,127.1836998122079L128.66,120.07332250050136L129.78,120.5926729610988L130.66666666666666,125.12560149601528L130.9,119.83446999958583L130.94666666666666,130.70914343425204L131.41333333333333,130.0961208343506L131.55333333333334,120.51283039365495L131.78666666666666,123.95526041303361L132.16,121.41004044669015L132.29999999999998,120.15337003980363L132.62666666666667,125.9570517539978L133.09333333333333,124.00498417445591L133.42,125.01727989741734L134.07333333333332,119.45644160679409L134.82,126.76995808737618L135.00666666666666,130.119909627097L135.05333333333334,122.01622663225447L135.19333333333333,125.34278726577759L135.24,126.32217897687639L136.64,126.11705037525722L136.78,124.97312654767717L136.96666666666667,126.11782203401839L137.01333333333335,120.01261465890067L137.24666666666667,128.7927168437413L137.29333333333332,130.99296917234147L137.85333333333332,125.95852272851127L138.22666666666666,130.50148282732283L138.32,129.29277583530973L138.36666666666667,128.87588718959262L139.3,121.84960862568447L139.67333333333335,127.95810760770524L139.90666666666667,124.49615703310286L140,123.6458614213126L140.14,129.52367060525077L140.23333333333335,132.36087901251656L140.28,127.16218982424056L140.79333333333335,128.50643144335066L140.84,128.08716753550937L140.88666666666666,126.82866443906511L140.98,130.83668415887016L141.07333333333335,131.05653456279208L141.30666666666667,131.2697535242353L141.4,126.86471537181309L141.7733333333333,125.23005274363926L143.03333333333333,132.2735730579921L143.08,127.16294942583357L143.59333333333333,128.19845519747054L143.64000000000001,131.09506927217757L143.96666666666667,120.92438977105277L144.10666666666668,132.6921979359218L144.15333333333334,130.94482489994596L144.29333333333332,126.36909341812134L144.61999999999998,129.34781680788313L144.9466666666667,131.36793504442488L145.55333333333334,129.51497738701957L145.92666666666668,125.93562616620744L145.97333333333333,130.8888796397618L146.29999999999998,129.97863578796387L146.44,125.891617502485L146.48666666666668,132.37795196260726L146.53333333333333,132.70138549804688L146.67333333333335,127.77558619635445L147.56,126.72802325657436L147.93333333333334,130.59906148910522L147.98,128.17780126844133L148.12,129.67596469606673L148.44666666666666,132.10455567496163L148.58666666666664,133.1808146749224L148.68,133.19640459333147L148.82,130.79166269302368L149.00666666666666,132.4281097820827L149.42666666666665,134.71782629830497L149.70666666666665,131.66786915915353L149.89333333333335,126.58638770239693L149.94,126.30505779811314L150.12666666666667,136.54785122190202L150.22,128.36111845288957L150.68666666666667,130.19224057878768L150.73333333333332,129.00509180341447L150.92000000000002,131.99554681777954L151.15333333333334,130.5728371483939L151.20000000000002,132.8245132991246L151.24666666666667,130.29425627844674L151.38666666666666,135.6986286980765L151.80666666666667,136.83323233468192L151.85333333333332,125.80880887167794L151.9,133.06651272092546L152.13333333333333,129.52950627463204L152.36666666666667,135.08063854490007L152.50666666666666,129.54598842348372L152.64666666666668,138.07407167979648L152.74,129.57317733764648L152.83333333333331,130.91885375976562L152.97333333333333,131.36871876035417L153.29999999999998,129.62244292667935L153.85999999999999,124.58593470709664L153.95333333333332,130.22867734091622L154.56,129.6994400024414L154.60666666666668,132.4715397017343L155.12,125.36136736188615L155.58666666666667,128.2417404311044L155.77333333333334,134.93080411638533L156.05333333333334,128.1530840737479L156.38,132.1346744809832L156.42666666666665,139.3444390296936L156.66,123.94703742436L156.84666666666666,137.1480208805629L156.89333333333335,134.0734430040632L157.08,132.97809750693185L157.78,131.29322883061002L157.82666666666665,131.7586716924395L158.24666666666667,128.74978126798356L158.34,134.00176313945224L158.43333333333334,128.44395119803292L158.80666666666667,133.24278851917813L159.18,136.6754763466971L159.32,139.38358865465437L159.36666666666667,130.45125266483853L159.50666666666666,139.35831683022636L159.6,130.86821365356445L159.64666666666668,132.08379323141915L159.78666666666666,135.95500026430403L160.06666666666666,130.3342981338501L160.25333333333333,136.0916200365339L160.3,132.79268237522672L160.95333333333332,135.0521956852504L161.09333333333333,134.26950461523873L161.23333333333332,134.19276074000766L161.56,140.33892631530762L161.70000000000002,133.1278475352696L161.79333333333332,136.89260183061873L162.07333333333332,139.1614715031215L162.30666666666667,132.51299224581038L162.58666666666667,132.90252317701066L162.67999999999998,131.18365328652519L163.0066666666667,138.98178352628435L163.14666666666668,130.30630138942172L163.2866666666667,128.89045224870955L163.42666666666668,138.35768038885934L163.79999999999998,140.11301115580966L164.22,135.58117982319425L164.45333333333335,136.8224411691938L164.68666666666664,138.37413842337472L164.92,141.67416122981479L165.52666666666664,137.71351412364413L165.62,135.63065038408553L166.41333333333336,138.60902411597115L166.55333333333334,136.48985624313354L166.78666666666666,137.14799676622664L167.20666666666665,143.0489195414952L167.25333333333336,139.7855143547058L167.53333333333336,141.46873119899203L167.81333333333336,136.00507368360246L168.14000000000001,141.5954761505127L168.18666666666667,139.52376529148648L168.23333333333332,133.43672806876046L168.32666666666665,134.61882489068168L168.51333333333332,135.70061813082015L168.70000000000002,129.39763702665056L168.88666666666666,133.99522815431868L168.93333333333334,134.41525166375297L168.98000000000002,137.94628981181552L169.2133333333333,133.02377005985807L169.30666666666667,142.0571812902178L169.7733333333333,140.08192777633667L170.10000000000002,136.9530564716884L170.56666666666666,133.6344415119716L171.40666666666667,139.64618171964372L171.64,135.00708981922696L172.06,139.0796515601022L172.2,141.5862283025469L172.29333333333332,138.94251332964217L172.62,141.84571061815535L172.80666666666667,132.9908539908273L172.85333333333332,132.79892798832486L173.2266666666667,135.25574479784285L173.41333333333333,136.11155053547452L173.46,133.6800296647208L173.6,136.9123032433646L173.69333333333333,136.23471450805664L174.02,135.0204129900251L174.39333333333335,142.94328669139315L174.58,137.78207118170602L174.67333333333335,138.1149937084743L174.95333333333335,138.68645524978638L175.7,132.7912837437221L175.84,140.47555814470564L176.12,137.74762385232108L176.4,138.57939965384347L177.0533333333333,141.26627928870064L177.24,137.48679113388062L177.61333333333332,144.62738370895386L177.98666666666668,138.183032308306L178.59333333333333,134.30422925949097L179.20000000000002,139.72373342514038L179.43333333333334,143.17919724328178L179.9466666666667,143.5299884932382L180.36666666666667,142.59975385665894L180.6,135.07417590277535L180.69333333333333,141.11528737204415L180.7866666666667,143.8315141541617L180.92666666666668,140.64566067286898L181.01999999999998,138.5681503159659L181.25333333333333,142.929710320064L181.29999999999998,134.16804354531425L181.67333333333335,132.80252102443148L181.72,139.50846474511283L181.85999999999999,133.54466383797782L182.18666666666664,146.10752167020524L182.32666666666665,139.65370539256503L182.37333333333333,140.37705108097623L182.42,135.66289125170027L182.84,131.78495631899153L183.02666666666664,134.26315048762729L183.21333333333334,132.836003780365L183.58666666666664,133.3631672859192L183.82,134.87993492398942L184.52,135.64679493222917L184.56666666666666,137.08998973029L184.75333333333336,139.21900830950057L184.84666666666666,141.0700729915074L185.17333333333335,145.60308592660087L185.36,140.6043769291469L185.78,144.37050574166435L185.82666666666665,136.91880205699374L185.87333333333333,146.3707537651062L185.92000000000002,137.82114846365792L185.96666666666667,139.27711180278231L186.24666666666667,147.00330897739957L186.34,141.40826450075423L186.48000000000002,140.99370288848877L186.62,136.64832360403878L186.66666666666666,143.98167412621635L186.80666666666667,138.32516220637729L187.32000000000002,144.34270191192627L187.60000000000002,139.58007226671492L187.88000000000002,143.30078172683716L188.29999999999998,143.45283467429024L188.34666666666666,136.53310530526298L188.57999999999998,147.48109837940763L188.72,147.30402680805753L189,144.43211787087577L189.18666666666667,137.56679044451033L189.37333333333333,137.09835740498136L189.74666666666667,142.58204187665666L189.88666666666668,142.46863215310233L190.16666666666669,139.16242401940482L190.21333333333334,141.55809892926897L190.58666666666667,141.04300464902605L190.7266666666667,136.55312020438058L190.77333333333334,140.89501496723722L191.33333333333334,142.15342160633634L191.94,143.39195803233554L191.98666666666665,138.97646631513322L192.03333333333333,138.78668648856026L192.08,138.23457670211792L192.73333333333335,139.07989270346505L193.85333333333335,142.10642276491438L193.9933333333333,144.94003813607353L194.08666666666667,137.98312446049283L194.18,137.73931646347046L194.32,146.64005061558316L194.41333333333333,138.3187598500933L194.50666666666666,136.33944307054793L194.64666666666668,143.98327772957938L194.69333333333333,142.9016412326268L195.53333333333333,147.12193945475985L196,144.18214866093228L196.32666666666668,140.46275343213762L196.51333333333332,143.2315856388637L196.56,142.15928139005388L196.79333333333332,147.13076530184065L196.83999999999997,148.23115069525582L196.98000000000002,144.1265048299517L197.49333333333334,144.3510695866176L197.54,146.99961948394775L198.1,143.11735602787564L198.14666666666668,148.4274172782898L198.23999999999998,141.31840242658342L198.2866666666667,145.4346352304731L198.42666666666668,141.15126596178328L198.47333333333333,144.6921307018825L198.51999999999998,141.38716445650374L198.84666666666666,144.05437885011946L198.94,141.14881835665022L199.03333333333333,141.98874480383736L199.73333333333335,140.7114928109305L199.78,135.85649320057462L199.82666666666665,143.70003073556083L199.87333333333333,135.48970208849227L200.06,140.16550806590487L200.2,143.17724398204257L200.9,142.12784835270475L200.99333333333334,135.99464423315865L201.27333333333334,146.52652032034737L201.36666666666665,143.59893138068063L201.55333333333334,137.97943496704102L201.74,144.44362040928434L201.78666666666666,146.32640750067574L202.48666666666665,140.7295665059771L202.90666666666667,145.24477100372314L203,145.95482969284058L203.09333333333336,148.9939112663269L203.23333333333332,139.74924639293124L203.32666666666665,143.98579767772128L203.46666666666667,140.7088884626116L203.88666666666666,147.64628158296858L204.02666666666667,145.18196521486556L204.16666666666666,138.35373769487654L205.19333333333333,134.79054307937622L205.42666666666668,145.90320089885165L205.70666666666668,141.55475909369332L205.84666666666666,143.0616157395499L206.03333333333333,142.02694191251481L206.31333333333333,141.26273448126656L206.45333333333332,141.7536782537188L206.54666666666668,141.25342634746005L206.78,144.6102625301906L206.87333333333333,138.75884648731778L207.01333333333332,142.18343189784457L207.80666666666667,141.0893041746957L207.99333333333334,144.99868420192172L208.36666666666667,147.18765102113997L208.41333333333333,148.28792790004184L208.83333333333334,145.37039463860648L209.11333333333334,145.53640978676933L209.16,143.85925769805908L209.20666666666665,145.1183877672468L209.34666666666666,144.32410975864957L209.62666666666667,145.79662758963448L209.86,146.05895539692472L210,142.84553922925676L210.37333333333333,149.51838602338518L210.56,146.2920204571315L210.65333333333334,143.90695585523332L211.07333333333335,142.64109788622176L211.30666666666667,147.44210549763272L211.58666666666667,145.36008575984408L211.63333333333333,142.08268220084054L211.86666666666667,141.36171177455356L212.19333333333333,146.44249391555786L213.03333333333333,143.37915331976754L213.08,149.31175027574812L213.40666666666667,142.80495480128695L213.78,147.79585075378418L213.82666666666668,150.6741499900818L213.92000000000002,147.19102702822005L214.10666666666668,137.68962887355258L214.29333333333332,142.88243416377475L214.52666666666667,144.55041074752808L215.08666666666667,148.34943151474L215.36666666666667,142.35993678229195L215.64666666666668,142.26573412758964L215.7866666666667,143.01989793777466L216.06666666666666,145.34039640426636L216.62666666666667,143.2973816054208L216.81333333333333,144.78043740136283L217.14,149.82758004324776L217.28,145.72825138909477L217.79333333333335,154.66342081342424L218.26,141.6040849685669L218.30666666666664,141.89161225727628L218.44666666666666,148.19613667896817L218.96,137.14535624640328L219.66,143.68659905024936L219.70666666666665,149.76206139155795L220.08,148.66557046345304L220.31333333333336,150.07307604381015L220.59333333333336,146.3158815928868L220.68666666666667,144.57667125974382L220.73333333333332,144.35065964290072L221.01333333333332,139.69969143186296L221.48000000000002,147.90114600317818L221.62,155.26250532695224L221.7133333333333,144.21703004837036L221.76000000000002,152.8411486489432L221.80666666666667,151.39982271194458L221.9933333333333,144.79350737162997L222.46,143.04133558273315L222.50666666666666,145.9332594190325L222.60000000000002,148.9632740020752L223.06666666666666,143.9322156224932L223.11333333333332,149.3279551097325L223.90666666666667,147.9785771369934L224.23333333333332,148.90998131888253L224.42,153.38730219432284L224.84,147.05604703085763L225.07333333333332,146.07183245250155L225.30666666666667,145.03578410829817L225.58666666666667,147.4933966909136L226.0066666666667,143.97450011117118L226.19333333333333,153.47355917521884L226.38,149.1569844654628L226.8,145.33001518249512L227.03333333333333,145.57328060695102L227.31333333333333,155.1312630517142L227.54666666666665,147.78436027254378L227.68666666666667,153.98411996023995L227.73333333333335,144.121308190482L228.06,151.06867258889335L228.43333333333334,147.5997770854405L228.80666666666667,144.05944286073958L228.9933333333333,147.21537045070102L229.13333333333333,153.98068366731917L229.2733333333333,156.1934995651245L229.32,139.90337317330497L229.69333333333333,147.5876475742885L229.78666666666666,153.50391912460327L230.3,142.96936634608676L230.67333333333332,151.3932274409703L230.95333333333332,152.0490288734436L231.18666666666667,156.8277668952942L231.37333333333333,139.6975814274379L231.74666666666667,147.73904943466187L232.82,150.69641957964217L233.1,147.35659606116158L233.2866666666667,148.89712837764193L233.98666666666668,150.6375444275992L234.26666666666668,149.77304547173637L234.40666666666664,147.97775724955966L234.5,153.89992475509644L234.82666666666665,149.591151033129L234.96666666666664,147.69018173217773L235.15333333333334,160.01504312242778L235.34,144.15749175207955L235.38666666666666,148.20392560958862L235.43333333333334,148.3573410170419L235.52666666666664,147.1476091657366L235.80666666666664,148.01764236177718L236.13333333333335,140.77392482757568L236.22666666666666,148.83795179639543L236.32,149.00071150915963L236.50666666666666,154.31336505072457L236.64666666666665,146.49374893733432L236.69333333333336,148.13740621294295L236.78666666666666,152.25732851028442L237.16,146.86061239242554L237.53333333333336,149.29501492636544L237.62666666666667,147.76430920192172L238.28,149.541366985866L238.42000000000002,150.52314601625716L238.56,151.71845749446322L239.02666666666667,152.54291459492276L239.2133333333333,149.4544589178903L239.35333333333332,146.7269466263907L240.0533333333333,146.84949568339755L240.28666666666666,153.48742491858346L240.33333333333331,146.11168139321464L240.51999999999998,152.68409197671073L240.70666666666668,148.0766863141741L240.75333333333333,150.1544739859445L240.79999999999998,150.1102362360273L240.89333333333332,149.38404505593437L241.12666666666667,151.85915258952548L241.17333333333332,154.6276351383754L241.22,146.09348712648665L241.64,147.87018319538663L242.01333333333332,150.58818238122123L242.2,146.934860433851L242.29333333333332,144.54912063053678L242.57333333333332,149.23068993432182L242.9466666666667,145.06555325644356L242.99333333333334,152.9404514857701L243.27333333333334,149.17769868033272L243.41333333333333,144.2716249057225L243.7866666666667,150.61222437449862L244.06666666666666,148.74918692452567L244.20666666666665,148.98964302880424L244.25333333333333,147.3675560270037L244.39333333333335,154.3440384864807L244.53333333333333,144.62059552328927L244.67333333333335,149.2670543534415L245.23333333333335,150.77752814974104L245.42,148.042058127267L245.74666666666667,152.76368134362357L246.02666666666667,153.57808276585172L246.16666666666666,150.96770586286272L246.2133333333333,154.36448744365146L246.26,153.30043029785156L246.4,152.0336559840611L246.44666666666666,146.151638848441L246.7733333333333,146.7176626069205L246.86666666666667,146.91327810287476L246.96,155.31924636023385L247.24,149.5961788722447L247.52,147.90091691698348L247.66,140.51141616276334L247.8,152.1668997492109L247.89333333333332,148.28122411455428L247.98666666666668,152.91544491904122L248.73333333333332,150.97901548658098L248.82666666666668,151.13745873314994L248.92000000000002,154.57299205235074L248.96666666666667,150.1322043963841L249.01333333333332,154.43344238826205L249.33999999999997,142.16262122562955L249.38666666666668,152.07871362141202L250.2266666666667,155.7712937082563L250.36666666666667,150.1501213482448L250.88,150.35139165605818L251.16,150.98163189206804L251.76666666666668,152.11115946088518L252.37333333333333,147.28255299159457L252.46666666666664,145.6190013885498L252.65333333333334,154.91981649398804L253.16666666666666,152.21760014125277L253.26,148.96638475145613L253.35333333333335,151.8701607840402L253.54,154.87485531398227L253.63333333333335,152.01901858193534L253.86666666666665,143.40401520047868L254.05333333333334,150.31235054561068L254.28666666666666,154.17827653884888L255.64000000000001,146.9531511579241L255.73333333333332,150.3579989842006L256.2,151.45329625265938L256.24666666666667,153.0990514755249L257.32,148.1649809564863L257.64666666666665,156.23771320070537L257.74,149.06508472987582L257.8333333333333,150.5977919442313L258.86,151.68681948525565L259.37333333333333,149.80130747386386L259.42,147.47783088684082L259.5133333333333,147.4275886671884L259.6066666666667,148.8496834209987L259.74666666666667,150.40915754863192L260.2133333333333,150.5218197277614L260.3533333333333,152.46162516730172L260.40000000000003,154.73643902369906L260.68,151.79239204951693L260.7733333333333,146.71763849258423L260.8666666666667,156.48803206852506L261.1,147.43872949055265L261.1933333333333,150.65350811822074L261.38,142.90879113333565L261.4733333333333,146.35323469979423L262.36,147.0802457673209L262.5466666666667,148.9043023926871L262.82666666666665,150.1507603781564L263.0133333333333,150.52515956333707L263.2,147.6127747126988L263.5266666666667,147.81754159927368L263.7133333333333,144.41679321016585L263.76,154.17963899884904L263.85333333333335,149.78606721333097L263.9,148.65749216079712L264.46,150.97471107755388L264.88,151.49503816877092L265.3933333333333,150.7769252913339L265.86,151.96068600245883L265.90666666666664,155.47548314503263L266,153.78485114233834L266.23333333333335,150.10174798965454L266.32666666666665,150.28301545551847L266.56,153.6230318886893L266.84,152.18801185062955L267.1666666666667,151.23342173440116L267.35333333333335,150.23100083214896L267.77333333333337,148.55304091317313L268.4733333333333,155.92551694597515L268.52,146.66621467045377L268.70666666666665,152.5920354979379L268.8933333333333,155.1005655016218L269.0333333333333,150.4768947192601L269.5933333333333,147.36504813602994L270.0133333333333,149.60013362339566L270.24666666666667,154.12073973246981L270.34000000000003,153.59577063151767L270.43333333333334,147.9988934653146L270.52666666666664,150.30090829304288L270.85333333333335,155.57763147354126L271.50666666666666,149.58982474463326L271.55333333333334,150.26766668047225L271.6933333333333,149.41756398337228L271.7866666666667,145.56632362093245L271.97333333333336,150.35960258756364L272.02,154.6987121445792L272.20666666666665,142.06032821110318" style="fill: none;" fill="none"></path></g></g></g></g></g></g><g transform="translate(50, 177)" clip-path="url(#clip_1)"><clipPath id="clip_1"><rect width="280" height="22"></rect></clipPath><g><g><line x1="0" y1="0" x2="0" y2="5" style="visibility: inherit;" fill="rgb(0, 0, 0)" stroke="rgb(204, 204, 204)" stroke-width="1px"></line><line x1="23.333333333333332" y1="0" x2="23.333333333333332" y2="5" style="visibility: inherit;" fill="rgb(0, 0, 0)" stroke="rgb(204, 204, 204)" stroke-width="1px"></line><line x1="46.666666666666664" y1="0" x2="46.666666666666664" y2="5" style="visibility: inherit;" fill="rgb(0, 0, 0)" stroke="rgb(204, 204, 204)" stroke-width="1px"></line><line x1="70" y1="0" x2="70" y2="5" style="visibility: inherit;" fill="rgb(0, 0, 0)" stroke="rgb(204, 204, 204)" stroke-width="1px"></line><line x1="93.33333333333333" y1="0" x2="93.33333333333333" y2="5" style="visibility: inherit;" fill="rgb(0, 0, 0)" stroke="rgb(204, 204, 204)" stroke-width="1px"></line><line x1="116.66666666666667" y1="0" x2="116.66666666666667" y2="5" style="visibility: inherit;" fill="rgb(0, 0, 0)" stroke="rgb(204, 204, 204)" stroke-width="1px"></line><line x1="140" y1="0" x2="140" y2="5" style="visibility: inherit;" fill="rgb(0, 0, 0)" stroke="rgb(204, 204, 204)" stroke-width="1px"></line><line x1="163.33333333333334" y1="0" x2="163.33333333333334" y2="5" style="visibility: inherit;" fill="rgb(0, 0, 0)" stroke="rgb(204, 204, 204)" stroke-width="1px"></line><line x1="186.66666666666666" y1="0" x2="186.66666666666666" y2="5" style="visibility: inherit;" fill="rgb(0, 0, 0)" stroke="rgb(204, 204, 204)" stroke-width="1px"></line><line x1="210" y1="0" x2="210" y2="5" style="visibility: inherit;" fill="rgb(0, 0, 0)" stroke="rgb(204, 204, 204)" stroke-width="1px"></line><line x1="233.33333333333334" y1="0" x2="233.33333333333334" y2="5" style="visibility: inherit;" fill="rgb(0, 0, 0)" stroke="rgb(204, 204, 204)" stroke-width="1px"></line><line x1="256.66666666666663" y1="0" x2="256.66666666666663" y2="5" style="visibility: inherit;" fill="rgb(0, 0, 0)" stroke="rgb(204, 204, 204)" stroke-width="1px"></line><line x1="280" y1="0" x2="280" y2="5" style="visibility: inherit;" fill="rgb(0, 0, 0)" stroke="rgb(204, 204, 204)" stroke-width="1px"></line></g><g transform="translate(0, 8)"><text x="0" y="0" dx="0em" dy="0.95em" style="text-anchor: middle; visibility: hidden; font-family: Roboto, sans-serif; font-size: 12px; font-weight: 200;" fill="rgb(33, 33, 33)" stroke="none" stroke-width="1px">-500</text><text x="23.333333333333332" y="0" dx="0em" dy="0.95em" style="text-anchor: middle; visibility: inherit; font-family: Roboto, sans-serif; font-size: 12px; font-weight: 200;" fill="rgb(33, 33, 33)" stroke="none" stroke-width="1px">0</text><text x="46.666666666666664" y="0" dx="0em" dy="0.95em" style="text-anchor: middle; visibility: inherit; font-family: Roboto, sans-serif; font-size: 12px; font-weight: 200;" fill="rgb(33, 33, 33)" stroke="none" stroke-width="1px">500</text><text x="70" y="0" dx="0em" dy="0.95em" style="text-anchor: middle; visibility: inherit; font-family: Roboto, sans-serif; font-size: 12px; font-weight: 200;" fill="rgb(33, 33, 33)" stroke="none" stroke-width="1px">1k</text><text x="93.33333333333333" y="0" dx="0em" dy="0.95em" style="text-anchor: middle; visibility: inherit; font-family: Roboto, sans-serif; font-size: 12px; font-weight: 200;" fill="rgb(33, 33, 33)" stroke="none" stroke-width="1px">1.5k</text><text x="116.66666666666667" y="0" dx="0em" dy="0.95em" style="text-anchor: middle; visibility: inherit; font-family: Roboto, sans-serif; font-size: 12px; font-weight: 200;" fill="rgb(33, 33, 33)" stroke="none" stroke-width="1px">2k</text><text x="140" y="0" dx="0em" dy="0.95em" style="text-anchor: middle; visibility: inherit; font-family: Roboto, sans-serif; font-size: 12px; font-weight: 200;" fill="rgb(33, 33, 33)" stroke="none" stroke-width="1px">2.5k</text><text x="163.33333333333334" y="0" dx="0em" dy="0.95em" style="text-anchor: middle; visibility: inherit; font-family: Roboto, sans-serif; font-size: 12px; font-weight: 200;" fill="rgb(33, 33, 33)" stroke="none" stroke-width="1px">3k</text><text x="186.66666666666666" y="0" dx="0em" dy="0.95em" style="text-anchor: middle; visibility: inherit; font-family: Roboto, sans-serif; font-size: 12px; font-weight: 200;" fill="rgb(33, 33, 33)" stroke="none" stroke-width="1px">3.5k</text><text x="210" y="0" dx="0em" dy="0.95em" style="text-anchor: middle; visibility: inherit; font-family: Roboto, sans-serif; font-size: 12px; font-weight: 200;" fill="rgb(33, 33, 33)" stroke="none" stroke-width="1px">4k</text><text x="233.33333333333334" y="0" dx="0em" dy="0.95em" style="text-anchor: middle; visibility: inherit; font-family: Roboto, sans-serif; font-size: 12px; font-weight: 200;" fill="rgb(33, 33, 33)" stroke="none" stroke-width="1px">4.5k</text><text x="256.66666666666663" y="0" dx="0em" dy="0.95em" style="text-anchor: middle; visibility: inherit; font-family: Roboto, sans-serif; font-size: 12px; font-weight: 200;" fill="rgb(33, 33, 33)" stroke="none" stroke-width="1px">5k</text><text x="280" y="0" dx="0em" dy="0.95em" style="text-anchor: middle; visibility: hidden; font-family: Roboto, sans-serif; font-size: 12px; font-weight: 200;" fill="rgb(33, 33, 33)" stroke="none" stroke-width="1px">5.5k</text></g><line x1="0" y1="0" x2="280" y2="0" fill="rgb(0, 0, 0)" stroke="rgb(204, 204, 204)" stroke-width="1px"></line></g></g></g></g></svg>