<svg viewBox="0 0 330 200" xmlns="http://www.w3.org/2000/svg"><g><g><g><g><g><line x1="72.34375" y1="177" x2="67.34375" y2="177" style="visibility: inherit;" fill="rgb(0, 0, 0)" stroke="rgb(204, 204, 204)" stroke-width="1px"></line><line x1="72.34375" y1="162.25" x2="67.34375" y2="162.25" style="visibility: inherit;" fill="rgb(0, 0, 0)" stroke="rgb(204, 204, 204)" stroke-width="1px"></line><line x1="72.34375" y1="147.5" x2="67.34375" y2="147.5" style="visibility: inherit;" fill="rgb(0, 0, 0)" stroke="rgb(204, 204, 204)" stroke-width="1px"></line><line x1="72.34375" y1="132.75" x2="67.34375" y2="132.75" style="visibility: inherit;" fill="rgb(0, 0, 0)" stroke="rgb(204, 204, 204)" stroke-width="1px"></line><line x1="72.34375" y1="118.00000000000001" x2="67.34375" y2="118.00000000000001" style="visibility: inherit;" fill="rgb(0, 0, 0)" stroke="rgb(204, 204, 204)" stroke-width="1px"></line><line x1="72.34375" y1="103.25" x2="67.34375" y2="103.25" style="visibility: inherit;" fill="rgb(0, 0, 0)" stroke="rgb(204, 204, 204)" stroke-width="1px"></line><line x1="72.34375" y1="88.5" x2="67.34375" y2="88.5" style="visibility: inherit;" fill="rgb(0, 0, 0)" stroke="rgb(204, 204, 204)" stroke-width="1px"></line><line x1="72.34375" y1="73.75000000000001" x2="67.34375" y2="73.75000000000001" style="visibility: inherit;" fill="rgb(0, 0, 0)" stroke="rgb(204, 204, 204)" stroke-width="1px"></line><line x1="72.34375" y1="59.00000000000001" x2="67.34375" y2="59.00000000000001" style="visibility: inherit;" fill="rgb(0, 0, 0)" stroke="rgb(204, 204, 204)" stroke-width="1px"></line><line x1="72.34375" y1="44.25" x2="67.34375" y2="44.25" style="visibility: inherit;" fill="rgb(0, 0, 0)" stroke="rgb(204, 204, 204)" stroke-width="1px"></line><line x1="72.34375" y1="29.500000000000014" x2="67.34375" y2="29.500000000000014" style="visibility: inherit;" fill="rgb(0, 0, 0)" stroke="rgb(204, 204, 204)" stroke-width="1px"></line><line x1="72.34375" y1="14.750000000000007" x2="67.34375" y2="14.750000000000007" style="visibility: inherit;" fill="rgb(0, 0, 0)" stroke="rgb(204, 204, 204)" stroke-width="1px"></line><line x1="72.34375" y1="0" x2="67.34375" y2="0" style="visibility: inherit;" fill="rgb(0, 0, 0)" stroke="rgb(204, 204, 204)" stroke-width="1px"></line></g><g transform="translate(62.34375, 0)"><text x="0" y="177" dx="0em" dy="0.3em" style="text-anchor: end; visibility: hidden; font-family: Roboto, sans-serif; font-size: 12px; font-weight: 200;" fill="rgb(33, 33, 33)" stroke="none" stroke-width="1px">-1e-4</text><text x="0" y="162.25" dx="0em" dy="0.3em" style="text-anchor: end; visibility: inherit; font-family: Roboto, sans-serif; font-size: 12px; font-weight: 200;" fill="rgb(33, 33, 33)" stroke="none" stroke-width="1px">0</text><text x="0" y="147.5" dx="0em" dy="0.3em" style="text-anchor: end; visibility: hidden; font-family: Roboto, sans-serif; font-size: 12px; font-weight: 200;" fill="rgb(33, 33, 33)" stroke="none" stroke-width="1px">1e-4</text><text x="0" y="132.75" dx="0em" dy="0.3em" style="text-anchor: end; visibility: inherit; font-family: Roboto, sans-serif; font-size: 12px; font-weight: 200;" fill="rgb(33, 33, 33)" stroke="none" stroke-width="1px">2e-4</text><text x="0" y="118.00000000000001" dx="0em" dy="0.3em" style="text-anchor: end; visibility: hidden; font-family: Roboto, sans-serif; font-size: 12px; font-weight: 200;" fill="rgb(33, 33, 33)" stroke="none" stroke-width="1px">3e-4</text><text x="0" y="103.25" dx="0em" dy="0.3em" style="text-anchor: end; visibility: inherit; font-family: Roboto, sans-serif; font-size: 12px; font-weight: 200;" fill="rgb(33, 33, 33)" stroke="none" stroke-width="1px">4e-4</text><text x="0" y="88.5" dx="0em" dy="0.3em" style="text-anchor: end; visibility: hidden; font-family: Roboto, sans-serif; font-size: 12px; font-weight: 200;" fill="rgb(33, 33, 33)" stroke="none" stroke-width="1px">5e-4</text><text x="0" y="73.75000000000001" dx="0em" dy="0.3em" style="text-anchor: end; visibility: inherit; font-family: Roboto, sans-serif; font-size: 12px; font-weight: 200;" fill="rgb(33, 33, 33)" stroke="none" stroke-width="1px">6e-4</text><text x="0" y="59.00000000000001" dx="0em" dy="0.3em" style="text-anchor: end; visibility: hidden; font-family: Roboto, sans-serif; font-size: 12px; font-weight: 200;" fill="rgb(33, 33, 33)" stroke="none" stroke-width="1px">7e-4</text><text x="0" y="44.25" dx="0em" dy="0.3em" style="text-anchor: end; visibility: inherit; font-family: Roboto, sans-serif; font-size: 12px; font-weight: 200;" fill="rgb(33, 33, 33)" stroke="none" stroke-width="1px">8e-4</text><text x="0" y="29.500000000000014" dx="0em" dy="0.3em" style="text-anchor: end; visibility: hidden; font-family: Roboto, sans-serif; font-size: 12px; font-weight: 200;" fill="rgb(33, 33, 33)" stroke="none" stroke-width="1px">9e-4</text><text x="0" y="14.750000000000007" dx="0em" dy="0.3em" style="text-anchor: end; visibility: inherit; font-family: Roboto, sans-serif; font-size: 12px; font-weight: 200;" fill="rgb(33, 33, 33)" stroke="none" stroke-width="1px">1e-3</text><text x="0" y="0" dx="0em" dy="0.3em" style="text-anchor: end; visibility: hidden; font-family: Roboto, sans-serif; font-size: 12px; font-weight: 200;" fill="rgb(33, 33, 33)" stroke="none" stroke-width="1px">1.1e-3</text></g><line x1="72.34375" y1="0" x2="72.34375" y2="177" fill="rgb(0, 0, 0)" stroke="rgb(204, 204, 204)" stroke-width="1px"></line></g></g><g transform="translate(72, 0)" clip-path="url(#clip_0)"><clipPath id="clip_0"><rect width="257" height="176"></rect></clipPath><g><g><g><line x1="0" y1="0" x2="0" y2="177" fill="rgb(0, 0, 0)" stroke="rgb(66, 66, 66)" stroke-width="1px" opacity="0.25"></line><line x1="21.471354166666664" y1="0" x2="21.471354166666664" y2="177" fill="rgb(0, 0, 0)" stroke="rgb(66, 66, 66)" stroke-width="1px" opacity="0.25"></line><line x1="42.94270833333333" y1="0" x2="42.94270833333333" y2="177" fill="rgb(0, 0, 0)" stroke="rgb(66, 66, 66)" stroke-width="1px" opacity="0.25"></line><line x1="64.4140625" y1="0" x2="64.4140625" y2="177" fill="rgb(0, 0, 0)" stroke="rgb(66, 66, 66)" stroke-width="1px" opacity="0.25"></line><line x1="85.88541666666666" y1="0" x2="85.88541666666666" y2="177" fill="rgb(0, 0, 0)" stroke="rgb(66, 66, 66)" stroke-width="1px" opacity="0.25"></line><line x1="107.35677083333334" y1="0" x2="107.35677083333334" y2="177" fill="rgb(0, 0, 0)" stroke="rgb(66, 66, 66)" stroke-width="1px" opacity="0.25"></line><line x1="128.828125" y1="0" x2="128.828125" y2="177" fill="rgb(0, 0, 0)" stroke="rgb(66, 66, 66)" stroke-width="1px" opacity="0.25"></line><line x1="150.29947916666669" y1="0" x2="150.29947916666669" y2="177" fill="rgb(0, 0, 0)" stroke="rgb(66, 66, 66)" stroke-width="1px" opacity="0.25"></line><line x1="171.77083333333331" y1="0" x2="171.77083333333331" y2="177" fill="rgb(0, 0, 0)" stroke="rgb(66, 66, 66)" stroke-width="1px" opacity="0.25"></line><line x1="193.2421875" y1="0" x2="193.2421875" y2="177" fill="rgb(0, 0, 0)" stroke="rgb(66, 66, 66)" stroke-width="1px" opacity="0.25"></line><line x1="214.71354166666669" y1="0" x2="214.71354166666669" y2="177" fill="rgb(0, 0, 0)" stroke="rgb(66, 66, 66)" stroke-width="1px" opacity="0.25"></line><line x1="236.18489583333331" y1="0" x2="236.18489583333331" y2="177" fill="rgb(0, 0, 0)" stroke="rgb(66, 66, 66)" stroke-width="1px" opacity="0.25"></line><line x1="257.65625" y1="0" x2="257.65625" y2="177" fill="rgb(0, 0, 0)" stroke="rgb(66, 66, 66)" stroke-width="1px" opacity="0.25"></line></g><g><line x1="0" y1="177" x2="257.65625" y2="177" fill="rgb(0, 0, 0)" stroke="rgb(66, 66, 66)" stroke-width="1px" opacity="0.25"></line><line x1="0" y1="162.25" x2="257.65625" y2="162.25" fill="rgb(0, 0, 0)" stroke="rgb(66, 66, 66)" stroke-width="1px" opacity="0.25"></line><line x1="0" y1="147.5" x2="257.65625" y2="147.5" fill="rgb(0, 0, 0)" stroke="rgb(66, 66, 66)" stroke-width="1px" opacity="0.25"></line><line x1="0" y1="132.75" x2="257.65625" y2="132.75" fill="rgb(0, 0, 0)" stroke="rgb(66, 66, 66)" stroke-width="1px" opacity="0.25"></line><line x1="0" y1="118.00000000000001" x2="257.65625" y2="118.00000000000001" fill="rgb(0, 0, 0)" stroke="rgb(66, 66, 66)" stroke-width="1px" opacity="0.25"></line><line x1="0" y1="103.25" x2="257.65625" y2="103.25" fill="rgb(0, 0, 0)" stroke="rgb(66, 66, 66)" stroke-width="1px" opacity="0.25"></line><line x1="0" y1="88.5" x2="257.65625" y2="88.5" fill="rgb(0, 0, 0)" stroke="rgb(66, 66, 66)" stroke-width="1px" opacity="0.25"></line><line x1="0" y1="73.75000000000001" x2="257.65625" y2="73.75000000000001" fill="rgb(0, 0, 0)" stroke="rgb(66, 66, 66)" stroke-width="1px" opacity="0.25"></line><line x1="0" y1="59.00000000000001" x2="257.65625" y2="59.00000000000001" fill="rgb(0, 0, 0)" stroke="rgb(66, 66, 66)" stroke-width="1px" opacity="0.25"></line><line x1="0" y1="44.25" x2="257.65625" y2="44.25" fill="rgb(0, 0, 0)" stroke="rgb(66, 66, 66)" stroke-width="1px" opacity="0.25"></line><line x1="0" y1="29.500000000000014" x2="257.65625" y2="29.500000000000014" fill="rgb(0, 0, 0)" stroke="rgb(66, 66, 66)" stroke-width="1px" opacity="0.25"></line><line x1="0" y1="14.750000000000007" x2="257.65625" y2="14.750000000000007" fill="rgb(0, 0, 0)" stroke="rgb(66, 66, 66)" stroke-width="1px" opacity="0.25"></line><line x1="0" y1="0" x2="257.65625" y2="0" fill="rgb(0, 0, 0)" stroke="rgb(66, 66, 66)" stroke-width="1px" opacity="0.25"></line></g></g></g><g><g><line x1="0" y1="162.25" x2="257.65625" y2="162.25" fill="rgb(0, 0, 0)" stroke="rgb(153, 153, 153)" stroke-width="1.5px"></line></g></g><g><g><line x1="21.471354166666664" y1="0" x2="21.471354166666664" y2="177" fill="rgb(0, 0, 0)" stroke="rgb(153, 153, 153)" stroke-width="1.5px"></line></g></g><g><g><g><g><g><path stroke="rgb(204, 51, 17)" stroke-width="2px" d="M21.643125,146.254690159054L22.072552083333335,143.76407187833684L22.115494791666666,143.51500919170212L22.244322916666665,142.76782327820547L22.287265625,142.51876273797825L22.587864583333335,140.77532822435023L22.630807291666667,140.52626553771552L23.1890625,137.2884613435017L23.48966145833333,135.54502897628117L23.53260416666667,135.29596628964646L23.575546875,135.04690360301174L24.133802083333332,131.80909940879792L24.176744791666668,131.5600367221632L24.30557291666667,130.81285080866655L24.348515625,130.56379026843933L24.47734375,129.81660435494268L24.52028645833333,129.56754166830797L24.77794270833333,128.07316984131467L24.99265625,126.82786070095608L25.293255208333335,125.08442618732806L25.722682291666665,122.59380790661089L25.894453125000002,121.59756145288702L26.066223958333335,120.60131499916316L26.667421875,117.11444597190712L26.839192708333336,116.11819951818326L26.882135416666667,115.86913897795603L26.968020833333334,115.3710136046866L27.05390625,114.87288823141716L27.3115625,113.37851640442388L27.655104166666668,111.38602349697612L27.74098958333333,110.88789812370669L27.783932291666666,110.63883758347947L27.912760416666668,109.89165166998283L28.213359375,108.14821930276231L28.3421875,107.40103338926565L28.428072916666668,106.90290801599622L28.51395833333333,106.40478264272679L28.8575,104.41228973527903L29.072213541666667,103.16697844851298L29.372812500000002,101.42354608129246L29.415755208333334,101.17448554106522L29.673411458333334,99.68011371407194L29.716354166666665,99.4310488810297L30.188723958333334,96.69137006008532L30.274609374999997,96.19324468681589L30.618151041666668,94.20075177936813L30.704036458333334,93.7026264060987L31.090520833333336,91.46106866560875L31.305234374999998,90.2157573788427L31.949375,86.47983210417442L31.99231770833333,86.2307715639472L32.55057291666667,82.99296736973338L32.593515625,82.74389824387617L33.108828125,79.75516317551956L33.23765625,79.00797296920791L33.58119791666667,77.01548006176017L33.710026041666666,76.26828985544853L33.838854166666664,75.52110823476687L33.92473958333333,75.02298715431243L34.139453125,73.77767586754635L34.225338541666666,73.27954620146193L34.26828125,73.0304856612347L34.69770833333333,70.53987167333253L34.869479166666665,69.54362092679366L35.041250000000005,68.5473701802548L35.12713541666667,68.04924909980038L35.170078125,67.80018855957314L35.29890625,67.05299835326151L36.28658854166667,61.324580171145506L36.329531249999995,61.07551963091829L36.844843749999995,58.086775976931676L37.1025,56.59240414993839L37.145442708333334,56.343343609711155L37.18838541666667,56.09427448385395L37.70369791666667,53.105530829867355L38.04723958333334,51.11303792241962L38.21901041666667,50.11679576151073L38.30489583333333,49.61866609542631L38.519609375,48.37335480866024L38.73432291666667,47.128052107524134L38.82020833333333,46.62992244143972L39.292578125,43.890247913310304L39.550234375,42.39587608631702L39.59317708333334,42.14680696045981L40.194375,38.65994222601877L40.237317708333336,38.41088168579154L40.323203125,37.91276060533711L40.62380208333334,36.16932823811659L40.881458333333335,34.67495641112328L41.05322916666667,33.67870566458442L41.26794270833334,32.433394377818345L41.43971354166666,31.437152216909453L41.56854166666667,30.689962010597824L41.65442708333333,30.19184093014338L41.826197916666665,29.195590183604516L41.869140625,28.946529643377303L42.08385416666667,27.701218356611207L42.126796875000004,27.452157816383995L42.384453125,25.957785989390686L43.372135416666666,20.229359221644707L43.45802083333333,19.73123814119026L43.500963541666664,19.48217760096305L43.543906250000006,19.233117060735836L43.672734375000005,18.485926854424186L43.75861979166667,17.98780577396974L44.35981770833333,14.78071237821132L44.402760416666666,14.811431762296719L44.48864583333333,14.87287053046748L44.57453125,14.934326469898224L44.66041666666667,14.995765238069005L44.832187499999996,15.118642774410546L44.91807291666667,15.180081542581327L45.08984375,15.302959078922868L45.17572916666667,15.364397847093649L45.3475,15.48727538343519L45.60515625,15.671591687947512L45.69104166666667,15.733030456118293L45.8628125,15.855907992459834L46.54989583333334,16.34741813782604L46.59283854166667,16.37813752191142L46.72166666666667,16.47029567416758L46.807552083333334,16.53173444233836L46.97932291666666,16.654629149939865L47.06520833333334,16.716067918110646L47.795234375,17.238297447562232L47.838177083333335,17.269016831647612L48.18171875,17.514771904330715L48.22466145833334,17.545491288416095L48.439375,17.699088208843037L48.48231770833333,17.729807592928417L48.65408854166667,17.852685129269958L48.825859375,17.97556266561152L49.083515625000004,18.15987897012384L49.12645833333334,18.19059835420922L49.341171875,18.344203860266134L49.427057291666664,18.405642628436915L49.72765625,18.620678317034617L49.813541666666666,18.682117085205398L50.114140625000005,18.897161359433092L50.457682291666664,19.142916432116195L50.500625,19.173635816201575L50.844166666666666,19.419390888884678L51.18770833333333,19.66515454719775L51.27359375,19.726593315368532L51.96067708333333,20.218103460734717L52.433046874999995,20.55602527130395L52.518932291666665,20.617464039474733L52.604817708333336,20.678902807645514L52.64776041666667,20.709622191730894L52.733645833333334,20.771060959901675L52.77658854166667,20.801780343987055L52.86247395833333,20.863219112157836L52.90541666666667,20.893938496243216L52.948359374999995,20.924657880328596L53.16307291666667,21.078254800755538L53.42072916666667,21.26257110526786L54.279583333333335,21.876967372605577L54.623125,22.12272244528868L54.751953125,22.214889183174833L54.794895833333335,22.245608567260213L54.88078125,22.307047335430994L54.96666666666667,22.368486103601754L55.05255208333333,22.429924871772535L55.310208333333335,22.614241176284857L55.99729166666666,23.105759907281033L56.040234375,23.136479291366413L56.12611979166667,23.197918059537194L56.254947916666666,23.290076211793355L56.59848958333333,23.53583128447646L56.64143229166667,23.566550668561838L57.02791666666666,23.84302512533032L57.1996875,23.965911247301854L57.54322916666666,24.211666319984957L57.67205729166667,24.303824472241118L58.27325520833333,24.733904435066513L58.48796875,24.887501355493455L58.659739583333334,25.010378891834996L58.874453125,25.16397581226194L59.43270833333333,25.563336391001954L59.51859375,25.624775159172714L59.776250000000005,25.809091463685036L59.905078125,25.901249615941197L59.990963541666666,25.962688384111978L60.16273437500001,26.08556592045352L60.205677083333335,26.11628530453892L60.46333333333333,26.300601609051242L61.40807291666667,26.97643664455974L61.49395833333333,27.0378754127305L61.92338541666667,27.345077839214355L62.223984375,27.560113527812078L62.82518229166667,27.99018490500748L63.512265625,28.481703636003658L63.641093749999996,28.57386178825982L64.07052083333333,28.881055629113703L64.15640625,28.942494397284463L64.37111979166666,29.096099903341397L64.49994791666667,29.188258055597558L64.58583333333333,29.249696823768318L65.058203125,29.58761004870758L65.35880208333333,29.802645737305284L65.53057291666667,29.925531859276816L65.61645833333333,29.986970627447597L65.96000000000001,30.2327257001307L66.00294270833334,30.26344508421608L66.81885416666667,30.847121967468418L66.99062500000001,30.96999950380996L67.42005208333333,31.277193344663843L67.46299479166666,31.307912728749223L67.54888020833333,31.369351496920004L67.72065104166666,31.492229033261545L68.10713541666667,31.76871207566002L68.62244791666666,32.13734468468466L68.79421875,32.260222221026204L68.88010416666665,32.321660989196985L69.00893229166667,32.41382772708312L69.09481770833334,32.4752664952539L69.18070312500001,32.53670526342468L69.61013020833333,32.84389910427854L69.65307291666666,32.87461848836392L69.78190104166666,32.96677664062008L69.82484375,32.997496024705484L69.95367187500001,33.089654176961645L70.08250000000001,33.181812329217806L70.16838541666667,33.24325968301856L70.38309895833333,33.3968566034455L70.68369791666666,33.6118922920432L70.89841145833333,33.76548921247014L70.94135416666666,33.79620859655552L71.45666666666666,34.16484979121016L71.88609375,34.47204363206402L71.97197916666667,34.5334824002348L72.01492187500001,34.56420178432018L72.31552083333334,34.779237472917885L72.53023437499999,34.93284297897482L72.70200520833333,35.05572051531636L72.74494791666666,35.08643989940174L73.26026041666667,35.45507250842638L73.60380208333333,35.700827581109486L73.77557291666666,35.82371370308102L73.99028645833334,35.97731062350796L74.076171875,36.03874939167872L74.24794270833334,36.16162692802028L74.89208333333333,36.62242627493106L74.97796874999999,36.68386504310184L75.19268229166667,36.83746196352878L75.235625,36.86818134761416L75.32151041666667,36.92962011578494L75.45033854166667,37.0217782680411L75.622109375,37.144655804382644L75.87976562499999,37.328972108894966L76.05153645833335,37.45184964523651L76.26625,37.60545515129344L76.52390625,37.78977145580576L76.652734375,37.881929608061924L76.86744791666666,38.035526528488845L76.99627604166668,38.127684680745006L77.21098958333334,38.28128160117195L77.38276041666667,38.40416772314348L77.55453125,38.52704525948502L77.94101562499999,38.803519716253504L78.24161458333333,39.01855540485123L78.37044270833333,39.11071355710739L78.41338541666667,39.14143294119277L78.79986979166667,39.41791598359124L79.229296875,39.725109824445106L79.61578125,40.00158428121359L79.8734375,40.1859091713559L80.04520833333333,40.30878670769744L80.517578125,40.64669993263671L80.56052083333333,40.67741931672209L80.73229166666667,40.80029685306363L80.98994791666667,40.98462174320594L81.16171875,41.10749927954748L81.290546875,41.199657431803644L82.321171875,41.93693123548292L83.13708333333334,42.52059953310527L83.22296875,42.58204688690604L83.26591145833333,42.61276627099142L83.30885416666666,42.6434856550768L83.69533854166666,42.919960111845285L84.03888020833332,43.16571518452839L84.08182291666667,43.19643456861377L84.16770833333334,43.25787333678455L84.21065104166667,43.28859272086993L84.76890625,43.687953299609944L84.85479166666666,43.749392067780725L85.32716145833334,44.08730529271999L85.45598958333333,44.17946344497615L85.62776041666666,44.30234956694768L85.79953125,44.425227103289224L85.97130208333333,44.548104639630765L86.27190104166667,44.76314032822849L86.31484375000001,44.79385971231387L86.443671875,44.88601786457003L86.5725,44.97817601682619L87.08781250000001,45.346817211480825L87.34546875000001,45.53113351599315L87.47429687500001,45.62329166824931L87.51723958333334,45.65401105233469L87.94666666666666,45.96120489318855L88.07549479166667,46.053371631074704L88.54786458333334,46.39128485601397L88.67669270833333,46.48344300827013L88.80552083333333,46.57560116052629L89.02023437499999,46.72919808095321L89.1490625,46.82135623320937L89.535546875,47.097839275607846L90.00791666666666,47.43575250054711L90.22263020833334,47.58934942097403L90.308515625,47.65078818914481L91.339140625,48.38806199282409L91.68268229166667,48.633825651137165L91.76856770833334,48.69526441930795L91.89739583333333,48.78742257156411L92.15505208333335,48.97173887607643L92.19799479166667,49.00245826016181L92.49859375,49.21749394875951L92.84213541666666,49.463257607072606L93.01390624999999,49.58613514341415L93.18567708333335,49.70901267975569L93.35744791666667,49.83189021609725L93.48627604166667,49.92404836835341L93.57216145833334,49.98548713652417L93.82981770833334,50.16980344103649L94.21630208333333,50.44628648343497L94.55984375,50.69204155611807L94.64572916666667,50.75348032428883L94.77455729166667,50.84563847654499L94.86044270833332,50.90707724471577L94.90338541666667,50.93779662880115L94.946328125,50.96851601288655L95.24692708333333,51.18356028711425L95.41869791666667,51.30643782345579L95.461640625,51.33715720754117L95.76223958333333,51.55219289613889L96.10578124999999,51.79794796882197L96.14872395833333,51.828667352907374L96.32049479166668,51.95155347487891L96.40638020833333,52.012992243049666L96.79286458333333,52.28946669981815L97.265234375,52.62737992475741L97.69466145833333,52.93458235124127L97.780546875,52.99602111941205L98.08114583333332,53.21105680800975L98.12408854166667,53.24177619209513L98.295859375,53.36465372843669L98.4246875,53.456811880692854L98.76822916666667,53.70257553900593L99.584140625,54.28624383662827L99.75591145833333,54.409121372969835L100.05651041666665,54.62416564719753L100.31416666666667,54.80848195170985L100.40005208333334,54.86992071988061L100.78653645833333,55.146395176649094L100.95830729166666,55.269272712990656L101.34479166666667,55.54575575538911L101.55950520833333,55.69935267581605L101.60244791666666,55.73007205990143L101.645390625,55.76079144398683L102.33247395833334,56.25231017498301L102.5471875,56.40590709540993L102.84778645833333,56.62094278400765L103.01955729166666,56.743820320349194L103.14838541666666,56.835978472605355L103.40604166666667,57.02029477711768L103.44898437500001,57.05101416120306L103.62075520833334,57.17390028317459L103.83546875,57.32749720360153L104.093125,57.51181350811385L104.13606770833333,57.54253289219923L104.56549479166667,57.84972673305312L104.60843750000001,57.8804461171385L104.78020833333333,58.00333223911003L104.82315104166666,58.03405162319541L104.99492187499999,58.15692915953697L105.08080729166666,58.21836792770773L105.33846354166667,58.402684232220054L105.46729166666667,58.494842384476215L105.6390625,58.61771992081778L105.68200520833334,58.64843930490316L105.76789062499999,58.70987807307394L105.81083333333333,58.74059745715932L105.89671874999999,58.80204481096007L106.36908854166667,59.13995803589933L106.45497395833334,59.201396804070114L106.798515625,59.447151876753196L106.84145833333334,59.4778712608386L106.97028645833333,59.57002941309476L108.47328125,60.64522502734327L108.90270833333334,60.952418868197135L109.375078125,61.2903320931364L109.67567708333334,61.50537636736409L109.71861979166667,61.53609575144947L110.23393229166668,61.90472836047412L110.36276041666667,61.99688651273028L110.74924479166667,62.27336955512875L111.17867187499999,62.580563395982615L111.52221354166667,62.82631846866572L111.65104166666667,62.91847662092188L111.77986979166667,63.01063477317804L112.03752604166667,63.19495966332033L112.25223958333333,63.348556583747275L112.29518229166668,63.379275967832655L112.466953125,63.50215350417422L112.50989583333333,63.5328728882596L112.81049479166667,63.7479085768573L113.19697916666667,64.02439161925577L113.32580729166668,64.11654977151193L114.18466145833332,64.73094603884965L114.61408854166667,65.03813987970354L115.38705729166668,65.59109737887047L115.68765625,65.8061330674682L115.98825520833333,66.02116875606589L116.33179687500001,66.266923828749L116.41768229166667,66.32836259691976L116.589453125,66.45124871889129L116.847109375,66.63556502340361L117.01888020833333,66.75844255974518L117.49125000000001,67.09635578468442L117.620078125,67.18851393694058L117.83479166666666,67.34211944299751L118.39304687500001,67.74147143610753L119.42367187500001,68.47874523978682L120.23958333333333,69.06242212303916L120.45429687500001,69.21601904346608L120.49723958333334,69.24673842755148L120.92666666666666,69.55393226840533L121.05549479166666,69.6460904206615L121.27020833333333,69.79968734108844L121.61375,70.04545099940151L121.742578125,70.13760915165767L122.04317708333333,70.35264484025538L122.47260416666667,70.65983868110925L122.773203125,70.87488295533694L123.37440104166667,71.30495433253236L124.06148437499999,71.79647306352854L124.23325520833333,71.91935059987009L124.27619791666666,71.95006998395547L124.40502604166667,72.04222813621163L124.44796875,72.07294752029702L125.73625,72.99453762848862L125.865078125,73.08669578074478L126.03684895833334,73.20957331708632L126.07979166666667,73.2403012868017L126.29450520833332,73.39389820722863L126.33744791666668,73.42461759131402L126.85276041666667,73.79325020033866L127.19630208333332,74.03900527302176L127.28218749999999,74.10045262682252L127.32513020833333,74.1311720109079L128.183984375,74.74555969261564L128.52752604166668,74.99132335092872L128.74223958333332,75.14492027135566L128.828125,75.20635903952643L128.95695312499998,75.2985171917826L129.04283854166667,75.35995595995337L129.08578125,75.39067534403875L129.55815104166666,75.72858856897801L129.60109375,75.7593079530634L129.64403645833332,75.79002733714879L129.72992187499997,75.85147469094954L129.81580729166666,75.91291345912032L130.03052083333336,76.06651037954725L130.11640625,76.12794914771803L130.45994791666666,76.37370422040112L131.61940104166666,77.20313617633656L131.66234375,77.23385556042194L132.13471354166668,77.57177737099119L132.17765625,77.60249675507657L132.47825520833334,77.81753244367428L132.60708333333335,77.90969059593044L132.65002604166668,77.94040998001583L132.77885416666666,78.03256813227199L133.079453125,78.2476038208697L133.38005208333334,78.46264809509739L133.9383072916667,78.86200008820742L134.28184895833334,79.10775516089052L134.32479166666667,79.1384745449759L134.625390625,79.3535188192036L134.75421875,79.44567697145976L134.79716145833333,79.47639635554515L134.84010416666666,79.50711573963054L134.96893229166668,79.5992738918867L135.78484375,80.18295077513903L136.12838541666667,80.42870584782213L136.171328125,80.45942523190752L136.30015625000001,80.55158338416368L136.60075520833334,80.76661907276139L136.72958333333332,80.85877722501755L136.81546875,80.9202245788183L136.944296875,81.01238273107447L137.11606770833333,81.13526026741602L137.5025520833333,81.4117347241845L137.7602083333333,81.59605102869682L137.93197916666668,81.71892856503837L137.974921875,81.74964794912376L138.14669270833335,81.87253407109529L138.232578125,81.93397283926606L138.66200520833334,82.24116668011993L138.70494791666667,82.27188606420532L138.87671875,82.39476360054687L139.09143229166668,82.5483605209738L139.134375,82.57907990505919L139.17731770833333,82.60980787477456L139.30614583333332,82.70196602703072L139.69263020833333,82.9784404837992L139.73557291666665,83.00915986788459L139.77851562499998,83.03987925196998L139.99322916666668,83.19347617239691L140.20794270833335,83.34707309282385L140.33677083333333,83.43923124508001L140.46559895833335,83.53139798296615L140.551484375,83.59283675113693L140.63736979166666,83.6542755193077L140.76619791666667,83.74643367156386L141.066796875,83.96146936016157L141.582109375,84.3301105548162L141.66799479166664,84.39154932298698L142.22625000000002,84.790901316097L142.26919270833335,84.8216207001824L142.74156250000001,85.15954251075163L143.17098958333332,85.4667363516055L143.34276041666666,85.58961388794705L143.60041666666666,85.77393019245937L143.90101562499999,85.98896588105708L143.94395833333334,86.01969385077246L144.158671875,86.17329077119939L144.33044270833335,86.29616830754094L144.37338541666668,86.32688769162633L144.54515625000002,86.44976522796787L145.189296875,86.91056457487866L145.23223958333332,86.94128395896405L145.61872395833333,87.21775841573253L145.704609375,87.2791971839033L145.79049479166665,87.34063595207408L146.13403645833336,87.58639102475718L146.477578125,87.83215468307026L146.60640625,87.92431283532642L146.64934895833335,87.9550322194118L146.77817708333333,88.04719037166797L146.8640625,88.10862913983874L146.90700520833335,88.13934852392413L147.03583333333333,88.23150667618029L147.29348958333333,88.41582298069261L147.46526041666667,88.53870051703417L147.508203125,88.56942848674954L148.10940104166667,88.99949986394495L148.23822916666668,89.09165801620111L148.36705729166667,89.18381616845727L148.66765625,89.39885185705499L148.796484375,89.49101859494112L148.88236979166666,89.55245736311188L149.14002604166666,89.7367736676242L149.35473958333333,89.89037058805117L149.61239583333332,90.07468689256349L149.69828124999998,90.13612566073425L149.99888020833336,90.35116564214694L150.12770833333335,90.4433237944031L150.25653645833336,90.53548623947427L150.38536458333334,90.62764439173043L150.72890625,90.87339946441351L151.115390625,91.149878213997L151.33010416666667,91.30347513442392L151.5448177083333,91.45707634766585L151.75953124999998,91.61067326809281L152.31778645833333,92.01002955401782L152.40367187500001,92.07146832218858L153.13369791666668,92.59370214445515L153.26252604166666,92.68586458952632L153.47723958333333,92.83946150995324L153.8637239583333,93.11594025953673L153.90666666666667,93.14665964362213L154.1643229166667,93.33097594813445L154.4219791666667,93.51529654546174L154.722578125,93.73033223405946L154.76552083333334,93.76105161814486L154.80846354166667,93.79177100223022L154.89434895833332,93.85320977040102L155.06611979166667,93.97609159955755L155.237890625,94.09896913589911L155.40966145833332,94.22184667224063L155.45260416666667,94.25256605632603L155.495546875,94.28328544041143L155.71026041666664,94.43688665365336L155.79614583333333,94.49832542182412L156.22557291666666,94.80552355549297L156.52617187500002,95.02055924409069L156.95559895833333,95.32775737775954L157.72856770833332,95.88071058411151L157.94328124999998,96.03431179735344L158.32976562500002,96.31078625412192L158.45859375,96.40294440637808L158.54447916666666,96.46438746736385L158.84507812500001,96.67942315596157L159.01684895833333,96.80230069230309L159.05979166666665,96.8330200763885L159.40333333333334,97.07877944188658L159.57510416666665,97.20165697822814L159.618046875,97.2323763623135L159.746875,97.32453880738467L159.83276041666664,97.38597757555543L160.13335937500003,97.60101326415315L160.47690104166668,97.84677262965124L160.64867187500002,97.9696501659928L160.73455729166668,98.03108893416356L160.99221354166667,98.21540953149089L161.67929687499998,98.70692396967206L161.808125,98.79908212192822L162.06578125000001,98.98339842644054L162.3234375,99.16771902376787L162.92463541666666,99.59779469377828L163.09640625,99.7206722301198L163.43994791666665,99.96643159561789L163.78348958333333,100.21218666830102L164.34174479166668,100.61154295422602L164.9,101.01089924015103L165.11471354166667,101.16450045339296L165.58708333333334,101.50241367833225L165.97356770833332,101.7788924279157L166.18828125000002,101.93248934834266L166.27416666666667,101.99393240932842L166.36005208333336,102.05537117749918L166.48888020833334,102.14752932975534L166.574765625,102.2089680979261L166.78947916666667,102.36256501835307L166.832421875,102.39328440243843L167.17596354166668,102.63904376793651L167.21890625,102.66976315202191L167.347734375,102.76192130427808L167.6483333333333,102.97696128569076L167.77716145833332,103.06911943794692L167.82010416666665,103.09983882203232L167.86304687499998,103.13055820611773L168.24953125000002,103.40703695570117L168.42130208333333,103.52991449204274L168.59307291666667,103.6527920283843L168.93661458333332,103.89855139388239L169.151328125,104.0521483143093L169.79546875,104.51294336840512L169.83841145833333,104.54366704530548L170.01018229166667,104.66654458164705L170.09606770833335,104.7279833498178L170.39666666666668,104.94301903841553L170.56843750000002,105.06590086757205L170.954921875,105.34237532434054L170.99786458333332,105.37309470842594L171.04080729166668,105.4038183853263L171.08375,105.4345377694117L171.12669270833334,105.46525715349708L171.38434895833333,105.6495734580094L171.470234375,105.71101222618019L171.5990625,105.80317037843635L171.727890625,105.89533282350749L171.77083333333331,105.92605220759287L171.89966145833333,106.01821035984904L172.37203125000002,106.35612787760329L172.62968750000002,106.5404441821156L172.88734375,106.72476477944294L173.273828125,107.00123923621142L173.31677083333332,107.03195862029679L173.531484375,107.18555983353872L173.6603125,107.27771798579488L173.91796875,107.4620342903072L174.0897395833333,107.58491611946376L174.26151041666668,107.70779365580529L174.60505208333333,107.95355302130338L174.73388020833335,108.04571117355954L174.99153645833334,108.23002747807186L175.03447916666667,108.26074686215725L175.37802083333332,108.50650622765534L175.50684895833334,108.5986643799115L175.54979166666666,108.6293837639969L176.06510416666666,108.99802066583652L176.623359375,109.39737695176156L176.66630208333333,109.42809633584693L176.70924479166666,109.45881571993232L176.75218750000002,109.48953510401772L177.35338541666667,109.91961077402813L178.38401041666668,110.65688457770739L178.51283854166667,110.74904272996355L178.59872395833335,110.81048149813432L178.684609375,110.87192026630511L178.8134375,110.96408271137625L178.89932291666668,111.02552147954704L178.98520833333333,111.0869602477178L179.11403645833335,111.17911839997396L179.15697916666667,111.20983778405936L179.92994791666666,111.7627909904113L180.359375,112.06998912408018L180.65997395833335,112.28502910549287L180.83174479166667,112.40790664183443L180.8746875,112.4386260259198L181.08940104166666,112.59222294634675L181.13234375,112.62294662324712L181.261171875,112.71510477550328L181.73354166666667,113.05302229325753L181.776484375,113.08374167734293L182.29179687500002,113.45237428636757L182.33473958333335,113.48309796326794L182.420625,113.54453673143871L182.46356770833336,113.5752561155241L182.59239583333334,113.66741426778026L182.63533854166667,113.69813365186566L182.67828125,113.72885303595103L182.97888020833332,113.94389301736375L183.064765625,114.00533178553451L183.15065104166666,114.06677055370528L183.79479166666667,114.52756560780108L183.837734375,114.55828499188648L183.88067708333332,114.58900437597185L183.92361979166665,114.61972376005724L184.095390625,114.7426012963988L184.22421875,114.83476374146994L184.868359375,115.29555879556574L184.95424479166667,115.35699756373651L185.21190104166666,115.54131386824884L185.29778645833332,115.6027569292346L185.46955729166666,115.72563446557615L185.641328125,115.84851200191771L185.68427083333333,115.87923138600308L186.32841145833333,116.34002644009888L186.71489583333334,116.61650518968237L186.80078125,116.67794395785313L186.88666666666668,116.7393827260239L187.01549479166667,116.83154087828007L187.10138020833332,116.89298393926583L187.23020833333334,116.985142091522L187.61669270833332,117.26161654829048L187.74552083333333,117.35377899336163L187.87434895833331,117.44593714561779L188.81908854166667,118.1217678883113L189.03380208333334,118.27536910155322L189.29145833333334,118.45968540606555L189.42028645833332,118.5518435583217L189.59205729166666,118.67472538747826L189.84971354166666,118.85904169199058L189.97854166666664,118.95119984424674L190.06442708333333,119.01264290523251L190.27914062500003,119.16623982565943L190.36502604166668,119.2276785938302L190.49385416666667,119.31983674608637L191.22388020833333,119.84207056835294L191.39565104166667,119.96495239750949L191.73919270833332,120.21070747019257L191.78213541666665,120.24142685427798L192.16861979166666,120.51790560386144L192.42627604166668,120.70222190837376L192.46921875,120.73294558527415L192.51216145833334,120.76366496935952L192.64098958333335,120.85582312161569L192.89864583333335,121.04013942612801L193.11335937500002,121.19374063936993L193.2421875,121.2858987916261L193.58572916666665,121.5316538643092L193.7575,121.65453569346573L193.84338541666665,121.7159744616365L194.22986979166666,121.99245321121998L194.44458333333336,122.14605013164692L194.70223958333335,122.33036643615924L194.74518229166668,122.36108582024463L194.95989583333335,122.51468703348655L195.26049479166667,122.72972272208428L196.03346354166666,123.28268022125121L196.07640625,123.31339960533661L196.37700520833334,123.52843529393431L196.720546875,123.7741946594324L196.76348958333335,123.80491404351778L196.849375,123.86635281168856L197.02114583333335,123.9892303480301L197.19291666666666,124.11210788437167L197.40763020833333,124.2657090976136L197.92294270833332,124.63434599945322L198.18059895833332,124.81866230396554L198.43825520833335,125.00298290129285L198.56708333333336,125.09514105354901L198.82473958333333,125.27945735806134L199.34005208333332,125.64809425990099L199.51182291666666,125.77097179624252L199.81242187499998,125.98601177765524L199.94125,126.0781699299114L200.4136197916667,126.41608744766565L200.843046875,126.72328343492701L200.88598958333333,126.75400281901238L201.01481770833334,126.84616311767606L201.4871875,127.1840784890228L202.13132812499998,127.64487568952609L202.1742708333333,127.67559507361148L202.51781250000002,127.92135229270208L202.7325260416667,128.0749513595365L202.99018229166668,128.25926766404882L203.07606770833334,128.3207085786271L203.11901041666667,128.35142796271248L203.37666666666667,128.5357464136323L203.80609375,128.84294240089366L203.934921875,128.93510269955732L204.02080729166664,128.9965414677281L204.06375,129.02726085181348L204.10669270833333,129.05798023589887L204.27846354166664,129.1808599186479L204.707890625,129.48805590590928L204.75083333333333,129.51877528999466L204.83671875000002,129.58021620457293L205.26614583333333,129.8874121918343L205.30908854166665,129.9181315759197L206.03911458333332,130.44036754459376L206.33971354166667,130.65540537959896L206.511484375,130.7782829159405L206.89796875000002,131.05476166552398L207.11268229166666,131.20835858595092L207.32739583333333,131.36195765278535L207.58505208333332,131.54627610370517L207.97153645833333,131.82275270688115L208.14330729166664,131.9456323896302L208.31507812499999,132.06850992597174L208.70156250000002,132.34498867555521L208.91627604166666,132.49858559598215L209.17393229166666,132.68290404690197L209.38864583333333,132.8365031137364L209.51747395833334,132.92866126599256L209.56041666666667,132.95938279648544L209.861015625,133.17442063149065L210.20455729166665,133.42017785058124L210.54809895833336,133.66593506967183L210.71986979166667,133.78881260601338L210.84869791666668,133.88097290467704L210.97752604166666,133.9731310569332L211.02046875,134.00385044101859L211.36401041666667,134.24960980651667L211.44989583333333,134.31104857468745L211.922265625,134.6489639460342L212.26580729166665,134.8947233115323L212.52346354166667,135.0790396160446L212.73817708333334,135.23263868287904L212.90994791666668,135.3555183656281L213.25348958333333,135.60127558471868L214.241171875,136.30782785790507L214.49882812500002,136.49214630882489L214.67059895833336,136.61502599157393L215.31473958333333,137.07582104566973L215.57239583333333,137.26013949658955L215.70122395833332,137.3522976488457L215.787109375,137.41373641701648L216.08770833333332,137.62877425202169L216.2165364583333,137.72093455068534L216.38830729166665,137.8438120870269L216.56007812500002,137.96669176977593L216.60302083333335,137.99741115386132L216.64596354166667,138.0281305379467L216.73184895833333,138.08957145252498L216.98950520833333,138.2738877570373L217.29010416666668,138.48892773845L217.37598958333334,138.55036650662078L217.461875,138.61180527479155L217.63364583333333,138.7346849575406L217.76247395833332,138.82684310979676L217.80541666666667,138.85756249388214L217.89130208333333,138.9190034084604L218.23484374999998,139.164760627551L218.5783854166667,139.4105178466416L218.66427083333335,139.47195661481237L219.26546875,139.90203228482278L219.394296875,139.99419258348644L219.523125,140.0863507357426L219.95255208333333,140.39354672300396L220.12432291666664,140.516426405753L220.25315104166665,140.60858455800917L220.89729166666666,141.06938175851246L221.11200520833333,141.2229786789394L221.15494791666666,141.25369806302479L221.32671875,141.37657774577383L221.49848958333334,141.49945742852287L221.54143229166667,141.53017681260826L221.584375,141.56089619669365L221.67026041666665,141.62233496486442L221.88497395833332,141.77593403169885L221.92791666666665,141.80665341578424L221.970859375,141.83737279986963L222.35734374999998,142.1138515494531L222.70088541666667,142.3596087685437L222.87265625,142.48248630488524L222.95854166666666,142.5439272194635L223.21619791666666,142.72824352397583L223.55973958333334,142.97400288947392L223.60268229166667,143.0047222735593L223.86033854166666,143.18904072447913L223.98916666666665,143.2811988767353L224.33270833333333,143.52695609582588L224.59036458333335,143.7112745467457L224.71919270833334,143.80343269900186L224.76213541666667,143.83415422949474L224.89096354166668,143.9263123817509L225.01979166666666,144.01847053400706L225.14861979166668,144.11063083267072L225.66393229166667,144.4792666613066L225.83570312499998,144.6021452708519L226.13630208333333,144.8171831058571L226.39395833333333,145.00150155677693L226.52278645833334,145.09366078223684L226.56572916666667,145.12438016632223L226.608671875,145.15510062361136L226.7375,145.24725984907127L226.78044270833334,145.27797923315666L227.08104166666666,145.49301706816186L227.16692708333335,145.55445583633264L227.2528125,145.61589567770716L227.51046875,145.80021412862698L227.768125,145.98453150634305L227.89695312499998,146.07669073180296L228.02578125,146.16884995726286L228.11166666666665,146.2302897986374L228.19755208333333,146.29172856680816L228.88463541666667,146.7832440781931L228.97052083333335,146.84468391956761L229.05640625,146.9061226877384L229.09934895833334,146.93684207182378L229.14229166666667,146.9675625291129L229.442890625,147.18260036411812L229.48583333333335,147.2133197482035L230.25880208333334,147.7662740277592L230.38763020833332,147.85843325321912L230.86,148.19634969776962L231.11765625,148.38066814868944L231.67591145833333,148.78002443461446L232.23416666666665,149.17937964733574L232.3200520833333,149.24081948871026L232.49182291666665,149.36369809825555L232.96419270833334,149.70161454280606L233.050078125,149.76305438418058L233.13596354166668,149.8244942255551L233.307734375,149.9473728351004L233.39361979166668,150.00881160327117L233.60833333333332,150.1624106701056L233.78010416666666,150.2852892796509L233.99481770833333,150.43888727328158L235.24015625,151.32975907059154L235.32604166666667,151.3911978387623L235.75546875,151.69839489922742L235.79841145833333,151.7291142833128L236.78609375000002,152.43566762970295L237.08669270833335,152.65070546470815L237.172578125,152.71214530608268L237.25846354166666,152.77358407425345L238.203203125,153.44941749995633L238.67557291666668,153.78733394450683L238.718515625,153.8180538651941L238.80440104166667,153.87949316996674L238.89028645833335,153.94093247473938L239.01911458333333,154.0330917001993L239.44854166666667,154.3402887606644L239.57736979166665,154.43244798612432L239.6203125,154.4631673702097L239.87796875,154.64748582112952L239.96385416666666,154.70892512590217L240.04973958333332,154.77036443067482L240.264453125,154.92396296090737L240.35033854166664,154.98540226568002L240.52210937499999,155.10828087522532L240.60799479166667,155.16972017999797L241.42390625000002,155.75339438024093L241.59567708333333,155.8762735263881L241.85333333333332,156.06059144070605L242.02510416666667,156.18347058685322L242.19687499999998,156.30634919639851L242.49747395833333,156.52138703140372L242.66924479166667,156.64426564094902L242.7121875,156.67498556163628L242.79807291666668,156.73642486640892L242.841015625,156.7671442504943L243.356328125,157.13578061573207L243.74281249999999,157.4122582921118L244.21518229166665,157.7501747366623L244.64460937500002,158.05737152882648L244.68755208333334,158.08809144951374L244.7734375,158.1495307542864L244.98815104166667,158.30312928451895L245.07403645833335,158.3645685892916L245.28875,158.51816711952415L245.54640625,158.70248530214303L245.84700520833334,158.91752313714824L246.01877604166665,159.04040174669353L246.40526041666666,159.31687915477232L247.04940104166667,159.77767447716906L247.09234375,159.80839412955538L247.26411458333334,159.93127300740161L247.43588541666668,160.05415175109738L247.56471354166666,160.14631084240682L248.08002604166666,160.51494720764458L248.46651041666667,160.79142434742243L248.68122395833333,160.945022877655L248.76710937500002,161.00646218242764L248.85299479166667,161.06790162135076L248.93888020833333,161.12934099319864L249.23947916666668,161.34437889527908L249.84067708333333,161.7744545988271L249.88361979166666,161.80517428475105L250.01244791666667,161.8973333760605L250.09833333333333,161.95877274790837L250.27010416666667,162.08165152514175L250.313046875,162.1123712278345L250.4848177083333,162.23524999982763" style="fill: none;" fill="none"></path></g></g></g></g></g></g><g transform="translate(72, 177)" clip-path="url(#clip_1)"><clipPath id="clip_1"><rect width="257" height="22"></rect></clipPath><g><g><line x1="0" y1="0" x2="0" y2="5" style="visibility: inherit;" fill="rgb(0, 0, 0)" stroke="rgb(204, 204, 204)" stroke-width="1px"></line><line x1="21.471354166666664" y1="0" x2="21.471354166666664" y2="5" style="visibility: inherit;" fill="rgb(0, 0, 0)" stroke="rgb(204, 204, 204)" stroke-width="1px"></line><line x1="42.94270833333333" y1="0" x2="42.94270833333333" y2="5" style="visibility: inherit;" fill="rgb(0, 0, 0)" stroke="rgb(204, 204, 204)" stroke-width="1px"></line><line x1="64.4140625" y1="0" x2="64.4140625" y2="5" style="visibility: inherit;" fill="rgb(0, 0, 0)" stroke="rgb(204, 204, 204)" stroke-width="1px"></line><line x1="85.88541666666666" y1="0" x2="85.88541666666666" y2="5" style="visibility: inherit;" fill="rgb(0, 0, 0)" stroke="rgb(204, 204, 204)" stroke-width="1px"></line><line x1="107.35677083333334" y1="0" x2="107.35677083333334" y2="5" style="visibility: inherit;" fill="rgb(0, 0, 0)" stroke="rgb(204, 204, 204)" stroke-width="1px"></line><line x1="128.828125" y1="0" x2="128.828125" y2="5" style="visibility: inherit;" fill="rgb(0, 0, 0)" stroke="rgb(204, 204, 204)" stroke-width="1px"></line><line x1="150.29947916666669" y1="0" x2="150.29947916666669" y2="5" style="visibility: inherit;" fill="rgb(0, 0, 0)" stroke="rgb(204, 204, 204)" stroke-width="1px"></line><line x1="171.77083333333331" y1="0" x2="171.77083333333331" y2="5" style="visibility: inherit;" fill="rgb(0, 0, 0)" stroke="rgb(204, 204, 204)" stroke-width="1px"></line><line x1="193.2421875" y1="0" x2="193.2421875" y2="5" style="visibility: inherit;" fill="rgb(0, 0, 0)" stroke="rgb(204, 204, 204)" stroke-width="1px"></line><line x1="214.71354166666669" y1="0" x2="214.71354166666669" y2="5" style="visibility: inherit;" fill="rgb(0, 0, 0)" stroke="rgb(204, 204, 204)" stroke-width="1px"></line><line x1="236.18489583333331" y1="0" x2="236.18489583333331" y2="5" style="visibility: inherit;" fill="rgb(0, 0, 0)" stroke="rgb(204, 204, 204)" stroke-width="1px"></line><line x1="257.65625" y1="0" x2="257.65625" y2="5" style="visibility: inherit;" fill="rgb(0, 0, 0)" stroke="rgb(204, 204, 204)" stroke-width="1px"></line></g><g transform="translate(0, 8)"><text x="0" y="0" dx="0em" dy="0.95em" style="text-anchor: middle; visibility: hidden; font-family: Roboto, sans-serif; font-size: 12px; font-weight: 200;" fill="rgb(33, 33, 33)" stroke="none" stroke-width="1px">-500</text><text x="21.471354166666664" y="0" dx="0em" dy="0.95em" style="text-anchor: middle; visibility: inherit; font-family: Roboto, sans-serif; font-size: 12px; font-weight: 200;" fill="rgb(33, 33, 33)" stroke="none" stroke-width="1px">0</text><text x="42.94270833333333" y="0" dx="0em" dy="0.95em" style="text-anchor: middle; visibility: hidden; font-family: Roboto, sans-serif; font-size: 12px; font-weight: 200;" fill="rgb(33, 33, 33)" stroke="none" stroke-width="1px">500</text><text x="64.4140625" y="0" dx="0em" dy="0.95em" style="text-anchor: middle; visibility: inherit; font-family: Roboto, sans-serif; font-size: 12px; font-weight: 200;" fill="rgb(33, 33, 33)" stroke="none" stroke-width="1px">1k</text><text x="85.88541666666666" y="0" dx="0em" dy="0.95em" style="text-anchor: middle; visibility: hidden; font-family: Roboto, sans-serif; font-size: 12px; font-weight: 200;" fill="rgb(33, 33, 33)" stroke="none" stroke-width="1px">1.5k</text><text x="107.35677083333334" y="0" dx="0em" dy="0.95em" style="text-anchor: middle; visibility: inherit; font-family: Roboto, sans-serif; font-size: 12px; font-weight: 200;" fill="rgb(33, 33, 33)" stroke="none" stroke-width="1px">2k</text><text x="128.828125" y="0" dx="0em" dy="0.95em" style="text-anchor: middle; visibility: hidden; font-family: Roboto, sans-serif; font-size: 12px; font-weight: 200;" fill="rgb(33, 33, 33)" stroke="none" stroke-width="1px">2.5k</text><text x="150.29947916666669" y="0" dx="0em" dy="0.95em" style="text-anchor: middle; visibility: inherit; font-family: Roboto, sans-serif; font-size: 12px; font-weight: 200;" fill="rgb(33, 33, 33)" stroke="none" stroke-width="1px">3k</text><text x="171.77083333333331" y="0" dx="0em" dy="0.95em" style="text-anchor: middle; visibility: hidden; font-family: Roboto, sans-serif; font-size: 12px; font-weight: 200;" fill="rgb(33, 33, 33)" stroke="none" stroke-width="1px">3.5k</text><text x="193.2421875" y="0" dx="0em" dy="0.95em" style="text-anchor: middle; visibility: inherit; font-family: Roboto, sans-serif; font-size: 12px; font-weight: 200;" fill="rgb(33, 33, 33)" stroke="none" stroke-width="1px">4k</text><text x="214.71354166666669" y="0" dx="0em" dy="0.95em" style="text-anchor: middle; visibility: hidden; font-family: Roboto, sans-serif; font-size: 12px; font-weight: 200;" fill="rgb(33, 33, 33)" stroke="none" stroke-width="1px">4.5k</text><text x="236.18489583333331" y="0" dx="0em" dy="0.95em" style="text-anchor: middle; visibility: inherit; font-family: Roboto, sans-serif; font-size: 12px; font-weight: 200;" fill="rgb(33, 33, 33)" stroke="none" stroke-width="1px">5k</text><text x="257.65625" y="0" dx="0em" dy="0.95em" style="text-anchor: middle; visibility: hidden; font-family: Roboto, sans-serif; font-size: 12px; font-weight: 200;" fill="rgb(33, 33, 33)" stroke="none" stroke-width="1px">5.5k</text></g><line x1="0" y1="0" x2="257.65625" y2="0" fill="rgb(0, 0, 0)" stroke="rgb(204, 204, 204)" stroke-width="1px"></line></g></g></g></g></svg>