<svg viewBox="0 0 330 200" xmlns="http://www.w3.org/2000/svg"><g><g><g><g><g><line x1="50" y1="177" x2="45" y2="177" style="visibility: inherit;" fill="rgb(0, 0, 0)" stroke="rgb(204, 204, 204)" stroke-width="1px"></line><line x1="50" y1="157.33333333333331" x2="45" y2="157.33333333333331" style="visibility: inherit;" fill="rgb(0, 0, 0)" stroke="rgb(204, 204, 204)" stroke-width="1px"></line><line x1="50" y1="137.66666666666666" x2="45" y2="137.66666666666666" style="visibility: inherit;" fill="rgb(0, 0, 0)" stroke="rgb(204, 204, 204)" stroke-width="1px"></line><line x1="50" y1="118" x2="45" y2="118" style="visibility: inherit;" fill="rgb(0, 0, 0)" stroke="rgb(204, 204, 204)" stroke-width="1px"></line><line x1="50" y1="98.33333333333334" x2="45" y2="98.33333333333334" style="visibility: inherit;" fill="rgb(0, 0, 0)" stroke="rgb(204, 204, 204)" stroke-width="1px"></line><line x1="50" y1="78.66666666666666" x2="45" y2="78.66666666666666" style="visibility: inherit;" fill="rgb(0, 0, 0)" stroke="rgb(204, 204, 204)" stroke-width="1px"></line><line x1="50" y1="59.00000000000001" x2="45" y2="59.00000000000001" style="visibility: inherit;" fill="rgb(0, 0, 0)" stroke="rgb(204, 204, 204)" stroke-width="1px"></line><line x1="50" y1="39.33333333333335" x2="45" y2="39.33333333333335" style="visibility: inherit;" fill="rgb(0, 0, 0)" stroke="rgb(204, 204, 204)" stroke-width="1px"></line><line x1="50" y1="19.666666666666675" x2="45" y2="19.666666666666675" style="visibility: inherit;" fill="rgb(0, 0, 0)" stroke="rgb(204, 204, 204)" stroke-width="1px"></line><line x1="50" y1="0" x2="45" y2="0" style="visibility: inherit;" fill="rgb(0, 0, 0)" stroke="rgb(204, 204, 204)" stroke-width="1px"></line></g><g transform="translate(40, 0)"><text x="0" y="177" dx="0em" dy="0.3em" style="text-anchor: end; visibility: hidden; font-family: Roboto, sans-serif; font-size: 12px; font-weight: 200;" fill="rgb(33, 33, 33)" stroke="none" stroke-width="1px">-0.1</text><text x="0" y="157.33333333333331" dx="0em" dy="0.3em" style="text-anchor: end; visibility: inherit; font-family: Roboto, sans-serif; font-size: 12px; font-weight: 200;" fill="rgb(33, 33, 33)" stroke="none" stroke-width="1px">0</text><text x="0" y="137.66666666666666" dx="0em" dy="0.3em" style="text-anchor: end; visibility: hidden; font-family: Roboto, sans-serif; font-size: 12px; font-weight: 200;" fill="rgb(33, 33, 33)" stroke="none" stroke-width="1px">0.1</text><text x="0" y="118" dx="0em" dy="0.3em" style="text-anchor: end; visibility: inherit; font-family: Roboto, sans-serif; font-size: 12px; font-weight: 200;" fill="rgb(33, 33, 33)" stroke="none" stroke-width="1px">0.2</text><text x="0" y="98.33333333333334" dx="0em" dy="0.3em" style="text-anchor: end; visibility: hidden; font-family: Roboto, sans-serif; font-size: 12px; font-weight: 200;" fill="rgb(33, 33, 33)" stroke="none" stroke-width="1px">0.3</text><text x="0" y="78.66666666666666" dx="0em" dy="0.3em" style="text-anchor: end; visibility: inherit; font-family: Roboto, sans-serif; font-size: 12px; font-weight: 200;" fill="rgb(33, 33, 33)" stroke="none" stroke-width="1px">0.4</text><text x="0" y="59.00000000000001" dx="0em" dy="0.3em" style="text-anchor: end; visibility: hidden; font-family: Roboto, sans-serif; font-size: 12px; font-weight: 200;" fill="rgb(33, 33, 33)" stroke="none" stroke-width="1px">0.5</text><text x="0" y="39.33333333333335" dx="0em" dy="0.3em" style="text-anchor: end; visibility: inherit; font-family: Roboto, sans-serif; font-size: 12px; font-weight: 200;" fill="rgb(33, 33, 33)" stroke="none" stroke-width="1px">0.6</text><text x="0" y="19.666666666666675" dx="0em" dy="0.3em" style="text-anchor: end; visibility: hidden; font-family: Roboto, sans-serif; font-size: 12px; font-weight: 200;" fill="rgb(33, 33, 33)" stroke="none" stroke-width="1px">0.7</text><text x="0" y="0" dx="0em" dy="0.3em" style="text-anchor: end; visibility: hidden; font-family: Roboto, sans-serif; font-size: 12px; font-weight: 200;" fill="rgb(33, 33, 33)" stroke="none" stroke-width="1px">0.8</text></g><line x1="50" y1="0" x2="50" y2="177" fill="rgb(0, 0, 0)" stroke="rgb(204, 204, 204)" stroke-width="1px"></line></g></g><g transform="translate(50, 0)" clip-path="url(#clip_0)"><clipPath id="clip_0"><rect width="280" height="176"></rect></clipPath><g><g><g><line x1="0" y1="0" x2="0" y2="177" fill="rgb(0, 0, 0)" stroke="rgb(66, 66, 66)" stroke-width="1px" opacity="0.25"></line><line x1="28" y1="0" x2="28" y2="177" fill="rgb(0, 0, 0)" stroke="rgb(66, 66, 66)" stroke-width="1px" opacity="0.25"></line><line x1="56" y1="0" x2="56" y2="177" fill="rgb(0, 0, 0)" stroke="rgb(66, 66, 66)" stroke-width="1px" opacity="0.25"></line><line x1="84" y1="0" x2="84" y2="177" fill="rgb(0, 0, 0)" stroke="rgb(66, 66, 66)" stroke-width="1px" opacity="0.25"></line><line x1="112" y1="0" x2="112" y2="177" fill="rgb(0, 0, 0)" stroke="rgb(66, 66, 66)" stroke-width="1px" opacity="0.25"></line><line x1="140" y1="0" x2="140" y2="177" fill="rgb(0, 0, 0)" stroke="rgb(66, 66, 66)" stroke-width="1px" opacity="0.25"></line><line x1="168" y1="0" x2="168" y2="177" fill="rgb(0, 0, 0)" stroke="rgb(66, 66, 66)" stroke-width="1px" opacity="0.25"></line><line x1="196" y1="0" x2="196" y2="177" fill="rgb(0, 0, 0)" stroke="rgb(66, 66, 66)" stroke-width="1px" opacity="0.25"></line><line x1="224" y1="0" x2="224" y2="177" fill="rgb(0, 0, 0)" stroke="rgb(66, 66, 66)" stroke-width="1px" opacity="0.25"></line><line x1="252" y1="0" x2="252" y2="177" fill="rgb(0, 0, 0)" stroke="rgb(66, 66, 66)" stroke-width="1px" opacity="0.25"></line><line x1="280" y1="0" x2="280" y2="177" fill="rgb(0, 0, 0)" stroke="rgb(66, 66, 66)" stroke-width="1px" opacity="0.25"></line></g><g><line x1="0" y1="177" x2="280" y2="177" fill="rgb(0, 0, 0)" stroke="rgb(66, 66, 66)" stroke-width="1px" opacity="0.25"></line><line x1="0" y1="157.33333333333331" x2="280" y2="157.33333333333331" fill="rgb(0, 0, 0)" stroke="rgb(66, 66, 66)" stroke-width="1px" opacity="0.25"></line><line x1="0" y1="137.66666666666666" x2="280" y2="137.66666666666666" fill="rgb(0, 0, 0)" stroke="rgb(66, 66, 66)" stroke-width="1px" opacity="0.25"></line><line x1="0" y1="118" x2="280" y2="118" fill="rgb(0, 0, 0)" stroke="rgb(66, 66, 66)" stroke-width="1px" opacity="0.25"></line><line x1="0" y1="98.33333333333334" x2="280" y2="98.33333333333334" fill="rgb(0, 0, 0)" stroke="rgb(66, 66, 66)" stroke-width="1px" opacity="0.25"></line><line x1="0" y1="78.66666666666666" x2="280" y2="78.66666666666666" fill="rgb(0, 0, 0)" stroke="rgb(66, 66, 66)" stroke-width="1px" opacity="0.25"></line><line x1="0" y1="59.00000000000001" x2="280" y2="59.00000000000001" fill="rgb(0, 0, 0)" stroke="rgb(66, 66, 66)" stroke-width="1px" opacity="0.25"></line><line x1="0" y1="39.33333333333335" x2="280" y2="39.33333333333335" fill="rgb(0, 0, 0)" stroke="rgb(66, 66, 66)" stroke-width="1px" opacity="0.25"></line><line x1="0" y1="19.666666666666675" x2="280" y2="19.666666666666675" fill="rgb(0, 0, 0)" stroke="rgb(66, 66, 66)" stroke-width="1px" opacity="0.25"></line><line x1="0" y1="0" x2="280" y2="0" fill="rgb(0, 0, 0)" stroke="rgb(66, 66, 66)" stroke-width="1px" opacity="0.25"></line></g></g></g><g><g><line x1="0" y1="157.33333333333331" x2="280" y2="157.33333333333331" fill="rgb(0, 0, 0)" stroke="rgb(153, 153, 153)" stroke-width="1.5px"></line></g></g><g><g><line x1="28" y1="0" x2="28" y2="177" fill="rgb(0, 0, 0)" stroke="rgb(153, 153, 153)" stroke-width="1.5px"></line></g></g><g><g><g><g><g><path stroke="rgb(255, 112, 67)" stroke-width="2px" d="M28.252000000000002,20.815976699193335L28.657999999999998,20.87298345069094L28.868,21.001275517502638L28.882,21.0025390583803L28.994,20.826180463556422L29.246,20.870128749931474L29.441999999999997,21.015413240468103L29.498,21.041058497083267L29.791999999999998,20.942587445432903L30.24,20.660938911738057L30.296000000000003,20.95931609042935L30.408,20.975133451563252L30.674,20.739699609199494L30.842,20.565605210992455L31.206,20.431705424562033L31.415999999999997,20.513340457800116L31.625999999999998,20.724785823373637L31.947999999999997,20.995739316741812L31.990000000000002,20.434274340797213L32.424,20.730544884052616L32.466,20.814215460499152L32.844,20.90128123861931L33.012,20.8717965108355L33.124,20.98988759577683L33.404,21.001600640896843L33.628,21.010400853396927L33.81,20.9905765818361L34.104,20.852480245273863L34.118,20.766541890015585L34.244,20.69750805662413L34.454,20.811946780560802L34.51,20.803158769948276L34.65,20.95725226141299L34.733999999999995,21.022025092732758L35.14,21.151093825507758L35.462,20.71376900111086L35.532000000000004,34.326435071438105L35.56,43.44870850982582L35.784,58.90036086629554L35.867999999999995,66.34095155036104L36.316,73.70440749223921L36.344,80.8473032582159L36.918,89.57787757182011L37.001999999999995,95.20233421262522L37.016000000000005,97.05076228440991L37.211999999999996,103.42756122506408L37.338,98.31491748168857L37.45,100.00131187248911L38.094,109.68433360316696L38.696,118.876725213155L38.85,118.22027297998638L38.948,121.81574011755144L39.032,124.1868435596199L39.256,127.28326897947939L39.998000000000005,126.34939261553002L40.124,128.62827468481137L40.404,127.72628127276764L41.188,128.86854991161758L41.986,130.40242358551794L42.056,132.4816020757341L42.21,134.10335948250994L42.30800000000001,134.98178550312306L42.364,139.37871407295899L42.392,138.09623975649853L42.518,136.68175611950187L42.784,136.3945996566051L42.994,137.1131666443805L43.077999999999996,138.65848236533364L43.372,140.20825087578513L43.526,138.58763709993013L43.553999999999995,139.21583613553156L43.75,138.50758379776386L43.848,138.37415646759135L44.114,138.63246506798743L44.128,138.3824255010395L44.296,135.85312560444527L44.436,135.52250990020505L44.464,137.75668955692015L44.576,138.5446276337804L45.052,136.98665012941171L45.15,136.10009012237435L45.528,138.2165672001158L45.556000000000004,138.5192420711268L45.598,140.03973213216557L45.654,140.3713183703873L45.738,140.19286768850804L45.794,141.5340562555221L46.172,140.15670773345394L46.550000000000004,140.7964656727999L46.830000000000005,139.56985018119155L47.25,139.08075257618194L47.264,139.8843503722288L47.838,137.16841812901126L48.146,141.4587689606692L48.398,140.04945902635728L48.412,134.52784537043217L48.916,135.140751410123L49.028,137.7671164484399L49.14,140.32551295428937L49.182,141.0618215771683L49.672,139.18942012819656L49.714000000000006,138.58671487033175L49.91,137.86499425764762L49.952,139.45398792224657L50.022,138.11361589390555L50.19,139.57440506036193L50.343999999999994,137.44326653052437L50.778000000000006,136.4880588132286L50.89,137.1135755327231L51.379999999999995,139.0821733502678L51.589999999999996,141.69985060064784L51.827999999999996,140.45829052827034L51.856,140.50248383145296L51.897999999999996,141.91331627762773L51.954,143.1004191068597L52.85,142.14991584784514L52.878,143.0256339194381L53.046,144.42677403779845L53.858,143.1590502537808L54.04,140.43019740844892L54.138,140.26909989157394L54.586000000000006,141.39389246526804L54.628,143.69412962093023L54.711999999999996,144.12544864114562L54.726000000000006,144.98651326912506L55.104,145.25472305546919L55.160000000000004,146.48133303720186L55.230000000000004,145.59138646919587L55.440000000000005,148.11215692082482L55.454,147.16050151578247L55.705999999999996,145.88857418055332L56.98,144.66661607278385L57.105999999999995,142.95210100841322L57.245999999999995,142.99799612342397L57.4,144.73396743642735L57.61,144.68978238885072L57.666,145.300126669513L58.716,144.45791641337084L58.926,143.98661642548885L59.01,144.15965072479315L59.346,145.26871726810813L59.416,145.33993774791486L60.466,146.85132015331544L61.026,147.17268227289492L61.516000000000005,147.4749396130465L62.104,147.33102130303914L62.174,145.81608742521286L62.356,146.7718534730638L62.467999999999996,147.13495122866422L62.51,147.24790251340423L62.79,147.9559857770957L63.041999999999994,148.76658674429797L63.238,147.35090464264715L63.266000000000005,146.21783254093268L63.42,145.1972434930782L64.078,143.45056164936904L64.092,143.82369385963688L64.386,146.03131963495022L64.778,146.90909169922435L64.89,146.96794995949764L65.002,146.81863337429024L65.38000000000001,147.88488772911822L65.43599999999999,148.29231097839073L65.534,148.48710480158604L65.576,147.2606447269027L65.702,147.16446546392666L65.912,145.68816998805818L66.038,145.92505924029876L66.276,146.16310655945776L66.346,145.98021561925157L66.36,145.49071044340457L66.542,146.02063935964142L66.556,145.1069179652264L66.57,144.15943302183132L66.71,143.98148687761295L66.752,147.07663625328502L66.99,147.4484152248428L67.36800000000001,148.8300385624722L67.676,147.07676218850744L67.816,146.33121179284652L68.054,147.19741557682752L68.068,145.9052623946182L68.89399999999999,147.41758482587608L69.328,145.8641237890657L69.37,146.7157965536477L69.46799999999999,145.6832736572958L69.51,145.16743733135883L69.622,145.0495802043757L70.266,145.37681569331176L70.476,147.20646979812753L70.658,148.16999799055242L71.16199999999999,143.22754856174618L71.17599999999999,144.16137821808712L71.442,144.59996216496978L71.45599999999999,146.76799111963007L71.47,148.3555733327112L71.666,147.4337219157244L71.68,148.89833796372562L71.694,148.43104609459965L71.792,148.30566984679498L72.03,146.61016847649933L72.422,146.85620173986584L72.688,147.91297806010144L72.786,148.02659719410835L72.856,150.13192197316866L73.03800000000001,148.5709236858327L73.08,147.65945896891984L73.374,147.74500004284522L73.71,145.37306490242247L73.75200000000001,146.4559631071474L74.28399999999999,145.1169220480513L74.76,143.97187773226847L74.984,146.58897623323887L75.236,146.05029763323162L75.39,146.0379307570582L75.656,147.74618746554012L75.85199999999999,148.98499512800666L76.45400000000001,147.45428898014086L76.762,149.11786129520806L76.776,150.1625166547088L76.87400000000001,148.55905116469395L76.902,148.54142948610024L77,149.5690894313004L77.364,149.07055567924257L77.92399999999999,147.89478690757798L77.966,148.3039381196168L78.064,147.59478870173695L78.232,147.0124530442977L78.4,146.30141506086335L78.58200000000001,147.0359030891888L78.596,147.13569304125105L78.624,146.72227778102913L79.156,145.13850673476432L79.198,146.1035261875763L79.226,146.96431136685854L79.254,148.51370290453184L79.296,147.2595682334996L79.35199999999999,147.41506922396601L79.394,148.13279632222205L79.66,147.65844171936243L79.968,148.20144009606994L80.038,148.85969815959706L80.556,149.13099003420376L80.654,149.1950494811104L80.682,149.9839266855617L80.94800000000001,148.89797058119973L81.872,146.46273544876536L81.89999999999999,148.1950550026621L82.166,148.85024423481576L82.62799999999999,147.2833553219729L82.75399999999999,148.45221476941666L82.81,149.51211220933612L82.89399999999999,149.95985439666282L83.06200000000001,151.01181570042075L83.104,148.82684547811093L83.524,148.67816895311677L83.65,149.85564030845327L83.734,149.4266755251449L84.16799999999999,148.11280982007753L84.19600000000001,147.74408734228314L84.32199999999999,148.3800009531941L84.47600000000001,147.40944714803493L84.56,148.45071755325196L84.658,147.79196527684968L85.176,149.2067215701058L85.526,150.50480686387107L85.61,149.4149754072866L85.694,149.67194786025928L85.736,146.19421119304806L86.04400000000001,146.06130200115228L86.53399999999999,147.03331427367957L86.688,148.59848751182813L87.178,149.45403410726067L87.486,149.8654658480482L87.598,149.4767886291343L88.452,147.2930561099687L88.592,146.04291479950578L88.67599999999999,146.37393122215332L89.53,146.84271952290888L90.08999999999999,147.1321933872276L90.202,146.64428464612007L90.356,146.7999510946312L90.52399999999999,146.83976095412802L91.35,146.79341507948217L91.49,145.41717845596935L91.546,147.88944592961508L91.896,148.89532838397528L91.95200000000001,149.94620223919532L92.036,148.93655915705352L92.52600000000001,147.58401724585684L92.568,148.4845435354439L93.08600000000001,148.09937971830334L93.22600000000001,148.1261178145804L93.604,148.1620064361889L93.66000000000001,147.60976171000792L93.688,147.54053779346145L93.77199999999999,147.54524038077827L93.898,149.450012302447L94.22,150.07154318156756L94.318,150.52233552513272L94.62599999999999,150.1805823042656L94.808,148.24375039406607L94.864,145.94234879057402L94.878,147.38128550593532L95.298,149.00294004625763L95.62,148.7392788116933L95.64800000000001,150.59259354083545L95.69,150.49003306036477L95.704,149.34619080924165L95.816,150.0054686888248L96.348,149.17817795619507L96.53,149.18234843718096L96.74,148.56650894705703L97.006,146.94101339672557L97.16,147.76308992760113L97.286,149.3451269954844L97.72,149.43117587807203L97.87400000000001,149.1515198600834L98.322,148.40778119976594L98.658,147.54051797756716L98.924,148.57577370108663L99.106,148.0328863412231L99.11999999999999,148.05167310337762L99.232,147.5737154318921L99.25999999999999,146.58979185029062L99.848,144.63006651562964L99.904,144.92743669745832L99.96,146.02441377320395L100.11399999999999,147.67534391310915L100.156,148.84490217105807L100.17,147.24781074923035L100.618,145.79085341971174L100.772,149.1065573019647L100.8,148.47011692858914L100.87,149.14688793442951L100.898,148.3512112912872L101.05199999999999,147.88212663535307L101.15,146.74887174429912L101.332,148.3730896516388L101.54199999999999,148.12722519360454L101.66799999999999,146.50773959153378L101.71000000000001,148.3854326399772L102.13000000000001,149.42212286448137L102.452,150.25460100236924L102.466,150.3633468621774L102.508,151.23973927639744L102.536,148.76816104993912L102.592,149.5533021220308L102.676,147.69554264518072L103.068,146.4938797543791L103.17999999999999,149.15760488353254L103.502,150.4472216290757L103.642,149.19268896714001L104.23,150.67608934562494L104.356,150.28410641603324L104.426,149.46940511516326L105.056,148.04610528181945L105.126,148.93721304017876L105.294,149.85129795826617L105.938,148.85762770488148L106.45599999999999,148.29390350290709L107.33800000000001,148.4399976391111L108.22,147.27650120805785L108.61200000000001,148.89448751082668L108.934,147.10470511558046L109.648,148.3069584074163L110.124,149.7824095528847L110.30600000000001,149.54241781084892L110.348,151.16511642972125L111.27199999999999,149.3165708345542L111.384,149.9150510099949L111.496,149.5877074937476L111.73400000000001,149.58209531051634L111.86,150.24423497195673L111.958,149.8602132893143L112.042,150.11351381221638L112.12599999999999,151.72491517203585L112.63,151.74025740496836L112.742,150.84588983519387L113.092,150.55588280079868L113.106,150.5501221274422L113.554,150.36257955958962L113.58200000000001,150.14932826874963L113.86200000000001,150.95437251062182L113.932,152.34748066955402L113.96,151.74146546916322L113.988,151.63103695211504L114.35199999999999,150.6157446890932L115.15,151.191419457785L115.402,150.32083023412528L115.90599999999999,148.4817020634224L115.934,149.50364756421706L116.19999999999999,149.20418754519895L116.64800000000001,150.92617646635696L116.676,150.97253071336624L116.858,150.55497935256565L117.012,150.8505261799169L117.026,152.04398522538776L117.096,150.19177498874762L117.166,149.15334598297497L117.684,148.8010830307481L117.936,147.41262998528146L118.20200000000001,147.73694364635267L118.426,149.55513145421813L118.62200000000001,147.80317729847553L118.874,148.67656211338593L118.91600000000001,149.94973923036747L119.392,149.3688922053732L119.434,149.18786588467106L119.644,149.97900345419015L119.714,150.13623553709687L119.896,152.1252205845505L119.966,151.57168224315583L120.19000000000001,152.18907588239952L120.25999999999999,151.99971924682325L120.33000000000001,152.1199624774448L120.386,150.74957018917354L120.61,150.6606187929246L121.086,151.6664144958774L121.422,151.16850946341276L122.01,150.25072308874718L122.08,148.32819642720574L122.22,149.71082574485513L122.276,149.95409933641815L122.5,151.1332163150028L122.654,149.87057361214852L122.99,149.98289885645804L123.228,150.64847175891617L123.494,150.78222924341014L123.788,150.02626055401117L123.9,148.6589724019461L124.026,150.34424412520485L124.25,150.89125336769277L124.824,150.549347296733L124.866,151.37796852561533L125.02,151.70902134720106L125.11800000000001,150.62198719527495L125.64999999999999,150.12083657371704L125.874,150.87576236598315L125.94399999999999,150.47933380170238L125.97200000000001,151.18339421419444L126.25200000000001,150.59993112922595L126.406,150.13878264531027L126.616,150.42152430318512L126.756,150.72612254343065L127.63799999999999,150.06933973941184L127.68,149.48894523707813L127.764,150.2313261576163L128.296,149.90949116335315L128.478,148.73881808332206L128.492,149.78767394966843L128.52,148.80608847308335L128.898,150.04804400047567L129.15,149.04398437901878L129.542,150.5768118355545L129.836,151.29812452120817L130.31199999999998,152.04241853310606L130.676,151.61840652835733L130.732,150.78739255515157L130.942,150.3788098544722L131.012,150.83469630981557L131.138,151.30953696492358L131.39,149.7508982556445L131.936,149.7018486065099L132.09,149.41057840401507L132.10399999999998,150.716861210751L132.496,149.915435562027L132.552,150.2048071033711L132.57999999999998,150.331871315258L132.74800000000002,151.41368695959486L133.084,150.87255508620564L133.252,151.0406589970133L133.364,152.0939307450339L133.448,151.5187057538282L133.602,150.57047112485475L133.714,148.8610934696637L133.74200000000002,149.94756225737189L133.826,149.61204029118372L134.302,149.3219768086792L134.428,150.4779666744503L134.45600000000002,149.54557638463373L134.498,149.6723303025782L134.932,151.13581664914804L135.016,151.69560945414455L135.24,150.00998352894953L136.178,151.030484503089L136.22,151.60245088770705L136.584,151.42534143150678L136.654,150.26271229935188L137.116,150.07787996204198L137.13,149.80278734170298L137.494,150.83210768681505L137.732,151.135434955647L137.78799999999998,151.75718613085573L137.9,152.32063425749993L137.97,151.93806145342464L137.984,151.69846784920855L138.06799999999998,151.012369336792L138.34799999999998,149.50204704330852L138.53,150.06527481551862L138.614,149.62822267855742L138.964,149.47793709503932L139.006,150.09380194505445L139.804,150.5130785691364L140.448,151.91228093232453L140.644,151.48195128158176L140.756,150.2100387901988L141.078,151.61247440919834L141.092,151.52853707320824L141.344,151.77537436294955L141.708,150.764745827566L142.016,150.59462149901216L142.282,150.54389708318126L142.296,151.8068195377458L142.68800000000002,151.77610567776375L143.024,152.34463033368993L143.206,151.2542611258674L143.57000000000002,151.00589221204012L143.87800000000001,148.1955219893735L143.962,148.42125164602686L144.07399999999998,149.70175587267371L144.144,151.05849527049477L144.886,149.9411265774275L144.928,151.06677688104142L145.082,151.56229299570458L145.27800000000002,151.3664887692452L145.55800000000002,150.5756062336318L145.754,150.40817525491428L145.824,149.08469363056807L146.39800000000002,149.72610367339763L146.874,149.247039158157L147.056,149.98645168583283L147.294,150.64359355295113L147.42,150.64159493242352L147.672,150.37147833364L147.75599999999997,148.9208702859687L147.882,150.00679840449934L148.484,149.22992711745368L148.65200000000002,149.78945639619826L148.68,151.29987555477777L148.778,150.8043593837843L149.226,150.87653929635042L149.282,150.5859056352227L149.71599999999998,150.89606905263557L149.8,151.76375743666426L150.05200000000002,152.67944227408847L150.136,152.23309461326292L150.528,153.37798929368986L150.55599999999998,149.75843732847096L150.86399999999998,150.25944377259404L150.89200000000002,151.37716179853277L151.032,151.3207258240318L151.186,148.15757206415745L151.522,149.27373995285598L151.66199999999998,149.84143457353932L152.11,150.93080150857062L152.18,152.8291863974402L152.278,152.62309244035498L152.432,151.95730530277183L152.516,152.45611978255883L152.838,152.73818174958134L152.894,151.088819449901L153.79,149.41561719621782L153.85999999999999,150.12474015461743L154.084,149.27414596740806L154.462,149.95078299441576L154.686,149.97070385514883L154.81199999999998,148.23904249270274L154.98,150.22917271673387L155.63799999999998,149.7356057188096L155.69400000000002,150.72204343206778L156.128,152.19427119206642L156.66,151.8176722616628L156.702,152.8971468522554L156.842,152.98062609420649L156.968,151.0242409772859L157.108,151.93608217143134L157.16400000000002,151.57904442371793L157.528,152.5312342726501L158.074,151.2390781392641L158.24200000000002,151.36412232170426L158.27,152.0486904261505L158.368,150.21601348189486L158.52200000000002,150.9901416504461L158.578,151.48352385386298L158.662,151.41296056752088L158.70399999999998,151.31893554634658L158.83,151.6335416603494L158.928,151.10357217699737L159.02599999999998,150.76963885353277L159.11,150.97161801989637L159.124,151.07450035215874L159.208,152.5990701769876L159.278,151.2363264851821L159.418,150.50277391034678L159.85199999999998,150.98748485222447L160.17399999999998,150.33595413550728L160.20200000000003,150.4841629361212L160.384,151.74073184302048L160.608,152.1494322117404L160.832,149.76156560259477L160.846,151.02174112902532L160.86,150.7335903090623L161.53199999999998,150.16838200543643L161.65800000000002,150.0366540470977L161.784,150.6041953058596L161.924,150.1244570131037L162.302,150.68649539341132L162.414,152.35652513547498L162.49800000000002,152.66890649692473L162.67999999999998,152.96787058728688L163.394,152.02887636274747L163.40800000000002,151.85083652993433L163.45,151.87541725860274L163.688,150.18376745954893L163.85600000000002,151.4187107583428L163.87,151.5837129324999L163.968,151.48281065942803L164.304,151.46789433154638L164.332,152.48508496389692L164.542,152.24345032953764L164.556,151.3923553958548L164.808,151.86992428312774L165.032,152.41894474442844L165.172,151.06490977197515L165.382,151.51951494220668L165.53599999999997,150.44688251656558L165.718,150.0028772436118L165.9,149.89555727735376L166.138,150.75742881374686L166.236,152.04158787058074L166.516,151.0162564871288L166.65599999999998,151.48972762768923L166.824,151.09733498083824L166.838,148.10569116664297L167.27200000000002,149.26732220367012L167.286,150.8912984477406L167.3,150.27593711298258L167.44,149.3984009044263L167.622,151.57178157097457L167.706,151.33613571242307L167.818,149.82043637761961L167.90200000000002,151.5193128134578L168.88199999999998,151.32535008464868L169.26000000000002,152.18613117510844L169.694,152.5619982192403L169.76399999999998,152.57151890453613L169.932,153.49121819604585L170.64600000000002,153.60051174463322L170.674,151.9754368643055L170.912,150.54634301444426L171.01,151.93424718080283L171.14999999999998,149.61306041974817L171.76600000000002,150.89974510172402L171.92,150.41666109958925L172.144,149.24460876345418L172.78799999999998,148.82841914013892L172.82999999999998,149.60754967798312L172.844,148.40360733709448L173.53,148.4417648941778L174.23,150.81450571202257L174.31400000000002,149.69252246965777L174.328,150.58523421098675L174.412,151.8849258012169L175.014,150.42256037811L175.252,150.14624768348273L175.71400000000003,148.23945966274582L175.85399999999998,148.26396239545568L176.02200000000002,148.42965302117642L176.134,148.55120632498247L176.344,148.7726336784092L176.596,151.21723203859293L176.86200000000002,151.7334220459157L177.002,152.37775461872977L177.03,152.30373624017176L177.898,152.2376702669283L178.038,151.36340319373332L178.136,152.43424572204424L178.206,151.91512903762782L178.43,151.80889446850372L178.528,151.75371272553457L178.71,151.8539015974966L178.79399999999998,150.13862540084327L179.326,149.48692980363887L179.788,151.18852984779033L180.55800000000002,152.92463777684938L180.614,152.3624559346265L181.66400000000002,152.47854458014726L182.308,152.2677213264737L182.322,152.2803549118777L182.392,152.66055818138162L182.50400000000002,151.93547318918093L182.75599999999997,152.95380415817647L183.31599999999997,151.22922059874068L183.65200000000002,151.05085532156824L183.736,151.38572090141892L183.75,152.76798146778097L183.862,152.83437998879205L184.226,150.8345757044648L184.38,151.33903455539317L184.912,151.7232370667881L184.968,152.79925478358425L185.05200000000002,152.04167232230915L185.15,153.1308254541394L185.164,152.6079179942471L185.33200000000002,152.58888618845913L185.58399999999997,151.78629164019728L185.976,151.95751782329583L186.13,152.45886677745005L186.62,152.204697217999L186.634,150.49394930191326L186.746,151.33439583552374L186.914,152.93606445574258L187.096,153.05554750889638L187.516,151.3156405846085L187.656,152.11674950429634L187.726,152.33099690571726L188.202,153.38478477793117L188.272,151.74697319466182L188.29999999999998,151.7469453437029L188.412,152.25348193781963L188.454,152.90865530523098L188.482,151.88921788902542L188.85999999999999,152.39394295556224L189.042,150.87742990360385L189.364,151.31805560751195L189.37800000000001,152.0153355092611L189.784,151.41825283114946L189.98,152.78193541568422L190.09199999999998,152.07835490029197L190.554,150.8357275606462L191.002,150.58776024070988L191.744,151.690431092705L191.982,153.35068126143554L192.304,153.45653111361386L192.5,151.63102659457678L192.584,152.27365217928343L192.71,150.96700192982507L192.976,151.8757008487655L193.00400000000002,152.21496222861646L193.438,153.17218787390811L193.46599999999998,152.4537597422927L193.52200000000002,151.7031213000494L193.70399999999998,151.72499502927528L193.816,150.28770105280756L193.858,151.71910315099325L193.914,152.05574512934467L194.138,153.17584027720955L194.26399999999998,152.81095547252974L194.348,152.8969751771733L194.86599999999999,150.91101668237317L194.936,152.3713498018702L195.17399999999998,151.74988596951087L195.37,152.40558119802745L195.384,153.07096632980748L195.58,151.2184357066757L195.608,151.99475484956145L195.678,151.00352131646179L195.93,151.22742642802777L196.168,152.5152123521335L196.37800000000001,153.09390753660006L196.798,151.4844450125301L196.882,151.81527700737342L196.952,152.26453074196115L197.064,152.7026868425556L197.89,152.20919901109227L198.184,152.33408003534765L198.352,152.39722075851296L198.45,152.46896783287247L198.506,152.14873544340284L198.94,152.04193631091687L199.29,151.6303728040793L199.332,151.98838000198631L199.44400000000002,153.20151555086431L199.66799999999998,152.80332642174915L199.794,152.53157643999947L200.22799999999998,153.0644035658814L200.25599999999997,152.38450004438027L200.312,151.90290075409092L200.424,152.54461196780807L200.438,152.78990335993333L200.83,153.15387528875885L200.956,153.86587925522178L201.02599999999998,153.2453641395886L201.12400000000002,153.70912747290447L201.18,153.60460195068546L201.516,153.71322954669017L201.572,154.33933341711412L201.6,154.62702020382673L201.894,153.36381749039367L201.908,154.08049377461558L201.922,153.53161405718495L202.118,153.0447538824648L202.202,152.68423788140836L202.286,151.6084645741619L202.664,151.93779918969298L202.692,151.8132216250139L202.72,151.7350426658136L203.308,151.40615473851418L203.756,152.28836442529075L204.414,153.00180629292475L204.988,152.77573546111194L205.072,152.35075069272284L205.142,153.12754803928L205.506,152.32802044371124L205.912,152.35404146921252L206.178,153.1450178501702L206.948,151.8074288692691L207.074,152.85454550842155L207.85799999999998,152.13701627925857L208.012,152.0788471198628L208.614,152.2651234679351L208.67,151.0497323928036L208.908,152.0275199005658L209.21599999999998,152.80705633399813L209.608,152.96242222371455L209.66400000000002,153.42054123391364L209.692,151.68437064613693L209.734,152.52069062645708L209.958,152.69851209564294L210.14,153.21971637215188L210.252,152.08683006886227L210.33599999999998,152.0679425880725L210.392,152.57177647165946L210.50400000000002,153.37014118658993L210.518,153.9964740772694L210.574,153.24542799987293L210.658,152.40462624767162L210.672,151.38578619403881L211.232,151.92731253162967L211.288,152.56218813075193L212.63199999999998,153.64149139998497L212.772,153.12273471411947L212.94,152.07414273335667L213.178,152.22778482683975L213.276,150.67131666013685L213.402,151.1996209119901L213.5,151.1303752121416L213.654,152.15041453731578L214.13000000000002,151.61237421289596L214.256,152.68153231907198L214.886,152.46139273584868L215.432,152.35513177687517L215.62800000000001,153.09283224895353L215.852,153.04819184782954L216.37,153.8115521736017L216.88799999999998,153.15997601948607L217.308,151.8914478365725L217.434,152.1639050187158L217.44799999999998,151.51011204668805L217.7,151.0203543520903L217.812,150.20002022287858L218.06400000000002,150.66627870540785L218.232,152.39663370375413L218.28799999999998,151.31233815704533L218.722,151.95841979695211L218.988,150.8759779992472L219.016,151.80513251251605L219.044,152.69575462396915L219.058,152.63995291286295L219.24,152.22363781180135L219.828,150.69244848537136L220.024,150.20865808634574L220.304,150.44939342166154L220.626,151.3480176072826L220.934,151.62874822665316L221.228,151.78419922798312L221.634,152.33222237831018L221.886,151.36019480291404L222.138,152.17714114822982L222.236,152.76969926459415L222.46,153.01065825662707L222.67000000000002,152.51343507116056L222.82399999999998,153.40100159969936L223.01999999999998,152.1099983258665L223.594,151.69403879564726L223.72,150.94950527283584L224.084,151.55364326437135L224.48999999999998,153.0698880546281L224.644,153.24890391089454L225.162,152.59798735861742L225.428,153.30777748069025L225.582,152.81125667228812L225.624,153.37052161614804L225.778,152.83618554147506L225.862,152.53063819213168L225.946,152.87177482686513L225.96,151.94633960987375L226.212,152.73245342333263L226.47799999999998,153.68207874154535L226.53400000000002,154.40396737509263L226.632,153.06126368514674L226.71599999999998,152.34954443408236L226.88400000000001,151.28762705822697L226.926,150.66183343847538L227.03799999999998,152.46872480627863L227.122,153.5382994974671L227.136,152.7325604696086L227.612,152.28909225895072L227.71,152.0537753436013L228.21400000000003,152.2231653908716L228.774,152.78065532524346L228.886,152.13525385307645L228.956,152.23301477718775L229.054,153.26256232056076L229.124,153.47719970400962L229.138,154.17927399956682L229.25,154.01451598614554L229.43200000000002,153.2484130134787L229.58599999999998,152.80419646226997L229.6,152.2839729335326L229.67000000000002,153.24509490458675L229.86599999999999,153.85636160976793L229.978,153.9503128600544L229.99200000000002,153.14490065708316L230.10399999999998,152.41767733336224L230.916,152.7053068108801L230.944,152.51434612040387L231.49,152.48527148126362L231.504,152.10255328173716L231.672,152.13006127489774L232.078,152.27501552073062L232.722,150.85678534766774L233.03,151.0705776024505L234.10799999999998,150.80030520907906L234.304,151.9229647883884L234.43,152.1061814408965L234.64,151.4172795821111L234.878,151.9456306577055L234.99,151.90807000529733L235.34,151.48125163753014L235.46599999999998,152.6879649231683L235.76,151.71975960154438L235.91400000000002,152.90703865256373L236.09599999999998,151.3085971526293L236.15200000000002,152.38992396853294L236.58599999999998,152.0501620314236L236.65599999999998,152.17401639670425L236.74,152.4592248373248L236.894,151.66950224079793L236.95,151.80228206061187L237.16,152.42993334060628L237.356,152.333001311376L237.762,152.78745184387026L238.266,153.22932854669446L238.91,154.53433500926985L238.92399999999998,153.69188166579383L238.98000000000002,153.81690418474344L239.37199999999999,154.01997056778748L239.54000000000002,153.18494353846597L239.68,153.35882674250536L239.736,153.26502080218117L239.932,153.22548041615556L240.142,152.39605890735191L240.464,151.95572515144468L240.58999999999997,152.1178609628351L240.786,151.47864628427453L240.898,150.4249416813844L242.452,151.59295930965305L242.67600000000002,152.22767897995448L242.87199999999999,152.98496502370915L243.06799999999998,152.92295321562656L243.19400000000002,153.54242317322155L243.6,153.97738242214876L243.74,152.46701629002467L243.866,152.85488957885647L244.09,153.06271857702978L244.174,153.1987607663924L244.38400000000001,153.1842246797316L244.468,153.4110634821633L244.482,152.38508446403225L244.86,152.5686281137936L244.888,153.12959191580254L245,152.81389075545255L245.40599999999998,152.6036315676239L246.54,152.47777423957984L246.86200000000002,153.35110692674917L246.93200000000002,153.25094576375685L247.35199999999998,153.11598068742157L247.8,152.8064156309855L247.96800000000002,151.5844894698913L248.108,152.7632915711396L248.486,151.04955595250883L248.64000000000001,151.14447579790726L248.962,150.1761586785887L249.06,151.00845405979402L249.102,152.1838191207654L249.214,152.65402645059865L249.284,152.32991228961015L249.39600000000002,153.13192093002635L249.48000000000002,152.7199016042223L249.634,154.05842745878817L250.222,154.18536879218732L250.25,151.61571772057084L250.894,152.23760180965027L250.90800000000002,153.41855126695808L251.244,153.70879336889772L251.468,153.73686712650172L251.72,154.05478805900242L252.028,152.39163856665667" style="fill: none;" fill="none"></path></g></g></g></g><g opacity="0.2"><g><g><g><path stroke="rgb(255, 112, 67)" stroke-width="2px" d="M28.252000000000002,20.815976699193335L28.657999999999998,20.90718750158946L28.868,21.124435901641846L28.882,21.004024982452407L28.994,20.595926682154353L29.246,20.930925051371258L29.441999999999997,21.223172386487335L29.498,21.078449527422595L29.791999999999998,20.797361771265667L30.24,20.242723663647975L30.296000000000003,21.404175599416103L30.408,20.99877341588339L30.674,20.38731757799785L30.842,20.30480468273163L31.206,20.231013139088954L31.415999999999997,20.635735432306927L31.625999999999998,21.04186439514161L31.947999999999997,21.402100761731475L31.990000000000002,19.5921624104182L32.424,21.174923618634548L32.466,20.939716736475635L32.844,21.03187704086305L33.012,20.82757000128429L33.124,21.16702282428743L33.404,21.019170125325537L33.628,21.02360113461814L33.81,20.960840225219734L34.104,20.6453359524409L34.118,20.63763443628947L34.244,20.59395734469096L34.454,20.98360482851665L34.51,20.789976755777996L34.65,21.188392480214453L34.733999999999995,21.119184335072852L35.14,21.344696919123333L35.462,20.057781775792446L35.532000000000004,54.74543396631877L35.56,57.13211858272553L35.784,82.0778393149376L35.867999999999995,77.50183755159378L36.316,84.74959139029185L36.344,91.56164689858755L36.918,102.67373903592429L37.001999999999995,103.6390191713969L37.016000000000005,99.82340439160667L37.211999999999996,112.99275963505112L37.338,90.64595186710358L37.45,102.53090345859529L38.094,124.20886619885763L38.696,132.6653126279513L38.85,117.2355946302414L38.948,127.20894082387291L39.032,127.7434987227122L39.256,131.92790710926056L39.998000000000005,124.94857806960742L40.124,132.04659778873125L40.404,126.3732911547025L41.188,130.58195286989212L41.986,132.70323409636816L42.056,135.60036981105804L42.21,136.5359955926736L42.30800000000001,136.29942453404266L42.364,145.97410692771277L42.392,136.1725282818079L42.518,134.56003066400686L42.784,135.96386496225995L42.994,138.19101712604362L43.077999999999996,140.97645594676337L43.372,142.53290364146233L43.526,136.1567164361477L43.553999999999995,140.15813468893367L43.75,137.44520529111227L43.848,138.17401547233266L44.114,139.01992796858153L44.128,138.0073661506176L44.296,132.0591757595539L44.436,135.02658634384474L44.464,141.1079590419928L44.576,139.7265347490708L45.052,134.64968387285867L45.15,134.7702501118183L45.528,141.39128281672797L45.556000000000004,138.97325437764326L45.598,142.3204672237237L45.654,140.86869772771993L45.738,139.92519166568914L45.794,143.54583910604316L46.172,138.09068495035172L46.550000000000004,141.7561025818189L46.830000000000005,137.729926943779L47.25,138.34710616866747L47.264,141.0897470662991L47.838,133.09451976418495L48.146,147.8942952081561L48.398,137.93549412488937L48.412,126.24542488654454L48.916,136.06011046965915L49.028,141.70666400591534L49.14,144.16310771306354L49.182,142.16628451148668L49.672,136.38081795473892L49.714000000000006,137.68265698353449L49.91,136.78241333862147L49.952,141.83747841914496L50.022,136.10305785139403L50.19,141.7655888100465L50.343999999999994,134.24655873576802L50.778000000000006,135.05524723728496L50.89,138.05185061196485L51.379999999999995,142.03507007658482L51.589999999999996,145.62636647621792L51.827999999999996,138.59595041970414L51.856,140.5687737862269L51.897999999999996,144.02956494688988L51.954,144.8810733507077L52.85,140.72416095932326L52.878,144.3392110268275L53.046,146.52848421533903L53.858,141.25746457775435L54.04,136.3369181404511L54.138,140.02745361626148L54.586000000000006,143.08108132580918L54.628,147.14448535442352L54.711999999999996,144.77242717146873L54.726000000000006,146.2781102110942L55.104,145.65703773498535L55.160000000000004,148.3212480098009L55.230000000000004,144.25646661718687L55.440000000000005,151.89331259826818L55.454,145.733018408219L55.705999999999996,143.98068317770958L56.98,142.83367891112962L57.105999999999995,140.3803284118573L57.245999999999995,143.0668387959401L57.4,147.33792440593243L57.61,144.6235048174858L57.666,146.2156430905064L58.716,143.19460102915764L58.926,143.27966644366583L59.01,144.4192021737496L59.346,146.9323170830806L59.416,145.44676846762496L60.466,149.11839376141626L61.026,147.65472545226416L61.516000000000005,147.92832562327385L62.104,147.1151438380281L62.174,143.54368660847348L62.356,148.2055025448402L62.467999999999996,147.67959786206484L62.51,147.41732944051424L62.79,149.01811067263284L63.041999999999994,149.9824881951014L63.238,145.22738149017096L63.266000000000005,144.51822438836098L63.42,143.66635992129642L64.078,140.83053888380527L64.092,144.38339217503864L64.386,149.34275829792023L64.778,148.22574979563552L64.89,147.05623734990758L65.002,146.59465849647918L65.38000000000001,149.48426926136017L65.43599999999999,148.90344585229954L65.534,148.779295536379L65.576,145.4209546148777L65.702,147.02019656946263L65.912,143.47372677425545L66.038,146.28039311865965L66.276,146.52017753819626L66.346,145.70587920894226L66.36,144.7564526796341L66.542,146.81553273399672L66.556,143.73633587360382L66.57,142.73820560673875L66.71,143.7145676612854L66.752,151.71936031679314L66.99,148.00608368217945L67.36800000000001,150.90247356891632L67.676,144.44684762756032L67.816,145.21288619935513L68.054,148.49672125279903L68.068,143.9670326213042L68.89399999999999,149.6860684727629L69.328,143.53393223385015L69.37,147.99330570052066L69.46799999999999,144.13448931276798L69.51,144.39368284245333L69.622,144.87279451390106L70.266,145.86766892671585L70.476,149.9509509553512L70.658,149.61529027918976L71.16199999999999,135.8138744185368L71.17599999999999,145.56212270259857L71.442,145.25783808529377L71.45599999999999,150.02003455162048L71.47,150.73694665233293L71.666,146.0509447902441L71.68,151.0952620357275L71.694,147.73010829091072L71.792,148.11760547508794L72.03,144.0669164210558L72.422,147.22525163491565L72.688,149.49814254045486L72.786,148.1970258951187L72.856,153.2899091417591L73.03800000000001,146.22942625482878L73.08,146.29226189355055L73.374,147.87331165373325L73.71,141.81516219178835L73.75200000000001,148.0803104142348L74.28399999999999,143.10836045940718L74.76,142.25431125859419L74.984,150.51462398469448L75.236,145.24227973322076L75.39,146.01938044279814L75.656,150.30857252826294L75.85199999999999,150.84320662170649L76.45400000000001,145.15822975834212L76.762,151.6132197678089L76.776,151.72949969395995L76.87400000000001,146.15385292967161L76.902,148.51499696820974L77,151.1105793491006L77.364,148.3227550511559L77.92399999999999,146.13113375008106L77.966,148.917664937675L78.064,146.53106457491717L78.232,146.13894955813885L78.4,145.23485808571178L78.58200000000001,148.137635131677L78.596,147.28537796934447L78.624,146.1021548906962L79.156,142.76285016536713L79.198,147.55105536679426L79.226,148.25548913578191L79.254,150.83779021104175L79.296,145.37836622695127L79.35199999999999,147.6483207096656L79.394,149.20938696960607L79.66,146.946909815073L79.968,149.01593766113123L80.038,149.84708525488773L80.556,149.53792784611383L80.654,149.29113865147033L80.682,151.16724249223867L80.94800000000001,147.26903642465672L81.872,142.8098827501138L81.89999999999999,150.7935343335072L82.166,149.8330280830463L82.62799999999999,144.93302195270854L82.75399999999999,150.20550394058228L82.81,151.10195836921534L82.89399999999999,150.63146767765284L83.06200000000001,152.58975765605769L83.104,145.54939014464617L83.524,148.45515416562557L83.65,151.621847341458L83.734,148.78322835018238L84.16799999999999,146.14201126247644L84.19600000000001,147.19100362559158L84.32199999999999,149.33387136956054L84.47600000000001,145.95361644029617L84.56,150.0126231610775L84.658,146.8038368622462L85.176,151.32885600998998L85.526,152.45193480451903L85.61,147.78022822240987L85.694,150.0574065397183L85.736,140.97760619223118L86.04400000000001,145.86193821330863L86.53399999999999,148.49133268247047L86.688,150.94624736905098L87.178,150.73735400040943L87.486,150.48261345922947L87.598,148.89377280076346L88.452,144.0174573312203L88.592,144.16770283381143L88.67599999999999,146.87045585612455L89.53,147.54590197404227L90.08999999999999,147.56640418370566L90.202,145.9124215344588L90.356,147.03345076739788L90.52399999999999,146.89947574337324L91.35,146.72389626751342L91.49,143.35282352070016L91.546,151.59784714008373L91.896,150.40415206551552L91.95200000000001,151.5225130220254L92.036,147.4220945338408L92.52600000000001,145.55520437906185L92.568,149.83533296982446L93.08600000000001,147.52163399259248L93.22600000000001,148.166224958996L93.604,148.21583936860162L93.66000000000001,146.78139462073645L93.688,147.43670191864172L93.77199999999999,147.55229426175356L93.898,152.30717018495002L94.22,151.00383950024843L94.318,151.19852404048046L94.62599999999999,149.6679524729649L94.808,145.3385025287668L94.864,142.49024638533592L94.878,149.53969057897726L95.298,151.4354218567411L95.62,148.34378695984682L95.64800000000001,153.37256563454866L95.69,150.33619233965874L95.704,147.63042743255696L95.816,150.9943855081995L96.348,147.93724185725054L96.53,149.18860415865976L96.74,147.64274971187115L97.006,144.50277007122835L97.16,148.99620472391445L97.286,151.71818259730935L97.72,149.5602492019534L97.87400000000001,148.7320358331005L98.322,147.2921732092897L98.658,146.239623144269L98.924,150.1286572863658L99.106,147.21855530142784L99.11999999999999,148.0798532466094L99.232,146.85677892466384L99.25999999999999,145.11390647788843L99.848,141.69047851363817L99.904,145.37349197020131L99.96,147.6698793868224L100.11399999999999,150.15173912296694L100.156,150.5992395579815L100.17,144.85217361648878L100.618,143.6054174254338L100.772,154.08011312534413L100.8,147.5154563685258L100.87,150.1620444431901L100.898,147.1576963265737L101.05199999999999,147.17849965145192L101.15,145.04898940771818L101.332,150.80941651264826L101.54199999999999,147.75842850655317L101.66799999999999,144.0785111884276L101.71000000000001,151.20197221264243L102.13000000000001,150.97715820123753L102.452,151.5033182092011L102.466,150.52646565188962L102.508,152.5543278977275L102.536,145.06079371025166L102.592,150.73101373016834L102.676,144.90890342990556L103.068,144.69138541817665L103.17999999999999,153.15319257726273L103.502,152.38164674739042L103.642,147.3108899742365L104.23,152.9011899133523L104.356,149.6961320216457L104.426,148.24735316385826L105.056,145.91115553180376L105.126,150.27387467771769L105.294,151.22242533539733L105.938,147.36712232480446L106.45599999999999,147.44831719994545L107.33800000000001,148.65913884341717L108.22,145.531256561478L108.61200000000001,151.32146696497998L108.934,144.42003152271113L109.648,150.11033834517002L110.124,151.99558627108735L110.30600000000001,149.18243019779524L110.348,153.59916435802975L111.27199999999999,146.5437524418036L111.384,150.81277127315602L111.496,149.09669221937656L111.73400000000001,149.5736770356695L111.86,151.2374444641173L111.958,149.28418076535064L112.042,150.49346459656954L112.12599999999999,154.14201721176505L112.63,151.7632707543671L112.742,149.50433848053217L113.092,150.12087224920592L113.106,150.54148111740747L113.554,150.08126570781073L113.58200000000001,149.82945133248964L113.86200000000001,152.1619388734301L113.932,154.43714290795225L113.96,150.83244266857702L113.988,151.46539417654276L114.35199999999999,149.09280629456043L115.15,152.05493161082268L115.402,149.01494639863571L115.90599999999999,145.72300980736813L115.934,151.036565815409L116.19999999999999,148.7549975166718L116.64800000000001,153.509159848094L116.676,151.04206208388013L116.858,149.92865231136483L117.012,151.29384642094374L117.026,153.83417379359403L117.096,147.41345963378748L117.166,147.59570247431594L117.684,148.27268860240778L117.936,145.32995041708153L118.20200000000001,148.22341413795948L118.426,152.28241316601634L118.62200000000001,145.17524606486162L118.874,149.98663933575153L118.91600000000001,151.85950490583977L119.392,148.49762166788182L119.434,148.91632640361786L119.644,151.16570980846882L119.714,150.3720836614569L119.896,155.10869815573096L119.966,150.74137473106384L120.19000000000001,153.11516634126505L120.25999999999999,151.71568429345888L120.33000000000001,152.30032732337713L120.386,148.69398175676665L120.61,150.52719169855118L121.086,153.17510805030662L121.422,150.42165191471577L122.01,148.8740435267488L122.08,145.4444064348936L122.22,151.7847697213292L122.276,150.3190097237627L122.5,152.90189178287983L122.654,147.97660955786705L122.99,150.15138672292233L123.228,151.64683111260334L123.494,150.9828654701511L123.788,148.89230751991272L123.9,146.60804017384848L124.026,152.87215171009302L124.25,151.71176723142463L124.824,150.0364881902933L124.866,152.62090036893883L125.02,152.20560057957965L125.11800000000001,148.99143596738577L125.64999999999999,149.36911064138016L125.874,152.00815105438232L125.94399999999999,149.88469095528126L125.97200000000001,152.23948483293256L126.25200000000001,149.72473650177318L126.406,149.44705991943675L126.616,150.8456367899974L126.756,151.18301990379888L127.63799999999999,149.08416553338367L127.68,148.61835348357758L127.764,151.34489753842354L128.296,149.42673867195845L128.478,146.98280846327543L128.492,151.36095774918795L128.52,147.33371025820574L128.898,151.91097729156414L129.15,147.53789494683343L129.542,152.87605302035809L129.836,152.38009354968867L130.31199999999998,153.1588595509529L130.676,150.9823885212342L130.732,149.54087159534296L130.942,149.76593580345312L131.012,151.5185259928306L131.138,152.02179794758558L131.39,147.4129401917259L131.936,149.62827413280806L132.09,148.9736731002728L132.10399999999998,152.6762854208549L132.496,148.71329708894095L132.552,150.6388644153873L132.57999999999998,150.52246763308844L132.74800000000002,153.0364104261001L133.084,150.0608572761218L133.252,151.29281486322483L133.364,153.6738383670648L133.448,150.65586826701957L133.602,149.14811918139458L133.714,146.2970269868771L133.74200000000002,151.57726543893418L133.826,149.10875734190148L134.302,148.88688158492246L134.428,152.21195147310695L134.45600000000002,148.1469909499089L134.498,149.86246117949486L134.932,153.33104616900286L135.016,152.53529866163927L135.24,147.48154464115697L136.178,152.56123596429825L136.22,152.46040046463412L136.584,151.15967724720636L136.654,148.51876860111952L137.116,149.8006314560771L137.13,149.39014841119447L137.494,152.37608820448318L137.732,151.590425858895L137.78799999999998,152.6898128936688L137.9,153.16580644746622L137.97,151.36420224731168L137.984,151.33907744288445L138.06799999999998,149.9832215681672L138.34799999999998,147.2365636030833L138.53,150.9101164738337L138.614,148.9726444731156L138.964,149.25250871976218L139.006,151.01759922007722L139.804,151.14199350525934L140.448,154.01108447710672L140.644,150.8364568054676L140.756,148.30217005312443L141.078,153.71612783769766L141.092,151.40263106922308L141.344,152.14563029756147L141.708,149.24880302449068L142.016,150.3394350061814L142.282,150.467810459435L142.296,153.70120321959257L142.68800000000002,151.73003488779068L143.024,153.19741731757918L143.206,149.61870731413364L143.57000000000002,150.6333388412992L143.87800000000001,143.97996665537357L143.962,148.75984613100687L144.07399999999998,151.622512212644L144.144,153.09360436722636L144.886,148.26507353782654L144.928,152.75525233646235L145.082,152.30556716769934L145.27800000000002,151.07278242955607L145.55800000000002,149.38928243021172L145.754,150.15702878683805L145.824,147.09947119404873L146.39800000000002,150.68821873764196L146.874,148.52844238529602L147.056,151.0955704773466L147.294,151.62930635362864L147.42,150.63859700163206L147.672,149.9663034354647L147.75599999999997,146.7449582144618L147.882,151.63569058229527L148.484,148.0646201868852L148.65200000000002,150.62875031431517L148.68,153.56550429264703L148.778,150.06108512729406L149.226,150.9848091651996L149.282,150.14995514353114L149.71599999999998,151.3613141787549L149.8,153.06529001270732L150.05200000000002,154.0529695302248L150.136,151.56357312202454L150.528,155.0953313143303L150.55599999999998,144.3291093806426L150.86399999999998,151.01095343877873L150.89200000000002,153.05373883744082L151.032,151.23607186228037L151.186,143.41284142434597L151.522,150.94799178590375L151.66199999999998,150.69297650456429L152.11,152.56485191111761L152.18,155.6767637307445L152.278,152.3139515047272L152.432,150.9586245963971L152.516,153.2043415022393L152.838,153.16127470011514L152.894,148.61477600038052L153.79,146.90581381569308L153.85999999999999,151.18842459221682L154.084,147.998254686594L154.462,150.96573853492737L154.686,150.00058514624834L154.81199999999998,145.6415504490336L154.98,153.21436805278063L155.63799999999998,148.99525522192317L155.69400000000002,152.20170000195503L156.128,154.40261283206442L156.66,151.2527738660574L156.702,154.51635873814422L156.842,153.10584495713314L156.968,148.089663301905L157.108,153.3038439626495L157.16400000000002,151.04348780214787L157.528,153.95951904604834L158.074,149.30084393918514L158.24200000000002,151.55168859536448L158.27,153.07554258281988L158.368,147.46699806551138L158.52200000000002,152.15133390327293L158.578,152.22359715898833L158.662,151.30711563800773L158.70399999999998,151.17789801458517L158.83,152.10545083135366L158.928,150.30861795196932L159.02599999999998,150.2687388683359L159.11,151.27458676944175L159.124,151.22882385055226L159.208,154.8859249142309L159.278,149.19221094747382L159.418,149.4024450480938L159.85199999999998,151.71455126504102L160.17399999999998,149.35865806043148L160.20200000000003,150.70647613704205L160.384,153.62558520336947L160.608,152.76248276482025L160.832,146.1797656888763L160.846,152.91200441867113L160.86,150.30136407911777L161.53199999999998,149.32056954999766L161.65800000000002,149.83906210958958L161.784,151.45550719400245L161.924,149.40484957396984L162.302,151.52955296387276L162.414,154.86156974857053L162.49800000000002,153.1374785390993L162.67999999999998,153.41631672283015L163.394,150.62038502593836L163.40800000000002,151.5837767807146L163.45,151.91228835160533L163.688,147.6462927609682L163.85600000000002,153.27112570653358L163.87,151.8312161937356L163.968,151.33145724982023L164.304,151.44551983972391L164.332,154.01087091242272L164.542,151.88099837799868L164.556,150.11571299533048L164.808,152.5862776140372L165.032,153.24247543637952L165.172,149.03385731329521L165.382,152.20142269755402L165.53599999999997,148.83793387810388L165.718,149.33686933418116L165.9,149.7345773279667L166.138,152.05023611833653L166.236,153.96782645583153L166.516,149.47825941195092L166.65599999999998,152.1999343385299L166.824,150.5087460105618L166.838,143.61822544535L167.27200000000002,151.00976875921089L167.286,153.3272628138463L167.3,149.35289511084557L167.44,148.08209659159184L167.622,154.83185257079703L167.706,150.98266692459583L167.818,147.54688737541437L167.90200000000002,154.06762746721506L168.88199999999998,151.03440599143505L169.26000000000002,153.47730281079808L169.694,153.12579878543815L169.76399999999998,152.58579993247986L169.932,154.87076713331044L170.64600000000002,153.76445206751424L170.674,149.53782454381385L170.912,148.40270223965248L171.01,154.0161034303407L171.14999999999998,146.13128027816612L171.76600000000002,152.82977212468782L171.92,149.6920350963871L172.144,147.4865302592516L172.78799999999998,148.204134705166L172.82999999999998,150.77624548474947L172.844,146.5976938257615L173.53,148.49900122980276L174.23,154.37361693878967L174.31400000000002,148.00954760611057L174.328,151.92430182298025L174.412,153.83446318656206L175.014,148.2290122434497L175.252,149.73177864154178L175.71400000000003,145.37927763164043L175.85399999999998,148.30071649452051L176.02200000000002,148.67818895975748L176.134,148.73353628069162L176.344,149.1047747085492L176.596,154.88412957886857L176.86200000000002,152.50770705689985L177.002,153.3442534779509L177.03,152.19270867233476L177.898,152.1385713070631L178.038,150.05200258394083L178.136,154.04050951451063L178.206,151.13645401100317L178.43,151.64954261481762L178.528,151.6709401110808L178.71,152.00418490543962L178.79399999999998,147.56571110586327L179.326,148.5093864078323L179.788,153.74092991401753L180.55800000000002,155.52879967043796L180.614,151.51918317129213L181.66400000000002,152.65267754842836L182.308,151.95148644596338L182.322,152.29930528998375L182.392,153.23086308563748L182.50400000000002,150.84784570087987L182.75599999999997,154.4813006116698L183.31599999999997,148.64234525958696L183.65200000000002,150.78330740580955L183.736,151.88801927119493L183.75,154.8413723173241L183.862,152.93397777030867L184.226,147.83486927797398L184.38,152.09572283178568L184.912,152.2995408338805L184.968,154.41328135877848L185.05200000000002,150.90529863039652L185.15,154.76455515188476L185.164,151.82355680440864L185.33200000000002,152.56033847977716L185.58399999999997,150.5823998178045L185.976,152.2143570979436L186.13,153.21089020868143L186.62,151.8234428788225L186.634,147.92782742778462L186.746,152.59506563593945L186.914,155.33856738607088L187.096,153.23477208862704L187.516,148.7057801981767L187.656,153.31841288382807L187.726,152.65236800784868L188.202,154.96546658625203L188.272,149.2902558197578L188.29999999999998,151.74690356726447L188.412,153.01328682899475L188.454,153.89141535634798L188.482,150.3600617647171L188.85999999999999,153.15103055536747L189.042,148.60266032566628L189.364,151.9789941633741L189.37800000000001,153.06125536188483L189.784,150.522628813982L189.98,154.8274592924863L190.09199999999998,151.0229841272036L190.554,148.9717865511775L191.002,150.21580926080546L191.744,153.34443737069765L191.982,155.84105651453137L192.304,153.61530589188138L192.5,148.89276981602112L192.584,153.23759055634338L192.71,149.0070265556375L192.976,153.2387492271761L193.00400000000002,152.72385429839295L193.438,154.6080263418456L193.46599999999998,151.37611754486957L193.52200000000002,150.57716363668442L193.70399999999998,151.7578056231141L193.816,148.131760088106L193.858,153.8662062982718L193.914,152.5607080968718L194.138,154.8559829990069L194.26399999999998,152.26362826551L194.348,153.02600473413864L194.86599999999999,147.932078940173L194.936,154.56184948111576L195.17399999999998,150.8176902209719L195.37,153.38912404080233L195.384,154.0690440274775L195.58,148.43963977197805L195.608,153.15923356389004L195.678,149.51667101681232L195.93,151.56328409537673L196.168,154.44689123829207L196.37800000000001,153.9619503132999L196.798,149.07025122642517L196.882,152.3115249996384L196.952,152.93841134384274L197.064,153.3599209934473L197.89,151.46896726389727L198.184,152.52140157173076L198.352,152.49193184326094L198.45,152.57658844441175L198.506,151.6683868591984L198.94,151.88173761218786L199.29,151.01302754382291L199.332,152.52539079884687L199.44400000000002,155.02121887418133L199.66799999999998,152.2060427280764L199.794,152.12395146737495L200.22799999999998,153.86364425470433L200.25599999999997,151.3646447621286L200.312,151.18050181865692L200.424,153.5071787883838L200.438,153.15784044812122L200.83,153.69983318199712L200.956,154.9338852049162L201.02599999999998,152.31459146613875L201.12400000000002,154.40477247287828L201.18,153.44781366735697L201.516,153.8761709406972L201.572,155.27848922275007L201.6,155.05855038389564L201.894,151.46901342024407L201.908,155.15550820094845L201.922,152.70829448103905L202.118,152.31446362038452L202.202,152.14346387982368L202.286,149.99480461329222L202.664,152.43180111298958L202.692,151.6263552779953L202.72,151.6177742270132L203.308,150.91282284756502L203.756,153.61167895545563L204.414,154.0719690943758L204.988,152.43662921339273L205.072,151.7132735401392L205.142,154.29274405911565L205.506,151.12872905035815L205.912,152.3930730074644L206.178,154.33148242160678L206.948,149.80104539791742L207.074,154.4252204671502L207.85799999999998,151.06072243551415L208.012,151.99159338076907L208.614,152.54453799004355L208.67,149.2266457801064L208.908,153.49420116220912L209.21599999999998,153.9763609841466L209.608,153.1954710582892L209.66400000000002,154.10771974921227L209.692,149.08011476447186L209.734,153.77517059693736L209.958,152.9652442994217L210.14,154.0015227869153L210.252,150.38750061392784L210.33599999999998,152.0396113668879L210.392,153.32752729703984L210.50400000000002,154.5676882589857L210.518,154.9359734132886L210.574,152.11885888377824L210.658,151.14342361936966L210.672,149.8575261135896L211.232,152.73960203801593L211.288,153.5145015294353L212.63199999999998,155.26044630383453L212.772,152.34459968532124L212.94,150.50125476221245L213.178,152.45824796706438L213.276,148.33661441008252L213.402,151.99207728977004L213.5,151.02650666236877L213.654,153.6804735250771L214.13000000000002,150.80531372626623L214.256,154.28526947833598L214.886,152.1311833610137L215.432,152.1957403384149L215.62800000000001,154.19938295707107L215.852,152.98123124614358L216.37,154.95659266225994L216.88799999999998,152.1826117883126L217.308,149.98865556220215L217.434,152.57259079193076L217.44799999999998,150.5294225886464L217.7,150.28571781019372L217.812,148.969519029061L218.06400000000002,151.36566642920175L218.232,154.9921662012736L218.28799999999998,149.6858948369821L218.722,152.92754225681227L218.988,149.25231530268988L219.016,153.1988642824193L219.044,154.03168779114884L219.058,152.55625034620363L219.24,151.59916516020894L219.828,148.3956644957264L220.024,149.48297248780727L220.304,150.81049642463526L220.626,152.6959538857142L220.934,152.04984415570894L221.228,152.01737572997808L221.634,153.15425710380077L221.886,149.9021534398198L222.138,153.4025606662035L222.236,153.65853643914062L222.46,153.3720967446764L222.67000000000002,151.76760029296082L222.82399999999998,154.73235139250755L223.01999999999998,150.17349341511726L223.594,151.07009950031838L223.72,149.8327049886187L224.084,152.45985025167465L224.48999999999998,155.34425524001318L224.644,153.51742769529423L225.162,151.62161253020167L225.428,154.37246266379952L225.582,152.0664754596849L225.624,154.2094190319379L225.778,152.03468142946562L225.862,152.07231716811657L225.946,153.38347977896532L225.96,150.55818678438663L226.212,153.91162414352098L226.47799999999998,155.10651671886444L226.53400000000002,155.48680032541355L226.632,151.04720815022785L226.71599999999998,151.28196555748582L226.88400000000001,149.6947509944439L226.926,149.72314300884804L227.03799999999998,155.17906185798347L227.122,155.14266153424978L227.136,151.52395192782083L227.612,151.62388994296393L227.71,151.70079997057715L228.21400000000003,152.47725046177703L228.774,153.61689022680122L228.886,151.16715164482594L228.956,152.3796561633547L229.054,154.8068836356203L229.124,153.7991557791829L229.138,155.23238544290263L229.25,153.76737896601358L229.43200000000002,152.0992585544785L229.58599999999998,152.1378716354569L229.6,151.50363764042655L229.67000000000002,154.68677786116797L229.86599999999999,154.77326166753966L229.978,154.09123973548412L229.99200000000002,151.93678235262632L230.10399999999998,151.32684234778085L230.916,153.13675102715692L230.944,152.22790508468947L231.49,152.4416595225533L231.504,151.52847598244747L231.672,152.1713232646386L232.078,152.49244688947996L232.722,148.7294400880734L233.03,151.39126598462462L234.10799999999998,150.3948966190219L234.304,153.60695415735245L234.43,152.38100641965866L234.64,150.38392679393291L234.878,152.7381572710971L234.99,151.85172902668515L235.34,150.84102408587933L235.46599999999998,154.49803485162556L235.76,150.26745161910853L235.91400000000002,154.68795722909272L236.09599999999998,148.9109349027276L236.15200000000002,154.01191419238845L236.58599999999998,151.5405191257596L236.65599999999998,152.35979794462523L236.74,152.88703749825558L236.894,150.48491834600765L236.95,152.0014517903328L237.16,153.37141026059786L237.356,152.18760326753062L237.762,153.46912764261168L238.266,153.89214360093075L238.91,156.4918447031329L238.92399999999998,152.42820165057978L238.98000000000002,154.00443796316782L239.37199999999999,154.32457014235356L239.54000000000002,151.9324029944837L239.68,153.61965154856443L239.736,153.12431189169487L239.932,153.1661698371172L240.142,151.15192664414644L240.464,151.29522451758385L240.58999999999997,152.36106467992067L240.786,150.51982426643372L240.898,148.8443847770492L242.452,153.34498575205603L242.67600000000002,153.17975848540664L242.87199999999999,154.12089408934116L243.06799999999998,152.8299355035027L243.19400000000002,154.47162810961404L243.6,154.62982129553956L243.74,150.2014670918385L243.866,153.4366995121042L244.09,153.3744620742897L244.174,153.40282405043644L244.38400000000001,153.1624205497404L244.468,153.7513216858109L244.482,150.84611593683562L244.86,152.84394358843565L244.888,153.9710376188159L245,152.34033901492754L245.40599999999998,152.28824278588095L246.54,152.28898824751377L246.86200000000002,154.6611059575031L246.93200000000002,153.10070401926833L247.35199999999998,152.91353307291865L247.8,152.3420680463314L247.96800000000002,149.75160022825003L248.108,154.53149472301203L248.486,148.4789525245627L248.64000000000001,151.28685556600493L248.962,148.7236829996109L249.06,152.256897131602L249.102,153.9468667122225L249.214,153.3593374453485L249.284,151.8437410481274L249.39600000000002,154.33493389065066L249.48000000000002,152.10187261551619L249.634,156.066216240637L250.222,154.375780792286L250.25,147.76124111314616L250.894,153.1704279432694L250.90800000000002,155.1899754529198L251.244,154.1441565218071L251.468,153.77897776290774L251.72,154.53166945775348L252.028,149.89691432813802" style="fill: none;" fill="none"></path></g></g></g></g></g></g><g transform="translate(50, 177)" clip-path="url(#clip_1)"><clipPath id="clip_1"><rect width="280" height="22"></rect></clipPath><g><g><line x1="0" y1="0" x2="0" y2="5" style="visibility: inherit;" fill="rgb(0, 0, 0)" stroke="rgb(204, 204, 204)" stroke-width="1px"></line><line x1="28" y1="0" x2="28" y2="5" style="visibility: inherit;" fill="rgb(0, 0, 0)" stroke="rgb(204, 204, 204)" stroke-width="1px"></line><line x1="56" y1="0" x2="56" y2="5" style="visibility: inherit;" fill="rgb(0, 0, 0)" stroke="rgb(204, 204, 204)" stroke-width="1px"></line><line x1="84" y1="0" x2="84" y2="5" style="visibility: inherit;" fill="rgb(0, 0, 0)" stroke="rgb(204, 204, 204)" stroke-width="1px"></line><line x1="112" y1="0" x2="112" y2="5" style="visibility: inherit;" fill="rgb(0, 0, 0)" stroke="rgb(204, 204, 204)" stroke-width="1px"></line><line x1="140" y1="0" x2="140" y2="5" style="visibility: inherit;" fill="rgb(0, 0, 0)" stroke="rgb(204, 204, 204)" stroke-width="1px"></line><line x1="168" y1="0" x2="168" y2="5" style="visibility: inherit;" fill="rgb(0, 0, 0)" stroke="rgb(204, 204, 204)" stroke-width="1px"></line><line x1="196" y1="0" x2="196" y2="5" style="visibility: inherit;" fill="rgb(0, 0, 0)" stroke="rgb(204, 204, 204)" stroke-width="1px"></line><line x1="224" y1="0" x2="224" y2="5" style="visibility: inherit;" fill="rgb(0, 0, 0)" stroke="rgb(204, 204, 204)" stroke-width="1px"></line><line x1="252" y1="0" x2="252" y2="5" style="visibility: inherit;" fill="rgb(0, 0, 0)" stroke="rgb(204, 204, 204)" stroke-width="1px"></line><line x1="280" y1="0" x2="280" y2="5" style="visibility: inherit;" fill="rgb(0, 0, 0)" stroke="rgb(204, 204, 204)" stroke-width="1px"></line></g><g transform="translate(0, 8)"><text x="0" y="0" dx="0em" dy="0.95em" style="text-anchor: middle; visibility: hidden; font-family: Roboto, sans-serif; font-size: 12px; font-weight: 200;" fill="rgb(33, 33, 33)" stroke="none" stroke-width="1px">-2k</text><text x="28" y="0" dx="0em" dy="0.95em" style="text-anchor: middle; visibility: inherit; font-family: Roboto, sans-serif; font-size: 12px; font-weight: 200;" fill="rgb(33, 33, 33)" stroke="none" stroke-width="1px">0</text><text x="56" y="0" dx="0em" dy="0.95em" style="text-anchor: middle; visibility: inherit; font-family: Roboto, sans-serif; font-size: 12px; font-weight: 200;" fill="rgb(33, 33, 33)" stroke="none" stroke-width="1px">2k</text><text x="84" y="0" dx="0em" dy="0.95em" style="text-anchor: middle; visibility: inherit; font-family: Roboto, sans-serif; font-size: 12px; font-weight: 200;" fill="rgb(33, 33, 33)" stroke="none" stroke-width="1px">4k</text><text x="112" y="0" dx="0em" dy="0.95em" style="text-anchor: middle; visibility: inherit; font-family: Roboto, sans-serif; font-size: 12px; font-weight: 200;" fill="rgb(33, 33, 33)" stroke="none" stroke-width="1px">6k</text><text x="140" y="0" dx="0em" dy="0.95em" style="text-anchor: middle; visibility: inherit; font-family: Roboto, sans-serif; font-size: 12px; font-weight: 200;" fill="rgb(33, 33, 33)" stroke="none" stroke-width="1px">8k</text><text x="168" y="0" dx="0em" dy="0.95em" style="text-anchor: middle; visibility: inherit; font-family: Roboto, sans-serif; font-size: 12px; font-weight: 200;" fill="rgb(33, 33, 33)" stroke="none" stroke-width="1px">10k</text><text x="196" y="0" dx="0em" dy="0.95em" style="text-anchor: middle; visibility: inherit; font-family: Roboto, sans-serif; font-size: 12px; font-weight: 200;" fill="rgb(33, 33, 33)" stroke="none" stroke-width="1px">12k</text><text x="224" y="0" dx="0em" dy="0.95em" style="text-anchor: middle; visibility: inherit; font-family: Roboto, sans-serif; font-size: 12px; font-weight: 200;" fill="rgb(33, 33, 33)" stroke="none" stroke-width="1px">14k</text><text x="252" y="0" dx="0em" dy="0.95em" style="text-anchor: middle; visibility: inherit; font-family: Roboto, sans-serif; font-size: 12px; font-weight: 200;" fill="rgb(33, 33, 33)" stroke="none" stroke-width="1px">16k</text><text x="280" y="0" dx="0em" dy="0.95em" style="text-anchor: middle; visibility: hidden; font-family: Roboto, sans-serif; font-size: 12px; font-weight: 200;" fill="rgb(33, 33, 33)" stroke="none" stroke-width="1px">18k</text></g><line x1="0" y1="0" x2="280" y2="0" fill="rgb(0, 0, 0)" stroke="rgb(204, 204, 204)" stroke-width="1px"></line></g></g></g></g></svg>