<svg viewBox="0 0 330 200" xmlns="http://www.w3.org/2000/svg"><g><g><g><g><g><line x1="40" y1="177" x2="35" y2="177" style="visibility: inherit;" fill="rgb(0, 0, 0)" stroke="rgb(204, 204, 204)" stroke-width="1px"></line><line x1="40" y1="163.3846153846154" x2="35" y2="163.3846153846154" style="visibility: inherit;" fill="rgb(0, 0, 0)" stroke="rgb(204, 204, 204)" stroke-width="1px"></line><line x1="40" y1="149.76923076923077" x2="35" y2="149.76923076923077" style="visibility: inherit;" fill="rgb(0, 0, 0)" stroke="rgb(204, 204, 204)" stroke-width="1px"></line><line x1="40" y1="136.15384615384613" x2="35" y2="136.15384615384613" style="visibility: inherit;" fill="rgb(0, 0, 0)" stroke="rgb(204, 204, 204)" stroke-width="1px"></line><line x1="40" y1="122.53846153846153" x2="35" y2="122.53846153846153" style="visibility: inherit;" fill="rgb(0, 0, 0)" stroke="rgb(204, 204, 204)" stroke-width="1px"></line><line x1="40" y1="108.9230769230769" x2="35" y2="108.9230769230769" style="visibility: inherit;" fill="rgb(0, 0, 0)" stroke="rgb(204, 204, 204)" stroke-width="1px"></line><line x1="40" y1="95.30769230769228" x2="35" y2="95.30769230769228" style="visibility: inherit;" fill="rgb(0, 0, 0)" stroke="rgb(204, 204, 204)" stroke-width="1px"></line><line x1="40" y1="81.69230769230765" x2="35" y2="81.69230769230765" style="visibility: inherit;" fill="rgb(0, 0, 0)" stroke="rgb(204, 204, 204)" stroke-width="1px"></line><line x1="40" y1="68.0769230769231" x2="35" y2="68.0769230769231" style="visibility: inherit;" fill="rgb(0, 0, 0)" stroke="rgb(204, 204, 204)" stroke-width="1px"></line><line x1="40" y1="54.46153846153847" x2="35" y2="54.46153846153847" style="visibility: inherit;" fill="rgb(0, 0, 0)" stroke="rgb(204, 204, 204)" stroke-width="1px"></line><line x1="40" y1="40.84615384615382" x2="35" y2="40.84615384615382" style="visibility: inherit;" fill="rgb(0, 0, 0)" stroke="rgb(204, 204, 204)" stroke-width="1px"></line><line x1="40" y1="27.230769230769194" x2="35" y2="27.230769230769194" style="visibility: inherit;" fill="rgb(0, 0, 0)" stroke="rgb(204, 204, 204)" stroke-width="1px"></line><line x1="40" y1="13.615384615384567" x2="35" y2="13.615384615384567" style="visibility: inherit;" fill="rgb(0, 0, 0)" stroke="rgb(204, 204, 204)" stroke-width="1px"></line><line x1="40" y1="0" x2="35" y2="0" style="visibility: inherit;" fill="rgb(0, 0, 0)" stroke="rgb(204, 204, 204)" stroke-width="1px"></line></g><g transform="translate(30, 0)"><text x="0" y="177" dx="0em" dy="0.3em" style="text-anchor: end; visibility: hidden; font-family: Roboto, sans-serif; font-size: 12px; font-weight: 200;" fill="rgb(33, 33, 33)" stroke="none" stroke-width="1px">3</text><text x="0" y="163.3846153846154" dx="0em" dy="0.3em" style="text-anchor: end; visibility: inherit; font-family: Roboto, sans-serif; font-size: 12px; font-weight: 200;" fill="rgb(33, 33, 33)" stroke="none" stroke-width="1px">3.2</text><text x="0" y="149.76923076923077" dx="0em" dy="0.3em" style="text-anchor: end; visibility: hidden; font-family: Roboto, sans-serif; font-size: 12px; font-weight: 200;" fill="rgb(33, 33, 33)" stroke="none" stroke-width="1px">3.4</text><text x="0" y="136.15384615384613" dx="0em" dy="0.3em" style="text-anchor: end; visibility: inherit; font-family: Roboto, sans-serif; font-size: 12px; font-weight: 200;" fill="rgb(33, 33, 33)" stroke="none" stroke-width="1px">3.6</text><text x="0" y="122.53846153846153" dx="0em" dy="0.3em" style="text-anchor: end; visibility: hidden; font-family: Roboto, sans-serif; font-size: 12px; font-weight: 200;" fill="rgb(33, 33, 33)" stroke="none" stroke-width="1px">3.8</text><text x="0" y="108.9230769230769" dx="0em" dy="0.3em" style="text-anchor: end; visibility: inherit; font-family: Roboto, sans-serif; font-size: 12px; font-weight: 200;" fill="rgb(33, 33, 33)" stroke="none" stroke-width="1px">4</text><text x="0" y="95.30769230769228" dx="0em" dy="0.3em" style="text-anchor: end; visibility: hidden; font-family: Roboto, sans-serif; font-size: 12px; font-weight: 200;" fill="rgb(33, 33, 33)" stroke="none" stroke-width="1px">4.2</text><text x="0" y="81.69230769230765" dx="0em" dy="0.3em" style="text-anchor: end; visibility: inherit; font-family: Roboto, sans-serif; font-size: 12px; font-weight: 200;" fill="rgb(33, 33, 33)" stroke="none" stroke-width="1px">4.4</text><text x="0" y="68.0769230769231" dx="0em" dy="0.3em" style="text-anchor: end; visibility: hidden; font-family: Roboto, sans-serif; font-size: 12px; font-weight: 200;" fill="rgb(33, 33, 33)" stroke="none" stroke-width="1px">4.6</text><text x="0" y="54.46153846153847" dx="0em" dy="0.3em" style="text-anchor: end; visibility: inherit; font-family: Roboto, sans-serif; font-size: 12px; font-weight: 200;" fill="rgb(33, 33, 33)" stroke="none" stroke-width="1px">4.8</text><text x="0" y="40.84615384615382" dx="0em" dy="0.3em" style="text-anchor: end; visibility: hidden; font-family: Roboto, sans-serif; font-size: 12px; font-weight: 200;" fill="rgb(33, 33, 33)" stroke="none" stroke-width="1px">5</text><text x="0" y="27.230769230769194" dx="0em" dy="0.3em" style="text-anchor: end; visibility: inherit; font-family: Roboto, sans-serif; font-size: 12px; font-weight: 200;" fill="rgb(33, 33, 33)" stroke="none" stroke-width="1px">5.2</text><text x="0" y="13.615384615384567" dx="0em" dy="0.3em" style="text-anchor: end; visibility: hidden; font-family: Roboto, sans-serif; font-size: 12px; font-weight: 200;" fill="rgb(33, 33, 33)" stroke="none" stroke-width="1px">5.4</text><text x="0" y="0" dx="0em" dy="0.3em" style="text-anchor: end; visibility: hidden; font-family: Roboto, sans-serif; font-size: 12px; font-weight: 200;" fill="rgb(33, 33, 33)" stroke="none" stroke-width="1px">5.6</text></g><line x1="40" y1="0" x2="40" y2="177" fill="rgb(0, 0, 0)" stroke="rgb(204, 204, 204)" stroke-width="1px"></line></g></g><g transform="translate(40, 0)" clip-path="url(#clip_0)"><clipPath id="clip_0"><rect width="290" height="176"></rect></clipPath><g><g><g><line x1="0" y1="0" x2="0" y2="177" fill="rgb(0, 0, 0)" stroke="rgb(66, 66, 66)" stroke-width="1px" opacity="0.25"></line><line x1="19.333333333333332" y1="0" x2="19.333333333333332" y2="177" fill="rgb(0, 0, 0)" stroke="rgb(66, 66, 66)" stroke-width="1px" opacity="0.25"></line><line x1="38.666666666666664" y1="0" x2="38.666666666666664" y2="177" fill="rgb(0, 0, 0)" stroke="rgb(66, 66, 66)" stroke-width="1px" opacity="0.25"></line><line x1="58" y1="0" x2="58" y2="177" fill="rgb(0, 0, 0)" stroke="rgb(66, 66, 66)" stroke-width="1px" opacity="0.25"></line><line x1="77.33333333333333" y1="0" x2="77.33333333333333" y2="177" fill="rgb(0, 0, 0)" stroke="rgb(66, 66, 66)" stroke-width="1px" opacity="0.25"></line><line x1="96.66666666666666" y1="0" x2="96.66666666666666" y2="177" fill="rgb(0, 0, 0)" stroke="rgb(66, 66, 66)" stroke-width="1px" opacity="0.25"></line><line x1="116" y1="0" x2="116" y2="177" fill="rgb(0, 0, 0)" stroke="rgb(66, 66, 66)" stroke-width="1px" opacity="0.25"></line><line x1="135.33333333333334" y1="0" x2="135.33333333333334" y2="177" fill="rgb(0, 0, 0)" stroke="rgb(66, 66, 66)" stroke-width="1px" opacity="0.25"></line><line x1="154.66666666666666" y1="0" x2="154.66666666666666" y2="177" fill="rgb(0, 0, 0)" stroke="rgb(66, 66, 66)" stroke-width="1px" opacity="0.25"></line><line x1="174" y1="0" x2="174" y2="177" fill="rgb(0, 0, 0)" stroke="rgb(66, 66, 66)" stroke-width="1px" opacity="0.25"></line><line x1="193.33333333333331" y1="0" x2="193.33333333333331" y2="177" fill="rgb(0, 0, 0)" stroke="rgb(66, 66, 66)" stroke-width="1px" opacity="0.25"></line><line x1="212.66666666666666" y1="0" x2="212.66666666666666" y2="177" fill="rgb(0, 0, 0)" stroke="rgb(66, 66, 66)" stroke-width="1px" opacity="0.25"></line><line x1="232" y1="0" x2="232" y2="177" fill="rgb(0, 0, 0)" stroke="rgb(66, 66, 66)" stroke-width="1px" opacity="0.25"></line><line x1="251.33333333333334" y1="0" x2="251.33333333333334" y2="177" fill="rgb(0, 0, 0)" stroke="rgb(66, 66, 66)" stroke-width="1px" opacity="0.25"></line><line x1="270.6666666666667" y1="0" x2="270.6666666666667" y2="177" fill="rgb(0, 0, 0)" stroke="rgb(66, 66, 66)" stroke-width="1px" opacity="0.25"></line><line x1="290" y1="0" x2="290" y2="177" fill="rgb(0, 0, 0)" stroke="rgb(66, 66, 66)" stroke-width="1px" opacity="0.25"></line></g><g><line x1="0" y1="177" x2="290" y2="177" fill="rgb(0, 0, 0)" stroke="rgb(66, 66, 66)" stroke-width="1px" opacity="0.25"></line><line x1="0" y1="163.3846153846154" x2="290" y2="163.3846153846154" fill="rgb(0, 0, 0)" stroke="rgb(66, 66, 66)" stroke-width="1px" opacity="0.25"></line><line x1="0" y1="149.76923076923077" x2="290" y2="149.76923076923077" fill="rgb(0, 0, 0)" stroke="rgb(66, 66, 66)" stroke-width="1px" opacity="0.25"></line><line x1="0" y1="136.15384615384613" x2="290" y2="136.15384615384613" fill="rgb(0, 0, 0)" stroke="rgb(66, 66, 66)" stroke-width="1px" opacity="0.25"></line><line x1="0" y1="122.53846153846153" x2="290" y2="122.53846153846153" fill="rgb(0, 0, 0)" stroke="rgb(66, 66, 66)" stroke-width="1px" opacity="0.25"></line><line x1="0" y1="108.9230769230769" x2="290" y2="108.9230769230769" fill="rgb(0, 0, 0)" stroke="rgb(66, 66, 66)" stroke-width="1px" opacity="0.25"></line><line x1="0" y1="95.30769230769228" x2="290" y2="95.30769230769228" fill="rgb(0, 0, 0)" stroke="rgb(66, 66, 66)" stroke-width="1px" opacity="0.25"></line><line x1="0" y1="81.69230769230765" x2="290" y2="81.69230769230765" fill="rgb(0, 0, 0)" stroke="rgb(66, 66, 66)" stroke-width="1px" opacity="0.25"></line><line x1="0" y1="68.0769230769231" x2="290" y2="68.0769230769231" fill="rgb(0, 0, 0)" stroke="rgb(66, 66, 66)" stroke-width="1px" opacity="0.25"></line><line x1="0" y1="54.46153846153847" x2="290" y2="54.46153846153847" fill="rgb(0, 0, 0)" stroke="rgb(66, 66, 66)" stroke-width="1px" opacity="0.25"></line><line x1="0" y1="40.84615384615382" x2="290" y2="40.84615384615382" fill="rgb(0, 0, 0)" stroke="rgb(66, 66, 66)" stroke-width="1px" opacity="0.25"></line><line x1="0" y1="27.230769230769194" x2="290" y2="27.230769230769194" fill="rgb(0, 0, 0)" stroke="rgb(66, 66, 66)" stroke-width="1px" opacity="0.25"></line><line x1="0" y1="13.615384615384567" x2="290" y2="13.615384615384567" fill="rgb(0, 0, 0)" stroke="rgb(66, 66, 66)" stroke-width="1px" opacity="0.25"></line><line x1="0" y1="0" x2="290" y2="0" fill="rgb(0, 0, 0)" stroke="rgb(66, 66, 66)" stroke-width="1px" opacity="0.25"></line></g></g></g><g><g><line x1="0" y1="381.2307692307693" x2="290" y2="381.2307692307693" fill="rgb(0, 0, 0)" stroke="rgb(153, 153, 153)" stroke-width="1.5px"></line></g></g><g><g><line x1="19.333333333333332" y1="0" x2="19.333333333333332" y2="177" fill="rgb(0, 0, 0)" stroke="rgb(153, 153, 153)" stroke-width="1.5px"></line></g></g><g><g><g><g><g><path stroke="rgb(255, 112, 67)" stroke-width="2px" d="M19.623333333333335,8.924513670114347L19.720000000000002,9.620267340770102L20.3,12.768825798244198L20.686666666666667,16.044607241903392L20.783333333333335,18.051931344443943L21.073333333333334,19.9543901451863L21.169999999999998,21.700970549023513L21.266666666666666,22.97102648912629L21.459999999999997,24.111120727051105L21.55666666666667,25.41535619103337L21.846666666666668,26.959695368100757L21.94333333333333,28.794797260231665L23.006666666666668,34.226596637828365L23.2,37.374574774728124L23.876666666666665,42.16299346340061L23.973333333333333,45.6689132839731L24.07,48.02301056066154L24.263333333333332,50.45683245471027L24.553333333333335,52.25626378929959L24.843333333333334,54.38921811776892L25.133333333333333,55.118263014994106L25.229999999999997,57.80877859072013L25.326666666666668,59.78149617704176L25.423333333333336,59.97508500610986L25.616666666666667,61.90204216990331L25.713333333333335,63.27743305723093L25.81,64.48620685421233L25.906666666666666,64.67517830196606L26.099999999999998,63.848966041192575L26.196666666666665,65.07012064433351L26.776666666666667,67.85186801784651L26.97,71.27854353943322L27.26,73.90263980405224L27.55,72.67429737051575L27.936666666666667,74.16770298728412L28.903333333333332,75.73293587430146L29.290000000000003,76.18421660080367L29.58,76.75609889829346L29.676666666666666,78.30835819849464L29.869999999999997,76.20935787870269L30.546666666666667,76.63946744856082L31.03,75.36577385407325L31.416666666666668,78.40526592206743L31.513333333333332,79.25933297480798L31.706666666666667,79.90180141752462L31.9,80.19046898776332L31.99666666666667,79.5489740982285L32.480000000000004,78.04913784165963L32.57666666666667,79.67795628325071L33.25333333333333,78.92422568715246L33.446666666666665,78.21203478433021L33.54333333333334,79.87083292528106L33.833333333333336,80.3741107164967L34.51,79.7369501294025L34.8,76.7746572279786L34.99333333333333,75.53792305171491L35.18666666666667,78.5509502979157L35.766666666666666,77.74384140783302L35.86333333333333,77.33580891058017L35.96,77.59706585817486L36.25,79.35957884044299L36.443333333333335,78.400974155509L36.83,78.41075650974265L37.12,79.01103689194362L37.21666666666666,79.50788146943692L37.31333333333334,79.90986535685835L37.7,78.94878166023977L37.79666666666667,78.71758785905888L37.89333333333333,78.1119178606051L38.57,79.17929363135512L38.86,80.7208662759763L38.95666666666666,85.49858705038984L39.05333333333333,82.92705641794986L39.150000000000006,87.25833841925137L39.343333333333334,89.7409989457628L39.730000000000004,94.57330971808118L39.92333333333333,99.34477001523119L40.11666666666667,101.38513400703064L40.50333333333333,101.31264106729489L40.6,101.49880467739706L40.696666666666665,100.25521778580367L40.98666666666667,101.76096625040064L41.47,101.17633633147345L42.43666666666667,101.92738321391374L42.629999999999995,101.02679047886188L42.919999999999995,99.2792396292079L43.01666666666667,100.06034914110647L43.11333333333334,100.76736094809912L43.88666666666666,101.1415641735817L44.27333333333333,101.1549168660124L44.37,102.75085938087078L44.46666666666666,101.9072991432789L44.66,103.36096107999434L45.43333333333334,84.83343995741666L45.53,78.43258591189368L45.82,74.9652261440694L46.013333333333335,78.81624696879024L46.20666666666666,83.33402796936478L46.4,82.87893682286453L46.593333333333334,81.60845382779792L46.69,85.03254265648101L46.88333333333333,86.2859343968014L47.07666666666667,86.35992438824518L47.17333333333333,86.12474604295308L47.36666666666667,87.72780115512978L47.85,84.95183604515687L47.946666666666665,86.39291063283139L48.04333333333333,85.859239222153L48.14,86.17045357686149L48.913333333333334,86.54926400790046L49.10666666666667,84.66592257862939L49.49333333333333,84.68553902433169L49.879999999999995,86.40032267865584L50.07333333333333,87.01261956685397L50.169999999999995,85.78584715655994L50.459999999999994,86.84021011137511L51.42666666666667,89.03294567918138L51.91,86.0627720009912L52.00666666666667,86.34409630606345L52.199999999999996,86.75076954182619L52.489999999999995,87.05002313761355L52.68333333333334,85.13599644294595L52.78,85.1929967387299L53.166666666666664,85.1272151680595L53.36,87.02006880115307L53.553333333333335,86.30579402433946L53.94,86.5135935082034L54.32666666666666,84.83591391096641L54.42333333333334,86.6577638382415L54.52,86.58385307023659L54.61666666666667,87.95889684768208L54.71333333333334,87.5926470773733L54.81,86.19381375782818L55.486666666666665,87.12955336559308L55.776666666666664,86.23514601553882L55.873333333333335,86.72981982989964L56.64666666666667,86.22540674591531L57.03333333333333,86.23759752502723L57.22666666666667,87.81644328827078L57.42,86.02435472430057L57.71,86.69270536563783L58.19333333333333,85.04259667965354L58.38666666666667,84.167809125205L58.870000000000005,84.86720660619837L59.25666666666667,84.59878888258918L59.35333333333333,86.20155911669573L59.449999999999996,86.39472518395033L59.739999999999995,85.78475733280109L60.029999999999994,85.42210069062115L60.12666666666667,85.51473578668711L60.41666666666667,85.1186460509401L60.513333333333335,86.85285302175244L60.9,86.34406263197894L61.38333333333333,86.70945817385754L61.48,87.2648549116622L61.57666666666667,86.83416747533639L61.769999999999996,86.50746877802504L61.86666666666667,85.79706294241788L61.96333333333334,84.20046166353137L62.156666666666666,83.70657202328412L62.25333333333334,84.40860144057052L62.446666666666665,83.13571276887397L62.833333333333336,85.0769143462703L63.026666666666664,85.53318020695367L63.123333333333335,84.27933547355622L63.22,84.24884491652371L63.413333333333334,85.42263166692238L63.8,86.32724376807899L63.89666666666666,86.80373741286246L64.28333333333333,86.19603049492113L64.38,85.95311139939312L64.57333333333334,85.12843193363004L64.76666666666667,82.98332811628902L65.15333333333334,85.48593765041305L65.25,86.98412736380736L65.54,86.88959916996053L65.73333333333333,86.25737692364004L65.83,85.19053271863244L66.02333333333333,84.79449852287493L66.12,83.71835575458472L66.41,86.55443708779347L66.50666666666666,88.25389148311665L66.60333333333332,88.62790276624561L66.79666666666667,88.49073917784665L67.08666666666667,89.15836905907612L67.47333333333333,88.23198143570389L67.86,86.31998084832792L67.95666666666666,86.23401533688228L68.24666666666667,87.6610232539482L68.53666666666666,88.25562640940953L68.63333333333333,86.52813242394441L68.72999999999999,87.48388273383253L68.82666666666667,89.3452276822447L68.92333333333333,90.44850465368654L69.02,89.29285459392275L69.31,88.94586885376573L69.40666666666667,87.90791979260148L69.50333333333333,87.24533944164313L69.6,85.9169351865923L69.89,85.08961244698203L70.56666666666668,88.31230611048568L70.85666666666667,85.56742572773037L70.95333333333333,85.38325644266193L71.14666666666666,86.48910425328776L71.24333333333334,85.39646599517708L71.34,86.72465076984982L71.53333333333333,87.78348784549709L71.72666666666666,86.97134003994452L71.92,84.8799805464417L72.11333333333333,85.22228887671194L72.21,87.54736484331421L72.5,85.91872863593146L72.69333333333333,86.11760494713224L72.98333333333333,90.12279279087831L73.08,88.60529653646076L73.66,89.18152737866357L73.75666666666667,89.5399129258929L73.85333333333332,91.37135047488668L74.24,92.14740180421441L74.53,91.39234634951048L74.72333333333333,90.91620041283221L75.01333333333334,91.1895796232862L75.4,93.14391668876664L75.78666666666666,87.86769617297489L75.88333333333333,85.10509806278897L75.98,92.45950443480851L76.17333333333333,89.71883073318362L76.36666666666666,89.35507584410843L76.46333333333334,90.15241673284915L76.56,88.99458749616322L76.75333333333333,89.64873462906907L76.94666666666666,87.8333272630841L77.14,88.25858558890138L77.23666666666666,91.70685897322797L77.52666666666666,90.72641863945809L77.62333333333333,90.71893153411052L78.10666666666665,88.67157843281885L78.30000000000001,88.94020497313407L78.59,91.15931690548315L78.68666666666667,91.27909616992471L78.88000000000001,90.14698871133547L79.26666666666667,89.83926679998712L79.46000000000001,90.2908941259893L79.55666666666666,89.36351785458903L79.84666666666666,88.84426712355757L80.04,88.55171321708546L80.13666666666666,90.566495312829L80.52333333333334,89.77219778466814L80.91000000000001,91.49097174873341L81.2,91.7480787497828L81.29666666666667,90.79686943204086L81.39333333333333,91.52263443728658L81.49000000000001,89.69564931107703L81.58666666666666,88.14882621337398L82.07,89.78101821642771L82.26333333333334,90.78648448848789L82.36,89.51335354733138L82.55333333333334,88.08602466818904L82.64999999999999,89.60564813902002L82.94,88.84153335304L83.13333333333334,88.49513493186797L83.80999999999999,89.69646720367457L84.1,91.41003338722598L84.58333333333334,91.17641642046286L84.67999999999999,90.63835783673252L84.77666666666667,90.51620033811975L85.06666666666666,89.78814225041354L85.25999999999999,88.41895811941315L85.35666666666667,88.67667919645818L85.45333333333333,89.81517119831831L85.74333333333334,88.85733218887718L86.22666666666667,89.81276503833006L86.42,91.14757403741173L86.61333333333334,90.48197389984527L86.71,89.15170583425905L86.90333333333334,88.76993651430709L87.19333333333334,88.82736807700846L87.28999999999999,87.9596929996193L87.48333333333333,90.03917174447841L87.87,88.71750984917263L87.96666666666667,88.77682465328267L88.16,90.97931666473949L88.45,91.20647917660621L88.64333333333333,89.43920210698163L88.93333333333332,90.47494672265688L89.03,89.98358365061264L89.22333333333333,88.67406792554074L89.41666666666667,88.9465808943907L89.51333333333332,87.84252786355748L89.70666666666668,88.35507635535089L89.80333333333333,89.84166293850164L89.99666666666667,92.4856067472412L90.09333333333333,90.3089976331742L90.19,89.88271573266141L90.67333333333333,91.09140652512116L91.06,91.00774268885293L91.25333333333333,89.28710906851192L92.41333333333333,87.33246868524306L92.60666666666667,87.30426771721179L93.18666666666667,88.40654542200934L93.28333333333333,88.37370111208293L93.57333333333332,88.58800375534695L93.67,88.0550178000362L93.96000000000001,86.79955287996349L94.25,85.86280092776025L94.34666666666666,88.22782580272171L94.54,89.7433685609036L94.63666666666666,88.50098311868233L94.73333333333333,88.6903162752527L94.83,89.95194036141815L94.92666666666666,88.23827492406052L95.50666666666666,89.14455368781597L95.79666666666667,88.41473525975238L97.05333333333333,86.44781164241894L97.15,88.68733190521363L97.24666666666666,86.32421425824985L97.34333333333333,86.1195377835829L97.63333333333334,88.04661742852099L98.40666666666667,89.66768945184009L98.50333333333333,89.72124070756551L99.27666666666666,90.78937714137844L99.37333333333333,91.43888080436298L99.75999999999999,89.20259484884286L99.85666666666667,88.21866704137635L100.05,86.63075220330384L100.14666666666666,86.32598890555354L100.43666666666667,86.31182740376629L100.53333333333333,88.12510183095979L100.82333333333334,88.05355088633783L101.01666666666667,88.07420611445366L101.5,89.69875949384405L101.59666666666666,90.00227639074562L101.88666666666667,89.90604772977677L102.17666666666666,90.48685630310699L102.46666666666667,93.77522035100765L102.66,95.56323359175973L102.94999999999999,93.95654367068084L103.04666666666667,92.1108724844285L103.43333333333334,92.09134910030443L103.53,93.81104627013328L104.78666666666666,94.98422837618753L104.88333333333334,94.12550082423547L104.97999999999999,94.59934347502883L105.36666666666667,95.8161541595929L105.56,96.64034027536717L105.85,96.42391679233778L106.04333333333332,95.17418921548774L106.14,96.96609646139807L106.42999999999999,96.63231619264411L106.52666666666667,93.74600590598327L107.01,95.51104891360386L107.10666666666667,95.5650893490074L107.3,95.00102509777021L107.39666666666668,95.57735461930285L107.68666666666667,96.99790418616533L108.07333333333332,97.586256141906L108.17,97.68587201470524L108.36333333333333,95.66855318236676L109.04,95.55015734230014L109.23333333333333,97.15719012669831L109.33,95.17757057743687L109.42666666666668,96.12953810451876L109.71666666666667,97.68651268815074L110.10333333333332,96.07108495288443L110.29666666666667,96.39657896550504L110.39333333333333,97.24578197520336L110.68333333333332,93.70506913312472L111.07000000000001,94.821828963677L111.36,95.11897891072856L111.65,96.10717297747023L112.13333333333333,97.02361477292762L112.32666666666665,96.14309161965821L112.42333333333333,95.95567653492876L112.61666666666666,96.7224825588122L112.81,95.92461399653472L112.90666666666667,96.58176342590309L113.87333333333333,93.91752051539947L113.97,93.04888048445287L114.26,92.17711111526137L114.64666666666666,93.41563700348863L115.03333333333333,95.59591875041427L115.22666666666666,93.845217629737L115.42,95.73428632195464L115.61333333333333,96.89089213971161L115.80666666666666,95.00052221056598L115.90333333333334,95.65745379405668L116.19333333333333,95.97077035922587L116.29,94.81508351117098L116.38666666666666,95.95554441752174L116.58000000000001,96.96541087492051L117.06333333333333,97.41986489324779L117.25666666666666,95.95082928234667L117.45,95.58454764229805L118.12666666666667,94.04707115634396L118.51333333333334,93.73494137556438L118.70666666666666,95.3344412235132L118.80333333333334,93.31469802233002L119.38333333333334,93.99406529859466L119.47999999999999,92.74888349044551L119.57666666666667,92.43553937677555L119.67333333333333,92.45591045327009L119.77,94.58692812726642L120.15666666666667,92.73030587960882L120.44666666666667,92.48129151421548L121.41333333333334,93.76573802510173L121.60666666666667,93.90040515167463L121.70333333333333,93.85215106466107L121.8,95.25830026826631L121.99333333333334,95.3769013774843L122.28333333333335,94.46747481732126L122.47666666666667,95.1989234056891L122.67,95.8853837241057L122.76666666666667,95.04866966587399L122.86333333333334,96.1833943865699L122.96,93.85593423314293L123.05666666666667,93.3128867616453L123.15333333333334,95.68042374259038L123.44333333333334,95.36471742844371L123.53999999999999,95.98583398595463L123.73333333333333,96.41715555115624L123.83,95.63328168823769L123.92666666666668,96.82547205707108L124.21666666666667,96.22053378649345L124.31333333333333,96.26753494545186L124.41,95.43412669542056L124.79666666666667,95.63533035450445L125.47333333333333,95.24923597937939L125.66666666666667,95.2920876838425L125.86,95.09274888070529L125.95666666666668,96.71115299757506L126.05333333333333,96.09905590142213L126.34333333333333,95.76405149598774L126.53666666666668,95.69320691030673L126.73,94.847768813472L126.82666666666667,93.78536054498016L127.02,94.91750163347847L127.50333333333333,92.56989729250724L127.69666666666667,93.39545931173666L127.79333333333332,95.2045047552737L128.08333333333334,95.22487969548693L128.18,97.02916712557604L128.37333333333333,95.28517765583406L128.47,96.47686891379885L128.76,97.1109763604394L128.95333333333332,95.26406821877174L129.05,95.19477265088159L129.14666666666668,94.20203128462072L129.43666666666667,94.37394764380521L130.11333333333334,93.0695362304904L130.30666666666667,91.98987866731034L130.5,93.05059042013151L130.59666666666666,93.1217310555504L130.69333333333333,93.19804566117635L131.46666666666667,93.72655149843261L131.66,94.17804605185874L131.85333333333332,94.55378078839344L132.14333333333335,97.7090763901174L132.72333333333333,97.54821313577662L132.82,97.82312088519377L133.01333333333332,97.86554244712252L133.11,98.37625744811314L133.20666666666665,97.25024664463035L133.59333333333333,98.34949797703608L133.78666666666666,99.34937625943657L133.98000000000002,100.3926508663469L134.27,99.28237414313672L134.36666666666667,99.73861360155307L134.65666666666667,98.76202708521068L134.75333333333333,98.46442513397182L135.04333333333332,99.09071703576167L135.14000000000001,99.1598208875384L135.43,100.514744722394L135.81666666666666,102.12007385428693L135.91333333333333,99.45498563196443L136.01,99.43598191990318L136.20333333333335,99.36640849374814L136.59,99.21908630894703L136.68666666666667,97.70234335641312L137.07333333333332,98.95860342032326L137.55666666666667,99.92043835658566L137.75,100.72738047728338L138.13666666666666,98.66950331090142L138.42666666666668,99.25422408830995L138.52333333333334,101.130245661036L139.00666666666666,98.3265109795261L139.2,99.59605599180126L139.58666666666667,97.89705039242527L139.78,97.94488077866806L140.07,98.22548107715804L140.16666666666666,100.05622609641027L140.26333333333335,98.9146664410446L140.35999999999999,99.61839922164484L140.55333333333334,99.44639672069819L140.74666666666667,98.17266864225402L140.84333333333333,97.61336840959085L141.13333333333335,98.9565856984175L141.23,98.84315143595255L141.81,99.62198822379641L142.19666666666666,100.77477554947L142.68,99.1318481565018L142.77666666666667,100.12191284897916L142.87333333333333,100.68800871355668L143.26,99.05592228182618L143.55,99.09122547356442L144.03333333333333,99.39475844228542L144.32333333333332,98.46780795914192L144.80666666666667,99.334988223502L144.90333333333334,99.88264203946665L145.19333333333336,99.34141908950595L145.58,97.5350077506537L145.96666666666667,96.67661329707845L146.45,96.48231028218335L146.93333333333334,99.95777403716421L147.12666666666667,99.54875438225007L147.41666666666666,100.12656893113602L147.51333333333335,99.59885884208472L147.70666666666665,100.45439543149969L148.38333333333335,102.5460266643704L149.35,102.8449591529426L149.64000000000001,102.59795492115728L149.93,101.87992134089673L150.02666666666667,99.9577240958307L150.22,100.5864570552955L150.60666666666665,99.17420532425113L150.8,99.58559852543164L151.18666666666667,99.3173985967888L151.28333333333333,99.98515853133614L151.38,100.17598266739506L151.47666666666666,100.37081313289362L151.57333333333332,98.94556436265573L152.25,100.5168033275356L152.34666666666666,100.3894044006492L152.73333333333332,100.69167513104647L153.21666666666667,100.31402273539432L153.31333333333333,100.19543755528034L153.70000000000002,99.38447344954062L153.99,98.67355931562558L154.37666666666667,100.01368832492409L156.31,100.20289096408L156.69666666666666,101.3566642060866L157.66333333333333,101.6110210790766L157.76000000000002,100.64256712871757L158.14666666666668,99.09359352864378L158.34,99.1000125619119L158.43666666666667,98.12274438583157L158.53333333333333,98.51338694451537L158.63000000000002,98.55733971112404L158.92000000000002,97.57386974558216L159.21,97.82417980562943L159.40333333333334,99.88756203858065L159.59666666666666,102.3515493955539L159.69333333333333,100.74124591681702L159.88666666666666,100.86691645784265L159.98333333333332,101.75987083546936L160.17666666666668,101.27956920808283L160.2733333333333,100.10266735246296L160.46666666666667,99.62108264848669L160.56333333333333,100.2491332569058L160.75666666666666,100.89561569515719L161.43333333333334,98.78947992770036L161.72333333333333,100.59112200343884L161.82000000000002,102.15404524420575L162.01333333333332,100.78902475934456L162.69000000000003,101.91851390862278L163.07666666666668,99.3950255462892L163.36666666666667,100.49019646251097L163.65666666666667,100.87034956989412L163.75333333333333,100.910384855321L164.14,102.98144791958252L164.23666666666668,104.16473295674315L164.52666666666667,101.27121894497719L165.20333333333332,101.76767700461592L165.29999999999998,103.33181418828073L165.39666666666668,101.96632748203771L165.58999999999997,102.08594198118949L165.78333333333333,102.92757014136453L165.88,100.62024224726609L166.55666666666667,101.50911883210553L167.04,101.30737117989264L167.61999999999998,101.04050505199076L167.91,102.78659583444531L168.0066666666667,100.36415650344664L168.29666666666668,99.80815244851576L168.97333333333333,99.69998938065072L169.26333333333332,100.1345977567145L169.35999999999999,100.92861608529371L169.45666666666668,102.31561409979398L170.32666666666668,103.01312321064164L170.61666666666667,102.29841996215156L170.71333333333334,100.00423723953085L170.90666666666667,100.10321150030651L171.1,99.6818526485688L171.1966666666667,100.14995768019166L171.29333333333332,100.2577743670261L171.39,102.37506369917168L171.67999999999998,103.97101422740471L172.0666666666667,102.38533453378074L172.16333333333333,100.39064963736392L172.26,102.23044020626061L172.54999999999998,102.55053555003057L173.03333333333333,101.37934811271442L173.51666666666668,101.33328201204255L173.61333333333334,102.5512721024047L173.70999999999998,101.84896413577142L174.0966666666667,100.20817858310983L174.19333333333333,100.50682366550969L174.29,101.57374476129877L175.06333333333333,102.27957374112233L175.35333333333335,101.38907723487957L175.54666666666665,103.72939742124998L176.12666666666667,103.08949515394066L176.32,101.52462651694373L176.60999999999999,99.01466745538856L176.99666666666664,100.52271323169354L177.38333333333335,99.88744522147275L177.57666666666665,101.94987729382868L177.86666666666665,103.42526712853198L177.96333333333334,102.53774672696234L178.44666666666666,103.95868307505212L178.54333333333335,101.11395879158793L178.93,101.40969371355607L179.02666666666664,102.3280513590306L179.12333333333333,101.03838897840099L179.22,100.93713111430266L179.41333333333336,102.70823679142188L179.60666666666665,104.46492934550177L179.99333333333334,103.69148627621821L180.18666666666667,103.7859288674765L180.38,103.92156701862011L180.67,103.72340353843319L180.76666666666665,103.26011377422522L181.15333333333334,102.31295038921587L181.44333333333336,101.03231486431376L181.63666666666666,101.82995935667981L182.21666666666667,101.610296895441L182.31333333333333,101.67702161964893L182.41,102.9604138924812L182.50666666666666,104.40409251508233L182.99,102.57427237306307L183.08666666666664,101.58646408794732L183.18333333333334,102.22058113585042L183.57,103.22883286577537L183.86,103.04218815130771L184.05333333333334,105.48133301125863L184.34333333333333,104.45857249774824L184.53666666666666,102.52442997419732L184.63333333333335,104.03044469833861L184.73,104.14349655181005L184.82666666666665,102.83769530622213L185.40666666666667,102.43314538432296L185.79333333333335,104.53663647469685L185.89000000000001,103.43355250718889L185.98666666666665,103.4239986331257L186.08333333333334,104.20816107292772L186.56666666666666,103.83970779276692L187.34,102.95047208495255L187.43666666666667,101.82957035154337L187.82333333333332,102.87301475637372L188.01666666666665,104.45166075084386L188.30666666666667,104.61091426432088L188.5,105.43581374813016L188.59666666666666,104.60081440314679L188.79000000000002,104.45478895598437L188.88666666666666,104.09719699842162L189.66,105.50035949344431L189.75666666666666,104.00317750038313L189.95000000000002,104.58136500101864L190.91666666666666,103.7718522454044L191.11,102.9586848899109L191.4,104.0630782159337L191.78666666666666,105.75465624634204L191.88333333333333,104.28714715074993L191.98000000000002,103.91957403064207L192.27,104.0649893260578L192.56,102.26592051659888L192.75333333333333,102.52441680604369L192.94666666666666,101.1729064970126L193.33333333333331,101.27835251026809L193.52666666666667,101.43221396975102L194.10666666666665,101.53463289739582L194.3,101.56623256060924L194.68666666666667,102.93216724491799L195.17000000000002,104.08619946464064L195.55666666666667,103.7861246535017L195.84666666666666,106.30115271116603L195.94333333333333,105.63159971538369L196.13666666666666,106.37115308061993L196.23333333333332,106.1564468573629L196.42666666666668,105.63029305936875L196.5233333333333,104.13256980933856L196.62,103.9768651712195L196.81333333333333,103.04568623142666L197.00666666666666,104.57415629088142L197.68333333333334,103.68180240877334L197.78,103.95813799727065L197.87666666666667,104.450723851078L197.97333333333333,103.955718382349L198.26333333333332,104.48096759474987L199.13333333333333,103.91587521463052L199.61666666666667,101.95318111996575L199.71333333333334,102.89289242665102L199.80999999999997,102.89891194853489L200.1966666666667,102.55972909661114L200.29333333333332,103.42563455128476L200.48666666666668,104.05805332234704L200.77666666666667,104.09316484745905L201.06666666666666,105.42595334420541L201.35666666666668,105.69867069098086L201.45333333333332,105.4059558343179L201.64666666666668,104.87218450769431L201.83999999999997,104.4931142653137L202.03333333333333,105.22649671951818L202.51666666666668,106.24909516763623L202.90333333333334,104.55201111376063L203.19333333333333,105.69792405083417L203.77333333333334,104.82491254031217L203.86999999999998,105.06430397302108L203.96666666666667,104.35112122036521L204.2566666666667,105.9216129905387L204.73999999999998,104.52916543320167L205.32,105.18038653972492L205.41666666666669,105.40896698665422L205.51333333333332,105.83565980049899L205.80333333333334,104.41251449038803L206.09333333333333,105.094204124695L206.38333333333333,105.80195557793823L206.48,104.77778002682605L206.86666666666667,103.82336272176536L206.96333333333334,104.73280541616846L207.06,103.26733167663727L207.35,103.92592253503513L207.54333333333332,103.45017110055456L207.83333333333334,104.71093148254205L208.12333333333333,104.10623359561745L208.41333333333333,105.1023615903351L208.79999999999998,105.963055307989L208.89666666666668,105.6704244264832L208.99333333333334,106.08215426772979L209.09,103.92403383613178L209.18666666666667,105.17916360189693L209.38,105.62838783950632L209.4766666666667,105.47416857030916L209.57333333333332,103.02182104445882L209.67,104.87042983006789L210.44333333333333,104.27340007708973L210.63666666666668,104.51441049737409L210.73333333333335,103.72187613804284L210.82999999999998,104.2377719400795L211.21666666666667,105.20387787516363L211.41,104.43432020666083L211.50666666666666,105.1811312170141L211.79666666666665,105.09209509678564L211.89333333333335,106.13738194421737L214.21333333333334,106.22471753592923L214.31,107.27619624773504L214.69666666666666,105.76120248222257L214.79333333333335,106.08687693531277L214.89,104.66520018509462L215.18,106.37742065315457L215.37333333333333,107.42740464303361L215.66333333333336,106.50291257693907L215.76,106.39564215253363L215.95333333333335,105.29372904504137L216.05,105.45596333809193L216.14666666666665,105.62023974660612L216.53333333333333,107.01604929687726L216.82333333333335,107.02223223749854L217.21,109.20133708713273L217.88666666666666,109.1916118806929L217.98333333333335,108.21396714954331L218.08,108.66695676795054L218.17666666666665,108.34131414760455L219.14333333333335,107.28779951421157L219.24,108.46678219389025L219.43333333333334,107.07044545135332L219.82,106.86950117220265L220.30333333333334,107.0151067936912L220.78666666666666,108.38515159505349L220.98,109.95497053642941L221.07666666666665,110.18438157628974L221.27,107.90740405939309L221.36666666666665,108.11104785684883L221.46333333333334,107.95337613302647L221.85,108.0518027958578L222.04333333333335,107.80290202464036L222.14000000000001,106.73008079443979L222.33333333333334,107.03489023010998L222.62333333333333,105.41887051889252L222.81666666666666,105.48703028393538L223.20333333333335,107.02932738397016L223.3,108.57725433420005L223.68666666666667,107.18220095397929L223.78333333333333,106.05158615630624L224.17000000000002,106.97371731115432L224.26666666666665,104.62910943437981L224.46,106.36740693483063L224.55666666666667,106.59311904422734L224.6533333333333,105.95005206184197L224.94333333333333,106.23277813604976L225.62,106.7656461731056L225.71666666666667,106.07917405440703L225.81333333333333,105.4671974404802L226.10333333333332,105.01532563298463L226.49,106.6922235569054L227.07000000000002,105.17181055109785L227.5533333333333,105.61927556840003L227.65,105.06778738224342L228.03666666666666,104.79002762813288L228.13333333333333,105.43965133370158L228.32666666666665,107.47683261194392L229.00333333333333,109.64380659078695L229.39000000000001,110.46499400432145L229.58333333333331,110.38380472579279L229.68,109.69644151162315L230.35666666666665,108.57095894923839L230.55,109.28633112826876L230.7433333333333,108.32648983026748L230.93666666666667,105.95169266348971L231.42000000000002,108.30303409820178L231.90333333333334,108.86772069226318L232.09666666666666,108.76057509806427L232.19333333333333,109.67643998171127L232.29000000000002,110.52805311467466L232.58,108.91052643831912L232.87,109.21991314745522L233.06333333333333,107.2767195084166L233.16000000000003,107.61280185956284L233.35333333333332,107.41677062085996L233.45000000000002,108.16020897573347L234.03,108.15485439580193L234.41666666666666,107.57605840997493L234.61,109.33824638085903L235.48000000000002,109.48880910792967L235.76999999999998,107.30937927637979L236.05999999999997,106.69719182058859L236.25333333333333,105.73835096811372L237.22,106.06436243915398L237.51,106.47247598282644L237.60666666666668,107.10183236152292L238.18666666666667,109.08310798266977L238.4766666666667,109.99822201223228L239.34666666666666,110.46686355360822L239.73333333333332,111.0295944842697L239.82999999999998,111.59871675889772L240.21666666666667,111.36789849270954L240.89333333333335,111.17605363648876L240.98999999999998,111.58146858361256L241.66666666666669,110.7183805547813L242.14999999999998,108.91536624227383L242.24666666666667,108.50779820723143L242.34333333333333,108.25637552561966L242.5366666666667,109.96208559480718L242.73,110.99900267999736L243.11666666666667,109.25422787494743L243.21333333333334,110.91119407770941L243.50333333333333,110.76867221550428L243.98666666666668,109.7682352101948L244.5666666666667,109.76174123686049L244.76,110.43540947383156L245.04999999999998,108.29228971999046L245.53333333333333,107.68490439828317L245.7266666666667,108.88368134511849L245.82333333333332,112.00008783275047L245.92,113.14166207494371L246.11333333333334,111.75921129995422L246.20999999999998,113.46294722446106L246.30666666666667,114.66959018127179L246.5966666666667,114.39044739008351L246.69333333333333,113.1158716089933L246.79,112.06372406068357L247.17666666666668,112.40190790331263L247.37,111.95004812803025L247.95,109.90773611758303L248.24,109.60695934269246L248.53,111.68646383269673L248.72333333333333,111.43140189821564L249.20666666666665,110.23586024352014L249.78666666666666,110.37286630392319L250.27,109.21592601838627L250.46333333333334,109.06080630061166L250.65666666666667,109.24604080745017L250.75333333333333,109.68182354623063L250.85,108.8417734948038L250.94666666666666,110.5206371803197L251.04333333333335,110.94848974561904L251.14,109.71045467313013L252.10666666666665,113.70514541118257L252.49333333333334,112.5816544405478L252.78333333333333,112.79219057493097L253.17,111.95746691700354L254.04,111.9898470712602L254.33,110.87404084456742L254.71666666666667,110.62756430336427L254.81333333333333,110.87727462785594L255.00666666666666,111.61570116464127L255.10333333333335,111.19848555949551L255.29666666666665,110.86785916647266L255.39333333333335,109.17228262153601L255.97333333333336,107.95573929220683L256.55333333333334,107.87808383176564L256.94,111.31121896079316L257.32666666666665,112.23561901075324L257.52,112.02315232427983L257.6166666666667,114.0423323835487L258.00333333333333,113.96541328628345L258.39,114.96719390254448L258.58333333333337,113.48039017059071L258.77666666666664,111.55045843178932L259.4533333333334,112.34761650411613L259.55,111.08809871839938L259.93666666666667,111.73663819192787L260.3233333333333,111.06550088326118L260.61333333333334,111.69133203964954L260.8066666666667,112.85682288254216L260.9033333333333,112.7052207730293L261,113.39446123584891L261.29,112.89128974487332L261.4833333333333,114.05058114543755L261.58,112.7122740280617L261.7733333333333,112.75535608583165L261.96666666666664,114.61794144937403L262.25666666666666,114.67525764400091L262.45,116.38123831254991L262.6433333333333,116.18636083526602L262.74,114.51354305514988L262.83666666666664,112.89693830169205L263.03000000000003,112.7915254165762L263.2233333333333,111.91795158611093L263.70666666666665,112.13257502177248L263.90000000000003,110.37696580821074L263.99666666666667,111.22099416693328L264.19,112.60638059475038L264.67333333333335,113.85357547763411L264.8666666666667,114.1333221016134L265.06,112.79587993452856L265.15666666666664,112.64974936457267L265.44666666666666,113.28233564081253L266.22,112.33312348144422L266.8,112.75717454645414L267.2833333333333,113.13986099289649L267.38,115.17737659071423L267.5733333333333,114.14573900667929L267.86333333333334,112.77987332068285L268.0566666666667,113.28828681706982L268.25,113.03685208632156L268.4433333333333,113.71632018921783L268.54,113.65389855737601L269.0233333333333,114.95903165544752L269.12,115.54475143885332L269.2166666666667,115.09190156063862L269.50666666666666,114.17832828760996L269.60333333333335,114.35024118772432L269.8933333333333,115.05529852856432L270.4733333333333,114.957135870796L270.57,116.44946159086045L270.7633333333333,115.72349716108505L270.95666666666665,115.66144122502392L271.15000000000003,116.83150025682973L271.24666666666667,115.9056120772569L272.31,117.1463551520032L272.4066666666667,117.75821481110218L272.50333333333333,117.56551072482897L272.79333333333335,119.18852542698396L273.2766666666667,118.38588581506114L273.37333333333333,119.4638225492643L273.8566666666667,118.87039540427686L273.9533333333333,120.76589562380813L274.05,120.7598005883962L274.14666666666665,121.7400743383165L274.34,119.69064865678065L274.43666666666667,119.59990871328742L274.5333333333333,121.88664125704862L274.8233333333333,122.03461852392476L275.88666666666666,122.03475872891315L276.4666666666667,124.05736324733182L276.65999999999997,125.57015055514019L277.1433333333333,156.97818361211569L277.43333333333334,112.59142311552569L277.53,87.83690718587191L277.62666666666667,73.54399154052707L277.82,66.22679162348808L278.49666666666667,66.94017634585796L278.7866666666667,68.69697759671342L278.98,74.46788559308567L279.27,77.78049672262574L279.4633333333333,77.78236095906094L279.6566666666667,79.3437660961932L280.04333333333335,78.69300289513798L280.43,80.48205619147545L280.5266666666667,80.15301692035776L280.62333333333333,81.6489595551265L280.71999999999997,80.93159916458976L280.91333333333336,84.21714093866707L281.1066666666667,84.01904385345523L281.2033333333333,82.01507518738299L281.3,81.47302798796032L281.49333333333334,81.46032703142367L281.59,82.77295894937929L281.68666666666667,82.28444637781098L281.88,81.91614476948256" style="fill: none;" fill="none"></path></g></g></g></g><g opacity="0.2"><g><g><g><path stroke="rgb(255, 112, 67)" stroke-width="2px" d="M19.623333333333335,8.924513670114347L19.720000000000002,10.037719543163579L20.3,15.791441917419414L20.686666666666667,19.896926219646733L20.783333333333335,20.672693692720824L21.073333333333334,22.58617555178126L21.169999999999998,24.198608471797044L21.266666666666666,24.822780242333017L21.459999999999997,25.79253827608546L21.55666666666667,27.351993854229253L21.846666666666668,29.262197091029222L21.94333333333333,31.53746355496919L23.006666666666668,42.35655993681685L23.2,42.09037476319532L23.876666666666665,49.33999288999116L23.973333333333333,50.92532036854669L24.07,51.55316030062161L24.263333333333332,54.106947348668L24.553333333333335,54.9551366659311L24.843333333333334,57.58845464999857L25.133333333333333,56.21179037827711L25.229999999999997,61.844463421748216L25.326666666666668,62.74053360865664L25.423333333333336,60.265465956467835L25.616666666666667,64.79246421960683L25.713333333333335,65.34051352280835L25.81,66.29936445676363L25.906666666666666,64.95863518348105L26.099999999999998,62.609648411090554L26.196666666666665,66.90185187413141L26.776666666666667,72.02448815565842L26.97,76.41855614001932L27.26,77.83878388771642L27.55,70.83178380819467L27.936666666666667,76.40781134825485L28.903333333333332,78.08078516446626L29.290000000000003,76.86113768357495L29.58,77.6139223392193L29.676666666666666,80.6367471401508L29.869999999999997,73.06085740602933L30.546666666666667,77.28463180248552L31.03,73.45523346387422L31.416666666666668,82.96450402186467L31.513333333333332,80.54043355354894L31.706666666666667,80.86550408143262L31.9,80.62347034307626L31.99666666666667,78.58673176398642L32.480000000000004,75.79938345689038L32.57666666666667,82.12118394558244L33.25333333333333,77.79362979302037L33.446666666666665,77.14374843010533L33.54333333333334,82.35903013669527L33.833333333333336,81.12902740331796L34.51,78.78120924876286L34.8,72.33121787584744L34.99333333333333,73.68282178732065L35.18666666666667,83.0704911672152L35.766666666666666,76.53317807270929L35.86333333333333,76.72376016470102L35.96,77.98895127956682L36.25,82.00334831384511L36.443333333333335,76.96306712810808L36.83,78.42543004109308L37.12,79.91145746524515L37.21666666666666,80.25314833567693L37.31333333333334,80.51284118799062L37.7,77.50715611531183L37.79666666666667,78.37079715728758L37.89333333333333,77.20341286292441L38.57,80.78035728748026L38.86,83.03322524290817L38.95666666666666,92.66516821201029L39.05333333333333,79.0697604692899L39.150000000000006,93.75526142120361L39.343333333333334,93.46498973552995L39.730000000000004,101.82177587655873L39.92333333333333,106.50196046095627L40.11666666666667,104.44567999472984L40.50333333333333,101.20390165769136L40.6,101.77805009255043L40.696666666666665,98.38983744841354L40.98666666666667,104.01958894729614L41.47,100.29939145308273L42.43666666666667,103.05395353757417L42.629999999999995,99.67590137628407L42.919999999999995,96.65791335472694L43.01666666666667,101.23201340895432L43.11333333333334,101.8278786585881L43.88666666666666,101.70286901180559L44.27333333333333,101.17494590465837L44.37,105.14477315315834L44.46666666666666,100.64195878689104L44.66,105.54145398506752L45.43333333333334,57.042158273550164L45.53,68.83130484360913L45.82,69.76418649233304L46.013333333333335,84.59277820587157L46.20666666666666,90.11069947022656L46.4,82.19630010311418L46.593333333333334,79.70272933519803L46.69,90.16867589950562L46.88333333333333,88.16602200728195L47.07666666666667,86.47090937541081L47.17333333333333,85.771978525015L47.36666666666667,90.13238382339478L47.85,80.78788838019736L47.946666666666665,88.55452251434326L48.04333333333333,85.05873210613542L48.14,86.63727510892427L48.913333333333334,87.11747965445885L49.10666666666667,81.84091043472289L49.49333333333333,84.71496369288518L49.879999999999995,88.97249816014215L50.07333333333333,87.93106489915112L50.169999999999995,83.9456885411189L50.459999999999994,88.42175454359787L51.42666666666667,92.32204903089082L51.91,81.60751148370595L52.00666666666667,86.76608276367186L52.199999999999996,87.36077939547025L52.489999999999995,87.4989035312946L52.68333333333334,82.26495640094461L52.78,85.2784971824059L53.166666666666664,85.02854281205396L53.36,89.85934925079346L53.553333333333335,85.23438185911911L53.94,86.82529273399938L54.32666666666666,82.31939451511087L54.42333333333334,89.39053872915414L54.52,86.47298691822931L54.61666666666667,90.02146251385027L54.71333333333334,87.04327242191019L54.81,84.09556377851045L55.486666666666665,88.53316277724045L55.776666666666664,84.89353499045738L55.873333333333335,87.47183055144089L56.64666666666667,85.46878711993875L57.03333333333333,86.25588369369505L57.22666666666667,90.18471193313599L57.42,83.33622187834519L57.71,87.69523132764375L58.19333333333333,82.567433650677L58.38666666666667,82.85562779353215L58.870000000000005,85.91630282768834L59.25666666666667,84.19616229717546L59.35333333333333,88.60571446785558L59.449999999999996,86.68447428483228L59.739999999999995,84.86980555607721L60.029999999999994,84.87811572735124L60.12666666666667,85.65368843078612L60.41666666666667,84.52451144731961L60.513333333333335,89.45416347797098L60.9,85.58087704731867L61.38333333333333,87.25755148667554L61.48,88.09795001836923L61.57666666666667,86.18813632084772L61.769999999999996,86.017420732058L61.86666666666667,84.73145418900708L61.96333333333334,81.80555974520169L62.156666666666666,82.96573756291315L62.25333333333334,85.46164556650014L62.446666666666665,81.22637976132906L62.833333333333336,87.98871671236478L63.026666666666664,86.21757899797879L63.123333333333335,82.39856837346002L63.22,84.20310908097485L63.413333333333334,87.18331179252037L63.8,87.68416191981389L63.89666666666666,87.51847788003774L64.28333333333333,85.28447011800912L64.38,85.58873275610117L64.57333333333334,83.89141273498534L64.76666666666667,79.76567239027756L65.15333333333334,89.23985195159912L65.25,89.23141193389893L65.54,86.74780687919029L65.73333333333333,85.30904355415929L65.83,83.59026641112106L66.02333333333333,84.20044722923863L66.12,82.10414160214937L66.41,90.80855908760655L66.50666666666666,90.80307307610143L66.60333333333332,89.18891969093907L66.79666666666667,88.28499379524816L67.08666666666667,90.15981388092041L67.47333333333333,86.84240000064554L67.86,83.45197996726402L67.95666666666666,86.10506706971387L68.24666666666667,89.80153512954712L68.53666666666666,89.1475311426016L68.63333333333333,83.93689144574678L68.72999999999999,88.91750819866472L68.82666666666667,92.13724510486307L68.92333333333333,92.10342011084923L69.02,87.55937950427713L69.31,88.42539024353026L69.40666666666667,86.35099620085495L69.50333333333333,86.25146891520573L69.6,83.9243288040161L69.89,83.84862833756665L70.56666666666668,93.14634660574106L70.85666666666667,81.4501051535973L70.95333333333333,85.10700251505925L71.14666666666666,88.14787596922653L71.24333333333334,83.7575086080111L71.34,88.71692793185892L71.53333333333333,89.37174345896791L71.72666666666666,85.75311833161572L71.92,81.74294130618753L72.11333333333333,85.73575137211725L72.21,91.03497879321756L72.5,83.47577432485727L72.69333333333333,86.41591941393338L72.98333333333333,96.13057455649742L73.08,86.32905215483444L73.66,90.04587364196777L73.75666666666667,90.07749124673695L73.85333333333332,94.1185067983774L74.24,93.31147879820602L74.53,90.25976316745462L74.72333333333333,90.20198150781484L75.01333333333334,91.59964843896718L75.4,96.0754222869873L75.78666666666666,79.95336539928728L75.88333333333333,80.96120089751022L75.98,103.49111399283775L76.17333333333333,85.6078201807462L76.36666666666666,88.8094435104957L76.46333333333334,91.3484280659602L76.56,87.25784364113439L76.75333333333333,90.62995532842783L76.94666666666666,85.11021621410661L77.14,88.8964730776273L77.23666666666666,96.8792690497178L77.52666666666666,89.25575813880333L77.62333333333333,90.70770087608922L78.10666666666665,85.60054878088144L78.30000000000001,89.34314478360689L78.59,94.48798480400673L78.68666666666667,91.458765066587L78.88000000000001,88.44882752345158L79.26666666666667,89.3776839329646L79.46000000000001,90.96833511499257L79.55666666666666,87.97245344748863L79.84666666666666,88.06539102701039L80.04,88.11288235737726L80.13666666666666,93.58866845644437L80.52333333333334,88.58075149242693L80.91000000000001,94.06913269483125L81.2,92.13373925135683L81.29666666666667,89.37005545542787L81.39333333333333,92.6112819451552L81.49000000000001,86.95517162176279L81.58666666666666,85.8285915668194L82.07,92.2293062210083L82.26333333333334,92.29468389657826L82.36,87.60365713559663L82.55333333333334,85.94503134947556L82.64999999999999,91.8850833452665L82.94,87.69536117406992L83.13333333333334,87.97553730010985L83.80999999999999,91.49846561138445L84.1,93.98038266255304L84.58333333333334,90.82599097031812L84.67999999999999,89.83126996113702L84.77666666666667,90.33296409020055L85.06666666666666,88.69605511885422L85.25999999999999,86.36518192291258L85.35666666666667,89.06326081202577L85.45333333333333,91.52290920110849L85.74333333333334,87.42057367471547L86.22666666666667,91.24591431250938L86.42,93.14978753603421L86.61333333333334,89.4835736934955L86.71,87.15630373587975L86.90333333333334,88.19728253437921L87.19333333333334,88.91351542106041L87.28999999999999,86.65818038353551L87.48333333333333,93.15838986176709L87.87,86.73501700621384L87.96666666666667,88.86579685944776L88.16,94.28305468192467L88.45,91.54722294440636L88.64333333333333,86.78828650254468L88.93333333333332,92.02856364616981L89.03,89.24653904254617L89.22333333333333,86.70979433793286L89.41666666666667,89.35535034766563L89.51333333333332,86.18644831730768L89.70666666666668,89.12389909304105L89.80333333333333,92.07154281322771L89.99666666666667,96.45152246035062L90.09333333333333,87.04408396207369L90.19,89.24329288189226L90.67333333333333,92.90444271381082L91.06,90.88224693445058L91.25333333333333,86.70615863800047L92.41333333333333,84.40050811033981L92.60666666666667,87.26196626516489L93.18666666666667,90.05996197920578L93.28333333333333,88.32443464719331L93.57333333333332,88.90945772024301L93.67,87.2555388670701L93.96000000000001,84.91635549985445L94.25,84.45767299945535L94.34666666666666,91.77536311516396L94.54,92.01668269817644L94.63666666666666,86.63740495535043L94.73333333333333,88.97431601010835L94.83,91.84437649066629L94.92666666666666,85.66777676802414L95.50666666666666,90.50397183344911L95.79666666666667,87.32000761765698L97.05333333333333,83.49742621641892L97.15,92.04661229940561L97.24666666666666,82.77953778780423L97.34333333333333,85.81252307158249L97.63333333333334,90.93723689592801L98.40666666666667,92.09929748681874L98.50333333333333,89.80156759115366L99.27666666666666,92.3915817920978L99.37333333333333,92.41313629883985L99.75999999999999,85.84816591556253L99.85666666666667,86.74277533017671L100.05,84.24887994619516L100.14666666666666,85.86884395892801L100.43666666666667,86.29058515108548L100.53333333333333,90.84501347175011L100.82333333333334,87.94622446940495L101.01666666666667,88.10518895662747L101.5,92.13558956292958L101.59666666666666,90.45755173609804L101.88666666666667,89.76170473832349L102.17666666666666,91.35806916310236L102.46666666666667,98.7077664228586L102.66,98.2452534528879L102.94999999999999,91.5465087890625L103.04666666666667,89.34236570504994L103.43333333333334,92.06206402411827L103.53,96.3905920248765L104.78666666666666,96.74400153526894L104.88333333333334,92.83740949630737L104.97999999999999,95.31010745121881L105.36666666666667,97.64137018643892L105.56,97.8766194490286L105.85,96.0992815677936L106.04333333333332,93.29959785021268L106.14,99.65395733026357L106.42999999999999,96.13164578951321L106.52666666666667,89.41654047599205L107.01,98.15861342503473L107.10666666666667,95.64615000211275L107.3,94.1549287209144L107.39666666666668,96.44184890160194L107.68666666666667,99.12872853645912L108.07333333333332,98.46878407551691L108.17,97.83529582390419L108.36333333333333,92.64257493385902L109.04,95.37256358220026L109.23333333333333,99.56773930329541L109.33,92.20814125354471L109.42666666666668,97.5574893951416L109.71666666666667,100.02197456359863L110.10333333333332,93.64794334998497L110.29666666666667,96.88481998443604L110.39333333333333,98.51958648975076L110.68333333333332,88.39399987000684L111.07000000000001,96.49696870950551L111.36,95.56470383130586L111.65,97.58946407758272L112.13333333333333,98.39827746611374L112.32666666666665,94.82230688975405L112.42333333333333,95.67455390783456L112.61666666666666,97.87269159463735L112.81,94.72781115311841L112.90666666666667,97.56748756995567L113.87333333333333,89.9211561496441L113.97,91.74592043803285L114.26,90.86945706147412L114.64666666666666,95.27342583582949L115.03333333333333,98.86634137080263L115.22666666666666,91.21916594872106L115.42,98.56788936028114L115.61333333333333,98.62580086634706L115.80666666666666,92.16496731684755L115.90333333333334,96.64285116929273L116.19333333333333,96.4407452069796L116.29,93.08155323908876L116.38666666666666,97.66623577704796L116.58000000000001,98.4802105610187L117.06333333333333,98.1015459207388L117.25666666666666,93.74727586599496L117.45,95.03512518222513L118.12666666666667,91.74085642741274L118.51333333333334,93.26674670439499L118.70666666666666,97.73369099543642L118.80333333333334,90.28508322055521L119.38333333333334,95.01311621299156L119.47999999999999,90.88111077822171L119.57666666666667,91.96552320627065L119.67333333333333,92.48646706801193L119.77,97.78345463826105L120.15666666666667,89.94537250812235L120.44666666666667,92.10776996612549L121.41333333333334,95.69240779143112L121.60666666666667,94.10240584153394L121.70333333333333,93.77976993414072L121.8,97.3675240736741L121.99333333333334,95.55480304131142L122.28333333333335,93.10333497707659L122.47666666666667,96.29609628824086L122.67,96.91507420173058L122.76666666666667,93.7935985785264L122.86333333333334,97.8854814676138L122.96,90.36474400300244L123.05666666666667,92.49831555439874L123.15333333333334,99.23172921400803L123.44333333333334,94.89115795722374L123.53999999999999,96.91750882222101L123.73333333333333,97.06413789895863L123.83,94.45747089385986L123.92666666666668,98.61375761032104L124.21666666666667,95.31312638062695L124.31333333333333,96.33803668388954L124.41,94.18401432037354L124.79666666666667,95.93713584313026L125.47333333333333,94.67009441669168L125.66666666666667,95.3563652405372L125.86,94.79374067599954L125.95666666666668,99.13875917287973L126.05333333333333,95.18091025719276L126.34333333333333,95.26154488783615L126.53666666666668,95.58694003178522L126.73,93.57961166821993L126.82666666666667,92.19174814224243L127.02,96.61571326622597L127.50333333333333,89.04849078105043L127.69666666666667,94.63380234058084L127.79333333333332,97.91807292057916L128.08333333333334,95.25544210580678L128.18,99.73559827070969L128.37333333333333,92.66919345122116L128.47,98.26440580074602L128.76,98.06213753040018L128.95333333333332,92.49370600627016L129.05,95.09082929904642L129.14666666666668,92.71291923522949L129.43666666666667,94.63182218258196L130.11333333333334,91.1129191105182L130.30666666666667,90.37039232254028L130.5,94.64165804936334L130.59666666666666,93.22844200867871L130.69333333333333,93.31251756961527L131.46666666666667,94.51931025431703L131.66,94.85528788199791L131.85333333333332,95.11738289319551L132.14333333333335,102.44201979270348L132.72333333333333,97.30691825426541L132.82,98.23548250931958L133.01333333333332,97.92917479001558L133.11,99.14232994959902L133.20666666666665,95.56123043940615L133.59333333333333,99.99837497564462L133.78666666666666,100.84919368303738L133.98000000000002,101.95756277671227L134.27,97.61695905832143L134.36666666666667,100.42297278917752L134.65666666666667,97.29714731069711L134.75333333333333,98.01802220711342L135.04333333333332,100.0301548884465L135.14000000000001,99.26347666520337L135.43,102.54713047467745L135.81666666666666,104.52806755212636L135.91333333333333,95.45735329848068L136.01,99.40747635181131L136.20333333333335,99.26204835451566L136.59,98.99810303174532L136.68666666666667,95.4272289276123L137.07333333333332,100.84299351618837L137.55666666666667,101.36319076097928L137.75,101.93779365832987L138.13666666666666,95.58268756132858L138.42666666666668,100.1313052544227L138.52333333333334,103.94427802012514L139.00666666666666,94.12090895726129L139.2,101.500373510214L139.58666666666667,95.34854199336122L139.78,98.01662635803223L140.07,98.64638152489296L140.16666666666666,102.80234362528871L140.26333333333335,97.20232695799606L140.35999999999999,100.67399839254526L140.55333333333334,99.18839296927818L140.74666666666667,96.26207652458778L140.84333333333333,96.77441806059616L141.13333333333335,100.9714116316575L141.23,98.6730000422551L141.81,100.79024340556215L142.19666666666666,102.50395653798029L142.68,96.66745706704945L142.77666666666667,101.60700988769531L142.87333333333333,101.53715251042291L143.26,96.60779263423036L143.55,99.14418026117177L144.03333333333333,99.85005789536694L144.32333333333332,97.07738223442665L144.80666666666667,100.63575862004205L144.90333333333334,100.70412276341364L145.19333333333336,98.52958466456484L145.58,94.82539074237528L145.96666666666667,95.38902161671564L146.45,96.19085575984072L146.93333333333334,105.17096966963547L147.12666666666667,98.93522489987886L147.41666666666666,100.99329075446495L147.51333333333335,98.80729370850781L147.70666666666665,101.73770031562218L148.38333333333335,105.68347351367655L149.35,103.29335788580087L149.64000000000001,102.22744857347928L149.93,100.80287097050592L150.02666666666667,97.07442822823158L150.22,101.52955649449274L150.60666666666665,97.0558277276846L150.8,100.20268832720242L151.18666666666667,98.91509870382455L151.28333333333333,100.98679843315712L151.38,100.46221887148343L151.47666666666666,100.66305883114153L151.57333333333332,96.80769120729886L152.25,102.87366177485536L152.34666666666666,100.19830601031961L152.73333333333332,101.1450812266423L153.21666666666667,99.74754414191612L153.31333333333333,100.01755978510927L153.70000000000002,98.16802729093111L153.99,97.60718811475313L154.37666666666667,102.02388183887186L156.31,100.486694922814L156.69666666666666,103.08732406909647L157.66333333333333,101.99255638856152L157.76000000000002,99.18988620317899L158.14666666666668,96.77013312853299L158.34,99.10964111181406L158.43666666666667,96.65684212171114L158.53333333333333,99.09935078254112L158.63000000000002,98.623268861037L158.92000000000002,96.09866479726938L159.21,98.1996448957003L159.40333333333334,102.98263538800752L159.59666666666666,106.04753043101381L159.69333333333333,98.32579069871167L159.88666666666666,101.055422269381L159.98333333333332,103.09930240190945L160.17666666666668,100.55911676700296L160.2733333333333,98.3373145690331L160.46666666666667,98.89870559252225L160.56333333333333,101.19120916953453L160.75666666666666,101.86533935253435L161.43333333333334,95.63027627651506L161.72333333333333,103.29358511704663L161.82000000000002,104.49843010535606L162.01333333333332,98.74149403205284L162.69000000000003,103.61274763254018L163.07666666666668,95.60979300278882L163.36666666666667,102.13295283684364L163.65666666666667,101.44057923096875L163.75333333333333,100.97043778346132L164.14,106.08804251597475L164.23666666666668,105.93966051248402L164.52666666666667,96.93094792732826L165.20333333333332,102.51236409407394L165.29999999999998,105.67801996377797L165.39666666666668,99.91809742267313L165.58999999999997,102.26536372991708L165.78333333333333,104.19001238162699L165.88,97.15925040611855L166.55666666666667,102.84243370936464L167.04,101.00474970157327L167.61999999999998,100.64020586013794L167.91,105.40573200812706L168.0066666666667,96.73049750694862L168.29666666666668,98.97414636611938L168.97333333333333,99.53774477885317L169.26333333333332,100.78651032081017L169.35999999999999,102.11964357816255L169.45666666666668,104.39611112154446L170.32666666666668,104.05938687691322L170.61666666666667,101.2263650894165L170.71333333333334,96.56296315559975L170.90666666666667,100.25167289147011L171.1,99.0498143709623L171.1966666666667,100.8521152276259L171.29333333333332,100.41949939727783L171.39,105.55099769739003L171.67999999999998,106.36494001975426L172.0666666666667,100.00681499334482L172.16333333333333,97.39862229273866L172.26,104.9901260596055L172.54999999999998,103.03067856568555L173.03333333333333,99.62256695674013L173.51666666666668,101.26418286103467L173.61333333333334,104.37825723794789L173.70999999999998,100.79550218582153L174.0966666666667,97.74700025411752L174.19333333333333,100.95479128910944L174.29,103.17412640498232L175.06333333333333,103.33831721085767L175.35333333333335,100.05333247551552L175.54666666666665,107.23987770080566L176.12666666666667,102.12964175297662L176.32,99.1773235614483L176.60999999999999,95.24972886305588L176.99666666666664,102.78478189615102L177.38333333333335,98.93454320614153L177.57666666666665,105.04352540236252L177.86666666666665,105.63835188058705L177.96333333333334,101.20646612460794L178.44666666666666,106.09008759718674L178.54333333333335,96.8468723663917L178.93,101.8532960965083L179.02666666666664,103.70558782724233L179.12333333333333,99.1038954074566L179.22,100.78524431815514L179.41333333333336,105.36489530710072L179.60666666666665,107.09996817662164L179.99333333333334,102.53132167229286L180.18666666666667,103.92759275436401L180.38,104.12502424533548L180.67,103.42615831815279L180.76666666666665,102.56517912791323L181.15333333333334,100.89220531170183L181.44333333333336,99.11136157696062L181.63666666666666,103.0264260952289L182.21666666666667,101.28080320358276L182.31333333333333,101.77710870596079L182.41,104.88550230172963L182.50666666666666,106.569610448984L182.99,99.82954216003418L183.08666666666664,100.1047516602736L183.18333333333334,103.17175670770497L183.57,104.74121046066284L183.86,102.76222107960626L184.05333333333334,109.14005030118501L184.34333333333333,102.9244317274827L184.53666666666666,99.62321618887094L184.63333333333335,106.28946678455057L184.73,104.31307433201715L184.82666666666665,100.87899343784036L185.40666666666667,101.82632050147423L185.79333333333335,107.69187311025766L185.89000000000001,101.77892655592697L185.98666666666665,103.40966782203087L186.08333333333334,105.38440473263078L186.56666666666666,103.28702787252573L187.34,101.61661852323091L187.43666666666667,100.14821775142961L187.82333333333332,104.43818136361928L188.01666666666665,106.819629742549L188.30666666666667,104.84979453453651L188.5,106.67316297384409L188.59666666666666,103.34831538567177L188.79000000000002,104.23575078524075L188.88666666666666,103.56080906207742L189.66,107.60510323597833L189.75666666666666,101.75740451079147L189.95000000000002,105.4486462519719L190.91666666666666,102.55758311198305L191.11,101.73893385667066L191.4,105.71966820496777L191.78666666666666,108.29202329195462L191.88333333333333,102.08588350736177L191.98000000000002,103.36821435048029L192.27,104.28311226918146L192.56,99.5673173024104L192.75333333333333,102.91216124021089L192.94666666666666,99.14564103346603L193.33333333333331,101.43652153015137L193.52666666666667,101.66300615897545L194.10666666666665,101.68826128886293L194.3,101.6136320554293L194.68666666666667,104.98106927138107L195.17000000000002,105.81724779422464L195.55666666666667,103.33601243679338L195.84666666666666,110.07369479766258L195.94333333333333,104.6272702217102L196.13666666666666,107.48048312847429L196.23333333333332,105.83438752247736L196.42666666666668,104.84106236237744L196.5233333333333,101.8859849342933L196.62,103.74330821404091L196.81333333333333,101.64891782173744L197.00666666666666,106.86686138006357L197.68333333333334,102.34327158561119L197.78,104.3726413800166L197.87666666666667,105.18960263178896L197.97333333333333,103.21321017925554L198.26333333333332,105.26884141335121L199.13333333333333,103.06823664445142L199.61666666666667,99.00913997796864L199.71333333333334,104.30245938667885L199.80999999999997,102.9079412313608L200.1966666666667,102.05095481872559L200.29333333333332,104.72449273329514L200.48666666666668,105.00668147894052L200.77666666666667,104.14583213512712L201.06666666666666,107.42513608932495L201.35666666666668,106.10774671114407L201.45333333333332,104.96688354932344L201.64666666666668,104.07152751775888L201.83999999999997,103.92450890174278L202.03333333333333,106.3265704008249L202.51666666666668,107.78299283981323L202.90333333333334,102.00638503294724L203.19333333333333,107.41679345644437L203.77333333333334,103.51539527452908L203.86999999999998,105.42339112208437L203.96666666666667,103.28134709138135L204.2566666666667,108.27735064579889L204.73999999999998,102.44049409719614L205.32,106.15721819950983L205.41666666666669,105.75183765704813L205.51333333333332,106.47569902126604L205.80333333333334,102.27779652522158L206.09333333333333,106.11673857615541L206.38333333333333,106.86358275780312L206.48,103.24151670015775L206.86666666666667,102.39173676417421L206.96333333333334,106.09696945777306L207.06,101.06912106734055L207.35,104.91380882263184L207.54333333333332,102.73654394883374L207.83333333333334,106.6020720555232L208.12333333333333,103.1991867652306L208.41333333333333,106.59655358241152L208.79999999999998,107.25409588446983L208.89666666666668,105.23147810422456L208.99333333333334,106.6997490295997L209.09,100.68685318873476L209.18666666666667,107.0618582505446L209.38,106.3022241959205L209.4766666666667,105.24283966651329L209.57333333333332,99.3432997556833L209.67,107.64334300848154L210.44333333333333,103.37785544762245L210.63666666666668,104.87592612780057L210.73333333333335,102.53307459904596L210.82999999999998,105.01161564313448L211.21666666666667,106.65303677778977L211.41,103.27998370390671L211.50666666666666,106.30134773254395L211.79666666666665,104.95854091644287L211.89333333333335,107.70531221536488L214.21333333333334,106.3557209234971L214.31,108.85341431544377L214.69666666666666,103.48871183395386L214.79333333333335,106.57538861494797L214.89,102.53268505976747L215.18,108.94575135524454L215.37333333333333,109.00238062785222L215.66333333333336,105.11617447779726L215.76,106.23473651592546L215.95333333333335,103.64085938380312L216.05,105.6993147776677L216.14666666666665,105.86665435937734L216.53333333333333,109.10976362228394L216.82333333333335,107.03150664843045L217.21,112.46999436158399L217.88666666666666,109.17702407103317L217.98333333333335,106.74750005281888L218.08,109.34644119556131L218.17666666666665,107.85285021708559L219.14333333333335,105.7075275641221L219.24,110.23525621340825L219.43333333333334,104.97594033754788L219.82,106.56808475347665L220.30333333333334,107.23351522592397L220.78666666666666,110.44021879709683L220.98,112.30969894849336L221.07666666666665,110.52849813608022L221.27,104.49193778404823L221.36666666666665,108.4165135530325L221.46333333333334,107.71686854729286L221.85,108.19944279010477L222.04333333333335,107.42955086781427L222.14000000000001,105.12084894913892L222.33333333333334,107.49210438361534L222.62333333333333,102.99484095206627L222.81666666666666,105.58926993149976L223.20333333333335,109.34277303402239L223.3,110.89914475954495L223.68666666666667,105.0896208836482L223.78333333333333,104.3556639597966L224.17000000000002,108.35691404342651L224.26666666666665,101.11219761921808L224.46,108.97485318550697L224.55666666666667,106.93168720832237L224.6533333333333,104.98545158826387L224.94333333333333,106.65686724736139L225.62,107.56494822868935L225.71666666666667,105.04946587635919L225.81333333333333,104.54923251958994L226.10333333333332,104.33751792174118L226.49,109.20757044278658L227.07000000000002,102.89119104238657L227.5533333333333,106.2904730943533L227.65,104.24055510300855L228.03666666666666,104.37338799696701L228.13333333333333,106.41408689205461L228.32666666666665,110.53260452930742L229.00333333333333,112.89426755905151L229.39000000000001,111.6967751246232L229.58333333333331,110.26202080799982L229.68,108.66539669036865L230.35666666666665,106.88273510566124L230.55,110.3593893968142L230.7433333333333,106.88672788326555L230.93666666666667,102.38949691332303L231.42000000000002,111.83004625026994L231.90333333333334,109.71475058335523L232.09666666666666,108.59985670676598L232.19333333333333,111.05023730718172L232.29000000000002,111.80547281411977L232.58,106.48423642378586L232.87,109.68399321115933L233.06333333333333,104.36192904985867L233.16000000000003,108.11692538628212L233.35333333333332,107.12272376280563L233.45000000000002,109.27536650804372L234.03,108.14682252590471L234.41666666666666,106.70786443123451L234.61,111.98152833718518L235.48000000000002,109.71465319853561L235.76999999999998,104.04023452905507L236.05999999999997,105.77891063690186L236.25333333333333,104.30008968940147L237.22,106.55337964571439L237.51,107.08464629833513L237.60666666666668,108.04586692956777L238.18666666666667,112.05502141438997L238.4766666666667,111.37089305657605L239.34666666666666,111.16982586567217L239.73333333333332,111.87369088026193L239.82999999999998,112.45240017083974L240.21666666666667,111.02167109342722L240.89333333333335,110.88828635215759L240.98999999999998,112.18959100429826L241.66666666666669,109.42374851153447L242.14999999999998,106.21084477351259L242.24666666666667,107.89644615466776L242.34333333333333,107.879241503202L242.5366666666667,112.52065069858843L242.73,112.55437830778268L243.11666666666667,106.63706566737245L243.21333333333334,113.39664338185236L243.50333333333333,110.5548894221966L243.98666666666668,108.2675797022306L244.5666666666667,109.75200027685898L244.76,111.44591182928818L245.04999999999998,105.07761008922868L245.53333333333333,106.77382641572217L245.7266666666667,110.68184676537147L245.82333333333332,116.6746975641984L245.92,114.85402343823358L246.11333333333334,109.68553513746994L246.20999999999998,116.01855111122131L246.30666666666667,116.47955461648793L246.5966666666667,113.97173320330106L246.69333333333333,111.20400793735796L246.79,110.48550273821904L247.17666666666668,112.90918366725626L247.37,111.27225846510666L247.95,106.84426810191225L248.24,109.15579418035654L248.53,114.80572056770325L248.72333333333333,111.04880899649399L249.20666666666665,108.44254776147694L249.78666666666666,110.57837539452771L250.27,107.48051559008084L250.46333333333334,108.82812672394971L250.65666666666667,109.52389256770792L250.75333333333333,110.33549765440134L250.85,107.58169841766357L250.94666666666666,113.03893270859352L251.04333333333335,111.59026859356806L251.14,107.85340206439676L252.10666666666665,119.69718151826126L252.49333333333334,110.89641798459566L252.78333333333333,113.10799477650568L253.17,110.7053814301124L254.04,112.03841730264516L254.33,109.20033150452832L254.71666666666667,110.25784949155954L254.81333333333333,111.2518401145935L255.00666666666666,112.72334096981928L255.10333333333335,110.57266215177683L255.29666666666665,110.37191957693832L255.39333333333335,106.62891780413113L255.97333333333336,106.13092429821306L256.55333333333334,107.7616006411039L256.94,116.46092165433443L257.32666666666665,113.62221908569336L257.52,111.70445229456975L257.6166666666667,117.07110247245201L258.00333333333333,113.85003464038553L258.39,116.46986482693598L258.58333333333337,111.25018457266L258.77666666666664,108.65556082358727L259.4533333333334,113.54335361260635L259.55,109.19882203982426L259.93666666666667,112.7094474022205L260.3233333333333,110.05879492026108L260.61333333333334,112.63007877423212L260.8066666666667,114.6050591468811L260.9033333333333,112.47781760875993L261,114.42832193007835L261.29,112.13653250840993L261.4833333333333,115.78951824628389L261.58,110.70481335199796L261.7733333333333,112.81997917248651L261.96666666666664,117.41181949468759L262.25666666666666,114.76123193594125L262.45,118.94020931537332L262.6433333333333,115.89404461934015L262.74,112.00431638497571L262.83666666666664,110.47203117150525L263.03000000000003,112.63340608890238L263.2233333333333,110.607590840413L263.70666666666665,112.45451017526479L263.90000000000003,107.74355198786806L263.99666666666667,112.48703670501709L264.19,114.684460236476L264.67333333333335,115.72436780195969L264.8666666666667,114.5529420375824L265.06,110.78971668390126L265.15666666666664,112.43055350963884L265.44666666666666,114.23121505517227L266.22,110.90930524239174L266.8,113.39325114396901L267.2833333333333,113.71389066256009L267.38,118.23364998744084L267.5733333333333,112.59828263062695L267.86333333333334,110.73107479168817L268.0566666666667,114.05090706165018L268.25,112.65969999019914L268.4433333333333,114.73552234356218L268.54,113.56026610961327L269.0233333333333,116.91673130255478L269.12,116.42333111396202L269.2166666666667,114.41262674331665L269.50666666666666,112.80796837806702L269.60333333333335,114.60811053789578L269.8933333333333,116.11288453982426L270.4733333333333,114.80989188414352L270.57,118.68795017095712L270.7633333333333,114.63455051642197L270.95666666666665,115.56835732093224L271.15000000000003,118.58658880453842L271.24666666666667,114.51677980789772L272.31,119.00746976412259L272.4066666666667,118.67600429975069L272.50333333333333,117.27645459541908L272.79333333333335,121.62304748021639L273.2766666666667,117.1819263971769L273.37333333333333,121.08072765056902L273.8566666666667,117.98025468679575L273.9533333333333,123.60914595310503L274.05,120.75065803527832L274.14666666666665,123.21048496319696L274.34,116.61651013447687L274.43666666666667,119.46379879804758L274.5333333333333,125.31674007269052L274.8233333333333,122.25658442423894L275.88666666666666,122.03496903639572L276.4666666666667,127.09127002495987L276.65999999999997,127.83933151685274L277.1433333333333,204.09023319757904L277.43333333333334,46.01128237064066L277.53,50.705133291391206L277.62666666666667,52.104618072509744L277.82,55.250991747929476L278.49666666666667,68.01025342941283L278.7866666666667,71.33217947299661L278.98,83.12424758764413L279.27,82.74941341693582L279.4633333333333,77.78515731371365L279.6566666666667,81.6858738018916L280.04333333333335,77.71685809355515L280.43,83.16563613598161L280.5266666666667,79.65945801368125L280.62333333333333,83.8928735072796L280.71999999999997,79.85555857878464L280.91333333333336,89.14545359978307L281.1066666666667,83.72189822563756L281.2033333333333,79.00912218827466L281.3,80.65995718882634L281.49333333333334,81.44127559661864L281.59,84.74190682631271L281.68666666666667,81.5516775204585L281.88,81.36369235698992" style="fill: none;" fill="none"></path></g></g></g></g></g></g><g transform="translate(40, 177)" clip-path="url(#clip_1)"><clipPath id="clip_1"><rect width="290" height="22"></rect></clipPath><g><g><line x1="0" y1="0" x2="0" y2="5" style="visibility: inherit;" fill="rgb(0, 0, 0)" stroke="rgb(204, 204, 204)" stroke-width="1px"></line><line x1="19.333333333333332" y1="0" x2="19.333333333333332" y2="5" style="visibility: inherit;" fill="rgb(0, 0, 0)" stroke="rgb(204, 204, 204)" stroke-width="1px"></line><line x1="38.666666666666664" y1="0" x2="38.666666666666664" y2="5" style="visibility: inherit;" fill="rgb(0, 0, 0)" stroke="rgb(204, 204, 204)" stroke-width="1px"></line><line x1="58" y1="0" x2="58" y2="5" style="visibility: inherit;" fill="rgb(0, 0, 0)" stroke="rgb(204, 204, 204)" stroke-width="1px"></line><line x1="77.33333333333333" y1="0" x2="77.33333333333333" y2="5" style="visibility: inherit;" fill="rgb(0, 0, 0)" stroke="rgb(204, 204, 204)" stroke-width="1px"></line><line x1="96.66666666666666" y1="0" x2="96.66666666666666" y2="5" style="visibility: inherit;" fill="rgb(0, 0, 0)" stroke="rgb(204, 204, 204)" stroke-width="1px"></line><line x1="116" y1="0" x2="116" y2="5" style="visibility: inherit;" fill="rgb(0, 0, 0)" stroke="rgb(204, 204, 204)" stroke-width="1px"></line><line x1="135.33333333333334" y1="0" x2="135.33333333333334" y2="5" style="visibility: inherit;" fill="rgb(0, 0, 0)" stroke="rgb(204, 204, 204)" stroke-width="1px"></line><line x1="154.66666666666666" y1="0" x2="154.66666666666666" y2="5" style="visibility: inherit;" fill="rgb(0, 0, 0)" stroke="rgb(204, 204, 204)" stroke-width="1px"></line><line x1="174" y1="0" x2="174" y2="5" style="visibility: inherit;" fill="rgb(0, 0, 0)" stroke="rgb(204, 204, 204)" stroke-width="1px"></line><line x1="193.33333333333331" y1="0" x2="193.33333333333331" y2="5" style="visibility: inherit;" fill="rgb(0, 0, 0)" stroke="rgb(204, 204, 204)" stroke-width="1px"></line><line x1="212.66666666666666" y1="0" x2="212.66666666666666" y2="5" style="visibility: inherit;" fill="rgb(0, 0, 0)" stroke="rgb(204, 204, 204)" stroke-width="1px"></line><line x1="232" y1="0" x2="232" y2="5" style="visibility: inherit;" fill="rgb(0, 0, 0)" stroke="rgb(204, 204, 204)" stroke-width="1px"></line><line x1="251.33333333333334" y1="0" x2="251.33333333333334" y2="5" style="visibility: inherit;" fill="rgb(0, 0, 0)" stroke="rgb(204, 204, 204)" stroke-width="1px"></line><line x1="270.6666666666667" y1="0" x2="270.6666666666667" y2="5" style="visibility: inherit;" fill="rgb(0, 0, 0)" stroke="rgb(204, 204, 204)" stroke-width="1px"></line><line x1="290" y1="0" x2="290" y2="5" style="visibility: inherit;" fill="rgb(0, 0, 0)" stroke="rgb(204, 204, 204)" stroke-width="1px"></line></g><g transform="translate(0, 8)"><text x="0" y="0" dx="0em" dy="0.95em" style="text-anchor: middle; visibility: hidden; font-family: Roboto, sans-serif; font-size: 12px; font-weight: 200;" fill="rgb(33, 33, 33)" stroke="none" stroke-width="1px">-200</text><text x="19.333333333333332" y="0" dx="0em" dy="0.95em" style="text-anchor: middle; visibility: inherit; font-family: Roboto, sans-serif; font-size: 12px; font-weight: 200;" fill="rgb(33, 33, 33)" stroke="none" stroke-width="1px">0</text><text x="38.666666666666664" y="0" dx="0em" dy="0.95em" style="text-anchor: middle; visibility: hidden; font-family: Roboto, sans-serif; font-size: 12px; font-weight: 200;" fill="rgb(33, 33, 33)" stroke="none" stroke-width="1px">200</text><text x="58" y="0" dx="0em" dy="0.95em" style="text-anchor: middle; visibility: inherit; font-family: Roboto, sans-serif; font-size: 12px; font-weight: 200;" fill="rgb(33, 33, 33)" stroke="none" stroke-width="1px">400</text><text x="77.33333333333333" y="0" dx="0em" dy="0.95em" style="text-anchor: middle; visibility: hidden; font-family: Roboto, sans-serif; font-size: 12px; font-weight: 200;" fill="rgb(33, 33, 33)" stroke="none" stroke-width="1px">600</text><text x="96.66666666666666" y="0" dx="0em" dy="0.95em" style="text-anchor: middle; visibility: inherit; font-family: Roboto, sans-serif; font-size: 12px; font-weight: 200;" fill="rgb(33, 33, 33)" stroke="none" stroke-width="1px">800</text><text x="116" y="0" dx="0em" dy="0.95em" style="text-anchor: middle; visibility: hidden; font-family: Roboto, sans-serif; font-size: 12px; font-weight: 200;" fill="rgb(33, 33, 33)" stroke="none" stroke-width="1px">1k</text><text x="135.33333333333334" y="0" dx="0em" dy="0.95em" style="text-anchor: middle; visibility: inherit; font-family: Roboto, sans-serif; font-size: 12px; font-weight: 200;" fill="rgb(33, 33, 33)" stroke="none" stroke-width="1px">1.2k</text><text x="154.66666666666666" y="0" dx="0em" dy="0.95em" style="text-anchor: middle; visibility: hidden; font-family: Roboto, sans-serif; font-size: 12px; font-weight: 200;" fill="rgb(33, 33, 33)" stroke="none" stroke-width="1px">1.4k</text><text x="174" y="0" dx="0em" dy="0.95em" style="text-anchor: middle; visibility: inherit; font-family: Roboto, sans-serif; font-size: 12px; font-weight: 200;" fill="rgb(33, 33, 33)" stroke="none" stroke-width="1px">1.6k</text><text x="193.33333333333331" y="0" dx="0em" dy="0.95em" style="text-anchor: middle; visibility: hidden; font-family: Roboto, sans-serif; font-size: 12px; font-weight: 200;" fill="rgb(33, 33, 33)" stroke="none" stroke-width="1px">1.8k</text><text x="212.66666666666666" y="0" dx="0em" dy="0.95em" style="text-anchor: middle; visibility: inherit; font-family: Roboto, sans-serif; font-size: 12px; font-weight: 200;" fill="rgb(33, 33, 33)" stroke="none" stroke-width="1px">2k</text><text x="232" y="0" dx="0em" dy="0.95em" style="text-anchor: middle; visibility: hidden; font-family: Roboto, sans-serif; font-size: 12px; font-weight: 200;" fill="rgb(33, 33, 33)" stroke="none" stroke-width="1px">2.2k</text><text x="251.33333333333334" y="0" dx="0em" dy="0.95em" style="text-anchor: middle; visibility: inherit; font-family: Roboto, sans-serif; font-size: 12px; font-weight: 200;" fill="rgb(33, 33, 33)" stroke="none" stroke-width="1px">2.4k</text><text x="270.6666666666667" y="0" dx="0em" dy="0.95em" style="text-anchor: middle; visibility: hidden; font-family: Roboto, sans-serif; font-size: 12px; font-weight: 200;" fill="rgb(33, 33, 33)" stroke="none" stroke-width="1px">2.6k</text><text x="290" y="0" dx="0em" dy="0.95em" style="text-anchor: middle; visibility: hidden; font-family: Roboto, sans-serif; font-size: 12px; font-weight: 200;" fill="rgb(33, 33, 33)" stroke="none" stroke-width="1px">2.8k</text></g><line x1="0" y1="0" x2="290" y2="0" fill="rgb(0, 0, 0)" stroke="rgb(204, 204, 204)" stroke-width="1px"></line></g></g></g></g></svg>