<svg viewBox="0 0 330 200" xmlns="http://www.w3.org/2000/svg"><g><g><g><g><g><line x1="50" y1="177" x2="45" y2="177" style="visibility: inherit;" fill="rgb(0, 0, 0)" stroke="rgb(204, 204, 204)" stroke-width="1px"></line><line x1="50" y1="160.9090909090909" x2="45" y2="160.9090909090909" style="visibility: inherit;" fill="rgb(0, 0, 0)" stroke="rgb(204, 204, 204)" stroke-width="1px"></line><line x1="50" y1="144.8181818181818" x2="45" y2="144.8181818181818" style="visibility: inherit;" fill="rgb(0, 0, 0)" stroke="rgb(204, 204, 204)" stroke-width="1px"></line><line x1="50" y1="128.72727272727272" x2="45" y2="128.72727272727272" style="visibility: inherit;" fill="rgb(0, 0, 0)" stroke="rgb(204, 204, 204)" stroke-width="1px"></line><line x1="50" y1="112.63636363636364" x2="45" y2="112.63636363636364" style="visibility: inherit;" fill="rgb(0, 0, 0)" stroke="rgb(204, 204, 204)" stroke-width="1px"></line><line x1="50" y1="96.54545454545453" x2="45" y2="96.54545454545453" style="visibility: inherit;" fill="rgb(0, 0, 0)" stroke="rgb(204, 204, 204)" stroke-width="1px"></line><line x1="50" y1="80.45454545454547" x2="45" y2="80.45454545454547" style="visibility: inherit;" fill="rgb(0, 0, 0)" stroke="rgb(204, 204, 204)" stroke-width="1px"></line><line x1="50" y1="64.36363636363639" x2="45" y2="64.36363636363639" style="visibility: inherit;" fill="rgb(0, 0, 0)" stroke="rgb(204, 204, 204)" stroke-width="1px"></line><line x1="50" y1="48.27272727272729" x2="45" y2="48.27272727272729" style="visibility: inherit;" fill="rgb(0, 0, 0)" stroke="rgb(204, 204, 204)" stroke-width="1px"></line><line x1="50" y1="32.181818181818194" x2="45" y2="32.181818181818194" style="visibility: inherit;" fill="rgb(0, 0, 0)" stroke="rgb(204, 204, 204)" stroke-width="1px"></line><line x1="50" y1="16.090909090909097" x2="45" y2="16.090909090909097" style="visibility: inherit;" fill="rgb(0, 0, 0)" stroke="rgb(204, 204, 204)" stroke-width="1px"></line><line x1="50" y1="0" x2="45" y2="0" style="visibility: inherit;" fill="rgb(0, 0, 0)" stroke="rgb(204, 204, 204)" stroke-width="1px"></line></g><g transform="translate(40, 0)"><text x="0" y="177" dx="0em" dy="0.3em" style="text-anchor: end; visibility: hidden; font-family: Roboto, sans-serif; font-size: 12px; font-weight: 200;" fill="rgb(33, 33, 33)" stroke="none" stroke-width="1px">-0.1</text><text x="0" y="160.9090909090909" dx="0em" dy="0.3em" style="text-anchor: end; visibility: inherit; font-family: Roboto, sans-serif; font-size: 12px; font-weight: 200;" fill="rgb(33, 33, 33)" stroke="none" stroke-width="1px">0</text><text x="0" y="144.8181818181818" dx="0em" dy="0.3em" style="text-anchor: end; visibility: hidden; font-family: Roboto, sans-serif; font-size: 12px; font-weight: 200;" fill="rgb(33, 33, 33)" stroke="none" stroke-width="1px">0.1</text><text x="0" y="128.72727272727272" dx="0em" dy="0.3em" style="text-anchor: end; visibility: inherit; font-family: Roboto, sans-serif; font-size: 12px; font-weight: 200;" fill="rgb(33, 33, 33)" stroke="none" stroke-width="1px">0.2</text><text x="0" y="112.63636363636364" dx="0em" dy="0.3em" style="text-anchor: end; visibility: hidden; font-family: Roboto, sans-serif; font-size: 12px; font-weight: 200;" fill="rgb(33, 33, 33)" stroke="none" stroke-width="1px">0.3</text><text x="0" y="96.54545454545453" dx="0em" dy="0.3em" style="text-anchor: end; visibility: inherit; font-family: Roboto, sans-serif; font-size: 12px; font-weight: 200;" fill="rgb(33, 33, 33)" stroke="none" stroke-width="1px">0.4</text><text x="0" y="80.45454545454547" dx="0em" dy="0.3em" style="text-anchor: end; visibility: hidden; font-family: Roboto, sans-serif; font-size: 12px; font-weight: 200;" fill="rgb(33, 33, 33)" stroke="none" stroke-width="1px">0.5</text><text x="0" y="64.36363636363639" dx="0em" dy="0.3em" style="text-anchor: end; visibility: inherit; font-family: Roboto, sans-serif; font-size: 12px; font-weight: 200;" fill="rgb(33, 33, 33)" stroke="none" stroke-width="1px">0.6</text><text x="0" y="48.27272727272729" dx="0em" dy="0.3em" style="text-anchor: end; visibility: hidden; font-family: Roboto, sans-serif; font-size: 12px; font-weight: 200;" fill="rgb(33, 33, 33)" stroke="none" stroke-width="1px">0.7</text><text x="0" y="32.181818181818194" dx="0em" dy="0.3em" style="text-anchor: end; visibility: inherit; font-family: Roboto, sans-serif; font-size: 12px; font-weight: 200;" fill="rgb(33, 33, 33)" stroke="none" stroke-width="1px">0.8</text><text x="0" y="16.090909090909097" dx="0em" dy="0.3em" style="text-anchor: end; visibility: hidden; font-family: Roboto, sans-serif; font-size: 12px; font-weight: 200;" fill="rgb(33, 33, 33)" stroke="none" stroke-width="1px">0.9</text><text x="0" y="0" dx="0em" dy="0.3em" style="text-anchor: end; visibility: hidden; font-family: Roboto, sans-serif; font-size: 12px; font-weight: 200;" fill="rgb(33, 33, 33)" stroke="none" stroke-width="1px">1</text></g><line x1="50" y1="0" x2="50" y2="177" fill="rgb(0, 0, 0)" stroke="rgb(204, 204, 204)" stroke-width="1px"></line></g></g><g transform="translate(50, 0)" clip-path="url(#clip_0)"><clipPath id="clip_0"><rect width="280" height="176"></rect></clipPath><g><g><g><line x1="0" y1="0" x2="0" y2="177" fill="rgb(0, 0, 0)" stroke="rgb(66, 66, 66)" stroke-width="1px" opacity="0.25"></line><line x1="18.666666666666668" y1="0" x2="18.666666666666668" y2="177" fill="rgb(0, 0, 0)" stroke="rgb(66, 66, 66)" stroke-width="1px" opacity="0.25"></line><line x1="37.333333333333336" y1="0" x2="37.333333333333336" y2="177" fill="rgb(0, 0, 0)" stroke="rgb(66, 66, 66)" stroke-width="1px" opacity="0.25"></line><line x1="56" y1="0" x2="56" y2="177" fill="rgb(0, 0, 0)" stroke="rgb(66, 66, 66)" stroke-width="1px" opacity="0.25"></line><line x1="74.66666666666667" y1="0" x2="74.66666666666667" y2="177" fill="rgb(0, 0, 0)" stroke="rgb(66, 66, 66)" stroke-width="1px" opacity="0.25"></line><line x1="93.33333333333333" y1="0" x2="93.33333333333333" y2="177" fill="rgb(0, 0, 0)" stroke="rgb(66, 66, 66)" stroke-width="1px" opacity="0.25"></line><line x1="112" y1="0" x2="112" y2="177" fill="rgb(0, 0, 0)" stroke="rgb(66, 66, 66)" stroke-width="1px" opacity="0.25"></line><line x1="130.66666666666666" y1="0" x2="130.66666666666666" y2="177" fill="rgb(0, 0, 0)" stroke="rgb(66, 66, 66)" stroke-width="1px" opacity="0.25"></line><line x1="149.33333333333334" y1="0" x2="149.33333333333334" y2="177" fill="rgb(0, 0, 0)" stroke="rgb(66, 66, 66)" stroke-width="1px" opacity="0.25"></line><line x1="168" y1="0" x2="168" y2="177" fill="rgb(0, 0, 0)" stroke="rgb(66, 66, 66)" stroke-width="1px" opacity="0.25"></line><line x1="186.66666666666666" y1="0" x2="186.66666666666666" y2="177" fill="rgb(0, 0, 0)" stroke="rgb(66, 66, 66)" stroke-width="1px" opacity="0.25"></line><line x1="205.33333333333331" y1="0" x2="205.33333333333331" y2="177" fill="rgb(0, 0, 0)" stroke="rgb(66, 66, 66)" stroke-width="1px" opacity="0.25"></line><line x1="224" y1="0" x2="224" y2="177" fill="rgb(0, 0, 0)" stroke="rgb(66, 66, 66)" stroke-width="1px" opacity="0.25"></line><line x1="242.66666666666669" y1="0" x2="242.66666666666669" y2="177" fill="rgb(0, 0, 0)" stroke="rgb(66, 66, 66)" stroke-width="1px" opacity="0.25"></line><line x1="261.3333333333333" y1="0" x2="261.3333333333333" y2="177" fill="rgb(0, 0, 0)" stroke="rgb(66, 66, 66)" stroke-width="1px" opacity="0.25"></line><line x1="280" y1="0" x2="280" y2="177" fill="rgb(0, 0, 0)" stroke="rgb(66, 66, 66)" stroke-width="1px" opacity="0.25"></line></g><g><line x1="0" y1="177" x2="280" y2="177" fill="rgb(0, 0, 0)" stroke="rgb(66, 66, 66)" stroke-width="1px" opacity="0.25"></line><line x1="0" y1="160.9090909090909" x2="280" y2="160.9090909090909" fill="rgb(0, 0, 0)" stroke="rgb(66, 66, 66)" stroke-width="1px" opacity="0.25"></line><line x1="0" y1="144.8181818181818" x2="280" y2="144.8181818181818" fill="rgb(0, 0, 0)" stroke="rgb(66, 66, 66)" stroke-width="1px" opacity="0.25"></line><line x1="0" y1="128.72727272727272" x2="280" y2="128.72727272727272" fill="rgb(0, 0, 0)" stroke="rgb(66, 66, 66)" stroke-width="1px" opacity="0.25"></line><line x1="0" y1="112.63636363636364" x2="280" y2="112.63636363636364" fill="rgb(0, 0, 0)" stroke="rgb(66, 66, 66)" stroke-width="1px" opacity="0.25"></line><line x1="0" y1="96.54545454545453" x2="280" y2="96.54545454545453" fill="rgb(0, 0, 0)" stroke="rgb(66, 66, 66)" stroke-width="1px" opacity="0.25"></line><line x1="0" y1="80.45454545454547" x2="280" y2="80.45454545454547" fill="rgb(0, 0, 0)" stroke="rgb(66, 66, 66)" stroke-width="1px" opacity="0.25"></line><line x1="0" y1="64.36363636363639" x2="280" y2="64.36363636363639" fill="rgb(0, 0, 0)" stroke="rgb(66, 66, 66)" stroke-width="1px" opacity="0.25"></line><line x1="0" y1="48.27272727272729" x2="280" y2="48.27272727272729" fill="rgb(0, 0, 0)" stroke="rgb(66, 66, 66)" stroke-width="1px" opacity="0.25"></line><line x1="0" y1="32.181818181818194" x2="280" y2="32.181818181818194" fill="rgb(0, 0, 0)" stroke="rgb(66, 66, 66)" stroke-width="1px" opacity="0.25"></line><line x1="0" y1="16.090909090909097" x2="280" y2="16.090909090909097" fill="rgb(0, 0, 0)" stroke="rgb(66, 66, 66)" stroke-width="1px" opacity="0.25"></line><line x1="0" y1="0" x2="280" y2="0" fill="rgb(0, 0, 0)" stroke="rgb(66, 66, 66)" stroke-width="1px" opacity="0.25"></line></g></g></g><g><g><line x1="0" y1="160.9090909090909" x2="280" y2="160.9090909090909" fill="rgb(0, 0, 0)" stroke="rgb(153, 153, 153)" stroke-width="1.5px"></line></g></g><g><g><line x1="18.666666666666668" y1="0" x2="18.666666666666668" y2="177" fill="rgb(0, 0, 0)" stroke="rgb(153, 153, 153)" stroke-width="1.5px"></line></g></g><g><g><g><g><g><path stroke="rgb(255, 112, 67)" stroke-width="2px" d="M18.946666666666665,49.38789530233904L19.040000000000003,49.36135240576483L19.6,49.3880088276235L19.973333333333333,49.402536984114725L20.066666666666666,49.37403534471889L20.346666666666668,49.371520715861436L20.439999999999998,49.354554352542756L20.533333333333335,49.27768792148674L20.72,49.30932610523982L20.813333333333333,49.36892400813017L21.093333333333334,49.402017860755954L21.186666666666664,49.35895487492069L22.213333333333335,49.330668727786886L22.400000000000002,49.352241205354154L23.05333333333333,49.357121373596L23.14666666666667,49.37290731485287L23.240000000000002,49.39487320687917L23.426666666666666,49.362945395923646L23.706666666666667,49.383457448678556L23.986666666666668,49.27059767795531L24.266666666666666,49.33028164557878L24.36,49.38366583819524L24.453333333333333,49.374101633806646L24.546666666666667,49.226140514617036L24.733333333333334,49.321495310540705L24.826666666666668,49.3379695142103L24.919999999999998,49.365766056142384L25.013333333333332,49.378350551995624L25.2,49.36219629520483L25.293333333333333,49.44742327407773L25.853333333333335,49.42243431596128L26.04,49.44634559153528L26.32,49.42353325777636L26.6,49.39073305395134L26.973333333333336,49.387771840334906L27.906666666666666,49.38945935586214L28.28,49.38923655347813L28.56,49.37534947951787L28.653333333333332,49.35710021435492L28.84,49.349591880686425L29.493333333333332,49.437060055267594L29.96,49.34277672483771L30.333333333333336,49.25446458730355L30.426666666666666,49.30912589421233L30.613333333333333,49.361963884019914L30.8,49.33687686789016L30.893333333333334,49.31867499706233L31.36,49.299609257485194L31.453333333333333,49.25151328231806L32.10666666666667,49.26304501828564L32.29333333333333,49.31457338978357L32.38666666666667,49.3705227379067L32.666666666666664,49.38020326031716L33.32,49.358389697653685L33.6,49.34714301846294L33.78666666666667,49.28669348014513L33.973333333333336,49.30427490645341L34.53333333333333,49.35542408374798L34.626666666666665,49.39204078437326L34.72,49.38653854713432L35,49.39710185204934L35.18666666666667,49.425740663585316L35.56,49.43212840059398L35.84,49.452553350323456L35.93333333333333,49.5007704683073L36.02666666666667,49.53401282086807L36.4,49.63561156728229L36.49333333333333,49.73099074186085L36.586666666666666,49.770210317933135L37.24,52.760930031743875L37.52,72.52686034941021L37.61333333333333,95.80014412204609L37.70666666666666,81.64506944233833L37.800000000000004,106.04912856186587L37.986666666666665,122.07620983969989L38.36,134.78639262219454L38.54666666666667,143.55561876855225L38.733333333333334,148.373397507549L39.10666666666666,152.66097813478044L39.2,154.92785562490346L39.29333333333334,156.55647071102217L39.57333333333334,157.85935751921807L40.04,158.85351355033603L40.973333333333336,159.6126323807635L41.16,159.94173487710617L41.44,160.2375302463695L41.53333333333334,160.41173707346235L41.626666666666665,160.53667038982803L42.37333333333333,160.57736532394526L42.74666666666667,160.616505739441L42.839999999999996,160.65710878582567L42.93333333333333,160.6864525843673L43.12,160.70717957202558L43.86666666666667,62.80268392369075L43.96,23.583987916303858L44.24,23.814213016505946L44.42666666666667,31.472906412191556L44.61333333333333,38.069185428000644L44.800000000000004,38.64206839333603L44.98666666666667,41.48122367860887L45.08,44.54813649092054L45.266666666666666,44.7520831650893L45.45333333333333,45.02194431527311L45.54666666666666,44.7997366179891L45.733333333333334,46.71147816120789L46.2,46.7995425571806L46.29333333333334,47.653304347167634L46.38666666666666,47.9781546644987L46.480000000000004,48.36789882713467L47.22666666666667,48.555858483028956L47.413333333333334,48.82516975030239L47.78666666666666,49.03989409483254L48.16,49.09982746614357L48.346666666666664,49.181156420440445L48.44,49.24092965240048L48.72,49.26984592246059L49.653333333333336,49.2630725793608L50.12,49.29226224323971L50.21333333333334,49.35890078095388L50.4,49.34012987127398L50.68,49.38087701635764L50.86666666666667,49.29749640454447L50.96,49.352131929682386L51.33333333333333,49.35774789688551L51.519999999999996,49.344970188798264L51.70666666666667,49.38546537404057L52.08,49.40381994545068L52.45333333333333,49.365964985812624L52.54666666666667,49.36756309737802L52.64,49.379348205203605L52.733333333333334,49.29430031307301L52.82666666666667,49.37597167427181L52.92,49.27485726707806L53.57333333333333,49.3183691321557L53.85333333333333,49.30687980871959L53.94666666666667,49.28384276262045L54.693333333333335,49.29188018080448L55.06666666666666,49.36410000942264L55.25333333333333,49.33941303667332L55.440000000000005,49.396567349404634L55.720000000000006,49.3187611564981L56.18666666666667,49.31855508368049L56.373333333333335,49.32683693034493L56.84,49.12768421026441L57.21333333333334,49.18742786319476L57.306666666666665,49.28630564168672L57.4,49.33947109586075L57.68,49.3683319619931L57.959999999999994,49.36480547432472L58.053333333333335,49.39789596464854L58.333333333333336,49.38579328273257L58.42666666666667,49.402808233586065L58.8,49.40742377418594L59.266666666666666,49.44795834138258L59.36,49.40108369602773L59.45333333333334,49.307433680487826L59.64,49.336533886396055L59.733333333333334,49.3502420384361L59.82666666666667,49.348998764349176L60.01333333333333,49.37903200990097L60.10666666666667,49.42919691555475L60.29333333333333,49.409553463719384L60.66666666666667,49.412982442708625L60.85333333333333,49.42753489267014L60.94666666666667,49.419094762998846L61.04,49.45635353759085L61.22666666666667,49.382975983395745L61.6,49.375253036104574L61.69333333333333,49.321843638166094L62.06666666666667,49.42601221234081L62.160000000000004,49.29704004620165L62.34666666666667,49.32735520874432L62.53333333333333,49.30239663396354L62.906666666666666,49.109551952435126L63,48.88074890633548L63.28,49.070279909513964L63.46666666666666,49.287987202230816L63.56,48.9646920804577L63.74666666666666,48.96594796228609L63.84,48.74113050923033L64.12,49.07708944303238L64.21333333333334,49.31196834588425L64.30666666666666,49.17311677357725L64.49333333333334,49.17620092046958L64.77333333333334,49.3362096675633L65.14666666666666,49.44285317449345L65.52000000000001,49.55693845644557L65.61333333333333,49.71574385146911L65.89333333333333,50.03682441656523L66.17333333333333,51.24895783911623L66.26666666666667,49.957558295485796L66.36,49.03260134539449L66.45333333333333,48.66548662385933L66.54666666666667,48.683970546190054L66.64,48.99025435502449L66.92,48.61345017379325L67.01333333333334,48.92508886547727L67.10666666666667,49.03988307454927L67.2,49.28570840744873L67.48,49.28304034681523L68.13333333333334,49.36155829664004L68.41333333333334,49.34368476661513L68.50666666666667,49.27904044461099L68.69333333333333,49.34967100814814L68.78666666666666,49.409182582201844L68.88,49.41670370388709L69.06666666666666,49.263223081922284L69.25333333333333,49.46813509524157L69.44,49.32517570921682L69.62666666666667,49.320961339559304L69.72,49.382074287595955L70,49.354179757383136L70.18666666666667,49.35400081943457L70.46666666666667,49.35629502533828L70.56,49.38542769799911L71.12,49.36600524238733L71.21333333333334,49.36286084141076L71.30666666666666,49.35018248728359L71.68,49.35257305941034L71.96000000000001,49.471009066241194L72.14666666666666,49.642729390529574L72.42666666666666,50.05880184160285L72.8,56.561359025702025L73.17333333333333,29.54624148034598L73.26666666666667,21.507963597806484L73.36,49.065583221498095L73.54666666666667,47.062214309313745L73.73333333333332,47.92791289837401L73.82666666666667,48.137360892655465L73.92,47.78431572164092L74.10666666666667,47.576440081864575L74.29333333333332,47.90095765832174L74.48,48.495548570087955L74.57333333333332,48.68181092323205L74.85333333333332,48.586910665357514L74.94666666666667,48.819206080846826L75.41333333333333,49.044425982894744L75.60000000000001,49.0861346009257L75.88000000000001,49.04206671775313L75.97333333333333,49.096159102196175L76.16000000000001,49.15006752330722L76.53333333333333,49.08552117277562L76.72,49.18873911468722L76.81333333333333,49.2663951673583L77.09333333333333,49.401984949237836L77.28,49.379307927467295L77.37333333333333,49.38743092361129L77.74666666666667,49.39345179643059L78.12,49.37756787923469L78.4,49.42678005211054L78.49333333333333,49.42977884565564L78.58666666666667,49.40740130744333L78.68,49.34372598822633L78.77333333333333,49.34191261847068L79.24,49.342359145290075L79.42666666666668,49.369642790765674L79.52,49.37927630937763L79.70666666666666,49.44805731630507L79.8,49.325420776723746L80.08,49.36123682785621L80.26666666666667,49.39337238995299L80.91999999999999,49.41615633455661L81.19999999999999,49.33997120378518L81.66666666666667,49.31475018647538L81.75999999999999,49.34279977574106L81.85333333333334,49.37514381638207L82.13333333333334,49.248472716234716L82.32,49.39207931670539L82.41333333333333,49.404669340872175L82.50666666666667,49.28948247978133L82.78666666666668,49.30506210437659L83.25333333333333,49.22590478443215L83.44,49.227623368401005L83.62666666666668,49.29523091295012L83.72,49.21858277568228L83.90666666666668,49.20534499837001L84.18666666666667,49.25787889517625L84.28,49.28651428175519L84.46666666666667,49.30700630246403L84.84,49.32059437214617L84.93333333333334,49.33087256386719L85.12,49.38846220492409L85.39999999999999,49.220981147673974L85.58666666666666,49.20557940085691L85.86666666666666,49.2380435493207L85.96,49.27354272654261L86.14666666666666,49.367437894212486L86.33333333333334,49.45686753694253L86.42666666666666,49.466245920628005L86.61333333333334,49.56075400996568L86.70666666666666,49.354606021410774L86.89333333333335,49.28307270129336L86.98666666666666,49.27847422595346L87.08,49.35443748766225L87.54666666666667,49.23764484962252L87.92,49.22321200167304L88.10666666666665,49.31944636743005L89.22666666666666,49.303440414042974L89.41333333333334,49.321140299270844L89.97333333333334,49.26376437871746L90.06666666666666,49.10764144389195L90.34666666666666,49.178279482132744L90.44,49.28107748632389L90.72,49.25946865962438L91,49.05098651720798L91.09333333333332,49.18836643674746L91.28,49.28379968847282L91.37333333333332,49.28700132613828L91.46666666666667,49.243419104218475L91.56,49.13563178167558L91.65333333333332,49.150640827983075L92.21333333333332,49.13894519417198L92.49333333333333,49.24487826894405L93.70666666666666,49.29016163911467L93.80000000000001,49.302377484400964L93.89333333333333,49.333154895292594L93.98666666666666,49.17824803277881L94.26666666666667,49.22717294006746L95.01333333333334,49.1777479919527L95.10666666666667,49.15928371927997L95.85333333333332,49.23771921613024L95.94666666666667,49.295499336719665L96.32,49.303025079423804L96.41333333333333,49.32744745770375L96.6,49.338559913609274L96.69333333333333,49.35774930432236L96.97333333333333,49.389499799372246L97.06666666666666,49.46244728216131L97.34666666666666,49.30399294773806L97.53333333333333,49.36265910586484L98,49.35378656285918L98.09333333333333,49.355890252631944L98.37333333333333,49.391564720482314L98.65333333333334,49.37416450163005L98.93333333333334,49.29171183747764L99.11999999999999,49.3101478541276L99.39999999999999,49.324136615710884L99.49333333333334,49.35850210894735L99.86666666666667,49.3697568216137L99.96,49.35317300027247L101.17333333333333,49.35264483631849L101.26666666666668,49.37063893998384L101.36,49.36613978828731L101.73333333333333,49.44845429374043L101.92,49.497328923206915L102.2,49.34863838210297L102.38666666666666,49.03305894634968L102.48,49.091483349973686L102.75999999999999,49.19681648498892L102.85333333333334,49.22067437440011L103.32,49.37982748452554L103.41333333333334,49.33046946500707L103.6,49.35481322100198L103.69333333333334,49.38784173141545L103.97333333333334,49.382580475978905L104.34666666666666,49.33531695749009L104.44,49.37832686879531L104.62666666666667,49.40028493478151L105.28,49.40628959569973L105.46666666666667,49.32296404631035L105.56,49.33623815845473L105.65333333333334,49.33468458759854L105.93333333333334,49.32101952747257L106.30666666666666,49.45539540858337L106.49333333333334,49.34618192094237L106.58666666666666,49.34565731013599L106.86666666666666,49.32779881595083L107.24000000000001,49.36328897997661L107.52,49.36987059299195L107.8,49.39249118177702L108.26666666666667,49.37481245132724L108.45333333333332,49.35730358040162L108.54666666666667,49.336501436252L108.73333333333332,49.36552969136048L108.92,49.41684098823521L109.01333333333332,49.413967441222994L109.94666666666667,49.39610753372156L110.04,49.397817597098374L110.32000000000001,49.346131888215076L110.69333333333333,49.380453872627996L111.06666666666666,49.38199564150337L111.25333333333333,49.37691294477476L111.44000000000001,49.35133615222142L111.62666666666667,49.35149669102768L111.81333333333333,49.35686418900236L111.90666666666667,49.3452839658384L112.18666666666667,49.35502404875632L112.28,49.36875567868505L112.37333333333333,49.37460843345616L112.56,49.36330018251161L113.02666666666667,49.37297710283194L113.21333333333332,49.38420788458236L113.4,49.38226080814479L114.05333333333333,49.3780234649367L114.42666666666668,49.44791175636626L114.61333333333333,49.22935509402253L114.70666666666666,49.272330989027935L115.26666666666667,49.29855387240292L115.36,49.346421051635566L115.45333333333333,49.36803256244857L115.54666666666667,49.360682044509L115.64,49.32265360869671L116.01333333333334,49.32883184438116L116.29333333333334,49.346940525085735L117.22666666666667,49.407333291921894L117.41333333333333,49.35801786351706L117.50666666666667,49.35718221223004L117.6,49.37073345092868L117.78666666666668,49.3555543998086L118.06666666666668,49.35788702949199L118.25333333333333,49.34826087508823L118.44,49.370651823334526L118.53333333333333,49.34855008139281L118.62666666666668,49.335239163395904L118.72,49.32979996339454L118.81333333333333,49.33630384569588L118.90666666666668,49.32417014144631L119.18666666666667,49.37231014421336L119.28,49.411237766936836L119.46666666666667,49.145723225666714L119.56,49.147657202695186L119.65333333333334,49.15446472802803L119.93333333333334,49.20388364739283L120.02666666666666,49.29184401220501L120.12,49.332455096489014L120.49333333333334,49.35939595245795L121.14666666666666,49.43829281578185L121.33333333333334,49.31045453003697L121.52,49.29864378558949L121.61333333333334,49.285695362991035L121.70666666666666,49.33909341952832L121.98666666666666,49.334506413003524L122.17333333333333,49.348615062630614L122.36,49.37397946966568L122.45333333333333,49.3762810504337L122.64,49.357394447299036L123.10666666666665,49.365351762234845L123.29333333333334,49.39442189305785L123.38666666666666,49.39541744615132L123.66666666666666,49.370487560836004L123.76,49.349767399380575L123.94666666666666,49.320854249761865L124.04,49.34896736442123L124.32000000000001,49.310622171970834L124.50666666666666,49.33856974517968L124.60000000000001,49.348751238927186L124.69333333333334,49.322492667295414L124.97333333333334,49.30922349316623L125.62666666666667,49.32311396178884L125.81333333333333,49.3291656018117L126,49.345725158393435L126.09333333333332,49.36267761614869L126.18666666666667,49.366342604429335L126.93333333333332,49.58518917901834L127.12,49.39070476780088L127.30666666666667,49.08253697405471L127.58666666666667,49.26761214643843L128.14666666666668,49.21718820214889L128.24,49.0170017519251L128.42666666666668,48.98727479861656L128.52,49.19123461904919L128.61333333333332,49.3076526260868L128.98666666666668,49.282679831447645L129.17333333333332,49.296818052101514L129.36,49.34058793122402L129.64000000000001,49.35709012913875L129.73333333333332,49.371376420720004L130.01333333333332,49.36464874540131L130.10666666666665,49.36185512463503L130.38666666666666,49.37918433748743L130.48000000000002,49.37191537360369L130.76000000000002,49.379880257487414L131.13333333333333,49.31208270833935L131.22666666666666,49.33237179761934L131.32,49.329299510123455L131.50666666666666,49.37791593435805L131.88,49.329779063136705L131.97333333333333,49.33915323881587L132.34666666666666,49.35276507006511L132.81333333333333,49.43523501554979L133,49.111215508633535L133.37333333333333,49.20025412620148L133.65333333333334,49.25150591037026L133.74666666666667,49.372937298316764L134.21333333333334,49.36563130841955L134.4,49.35411973589624L134.77333333333334,49.33372410954867L134.96,49.32546121480257L135.24,49.327071346274344L135.33333333333334,49.368035436312965L135.42666666666668,49.33351458457639L135.51999999999998,49.33575508530727L135.70666666666668,49.34371329052541L135.89333333333335,49.36156256834822L135.98666666666668,49.36936416530703L136.26666666666668,49.387050423484L136.35999999999999,49.3779969371487L136.92,49.389567644641744L137.29333333333332,49.395635376394104L137.76,49.37029222738872L137.85333333333332,49.38732720560022L137.94666666666666,49.36661552765589L138.32,49.37144452071452L138.6,49.36527273389368L139.06666666666666,49.364466122421014L139.34666666666666,49.38842751589452L139.81333333333333,49.41248351773209L139.90666666666667,49.355928897232594L140.18666666666667,49.35998004095547L140.56,49.34849620709893L140.93333333333334,49.35579280926468L141.4,49.279787274713165L141.86666666666667,49.31180909859394L142.0533333333333,49.30617401353867L142.33333333333331,49.35296503136152L142.42666666666668,49.32139173514496L142.61333333333332,49.377786424504286L143.26666666666668,49.36031560324605L144.20000000000002,49.37518385456517L144.48000000000002,49.33971798499695L144.76,49.33058825237262L144.85333333333332,49.323077135806614L145.04,49.339639819144054L145.41333333333333,49.33841358755216L145.6,49.3836107267445L145.97333333333333,49.37655461131748L146.06666666666666,49.324615660196734L146.16,49.39185138679355L146.25333333333333,49.36493355442444L146.34666666666666,49.37342003394418L147,49.38616931953312L147.09333333333333,49.36765867238755L147.46666666666664,49.37683901755412L147.93333333333334,49.379059454122675L148.02666666666664,49.366028340486736L148.4,49.35755748911927L148.68,49.36074619564498L149.05333333333334,49.385819595404065L150.92000000000002,49.38071501118616L151.29333333333332,49.3457413210053L152.22666666666666,49.35832535911348L152.32000000000002,49.29646430913765L152.69333333333333,49.32155060960256L152.88000000000002,49.33693999058954L152.97333333333333,49.35521594723598L153.06666666666666,49.362851550603956L153.16000000000003,49.36675387483702L153.44,49.3756209376078L153.72,49.363995921551286L153.90666666666667,49.38225272846928L154.09333333333333,49.3652933722625L154.18666666666667,49.371318756151155L154.37333333333333,49.35597080126067L154.46666666666667,49.383625723817815L154.65333333333334,49.365863968940644L154.74666666666667,49.37619570548605L154.93333333333334,49.389438325821246L155.02666666666667,49.38235299377267L155.21333333333334,49.369888122772565L155.86666666666667,49.34920824521506L156.14666666666665,49.350212274080484L156.24,49.36421130131299L156.42666666666665,49.415317207215466L157.08,49.40220774986639L157.45333333333335,49.30518096119777L157.73333333333335,49.309010527208066L158.01333333333335,49.289617421324735L158.10666666666665,49.30670063620549L158.48,49.35248303965177L158.57333333333335,49.37123624525824L158.85333333333335,49.350139882600274L159.50666666666666,49.35321886164467L159.6,49.35991542287727L159.69333333333333,49.35835527519134L159.88,49.32688934073515L160.06666666666666,49.30171045775973L160.16,49.34474717718549L160.81333333333333,49.35573779591868L161.28,49.25254671873748L161.83999999999997,49.28765007589248L162.11999999999998,49.35198252638571L162.21333333333334,49.35269782632281L162.49333333333334,49.347357103275485L163.14666666666668,49.30688615492906L163.42666666666668,49.357351451771486L163.51999999999998,49.359233806687456L163.61333333333334,49.363156098221445L164.45333333333335,49.229747952062525L164.73333333333335,49.282733088809L164.82666666666665,49.312751767139815L165.01333333333335,49.334959964758326L165.2,49.32182159146765L165.29333333333335,49.31636699076786L165.38666666666666,49.325493383623936L165.48,49.35353092119887L165.76,49.38397256321459L166.13333333333335,49.415588121877065L166.22666666666666,49.405776996716895L166.32,49.327413587806184L166.6,49.393181033536166L167.06666666666666,49.37937731654255L167.53333333333336,49.39560566502208L167.62666666666667,49.35115392410286L167.72,49.336456195570584L168.09333333333336,49.40427291916897L168.18666666666667,49.416343620580975L168.28,49.400046064788L169.02666666666667,49.37253582139845L169.30666666666667,49.374390550234324L169.4933333333333,49.32109596434302L170.0533333333333,49.334760526707896L170.24,49.344819904392565L170.51999999999998,49.32329503684052L170.89333333333332,49.32256826914273L171.26666666666668,49.32960546056041L171.45333333333332,49.356915060192726L171.73333333333332,49.39272436979762L171.82666666666668,49.36865687820959L172.29333333333332,49.3175291608627L172.38666666666668,49.384798935865334L172.76,49.377117918294374L172.85333333333332,49.341837516154975L172.9466666666667,49.36204454346068L173.04,49.40155661728124L173.2266666666667,49.41001044776631L173.41333333333333,49.50724773934349L173.7866666666667,49.51734390401816L173.97333333333333,49.361015662271186L174.16,49.42053547511874L174.44,49.433497678753554L174.53333333333333,49.45249638810403L174.90666666666667,49.44596441247309L175.18666666666667,49.41354482186961L175.37333333333333,49.40192693848199L175.93333333333334,49.393859006148396L176.02666666666667,49.421339678168295L176.12,49.402575661995215L176.2133333333333,49.37498198166979L176.68,49.369597287812255L176.7733333333333,49.38464294619031L176.86666666666667,49.366439775018996L177.24,49.32518751779904L177.52,49.33984337338363L177.70666666666668,49.40414918497156L177.98666666666668,49.408212999530534L178.17333333333332,49.40485836702623L178.26666666666668,49.411845715489406L178.36,49.39191501943145L178.45333333333332,49.386904270912645L179.01333333333332,49.39508851799748L179.38666666666668,49.359533017747644L179.48000000000002,49.354914789015794L179.57333333333332,49.356237260361276L179.66666666666669,49.35005621945085L180.13333333333333,49.403367587212784L180.88,49.35158339582383L180.97333333333333,49.3868053836538L181.34666666666666,49.338243212006596L181.53333333333333,49.33354359663201L181.81333333333333,49.332235357849925L182,49.38176059281722L182.09333333333333,49.35595192644534L182.28,49.36229951786395L182.37333333333333,49.29687690934342L183.12,49.32650923415142L183.21333333333334,49.33051605469817L183.4,49.347061013045725L184.33333333333334,49.361388306373414L184.52,49.32618482687769L184.8,49.241194823419875L185.17333333333335,49.26283868277041L185.26666666666665,49.35201150361172L185.36,49.36401716363333L185.64000000000001,49.43458207434466L185.92000000000002,49.38503224624641L186.10666666666665,49.35996737735269L186.29333333333332,49.378504380976494L186.66666666666666,49.33610919818816L186.85333333333332,49.37704515498387L187.41333333333333,49.36546810781771L187.60000000000002,49.363796890580645L187.97333333333333,49.374433711921306L188.44,49.32336997516082L188.81333333333333,49.34968650709412L189.09333333333333,49.39969302528504L189.18666666666667,49.35536723486264L189.37333333333333,49.30235450520758L189.46666666666667,49.2353826845782L189.65333333333334,49.33781287310375L189.74666666666667,49.33903995081316L189.84,49.360277767706904L190.02666666666667,49.35645116854901L190.21333333333334,49.34871139763766L190.86666666666667,49.36403968606683L190.96,49.374809571513936L191.05333333333334,49.37233659313502L191.14666666666665,49.36745761716921L191.42666666666665,49.36765687451045L192.26666666666665,49.37028157962349L192.73333333333335,49.398411767473476L192.82666666666665,49.39976792035846L192.92,49.4109244701439L193.29333333333335,49.40226140417247L193.38666666666666,49.39007753175684L193.57333333333335,49.39180953636173L193.85333333333335,49.409544628684344L194.13333333333333,49.474719707536195L194.41333333333333,49.42551147872981L194.50666666666666,49.42999597640611L194.69333333333333,49.259079347290545L194.88,49.29533697001596L195.06666666666666,49.3363884932112L195.53333333333333,49.348156052878906L195.90666666666667,49.34688015301476L196.18666666666667,49.348765545928444L196.74666666666667,49.352440296101776L196.83999999999997,49.35903395540986L196.93333333333334,49.37457599347408L197.21333333333334,49.41029545348413L197.67999999999998,49.39662432860073L198.23999999999998,49.362618217738174L198.33333333333334,49.32956603378539L198.42666666666668,49.3292656916463L198.70666666666668,49.32824148459283L198.98666666666668,49.34772187523059L199.26666666666668,49.39114457616596L199.35999999999999,49.45008357478451L199.73333333333335,49.3670757257104L199.82666666666665,49.36170770945744L199.92,49.32163471332928L200.2,49.31044659715845L200.38666666666666,49.32412404294528L200.66666666666666,49.27702537625101L200.94666666666666,49.282971266150334L201.22666666666666,49.3081912818626L201.6,49.339742962088536L201.69333333333336,49.333561081194325L201.78666666666666,49.3463521872617L201.88,49.359501353292174L201.97333333333336,49.307259563168266L202.16,49.32456735476387L202.25333333333336,49.34676421812983L202.34666666666666,49.350748443847316L202.44,49.35122079343686L203.18666666666667,49.3712231536356L203.37333333333333,49.34757700408654L203.46666666666667,49.35469652267843L203.56,49.35836208710781L203.93333333333334,49.378300808422594L204.12,49.36273807439379L204.2133333333333,49.37642633681129L204.4933333333333,49.37773766160605L204.58666666666667,49.36690025028673L206.82666666666668,49.41096118226266L206.92,49.3943152874604L207.29333333333332,49.33062238340404L207.38666666666668,49.410908325852645L207.48,49.394103264145365L207.76,49.31545275605026L207.9466666666667,49.36470499890466L208.2266666666667,49.374809776561705L208.32,49.374577157225914L208.5066666666667,49.365414439428605L208.6,49.36902819149476L208.69333333333333,49.327239296003164L209.06666666666666,49.32498469747218L209.34666666666666,49.32633658038933L209.72,49.34042539253071L210.37333333333333,49.385412447342304L210.46666666666667,49.292238010036925L210.56,49.32322716624887L210.65333333333334,49.280684240853184L211.58666666666667,49.322283480934104L211.68,49.34498723843368L211.86666666666667,49.339231979568105L212.24,49.36386106496033L212.70666666666668,49.36583270752148L213.17333333333332,49.37854015359059L213.36,49.37250713804447L213.45333333333332,49.35752399579498L213.64000000000001,49.35742682000395L213.73333333333332,49.31001234248787L213.82666666666668,49.38044613607941L214.20000000000002,49.35273482912802L214.38666666666668,49.349995710445675L214.48000000000002,49.365731002955314L214.66666666666669,49.38228481155934L214.9466666666667,49.334518066625876L215.13333333333333,49.36677960197448L215.5066666666667,49.34379832530213L215.6,49.42937925860347L215.97333333333333,49.442563593092665L216.06666666666666,49.40340958599254L216.44,49.393942956601514L216.53333333333333,49.38696628533841L216.72,49.41763755568236L216.81333333333333,49.41015248177923L216.90666666666664,49.31829958149695L217.18666666666664,49.283616520533755L217.84,49.2909733248444L217.93333333333334,49.28707398999611L218.02666666666664,49.29207720448629L218.30666666666664,49.28968135822396L218.68,49.31892331480674L219.24,49.329620565304225L219.70666666666665,49.28082969072839L219.8,49.2687306020028L220.17333333333335,49.31121738036673L220.26666666666665,49.34518015605872L220.45333333333332,49.37566282448407L221.10666666666665,49.37336645509418L221.48000000000002,49.36174552106955L221.66666666666666,49.38758161127843L221.76000000000002,49.364351256903234L222.41333333333333,49.37531493286536L222.60000000000002,49.38946997251442L222.78666666666666,49.383630311700244L222.97333333333333,49.36320811609452L223.44,49.35559297209452L223.90666666666667,49.35973628578414L224.09333333333333,49.387906782408265L224.18666666666667,49.38460291073415L224.28,49.399024913041515L224.56,49.39748103849542L224.84,49.38527961739463L225.02666666666667,49.376949798981826L225.12,49.3624185243046L225.30666666666667,49.33370842666383L225.4,49.3619165179082L225.96,49.357292472917564L226.33333333333334,49.37201190079267L226.52,49.379270645128166L227.36,49.372523432082005L227.64,49.35142243212824L227.92,49.356029341096246L228.10666666666665,49.35733566523792L229.04,49.36711191494531L229.32,49.37417461273451L229.41333333333333,49.35333003335172L229.97333333333333,49.37591841386813L230.25333333333333,49.422920766872515L231.09333333333333,49.40569570158967L231.46666666666667,49.38808690171111L231.56,49.38443476355473L231.93333333333334,49.33159186534471L232.58666666666667,49.345865041026336L232.67999999999998,49.341523392097386L233.33333333333334,49.40725185513814L233.79999999999998,49.37756902436966L233.89333333333335,49.390124207770896L233.98666666666668,49.37963404365003L234.17333333333335,49.38826726739181L234.35999999999999,49.40721210323154L234.73333333333335,49.3970991596884L234.82666666666665,49.38736382223462L235.10666666666665,49.40489379604851L235.57333333333335,49.3625389058168L236.13333333333335,49.347472666103876L236.32,49.41252093219712L236.6,49.380427397242215L237.06666666666666,49.3653375759158L237.25333333333336,49.36915087374106L237.34666666666666,49.382176856773896L237.44,49.37824931287526L237.62666666666667,49.361149610162514L237.72,49.41317328279062L237.81333333333336,49.40644577043344L238.09333333333336,49.37074768752834L238.18666666666667,49.364958216017385L238.28,49.355319483817965L238.65333333333334,49.356790823348824L238.84,49.35681044343891L239.4,49.335929335313295L239.68,49.3560558661943L239.96,49.34654452126881L240.14666666666668,49.3613047572365L240.61333333333332,49.39755259262593L241.17333333333332,49.35263282677142L241.64,49.34520042637626L241.82666666666668,49.354214323486005L242.01333333333332,49.35320824829971L242.10666666666668,49.34937821460344L242.2,49.36837205722027L242.29333333333332,49.371071308187474L242.38666666666668,49.40121811859445L242.48,49.37348458146995L243.41333333333333,49.38294329574725L243.7866666666667,49.37531015094913L244.06666666666666,49.38613713274478L244.44,49.37695407075821L245.28,49.38835112356845L245.56,49.39288753224543L245.93333333333334,49.39457355709752L246.02666666666667,49.394204078203266L246.2133333333333,49.38901812591034L246.30666666666667,49.36610320391258L246.4933333333333,49.35197061354572L246.58666666666667,49.37235591986029L247.14666666666668,49.37278258798378L247.70666666666668,49.382169153460836L248.08,49.41104566876775L248.45333333333332,49.41528571414489L248.64000000000001,49.393963673138046L248.73333333333332,49.387983844641L249.10666666666668,49.399327106128766L249.48000000000002,49.429880203732424L249.66666666666669,49.38683778812746L249.85333333333332,49.41810522213462L250.5066666666667,49.389206437134604L250.6,49.37959745507363L250.97333333333333,49.40054088548648L251.34666666666666,49.37999905611931L251.62666666666667,49.38552075956328L251.81333333333333,49.38394624410688L251.90666666666664,49.38977656722332L252,49.38248304755197L252.28,49.38043944973173L252.46666666666664,49.37455977218944L252.56,49.369835017699344L252.74666666666664,49.34791805225945L252.93333333333334,49.31082891370043L253.21333333333334,49.330115663136716L253.4,49.35475439474706L253.58666666666664,49.38753788964477L253.68,49.37191336710983L253.77333333333334,49.387881724919545L253.96,49.39997172668536L254.14666666666665,49.38691213968914L254.61333333333334,49.38340765112028L254.8,49.37534707275699L254.89333333333335,49.385284593086L255.08,49.383754671388644L255.54666666666665,49.38316664633491L255.73333333333332,49.406399844403005L255.92000000000002,49.40603393324203L256.0133333333333,49.38591129025973L256.29333333333335,49.36419306606202L257.04,49.38521376659204L257.6,49.41986230585088L258.06666666666666,49.40731335949043L258.16,49.37507775804266L258.34666666666664,49.398872560365376L258.62666666666667,49.38352497963131L258.81333333333333,49.36297228012749L259,49.38895450441238L259.18666666666667,49.4308460032345L259.28000000000003,49.33173233286583L259.74666666666667,49.37546636525962L259.84000000000003,49.36948126256787L259.93333333333334,49.36579045528909L260.2133333333333,49.38693947446463L260.3066666666667,49.3958001870314L260.58666666666664,49.35367987872472L261.14666666666665,49.36865506905558L261.24,49.37333577422698L261.4266666666667,49.392985869013394L261.61333333333334,49.34300266906318L261.8,49.361151540957636L261.8933333333333,49.31032131647577L262.91999999999996,49.342033784980465L263.0133333333333,49.33509670254012L263.1066666666667,49.34377095272359L263.38666666666666,49.33949582840767L263.85333333333335,49.379019587540334L263.94666666666666,49.358845750978915L264.41333333333336,49.3220735791274L264.50666666666666,49.35709932301494L264.59999999999997,49.388929501118774L264.6933333333333,49.39065268063369L264.88,49.32947982152055L264.97333333333336,49.370842433407766L265.06666666666666,49.38108562452056L265.3466666666667,49.375131622903496L266.37333333333333,49.37081112945528L266.93333333333334,49.399749972239924L267.12,49.32049809347358L267.58666666666664,49.33587113454041L267.8666666666667,49.35374981369488L267.96,49.324344737023154L268.05333333333334,49.33572000642205L268.24,49.388608482846045L268.8933333333333,49.31503316603212L269.17333333333335,49.313625156480164L269.36,49.32187638800681L269.64,49.35014843037712L269.82666666666665,49.35736343535558L270.0133333333333,49.37118745825536L270.38666666666666,49.239266323393224L270.76,49.196075790622125L270.85333333333335,49.25808727353709L270.94666666666666,49.32389047780302L271.03999999999996,49.345525599298355L271.2266666666667,49.372847029542505L271.41333333333336,49.45563213601607L271.50666666666666,49.282548114561955L271.59999999999997,49.27301873586088L271.7866666666667,49.313034495460236L271.88,49.38449603255334L271.97333333333336,49.37415097046614L272.15999999999997,49.474898139333696" style="fill: none;" fill="none"></path></g></g></g></g><g opacity="0.2"><g><g><g><path stroke="rgb(255, 112, 67)" stroke-width="2px" d="M18.946666666666665,49.38789530233904L19.040000000000003,49.34542666782035L19.6,49.41359899260783L19.973333333333333,49.419622096148416L20.066666666666666,49.33682360432366L20.346666666666668,49.36804207888517L20.439999999999998,49.33029218153521L20.533333333333335,49.16561592708936L20.72,49.35598628087479L20.813333333333333,49.4574199481444L21.093333333333334,49.451358480886995L21.186666666666664,49.29459474303508L22.213333333333335,49.288331866264365L22.400000000000002,49.38455765897579L23.05333333333333,49.36443588950419L23.14666666666667,49.39657509326937L23.240000000000002,49.42781274968929L23.426666666666666,49.31506178595805L23.706666666666667,49.414222403006136L23.986666666666668,49.101318337700604L24.266666666666666,49.41980432380332L24.36,49.46374037049035L24.453333333333333,49.35975551605227L24.546666666666667,49.00420058857313L24.733333333333334,49.46452682668514L24.826666666666668,49.362680749459706L24.919999999999998,49.407460797916784L25.013333333333332,49.3972272764553L25.2,49.337964924899026L25.293333333333333,49.575263695283375L25.853333333333335,49.38495088707319L26.04,49.48221250013872L26.32,49.389314759861364L26.6,49.3415327505632L26.973333333333336,49.383330020037576L27.906666666666666,49.39199062910947L28.28,49.38890234990555L28.56,49.354518868706464L28.653333333333332,49.32972631671214L28.84,49.338329380208805L29.493333333333332,49.56826231696391L29.96,49.20135172930631L30.333333333333336,49.12199638106608L30.426666666666666,49.39111785455185L30.613333333333333,49.441220868717565L30.8,49.29924634369938L30.893333333333334,49.29137219082227L31.36,49.27101064812055L31.453333333333333,49.179369319569005L32.10666666666667,49.28034262223679L32.29333333333333,49.39186594702983L32.38666666666667,49.45444676009092L32.666666666666664,49.39472404393284L33.32,49.32566935365851L33.6,49.330272999676794L33.78666666666667,49.19601917266848L33.973333333333336,49.33064704591579L34.53333333333333,49.432147849689855L34.626666666666665,49.44696583531121L34.72,49.37828519127587L35,49.41294680942191L35.18666666666667,49.468698880889214L35.56,49.441710006107L35.84,49.483190774917624L35.93333333333333,49.57309614528312L36.02666666666667,49.58387634970927L36.4,49.788009686903536L36.49333333333333,49.8740595037287L36.586666666666666,49.82903968204154L37.24,57.24700960246L37.52,102.1757558259097L37.61333333333333,130.71006978099996L37.70666666666666,60.41245742277666L37.800000000000004,142.65521724115717L37.986666666666665,146.11683175645092L38.36,153.8516667959365L38.54666666666667,156.7094579880888L38.733333333333334,155.60006561604413L39.10666666666666,159.0923490756276L39.2,158.328171860088L39.29333333333334,158.99939334020019L39.57333333333334,159.8136877315119L40.04,160.344747597013L40.973333333333336,160.7513106264047L41.16,160.43538862162015L41.44,160.68122330026446L41.53333333333334,160.67304731410167L41.626666666666665,160.72407036437653L42.37333333333333,160.63840772512114L42.74666666666667,160.67521636268464L42.839999999999996,160.7180133554026L42.93333333333333,160.73046828217974L43.12,160.73827005351302L43.86666666666667,-84.05405954881147L43.96,-35.24405609477648L44.24,24.159550666809103L44.42666666666667,42.960946505719974L44.61333333333333,47.963603951714276L44.800000000000004,39.50139284133913L44.98666666666667,45.73995660651816L45.08,49.148505709388054L45.266666666666666,45.05800317634238L45.45333333333333,45.42673604054886L45.54666666666666,44.46642507206312L45.733333333333334,49.57909047603609L46.2,46.9316391511397L46.29333333333334,48.9339470321482L46.38666666666666,48.46543014049532L46.480000000000004,48.95251507108863L47.22666666666667,48.8377979668704L47.413333333333334,49.22913665121253L47.78666666666666,49.361980611627764L48.16,49.18972752311015L48.346666666666664,49.30314985188572L48.44,49.33058950034055L48.72,49.313220327550724L49.653333333333336,49.25291256471115L50.12,49.33604673905808L50.21333333333334,49.45885858752513L50.4,49.31197350675411L50.68,49.44199773398313L50.86666666666667,49.17242548682475L50.96,49.434085217389196L51.33333333333333,49.366171847690254L51.519999999999996,49.325803626667394L51.70666666666667,49.44620815190403L52.08,49.43135180256585L52.45333333333333,49.30918254635552L52.54666666666667,49.369960264726124L52.64,49.39702586694199L52.733333333333334,49.16672847487712L52.82666666666667,49.49847871607001L52.92,49.12318565628747L53.57333333333333,49.38363692977214L53.85333333333333,49.28964582356541L53.94666666666667,49.249287193471744L54.693333333333335,49.30393630808051L55.06666666666666,49.472429752349875L55.25333333333333,49.30238257754935L55.440000000000005,49.48229881850156L55.720000000000006,49.20205186713828L56.18666666666667,49.318245974454015L56.373333333333335,49.339259700341664L56.84,48.828955130143605L57.21333333333334,49.27704334259035L57.306666666666665,49.434622309424675L57.4,49.41921927712182L57.68,49.41162326119164L57.959999999999994,49.35951574282213L58.053333333333335,49.4475317001343L58.333333333333336,49.36763925985857L58.42666666666667,49.428330659866354L58.8,49.414347085085794L59.266666666666666,49.50876019217753L59.36,49.330771727995455L59.45333333333334,49.166958657178014L59.64,49.380184195258416L59.733333333333334,49.370804266496144L59.82666666666667,49.34713385321879L60.01333333333333,49.42408187822863L60.10666666666667,49.50444427403538L60.29333333333333,49.38008828596636L60.66666666666667,49.418125911192476L60.85333333333333,49.44936356761241L60.94666666666667,49.40643456849186L61.04,49.512241699478864L61.22666666666667,49.272909652103095L61.6,49.3636686151678L61.69333333333333,49.241729541258394L62.06666666666667,49.58226507360286L62.160000000000004,49.10358179699293L62.34666666666667,49.37282795255835L62.53333333333333,49.26495877179234L62.906666666666666,48.82028493014249L63,48.53754433718595L63.28,49.35457641428168L63.46666666666666,49.61454814130611L63.56,48.479749397798024L63.74666666666666,48.96783178502864L63.84,48.403904329646736L64.12,49.581027843735455L64.21333333333334,49.66428670016202L64.30666666666666,48.96483941511675L64.49333333333334,49.18082714080813L64.77333333333334,49.576222788203864L65.14666666666666,49.602818434888675L65.52000000000001,49.728066379373736L65.61333333333333,49.95395194400443L65.89333333333333,50.51844526420942L66.17333333333333,53.067157972942724L66.26666666666667,48.02045898004013L66.36,47.64516592025759L66.45333333333333,48.11481454155663L66.54666666666667,48.71169642968613L66.64,49.449680068276166L66.92,48.04824390194634L67.01333333333334,49.392546903003364L67.10666666666667,49.21207438815726L67.2,49.654446406797945L67.48,49.27903825586493L68.13333333333334,49.4793352213773L68.41333333333334,49.316874471577734L68.50666666666667,49.18207396160474L68.69333333333333,49.45561685345391L68.78666666666666,49.4984499432824L68.88,49.42798538641497L69.06666666666666,49.033002148975044L69.25333333333333,49.77550311522051L69.44,49.11073663017968L69.62666666666667,49.31463978507304L69.72,49.47374370965092L70,49.31233796206388L70.18666666666667,49.35373241251166L70.46666666666667,49.359736334193855L70.56,49.42912670699033L71.12,49.33687155896968L71.21333333333334,49.35814423994585L71.30666666666666,49.331164956092856L71.68,49.35615891760047L71.96000000000001,49.648663076487466L72.14666666666666,49.90030987696215L72.42666666666666,50.68291051821276L72.8,66.31519480185077L73.17333333333333,-10.976434837688117L73.26666666666667,9.450546773997214L73.36,90.4020126570355L73.54666666666667,44.05716094103727L73.73333333333332,49.22646078196439L73.82666666666667,48.45153288407761L73.92,47.25474796511912L74.10666666666667,47.26462662220003L74.29333333333332,48.38773402300748L74.48,49.387434937737225L74.57333333333332,48.96120445294815L74.85333333333332,48.44456027854575L74.94666666666667,49.16764920408077L75.41333333333333,49.382255835966646L75.60000000000001,49.148697527972146L75.88000000000001,48.9759648929943L75.97333333333333,49.177297678860754L76.16000000000001,49.23093015497382L76.53333333333333,48.988701646978214L76.72,49.3435660275546L76.81333333333333,49.382879246364965L77.09333333333333,49.60536962205715L77.28,49.345292394811466L77.37333333333333,49.39961541782728L77.74666666666667,49.402483105659506L78.12,49.35374200344088L78.4,49.50059831142428L78.49333333333333,49.43427703597331L78.58666666666667,49.373835000124856L78.68,49.24821300940081L78.77333333333333,49.33919256383724L79.24,49.34302893551914L79.42666666666668,49.41056825897912L79.52,49.39372658729555L79.70666666666666,49.55122882669623L79.8,49.14146596735175L80.08,49.4149609045549L80.26666666666667,49.44157573309812L80.91999999999999,49.45033225146207L81.19999999999999,49.22569350762802L81.66666666666667,49.27691866051069L81.75999999999999,49.384874159639544L81.85333333333334,49.42365987734362L82.13333333333334,49.05846606601371L82.32,49.60748921741141L82.41333333333333,49.423554377122365L82.50666666666667,49.116702188145055L82.78666666666668,49.32843154126949L83.25333333333333,49.10716880451551L83.44,49.23020124435427L83.62666666666668,49.396642229773796L83.72,49.103610569780535L83.90666666666668,49.18548833240165L84.18666666666667,49.33667974038559L84.28,49.3294673616236L84.46666666666667,49.337744333527326L84.84,49.34097647666933L84.93333333333334,49.34628985144877L85.12,49.474846666509464L85.39999999999999,48.96975956179881L85.58666666666666,49.18247678063134L85.86666666666666,49.28673977201636L85.96,49.32679149237546L86.14666666666666,49.50828064571729L86.33333333333334,49.59101200103762L86.42666666666666,49.48031349615618L86.61333333333334,49.70251614397223L86.70666666666666,49.045384038578405L86.89333333333335,49.175772721117205L86.98666666666666,49.27157651294364L87.08,49.46838238022546L87.54666666666667,49.06245589256289L87.92,49.201562729748815L88.10666666666665,49.46379791606559L89.22666666666666,49.279431483962334L89.41333333333334,49.347690127112664L89.97333333333334,49.17770049788737L90.06666666666666,48.87345704165372L90.34666666666666,49.28423653949393L90.44,49.4352744926106L90.72,49.22705541957511L91,48.73826330358333L91.09333333333332,49.39443631605669L91.28,49.426949566060856L91.37333333333332,49.29180378263648L91.46666666666667,49.17804577133874L91.56,48.973950797861285L91.65333333333332,49.17315439744431L92.21333333333332,49.12140174345537L92.49333333333333,49.403777881102144L93.70666666666666,49.35808669437064L93.80000000000001,49.32070125233045L93.89333333333333,49.37932101162998L93.98666666666666,48.945887739008135L94.26666666666667,49.30056030100043L95.01333333333334,49.103610569780535L95.10666666666667,49.131587310270845L95.85333333333332,49.35537246140568L95.94666666666667,49.3821695176038L96.32,49.314313693480074L96.41333333333333,49.36408102512362L96.6,49.35522859746761L96.69333333333333,49.386533390391975L96.97333333333333,49.437125541947125L97.06666666666666,49.571868506344885L97.34666666666666,49.066311446103185L97.53333333333333,49.450658343055046L98,49.34047774835068L98.09333333333333,49.35904578729111L98.37333333333333,49.44507642225786L98.65333333333334,49.34806417335166L98.93333333333334,49.16803284124895L99.11999999999999,49.33780187910254L99.39999999999999,49.34511975808579L99.49333333333334,49.41005034880205L99.86666666666667,49.38663889061323L99.96,49.32829726826063L101.17333333333333,49.35185259038753L101.26666666666668,49.397630095481894L101.36,49.35939106074247L101.73333333333333,49.57192605192012L101.92,49.57064086740668L102.2,49.12560257044706L102.38666666666666,48.559689792719766L102.48,49.179119955409675L102.75999999999999,49.354816187511815L102.85333333333334,49.25646120851691L103.32,49.6185571497137L103.41333333333334,49.2564324357293L103.6,49.391328854994356L103.69333333333334,49.43738449703565L103.97333333333334,49.37468859282407L104.34666666666666,49.26442167975688L104.44,49.44284173575315L104.62666666666667,49.433222033760785L105.28,49.415296587077066L105.46666666666667,49.19797572222623L105.56,49.35614932667127L105.65333333333334,49.33235423131424L105.93333333333334,49.300521937283605L106.30666666666666,49.65695923024959L106.49333333333334,49.18236168948087L106.58666666666666,49.344870393926456L106.86666666666666,49.30101107467307L107.24000000000001,49.41652422601528L107.52,49.37974301251499L107.8,49.42642206495459L108.26666666666667,49.34829435565257L108.45333333333332,49.33104027401319L108.54666666666667,49.305298220027595L108.73333333333332,49.40907207402317L108.92,49.493807933547295L109.01333333333332,49.40965712070467L109.94666666666667,49.369317672469414L110.04,49.40038269216365L110.32000000000001,49.26860332489016L110.69333333333333,49.43193684924735L111.06666666666666,49.38430829481646L111.25333333333333,49.369288899681806L111.44000000000001,49.31297096339139L111.62666666666667,49.35173749923708L111.81333333333333,49.36491543596442L111.90666666666667,49.32791363109244L112.18666666666667,49.36963417313317L112.28,49.38935312357816L112.37333333333333,49.383387565612814L112.56,49.346337806094795L113.02666666666667,49.38749248331244L113.21333333333332,49.401054057207986L113.4,49.379340193488396L114.05333333333333,49.371667450124576L114.42666666666668,49.55274419351059L114.61333333333333,48.90152010050687L114.70666666666666,49.336794831536054L115.26666666666667,49.33788819746538L115.36,49.41822182048453L115.45333333333333,49.40044982866808L115.54666666666667,49.34965626759964L115.64,49.265610954978264L116.01333333333334,49.33809919790789L116.29333333333334,49.3741035461426L117.22666666666667,49.49792244217614L117.41333333333333,49.28404472090983L117.50666666666667,49.35592873529955L117.6,49.39106030897661L117.78666666666668,49.33278582312846L118.06666666666668,49.36138597401707L118.25333333333333,49.33382164348258L118.44,49.40423824570397L118.53333333333333,49.3153974684802L118.62666666666668,49.315272786400556L118.72,49.321641163392506L118.81333333333333,49.34605966914786L118.90666666666668,49.305969585071935L119.18666666666667,49.44452014836399L119.28,49.46962920102207L119.46666666666667,48.74745141376151L119.56,49.15055816823787L119.65333333333334,49.164676016027286L119.93333333333334,49.27801202644004L120.02666666666666,49.42378455942328L120.12,49.39337172291497L120.49333333333334,49.39980723641137L121.14666666666666,49.556638110767736L121.33333333333334,49.118697101419635L121.52,49.28092766891828L121.61333333333334,49.26627272909339L121.70666666666666,49.41919050433421L121.98666666666666,49.32762590321629L122.17333333333333,49.36977803707125L122.36,49.41202608021824L122.45333333333333,49.3797334215858L122.64,49.329064542597L123.10666666666665,49.377287734638585L123.29333333333334,49.43802708929236L123.38666666666666,49.39691077579154L123.66666666666666,49.33309273286301L123.76,49.31868715719744L123.94666666666666,49.277484525333776L124.04,49.39113703641026L124.32000000000001,49.253104383295245L124.50666666666666,49.380491104992956L124.60000000000001,49.36402347954838L124.69333333333334,49.28310480984776L124.97333333333334,49.289319731972455L125.62666666666667,49.343949664722814L125.81333333333333,49.338243061845965L126,49.37056449326603L126.09333333333332,49.388106302781544L126.18666666666667,49.371840086850256L126.93333333333332,49.9134590409019L127.12,49.098978150974645L127.30666666666667,48.62028528343549L127.58666666666667,49.54522490501406L128.14666666666668,49.14155228571459L128.24,48.71672207658942L128.42666666666668,48.94268436865374L128.52,49.497174349698156L128.61333333333332,49.48227963664317L128.98666666666668,49.245220639488934L129.17333333333332,49.318025383082315L129.36,49.40624274990777L129.64000000000001,49.381843426010846L129.73333333333332,49.39280585809189L130.01333333333332,49.35455723242327L130.10666666666665,49.35766469348563L130.38666666666666,49.40517815676603L130.48000000000002,49.36101192777808L130.76000000000002,49.39182758331301L131.13333333333333,49.21038638461722L131.22666666666666,49.36280543153937L131.32,49.32469107887963L131.50666666666666,49.45084057070994L131.88,49.257573756304666L131.97333333333333,49.353214502334616L132.34666666666666,49.373182816938936L132.81333333333333,49.55893993377688L133,48.625186248259126L133.37333333333333,49.33381205255336L133.65333333333334,49.32838358662347L133.74666666666667,49.55508438023655L134.21333333333334,49.35467232357374L134.4,49.33685237711127L134.77333333333334,49.303130670027315L134.96,49.31306687268345L135.24,49.32948654348201L135.33333333333334,49.429481571370914L135.42666666666668,49.281733306971475L135.51999999999998,49.33911583640361L135.70666666666668,49.35565059835262L135.89333333333335,49.38833648508246L135.98666666666668,49.38106656074526L136.26666666666668,49.413579810749425L136.35999999999999,49.36441670764579L136.92,49.406923705881304L137.29333333333332,49.404736974022626L137.76,49.33227750388059L137.85333333333332,49.412879672917455L137.94666666666666,49.335548010739416L138.32,49.37868801030247L138.6,49.35601505366239L139.06666666666666,49.36325620521201L139.34666666666666,49.424369606104776L139.81333333333333,49.44856752048841L139.90666666666667,49.27109696648339L140.18666666666667,49.366056756539784L140.56,49.33127045631411L140.93333333333334,49.36673771251334L141.4,49.165778972885846L141.86666666666667,49.35984183441511L142.0533333333333,49.29772138595583L142.33333333333331,49.42315155809577L142.42666666666668,49.27403179082005L142.61333333333332,49.46237845854326L143.26666666666668,49.33410937135871L144.20000000000002,49.397486231543816L144.48000000000002,49.28651918064466L144.76,49.316893653436146L144.85333333333332,49.311810460957616L145.04,49.364483844150215L145.41333333333333,49.33657424016434L145.6,49.45140643553301L145.97333333333333,49.365970438176944L146.06666666666666,49.246707233515664L146.16,49.492704976688756L146.25333333333333,49.32455680587077L146.34666666666666,49.38614975322379L147,49.4052932479165L147.09333333333333,49.33989270166918L147.46666666666664,49.390609535303994L147.93333333333334,49.3823901089755L148.02666666666664,49.34648167003287L148.4,49.34485121206804L148.68,49.36552925543352L149.05333333333334,49.4234296950427L150.92000000000002,49.37305813485927L151.29333333333332,49.29328078573401L152.22666666666666,49.37720141627574L152.32000000000002,49.203672734173864L152.69333333333333,49.35918006029996L152.88000000000002,49.36002406206998L152.97333333333333,49.382629882205634L153.06666666666666,49.37430495565589L153.16000000000003,49.37260736118665L153.44,49.388921531763955L153.72,49.346558397466495L153.90666666666667,49.40963793884626L154.09333333333333,49.339854337952374L154.18666666666667,49.3803568319841L154.37333333333333,49.33294886892493L154.46666666666667,49.42510810765354L154.65333333333334,49.33922133662486L154.74666666666667,49.39169331030413L154.93333333333334,49.40930225632409L155.02666666666667,49.37172499569981L155.21333333333334,49.35119081627241L155.86666666666667,49.318188428878805L156.14666666666665,49.35171831737867L156.24,49.385209842161714L156.42666666666665,49.491976066069185L157.08,49.382543563842795L157.45333333333335,49.1596407781948L157.73333333333335,49.31475487622349L158.01333333333335,49.260527762499734L158.10666666666665,49.33232545852663L158.48,49.42115664482119L158.57333333333335,49.39936605366795L158.85333333333335,49.318495338613346L159.50666666666666,49.35783733021131L159.6,49.369960264726124L159.69333333333333,49.35601505366239L159.88,49.27969043905086L160.06666666666666,49.26394213329664L160.16,49.40930225632409L160.81333333333333,49.37222372401847L161.28,49.09776010296563L161.83999999999997,49.34030511162499L162.11999999999998,49.44848120212557L162.21333333333334,49.35377077622849L162.49333333333334,49.339346018704504L163.14666666666668,49.2461797324094L163.42666666666668,49.433049397035084L163.51999999999998,49.36205733906141L163.61333333333334,49.36903953552248L164.45333333333335,49.02963573282416L164.73333333333335,49.36221079392868L164.82666666666665,49.35777978463608L165.01333333333335,49.368272261186085L165.2,49.30211403153161L165.29333333333335,49.308185089718236L165.38666666666666,49.33918297290804L165.48,49.39558722756127L165.76,49.4296350262382L166.13333333333335,49.46301145987078L166.22666666666666,49.39106030897661L166.32,49.20986847444016L166.6,49.49183220213111L167.06666666666666,49.35867174105211L167.53333333333336,49.41994818774137L167.62666666666667,49.28447631272404L167.72,49.31440960277213L168.09333333333336,49.505998004566564L168.18666666666667,49.434449672698996L168.28,49.375599731098546L169.02666666666667,49.33127045631411L169.30666666666667,49.377172643488116L169.4933333333333,49.24115408550611L170.0533333333333,49.35525737025523L170.24,49.359908970919534L170.51999999999998,49.291007735512494L170.89333333333332,49.321478117596044L171.26666666666668,49.34016124768692L171.45333333333332,49.39787945964122L171.73333333333332,49.44643833420495L171.82666666666668,49.33255564082755L172.29333333333332,49.24083758484235L172.38666666666668,49.48570359836927L172.76,49.36559639193797L172.85333333333332,49.28891691294584L172.9466666666667,49.39235508441927L173.04,49.460824728012106L173.2266666666667,49.42269119349393L173.41333333333333,49.653103676709264L173.7866666666667,49.53248815103012L173.97333333333333,49.12652329965073L174.16,49.50981519439006L174.44,49.45294098420578L174.53333333333333,49.480994452129735L174.90666666666667,49.43616644902664L175.18666666666667,49.36491543596442L175.37333333333333,49.38450011340055L175.93333333333334,49.381757107647985L176.02666666666667,49.46256068619816L176.12,49.37442963773555L176.2133333333333,49.33359146118166L176.68,49.36152024702593L176.7733333333333,49.40721143375745L176.86666666666667,49.339135018262L177.24,49.26330913196912L177.52,49.36182715676049L177.70666666666668,49.50060790235347L177.98666666666668,49.414308721368975L178.17333333333332,49.39982641826978L178.26666666666668,49.42232673818416L178.36,49.36201897534458L178.45333333333332,49.37938814813442L179.01333333333332,49.40736488862473L179.38666666666668,49.306199767372846L179.48000000000002,49.34798744591801L179.57333333333332,49.358220967379495L179.66666666666669,49.34078465808524L180.13333333333333,49.483334638855695L180.88,49.27390710874039L180.97333333333333,49.43963836539878L181.34666666666666,49.26539995453576L181.53333333333333,49.32649417357012L181.81333333333333,49.330272999676794L182,49.45604844526812L182.09333333333333,49.31723892688753L182.28,49.371820904991864L182.37333333333333,49.19874299656263L183.12,49.37095772136344L183.21333333333334,49.33652628551832L183.4,49.37187845056708L184.33333333333334,49.382879246364965L184.52,49.273379607634126L184.8,49.11370981823316L185.17333333333335,49.29530447179622L185.26666666666665,49.4857707348737L185.36,49.38202565366573L185.64000000000001,49.54042944041166L185.92000000000002,49.31070750409908L186.10666666666665,49.32237007401208L186.29333333333332,49.4063098864122L186.66666666666666,49.272516424005694L186.85333333333332,49.43844909017737L187.41333333333333,49.348102537068456L187.60000000000002,49.36129006472501L187.97333333333333,49.390388943932294L188.44,49.2467743700201L188.81333333333333,49.38916130499407L189.09333333333333,49.474702802571386L189.18666666666667,49.28887854922904L189.37333333333333,49.22283541072501L189.46666666666667,49.1349249536341L189.65333333333334,49.49145815589213L189.74666666666667,49.340880567377276L189.84,49.39213449304755L190.02666666666667,49.350711269812166L190.21333333333334,49.3371017412706L190.86666666666667,49.38703211871061L190.96,49.39096439968458L191.05333333333334,49.36862712556667L191.14666666666665,49.36013915322045L191.42666666666665,49.36795576052233L192.26666666666665,49.37421863729305L192.73333333333335,49.440607049248456L192.82666666666665,49.40180214968595L192.92,49.427659294822014L193.29333333333335,49.38926680521532L193.38666666666666,49.37180172313346L193.57333333333335,49.39440754326908L193.85333333333335,49.43614726716823L194.13333333333333,49.57248232581401L194.41333333333333,49.351699135520256L194.50666666666666,49.43672272292051L194.69333333333333,49.00270440361718L194.88,49.34972340410407L195.06666666666666,49.397965778004064L195.53333333333333,49.365807392380475L195.90666666666667,49.34496630321851L196.18666666666667,49.351593635299004L196.74666666666667,49.35795242136176L196.83999999999997,49.36892444437201L196.93333333333334,49.39788905057041L197.21333333333334,49.46387464349921L197.67999999999998,49.37611764127559L198.23999999999998,49.31160905144433L198.33333333333334,49.279987757856205L198.42666666666668,49.32881517843767L198.70666666666668,49.32670517401262L198.98666666666668,49.3769424611872L199.26666666666668,49.456278627569034L199.35999999999999,49.538492072712316L199.73333333333335,49.24256395209922L199.82666666666665,49.35365568507804L199.92,49.26152521913703L200.2,49.2936644229022L200.38666666666666,49.34464021162554L200.66666666666666,49.20637737620963L200.94666666666666,49.29189010099932L201.22666666666666,49.34602130543104L201.6,49.38707048242743L201.69333333333336,49.324288259853034L201.78666666666666,49.36553884636274L201.88,49.37922510233793L201.97333333333336,49.228896877982415L202.16,49.35052904215726L202.25333333333336,49.38005951317875L202.34666666666666,49.356724782423555L202.44,49.351929317821174L203.18666666666667,49.40122669393367L203.37333333333333,49.31210777976298L203.46666666666667,49.365375800566255L203.56,49.363860433751896L203.93333333333334,49.40820889039475L204.12,49.339393973350546L204.2133333333333,49.396958730437554L204.4933333333333,49.379704648798175L204.58666666666667,49.35064413330773L206.82666666666668,49.47705258022657L206.92,49.36934644525702L207.29333333333332,49.23508302731949L207.38666666666668,49.531337239525556L207.48,49.368895671584404L207.76,49.1974769939076L207.9466666666667,49.438583363186254L208.2266666666667,49.389966943047284L208.32,49.374228228222265L208.5066666666667,49.35167036273265L208.6,49.374448819593965L208.69333333333333,49.26455595276574L209.06666666666666,49.3216027996757L209.34666666666666,49.328364404765054L209.72,49.361558610742755L210.37333333333333,49.45289302955976L210.46666666666667,49.15247635407883L210.56,49.369710900566815L210.65333333333334,49.216869852759636L211.58666666666667,49.38468234105545L211.68,49.37904287468305L211.86666666666667,49.33059909126977L212.24,49.40080469304866L212.70666666666668,49.36879017136315L213.17333333333332,49.397601322694264L213.36,49.3634576147253L213.45333333333332,49.33504928242078L213.64000000000001,49.35728105631742L213.73333333333332,49.23889062621379L213.82666666666668,49.48609682646665L214.20000000000002,49.311167868700906L214.38666666666668,49.345887032422155L214.48000000000002,49.38933394171977L214.66666666666669,49.4071155244654L214.9466666666667,49.2628679492257L215.13333333333333,49.41517190499741L215.5066666666667,49.3093264102936L215.6,49.55775065855547L215.97333333333333,49.46234009482646L216.06666666666666,49.344678575342364L216.44,49.37974301251499L216.53333333333333,49.376501278443776L216.72,49.46364446119829L216.81333333333333,49.39892487092453L216.90666666666664,49.180520231073565L217.18666666666664,49.231591929088964L217.84,49.302008531310356L217.93333333333334,49.281224987723625L218.02666666666664,49.29958202622155L218.30666666666664,49.28608758883043L218.68,49.36278624968096L219.24,49.345666441050454L219.70666666666665,49.20764337886466L219.8,49.2505819689144L220.17333333333335,49.37494754791262L220.26666666666665,49.39612431959673L220.45333333333332,49.421386827122106L221.10666666666665,49.36992190100932L221.48000000000002,49.344314120032585L221.66666666666666,49.426335746591754L221.76000000000002,49.329505725340425L222.41333333333333,49.391760446808576L222.60000000000002,49.41070253198798L222.78666666666666,49.374870820478975L222.97333333333333,49.332574822685956L223.44,49.344170256094515L223.90666666666667,49.36595125631853L224.09333333333333,49.430162527344464L224.18666666666667,49.379647103222936L224.28,49.420657916502535L224.56,49.39516522667626L224.84,49.36697748574345L225.02666666666667,49.364455071362585L225.12,49.34062161228875L225.30666666666667,49.2906432802027L225.4,49.404228654774755L225.96,49.35035640543158L226.33333333333334,49.394091042605325L226.52,49.39015876163138L227.36,49.362402612512774L227.64,49.31977093219759L227.92,49.36293970454825L228.10666666666665,49.35929515145043L229.04,49.3817762895064L229.32,49.38476865941829L229.41333333333333,49.322063164277516L229.97333333333333,49.40980098464274L230.25333333333333,49.49342429637911L231.09333333333333,49.37985810366544L231.46666666666667,49.361673701893224L231.56,49.37895655632021L231.93333333333334,49.25232751802965L232.58666666666667,49.3672748045488L232.67999999999998,49.33501091870396L233.33333333333334,49.50584454969927L233.79999999999998,49.33304477821699L233.89333333333335,49.40895698287272L233.98666666666668,49.36389879746872L234.17333333333335,49.40121710300448L234.35999999999999,49.435629356991186L234.73333333333335,49.38192974437369L234.82666666666665,49.372760816053926L235.10666666666665,49.431188756769366L235.57333333333335,49.299006570469274L236.13333333333335,49.32487330653453L236.32,49.510093331336996L236.6,49.33228709480981L237.06666666666666,49.34270284392619L237.25333333333336,49.374870820478975L237.34666666666666,49.40171583132311L237.44,49.37235799702732L237.62666666666667,49.3355000560934L237.72,49.49120879173281L237.81333333333336,49.39635450189765L238.09333333333336,49.31720056317071L238.18666666666667,49.35627400875094L238.28,49.34086138551886L238.65333333333334,49.35899783264509L238.84,49.35683987357402L239.4,49.30460767312485L239.68,49.386245662515826L239.96,49.33227750388059L240.14666666666668,49.383445111188024L240.61333333333332,49.451924345710076L241.17333333333332,49.28525317798963L241.64,49.33405182578349L241.82666666666668,49.36773516915063L242.01333333333332,49.351699135520256L242.10666666666668,49.34363316405906L242.2,49.3968628211455L242.29333333333332,49.3751201846383L242.38666666666668,49.44643833420495L242.48,49.33188427578321L243.41333333333333,49.39713136716324L243.7866666666667,49.363860433751896L244.06666666666666,49.402377605438254L244.44,49.36317947777836L245.28,49.40544670278377L245.56,49.3996921452609L245.93333333333334,49.39710259437563L246.02666666666667,49.39364985986191L246.2133333333333,49.38123919747094L246.30666666666667,49.331730820915936L246.4933333333333,49.330771727995455L246.58666666666667,49.402933879332124L247.14666666666668,49.37342259016904L247.70666666666668,49.396249001676395L248.08,49.45436044172808L248.45333333333332,49.421645782210625L248.64000000000001,49.361980611627764L248.73333333333332,49.37901410189542L249.10666666666668,49.416341998360394L249.48000000000002,49.475709850137896L249.66666666666669,49.32227416472002L249.85333333333332,49.46500637314538L250.5066666666667,49.345858259634554L250.6,49.365183981982156L250.97333333333333,49.431956031105756L251.34666666666666,49.34918631206861L251.62666666666667,49.393803314729176L251.81333333333333,49.381584470922306L251.90666666666664,49.39852205189793L252,49.37154276804491L252.28,49.377374053001425L252.46666666666664,49.36574025587603L252.56,49.362747885964154L252.74666666666664,49.315042604099645L252.93333333333334,49.25519520586188L253.21333333333334,49.35904578729111L253.4,49.39171249216254L253.58666666666664,49.43671313199131L253.68,49.34847658330745L253.77333333333334,49.41183426163415L253.96,49.41810672933406L254.14666666666665,49.36732275919481L254.61333333333334,49.37815091826701L254.8,49.36325620521201L254.89333333333335,49.40019087357956L255.08,49.38145978884264L255.54666666666665,49.38228460875425L255.73333333333332,49.441249641505166L255.92000000000002,49.40548506650059L256.0133333333333,49.35572732578626L256.29333333333335,49.331615729765474L257.04,49.416744817387L257.6,49.47183511473918L258.06666666666666,49.38848993994975L258.16,49.326724355871036L258.34666666666664,49.434564763849444L258.62666666666667,49.36050360853023L258.81333333333333,49.332143230871736L259,49.42792784083976L259.18666666666667,49.49368325146763L259.28000000000003,49.18306182731284L259.74666666666667,49.44106741385027L259.84000000000003,49.36050360853023L259.93333333333334,49.3602542443709L260.2133333333333,49.41866300322795L260.3066666666667,49.409091255881584L260.58666666666664,49.29049941626462L261.14666666666665,49.39111785455185L261.24,49.3803568319841L261.4266666666667,49.422461011193036L261.61333333333334,49.26802786913785L261.8,49.38837484879929L261.8933333333333,49.23407597975298L262.91999999999996,49.38960248773749L263.0133333333333,49.32469107887963L263.1066666666667,49.356782327998786L263.38666666666666,49.33308314193381L263.85333333333335,49.438305226239294L263.94666666666666,49.328584996136755L264.41333333333336,49.26691532135012L264.50666666666666,49.40963793884626L264.59999999999997,49.43667476827449L264.6933333333333,49.39323744990611L264.88,49.2377205328508L264.97333333333336,49.43288635123862L265.06666666666666,49.396450411189704L265.3466666666667,49.36620062047786L266.37333333333333,49.36433038928294L266.93333333333334,49.443158236416906L267.12,49.20162027532405L267.58666666666664,49.35893069614066L267.8666666666667,49.38056783242661L267.96,49.280237122015535L268.05333333333334,49.35278291052039L268.24,49.467941197482034L268.8933333333333,49.20467019081118L269.17333333333335,49.31151314215227L269.36,49.334253235296785L269.64,49.39255649393256L269.82666666666665,49.368185942823246L270.0133333333333,49.391923492605045L270.38666666666666,49.04138462110001L270.76,49.13128999146549L270.85333333333335,49.35110449790957L270.94666666666666,49.4225952842019L271.03999999999996,49.37797828154131L271.2266666666667,49.41382917490873L271.41333333333336,49.57980979572645L271.50666666666666,49.02292208238083L271.59999999999997,49.25872466780925L271.7866666666667,49.37305813485927L271.88,49.49168833819303L271.97333333333336,49.35863337733531L272.15999999999997,49.62601889263502" style="fill: none;" fill="none"></path></g></g></g></g></g></g><g transform="translate(50, 177)" clip-path="url(#clip_1)"><clipPath id="clip_1"><rect width="280" height="22"></rect></clipPath><g><g><line x1="0" y1="0" x2="0" y2="5" style="visibility: inherit;" fill="rgb(0, 0, 0)" stroke="rgb(204, 204, 204)" stroke-width="1px"></line><line x1="18.666666666666668" y1="0" x2="18.666666666666668" y2="5" style="visibility: inherit;" fill="rgb(0, 0, 0)" stroke="rgb(204, 204, 204)" stroke-width="1px"></line><line x1="37.333333333333336" y1="0" x2="37.333333333333336" y2="5" style="visibility: inherit;" fill="rgb(0, 0, 0)" stroke="rgb(204, 204, 204)" stroke-width="1px"></line><line x1="56" y1="0" x2="56" y2="5" style="visibility: inherit;" fill="rgb(0, 0, 0)" stroke="rgb(204, 204, 204)" stroke-width="1px"></line><line x1="74.66666666666667" y1="0" x2="74.66666666666667" y2="5" style="visibility: inherit;" fill="rgb(0, 0, 0)" stroke="rgb(204, 204, 204)" stroke-width="1px"></line><line x1="93.33333333333333" y1="0" x2="93.33333333333333" y2="5" style="visibility: inherit;" fill="rgb(0, 0, 0)" stroke="rgb(204, 204, 204)" stroke-width="1px"></line><line x1="112" y1="0" x2="112" y2="5" style="visibility: inherit;" fill="rgb(0, 0, 0)" stroke="rgb(204, 204, 204)" stroke-width="1px"></line><line x1="130.66666666666666" y1="0" x2="130.66666666666666" y2="5" style="visibility: inherit;" fill="rgb(0, 0, 0)" stroke="rgb(204, 204, 204)" stroke-width="1px"></line><line x1="149.33333333333334" y1="0" x2="149.33333333333334" y2="5" style="visibility: inherit;" fill="rgb(0, 0, 0)" stroke="rgb(204, 204, 204)" stroke-width="1px"></line><line x1="168" y1="0" x2="168" y2="5" style="visibility: inherit;" fill="rgb(0, 0, 0)" stroke="rgb(204, 204, 204)" stroke-width="1px"></line><line x1="186.66666666666666" y1="0" x2="186.66666666666666" y2="5" style="visibility: inherit;" fill="rgb(0, 0, 0)" stroke="rgb(204, 204, 204)" stroke-width="1px"></line><line x1="205.33333333333331" y1="0" x2="205.33333333333331" y2="5" style="visibility: inherit;" fill="rgb(0, 0, 0)" stroke="rgb(204, 204, 204)" stroke-width="1px"></line><line x1="224" y1="0" x2="224" y2="5" style="visibility: inherit;" fill="rgb(0, 0, 0)" stroke="rgb(204, 204, 204)" stroke-width="1px"></line><line x1="242.66666666666669" y1="0" x2="242.66666666666669" y2="5" style="visibility: inherit;" fill="rgb(0, 0, 0)" stroke="rgb(204, 204, 204)" stroke-width="1px"></line><line x1="261.3333333333333" y1="0" x2="261.3333333333333" y2="5" style="visibility: inherit;" fill="rgb(0, 0, 0)" stroke="rgb(204, 204, 204)" stroke-width="1px"></line><line x1="280" y1="0" x2="280" y2="5" style="visibility: inherit;" fill="rgb(0, 0, 0)" stroke="rgb(204, 204, 204)" stroke-width="1px"></line></g><g transform="translate(0, 8)"><text x="0" y="0" dx="0em" dy="0.95em" style="text-anchor: middle; visibility: hidden; font-family: Roboto, sans-serif; font-size: 12px; font-weight: 200;" fill="rgb(33, 33, 33)" stroke="none" stroke-width="1px">-200</text><text x="18.666666666666668" y="0" dx="0em" dy="0.95em" style="text-anchor: middle; visibility: inherit; font-family: Roboto, sans-serif; font-size: 12px; font-weight: 200;" fill="rgb(33, 33, 33)" stroke="none" stroke-width="1px">0</text><text x="37.333333333333336" y="0" dx="0em" dy="0.95em" style="text-anchor: middle; visibility: hidden; font-family: Roboto, sans-serif; font-size: 12px; font-weight: 200;" fill="rgb(33, 33, 33)" stroke="none" stroke-width="1px">200</text><text x="56" y="0" dx="0em" dy="0.95em" style="text-anchor: middle; visibility: inherit; font-family: Roboto, sans-serif; font-size: 12px; font-weight: 200;" fill="rgb(33, 33, 33)" stroke="none" stroke-width="1px">400</text><text x="74.66666666666667" y="0" dx="0em" dy="0.95em" style="text-anchor: middle; visibility: hidden; font-family: Roboto, sans-serif; font-size: 12px; font-weight: 200;" fill="rgb(33, 33, 33)" stroke="none" stroke-width="1px">600</text><text x="93.33333333333333" y="0" dx="0em" dy="0.95em" style="text-anchor: middle; visibility: inherit; font-family: Roboto, sans-serif; font-size: 12px; font-weight: 200;" fill="rgb(33, 33, 33)" stroke="none" stroke-width="1px">800</text><text x="112" y="0" dx="0em" dy="0.95em" style="text-anchor: middle; visibility: hidden; font-family: Roboto, sans-serif; font-size: 12px; font-weight: 200;" fill="rgb(33, 33, 33)" stroke="none" stroke-width="1px">1k</text><text x="130.66666666666666" y="0" dx="0em" dy="0.95em" style="text-anchor: middle; visibility: inherit; font-family: Roboto, sans-serif; font-size: 12px; font-weight: 200;" fill="rgb(33, 33, 33)" stroke="none" stroke-width="1px">1.2k</text><text x="149.33333333333334" y="0" dx="0em" dy="0.95em" style="text-anchor: middle; visibility: hidden; font-family: Roboto, sans-serif; font-size: 12px; font-weight: 200;" fill="rgb(33, 33, 33)" stroke="none" stroke-width="1px">1.4k</text><text x="168" y="0" dx="0em" dy="0.95em" style="text-anchor: middle; visibility: inherit; font-family: Roboto, sans-serif; font-size: 12px; font-weight: 200;" fill="rgb(33, 33, 33)" stroke="none" stroke-width="1px">1.6k</text><text x="186.66666666666666" y="0" dx="0em" dy="0.95em" style="text-anchor: middle; visibility: hidden; font-family: Roboto, sans-serif; font-size: 12px; font-weight: 200;" fill="rgb(33, 33, 33)" stroke="none" stroke-width="1px">1.8k</text><text x="205.33333333333331" y="0" dx="0em" dy="0.95em" style="text-anchor: middle; visibility: inherit; font-family: Roboto, sans-serif; font-size: 12px; font-weight: 200;" fill="rgb(33, 33, 33)" stroke="none" stroke-width="1px">2k</text><text x="224" y="0" dx="0em" dy="0.95em" style="text-anchor: middle; visibility: hidden; font-family: Roboto, sans-serif; font-size: 12px; font-weight: 200;" fill="rgb(33, 33, 33)" stroke="none" stroke-width="1px">2.2k</text><text x="242.66666666666669" y="0" dx="0em" dy="0.95em" style="text-anchor: middle; visibility: inherit; font-family: Roboto, sans-serif; font-size: 12px; font-weight: 200;" fill="rgb(33, 33, 33)" stroke="none" stroke-width="1px">2.4k</text><text x="261.3333333333333" y="0" dx="0em" dy="0.95em" style="text-anchor: middle; visibility: hidden; font-family: Roboto, sans-serif; font-size: 12px; font-weight: 200;" fill="rgb(33, 33, 33)" stroke="none" stroke-width="1px">2.6k</text><text x="280" y="0" dx="0em" dy="0.95em" style="text-anchor: middle; visibility: hidden; font-family: Roboto, sans-serif; font-size: 12px; font-weight: 200;" fill="rgb(33, 33, 33)" stroke="none" stroke-width="1px">2.8k</text></g><line x1="0" y1="0" x2="280" y2="0" fill="rgb(0, 0, 0)" stroke="rgb(204, 204, 204)" stroke-width="1px"></line></g></g></g></g></svg>