<svg viewBox="0 0 330 200" xmlns="http://www.w3.org/2000/svg"><g><g><g><g><g><line x1="50" y1="177" x2="45" y2="177" style="visibility: inherit;" fill="rgb(0, 0, 0)" stroke="rgb(204, 204, 204)" stroke-width="1px"></line><line x1="50" y1="159.3" x2="45" y2="159.3" style="visibility: inherit;" fill="rgb(0, 0, 0)" stroke="rgb(204, 204, 204)" stroke-width="1px"></line><line x1="50" y1="141.6" x2="45" y2="141.6" style="visibility: inherit;" fill="rgb(0, 0, 0)" stroke="rgb(204, 204, 204)" stroke-width="1px"></line><line x1="50" y1="123.89999999999999" x2="45" y2="123.89999999999999" style="visibility: inherit;" fill="rgb(0, 0, 0)" stroke="rgb(204, 204, 204)" stroke-width="1px"></line><line x1="50" y1="106.2" x2="45" y2="106.2" style="visibility: inherit;" fill="rgb(0, 0, 0)" stroke="rgb(204, 204, 204)" stroke-width="1px"></line><line x1="50" y1="88.5" x2="45" y2="88.5" style="visibility: inherit;" fill="rgb(0, 0, 0)" stroke="rgb(204, 204, 204)" stroke-width="1px"></line><line x1="50" y1="70.8" x2="45" y2="70.8" style="visibility: inherit;" fill="rgb(0, 0, 0)" stroke="rgb(204, 204, 204)" stroke-width="1px"></line><line x1="50" y1="53.10000000000001" x2="45" y2="53.10000000000001" style="visibility: inherit;" fill="rgb(0, 0, 0)" stroke="rgb(204, 204, 204)" stroke-width="1px"></line><line x1="50" y1="35.39999999999999" x2="45" y2="35.39999999999999" style="visibility: inherit;" fill="rgb(0, 0, 0)" stroke="rgb(204, 204, 204)" stroke-width="1px"></line><line x1="50" y1="17.699999999999996" x2="45" y2="17.699999999999996" style="visibility: inherit;" fill="rgb(0, 0, 0)" stroke="rgb(204, 204, 204)" stroke-width="1px"></line><line x1="50" y1="0" x2="45" y2="0" style="visibility: inherit;" fill="rgb(0, 0, 0)" stroke="rgb(204, 204, 204)" stroke-width="1px"></line></g><g transform="translate(40, 0)"><text x="0" y="177" dx="0em" dy="0.3em" style="text-anchor: end; visibility: hidden; font-family: Roboto, sans-serif; font-size: 12px; font-weight: 200;" fill="rgb(33, 33, 33)" stroke="none" stroke-width="1px">5.5</text><text x="0" y="159.3" dx="0em" dy="0.3em" style="text-anchor: end; visibility: inherit; font-family: Roboto, sans-serif; font-size: 12px; font-weight: 200;" fill="rgb(33, 33, 33)" stroke="none" stroke-width="1px">6</text><text x="0" y="141.6" dx="0em" dy="0.3em" style="text-anchor: end; visibility: hidden; font-family: Roboto, sans-serif; font-size: 12px; font-weight: 200;" fill="rgb(33, 33, 33)" stroke="none" stroke-width="1px">6.5</text><text x="0" y="123.89999999999999" dx="0em" dy="0.3em" style="text-anchor: end; visibility: inherit; font-family: Roboto, sans-serif; font-size: 12px; font-weight: 200;" fill="rgb(33, 33, 33)" stroke="none" stroke-width="1px">7</text><text x="0" y="106.2" dx="0em" dy="0.3em" style="text-anchor: end; visibility: hidden; font-family: Roboto, sans-serif; font-size: 12px; font-weight: 200;" fill="rgb(33, 33, 33)" stroke="none" stroke-width="1px">7.5</text><text x="0" y="88.5" dx="0em" dy="0.3em" style="text-anchor: end; visibility: inherit; font-family: Roboto, sans-serif; font-size: 12px; font-weight: 200;" fill="rgb(33, 33, 33)" stroke="none" stroke-width="1px">8</text><text x="0" y="70.8" dx="0em" dy="0.3em" style="text-anchor: end; visibility: hidden; font-family: Roboto, sans-serif; font-size: 12px; font-weight: 200;" fill="rgb(33, 33, 33)" stroke="none" stroke-width="1px">8.5</text><text x="0" y="53.10000000000001" dx="0em" dy="0.3em" style="text-anchor: end; visibility: inherit; font-family: Roboto, sans-serif; font-size: 12px; font-weight: 200;" fill="rgb(33, 33, 33)" stroke="none" stroke-width="1px">9</text><text x="0" y="35.39999999999999" dx="0em" dy="0.3em" style="text-anchor: end; visibility: hidden; font-family: Roboto, sans-serif; font-size: 12px; font-weight: 200;" fill="rgb(33, 33, 33)" stroke="none" stroke-width="1px">9.5</text><text x="0" y="17.699999999999996" dx="0em" dy="0.3em" style="text-anchor: end; visibility: inherit; font-family: Roboto, sans-serif; font-size: 12px; font-weight: 200;" fill="rgb(33, 33, 33)" stroke="none" stroke-width="1px">10</text><text x="0" y="0" dx="0em" dy="0.3em" style="text-anchor: end; visibility: hidden; font-family: Roboto, sans-serif; font-size: 12px; font-weight: 200;" fill="rgb(33, 33, 33)" stroke="none" stroke-width="1px">10.5</text></g><line x1="50" y1="0" x2="50" y2="177" fill="rgb(0, 0, 0)" stroke="rgb(204, 204, 204)" stroke-width="1px"></line></g></g><g transform="translate(50, 0)" clip-path="url(#clip_0)"><clipPath id="clip_0"><rect width="280" height="176"></rect></clipPath><g><g><g><line x1="0" y1="0" x2="0" y2="177" fill="rgb(0, 0, 0)" stroke="rgb(66, 66, 66)" stroke-width="1px" opacity="0.25"></line><line x1="18.666666666666668" y1="0" x2="18.666666666666668" y2="177" fill="rgb(0, 0, 0)" stroke="rgb(66, 66, 66)" stroke-width="1px" opacity="0.25"></line><line x1="37.333333333333336" y1="0" x2="37.333333333333336" y2="177" fill="rgb(0, 0, 0)" stroke="rgb(66, 66, 66)" stroke-width="1px" opacity="0.25"></line><line x1="56" y1="0" x2="56" y2="177" fill="rgb(0, 0, 0)" stroke="rgb(66, 66, 66)" stroke-width="1px" opacity="0.25"></line><line x1="74.66666666666667" y1="0" x2="74.66666666666667" y2="177" fill="rgb(0, 0, 0)" stroke="rgb(66, 66, 66)" stroke-width="1px" opacity="0.25"></line><line x1="93.33333333333333" y1="0" x2="93.33333333333333" y2="177" fill="rgb(0, 0, 0)" stroke="rgb(66, 66, 66)" stroke-width="1px" opacity="0.25"></line><line x1="112" y1="0" x2="112" y2="177" fill="rgb(0, 0, 0)" stroke="rgb(66, 66, 66)" stroke-width="1px" opacity="0.25"></line><line x1="130.66666666666666" y1="0" x2="130.66666666666666" y2="177" fill="rgb(0, 0, 0)" stroke="rgb(66, 66, 66)" stroke-width="1px" opacity="0.25"></line><line x1="149.33333333333334" y1="0" x2="149.33333333333334" y2="177" fill="rgb(0, 0, 0)" stroke="rgb(66, 66, 66)" stroke-width="1px" opacity="0.25"></line><line x1="168" y1="0" x2="168" y2="177" fill="rgb(0, 0, 0)" stroke="rgb(66, 66, 66)" stroke-width="1px" opacity="0.25"></line><line x1="186.66666666666666" y1="0" x2="186.66666666666666" y2="177" fill="rgb(0, 0, 0)" stroke="rgb(66, 66, 66)" stroke-width="1px" opacity="0.25"></line><line x1="205.33333333333331" y1="0" x2="205.33333333333331" y2="177" fill="rgb(0, 0, 0)" stroke="rgb(66, 66, 66)" stroke-width="1px" opacity="0.25"></line><line x1="224" y1="0" x2="224" y2="177" fill="rgb(0, 0, 0)" stroke="rgb(66, 66, 66)" stroke-width="1px" opacity="0.25"></line><line x1="242.66666666666669" y1="0" x2="242.66666666666669" y2="177" fill="rgb(0, 0, 0)" stroke="rgb(66, 66, 66)" stroke-width="1px" opacity="0.25"></line><line x1="261.3333333333333" y1="0" x2="261.3333333333333" y2="177" fill="rgb(0, 0, 0)" stroke="rgb(66, 66, 66)" stroke-width="1px" opacity="0.25"></line><line x1="280" y1="0" x2="280" y2="177" fill="rgb(0, 0, 0)" stroke="rgb(66, 66, 66)" stroke-width="1px" opacity="0.25"></line></g><g><line x1="0" y1="177" x2="280" y2="177" fill="rgb(0, 0, 0)" stroke="rgb(66, 66, 66)" stroke-width="1px" opacity="0.25"></line><line x1="0" y1="159.3" x2="280" y2="159.3" fill="rgb(0, 0, 0)" stroke="rgb(66, 66, 66)" stroke-width="1px" opacity="0.25"></line><line x1="0" y1="141.6" x2="280" y2="141.6" fill="rgb(0, 0, 0)" stroke="rgb(66, 66, 66)" stroke-width="1px" opacity="0.25"></line><line x1="0" y1="123.89999999999999" x2="280" y2="123.89999999999999" fill="rgb(0, 0, 0)" stroke="rgb(66, 66, 66)" stroke-width="1px" opacity="0.25"></line><line x1="0" y1="106.2" x2="280" y2="106.2" fill="rgb(0, 0, 0)" stroke="rgb(66, 66, 66)" stroke-width="1px" opacity="0.25"></line><line x1="0" y1="88.5" x2="280" y2="88.5" fill="rgb(0, 0, 0)" stroke="rgb(66, 66, 66)" stroke-width="1px" opacity="0.25"></line><line x1="0" y1="70.8" x2="280" y2="70.8" fill="rgb(0, 0, 0)" stroke="rgb(66, 66, 66)" stroke-width="1px" opacity="0.25"></line><line x1="0" y1="53.10000000000001" x2="280" y2="53.10000000000001" fill="rgb(0, 0, 0)" stroke="rgb(66, 66, 66)" stroke-width="1px" opacity="0.25"></line><line x1="0" y1="35.39999999999999" x2="280" y2="35.39999999999999" fill="rgb(0, 0, 0)" stroke="rgb(66, 66, 66)" stroke-width="1px" opacity="0.25"></line><line x1="0" y1="17.699999999999996" x2="280" y2="17.699999999999996" fill="rgb(0, 0, 0)" stroke="rgb(66, 66, 66)" stroke-width="1px" opacity="0.25"></line><line x1="0" y1="0" x2="280" y2="0" fill="rgb(0, 0, 0)" stroke="rgb(66, 66, 66)" stroke-width="1px" opacity="0.25"></line></g></g></g><g><g><line x1="0" y1="371.7" x2="280" y2="371.7" fill="rgb(0, 0, 0)" stroke="rgb(153, 153, 153)" stroke-width="1.5px"></line></g></g><g><g><line x1="18.666666666666668" y1="0" x2="18.666666666666668" y2="177" fill="rgb(0, 0, 0)" stroke="rgb(153, 153, 153)" stroke-width="1.5px"></line></g></g><g><g><g><g><g><path stroke="rgb(255, 112, 67)" stroke-width="2px" d="M18.946666666666665,9.036153030395504L19.040000000000003,9.765581560134883L19.6,13.034223864029922L19.973333333333333,16.437831347128977L20.066666666666666,18.53172057785152L20.346666666666668,20.51082396911884L20.439999999999998,22.331010108489075L20.533333333333335,23.668782955106177L20.72,24.847516982388374L20.813333333333333,26.190808201682394L21.093333333333334,27.78964580833914L21.186666666666664,29.707621313680953L22.213333333333335,35.36291556847811L22.400000000000002,38.63206770033101L23.05333333333333,43.61094829905606L23.14666666666667,47.25363719512722L23.240000000000002,49.69706307053892L23.426666666666666,52.235263657753734L23.706666666666667,54.10216314556607L23.986666666666668,56.345266083429365L24.266666666666666,57.0903354794715L24.36,59.87672728149421L24.453333333333333,61.93044933153464L24.546666666666667,62.16432814120976L24.733333333333334,64.1473926532506L24.826666666666668,65.57416983729505L24.919999999999998,66.82518731058896L25.013333333333332,67.01894452132979L25.2,66.16324597514694L25.293333333333333,67.41449334815648L25.853333333333335,70.31300356804753L26.04,73.8714938302867L26.32,76.60557251515543L26.6,75.33530727885102L26.973333333333336,76.88910256113567L27.906666666666666,78.51656709851176L28.28,78.9859560395998L28.56,79.58377272265932L28.653333333333332,81.20213199962802L28.84,79.0208212043072L29.493333333333332,79.44889584487592L29.96,78.1449990510979L30.333333333333336,81.32549911114252L30.426666666666666,82.20169976590955L30.613333333333333,82.85824718505341L30.8,83.16398082753055L30.893333333333334,82.50082646951604L31.36,80.94519299471176L31.453333333333333,82.6497438180902L32.10666666666667,81.86332613398737L32.29333333333333,81.11130744796692L32.38666666666667,82.82414378275L32.666666666666664,83.34543101757566L33.32,82.68758781891876L33.6,79.60928036774091L33.78666666666667,78.33637914898881L33.973333333333336,81.46605234290966L34.53333333333333,80.61540784922704L34.626666666666665,80.18299341253913L34.72,80.45591405899812L35,82.2866037027329L35.18666666666667,81.28335855342687L35.56,81.29211764060103L35.84,81.91191441370636L35.93333333333333,82.41802251907347L36.02666666666667,82.82877432687371L36.4,81.80690006365352L36.49333333333333,81.54547441929562L36.586666666666666,80.90694384652369L37.24,81.35906315850013L37.52,78.61379139546628L37.61333333333333,78.46249656274362L37.70666666666666,78.90222541567347L37.800000000000004,78.03786868141094L37.986666666666665,77.09387774876359L38.36,79.32323567635775L38.54666666666667,82.35632170061446L38.733333333333334,83.41839476597417L39.10666666666666,82.39973414046827L39.2,82.09463357510127L39.29333333333334,80.44301015604712L39.57333333333334,81.7223468498539L40.04,80.89562277055686L40.973333333333336,81.50970047507826L41.16,80.50068219300593L41.44,78.6181547534256L41.53333333333334,79.39217962573701L41.626666666666665,80.09999115556914L42.37333333333333,80.48020930820965L42.74666666666667,80.48548322042387L42.839999999999996,82.13632807922701L42.93333333333333,81.25257039184771L43.12,82.75981707641722L43.86666666666667,85.03017857592846L43.96,87.00140689683884L44.24,83.34469850822052L44.42666666666667,85.66484732606266L44.61333333333333,88.91216053949745L44.800000000000004,88.31283122054904L44.98666666666667,86.3669154223929L45.08,89.2532482372004L45.266666666666666,90.51191403784027L45.45333333333333,90.52948973129789L45.54666666666666,90.3337948748505L45.733333333333334,91.58038610154607L46.2,88.6740022297753L46.29333333333334,89.98489789700825L46.38666666666666,89.3584075339813L46.480000000000004,89.59632541943662L47.22666666666667,89.94893550282166L47.413333333333334,87.93102023723985L47.78666666666666,87.90418274476089L48.16,89.67437285944197L48.346666666666664,90.29327121474968L48.44,89.00428319393768L48.72,90.0944530416678L49.653333333333336,92.37638454014963L50.12,89.28098338827434L50.21333333333334,89.55890512695873L50.4,89.98597532410002L50.68,90.28823241888628L50.86666666666667,88.31598449527708L50.96,88.36324433791333L51.33333333333333,88.29360150997454L51.519999999999996,90.26498285117516L51.70666666666667,89.51322455872754L52.08,89.72529839795624L52.45333333333333,87.98883824897881L52.54666666666667,89.88321730943366L52.64,89.80375297934917L52.733333333333334,91.2525097755856L52.82666666666667,90.85364106585183L52.92,89.42109714561461L53.57333333333333,90.38469564088439L53.85333333333333,89.45703404407655L53.94666666666667,89.97656635082339L54.693333333333335,89.45020548127039L55.06666666666666,89.44700046313969L55.25333333333333,91.0944324632476L55.440000000000005,89.21808632731378L55.720000000000006,89.93029168438878L56.18666666666667,88.21422176356293L56.373333333333335,87.30261852261532L56.84,88.07379828642075L57.21333333333334,87.78150942534369L57.306666666666665,89.4266411746154L57.4,89.61583471087278L57.68,88.97512384288108L57.959999999999994,88.59873221893668L58.053333333333335,88.68778417694308L58.333333333333336,88.27851332537968L58.42666666666667,90.07834521599197L58.8,89.54819281379928L59.266666666666666,89.91928620982495L59.36,90.50720595746235L59.45333333333334,90.07989761012193L59.64,89.73372431741592L59.733333333333334,88.991895509639L59.82666666666667,87.33170575671112L60.01333333333333,86.81144685490557L60.10666666666667,87.53052663650294L60.29333333333333,86.21104219344963L60.66666666666667,88.22914145223923L60.85333333333333,88.70045964856521L60.94666666666667,87.39830977046239L61.04,87.35840450241417L61.22666666666667,88.59528520175368L61.6,89.53777288954586L61.69333333333333,90.04508339620308L62.06666666666667,89.39015703235076L62.160000000000004,89.16589353581669L62.34666666666667,88.30155073940996L62.53333333333333,86.07613041007667L62.906666666666666,88.72127158405871L63,90.32973316527898L63.28,90.18972146044668L63.46666666666666,89.48431307035979L63.56,88.44591903423246L63.74666666666666,88.03376151880607L63.84,86.96403117275828L64.12,89.839654741863L64.21333333333334,91.55541401516174L64.30666666666666,91.97493313199743L64.49333333333334,91.83160450963057L64.77333333333334,92.49073261086865L65.14666666666666,91.50382910051776L65.52000000000001,89.49024622129701L65.61333333333333,89.36590955071034L65.89333333333333,90.77936369307271L66.17333333333333,91.1310821135487L66.26666666666667,89.61859403131281L66.36,90.81606860445663L66.45333333333333,92.83262807063295L66.54666666666667,93.97596863467713L66.64,92.70671796059143L66.92,92.42875356230456L67.01333333333334,91.28072496147941L67.10666666666667,90.5663851874589L67.2,89.13075892314427L67.48,88.27093612781238L68.13333333333334,91.60525698918744L68.41333333333334,88.75451382791188L68.50666666666667,88.57719377037995L68.69333333333333,89.71173416231343L68.78666666666666,88.56230470332068L68.88,89.94196381564474L69.06666666666666,91.07691515919885L69.25333333333333,90.18719867132496L69.44,88.04363458670612L69.62666666666667,88.400565021738L69.72,90.8052049645809L70,89.11755260521338L70.18666666666667,89.32442221101623L70.46666666666667,93.48931385670006L70.56,91.9047049522036L71.12,92.50826002118787L71.21333333333334,92.88167567824006L71.30666666666666,94.78916425093819L71.68,95.59573258986956L71.96000000000001,94.78442121285728L72.14666666666666,94.25144385778027L72.42666666666666,94.44422984768819L72.8,95.04618150144736L73.17333333333333,95.50223854869557L73.26666666666667,94.39755711847516L73.36,95.98345931228383L73.54666666666667,93.57390199575654L73.73333333333332,93.00514621301788L73.82666666666667,93.78829215743718L73.92,92.66181452023136L74.10666666666667,93.38786214200944L74.29333333333332,91.42845001225645L74.48,91.73990684512242L74.57333333333332,95.28513825990548L74.85333333333332,94.28635788117522L74.94666666666667,94.22746685120269L75.41333333333333,92.04867157800679L75.60000000000001,92.31886748232655L75.88000000000001,94.63644400929341L75.97333333333333,94.7491104775365L76.16000000000001,93.55985668264007L76.53333333333333,93.25401802874907L76.72,93.70100441466154L76.81333333333333,92.71945244127737L77.09333333333333,92.14959569724932L77.28,91.85033412428221L77.37333333333333,93.94392377168846L77.74666666666667,93.11653427857702L78.12,94.90754793988792L78.4,95.16410910908658L78.49333333333333,94.17419384374787L78.58666666666667,94.93390873941522L78.68,93.04784882946457L78.77333333333333,91.43955444385793L79.24,93.13693750792854L79.42666666666668,94.1766159349329L79.52,92.8504413016824L79.70666666666666,91.35088630963489L79.8,92.95827745228482L80.08,92.15572353619024L80.26666666666667,91.78840150605251L80.91999999999999,93.03276998383171L81.19999999999999,94.83163846124633L81.66666666666667,94.59422901028051L81.75999999999999,94.02847256394419L81.85333333333334,93.8943204386961L82.13333333333334,93.16500111484122L82.32,91.70945560970063L82.41333333333333,91.97471370242927L82.50666666666667,93.18409034456548L82.78666666666668,92.18450919178566L83.25333333333333,93.19557501427794L83.44,94.58339553804674L83.62666666666668,93.87629777509856L83.72,92.5096807570391L83.90666666666668,92.1155600792845L84.18666666666667,92.16372558156729L84.28,91.25504019665765L84.46666666666667,93.41319364314104L84.84,92.03567901852622L84.93333333333334,92.09510202171144L85.12,94.37302545405468L85.39999999999999,94.64612201986932L85.58666666666666,92.8115458162917L85.86666666666666,93.88157264663536L85.96,93.36274871035673L86.14666666666666,91.98020003798162L86.33333333333334,92.24393671132658L86.42666666666666,91.09365187512357L86.61333333333334,91.60590666309905L86.70666666666666,93.1973103247637L86.89333333333335,95.96275238290752L86.98666666666666,93.70009668883876L87.08,93.24004851470704L87.54666666666667,94.52278284722756L87.92,94.43894184883945L88.10666666666665,92.62830613408394L89.22666666666666,90.59900592776481L89.41333333333334,90.56578985579218L89.97333333333334,91.72478214101434L90.06666666666666,91.72497663018966L90.34666666666666,91.93231263827005L90.44,91.35538253230285L90.72,90.05444915439146L91,89.12610104170716L91.09333333333332,91.55550803713368L91.28,93.11067157490471L91.37333333333332,91.81788045348776L91.46666666666667,92.02437401641637L91.56,93.36017567175169L91.65333333333332,91.57466970358811L92.21333333333332,92.5197741274507L92.49333333333333,91.73746025588936L93.70666666666666,89.68188876644865L93.80000000000001,92.00829551420267L93.89333333333333,89.54388477922471L93.98666666666666,89.3651023442804L94.26666666666667,91.35849927277917L95.01333333333334,93.05528705603814L95.10666666666667,93.11503960422834L95.85333333333332,94.20864816744422L95.94666666666667,94.87142352723653L96.32,92.54402984418617L96.41333333333333,91.5153690936455L96.6,89.86149539722734L96.69333333333333,89.54032138689597L96.97333333333333,89.51860498728894L97.06666666666666,91.38836754407014L97.34666666666666,91.34881112245039L97.53333333333333,91.35738565723487L98,93.04887292266122L98.09333333333333,93.36407431054252L98.37333333333333,93.25614703230941L98.65333333333334,93.86401281197597L98.93333333333334,97.30204656505424L99.11999999999999,99.15752596607112L99.39999999999999,97.48349438518464L99.49333333333334,95.55643295770992L99.86666666666667,95.53365671829052L99.96,97.32579015371601L101.17333333333333,98.54601570294737L101.26666666666668,97.64898454383875L101.36,98.14277070066849L101.73333333333333,99.39013786138013L101.92,100.23654338729929L102.2,100.04416907437177L102.38666666666666,98.81388566856104L102.48,100.6646134064467L102.75999999999999,100.29431308781334L102.85333333333334,97.28730516836183L103.32,99.08792650464261L103.41333333333334,99.15499078132561L103.6,98.56301125346333L103.69333333333334,99.15512437140171L103.97333333333334,100.63365731784837L104.34666666666666,101.25593608229838L104.44,101.35007379537512L104.62666666666667,99.24722853473239L105.28,99.12278337938436L105.46666666666667,100.81242433823854L105.56,98.75070022367068L105.65333333333334,99.74109445823805L105.93333333333334,101.36335891493304L106.30666666666666,99.65374399428453L106.49333333333334,100.01628368142178L106.58666666666666,100.89956959392387L106.86666666666666,97.22115925971124L107.24000000000001,98.37478631510407L107.52,98.68237457379146L107.8,99.70512256684566L108.26666666666667,100.66210453070798L108.45333333333332,99.75021590445996L108.54666666666667,99.55987941297627L108.73333333333332,100.35096732063732L108.92,99.50988882591513L109.01333333333332,100.19396083003396L109.94666666666667,97.42708172110386L110.04,96.52332163398067L110.32000000000001,95.62805002537131L110.69333333333333,96.9085697842047L111.06666666666666,99.17572075083288L111.25333333333333,97.35610974999923L111.44000000000001,99.3263680671016L111.62666666666667,100.52919772472141L111.81333333333333,98.56202741626593L111.90666666666667,99.2477861366492L112.18666666666667,99.5714921928538L112.28,98.36655670029478L112.37333333333333,99.55134324564075L112.56,100.60409665783368L113.02666666666667,101.07460513520314L113.21333333333332,99.54433877234501L113.4,99.16383509018922L114.05333333333333,97.56578552829565L114.42666666666668,97.22579139296613L114.61333333333333,98.93735483303308L114.70666666666666,96.82737463840628L115.26666666666667,97.5281469662713L115.36,96.22263349531454L115.45333333333333,95.89200069807985L115.54666666666667,95.91479674758325L115.64,98.13942141402848L116.01333333333334,96.20718014639071L116.29333333333334,95.9442192816821L117.22666666666667,97.26676109934374L117.41333333333333,97.41766324224785L117.50666666666667,97.36765460123249L117.6,98.82706946819798L117.78666666666668,98.95375796967612L118.06666666666668,98.00743510254543L118.25333333333333,98.77026756482314L118.44,99.47925675318831L118.53333333333333,98.61394199136609L118.62666666666668,99.79697641613316L118.72,97.37761662055392L118.81333333333333,96.81141936808429L118.90666666666668,99.27632565039158L119.18666666666667,98.93739763938046L119.28,99.57479488398229L119.46666666666667,100.08178088394162L119.56,99.26613067941284L119.65333333333334,100.50451346013796L119.93333333333334,99.86450781210573L120.02666666666666,99.89403828253931L120.12,99.01835030717007L120.49333333333334,99.22167565824002L121.14666666666666,98.8027805185402L121.33333333333334,98.8754725942662L121.52,98.6707622629196L121.61333333333334,100.35674664150422L121.70666666666666,99.70841535550798L121.98666666666666,99.36102249516513L122.17333333333333,99.2842443030683L122.36,98.39940167675066L122.45333333333333,97.29398747211485L122.64,98.47556477025621L123.10666666666665,96.03230633041545L123.29333333333334,96.88449328006078L123.38666666666666,98.76568109071712L123.66666666666666,98.79235703394687L123.76,100.67338369516064L123.94666666666666,98.86600111858563L124.04,100.09917342505764L124.32000000000001,100.76707332993695L124.50666666666666,98.84014416733474L124.60000000000001,98.76584164261276L124.69333333333334,97.73915941214236L124.97333333333334,97.92087353882594L125.62666666666667,96.56123090277555L125.81333333333333,95.4370605784085L126,96.53656232818527L126.09333333333332,96.60681929388383L126.18666666666667,96.68538033365452L126.93333333333332,97.18688024639631L127.12,97.69921276545253L127.30666666666667,98.15777636990384L127.58666666666667,101.3985612000551L128.14666666666668,101.24235220465222L128.24,101.57230219193195L128.42666666666668,101.62296349136766L128.52,102.10924276309453L128.61333333333332,100.91258282063748L128.98666666666668,102.06128920196498L129.17333333333332,103.09805270361308L129.36,104.17342753128649L129.64000000000001,103.01511517355706L129.73333333333332,103.48646393293063L130.01333333333332,102.47229229255866L130.10666666666665,102.16340318467824L130.38666666666666,102.8109306666053L130.48000000000002,102.88439817504864L130.76000000000002,104.29176435516348L131.13333333333333,105.97622240093989L131.22666666666666,103.20007059876706L131.32,103.18098645868649L131.50666666666666,103.09792411245556L131.88,102.95530052612814L131.97333333333333,101.37582973736878L132.34666666666666,102.67933630525086L132.81333333333333,103.66150242554552L133,104.57200891534929L133.37333333333333,102.41222707009581L133.65333333333334,103.00905556426208L133.74666666666667,104.93341063347913L134.21333333333334,102.01913165383014L134.4,103.3419947393684L134.77333333333334,101.57950806188278L134.96,101.63107489328202L135.24,101.92254821050533L135.33333333333334,103.81751456015328L135.42666666666668,102.63787831159246L135.51999999999998,103.3692681246508L135.70666666666668,103.18863847336223L135.89333333333335,101.86002993155152L135.98666666666668,101.27664707880398L136.26666666666668,102.66969708669889L136.35999999999999,102.55371591132108L136.92,103.36115982938541L137.29333333333332,104.55872665172059L137.76,102.85565686658167L137.85333333333332,103.88157935401884L137.94666666666666,104.47487145579511L138.32,102.77644512842095L138.6,102.81451842898129L139.06666666666666,103.13036606379745L139.34666666666666,102.1610669664645L139.81333333333333,103.05763844800613L139.90666666666667,103.63963822932612L140.18666666666667,103.07587125546677L140.56,101.19973856596317L140.93333333333334,100.30540321343048L141.4,100.12005528255048L141.86666666666667,103.72748456265774L142.0533333333333,103.3033481899872L142.33333333333331,103.89397546672669L142.42666666666668,103.35210972919373L142.61333333333332,104.22945648845618L143.26666666666668,106.40860231409421L144.20000000000002,106.71622454458445L144.48000000000002,106.46713626941423L144.76,105.72239197588192L144.85333333333332,103.72495209989683L145.04,104.37518965135655L145.41333333333333,102.90672550040865L145.6,103.32462650202741L145.97333333333333,103.04725156344789L146.06666666666666,103.75315306972156L146.16,103.93682191843207L146.25333333333333,104.14535956188689L146.34666666666666,102.66123410108477L147,104.29252132918114L147.09333333333333,104.16409838405654L147.46666666666664,104.476433273598L147.93333333333334,104.08319474962022L148.02666666666664,103.96272458140055L148.4,103.12118550720214L148.68,102.381136673584L149.05333333333334,103.76936094396974L150.92000000000002,103.96724831839599L151.29333333333332,105.17487131464601L152.22666666666666,105.43663505380225L152.32000000000002,104.44305555620713L152.69333333333333,102.82660424589467L152.88000000000002,102.82988775658221L152.97333333333333,101.80950839094882L153.06666666666666,102.21410034401751L153.16000000000003,102.25895398082454L153.44,101.23418594135117L153.72,101.49705995043082L153.90666666666667,103.63895824503875L154.09333333333333,106.20523789257987L154.18666666666667,104.52919688899028L154.37333333333333,104.66327851700012L154.46666666666667,105.58586570791735L154.65333333333334,105.09026305420599L154.74666666666667,103.86401336993815L154.93333333333334,103.36025601390624L155.02666666666667,104.01498482324854L155.21333333333334,104.69006305276258L155.86666666666667,102.50423386895001L156.14666666666665,104.37771545412146L156.24,106.00008279420139L156.42666666666665,104.56921898804428L157.08,105.74677057434513L157.45333333333335,103.14369375329849L157.73333333333335,104.28182282699132L158.01333333333335,104.68145327718845L158.10666666666665,104.71933281988973L158.48,106.86316528183862L158.57333333333335,108.08964866556315L158.85333333333335,105.08503088329786L159.50666666666666,105.60067230805485L159.6,107.22589643445448L159.69333333333333,105.8061319997718L159.88,105.9374611288792L160.06666666666666,106.81829660835778L160.16,104.40920584739992L160.81333333333333,105.33122361982913L161.28,105.14410293868215L161.83999999999997,104.85883717519657L162.11999999999998,106.66062300671706L162.21333333333334,104.14112893861275L162.49333333333334,103.56405980182731L163.14666666666668,103.46047220464376L163.42666666666668,103.90136495730776L163.51999999999998,104.72673640907703L163.61333333333334,106.16834184086859L164.45333333333335,106.9231054768356L164.73333333333335,106.16814986141874L164.82666666666665,103.7755996565363L165.01333333333335,103.87364775778894L165.2,103.43832371021537L165.29333333333335,103.9263597809388L165.38666666666666,104.03647867221319L165.48,106.23229056941678L165.76,107.88538657156948L166.13333333333335,106.22932028370097L166.22666666666666,104.15700573680995L166.32,106.0876308331382L166.6,106.40606208142589L167.06666666666666,105.19106789765925L167.53333333333336,105.13958199225765L167.62666666666667,106.4160761988336L167.72,105.68890658355797L168.09333333333336,103.96757498346L168.18666666666667,104.2755099711551L168.28,105.38868641482196L169.02666666666667,106.12880507246498L169.30666666666667,105.20227140865234L169.4933333333333,107.64792534519141L170.0533333333333,106.97941930776182L170.24,105.34975294879284L170.51999999999998,102.74413029558184L170.89333333333332,104.31265146378709L171.26666666666668,103.65043088223955L171.45333333333332,105.78935761229052L171.73333333333332,107.31588068828498L171.82666666666668,106.39815004840797L172.29333333333332,107.88716685399595L172.38666666666668,104.91385372415296L172.76,105.22311177215046L172.85333333333332,106.18597197509447L172.9466666666667,104.84027558312796L173.04,104.72626934615363L173.2266666666667,106.566356166408L173.41333333333333,108.37192902577253L173.7866666666667,107.5653232098361L173.97333333333333,107.6979333973372L174.16,107.82591145136618L174.44,107.61697330056825L174.53333333333333,107.13097182976722L174.90666666666667,106.14736376802635L175.18666666666667,104.82263380647012L175.37333333333333,105.654734153511L175.93333333333334,105.42805831132046L176.02666666666667,105.49140602408477L176.12,106.83026445185321L176.2133333333333,108.33776732131945L176.68,106.43592939761345L176.7733333333333,105.40529634706415L176.86666666666667,106.06877965302608L177.24,107.12644013983812L177.52,106.92910726322417L177.70666666666668,109.45167009981682L177.98666666666668,108.38709973902827L178.17333333333332,106.3763347411831L178.26666666666668,107.94105089811562L178.36,108.06301516716525L178.45333333333332,106.70609012141729L179.01333333333332,106.28355191525759L179.38666666666668,108.47901153550708L179.48000000000002,107.3328149413238L179.57333333333332,107.32258733362974L179.66666666666669,108.13947403103722L180.13333333333333,107.7445587853826L180.88,106.83113884331205L180.97333333333333,105.65765455842865L181.34666666666666,106.75351592231301L181.53333333333333,108.39634066300695L181.81333333333333,108.56225996421043L182,109.4092595124618L182.09333333333333,108.54653703834865L182.28,108.3932759980336L182.37333333333333,108.03576940893981L183.12,109.48854031205092L183.21333333333334,107.93058508658358L183.4,108.52826258912057L184.33333333333334,107.68321453436835L184.52,106.84526948752774L184.8,108.0125321377681L185.17333333333335,109.76700742658174L185.26666666666665,108.22118670234796L185.36,107.83626586967539L185.64000000000001,107.97197474702496L185.92000000000002,106.1118516496676L186.10666666666665,106.3861998112117L186.29333333333332,104.97654959864106L186.66666666666666,105.09554127041511L186.85333333333332,105.24655602445608L187.41333333333333,105.3556181315804L187.60000000000002,105.38884153629687L187.97333333333333,106.807070447596L188.44,108.01850458240037L188.81333333333333,107.70063266429617L189.09333333333333,110.30526363178083L189.18666666666667,109.61868296697132L189.37333333333333,110.39948462149138L189.46666666666667,110.19092089832208L189.65333333333334,109.62118278801668L189.74666666666667,108.06328866756097L189.84,107.89668158218939L190.02666666666667,106.92909026340054L190.21333333333334,108.52040185091143L190.86666666666667,107.58897988770752L190.96,107.87400019153564L191.05333333333334,108.38683309069042L191.14666666666665,107.873096291487L191.42666666666665,108.41932160393273L192.26666666666665,107.83104479036255L192.73333333333335,105.78365399671509L192.82666666666665,106.76065691371508L192.92,106.76445693051663L193.29333333333335,106.41361335203555L193.38666666666666,107.31683168462222L193.57333333333335,107.97417486221374L193.85333333333335,108.00678759402503L194.13333333333333,109.37854734889551L194.41333333333333,109.6729947652333L194.50666666666666,109.3675896600433L194.69333333333333,108.85007463190246L194.88,108.44786651070885L195.06666666666666,109.20155220470413L195.53333333333333,110.2624644496535L195.90666666666667,108.49777949681847L196.18666666666667,109.68911100406032L196.74666666666667,108.78036784755335L196.83999999999997,109.02788268820728L196.93333333333334,108.28275576648885L197.21333333333334,109.90821711193189L197.67999999999998,108.46307914716402L198.23999999999998,109.1478252867603L198.33333333333334,109.392816494688L198.42666666666668,109.83665001796757L198.70666666666668,108.356798245949L198.98666666666668,109.06147125866559L199.26666666666668,109.78797391120524L199.35999999999999,108.70986461558303L199.73333333333335,107.73553985547044L199.82666666666665,108.68254488343605L199.92,107.16726538678769L200.2,107.85465870106675L200.38666666666666,107.35687591674603L200.66666666666666,108.67843306805298L200.94666666666666,108.04823183027268L201.22666666666666,109.07866226558303L201.6,109.9668322928215L201.69333333333336,109.66385521217971L201.78666666666666,110.08924383714667L201.88,107.84191048380653L201.97333333333336,109.15873302124092L202.16,109.62211683453411L202.25333333333336,109.45685038483911L202.34666666666666,106.90553452442151L202.44,108.82798162621296L203.18666666666667,108.20267226887964L203.37333333333333,108.45852314587367L203.46666666666667,107.63272153828105L203.56,108.16844193633533L203.93333333333334,109.1688027029999L204.12,108.37189239297913L204.2133333333333,109.1455628802455L204.4933333333333,109.05267674029328L204.58666666666667,110.14216093004023L206.82666666666668,110.22329414713549L206.92,111.32048760430912L207.29333333333332,109.75890347109376L207.38666666666668,110.0799477573999L207.48,108.60509691219141L207.76,110.40311273563272L207.9466666666667,111.48426517861107L208.2266666666667,110.52057566295277L208.32,110.40906792432195L208.5066666666667,109.26509548634367L208.6,109.4330173671846L208.69333333333333,109.61305264595774L209.06666666666666,111.06519052006975L209.34666666666666,111.07132416616783L209.72,113.3344916203672L210.37333333333333,113.3144815551671L210.46666666666667,112.31822765990691L210.56,112.78251988604426L210.65333333333334,112.45321138688777L211.58666666666667,111.34840540879283L211.68,112.56955658908676L211.86666666666667,111.11862566182607L212.24,110.90422784155363L212.70666666666668,111.05522381583305L213.17333333333332,112.47727808069854L213.36,114.11121902890008L213.45333333333332,114.35310230509641L213.64000000000001,111.98507183227659L213.73333333333332,112.20728867431711L213.82666666666668,112.02781821954386L214.20000000000002,112.13627467196069L214.38666666666668,111.87801484132339L214.48000000000002,110.7588173047574L214.66666666666669,111.072181328289L214.9466666666667,109.40202518949049L215.13333333333333,109.46581121354781L215.5066666666667,111.07485789817264L215.6,112.66587352491433L215.97333333333333,111.21211372218737L216.06666666666666,110.04488934995061L216.44,111.00598909092741L216.53333333333333,108.56913048763751L216.72,110.37021650516793L216.81333333333333,110.60660301711444L216.90666666666664,109.958023890652L217.18666666666664,110.25969523954257L217.84,110.81225463609613L217.93333333333334,110.0991861633105L218.02666666666664,109.46163427183883L218.30666666666664,108.9922114667288L218.68,110.72975437027168L219.24,109.14616522897452L219.70666666666665,109.62225995128853L219.8,109.05136977234784L220.17333333333335,108.75316263794484L220.26666666666665,109.42129878973715L220.45333333333332,111.53326240525098L221.10666666666665,113.78741624442011L221.48000000000002,114.64400686792892L221.66666666666666,114.55388554318166L221.76000000000002,113.84413815726889L222.41333333333333,112.67122662299903L222.60000000000002,113.41210014005918L222.78666666666666,112.41515025127184L222.97333333333333,109.94985934631976L223.44,112.39692702136607L223.90666666666667,112.98328705693585L224.09333333333333,112.86565578976457L224.18666666666667,113.81888493656628L224.28,114.70138806795785L224.56,113.01949727711504L224.84,113.34394636736766L225.02666666666667,111.32485319487128L225.12,111.67758239574357L225.30666666666667,111.48002085010484L225.4,112.24699032378362L225.96,112.24243762536149L226.33333333333334,111.6372507908541L226.52,113.46833397976145L227.36,113.62640806455366L227.64,111.36444171678397L227.92,110.72674978501425L228.10666666666665,109.72926245645776L229.04,110.06616709301525L229.32,110.48904672187359L229.41333333333333,111.14817218137854L229.97333333333333,113.20373141856832L230.25333333333333,114.14510986859703L231.09333333333333,114.63628596815526L231.46666666666667,115.22539970131551L231.56,115.81809180290601L231.93333333333334,115.58966459102096L232.58666666666667,115.38700569430985L232.67999999999998,115.80959568953513L233.33333333333334,114.89752247414589L233.79999999999998,113.02892287779808L233.89333333333335,112.60228880053141L233.98666666666668,112.34310789945948L234.17333333333335,114.11515085722941L234.35999999999999,115.18937566295826L234.73333333333335,113.37702814588287L234.82666666666665,115.1024142065605L235.10666666666665,114.95033791297439L235.57333333333335,113.91919826170064L236.13333333333335,113.91576475322398L236.32,114.60207249176592L236.6,112.38028127582126L237.06666666666666,111.75192101616413L237.25333333333336,112.99781223189088L237.34666666666666,116.23600968868286L237.44,117.42411374778005L237.62666666666667,115.99012601691756L237.72,117.75056818674963L237.81333333333336,119.00695643634177L238.09333333333336,118.72450375682456L238.18666666666667,117.40021491126025L238.28,116.30810059592605L238.65333333333334,116.65948979786326L238.84,116.1895514913278L239.4,114.0701358859466L239.68,113.75290398029844L239.96,115.91768088000033L240.14666666666668,115.6491682127536L240.61333333333332,114.39782638999347L241.17333333333332,114.55019771845652L241.64,113.34861655587859L241.82666666666668,113.18530995580497L242.01333333333332,113.37817575772371L242.10666666666668,113.83223191642621L242.2,112.95439923133766L242.29333333333332,114.69982665733286L242.38666666666668,115.13815946791044L242.48,113.85670343526284L243.41333333333333,118.00910285644582L243.7866666666667,116.84234850128205L244.06666666666666,117.05892907452412L244.44,116.19283379359142L245.28,116.22400594021732L245.56,115.0625719372383L245.93333333333334,114.80586183452314L246.02666666666667,115.06563971271339L246.2133333333333,115.83474462169542L246.30666666666667,115.40588022791229L246.4933333333333,115.06514045669365L246.58666666666667,113.29726096316416L247.14666666666668,112.03195399000789L247.70666666666668,111.94913256856528L248.08,115.51323923047023L248.45333333333332,116.4736793170907L248.64000000000001,116.25740545097217L248.73333333333332,118.35866865815656L249.10666666666668,118.27618088544571L249.48000000000002,119.31131152046422L249.66666666666669,117.77450019200266L249.85333333333332,115.76049792098773L250.5066666666667,116.59589748458727L250.6,115.28811058090126L250.97333333333333,115.95798433712717L251.34666666666666,115.2645225816464L251.62666666666667,115.91416993936872L251.81333333333333,117.12663051128969L251.90666666666664,116.9676821794545L252,117.68609293499203L252.28,117.16324183582432L252.46666666666664,118.37019954943162L252.56,116.97940027012527L252.74666666666664,117.02902943667232L252.93333333333334,118.9742790816811L253.21333333333334,119.02964221707506L253.4,120.79843833012298L253.58666666666664,120.58855480410408L253.68,118.8522625592813L253.77333333333334,117.16747939988764L253.96,117.05519455674165L254.14666666666665,116.14954758884235L254.61333333333334,116.37352581740456L254.8,114.54946403933191L254.89333333333335,115.42506889601127L255.08,116.86620749056085L255.54666666666665,118.16341792237608L255.73333333333332,118.44924551660925L255.92000000000002,117.05838676461644L256.0133333333333,116.91084169011754L256.29333333333335,117.57350998080636L257.04,116.58170173738517L257.6,117.01509034022163L258.06666666666666,117.41584898104949L258.16,119.54195941609554L258.34666666666664,118.46381952477938L258.62666666666667,117.04669282265571L258.81333333333333,117.57996527092497L259,117.312760084491L259.18666666666667,118.01018584348024L259.28000000000003,117.96707361088552L259.74666666666667,119.31478876797173L259.84000000000003,119.92525299863705L259.93333333333334,119.4551055269044L260.2133333333333,118.50033412913092L260.3066666666667,118.67717443072564L260.58666666666664,119.41970321037631L261.14666666666665,119.3143168908254L261.24,120.8653093804059L261.4266666666667,120.10598376209364L261.61333333333334,120.05243707427276L261.8,121.26530620055732L261.8933333333333,120.31356543420159L262.91999999999996,121.59696166347507L263.0133333333333,122.23482197183992L263.1066666666667,122.03250313793792L263.38666666666666,123.72138085004792L263.85333333333335,122.87793734334173L263.94666666666666,124.0034279409782L264.41333333333336,123.39435416601516L264.50666666666666,125.35796992148408L264.59999999999997,125.34463169196515L264.6933333333333,126.36373839628261L264.88,124.24579522282818L264.97333333333336,124.1423242787775L265.06666666666666,126.51827248932462L265.3466666666667,126.6734769594761L266.37333333333333,126.67456968856406L266.93333333333334,128.77171221871706L267.12,130.36244665801243L267.58666666666664,163.0234207917435L267.8666666666667,116.85725765998264L267.96,91.11903339847981L268.05333333333334,76.25189710512791L268.24,68.63036525282283L268.8933333333333,69.38847191353453L269.17333333333335,71.21585834038152L269.36,77.21579193599158L269.64,80.65468954758128L269.82666666666665,80.65504471609756L270.0133333333333,82.27586275189974L270.38666666666666,81.62808623939664L270.76,83.49819863694852L270.85333333333335,83.14235820804802L270.94666666666666,84.68366191884736L271.03999999999996,83.9328508073143L271.2266666666667,87.34380727851705L271.41333333333336,87.11956401493735L271.50666666666666,85.07350934402098L271.59999999999997,84.51188171420067L271.7866666666667,84.48987309285145L271.88,85.83929189770303L271.97333333333336,85.33351578193239L272.15999999999997,84.92831076310476" style="fill: none;" fill="none"></path></g></g></g></g><g opacity="0.2"><g><g><g><path stroke="rgb(255, 112, 67)" stroke-width="2px" d="M18.946666666666665,9.036153030395504L19.040000000000003,10.203238677978511L19.6,16.172120475769034L19.973333333333333,20.440473747253414L20.066666666666666,21.2655023574829L20.346666666666668,23.248636436462398L20.439999999999998,24.933905410766606L20.533333333333335,25.619268608093257L20.72,26.585920715332023L20.813333333333333,28.185439109802246L21.093333333333334,30.17340087890625L21.186666666666664,32.57414703369141L22.213333333333335,43.827391433715825L22.400000000000002,43.529391288757324L23.05333333333333,51.0734167098999L23.14666666666667,52.71510143280029L23.240000000000002,53.361167907714844L23.426666666666666,56.04192008972167L23.706666666666667,56.902227973938L23.986666666666668,59.709715461730966L24.266666666666666,58.20789871215821L24.36,64.05622329711913L24.453333333333333,65.01099185943603L24.546666666666667,62.515143585205074L24.733333333333334,67.12197532653808L24.826666666666668,67.71432952880859L24.919999999999998,68.70171031951905L25.013333333333332,67.30958003997803L25.2,64.8796989440918L25.293333333333333,69.29136371612549L25.853333333333335,74.66076793670653L26.04,79.209228515625L26.32,80.70669021606444L26.6,73.42990951538086L26.973333333333336,79.21979541778565L27.906666666666666,80.95776386260987L28.28,79.69003944396972L28.56,80.48049774169921L28.653333333333332,83.62967090606689L28.84,75.74885501861571L29.493333333333332,80.09100780487061L29.96,76.18915386199951L30.333333333333336,86.09624919891358L30.426666666666666,83.51600074768066L30.613333333333333,83.84306831359864L30.8,83.62258129119873L30.893333333333334,81.50609493255615L31.36,78.61174278259277L31.453333333333333,85.20657005310058L32.10666666666667,80.68369960784912L32.29333333333333,79.98327941894532L32.38666666666667,85.39339828491211L32.666666666666664,84.12736186981202L33.32,81.70082302093506L33.6,74.991819190979L33.78666666666667,76.42702732086182L33.973333333333336,86.16056213378907L34.53333333333333,79.33944110870361L34.626666666666665,79.53437175750732L34.72,80.86529502868653L35,85.03263816833497L35.18666666666667,79.77849082946777L35.56,81.3052562713623L35.84,82.84160957336427L35.93333333333333,83.17718467712403L36.02666666666667,83.44490203857423L36.4,80.27408866882324L36.49333333333333,81.15333595275878L36.586666666666666,79.94914798736572L37.24,82.03724212646485L37.52,74.49588375091552L37.61333333333333,78.23555431365968L37.70666666666666,79.56181869506837L37.800000000000004,76.7413335800171L37.986666666666665,75.67789134979249L38.36,82.66727256774902L38.54666666666667,86.90595073699951L38.733333333333334,85.01150436401367L39.10666666666666,80.87174320220947L39.2,81.63698272705078L39.29333333333334,77.96557502746582L39.57333333333334,83.64135189056397L40.04,79.65553665161133L40.973333333333336,82.43081703186034L41.16,78.98715476989746L41.44,75.79436359405518L41.53333333333334,80.5532169342041L41.626666666666665,81.16170845031739L42.37333333333333,81.0505365371704L42.74666666666667,80.49339408874512L42.839999999999996,84.61259536743164L42.93333333333333,79.92693386077882L43.12,85.02068710327148L43.86666666666667,88.4357208251953L43.96,89.95824937820434L44.24,77.85963592529298L44.42666666666667,89.14507055282593L44.61333333333333,93.78313035964966L44.800000000000004,87.41383724212646L44.98666666666667,83.44804172515869L45.08,93.58274745941162L45.266666666666666,92.39991273880004L45.45333333333333,90.55585327148437L45.54666666666666,90.04025259017943L45.733333333333334,93.45027294158935L46.2,84.31442642211914L46.29333333333334,91.95124139785766L46.38666666666666,88.41867198944091L46.480000000000004,89.95320224761963L47.22666666666667,90.47785062789917L47.413333333333334,84.90414733886719L47.78666666666666,87.86392650604249L48.16,92.32965803146362L48.346666666666664,91.22161874771119L48.44,87.07080116271972L48.72,91.72970781326295L49.653333333333336,95.79928178787232L50.12,84.63788166046142L50.21333333333334,89.97578773498536L50.4,90.626580619812L50.68,90.74161806106567L50.86666666666667,85.35761260986328L50.96,88.43413410186768L51.33333333333333,88.1891372680664L51.519999999999996,93.22205486297607L51.70666666666667,88.38558712005614L52.08,90.04340915679931L52.45333333333333,85.38414802551269L52.54666666666667,92.72478590011598L52.64,89.68455648422241L52.733333333333334,93.4256449699402L52.82666666666667,90.25533800125122L52.92,87.2722812652588L53.57333333333333,91.83009338378906L53.85333333333333,88.06554164886474L53.94666666666667,90.7558648109436L54.693333333333335,88.66066417694093L55.06666666666666,89.4421929359436L55.25333333333333,93.56558046340943L55.440000000000005,86.40356712341308L55.720000000000006,90.99859972000122L56.18666666666667,85.64011688232422L56.373333333333335,85.93521366119386L56.84,89.2305679321289L57.21333333333334,87.34307613372802L57.306666666666665,91.89433879852295L57.4,89.89962501525879L57.68,88.01405754089355L57.959999999999994,88.03414478302001L58.053333333333335,88.82136211395265L58.333333333333336,87.66460704803467L58.42666666666667,92.7780930519104L58.8,88.75296421051026L59.266666666666666,90.47592630386352L59.36,91.38908557891845L59.45333333333334,89.43893508911133L59.64,89.21446437835694L59.733333333333334,87.87915229797363L59.82666666666667,84.84142112731934L60.01333333333333,86.03105850219727L60.10666666666667,88.60914630889893L60.29333333333333,84.23181552886963L60.66666666666667,91.25629034042358L60.85333333333333,89.40743694305421L60.94666666666667,85.4450849533081L61.04,87.2985466003418L61.22666666666667,90.45060625076293L61.6,90.95150442123413L61.69333333333333,90.80604915618896L62.06666666666667,88.40776748657227L62.160000000000004,88.82949829101562L62.34666666666667,87.00503654479981L62.53333333333333,82.73799991607666L62.906666666666666,92.68898334503173L63,92.74242553710938L63.28,89.97970390319824L63.46666666666666,88.4262004852295L63.56,86.8883279800415L63.74666666666666,87.4155252456665L63.84,85.35943565368653L64.12,94.15309009552003L64.21333333333334,94.12905292510986L64.30666666666666,92.60421180725098L64.49333333333334,91.61661157608033L64.77333333333334,93.47942476272583L65.14666666666666,90.02347383499146L65.52000000000001,86.46987190246581L65.61333333333333,89.17940454483032L65.89333333333333,92.89954490661621L66.17333333333333,91.65865974426269L66.26666666666667,87.34986190795898L66.36,92.61228046417237L66.45333333333333,95.85746726989747L66.54666666666667,95.69097948074341L66.64,90.80284194946289L66.92,92.01180696487427L67.01333333333334,89.55868206024171L67.10666666666667,89.49487552642823L67.2,86.97731952667236L67.48,86.98120193481445L68.13333333333334,96.60673828125L68.41333333333334,84.47839908599853L68.50666666666667,88.31121368408203L68.69333333333333,91.41354475021363L68.78666666666666,86.83816051483154L68.88,92.01145248413086L69.06666666666666,92.77934217453003L69.25333333333333,88.85262393951416L69.44,84.82828845977782L69.62666666666667,88.93596067428588L69.72,94.41216487884522L70,86.58607406616211L70.18666666666667,89.63472661972047L70.46666666666667,99.73665132522582L70.56,89.527791595459L71.12,93.4135926246643L71.21333333333334,93.44179916381836L71.30666666666666,97.65039710998535L71.68,96.8055850982666L71.96000000000001,93.56745414733886L72.14666666666666,93.4519778251648L72.42666666666666,94.73340883255004L72.8,95.94910898208617L73.17333333333333,96.18632411956787L73.26666666666667,92.74053497314453L73.36,98.36231260299682L73.54666666666667,89.95956602096557L73.73333333333332,92.15201253890991L73.82666666666667,94.96301107406616L73.92,90.97209806442261L74.10666666666667,94.47693357467652L74.29333333333332,88.48933181762696L74.48,92.20709209442138L74.57333333333332,100.60298538208008L74.85333333333332,92.78818731307983L74.94666666666667,94.1391303062439L75.41333333333333,88.7804786682129L75.60000000000001,92.72416133880616L75.88000000000001,98.11280879974366L75.97333333333333,94.91811017990112L76.16000000000001,91.77597599029541L76.53333333333333,92.7952600479126L76.72,94.37148399353028L76.81333333333333,91.24712448120117L77.09333333333333,91.29481058120727L77.28,91.40144176483155L77.37333333333333,97.08430824279786L77.74666666666667,91.8754500389099L78.12,97.59406843185424L78.4,95.54895086288452L78.49333333333333,92.68932094573974L78.58666666666667,96.07348108291626L78.68,90.21875896453857L78.77333333333333,89.02711286544799L79.24,95.68301210403443L79.42666666666668,95.73613357543945L79.52,90.86117935180664L79.70666666666666,89.10155382156371L79.8,95.36936416625976L80.08,90.95189266204834L80.26666666666667,91.23741846084594L80.91999999999999,94.89932270050049L81.19999999999999,97.52994117736817L81.66666666666667,94.23811483383179L81.75999999999999,93.1798378944397L81.85333333333334,93.69309225082397L82.13333333333334,92.07102212905885L82.32,89.52613735198975L82.41333333333333,92.37260084152221L82.50666666666667,94.99815530776978L82.78666666666668,90.68513746261597L83.25333333333333,94.71217374801635L83.44,96.66512632369995L83.62666666666668,92.81565113067627L83.72,90.45975522994995L83.90666666666668,91.52437906265259L84.18666666666667,92.23597383499146L84.28,89.89201211929321L84.46666666666667,96.65042381286621L84.84,89.969407081604L84.93333333333334,92.18423652648926L85.12,97.78991060256958L85.39999999999999,95.0557668685913L85.58666666666666,90.0596815109253L85.86666666666666,95.48661289215089L85.96,92.58451280593873L86.14666666666666,89.90637702941895L86.33333333333334,92.639541721344L86.42666666666666,89.36822462081909L86.61333333333334,92.37428884506225L86.70666666666666,95.58441581726073L86.89333333333335,100.11091547012329L86.98666666666666,90.30611314773559L87.08,92.54997625350951L87.54666666666667,96.4468843460083L87.92,94.31318035125732L88.10666666666665,89.91235256195068L89.22666666666666,87.55505561828613L89.41333333333334,90.51596574783325L89.97333333333334,93.46327056884765L90.06666666666666,91.72526836395264L90.34666666666666,92.24331665039062L90.44,90.48998737335205L90.72,88.10304908752441L91,87.73357887268067L91.09333333333332,95.19961853027344L91.28,95.44341688156128L91.37333333333332,89.87869377136231L91.46666666666667,92.33411436080932L91.56,95.36387815475463L91.65333333333332,88.89641075134277L92.21333333333332,93.93743076324462L92.49333333333333,90.56398944854736L93.70666666666666,86.5985315322876L93.80000000000001,95.49790563583373L93.89333333333333,85.84726867675782L93.98666666666666,89.09692869186402L94.26666666666667,94.34859466552734L95.01333333333334,95.60046873092652L95.10666666666667,93.20466842651366L95.85333333333332,95.84906101226807L95.94666666666667,95.86558656692505L96.32,89.05293931961059L96.41333333333333,89.97237796783448L96.6,87.3806848526001L96.69333333333333,89.05856037139893L96.97333333333333,89.48603038787842L97.06666666666666,94.19301137924195L97.34666666666666,91.28947649002076L97.53333333333333,91.37024745941163L98,95.58610382080077L98.09333333333333,93.8368763923645L98.37333333333333,93.09425611495972L98.65333333333334,94.77581148147583L98.93333333333334,102.45909719467163L99.11999999999999,101.94074506759644L99.39999999999999,94.97244701385499L99.49333333333334,92.6658408164978L99.86666666666667,95.49949235916138L99.96,100.01399030685424L101.17333333333333,100.37635402679443L101.26666666666668,96.30343780517579L101.36,98.88344993591308L101.73333333333333,101.26118860244752L101.92,101.50615167617798L102.2,99.75560760498047L102.38666666666666,96.96846055984497L102.48,103.44070501327515L102.75999999999999,99.73886260986329L102.85333333333334,92.77679328918457L103.32,101.78885850906373L103.41333333333334,99.2555871963501L103.6,97.67504196166992L103.69333333333334,100.04329404830933L103.97333333333334,102.85145673751832L104.34666666666666,102.18935422897339L104.44,101.49128036499023L104.62666666666667,96.09296064376831L105.28,98.9361156463623L105.46666666666667,103.34688577651978L105.56,95.65811405181886L105.65333333333334,101.22668581008911L105.93333333333334,103.79675559997558L106.30666666666666,97.08932161331177L106.49333333333334,100.56009321212768L106.58666666666666,102.224498462677L106.86666666666666,91.70354375839234L107.24000000000001,100.10522689819335L107.52,99.14375696182252L107.8,101.23924455642701L108.26666666666667,102.09757747650146L108.45333333333332,98.3823829650879L108.54666666666667,99.27437467575074L108.73333333333332,101.53759918212891L108.92,98.2482710838318L109.01333333333332,101.22006883621215L109.94666666666667,93.27676305770875L110.04,95.1676815032959L110.32000000000001,94.28514261245728L110.69333333333333,98.82934942245483L111.06666666666666,102.57644720077515L111.25333333333333,94.62669324874878L111.44000000000001,102.28175554275514L111.62666666666667,102.33344221115112L111.81333333333333,95.61127195358277L111.90666666666667,100.27642421722412L112.18666666666667,100.05705127716065L112.28,96.55915346145629L112.37333333333333,101.32852306365966L112.56,102.18322677612305L113.02666666666667,101.78036785125732L113.21333333333332,97.24893922805786L113.4,98.59307956695557L114.05333333333333,95.16871118545532L114.42666666666668,96.71580018997192L114.61333333333333,101.50469999313354L114.70666666666666,93.66240434646606L115.26666666666667,98.57930545806884L115.36,94.2643632888794L115.45333333333333,95.39605150222779L115.54666666666667,95.94899082183838L115.64,101.47635841369629L116.01333333333334,93.30881824493407L116.29333333333334,95.54977798461914L117.22666666666667,99.25057382583618L117.41333333333333,97.644016456604L117.50666666666667,97.29264163970947L117.6,101.01619176864624L117.78666666666668,99.14379072189331L118.06666666666668,96.58795080184937L118.25333333333333,99.91451625823974L118.44,100.54274053573609L118.53333333333333,97.3159698486328L118.62666666666668,101.5715280532837L118.72,93.74857692718506L118.81333333333333,95.96212348937989L118.90666666666668,102.97368507385254L119.18666666666667,98.42900562286377L119.28,100.530890750885L119.46666666666667,100.84225988388062L119.56,98.04265537261962L119.65333333333334,102.36208763122558L119.93333333333334,98.90449934005737L120.02666666666666,99.9383339881897L120.12,97.70481834411622L120.49333333333334,99.52666368484496L121.14666666666666,98.17443780899048L121.33333333333334,98.98451070785522L121.52,98.36369676589966L121.61333333333334,102.88572320938111L121.70666666666666,98.73591842651366L121.98666666666666,98.83993320465088L122.17333333333333,99.1690770149231L122.36,97.07213773727416L122.45333333333333,95.63586616516113L122.64,100.24793071746826L123.10666666666665,92.36741867065429L123.29333333333334,98.16277370452882L123.38666666666666,101.58746280670165L123.66666666666666,98.8323709487915L123.76,103.49492368698121L123.94666666666666,96.15492725372314L124.04,101.94893188476563L124.32000000000001,101.76892318725585L124.50666666666666,95.9497504234314L124.60000000000001,98.65438785552978L124.69333333333334,96.19913606643676L124.97333333333334,98.19344472885132L125.62666666666667,94.52176694869995L125.81333333333333,93.75080509185791L126,98.18581495285035L126.09333333333332,96.71220474243164L126.18666666666667,96.80322189331055L126.93333333333332,97.93913011550903L127.12,98.46771154403687L127.30666666666667,98.84562177658081L127.58666666666667,106.25973844528198L128.14666666666668,101.00803871154785L128.24,102.06722717285156L128.42666666666668,101.69895544052123L128.52,102.83866167068481L128.61333333333332,99.11759290695191L128.98666666666668,103.7843487739563L129.17333333333332,104.65319795608521L129.36,105.78648977279663L129.64000000000001,101.2776466369629L129.73333333333332,104.19348707199096L130.01333333333332,100.95103483200073L130.10666666666665,101.70006952285767L130.38666666666666,103.78222188949586L130.48000000000002,102.99459943771363L130.76000000000002,106.4028136253357L131.13333333333333,108.50290946960449L131.22666666666666,99.03584289550781L131.32,103.15236024856567L131.50666666666666,102.97333059310914L131.88,102.74136514663697L131.97333333333333,99.00662355422973L132.34666666666666,104.63459615707397L132.81333333333333,105.13475160598755L133,105.93776865005493L133.37333333333333,99.17255430221557L133.65333333333334,103.90429830551147L133.74666666666667,107.81994323730468L134.21333333333334,97.64771318435669L134.4,105.32628936767578L134.77333333333334,98.93577804565429L134.96,101.70842514038087L135.24,102.35975818634033L135.33333333333334,106.65996408462524L135.42666666666668,100.86842393875122L135.51999999999998,104.46635284423827L135.70666666666668,102.91769399642943L135.89333333333335,99.86711711883545L135.98666666666668,100.40157279968263L136.26666666666668,104.75927209854126L136.35999999999999,102.3797441482544L136.92,104.57232570648193L137.29333333333332,106.3550768852234L137.76,100.3010521888733L137.85333333333332,105.42046308517456L137.94666666666666,105.36480960845948L138.32,100.22880563735963L138.6,102.87162837982179L139.06666666666666,103.60413751602174L139.34666666666666,100.70711832046509L139.81333333333333,104.4024956703186L139.90666666666667,104.51263790130615L140.18666666666667,102.23022079467773L140.56,98.38553953170776L140.93333333333334,98.96390018463136L141.4,99.84203338623047L141.86666666666667,109.1386284828186L142.0533333333333,102.66714363098144L142.33333333333331,104.77991638183595L142.42666666666668,102.53931112289429L142.61333333333332,105.54547662734986L143.26666666666668,109.67732105255128L144.20000000000002,107.17765789031982L144.48000000000002,106.09350385665893L144.76,104.60527553558349L144.85333333333332,100.7287922859192L145.04,105.35054597854615L145.41333333333333,100.70402927398682L145.6,103.95147800445557L145.97333333333333,102.63118915557861L146.06666666666666,104.81200532913208L146.16,104.21232519149781L146.25333333333333,104.45816602706908L146.34666666666666,100.4350459098816L147,106.73945217132568L147.09333333333333,103.97146396636963L147.46666666666664,104.94493560791015L147.93333333333334,103.49333696365356L148.02666666666664,103.78201932907105L148.4,101.85887689590454L148.68,101.27106342315675L149.05333333333334,105.85169734954833L150.92000000000002,104.2640793800354L151.29333333333332,106.986305809021L152.22666666666666,105.82928066253662L152.32000000000002,102.95268630981445L152.69333333333333,100.40192728042602L152.88000000000002,102.83481302261352L152.97333333333333,100.27893934249879L153.06666666666666,102.82098827362061L153.16000000000003,102.32623443603516L153.44,99.69703388214111L153.72,101.8913709640503L153.90666666666667,106.85180568695068L154.09333333333333,110.0546573638916L154.18666666666667,102.01513538360597L154.37333333333333,104.8644009590149L154.46666666666667,106.9697464942932L154.65333333333334,104.34685907363892L154.74666666666667,102.02463884353638L154.93333333333334,102.6046199798584L155.02666666666667,104.99707803726197L155.21333333333334,105.70268039703369L155.86666666666667,99.2254900932312L156.14666666666665,107.18793783187867L156.24,108.43363380432129L156.42666666666665,102.4229232788086L157.08,107.51309795379639L157.45333333333335,99.23907852172852L157.73333333333335,105.98901643753051L158.01333333333335,105.28089895248412L158.10666666666665,104.77615213394165L158.48,110.07891397476196L158.57333333333335,109.9293737411499L158.85333333333335,100.5781042098999L159.50666666666666,106.37413444519042L159.6,109.66373262405396L159.69333333333333,103.6764853477478L159.88,106.13445482254029L160.06666666666666,108.13954982757569L160.16,100.79556970596313L160.81333333333333,106.7142502784729L161.28,104.86342191696167L161.83999999999997,104.43093852996826L162.11999999999998,109.3633017539978L162.21333333333334,100.36188783645629L162.49333333333334,102.69845609664917L163.14666666666668,103.3050908088684L163.42666666666668,104.56270408630371L163.51999999999998,105.96479358673095L163.61333333333334,108.33074998855591L164.45333333333335,108.05525093078613L164.73333333333335,105.03571643829345L164.82666666666665,100.18677434921266L165.01333333333335,104.02071990966796L165.2,102.78533763885498L165.29333333333335,104.65841388702393L165.38666666666666,104.20165700912476L165.48,109.52600841522217L165.76,110.36503057479858L166.13333333333335,103.7452208518982L166.22666666666666,101.04853391647339L166.32,108.98356847763061L166.6,106.88370895385742L167.06666666666666,103.36857662200929L167.53333333333336,105.06235313415527L167.62666666666667,108.3308175086975L167.72,104.59815216064453L168.09333333333336,101.38557758331298L168.18666666666667,104.73741245269775L168.28,107.05845108032226L169.02666666666667,107.23898305892943L169.30666666666667,103.81247091293335L169.4933333333333,111.31640625L170.0533333333333,105.97666025161743L170.24,102.90525341033936L170.51999999999998,98.83569631576539L170.89333333333332,106.66543321609497L171.26666666666668,102.65710000991821L171.45333333333332,108.99774770736694L171.73333333333332,109.60566530227662L171.82666666666668,105.02155408859254L172.29333333333332,110.12069206237793L172.38666666666668,100.45388402938842L172.76,105.68699884414673L172.85333333333332,107.63026227951049L172.9466666666667,102.82173099517821L173.04,104.55525999069214L173.2266666666667,109.32648639678955L173.41333333333333,111.08028831481933L173.7866666666667,106.3554144859314L173.97333333333333,107.89684867858887L174.16,108.01787853240967L174.44,107.30356607437135L174.53333333333333,106.40196962356568L174.90666666666667,104.67195167541503L175.18666666666667,102.83553886413574L175.37333333333333,106.90288467407227L175.93333333333334,105.08804454803466L176.02666666666667,105.58642759323119L176.12,108.83855209350587L176.2133333333333,110.5990216255188L176.68,103.58317251205445L176.7733333333333,103.85934677124023L176.86666666666667,107.064004611969L177.24,108.71293087005616L177.52,106.63310794830322L177.70666666666668,113.23551435470581L177.98666666666668,106.79024419784547L178.17333333333332,103.36018724441529L178.26666666666668,110.28812513351441L178.36,108.24596157073974L178.45333333333332,104.67070255279542L179.01333333333332,105.64974460601807L179.38666666666668,111.77220096588134L179.48000000000002,105.61352005004882L179.57333333333332,107.30724592208863L179.66666666666669,109.36480407714843L180.13333333333333,107.15218591690063L180.88,105.46100893020629L180.97333333333333,103.89742813110352L181.34666666666666,108.39730796813966L181.53333333333333,110.86057777404785L181.81333333333333,108.81113891601562L182,110.67975883483886L182.09333333333333,107.25245332717896L182.28,108.16338443756104L182.37333333333333,107.49950952529908L183.12,111.66769666671753L183.21333333333334,105.59365224838257L183.4,109.42477884292602L184.33333333333334,106.41564245224L184.52,105.58835191726685L184.8,109.76342611312866L185.17333333333335,112.39872035980225L185.26666666666665,105.90245561599731L185.36,107.2588846206665L185.64000000000001,108.17553806304932L185.92000000000002,103.32166700363159L186.10666666666665,106.79772205352783L186.29333333333332,102.86207427978515L186.66666666666666,105.27402877807617L186.85333333333332,105.47307815551757L187.41333333333333,105.51921129226685L187.60000000000002,105.43867664337158L187.97333333333333,108.93441381454467L188.44,109.83565578460694L188.81333333333333,107.22382478713989L189.09333333333333,114.2122100830078L189.18666666666667,108.58881196975709L189.37333333333333,111.57068710327148L189.46666666666667,109.87807531356812L189.65333333333334,108.76657562255859L189.74666666666667,105.72644748687743L189.84,107.64677095413208L190.02666666666667,105.47770328521729L190.21333333333334,110.90736923217774L190.86666666666667,106.19184694290162L190.96,108.30153064727783L191.05333333333334,109.1560824394226L191.14666666666665,107.10249109268189L191.42666666666665,109.23865957260132L192.26666666666665,106.94862957000733L192.73333333333335,102.7125678062439L192.82666666666665,108.22616128921509L192.92,106.770156955719L193.29333333333335,105.88734798431396L193.38666666666666,108.6716591835022L193.57333333333335,108.96018962860107L193.85333333333335,108.05570669174195L194.13333333333333,111.43618698120117L194.41333333333333,110.11466588973998L194.50666666666666,108.9094820022583L194.69333333333333,108.07380208969117L194.88,107.84455432891845L195.06666666666666,110.33208074569701L195.53333333333333,111.85383281707765L195.90666666666667,105.85075206756592L196.18666666666667,111.4761082649231L196.74666666666667,107.41725311279298L196.83999999999997,109.39915494918823L196.93333333333334,107.16506538391114L197.21333333333334,112.34640913009643L197.67999999999998,106.29537220001221L198.23999999999998,110.1749444961548L198.33333333333334,109.76030330657959L198.42666666666668,110.50240030288695L198.70666666666668,106.13702058792114L198.98666666666668,110.11848077774049L199.26666666666668,110.87772789001464L199.35999999999999,107.09270067214966L199.73333333333335,106.27405271530152L199.82666666666665,110.10305242538452L199.92,104.89434614181518L200.2,108.88574867248535L200.38666666666666,106.61020174026488L200.66666666666666,110.66076879501342L200.94666666666666,107.10292997360229L201.22666666666666,110.62430791854858L201.6,111.2990873336792L201.69333333333336,109.20938959121703L201.78666666666666,110.72732677459716L201.88,104.47091045379638L201.97333333333336,111.13396682739257L202.16,110.31719255447388L202.25333333333336,109.20895071029663L202.34666666666666,103.07856073379516L202.44,111.71165227890015L203.18666666666667,107.26470823287964L203.37333333333333,108.84229946136475L203.46666666666667,106.39401912689209L203.56,108.97202253341675L203.93333333333334,110.66934385299682L204.12,107.17652692794799L204.2133333333333,110.30606861114502L204.4933333333333,108.91334753036499L204.58666666666667,111.77638721466064L206.82666666666668,110.34499397277831L206.92,112.96627779006958L207.29333333333332,107.41652727127075L207.38666666666668,110.56151418685913L207.48,106.39282064437866L207.76,113.10013647079468L207.9466666666667,113.10599384307862L208.2266666666667,109.07504138946534L208.32,110.24180631637573L208.5066666666667,107.54913682937622L208.6,109.68490018844604L208.69333333333333,109.88310556411743L209.06666666666666,113.2433973312378L209.34666666666666,111.08052463531494L209.72,116.72924280166626L210.37333333333333,113.28446645736695L210.46666666666667,110.8238468170166L210.56,113.47895822525025L210.65333333333334,111.95924863815308L211.58666666666667,109.69119644165039L211.68,114.4012833595276L211.86666666666667,108.94222927093506L212.24,110.58263111114502L212.70666666666668,111.2817177772522L213.17333333333332,114.61035947799682L213.36,116.56213045120239L213.45333333333332,114.71592721939088L213.64000000000001,108.43302612304687L213.73333333333332,112.54061393737793L213.82666666666668,111.75861253738402L214.20000000000002,112.29895935058595L214.38666666666668,111.49062509536743L214.48000000000002,109.08002099990846L214.66666666666669,111.54222736358643L214.9466666666667,106.89679098129272L215.13333333333333,109.56149024963379L215.5066666666667,113.48842792510986L215.6,115.05239696502686L215.97333333333333,109.03147401809692L216.06666666666666,108.29405279159546L216.44,112.44763870239258L216.53333333333333,104.91384258270263L216.72,113.07184553146362L216.81333333333333,110.96118278503418L216.90666666666664,108.98515520095826L217.18666666666664,110.71220226287842L217.84,111.64109373092651L217.93333333333334,109.02958345413208L218.02666666666664,108.50530643463135L218.30666666666664,108.28807725906371L218.68,113.33606872558595L219.24,106.77078151702881L219.70666666666665,110.33640203475953L219.8,108.19503450393677L220.17333333333335,108.30585193634033L220.26666666666665,110.42350301742555L220.45333333333332,114.70120782852173L221.10666666666665,117.16864700317383L221.48000000000002,115.92889280319214L221.66666666666666,114.41870355606079L221.76000000000002,112.77951707839965L222.41333333333333,110.91185932159424L222.60000000000002,114.52341041564942L222.78666666666666,110.91972541809082L222.97333333333333,106.2519229888916L223.44,116.06752853393554L223.90666666666667,113.86282711029052L224.09333333333333,112.68920888900756L224.18666666666667,115.24872865676879L224.28,116.02514276504517L224.56,110.49666109085082L224.84,113.83062000274658L225.02666666666667,108.2962134361267L225.12,112.206676197052L225.30666666666667,111.18367853164672L225.4,113.39744453430175L225.96,112.23560857772827L226.33333333333334,110.72947053909301L226.52,116.21495876312257L227.36,113.86351919174194L227.64,107.97149219512939L227.92,109.77021188735962L228.10666666666665,108.23303146362305L229.04,110.57152404785155L229.32,111.12336616516113L229.41333333333333,112.13686037063599L229.97333333333333,116.28707027435303L230.25333333333333,115.55717754364014L231.09333333333333,115.37305011749267L231.46666666666667,116.10907030105591L231.56,116.70712995529175L231.93333333333334,115.24702377319336L232.58666666666667,115.08301734924316L232.67999999999998,116.44348068237305L233.33333333333334,113.529412651062L233.79999999999998,110.22602348327636L233.89333333333335,111.96233768463135L233.98666666666668,111.95433654785155L234.17333333333335,116.77321529388428L234.35999999999999,116.80071287155151L234.73333333333335,110.65850687026978L234.82666666666665,117.69049329757691L235.10666666666665,114.72222347259522L235.57333333333335,112.37248878479004L236.13333333333335,113.91061449050903L236.32,115.63153409957886L236.6,109.04759445190429L237.06666666666666,110.80938062667848L237.25333333333336,114.86664905548095L237.34666666666666,121.09330587387085L237.44,119.20626983642579L237.62666666666667,113.83914442062378L237.72,120.3912314414978L237.81333333333336,120.89153881072998L238.09333333333336,118.30082473754884L238.18666666666667,115.41378164291382L238.28,114.66992912292481L238.65333333333334,117.18657360076905L238.84,115.48464403152467L239.4,110.89101247787475L239.68,113.27705612182616L239.96,119.16484622955322L240.14666666666668,115.24639921188354L240.61333333333332,112.52081365585327L241.17333333333332,114.77875471115112L241.64,111.54624481201172L241.82666666666668,112.94035005569458L242.01333333333332,113.66747446060181L242.10666666666668,114.51331615447998L242.2,111.63765020370484L242.29333333333332,117.31796779632568L242.38666666666668,115.79565868377686L242.48,111.93451938629151L243.41333333333333,124.23770198822022L243.7866666666667,115.09221696853638L244.06666666666666,117.3837999343872L244.44,114.89369087219238L245.28,116.27076416015625L245.56,113.32042093276978L245.93333333333334,114.42079668045044L246.02666666666667,115.45530652999878L246.2133333333333,116.98840198516847L246.30666666666667,114.76258363723754L246.4933333333333,114.55403079986571L246.58666666666667,110.64544172286988L247.14666666666668,110.13399353027343L247.70666666666668,111.82490043640136L248.08,120.85939922332763L248.45333333333332,117.91433944702148L248.64000000000001,115.93299465179443L248.73333333333332,121.51056346893311L249.10666666666668,118.1524492263794L249.48000000000002,120.86400747299194L249.66666666666669,115.46928319931031L249.85333333333332,112.73949451446533L250.5066666666667,117.84899682998658L250.6,113.3264302253723L250.97333333333333,116.96279497146607L251.34666666666666,114.2243299484253L251.62666666666667,116.88864097595216L251.81333333333333,118.94532136917114L251.90666666666664,116.72925968170166L252,118.76370906829834L252.28,116.37896518707275L252.46666666666664,120.18063611984253L252.56,114.89320135116577L252.74666666666664,117.10347318649292L252.93333333333334,121.89215354919433L253.21333333333334,119.11268692016601L253.4,123.45163249969482L253.58666666666664,120.27372951507569L253.68,116.24782419204712L253.77333333333334,114.64030466079713L253.96,116.8867672920227L254.14666666666665,114.79107713699341L254.61333333333334,116.7094931602478L254.8,111.8133713722229L254.89333333333335,116.73847618103026L255.08,119.02791538238525L255.54666666666665,120.10923357009888L255.73333333333332,118.87798690795898L255.92000000000002,114.9720986366272L256.0133333333333,116.68952407836913L256.29333333333335,118.56751241683959L257.04,115.09398937225342L257.6,117.66517324447632L258.06666666666666,118.01698694229127L258.16,122.73112506866455L258.34666666666664,116.84660968780518L258.62666666666667,114.9210027694702L258.81333333333333,118.37987394332886L259,116.91195230484009L259.18666666666667,119.05632448196411L259.28000000000003,117.90240526199341L259.74666666666667,121.33636150360108L259.84000000000003,120.840949344635L259.93333333333334,118.74988431930542L260.2133333333333,117.0681770324707L260.3066666666667,118.94243488311768L260.58666666666664,120.5334963798523L261.14666666666665,119.15623741149902L261.24,123.1917981147766L261.4266666666667,118.96699533462525L261.61333333333334,119.97211704254151L261.8,123.08460988998412L261.8933333333333,118.88595428466796L262.91999999999996,123.52205600738525L263.0133333333333,123.19161243438721L263.1066666666667,121.72902488708496L263.38666666666666,126.2546974182129L263.85333333333335,121.61277208328248L263.94666666666666,125.69166383743287L264.41333333333336,122.48074350357057L264.50666666666666,128.3033935546875L264.59999999999997,125.32462434768676L264.6933333333333,127.8923984527588L264.88,121.06888046264648L264.97333333333336,123.98711786270142L265.06666666666666,130.08219480514526L265.3466666666667,126.90628366470337L266.37333333333333,126.67620878219604L266.93333333333334,131.91742601394654L267.12,132.74854831695558L267.58666666666664,212.0148819923401L267.8666666666667,47.60801296234131L267.96,52.51169700622558L268.05333333333334,53.9511926651001L268.24,57.19806747436524L268.8933333333333,70.52563190460205L269.17333333333335,73.95693798065186L269.36,86.21569232940674L269.64,85.81303596496582L269.82666666666665,80.65557746887207L270.0133333333333,84.70708980560302L270.38666666666666,80.65642147064209L270.76,86.30336723327638L270.85333333333335,82.60859756469726L270.94666666666666,86.9956174850464L271.03999999999996,82.80663414001465L271.2266666666667,92.46024198532105L271.41333333333336,86.78319911956787L271.50666666666666,82.00442733764648L271.59999999999997,83.66944026947021L271.7866666666667,84.45686016082765L271.88,87.86342010498048L271.97333333333336,84.57485160827638L272.15999999999997,84.32050323486328" style="fill: none;" fill="none"></path></g></g></g></g></g></g><g transform="translate(50, 177)" clip-path="url(#clip_1)"><clipPath id="clip_1"><rect width="280" height="22"></rect></clipPath><g><g><line x1="0" y1="0" x2="0" y2="5" style="visibility: inherit;" fill="rgb(0, 0, 0)" stroke="rgb(204, 204, 204)" stroke-width="1px"></line><line x1="18.666666666666668" y1="0" x2="18.666666666666668" y2="5" style="visibility: inherit;" fill="rgb(0, 0, 0)" stroke="rgb(204, 204, 204)" stroke-width="1px"></line><line x1="37.333333333333336" y1="0" x2="37.333333333333336" y2="5" style="visibility: inherit;" fill="rgb(0, 0, 0)" stroke="rgb(204, 204, 204)" stroke-width="1px"></line><line x1="56" y1="0" x2="56" y2="5" style="visibility: inherit;" fill="rgb(0, 0, 0)" stroke="rgb(204, 204, 204)" stroke-width="1px"></line><line x1="74.66666666666667" y1="0" x2="74.66666666666667" y2="5" style="visibility: inherit;" fill="rgb(0, 0, 0)" stroke="rgb(204, 204, 204)" stroke-width="1px"></line><line x1="93.33333333333333" y1="0" x2="93.33333333333333" y2="5" style="visibility: inherit;" fill="rgb(0, 0, 0)" stroke="rgb(204, 204, 204)" stroke-width="1px"></line><line x1="112" y1="0" x2="112" y2="5" style="visibility: inherit;" fill="rgb(0, 0, 0)" stroke="rgb(204, 204, 204)" stroke-width="1px"></line><line x1="130.66666666666666" y1="0" x2="130.66666666666666" y2="5" style="visibility: inherit;" fill="rgb(0, 0, 0)" stroke="rgb(204, 204, 204)" stroke-width="1px"></line><line x1="149.33333333333334" y1="0" x2="149.33333333333334" y2="5" style="visibility: inherit;" fill="rgb(0, 0, 0)" stroke="rgb(204, 204, 204)" stroke-width="1px"></line><line x1="168" y1="0" x2="168" y2="5" style="visibility: inherit;" fill="rgb(0, 0, 0)" stroke="rgb(204, 204, 204)" stroke-width="1px"></line><line x1="186.66666666666666" y1="0" x2="186.66666666666666" y2="5" style="visibility: inherit;" fill="rgb(0, 0, 0)" stroke="rgb(204, 204, 204)" stroke-width="1px"></line><line x1="205.33333333333331" y1="0" x2="205.33333333333331" y2="5" style="visibility: inherit;" fill="rgb(0, 0, 0)" stroke="rgb(204, 204, 204)" stroke-width="1px"></line><line x1="224" y1="0" x2="224" y2="5" style="visibility: inherit;" fill="rgb(0, 0, 0)" stroke="rgb(204, 204, 204)" stroke-width="1px"></line><line x1="242.66666666666669" y1="0" x2="242.66666666666669" y2="5" style="visibility: inherit;" fill="rgb(0, 0, 0)" stroke="rgb(204, 204, 204)" stroke-width="1px"></line><line x1="261.3333333333333" y1="0" x2="261.3333333333333" y2="5" style="visibility: inherit;" fill="rgb(0, 0, 0)" stroke="rgb(204, 204, 204)" stroke-width="1px"></line><line x1="280" y1="0" x2="280" y2="5" style="visibility: inherit;" fill="rgb(0, 0, 0)" stroke="rgb(204, 204, 204)" stroke-width="1px"></line></g><g transform="translate(0, 8)"><text x="0" y="0" dx="0em" dy="0.95em" style="text-anchor: middle; visibility: hidden; font-family: Roboto, sans-serif; font-size: 12px; font-weight: 200;" fill="rgb(33, 33, 33)" stroke="none" stroke-width="1px">-200</text><text x="18.666666666666668" y="0" dx="0em" dy="0.95em" style="text-anchor: middle; visibility: inherit; font-family: Roboto, sans-serif; font-size: 12px; font-weight: 200;" fill="rgb(33, 33, 33)" stroke="none" stroke-width="1px">0</text><text x="37.333333333333336" y="0" dx="0em" dy="0.95em" style="text-anchor: middle; visibility: hidden; font-family: Roboto, sans-serif; font-size: 12px; font-weight: 200;" fill="rgb(33, 33, 33)" stroke="none" stroke-width="1px">200</text><text x="56" y="0" dx="0em" dy="0.95em" style="text-anchor: middle; visibility: inherit; font-family: Roboto, sans-serif; font-size: 12px; font-weight: 200;" fill="rgb(33, 33, 33)" stroke="none" stroke-width="1px">400</text><text x="74.66666666666667" y="0" dx="0em" dy="0.95em" style="text-anchor: middle; visibility: hidden; font-family: Roboto, sans-serif; font-size: 12px; font-weight: 200;" fill="rgb(33, 33, 33)" stroke="none" stroke-width="1px">600</text><text x="93.33333333333333" y="0" dx="0em" dy="0.95em" style="text-anchor: middle; visibility: inherit; font-family: Roboto, sans-serif; font-size: 12px; font-weight: 200;" fill="rgb(33, 33, 33)" stroke="none" stroke-width="1px">800</text><text x="112" y="0" dx="0em" dy="0.95em" style="text-anchor: middle; visibility: hidden; font-family: Roboto, sans-serif; font-size: 12px; font-weight: 200;" fill="rgb(33, 33, 33)" stroke="none" stroke-width="1px">1k</text><text x="130.66666666666666" y="0" dx="0em" dy="0.95em" style="text-anchor: middle; visibility: inherit; font-family: Roboto, sans-serif; font-size: 12px; font-weight: 200;" fill="rgb(33, 33, 33)" stroke="none" stroke-width="1px">1.2k</text><text x="149.33333333333334" y="0" dx="0em" dy="0.95em" style="text-anchor: middle; visibility: hidden; font-family: Roboto, sans-serif; font-size: 12px; font-weight: 200;" fill="rgb(33, 33, 33)" stroke="none" stroke-width="1px">1.4k</text><text x="168" y="0" dx="0em" dy="0.95em" style="text-anchor: middle; visibility: inherit; font-family: Roboto, sans-serif; font-size: 12px; font-weight: 200;" fill="rgb(33, 33, 33)" stroke="none" stroke-width="1px">1.6k</text><text x="186.66666666666666" y="0" dx="0em" dy="0.95em" style="text-anchor: middle; visibility: hidden; font-family: Roboto, sans-serif; font-size: 12px; font-weight: 200;" fill="rgb(33, 33, 33)" stroke="none" stroke-width="1px">1.8k</text><text x="205.33333333333331" y="0" dx="0em" dy="0.95em" style="text-anchor: middle; visibility: inherit; font-family: Roboto, sans-serif; font-size: 12px; font-weight: 200;" fill="rgb(33, 33, 33)" stroke="none" stroke-width="1px">2k</text><text x="224" y="0" dx="0em" dy="0.95em" style="text-anchor: middle; visibility: hidden; font-family: Roboto, sans-serif; font-size: 12px; font-weight: 200;" fill="rgb(33, 33, 33)" stroke="none" stroke-width="1px">2.2k</text><text x="242.66666666666669" y="0" dx="0em" dy="0.95em" style="text-anchor: middle; visibility: inherit; font-family: Roboto, sans-serif; font-size: 12px; font-weight: 200;" fill="rgb(33, 33, 33)" stroke="none" stroke-width="1px">2.4k</text><text x="261.3333333333333" y="0" dx="0em" dy="0.95em" style="text-anchor: middle; visibility: hidden; font-family: Roboto, sans-serif; font-size: 12px; font-weight: 200;" fill="rgb(33, 33, 33)" stroke="none" stroke-width="1px">2.6k</text><text x="280" y="0" dx="0em" dy="0.95em" style="text-anchor: middle; visibility: hidden; font-family: Roboto, sans-serif; font-size: 12px; font-weight: 200;" fill="rgb(33, 33, 33)" stroke="none" stroke-width="1px">2.8k</text></g><line x1="0" y1="0" x2="280" y2="0" fill="rgb(0, 0, 0)" stroke="rgb(204, 204, 204)" stroke-width="1px"></line></g></g></g></g></svg>