<svg viewBox="0 0 330 200" xmlns="http://www.w3.org/2000/svg"><g><g><g><g><g><line x1="30" y1="177" x2="25" y2="177" style="visibility: inherit;" fill="rgb(0, 0, 0)" stroke="rgb(204, 204, 204)" stroke-width="1px"></line><line x1="30" y1="157.33333333333331" x2="25" y2="157.33333333333331" style="visibility: inherit;" fill="rgb(0, 0, 0)" stroke="rgb(204, 204, 204)" stroke-width="1px"></line><line x1="30" y1="137.66666666666666" x2="25" y2="137.66666666666666" style="visibility: inherit;" fill="rgb(0, 0, 0)" stroke="rgb(204, 204, 204)" stroke-width="1px"></line><line x1="30" y1="118.00000000000001" x2="25" y2="118.00000000000001" style="visibility: inherit;" fill="rgb(0, 0, 0)" stroke="rgb(204, 204, 204)" stroke-width="1px"></line><line x1="30" y1="98.33333333333334" x2="25" y2="98.33333333333334" style="visibility: inherit;" fill="rgb(0, 0, 0)" stroke="rgb(204, 204, 204)" stroke-width="1px"></line><line x1="30" y1="78.66666666666666" x2="25" y2="78.66666666666666" style="visibility: inherit;" fill="rgb(0, 0, 0)" stroke="rgb(204, 204, 204)" stroke-width="1px"></line><line x1="30" y1="59.00000000000001" x2="25" y2="59.00000000000001" style="visibility: inherit;" fill="rgb(0, 0, 0)" stroke="rgb(204, 204, 204)" stroke-width="1px"></line><line x1="30" y1="39.33333333333333" x2="25" y2="39.33333333333333" style="visibility: inherit;" fill="rgb(0, 0, 0)" stroke="rgb(204, 204, 204)" stroke-width="1px"></line><line x1="30" y1="19.666666666666675" x2="25" y2="19.666666666666675" style="visibility: inherit;" fill="rgb(0, 0, 0)" stroke="rgb(204, 204, 204)" stroke-width="1px"></line><line x1="30" y1="0" x2="25" y2="0" style="visibility: inherit;" fill="rgb(0, 0, 0)" stroke="rgb(204, 204, 204)" stroke-width="1px"></line></g><g transform="translate(20, 0)"><text x="0" y="177" dx="0em" dy="0.3em" style="text-anchor: end; visibility: hidden; font-family: Roboto, sans-serif; font-size: 12px; font-weight: 200;" fill="rgb(33, 33, 33)" stroke="none" stroke-width="1px">2</text><text x="0" y="157.33333333333331" dx="0em" dy="0.3em" style="text-anchor: end; visibility: inherit; font-family: Roboto, sans-serif; font-size: 12px; font-weight: 200;" fill="rgb(33, 33, 33)" stroke="none" stroke-width="1px">3</text><text x="0" y="137.66666666666666" dx="0em" dy="0.3em" style="text-anchor: end; visibility: hidden; font-family: Roboto, sans-serif; font-size: 12px; font-weight: 200;" fill="rgb(33, 33, 33)" stroke="none" stroke-width="1px">4</text><text x="0" y="118.00000000000001" dx="0em" dy="0.3em" style="text-anchor: end; visibility: inherit; font-family: Roboto, sans-serif; font-size: 12px; font-weight: 200;" fill="rgb(33, 33, 33)" stroke="none" stroke-width="1px">5</text><text x="0" y="98.33333333333334" dx="0em" dy="0.3em" style="text-anchor: end; visibility: hidden; font-family: Roboto, sans-serif; font-size: 12px; font-weight: 200;" fill="rgb(33, 33, 33)" stroke="none" stroke-width="1px">6</text><text x="0" y="78.66666666666666" dx="0em" dy="0.3em" style="text-anchor: end; visibility: inherit; font-family: Roboto, sans-serif; font-size: 12px; font-weight: 200;" fill="rgb(33, 33, 33)" stroke="none" stroke-width="1px">7</text><text x="0" y="59.00000000000001" dx="0em" dy="0.3em" style="text-anchor: end; visibility: hidden; font-family: Roboto, sans-serif; font-size: 12px; font-weight: 200;" fill="rgb(33, 33, 33)" stroke="none" stroke-width="1px">8</text><text x="0" y="39.33333333333333" dx="0em" dy="0.3em" style="text-anchor: end; visibility: inherit; font-family: Roboto, sans-serif; font-size: 12px; font-weight: 200;" fill="rgb(33, 33, 33)" stroke="none" stroke-width="1px">9</text><text x="0" y="19.666666666666675" dx="0em" dy="0.3em" style="text-anchor: end; visibility: hidden; font-family: Roboto, sans-serif; font-size: 12px; font-weight: 200;" fill="rgb(33, 33, 33)" stroke="none" stroke-width="1px">10</text><text x="0" y="0" dx="0em" dy="0.3em" style="text-anchor: end; visibility: hidden; font-family: Roboto, sans-serif; font-size: 12px; font-weight: 200;" fill="rgb(33, 33, 33)" stroke="none" stroke-width="1px">11</text></g><line x1="30" y1="0" x2="30" y2="177" fill="rgb(0, 0, 0)" stroke="rgb(204, 204, 204)" stroke-width="1px"></line></g></g><g transform="translate(30, 0)" clip-path="url(#clip_0)"><clipPath id="clip_0"><rect width="300" height="176"></rect></clipPath><g><g><g><line x1="0" y1="0" x2="0" y2="177" fill="rgb(0, 0, 0)" stroke="rgb(66, 66, 66)" stroke-width="1px" opacity="0.25"></line><line x1="30" y1="0" x2="30" y2="177" fill="rgb(0, 0, 0)" stroke="rgb(66, 66, 66)" stroke-width="1px" opacity="0.25"></line><line x1="60" y1="0" x2="60" y2="177" fill="rgb(0, 0, 0)" stroke="rgb(66, 66, 66)" stroke-width="1px" opacity="0.25"></line><line x1="90" y1="0" x2="90" y2="177" fill="rgb(0, 0, 0)" stroke="rgb(66, 66, 66)" stroke-width="1px" opacity="0.25"></line><line x1="120" y1="0" x2="120" y2="177" fill="rgb(0, 0, 0)" stroke="rgb(66, 66, 66)" stroke-width="1px" opacity="0.25"></line><line x1="150" y1="0" x2="150" y2="177" fill="rgb(0, 0, 0)" stroke="rgb(66, 66, 66)" stroke-width="1px" opacity="0.25"></line><line x1="180" y1="0" x2="180" y2="177" fill="rgb(0, 0, 0)" stroke="rgb(66, 66, 66)" stroke-width="1px" opacity="0.25"></line><line x1="210" y1="0" x2="210" y2="177" fill="rgb(0, 0, 0)" stroke="rgb(66, 66, 66)" stroke-width="1px" opacity="0.25"></line><line x1="240" y1="0" x2="240" y2="177" fill="rgb(0, 0, 0)" stroke="rgb(66, 66, 66)" stroke-width="1px" opacity="0.25"></line><line x1="270" y1="0" x2="270" y2="177" fill="rgb(0, 0, 0)" stroke="rgb(66, 66, 66)" stroke-width="1px" opacity="0.25"></line><line x1="300" y1="0" x2="300" y2="177" fill="rgb(0, 0, 0)" stroke="rgb(66, 66, 66)" stroke-width="1px" opacity="0.25"></line></g><g><line x1="0" y1="177" x2="300" y2="177" fill="rgb(0, 0, 0)" stroke="rgb(66, 66, 66)" stroke-width="1px" opacity="0.25"></line><line x1="0" y1="157.33333333333331" x2="300" y2="157.33333333333331" fill="rgb(0, 0, 0)" stroke="rgb(66, 66, 66)" stroke-width="1px" opacity="0.25"></line><line x1="0" y1="137.66666666666666" x2="300" y2="137.66666666666666" fill="rgb(0, 0, 0)" stroke="rgb(66, 66, 66)" stroke-width="1px" opacity="0.25"></line><line x1="0" y1="118.00000000000001" x2="300" y2="118.00000000000001" fill="rgb(0, 0, 0)" stroke="rgb(66, 66, 66)" stroke-width="1px" opacity="0.25"></line><line x1="0" y1="98.33333333333334" x2="300" y2="98.33333333333334" fill="rgb(0, 0, 0)" stroke="rgb(66, 66, 66)" stroke-width="1px" opacity="0.25"></line><line x1="0" y1="78.66666666666666" x2="300" y2="78.66666666666666" fill="rgb(0, 0, 0)" stroke="rgb(66, 66, 66)" stroke-width="1px" opacity="0.25"></line><line x1="0" y1="59.00000000000001" x2="300" y2="59.00000000000001" fill="rgb(0, 0, 0)" stroke="rgb(66, 66, 66)" stroke-width="1px" opacity="0.25"></line><line x1="0" y1="39.33333333333333" x2="300" y2="39.33333333333333" fill="rgb(0, 0, 0)" stroke="rgb(66, 66, 66)" stroke-width="1px" opacity="0.25"></line><line x1="0" y1="19.666666666666675" x2="300" y2="19.666666666666675" fill="rgb(0, 0, 0)" stroke="rgb(66, 66, 66)" stroke-width="1px" opacity="0.25"></line><line x1="0" y1="0" x2="300" y2="0" fill="rgb(0, 0, 0)" stroke="rgb(66, 66, 66)" stroke-width="1px" opacity="0.25"></line></g></g></g><g><g><line x1="0" y1="216.33333333333334" x2="300" y2="216.33333333333334" fill="rgb(0, 0, 0)" stroke="rgb(153, 153, 153)" stroke-width="1.5px"></line></g></g><g><g><line x1="30" y1="0" x2="30" y2="177" fill="rgb(0, 0, 0)" stroke="rgb(153, 153, 153)" stroke-width="1.5px"></line></g></g><g><g><g><g><g><path stroke="rgb(255, 112, 67)" stroke-width="2px" d="M30.27,25.31705220540365L30.705,33.610741098721824L30.93,40.31013313604862L30.945,43.894344135826714L31.065,46.53099270184612L31.335,51.264655247325315L31.544999999999998,55.78817126286427L31.605,58.68185855366721L31.919999999999998,61.45758602772814L32.4,63.108641451744425L32.46,64.72104160494504L32.58,65.56951460318021L32.864999999999995,66.21327398005864L33.045,66.9075335801656L33.434999999999995,68.99247940882215L33.66,67.03688757589623L33.885,68.14996441031136L34.23,68.19845232570367L34.275,67.47798141382559L34.74,65.54644742299344L34.785,65.86189935812287L35.19,66.46306313113143L35.370000000000005,65.54904851524691L35.49,66.63617750073628L35.79,66.57009901531717L36.03,66.9924594013071L36.225,68.8072612888049L36.54,67.77180997958138L36.555,67.96253337196659L36.690000000000005,67.85125498138761L36.915,67.11617726368381L36.975,66.88028315980982L37.125,67.859682393826L37.214999999999996,68.07916832167349L37.65,66.05710986276416L37.995000000000005,67.20206454396998L38.07000000000001,66.75718595110682L38.1,65.86880341154261L38.339999999999996,66.40602440346913L38.43,66.58745746662414L38.910000000000004,67.53467739211116L38.94,66.76507898484344L39.555,69.8267047353366L39.644999999999996,70.84933476154517L39.660000000000004,71.02737035259175L39.87,71.00799281142771L40.004999999999995,70.6428720875998L40.125,69.79050573850265L40.815,73.03457871170001L41.459999999999994,72.06506765140995L41.62500000000001,72.75898529045463L41.730000000000004,72.93286354314944L41.82,71.41961796465246L42.059999999999995,70.25200315743204L42.855000000000004,69.00257429537803L42.99,69.61180109018682L43.290000000000006,70.80218197247174L44.13,71.50394178236009L44.985,71.97058501723104L45.06,71.72435273458179L45.225,71.47708117403356L45.330000000000005,72.13354707223834L45.39,74.3338642306884L45.42,72.60239169922032L45.55500000000001,73.51124670064384L45.839999999999996,72.32122079107721L46.065,73.39049846077098L46.154999999999994,72.13567185885192L46.470000000000006,70.53925051979114L46.635,72.94879972949755L46.665,71.21561346857824L46.875,70.9673041010444L46.98,71.55481318063802L47.265,74.01401456650457L47.279999999999994,74.51992365791219L47.46,74.71801765605102L47.61,73.6021069676337L47.64,72.72450849159503L47.760000000000005,74.19997787124281L48.269999999999996,74.14977168826084L48.375,73.95938142014236L48.78,74.51484203262741L48.81,76.5202472046432L48.855,76.4025412620356L48.915,76.66093584425751L49.004999999999995,76.12674574371677L49.065,76.84422632247112L49.47,76.29152012779254L49.875,76.97151318141185L50.175000000000004,77.56696743338325L50.625,78.28426863294254L50.64,78.05535643224762L51.255,78.41065482055056L51.585,81.34367269528852L51.855000000000004,81.12464437238144L51.87,80.89759260029655L52.41,82.18163271115856L52.53,83.61566723604979L52.65,82.36028804711489L52.695,82.50308282175854L53.22,81.5048513511769L53.265,83.26553135513974L53.474999999999994,84.72901829123325L53.52,85.32813973450558L53.595,85.51067606940207L53.775,85.01346187790833L53.94,84.50668743253114L54.405,85.50201037923709L54.525,86.67690272768468L55.05,87.34832563980498L55.275,86.54726150225052L55.529999999999994,88.08831109955182L55.56,88.26655445707402L55.605,88.65770400094524L55.665,88.48745668248853L56.625,89.43335217823497L56.654999999999994,91.50150961830168L56.835,94.83993603678913L57.705,94.38418591355703L57.9,94.69649182360622L58.004999999999995,95.11669982235382L58.48500000000001,94.14777912752281L58.53,94.35065439973147L58.62,96.41134796719075L58.635000000000005,98.47130352366163L59.04,98.57443142399109L59.1,98.17077554344087L59.175000000000004,98.25663987643888L59.400000000000006,98.08095695086739L59.415,98.1197102000818L59.684999999999995,97.49182041071882L61.05,100.07221366315902L61.184999999999995,102.37140112727772L61.335,104.70552837218777L61.49999999999999,102.06579075276416L61.724999999999994,101.41638567856687L61.785,103.7793662556712L62.91,103.83877313983665L63.135,104.08821229647928L63.224999999999994,103.17285058803161L63.585,103.28952095055661L63.66,102.18581679549266L64.785,103.1092860723721L65.385,105.75007761469605L65.91,106.66968170573982L66.53999999999999,107.39382683299385L66.615,107.76839728591285L66.81,108.34340029222237L66.92999999999999,107.34197920121231L66.975,109.60015816027413L67.275,110.00748786847484L67.545,109.90971612247245L67.755,110.6286150255546L67.785,111.41638194156161L67.95,112.18582312245651L68.655,113.10351511625139L68.67,113.02792976372056L68.985,112.7031652017789L69.405,113.62644000953576L69.525,116.13629459603311L69.645,114.33840930817733L70.05,114.74697805459228L70.11,115.39250999101952L70.215,115.72666079248364L70.25999999999999,113.94120760626818L70.395,114.18928676367138L70.62,114.67122236999076L70.755,114.28675778773747L71.01,114.61228745818528L71.085,114.47148999556143L71.1,114.86799874892375L71.295,114.80847027494833L71.31,112.6054091608186L71.325,114.43410731289741L71.475,114.07897170941406L71.52,114.55466331180159L71.77499999999999,114.67641695222986L72.18,115.49308721153976L72.51,114.71387575425133L72.66,113.07452556902622L72.91499999999999,113.55329294253063L72.93,115.53848236748779L73.815,115.53950476218782L74.28,116.32118744593575L74.325,116.39231586620238L74.42999999999999,116.07938683926082L74.475,116.22101893166118L74.595,119.37341946446546L75.285,119.2542112474659L75.50999999999999,118.33267525464412L75.70500000000001,118.35044890024335L76.24499999999999,118.93583327955842L76.25999999999999,118.77050106382474L76.545,118.46897763007546L76.55999999999999,120.00680377876955L76.57499999999999,118.58847112732846L76.785,117.92842599915099L76.8,117.79988371431807L76.815,120.02158284445592L76.92,120.72296640233193L77.175,120.26671739989118L77.595,120.20252801124411L77.88,121.30451959656175L77.985,118.38897383781172L78.06,119.6549233550145L78.25500000000001,119.43749537195646L78.3,119.34963628923427L78.615,118.68308022782523L78.975,118.35359635650308L79.02000000000001,118.9276837589295L79.58999999999999,118.50294674726038L80.10000000000001,117.50254338557546L80.33999999999999,118.85847240433111L80.61,118.55546423839537L80.77499999999999,118.77194564966565L81.06,120.75846959011676L81.27,122.11306623333844L81.915,121.85765557913474L82.245,124.64464502391314L82.26,122.24307846739151L82.36500000000001,120.79574287562126L82.395,120.8355624474797L82.5,122.14632432049791L82.89,123.85684334667293L83.49,122.29434625763754L83.535,122.3177721527759L83.64,121.10910919671517L83.82,121.42426926711356L84.00000000000001,121.15628771078086L84.19500000000001,123.34620500460161L84.21000000000001,121.98122249159155L84.24,125.32838326759897L84.81,124.10004922986685L84.855,123.44570471390483L84.88499999999999,125.39886775937318L84.915,124.0337412794032L84.96000000000001,123.87832461434193L85.02,123.9157110848283L85.06500000000001,124.96136569966409L85.35,124.38479181919217L85.68,125.21710772192708L85.755,125.00323324328401L86.31,125.80229019875766L86.41499999999999,126.45970746530358L86.44500000000001,126.89909998170494L86.73,126.44060382599805L87.72,123.20377638353015L87.75,121.74236330834887L88.035,123.26670425006465L88.52999999999999,123.60641982278457L88.66499999999999,123.76699126236376L88.72500000000001,124.4047818927332L88.815,124.05809995025581L88.995,124.67236232255013L89.04,124.23732127841777L89.49000000000001,126.02917153495432L89.625,125.86975842430917L89.71499999999999,127.05757467179335L90.17999999999999,124.93815083640119L90.21000000000001,124.99107666415357L90.345,126.3100774026059L90.51,126.78207756695011L90.6,127.73440977106604L90.705,125.51421509685186L91.26,127.50111462177078L91.635,127.1502690563673L91.72500000000001,125.12890152832314L91.815,126.40536107639737L91.86000000000001,126.77489357404075L92.19000000000001,126.2444499485423L92.715,125.77053484237571L92.88,125.13304043362366L93.405,126.75031408001875L93.735,127.4708124816213L93.855,127.26378955959044L94.77000000000001,126.87782272409655L94.92,126.9900514327164L95.00999999999999,130.73979088719742L95.925,129.72268001073232L96.52499999999999,128.81217017074601L96.645,129.5444856860251L96.81,128.63525394467575L96.99,129.17160138210494L97.875,127.89558695587021L98.02499999999999,128.95556538203857L98.08500000000001,128.20845860381624L98.46,127.712889175453L98.52000000000001,128.877846229576L98.61,129.56102074891504L99.135,128.39352366354174L99.18,126.9669550718433L99.73500000000001,129.87246347635386L99.885,131.05094377896825L100.28999999999999,131.2749366007346L100.35000000000001,131.71671398731658L100.38,131.23184170873517L100.47,131.36416459809675L100.60499999999999,131.83768465159892L100.95,131.92939804020656L101.05499999999999,132.62384556545695L101.38499999999999,133.93739537485766L101.58,133.10657982084152L101.64,131.83046476872562L101.655,132.67799446283857L102.10499999999999,132.2819599467461L102.45,132.78293456383216L102.48,130.8340257987241L102.525,129.65785725423854L102.53999999999999,131.27828877474363L102.66,130.2883786120345L103.23,129.8721305226284L103.425,131.09848449796425L103.64999999999999,131.28196712038908L103.93499999999999,132.18917697887812L104.1,130.89106578561382L104.235,132.41527733961377L104.69999999999999,128.9453351125695L104.86500000000001,128.69236287428404L105.345,129.9063582000343L105.705,129.48775323890894L105.99,130.9139781355654L106.185,130.78244856753716L106.19999999999999,131.91263650909326L106.32,131.93530125054872L106.35,133.3482737857093L106.97999999999999,133.4299887846702L107.04,132.85288475538056L107.1,131.70453182012693L107.265,131.87328843564305L107.31,132.66900956803866L107.325,130.94158327683394L107.805,131.49312245908132L107.97,133.64366502004515L108,132.89261285327464L108.075,132.15063589332055L108.105,130.9130483399881L108.27,131.06299579527297L108.375,133.5876993122875L108.57,134.51412089962835L108.79499999999999,135.94457162399536L108.92999999999999,136.54282386886743L108.97500000000001,136.89480188561083L109.42500000000001,136.1069156670924L109.77,132.07832195427156L109.785,132.59503966609321L109.83,131.95987458650083L109.86000000000001,131.3821943975914L109.92,132.5056948250986L110.01,131.76149324495339L110.42999999999999,131.90377794058367L110.55,134.05502877047405L110.895,132.81573204245618L111.04499999999999,133.31709787873297L111.67500000000001,130.43742987490418L111.80999999999999,131.0910944758458L111.885,131.19393191845833L112.55999999999999,133.2818875756559L112.635,130.74366384625617L112.815,132.54715064692607L113.50500000000001,132.5215185375697L114.05999999999999,133.07959908793487L115.00500000000001,132.77114551792613L115.95,133.35529658911668L116.37,132.9881006422721L116.715,132.9694207237015L117.48,134.92613606408335L117.99,134.63140713029165L118.185,134.9952935706758L118.23,135.4200270055443L119.22,133.7737249461041L119.33999999999999,133.40134853882944L119.46,134.10007152615003L119.715,133.56197849308262L119.85000000000001,134.47104641235754L119.955,137.10208680890133L120.045,137.2004444757827L120.13499999999999,137.6632895405925L120.675,138.23515182748457L120.795,136.2556551020246L121.16999999999999,136.40155113464004L121.18499999999999,135.72823803857213L121.665,135.05523493231482L121.69500000000001,136.92415915930954L121.995,136.0997088770351L122.07,136.2659521114994L122.1,134.1456658052704L122.13000000000001,136.48201233589455L122.52,136.9100053853421L123.375,138.03788043737183L123.64500000000001,137.9885069947229L124.185,135.49403765325465L124.21499999999999,137.54822341516444L124.5,136.39544895439246L124.98,138.304988355332L125.01,136.53885900034112L125.205,136.95062907767456L125.37,137.68111845790642L125.38499999999999,139.66390719178892L125.46000000000001,138.73709407347587L125.535,138.13404594400416L126.09,139.54077213529084L126.36,139.57299818311134L126.64500000000001,138.5008069537918L126.88499999999999,139.96585552669606L127.09500000000001,138.0629254228495L127.365,136.23925894379352L127.41000000000001,137.37357633439544L127.92,137.47463764227138L127.96499999999999,138.69088165050766L128.19,136.30658787142846L128.265,136.8123954871393L128.46,135.36627564067223L128.535,135.6435427739297L128.775,138.19297206048617L128.85,136.45306242889828L128.925,137.22035007508597L128.985,137.6409795572281L129.225,137.46301574845631L129.735,138.59235307776643L130.095,137.15401490452118L130.725,136.37058448745148L130.8,138.78543682070574L130.95,139.38253474536737L131.01,140.078761817832L131.25,137.35006133823745L131.415,136.65248510107884L131.775,136.66265849788283L132.03,137.50791973582483L132.315,136.25609238969233L132.63,135.92934881862172L132.75,138.63604795465568L132.885,139.3075157852751L133.125,138.1753316910137L133.73999999999998,141.06703023459926L133.785,138.3058756292646L133.95,138.9556483964593L134.055,139.85846257252322L134.625,137.73755806312656L134.865,138.7256872274023L134.94,139.01696350679052L134.97,138.3481476297294L135.27,138.45906964880118L135.435,138.71398154859875L135.66,138.53500529904247L135.81,141.12781565653728L136.755,139.2655310229507L136.8,137.43155397550544L136.89,136.6909188126104L137.46,136.2207900342093L137.655,136.63071169396716L137.67,136.89312084877776L137.70000000000002,138.6662745656428L138.105,139.75407455256723L138.375,137.37375916177714L138.79500000000002,139.6927089679322L139.11,139.4105152440914L139.62,138.42476233757625L140.01,138.58437839101012L140.07,137.96023701995762L140.29500000000002,138.7117368342687L140.37,139.23732712838307L140.505,140.54623643739973L140.775,141.0156177690662L141.36,141.6668124364438L141.525,139.86447878877058L141.54,139.35488979935488L141.96,140.78253786317413L142.02,139.84072397878907L142.04999999999998,141.65906851330087L142.23000000000002,141.19768214725664L142.59,140.75382050178376L142.77,139.8543990312135L142.89,140.2046803707748L142.98000000000002,139.51131527075384L143.145,140.1936144696626L143.265,141.65392811300075L143.29500000000002,140.83687432131202L143.385,139.17712942473707L143.895,139.49650544948946L144.03,138.80995284931404L144.06,140.38743286579773L144.105,141.21764931629056L144.57,140.6096979869403L144.66,139.94162858881538L144.9,138.41809204434145L145.905,140.60656001099818L145.95,142.59242085970763L146.34,142.08682611201598L146.415,139.32288525868094L146.91,140.55526619574607L146.925,140.53998087299576L147.315,139.7410903520547L147.57,141.08378706060822L147.63,141.44702249576434L147.75,138.6284592021095L147.82500000000002,137.51444963625593L147.84,141.1808407386831L147.93,139.7071745761648L148.23,143.4134686212787L148.425,144.31181341535145L148.515,141.05960747873561L148.89000000000001,141.23181300128962L148.935,141.8672700530219L149.79000000000002,140.08651746546792L150.48000000000002,139.98281995397153L150.69,139.3736339088758L150.81,141.79540249167763L151.155,140.97021590347418L151.17000000000002,140.64800427759883L151.44,140.686102587413L151.82999999999998,140.24340269472074L152.16,142.29084463222347L152.445,142.7995169518601L152.46,142.16405598868198L152.88000000000002,143.23607731192868L153.24,142.98267701663312L153.435,143.01282681265116L153.82500000000002,145.12349529209916L154.155,144.09387396460681L154.245,144.1576194684858L154.36499999999998,143.142173698812L154.44,141.91372403180756L155.23499999999999,141.12166845406784L155.27999999999997,141.8334523256959L155.445,139.61652017929205L155.655,140.8402183451139L155.955,142.85320120639898L156.165,141.98778497529406L156.24,142.58094644955224L156.85500000000002,142.2733097736722L157.36499999999998,143.56976519413902L157.56,142.5379523578571L157.815,142.30401829937816L157.95,141.38040734167728L158.22,142.43664115768175L158.30999999999997,143.29840446771087L158.445,142.97204210715034L159.09,143.62148121013166L159.27,145.41712783384676L159.3,146.47765452827028L159.405,145.44132971265918L159.88500000000002,142.70402188002473L159.945,143.55283031602346L160.41,143.92912883205994L160.5,141.25280035323175L160.77,141.45887063018245L160.86,142.59437901619134L161.28,139.9191902886414L161.30999999999997,141.49519287013513L161.64,143.53909954903622L161.67000000000002,143.84756162252884L161.82,142.46688804519292L161.985,141.42637312506903L162.345,140.17963912543814L162.49499999999998,140.10036322150924L162.975,140.5987524152257L163.04999999999998,141.47145018341885L163.15499999999997,143.25804059522994L163.32,143.89383910984387L163.41,144.25362924868222L163.755,142.59756929954503L163.815,141.82881853946415L164.775,143.5297449467681L164.85,142.74569934436295L165.09,144.53369318144686L165.495,144.29382665970226L165.73499999999999,144.68442807208478L165.86999999999998,143.59602808323092L166.05,144.05774562776043L166.755,144.43505294255388L166.81500000000003,144.36924766976816L167.28,144.06927179979792L167.85,143.20777360411986L167.89499999999998,143.02290498303873L168.04500000000002,143.50081946305932L168.18,146.0331098825882L168.33,145.1164005631894L168.39000000000001,144.95447699435692L168.78,146.45926447038735L169.365,145.67873228783338L169.54500000000002,146.18432537632145L169.57500000000002,145.52804934134258L169.68,145.18732829382128L169.845,146.35113694363895L169.905,144.79743785516854L169.995,146.53402327014865L170.04,145.55675467559018L170.175,145.42342178449024L170.28,144.25613958294187L170.385,144.50411128196117L170.47500000000002,144.58552608008978L170.49,146.03027698864022L170.57999999999998,147.09592933735934L170.655,145.68298977582666L170.805,146.13070123574542L171.26999999999998,145.43284292925244L171.61499999999998,143.8105926746657L171.645,145.2633162320374L171.84,145.98498625640383L172.08,145.06300719827996L172.32,143.90834096422145L172.335,143.68544952482193L172.35,143.22848073885964L173.07,143.73448907680984L173.205,143.19075193811065L173.34,145.2604037372784L173.49,144.6546655644089L173.895,145.2825665085977L174.015,145.33961045798455L174.10500000000002,144.50923766328967L174.29999999999998,146.12320531388565L175.065,145.4690131325351L175.08,144.30406740380286L175.125,145.06720174395818L175.38,144.2695209326969L175.56,144.16510531957704L175.57500000000002,144.1514999567812L175.68,145.33495845592097L176.04,143.942306301173L176.07,144.63867199888415L176.29500000000002,144.99339009406518L176.31,143.65472438185822L176.58,144.95395399480708L176.82000000000002,145.65835497389028L176.97,146.2820574141132L177.195,145.13779403149607L177.35999999999999,147.45182734358025L177.555,146.8570100960794L177.75,143.88894707149245L178.00500000000002,145.0120942802388L178.11,145.55457528101357L178.41,145.63633305033218L178.55999999999997,144.80402479688428L178.74,144.33104584686023L178.755,142.94309972567598L179.22,143.59024414326691L179.235,143.25020790640082L179.25,145.12803656584163L179.4,146.00268669958595L179.595,144.49370447021138L179.685,145.5945861134216L179.805,145.09863386511512L179.895,145.44148918366258L180.945,144.2327660662482L181.35000000000002,147.027602875782L181.815,145.78731037252325L181.89,145.23661571188674L182.07,144.66692441370432L182.835,146.43643070260492L182.865,146.72993531823042L183.12,145.84063214659622L183.225,143.07875990827839L183.375,145.10321167286213L184.03500000000003,145.53973748192772L184.2,143.23720235370945L184.44,143.41696451550732L185.13,144.24447398848937L185.17499999999998,145.2313165672676L185.19,146.96934019772547L185.925,146.89138942111535L186.67499999999998,146.27450326173903L186.76500000000001,145.86835332168778L186.78,146.17716192078774L186.87,146.27318732860994L187.515,145.5649553671875L187.77,145.13641699167482L188.26500000000001,143.09836208033002L188.415,145.88982474331522L188.595,145.48442553395705L188.715,146.67054426817901L188.94,146.61760429629967L189.21,147.30710171911687L189.495,145.8296022688562L189.645,146.72156249733055L189.67499999999998,146.70312598894807L190.605,146.79750616282683L190.755,146.7173478380668L190.85999999999999,147.31818142190542L190.935,147.35244112802525L191.17499999999998,146.67574833388912L191.27999999999997,145.6013357712177L191.475,144.73933339556143L191.565,145.06661200785686L192.135,145.98761658825904L192.63,147.5044182119276L193.455,147.14318869774576L193.51500000000001,146.55577103852252L194.64000000000001,147.27850555117342L195.33,148.657989033473L195.345,148.584949180531L195.42,150.05624723735303L195.54000000000002,149.86881307146658L195.80999999999997,149.37078818111644L196.41,147.76131914712406L196.77,146.39642864062836L196.86,146.6830878909098L196.875,149.2759824825724L196.99499999999998,146.8231534620166L197.38500000000002,146.03463046908618L197.54999999999998,147.1378118902062L198.12,147.29520461815284L198.17999999999998,148.64390753422788L198.27,148.19749847281741L198.375,146.1480647041128L198.39,146.6680426188544L198.57000000000002,148.17564039954954L198.83999999999997,147.4391951731607L199.26,147.38779138953078L199.42499999999998,147.82716501214458L199.95,147.03664973055334L199.965,147.00859993303823L200.085,149.2556097444197L200.265,149.55781235315206L200.46,147.4545918028621L200.91,147.7978458079339L201.06,148.8295320315743L201.135,149.017521439607L201.645,150.34733187672398L201.72,151.01810209463181L201.75,149.91520454392915L201.87,148.79755126181894L201.91500000000002,148.797061062318L201.94500000000002,148.4233280438951L202.35,148.54917454036703L202.54500000000002,148.47790677932477L202.89000000000001,149.37883763067472L202.905,147.6809252692414L203.33999999999997,145.59172853190617L203.55,147.05424944773665L203.67,148.43114284007956L204.165,147.93570526835845L204.645,147.51492212850368L205.44,149.22829929176083L205.695,150.03744217067822L206.04,149.39965344454765L206.25,149.45312843910406L206.34,149.9585240017864L206.47500000000002,148.9202186503903L206.76000000000002,147.30984151992575L206.79000000000002,146.89221076548125L207.255,147.59188827900104L207.285,148.14956904070385L207.345,148.81840782533175L207.54,150.4030090799138L207.66000000000003,146.991308488262L207.705,147.67563353249173L207.765,148.17092507443073L208.005,149.3004226606761L208.14,148.65202188024966L208.23000000000002,148.31201228815345L208.785,149.9503217298867L208.86,148.73938106054555L209.11499999999998,149.69284907115195L209.325,147.85255337833976L209.34,147.029421049831L209.55,147.9244628499812L209.58,147.8589531908949L209.655,146.81631872239825L209.92499999999998,147.7541950534768L210.18,149.5560673708312L210.405,149.1301693340893L210.855,150.60399576549264L210.94500000000002,148.96648748233633L211.02,148.4935682744665L211.14,148.47658882921237L212.025,149.92860797078586L212.34,146.57336805878785L212.52,146.2968965448064L212.625,146.99510264856352L212.685,147.04633600192903L213.15,146.68535041020894L213.525,148.9182828855907L213.57,148.65072164887556L213.69000000000003,148.02997137280923L213.92999999999998,148.14528295898012L214.065,147.7291913996353L214.53,149.73614587208914L214.55999999999997,149.3290404030956L214.62,149.91367688671414L214.74,149.00972448326547L214.755,148.7176933439815L215.175,149.32117132458552L215.31,149.45868612198115L215.385,149.07112727682636L215.49,148.9205614216378L215.55,150.26261669917412L215.91,151.1408316365292L215.97,150.40716330636008L216,150.1636747385768L216.315,148.86039140218742L216.32999999999998,145.94244047638327L216.345,147.0537474431786L216.555,148.1115839011387L216.64499999999998,149.85399496119712L216.735,148.86237955626743L217.14,148.765819616339L217.17,150.63872338169102L217.2,151.47735809187066L217.82999999999998,150.1610436532893L218.31,148.83794902726004L219.015,149.9514368472337L219.63,151.333626307915L219.72000000000003,150.03473700555386L219.79500000000002,150.49485190792217L220.185,150.02108341902493L220.62,149.57399187753597L220.90499999999997,150.86886949302752L221.73,148.55356300847927L221.865,149.2901307402682L222.70499999999998,150.41895565541378L222.87,151.5892883051542L223.515,150.00653878305997L223.575,150.69520153674273L223.82999999999998,150.55608630621109L224.16,150.4023718383531L224.58,150.1513582913053L224.64000000000001,150.80794220256638L224.67000000000002,151.56084462655286L224.715,150.04967803549388L224.955,150.17288155630203L225.14999999999998,150.54079386755808L225.27,151.44646181959897L225.35999999999999,151.52581541319086L225.42,151.1095079297586L225.54000000000002,151.52948198207795L225.555,151.75781935943314L225.615,150.68970916962513L225.70499999999998,153.49798382697037L225.72,151.37684199041644L226.32,149.23596790329526L226.38000000000002,148.15827452478356L227.82,148.56043385269768L227.97,146.20304799955605L228.14999999999998,148.4443126254172L228.405,150.46908737815764L228.51000000000002,150.3860556856633L228.645,150.59568844094917L228.75,149.54182932687826L228.915,150.42227637318587L229.425,149.7364743126302L229.56,151.7929705365222L230.23499999999999,151.8814284553362L230.82,151.22655639749166L231.03,151.7732753378236L231.27,150.44739708237353L231.82500000000002,149.69380201259753L232.38,149.48402352348666L232.83,150.04342772493183L232.96499999999997,150.8014256115521L232.98,150.33351847067067L233.25,152.28443677744025L233.37,152.04118539206635L233.64000000000001,150.98474795805882L233.82,150.16208230170093L233.88,148.42903442410122L234.345,148.7901998712271L234.63,150.25975974919294L234.66,149.86807518316445L234.69,149.51673286624631L234.70499999999998,150.16701371749969L234.9,150.25995106268363L235.53,151.01289644301994L235.74,150.91343298630554L236.04000000000002,147.79681801245593L236.38500000000002,150.03778471616496L236.715,151.14613989631886L237.03,152.42654470388425L237.465,152.20293358833194L237.73499999999999,154.51889843068878L238.005,152.34196217649594L238.10999999999999,150.84637641783604L238.35,153.10662126467258L238.57500000000002,152.24203821773708L238.73999999999998,151.6718624239487L238.95,151.14855914544998L239.565,149.9432719224608L239.70000000000002,150.09983451807L240.09,149.98030902332167L240.52499999999998,152.95110569826423L240.69,151.49175790010884L241.245,152.68899131055073L241.53,150.7713206464175L241.695,152.41338318908953L241.73999999999998,152.45432715212152L241.905,151.3688680286895L241.995,151.93417984380469L242.08499999999998,152.73468142033107L242.10000000000002,154.61933754253678L242.36999999999998,152.22134105981365L242.655,151.56699029974723L242.715,152.01237982336235L242.82,150.49843970432016L242.91,151.07086923615614L243.09,150.20066741444555L243.135,150.03152286611729L243.255,151.02106409630812L243.345,151.37464219745976L243.36,151.55635810544283L243.86999999999998,152.23945514748607L243.97500000000002,152.67814259761641L244.51500000000001,150.07323261718395L245.115,150.97569832376902L245.235,150.23259017371495L245.31,148.429838642498L245.41500000000002,148.06087219616978L245.49,148.68250192742275L245.505,150.32183690194722L245.625,151.4216231703228L245.82,151.79431488908128L245.98499999999999,153.77843508797963L245.99999999999997,151.13167191551972L246.07500000000002,149.38723736409455L246.285,151.45841107410655L246.405,152.39013440793235L246.42000000000002,153.25468392005848L246.54,153.05282929836486L247.41,154.46784476021193L247.44,150.91411130177536L248.025,149.43265660930211L248.04,148.06446581082662L248.22,149.05023464956156L248.655,150.30525201995138L249.34500000000003,148.51550642513612L249.675,149.18992808578437L250.82999999999998,148.89532936683113L251.04,148.8948764785378L251.175,149.9400003423839L251.39999999999998,150.99018962803777L251.655,150.5195710954465L251.775,150.33555431549138L252.15,149.66587866575153L252.285,150.10688781677067L252.6,150.8833147363169L252.76500000000001,149.8346172139825L252.95999999999998,149.98725380693566L253.02,150.86995613293664L253.48499999999999,148.63799998591432L253.55999999999997,151.46682213205153L253.65,149.62709530864987L253.815,150.54625455940663L253.87499999999997,150.16578084869124L254.1,149.15988403147222L254.31,149.6125428850597L254.74499999999998,149.96531616301212L255.285,152.1418443837814L255.975,151.14255241070504L255.98999999999998,152.3791931043922L256.05,149.7813743653412L256.46999999999997,151.39588970556946L256.65000000000003,151.2149709698464L256.8,149.88147869727445L256.86,150.97403104516724L257.07,151.31869034417187L257.295,150.90677448380617L257.64,151.54030142785288L257.775,151.70444129245186L257.985,151.72733078600987L258.10499999999996,151.73906888684843L259.77,152.41781149380137L260.01,152.04628349585968L260.21999999999997,153.69140894359532L260.43,153.42476459630043L260.565,154.59906788838532L261,152.7973303407786L261.15000000000003,151.64709842266785L261.285,153.92386181391564L261.52500000000003,153.24068542661638L261.615,153.9026205798529L261.84000000000003,152.38552563948684L261.93,151.4544124537503L261.945,149.8480888963021L262.35,151.89786872627005L262.38,153.13852484243114L262.5,154.16338030030528L262.935,153.94963950830817L264.15,154.52635970265538L264.495,153.57317113012596L264.57,153.77316137431376L265.02,152.96303931243207L265.5,152.5454239966491L265.68,151.5917900793961L265.83,151.29870798547336L266.235,150.6259142380512L266.4,150.17908324131704L266.745,150.18623987831276L266.84999999999997,151.2792398770507L266.89500000000004,152.66839113870398L267.015,153.22499867502336L267.09,151.65077835057266L267.21000000000004,153.68141803980325L267.3,153.49269335572194L267.465,153.30204670292696L268.095,153.40706541138428L268.125,153.90663748978102L268.815,154.001172022016L268.83,153.12390162705844L269.19,152.69635886843682L269.43,150.75797025499153L269.7,151.31608176313287L270.03000000000003,151.99827790309456" style="fill: none;" fill="none"></path></g></g></g></g><g opacity="0.2"><g><g><g><path stroke="rgb(255, 112, 67)" stroke-width="2px" d="M30.27,25.31705220540365L30.705,38.58695443471273L30.93,46.74154949188233L30.945,48.10937627156574L31.065,49.97340106964112L31.335,57.81301466623943L31.544999999999998,62.256871541341134L31.605,62.900882403055824L31.919999999999998,65.5512448946635L32.4,65.56026633580525L32.46,67.12501748402914L32.58,66.83760674794515L32.864999999999995,67.176811059316L33.045,67.94756285349528L33.434999999999995,72.11744737625122L33.66,64.10487906138103L33.885,69.81910864512126L34.23,68.27117188771567L34.275,66.39738480250041L34.74,62.64932298660278L34.785,66.33505996068318L35.19,67.36478900909424L35.370000000000005,64.17804463704427L35.49,68.26685810089111L35.79,66.47098175684611L36.03,67.62599817911784L36.225,71.52945947647095L36.54,66.21863460540771L36.555,68.24861828486125L36.690000000000005,67.68433745702109L36.915,66.01356093088785L36.975,66.52644205093384L37.125,69.32878112792969L37.214999999999996,68.40839719772339L37.65,63.024022261301674L37.995000000000005,68.91949653625488L38.07000000000001,66.08986806869507L38.1,64.53622961044312L38.339999999999996,67.2118558883667L38.43,66.85960706075032L38.910000000000004,68.95550727844238L38.94,65.61068137486775L39.555,74.41914335886636L39.644999999999996,72.38327980041504L39.660000000000004,71.2944237391154L39.87,70.97892649968465L40.004999999999995,70.09519100189209L40.125,68.51195621490479L40.815,77.90068817138672L41.459999999999994,70.61080106099446L41.62500000000001,73.79986174901326L41.730000000000004,73.19368092219035L41.82,69.14974959691365L42.059999999999995,68.5005809466044L42.855000000000004,67.128431002299L42.99,70.52564128239949L43.290000000000006,72.58775329589844L44.13,72.55658149719238L44.985,72.67054986953735L45.06,71.35500431060791L45.225,71.10617383321127L45.330000000000005,73.11824591954549L45.39,77.63433996836345L45.42,70.00518290201822L45.55500000000001,74.87452920277913L45.839999999999996,70.5361819267273L46.065,74.99441496531168L46.154999999999994,70.25343195597331L46.470000000000006,68.14461851119995L46.635,76.5631235440572L46.665,68.6158340771993L46.875,70.59484004974365L46.98,72.43607680002847L47.265,77.70281664530435L47.279999999999994,75.2787872950236L47.46,75.01515865325928L47.61,71.92824093500772L47.64,71.40811077753703L47.760000000000005,76.41318194071451L48.269999999999996,74.07446241378784L48.375,73.67379601796469L48.78,75.34803295135498L48.81,79.52835496266682L48.855,76.22598234812418L48.915,77.04852771759033L49.004999999999995,75.32546059290569L49.065,77.92044719060262L49.47,75.46246083577473L49.875,77.99150276184082L50.175000000000004,78.46014881134033L50.625,79.3602204322815L50.64,77.71198813120525L51.255,78.94360240300496L51.585,85.74319950739542L51.855000000000004,80.79610188802083L51.87,80.55701494216919L52.41,84.10769287745157L52.53,85.76671902338664L52.65,80.47721926371256L52.695,82.71727498372397L53.22,80.00750414530437L53.265,85.90655136108398L53.474999999999994,86.92424869537354L53.52,86.22682189941406L53.595,85.78448057174683L53.775,84.26764059066772L53.94,83.74652576446533L54.405,86.99499479929607L54.525,88.43924125035603L55.05,88.35546000798544L55.275,85.34566529591879L55.529999999999994,90.39988549550375L55.56,88.53391949335735L55.605,89.24442831675212L55.665,88.23208570480347L56.625,90.85219542185465L56.654999999999994,94.60374577840169L56.835,99.84757566452025L57.705,93.70056072870891L57.9,95.16495068868002L58.004999999999995,95.74701182047527L58.48500000000001,92.69439808527628L58.53,94.65496730804443L58.62,99.50238831837972L58.635000000000005,101.5612368583679L59.04,98.72912327448527L59.1,97.56529172261557L59.175000000000004,98.38543637593587L59.400000000000006,97.81743256251018L59.415,98.1778400739034L59.684999999999995,96.5499857266744L61.05,103.94280354181926L61.184999999999995,105.82018232345581L61.335,108.20671923955283L61.49999999999999,98.10618432362874L61.724999999999994,100.44227806727092L61.785,107.32383712132771L62.91,103.92788346608481L63.135,104.46237103144328L63.224999999999994,101.79980802536012L63.585,103.46452649434408L63.66,100.53026056289674L64.785,104.49448998769124L65.385,109.71126492818196L65.91,108.0490878423055L66.53999999999999,108.48004452387492L66.615,108.33025296529134L66.81,109.2059048016866L66.92999999999999,105.83984756469727L66.975,112.98742659886678L67.275,110.61848243077596L67.545,109.76305850346884L67.755,111.70696338017783L67.785,112.5980323155721L67.95,113.33998489379883L68.655,114.48005310694377L68.67,112.91455173492433L68.985,112.21601835886638L69.405,115.01135222117107L69.525,119.90107647577922L69.645,111.64158137639363L70.05,115.35983117421468L70.11,116.36080789566039L70.215,116.22788699467976L70.25999999999999,111.26302782694498L70.395,114.5614054997762L70.62,115.3941257794698L70.755,113.7100609143575L71.01,115.10058196385701L71.085,114.26029380162556L71.1,115.4627618789673L71.295,114.71917756398518L71.31,109.30081748962401L71.325,117.17715454101562L71.475,113.54626830418904L71.52,115.26820071538289L71.77499999999999,114.85904741287233L72.18,116.71809260050456L72.51,113.54505856831868L72.66,110.61550029118857L72.91499999999999,114.27144400278728L72.93,118.51626650492351L73.815,115.54103835423787L74.28,117.4937114715576L74.325,116.49900849660237L74.42999999999999,115.60999329884847L74.475,116.43346707026163L74.595,124.10202026367188L75.285,119.07539892196655L75.50999999999999,116.95037126541138L75.70500000000001,118.37710936864218L76.24499999999999,119.81390984853108L76.25999999999999,118.5225027402242L76.545,118.01669247945149L76.55999999999999,122.3135430018107L76.57499999999999,116.46097215016684L76.785,116.93835830688475L76.8,117.60707028706868L76.815,123.35413153966267L76.92,121.77504173914592L77.175,119.58234389623007L77.595,120.10624392827351L77.88,122.95750697453818L77.985,114.01565519968668L78.06,121.5538476308187L78.25500000000001,119.11135339736938L78.3,119.21784766515096L78.615,117.68324613571168L78.975,117.85937054951985L79.02000000000001,119.78881486256917L79.58999999999999,117.86584122975667L80.10000000000001,116.00193834304808L80.33999999999999,120.8923659324646L80.61,118.10095198949179L80.77499999999999,119.09666776657104L81.06,123.73825550079346L81.27,124.14496119817098L81.915,121.47453959782918L82.245,128.82512919108075L82.26,118.64072863260905L82.36500000000001,118.62473948796591L82.395,120.89529180526732L82.5,124.11246713002522L82.89,126.42262188593547L83.49,119.95060062408446L83.535,122.3529109954834L83.64,119.2961147626241L83.82,121.8970093727112L84.00000000000001,120.75431537628175L84.19500000000001,126.63108094533284L84.21000000000001,119.93374872207642L84.24,130.3491244316101L84.81,122.25754817326863L84.855,122.46418793996176L84.88499999999999,128.32861232757568L84.915,121.98605155944826L84.96000000000001,123.64519961675009L85.02,123.97179079055786L85.06500000000001,126.52984762191771L85.35,123.5199309984843L85.68,126.46558157602946L85.755,124.68242152531941L86.31,127.00087563196817L86.41499999999999,127.44583336512247L86.44500000000001,127.55818875630696L86.73,125.75285959243773L87.72,118.34853521982829L87.75,119.55024369557698L88.035,125.55321566263835L88.52999999999999,124.11599318186441L88.66499999999999,124.00784842173259L88.72500000000001,125.36146783828737L88.815,123.53807703653972L88.995,125.59375588099161L89.04,123.58475971221925L89.49000000000001,128.7169469197591L89.625,125.63063875834146L89.71499999999999,128.83929904301962L90.17999999999999,121.759015083313L90.21000000000001,125.07046540578207L90.345,128.28857851028442L90.51,127.49007781346639L90.6,129.16290807724L90.705,122.1839230855306L91.26,130.48146390914917L91.635,126.62400070826213L91.72500000000001,122.09685023625691L91.815,128.3200503985087L91.86000000000001,127.32919232050577L92.19000000000001,125.4487845102946L92.715,125.05966218312582L92.88,124.1767988204956L93.405,129.17622454961142L93.735,128.55156008402506L93.855,126.9532551765442L94.77000000000001,126.29887247085571L94.92,127.15839449564616L95.00999999999999,136.36440006891885L95.925,128.19701369603476L96.52499999999999,127.44640541076662L96.645,130.64295895894367L96.81,127.27140633265178L96.99,129.9761225382487L97.875,125.98156531651816L98.02499999999999,130.5455330212911L98.08500000000001,127.08779843648276L98.46,126.96953503290813L98.52000000000001,130.6252818107605L98.61,130.58578252792358L99.135,126.64227803548177L99.18,124.82710218429565L99.73500000000001,134.2307260831197L99.885,132.8186642328898L100.28999999999999,131.61092583338421L100.35000000000001,132.37938006718954L100.38,130.50453329086304L100.47,131.5626489321391L100.60499999999999,132.5479647318522L100.95,132.06696812311807L101.05499999999999,133.66551685333252L101.38499999999999,135.90772008895874L101.58,131.8603564898173L101.64,129.91629219055176L101.655,133.94928900400797L102.10499999999999,131.68790817260742L102.45,133.53439648946127L102.48,127.91066265106201L102.525,127.89360443751018L102.53999999999999,133.7089360555013L102.66,128.8035133679708L103.23,129.2477583885193L103.425,132.93801546096802L103.64999999999999,131.55719105402628L103.93499999999999,133.54999176661173L104.1,128.94389899571735L104.235,134.7015946706136L104.69999999999999,123.74042177200316L104.86500000000001,128.3129045168559L105.345,131.72735118865967L105.705,128.85984579722086L105.99,133.05331548055014L106.185,130.58515421549478L106.19999999999999,133.60791842142743L106.32,131.96929836273193L106.35,135.4677325884501L106.97999999999999,133.55256128311157L107.04,131.98722871144614L107.1,129.98200241724652L107.265,132.12642335891724L107.31,133.86259126663208L107.325,128.35044384002686L107.805,132.3204312324524L107.97,136.8694788614909L108,131.7660346031189L108.075,131.0376704533895L108.105,129.0566670099894L108.27,131.2879169782003L108.375,137.37475458780924L108.57,135.90375328063965L108.79499999999999,138.09024771054587L108.92999999999999,137.44020223617554L108.97500000000001,137.42276891072592L109.42500000000001,134.92508633931476L109.77,126.03543138504027L109.785,133.37011623382568L109.83,131.00712696711224L109.86000000000001,130.5156741142273L109.92,134.19094546635947L110.01,130.6451908747355L110.42999999999999,132.11720498402914L110.55,137.28190501530966L110.895,130.9567869504293L111.04499999999999,134.0691466331482L111.67500000000001,126.11792786916097L111.80999999999999,132.0715913772583L111.885,131.34818808237713L112.55999999999999,136.4138210614522L112.635,126.93632825215657L112.815,135.2523808479309L113.50500000000001,132.48307037353516L114.05999999999999,133.91671991348267L115.00500000000001,132.308465162913L115.95,134.2315231959025L116.37,132.4373067220052L116.715,132.94140084584555L117.48,137.86120907465616L117.99,134.1893137296041L118.185,135.54112323125202L118.23,136.0571271578471L119.22,131.30427185694376L119.33999999999999,132.84278392791748L119.46,135.14815600713092L119.715,132.75483894348145L119.85000000000001,135.83464829126996L119.955,141.04864740371704L120.045,137.34798097610474L120.13499999999999,138.3575571378072L120.675,139.09294525782266L120.795,133.28641001383463L121.16999999999999,136.62039518356323L121.18499999999999,134.71826839447021L121.665,134.04573027292886L121.69500000000001,139.72754549980164L121.995,134.86303345362347L122.07,136.5153169631958L122.1,130.9652363459269L122.13000000000001,139.98653213183084L122.52,137.55199495951334L123.375,139.72969301541644L123.64500000000001,137.9144468307495L124.185,131.75233364105225L124.21499999999999,140.62950205802917L124.5,134.66628726323447L124.98,141.16929745674133L125.01,133.8896649678548L125.205,137.5682841936747L125.37,138.77685252825418L125.38499999999999,142.6380902926127L125.46000000000001,137.34687439600626L125.535,137.22947374979654L126.09,141.65086142222086L126.36,139.62133725484213L126.64500000000001,136.89252010981244L126.88499999999999,142.16342838605246L127.09500000000001,135.20853026707968L127.365,133.50375922520956L127.41000000000001,139.07505242029825L127.92,137.62622960408527L127.96499999999999,140.51524766286212L128.19,132.73014720280966L128.265,137.57110691070557L128.46,133.19709587097168L128.535,136.05944347381592L128.775,142.01711599032083L128.85,133.8431979815165L128.925,138.37128154436746L128.985,138.27192378044128L129.225,137.19607003529867L129.735,140.28635907173157L130.095,134.99650764465332L130.725,135.19543886184692L130.8,142.40771532058716L130.95,140.27818163235983L131.01,141.12310242652893L131.25,133.2570106188456L131.415,135.60612074534097L131.775,136.67791859308878L132.03,138.77581159273782L132.315,134.37835137049356L132.63,135.4392334620158L132.75,142.69609665870667L132.885,140.31471753120422L133.125,136.47705554962158L133.73999999999998,145.40457804997763L133.785,134.1641437212626L133.95,139.93030754725137L134.055,141.21268383661905L134.625,134.55620129903158L134.865,140.20788097381592L134.94,139.4538779258728L134.97,137.34492381413776L135.27,138.62545267740884L135.435,139.09634939829508L135.66,138.26654092470804L135.81,145.01703119277954L136.755,136.4721040725708L136.8,134.68058840433756L136.89,135.57996606826782L137.46,135.51559686660767L137.655,137.2455941836039L137.67,137.28673458099365L137.70000000000002,141.32600514094034L138.105,141.38577453295392L138.375,133.80328607559204L138.79500000000002,143.17113367716473L139.11,138.98722465833026L139.62,136.94613297780353L140.01,138.8238024711609L140.07,137.0240249633789L140.29500000000002,139.83898655573526L140.37,140.02571256955466L140.505,142.50960040092468L140.775,141.71968976656595L141.36,142.64360443751016L141.525,137.16097831726074L141.54,138.59050631523132L141.96,142.924009958903L142.02,138.42800315221152L142.04999999999998,144.38658531506857L142.23000000000002,140.5056025981903L142.59,140.08802803357443L142.77,138.50526682535806L142.89,140.7301023801168L142.98000000000002,138.47126762072247L143.145,141.21706326802573L143.265,143.84439857800803L143.29500000000002,139.6112936337789L143.385,136.6875120798747L143.895,139.97556948661804L144.03,137.7801239490509L144.06,142.75365289052328L144.105,142.46297399202984L144.57,139.69777099291485L144.66,138.93952449162802L144.9,136.13278722763062L145.905,143.88926196098328L145.95,145.57121213277182L146.34,141.32843399047852L146.415,135.17697397867838L146.91,142.40383760134378L146.925,140.51705288887024L147.315,138.54275457064313L147.57,143.09783212343854L147.63,141.99187564849854L147.75,134.4006142616272L147.82500000000002,135.8434352874756L147.84,146.6804273923238L147.93,137.49667533238727L148.23,148.97290968894958L148.425,145.65933060646057L148.515,136.18129857381183L148.89000000000001,141.49012128512064L148.935,142.82045563062033L149.79000000000002,137.41538858413696L150.48000000000002,139.8272736867269L150.69,138.4598548412323L150.81,145.4280553658803L151.155,139.732436021169L151.17000000000002,140.1646868387858L151.44,140.7432500521342L151.82999999999998,139.57935285568237L152.16,145.36200753847757L152.445,143.5625254313151L152.46,141.2108645439148L152.88000000000002,144.8441092967987L153.24,142.6025765736898L153.435,143.05805150667825L153.82500000000002,148.28949801127118L154.155,142.54944197336835L154.245,144.2532377243042L154.36499999999998,141.61900504430136L154.44,140.07104953130084L155.23499999999999,139.9335850874583L155.27999999999997,142.90112813313803L155.445,136.29112195968628L155.655,142.67576559384662L155.955,145.8726754983266L156.165,140.68966062863666L156.24,143.47068866093952L156.85500000000002,141.81185475985208L157.36499999999998,145.51444832483926L157.56,140.99023310343426L157.815,141.95311721165976L157.95,139.99499090512595L158.22,144.02099188168845L158.30999999999997,144.59104943275452L158.445,142.4824985663096L159.09,144.5956398646037L159.27,148.11059776941934L159.3,148.0684445699056L159.405,143.88684248924255L159.88500000000002,138.598060131073L159.945,144.82604297002158L160.41,144.4935766061147L160.5,137.23830763498944L160.77,141.76797604560852L160.86,144.29764159520465L161.28,135.90640719731647L161.30999999999997,143.8591967423757L161.64,146.6049595673879L161.67000000000002,144.31025473276773L161.82,140.39587767918906L161.985,139.86560074488324L162.345,138.30953812599182L162.49499999999998,139.98144936561584L162.975,141.34633620580036L163.04999999999998,142.78049683570862L163.15499999999997,145.93792621294656L163.32,144.84753688176474L163.41,144.7933144569397L163.755,140.11347937583923L163.815,140.67569239934284L164.775,146.081134557724L164.85,141.56963094075522L165.09,147.21568393707275L165.495,143.9340268770854L165.73499999999999,145.27033019065857L165.86999999999998,141.96342809995014L166.05,144.75032194455463L166.755,145.00101391474408L166.81500000000003,144.2705397605896L167.28,143.61930799484253L167.85,141.91552631060281L167.89499999999998,142.74560205141702L168.04500000000002,144.2176911830902L168.18,149.8315455118815L168.33,143.7413365840912L168.39000000000001,144.71159164110819L168.78,148.71644568443298L169.365,144.50793401400247L169.54500000000002,146.94271500905356L169.57500000000002,144.5436352888743L169.68,144.67624672253928L169.845,148.09684991836548L169.905,142.46688922246298L169.995,149.13890139261883L170.04,144.09085178375244L170.175,145.22342244784036L170.28,142.50521628061932L170.385,144.8760688304901L170.47500000000002,144.70764827728271L170.49,148.19740335146585L170.57999999999998,148.69440786043805L170.655,143.56358043352762L170.805,146.80226842562357L171.26999999999998,144.38605546951294L171.61499999999998,141.37721729278564L171.645,147.44240156809488L171.84,147.0674912929535L172.08,143.68003861109415L172.32,142.17634161313376L172.335,143.35111236572266L172.35,142.5430275599162L173.07,144.49350158373514L173.205,142.37514623006186L173.34,148.36488143603006L173.49,143.74605830510458L173.895,146.22441792488098L174.015,145.42517638206482L174.10500000000002,143.26367847124737L174.29999999999998,148.54415678977966L175.065,144.48772486050925L175.08,142.55664881070456L175.125,146.2119032541911L175.38,143.07299971580505L175.56,144.00848189989725L175.57500000000002,144.1310919125875L175.68,147.11014620463052L176.04,141.8533280690511L176.07,145.68322054545087L176.29500000000002,145.52546723683676L176.31,141.64672581354776L176.58,146.90279841423035L176.82000000000002,146.71495644251505L176.97,147.21761107444763L177.195,143.42139895757037L177.35999999999999,150.92287731170654L177.555,145.9647842248281L177.75,139.43685253461203L178.00500000000002,146.69681509335837L178.11,146.36829678217572L178.41,145.75896970431012L178.55999999999997,143.55556241671243L178.74,143.62157742182416L178.755,140.86118054389954L179.22,144.56096076965332L179.235,142.74015355110168L179.25,147.94477955500284L179.4,147.31466190020242L179.595,142.2302311261495L179.685,147.24590857823688L179.805,144.35470549265543L179.895,145.95577216148376L180.945,142.41968139012656L181.35000000000002,151.2198580900828L181.815,143.92687161763507L181.89,144.410573720932L182.07,143.81238746643066L182.835,149.0906901359558L182.865,147.1701922416687L183.12,144.5066773891449L183.225,138.93595155080158L183.375,148.13988931973776L184.03500000000003,146.19452619552612L184.2,139.78339966138205L184.44,143.68660775820416L185.13,145.48573819796243L185.17499999999998,146.71158043543497L185.19,149.57637564341226L185.925,146.77446325620016L186.67499999999998,145.34917402267456L186.76500000000001,145.2591284116109L186.78,146.64037481943765L186.87,146.4172254403432L187.515,144.5026074250539L187.77,144.49360942840576L188.26500000000001,140.0412797133128L188.415,150.07701873779297L188.595,144.87632671991983L188.715,148.44972236951193L188.94,146.53819433848065L189.21,148.34134785334268L189.495,143.61335309346518L189.645,148.05950284004211L189.67499999999998,146.67547122637433L190.605,146.93907642364502L190.755,146.59711035092673L190.85999999999999,148.21943179766336L190.935,147.403830687205L191.17499999999998,145.66070914268494L191.27999999999997,143.98971692721048L191.475,143.44632983207703L191.565,145.55752992630005L192.135,147.3691234588623L192.63,149.77962064743042L193.455,146.60134442647296L193.51500000000001,145.6746445496877L194.64000000000001,148.36260732014972L195.33,150.7272142569224L195.345,148.47538940111798L195.42,152.26319432258606L195.54000000000002,149.58766182263693L195.80999999999997,148.62375084559122L196.41,145.34711559613544L196.77,144.3490928808848L196.86,147.113076766332L196.875,153.16532437006632L196.99499999999998,143.14390993118286L197.38500000000002,144.85184597969055L197.54999999999998,148.79258402188617L198.12,147.53129371007284L198.17999999999998,150.66696190834045L198.27,147.5278848807017L198.375,143.0739140510559L198.39,147.4480094909668L198.57000000000002,150.43703707059223L198.83999999999997,146.33452733357748L199.26,147.31068571408588L199.42499999999998,148.48622544606528L199.95,145.8508768081665L199.965,146.96652523676556L200.085,152.62612446149188L200.265,150.0111162662506L200.46,144.29976097742716L200.91,148.31272681554157L201.06,150.3770613670349L201.135,149.2995055516561L201.645,152.3420475323995L201.72,152.02425742149353L201.75,148.26085821787515L201.87,147.12107133865356L201.91500000000002,148.79632576306662L201.94500000000002,147.8627285162608L202.35,148.73794428507486L202.54500000000002,148.37100513776141L202.89000000000001,150.73023390769958L202.905,145.13405672709146L203.33999999999997,142.45793342590332L203.55,149.24803082148236L203.67,150.49648292859396L204.165,147.1925489107768L204.645,146.8837474187215L205.44,151.79836503664652L205.695,151.25115648905435L206.04,148.44297035535178L206.25,149.53334093093872L206.34,150.71661734580994L206.47500000000002,147.36276062329608L206.76000000000002,144.8942758242289L206.79000000000002,146.26576463381448L207.255,148.64140454928082L207.285,148.98609018325806L207.345,149.82166600227356L207.54,152.7799109617869L207.66000000000003,141.8737576007843L207.705,148.70212109883627L207.765,148.91386238733926L208.005,150.99466904004413L208.14,147.67942070960999L208.23000000000002,147.80199790000916L208.785,152.40778589248657L208.86,146.9229700565338L209.11499999999998,151.12305108706155L209.325,145.0921098391215L209.34,145.79472255706787L209.55,149.2670255502065L209.58,147.76068870226544L209.655,145.25236701965332L209.92499999999998,149.1610095500946L210.18,152.2588758468628L210.405,148.49132227897644L210.855,152.81473541259766L210.94500000000002,146.51022505760193L211.02,147.78418946266174L211.14,148.45111966133118L212.025,152.10663668314615L212.34,141.5405081907908L212.52,145.88218927383423L212.625,148.04241180419922L212.685,147.12318603197733L213.15,146.14387202262878L213.525,152.26768159866333L213.57,148.2493797938029L213.69000000000003,147.09884595870972L213.92999999999998,148.31825033823648L214.065,147.10505406061807L214.53,152.74657758076987L214.55999999999997,148.71838219960532L214.62,150.7906316121419L214.74,147.65379587809247L214.755,148.27964663505554L215.175,150.22638829549155L215.31,149.66495831807455L215.385,148.48978900909424L215.49,148.69471263885498L215.55,152.27569961547852L215.91,152.45815404256186L215.97,149.30666081110635L216,149.79844188690186L216.315,146.90546639760336L216.32999999999998,141.565514087677L216.345,148.72070789337158L216.555,149.69833858807883L216.64499999999998,152.4676115512848L216.735,147.37495644887287L217.14,148.62097970644635L217.17,153.44807902971905L217.2,152.7353101571401L217.82999999999998,148.1865719954173L218.31,146.85330708821616L219.015,151.6216685771942L219.63,153.40691049893695L219.72000000000003,148.08640305201212L219.79500000000002,151.1850242614746L220.185,149.3104306856791L220.62,148.90335456530252L220.90499999999997,152.81118591626486L221.73,145.08060328165692L221.865,150.39498233795166L222.70499999999998,152.11219302813214L222.87,153.3447872797648L223.515,147.6324144999186L223.575,151.72819566726685L223.82999999999998,150.3474134604136L224.16,150.17180013656616L224.58,149.77483797073364L224.64000000000001,151.792818069458L224.67000000000002,152.69019826253256L224.715,147.78292814890546L224.955,150.35768683751425L225.14999999999998,151.09266233444214L225.27,152.8049637476603L225.35999999999999,151.64484580357868L225.42,150.4850467046102L225.54000000000002,152.15944306055704L225.555,152.1003254254659L225.615,149.08754388491315L225.70499999999998,157.71039581298828L225.72,148.19512923558554L226.32,146.02465677261353L226.38000000000002,146.541734457016L227.82,149.1636728445689L227.97,142.66696921984357L228.14999999999998,151.80620956420898L228.405,153.50624950726825L228.51000000000002,150.2615081469218L228.645,150.91013757387796L228.75,147.96104065577188L228.915,151.7429469426473L229.425,148.70777122179666L229.56,154.87771487236023L230.23499999999999,152.01411533355713L230.82,150.2442483107249L231.03,152.59335374832153L231.27,148.4585796991984L231.82500000000002,148.56340940793356L232.38,149.16935578982034L232.83,150.8825340270996L232.96499999999997,151.93842244148254L232.98,149.63165775934854L233.25,155.2108142375946L233.37,151.67630831400555L233.64000000000001,149.40009180704752L233.82,148.9280838171641L233.88,145.8294626077016L234.345,149.3319480419159L234.63,152.46409956614178L234.66,149.2805483341217L234.69,148.98971939086914L234.70499999999998,151.1424349943797L234.9,150.3993570804596L235.53,152.14231451352438L235.74,150.76423780123395L236.04000000000002,143.12189555168152L236.38500000000002,153.39923477172852L236.715,152.80867266654968L237.03,154.34715191523236L237.465,151.86751691500348L237.73499999999999,157.99284569422403L238.005,149.0765577952067L238.10999999999999,148.6029977798462L238.35,156.49698853492737L238.57500000000002,150.94516364733377L238.73999999999998,150.8165987332662L238.95,150.3636042277018L239.565,148.1353410879771L239.70000000000002,150.33467841148376L240.09,149.80102078119916L240.52499999999998,157.4073007106781L240.69,149.30273620287576L241.245,154.4848414262136L241.53,147.89481465021768L241.695,154.87647700309753L241.73999999999998,152.51574309666952L241.905,149.74067934354147L241.995,152.78214756647745L242.08499999999998,153.93543378512064L242.10000000000002,157.44632172584534L242.36999999999998,148.62434633572897L242.655,150.58546415964761L242.715,152.680464108785L242.82,148.22752952575684L242.91,151.92951353391013L243.09,148.8953646818797L243.135,149.77780604362488L243.255,152.50537594159445L243.345,151.9050093491872L243.36,151.8289319674174L243.86999999999998,153.26410071055093L243.97500000000002,153.3361737728119L244.51500000000001,146.16586764653525L245.115,152.32939688364667L245.235,149.11792794863385L245.31,145.7257113456726L245.41500000000002,147.50742252667743L245.49,149.61494652430216L245.505,152.78083936373392L245.625,153.07130257288614L245.82,152.35335246721903L245.98499999999999,156.75461538632712L245.99999999999997,147.16152715682983L246.07500000000002,146.7705855369568L246.285,154.56517163912454L246.405,153.78771940867105L246.42000000000002,154.55150818824768L246.54,152.7500473658244L247.41,156.59036795298258L247.44,145.58351111412048L248.025,147.21047457059225L248.04,146.0121796131134L248.22,150.528887907664L248.655,152.1877780755361L249.34500000000003,145.8308880329132L249.675,150.20156057675678L250.82999999999998,148.45343128840128L251.04,148.8941971460978L251.175,151.50768613815308L251.39999999999998,152.56547355651855L251.655,149.81364329655966L251.775,150.05952914555868L252.15,148.66136519114178L252.285,150.76840154329935L252.6,152.0479551156362L252.76500000000001,148.26157093048096L252.95999999999998,150.21620869636536L253.02,152.19400962193808L253.48499999999999,145.29006576538086L253.55999999999997,155.71005535125732L253.65,146.86750507354736L253.815,151.9249934355418L253.87499999999997,149.5950702826182L254.1,147.6510388056437L254.31,150.29153116544086L254.74499999999998,150.4944760799408L255.285,155.4066367149353L255.975,149.6436144510905L255.98999999999998,154.23415414492288L256.05,145.88464625676474L256.46999999999997,153.81766271591187L256.65000000000003,150.9435928662618L256.8,147.88124028841654L256.86,152.61285956700644L257.07,151.83567929267883L257.295,150.28890069325766L257.64,152.49059184392294L257.775,151.9506510893504L257.985,151.76166502634683L258.10499999999996,151.75667603810626L259.77,153.43592540423077L260.01,151.48899149894714L260.21999999999997,156.1590971151988L260.43,153.02479807535806L260.565,156.36052282651266L261,150.0947240193685L261.15000000000003,149.9217505455017L261.285,157.33900690078735L261.52500000000003,152.21592084566754L261.615,154.89552330970764L261.84000000000003,150.1098832289378L261.93,150.05774267514545L261.945,147.4386035601298L262.35,154.97253847122192L262.38,154.99950901667276L262.5,155.7006634871165L262.935,153.6290283203125L264.15,155.39143999417624L264.495,152.1433882713318L264.57,154.07314674059552L265.02,151.74785621960956L265.5,151.91900102297467L265.68,150.16133920351663L265.83,150.85908484458923L266.235,149.61672361691794L266.4,149.50883674621582L266.745,150.19697483380637L266.84999999999997,152.91873987515766L266.89500000000004,154.75211803118387L267.015,154.05990997950235L267.09,149.28944786389667L267.21000000000004,156.72737757364908L267.3,153.20960632960004L267.465,153.01607672373456L268.095,153.56459347407025L268.125,154.6559956073761L268.815,154.14297382036844L268.83,151.8079960346222L269.19,152.05504473050436L269.43,147.8503873348236L269.7,152.15324902534485L270.03000000000003,153.0215721130371" style="fill: none;" fill="none"></path></g></g></g></g></g></g><g transform="translate(30, 177)" clip-path="url(#clip_1)"><clipPath id="clip_1"><rect width="300" height="22"></rect></clipPath><g><g><line x1="0" y1="0" x2="0" y2="5" style="visibility: inherit;" fill="rgb(0, 0, 0)" stroke="rgb(204, 204, 204)" stroke-width="1px"></line><line x1="30" y1="0" x2="30" y2="5" style="visibility: inherit;" fill="rgb(0, 0, 0)" stroke="rgb(204, 204, 204)" stroke-width="1px"></line><line x1="60" y1="0" x2="60" y2="5" style="visibility: inherit;" fill="rgb(0, 0, 0)" stroke="rgb(204, 204, 204)" stroke-width="1px"></line><line x1="90" y1="0" x2="90" y2="5" style="visibility: inherit;" fill="rgb(0, 0, 0)" stroke="rgb(204, 204, 204)" stroke-width="1px"></line><line x1="120" y1="0" x2="120" y2="5" style="visibility: inherit;" fill="rgb(0, 0, 0)" stroke="rgb(204, 204, 204)" stroke-width="1px"></line><line x1="150" y1="0" x2="150" y2="5" style="visibility: inherit;" fill="rgb(0, 0, 0)" stroke="rgb(204, 204, 204)" stroke-width="1px"></line><line x1="180" y1="0" x2="180" y2="5" style="visibility: inherit;" fill="rgb(0, 0, 0)" stroke="rgb(204, 204, 204)" stroke-width="1px"></line><line x1="210" y1="0" x2="210" y2="5" style="visibility: inherit;" fill="rgb(0, 0, 0)" stroke="rgb(204, 204, 204)" stroke-width="1px"></line><line x1="240" y1="0" x2="240" y2="5" style="visibility: inherit;" fill="rgb(0, 0, 0)" stroke="rgb(204, 204, 204)" stroke-width="1px"></line><line x1="270" y1="0" x2="270" y2="5" style="visibility: inherit;" fill="rgb(0, 0, 0)" stroke="rgb(204, 204, 204)" stroke-width="1px"></line><line x1="300" y1="0" x2="300" y2="5" style="visibility: inherit;" fill="rgb(0, 0, 0)" stroke="rgb(204, 204, 204)" stroke-width="1px"></line></g><g transform="translate(0, 8)"><text x="0" y="0" dx="0em" dy="0.95em" style="text-anchor: middle; visibility: hidden; font-family: Roboto, sans-serif; font-size: 12px; font-weight: 200;" fill="rgb(33, 33, 33)" stroke="none" stroke-width="1px">-2k</text><text x="30" y="0" dx="0em" dy="0.95em" style="text-anchor: middle; visibility: inherit; font-family: Roboto, sans-serif; font-size: 12px; font-weight: 200;" fill="rgb(33, 33, 33)" stroke="none" stroke-width="1px">0</text><text x="60" y="0" dx="0em" dy="0.95em" style="text-anchor: middle; visibility: inherit; font-family: Roboto, sans-serif; font-size: 12px; font-weight: 200;" fill="rgb(33, 33, 33)" stroke="none" stroke-width="1px">2k</text><text x="90" y="0" dx="0em" dy="0.95em" style="text-anchor: middle; visibility: inherit; font-family: Roboto, sans-serif; font-size: 12px; font-weight: 200;" fill="rgb(33, 33, 33)" stroke="none" stroke-width="1px">4k</text><text x="120" y="0" dx="0em" dy="0.95em" style="text-anchor: middle; visibility: inherit; font-family: Roboto, sans-serif; font-size: 12px; font-weight: 200;" fill="rgb(33, 33, 33)" stroke="none" stroke-width="1px">6k</text><text x="150" y="0" dx="0em" dy="0.95em" style="text-anchor: middle; visibility: inherit; font-family: Roboto, sans-serif; font-size: 12px; font-weight: 200;" fill="rgb(33, 33, 33)" stroke="none" stroke-width="1px">8k</text><text x="180" y="0" dx="0em" dy="0.95em" style="text-anchor: middle; visibility: inherit; font-family: Roboto, sans-serif; font-size: 12px; font-weight: 200;" fill="rgb(33, 33, 33)" stroke="none" stroke-width="1px">10k</text><text x="210" y="0" dx="0em" dy="0.95em" style="text-anchor: middle; visibility: inherit; font-family: Roboto, sans-serif; font-size: 12px; font-weight: 200;" fill="rgb(33, 33, 33)" stroke="none" stroke-width="1px">12k</text><text x="240" y="0" dx="0em" dy="0.95em" style="text-anchor: middle; visibility: inherit; font-family: Roboto, sans-serif; font-size: 12px; font-weight: 200;" fill="rgb(33, 33, 33)" stroke="none" stroke-width="1px">14k</text><text x="270" y="0" dx="0em" dy="0.95em" style="text-anchor: middle; visibility: inherit; font-family: Roboto, sans-serif; font-size: 12px; font-weight: 200;" fill="rgb(33, 33, 33)" stroke="none" stroke-width="1px">16k</text><text x="300" y="0" dx="0em" dy="0.95em" style="text-anchor: middle; visibility: hidden; font-family: Roboto, sans-serif; font-size: 12px; font-weight: 200;" fill="rgb(33, 33, 33)" stroke="none" stroke-width="1px">18k</text></g><line x1="0" y1="0" x2="300" y2="0" fill="rgb(0, 0, 0)" stroke="rgb(204, 204, 204)" stroke-width="1px"></line></g></g></g></g></svg>