<svg viewBox="0 0 330 200" xmlns="http://www.w3.org/2000/svg"><g><g><g><g><g><line x1="70" y1="177" x2="65" y2="177" style="visibility: inherit;" fill="rgb(0, 0, 0)" stroke="rgb(204, 204, 204)" stroke-width="1px"></line><line x1="70" y1="160.9090909090909" x2="65" y2="160.9090909090909" style="visibility: inherit;" fill="rgb(0, 0, 0)" stroke="rgb(204, 204, 204)" stroke-width="1px"></line><line x1="70" y1="144.8181818181818" x2="65" y2="144.8181818181818" style="visibility: inherit;" fill="rgb(0, 0, 0)" stroke="rgb(204, 204, 204)" stroke-width="1px"></line><line x1="70" y1="128.72727272727272" x2="65" y2="128.72727272727272" style="visibility: inherit;" fill="rgb(0, 0, 0)" stroke="rgb(204, 204, 204)" stroke-width="1px"></line><line x1="70" y1="112.63636363636364" x2="65" y2="112.63636363636364" style="visibility: inherit;" fill="rgb(0, 0, 0)" stroke="rgb(204, 204, 204)" stroke-width="1px"></line><line x1="70" y1="96.54545454545453" x2="65" y2="96.54545454545453" style="visibility: inherit;" fill="rgb(0, 0, 0)" stroke="rgb(204, 204, 204)" stroke-width="1px"></line><line x1="70" y1="80.45454545454547" x2="65" y2="80.45454545454547" style="visibility: inherit;" fill="rgb(0, 0, 0)" stroke="rgb(204, 204, 204)" stroke-width="1px"></line><line x1="70" y1="64.36363636363636" x2="65" y2="64.36363636363636" style="visibility: inherit;" fill="rgb(0, 0, 0)" stroke="rgb(204, 204, 204)" stroke-width="1px"></line><line x1="70" y1="48.272727272727266" x2="65" y2="48.272727272727266" style="visibility: inherit;" fill="rgb(0, 0, 0)" stroke="rgb(204, 204, 204)" stroke-width="1px"></line><line x1="70" y1="32.181818181818194" x2="65" y2="32.181818181818194" style="visibility: inherit;" fill="rgb(0, 0, 0)" stroke="rgb(204, 204, 204)" stroke-width="1px"></line><line x1="70" y1="16.090909090909097" x2="65" y2="16.090909090909097" style="visibility: inherit;" fill="rgb(0, 0, 0)" stroke="rgb(204, 204, 204)" stroke-width="1px"></line><line x1="70" y1="0" x2="65" y2="0" style="visibility: inherit;" fill="rgb(0, 0, 0)" stroke="rgb(204, 204, 204)" stroke-width="1px"></line></g><g transform="translate(60, 0)"><text x="0" y="177" dx="0em" dy="0.3em" style="text-anchor: end; visibility: hidden; font-family: Roboto, sans-serif; font-size: 12px; font-weight: 200;" fill="rgb(33, 33, 33)" stroke="none" stroke-width="1px">0</text><text x="0" y="160.9090909090909" dx="0em" dy="0.3em" style="text-anchor: end; visibility: inherit; font-family: Roboto, sans-serif; font-size: 12px; font-weight: 200;" fill="rgb(33, 33, 33)" stroke="none" stroke-width="1px">1e-4</text><text x="0" y="144.8181818181818" dx="0em" dy="0.3em" style="text-anchor: end; visibility: hidden; font-family: Roboto, sans-serif; font-size: 12px; font-weight: 200;" fill="rgb(33, 33, 33)" stroke="none" stroke-width="1px">2e-4</text><text x="0" y="128.72727272727272" dx="0em" dy="0.3em" style="text-anchor: end; visibility: inherit; font-family: Roboto, sans-serif; font-size: 12px; font-weight: 200;" fill="rgb(33, 33, 33)" stroke="none" stroke-width="1px">3e-4</text><text x="0" y="112.63636363636364" dx="0em" dy="0.3em" style="text-anchor: end; visibility: hidden; font-family: Roboto, sans-serif; font-size: 12px; font-weight: 200;" fill="rgb(33, 33, 33)" stroke="none" stroke-width="1px">4e-4</text><text x="0" y="96.54545454545453" dx="0em" dy="0.3em" style="text-anchor: end; visibility: inherit; font-family: Roboto, sans-serif; font-size: 12px; font-weight: 200;" fill="rgb(33, 33, 33)" stroke="none" stroke-width="1px">5e-4</text><text x="0" y="80.45454545454547" dx="0em" dy="0.3em" style="text-anchor: end; visibility: hidden; font-family: Roboto, sans-serif; font-size: 12px; font-weight: 200;" fill="rgb(33, 33, 33)" stroke="none" stroke-width="1px">6e-4</text><text x="0" y="64.36363636363636" dx="0em" dy="0.3em" style="text-anchor: end; visibility: inherit; font-family: Roboto, sans-serif; font-size: 12px; font-weight: 200;" fill="rgb(33, 33, 33)" stroke="none" stroke-width="1px">7e-4</text><text x="0" y="48.272727272727266" dx="0em" dy="0.3em" style="text-anchor: end; visibility: hidden; font-family: Roboto, sans-serif; font-size: 12px; font-weight: 200;" fill="rgb(33, 33, 33)" stroke="none" stroke-width="1px">8e-4</text><text x="0" y="32.181818181818194" dx="0em" dy="0.3em" style="text-anchor: end; visibility: inherit; font-family: Roboto, sans-serif; font-size: 12px; font-weight: 200;" fill="rgb(33, 33, 33)" stroke="none" stroke-width="1px">9e-4</text><text x="0" y="16.090909090909097" dx="0em" dy="0.3em" style="text-anchor: end; visibility: hidden; font-family: Roboto, sans-serif; font-size: 12px; font-weight: 200;" fill="rgb(33, 33, 33)" stroke="none" stroke-width="1px">1e-3</text><text x="0" y="0" dx="0em" dy="0.3em" style="text-anchor: end; visibility: hidden; font-family: Roboto, sans-serif; font-size: 12px; font-weight: 200;" fill="rgb(33, 33, 33)" stroke="none" stroke-width="1px">1.1e-3</text></g><line x1="70" y1="0" x2="70" y2="177" fill="rgb(0, 0, 0)" stroke="rgb(204, 204, 204)" stroke-width="1px"></line></g></g><g transform="translate(70, 0)" clip-path="url(#clip_0)"><clipPath id="clip_0"><rect width="260" height="176"></rect></clipPath><g><g><g><line x1="0" y1="0" x2="0" y2="177" fill="rgb(0, 0, 0)" stroke="rgb(66, 66, 66)" stroke-width="1px" opacity="0.25"></line><line x1="17.333333333333332" y1="0" x2="17.333333333333332" y2="177" fill="rgb(0, 0, 0)" stroke="rgb(66, 66, 66)" stroke-width="1px" opacity="0.25"></line><line x1="34.666666666666664" y1="0" x2="34.666666666666664" y2="177" fill="rgb(0, 0, 0)" stroke="rgb(66, 66, 66)" stroke-width="1px" opacity="0.25"></line><line x1="52" y1="0" x2="52" y2="177" fill="rgb(0, 0, 0)" stroke="rgb(66, 66, 66)" stroke-width="1px" opacity="0.25"></line><line x1="69.33333333333333" y1="0" x2="69.33333333333333" y2="177" fill="rgb(0, 0, 0)" stroke="rgb(66, 66, 66)" stroke-width="1px" opacity="0.25"></line><line x1="86.66666666666666" y1="0" x2="86.66666666666666" y2="177" fill="rgb(0, 0, 0)" stroke="rgb(66, 66, 66)" stroke-width="1px" opacity="0.25"></line><line x1="104" y1="0" x2="104" y2="177" fill="rgb(0, 0, 0)" stroke="rgb(66, 66, 66)" stroke-width="1px" opacity="0.25"></line><line x1="121.33333333333333" y1="0" x2="121.33333333333333" y2="177" fill="rgb(0, 0, 0)" stroke="rgb(66, 66, 66)" stroke-width="1px" opacity="0.25"></line><line x1="138.66666666666666" y1="0" x2="138.66666666666666" y2="177" fill="rgb(0, 0, 0)" stroke="rgb(66, 66, 66)" stroke-width="1px" opacity="0.25"></line><line x1="156" y1="0" x2="156" y2="177" fill="rgb(0, 0, 0)" stroke="rgb(66, 66, 66)" stroke-width="1px" opacity="0.25"></line><line x1="173.33333333333331" y1="0" x2="173.33333333333331" y2="177" fill="rgb(0, 0, 0)" stroke="rgb(66, 66, 66)" stroke-width="1px" opacity="0.25"></line><line x1="190.66666666666666" y1="0" x2="190.66666666666666" y2="177" fill="rgb(0, 0, 0)" stroke="rgb(66, 66, 66)" stroke-width="1px" opacity="0.25"></line><line x1="208" y1="0" x2="208" y2="177" fill="rgb(0, 0, 0)" stroke="rgb(66, 66, 66)" stroke-width="1px" opacity="0.25"></line><line x1="225.33333333333334" y1="0" x2="225.33333333333334" y2="177" fill="rgb(0, 0, 0)" stroke="rgb(66, 66, 66)" stroke-width="1px" opacity="0.25"></line><line x1="242.66666666666666" y1="0" x2="242.66666666666666" y2="177" fill="rgb(0, 0, 0)" stroke="rgb(66, 66, 66)" stroke-width="1px" opacity="0.25"></line><line x1="260" y1="0" x2="260" y2="177" fill="rgb(0, 0, 0)" stroke="rgb(66, 66, 66)" stroke-width="1px" opacity="0.25"></line></g><g><line x1="0" y1="177" x2="260" y2="177" fill="rgb(0, 0, 0)" stroke="rgb(66, 66, 66)" stroke-width="1px" opacity="0.25"></line><line x1="0" y1="160.9090909090909" x2="260" y2="160.9090909090909" fill="rgb(0, 0, 0)" stroke="rgb(66, 66, 66)" stroke-width="1px" opacity="0.25"></line><line x1="0" y1="144.8181818181818" x2="260" y2="144.8181818181818" fill="rgb(0, 0, 0)" stroke="rgb(66, 66, 66)" stroke-width="1px" opacity="0.25"></line><line x1="0" y1="128.72727272727272" x2="260" y2="128.72727272727272" fill="rgb(0, 0, 0)" stroke="rgb(66, 66, 66)" stroke-width="1px" opacity="0.25"></line><line x1="0" y1="112.63636363636364" x2="260" y2="112.63636363636364" fill="rgb(0, 0, 0)" stroke="rgb(66, 66, 66)" stroke-width="1px" opacity="0.25"></line><line x1="0" y1="96.54545454545453" x2="260" y2="96.54545454545453" fill="rgb(0, 0, 0)" stroke="rgb(66, 66, 66)" stroke-width="1px" opacity="0.25"></line><line x1="0" y1="80.45454545454547" x2="260" y2="80.45454545454547" fill="rgb(0, 0, 0)" stroke="rgb(66, 66, 66)" stroke-width="1px" opacity="0.25"></line><line x1="0" y1="64.36363636363636" x2="260" y2="64.36363636363636" fill="rgb(0, 0, 0)" stroke="rgb(66, 66, 66)" stroke-width="1px" opacity="0.25"></line><line x1="0" y1="48.272727272727266" x2="260" y2="48.272727272727266" fill="rgb(0, 0, 0)" stroke="rgb(66, 66, 66)" stroke-width="1px" opacity="0.25"></line><line x1="0" y1="32.181818181818194" x2="260" y2="32.181818181818194" fill="rgb(0, 0, 0)" stroke="rgb(66, 66, 66)" stroke-width="1px" opacity="0.25"></line><line x1="0" y1="16.090909090909097" x2="260" y2="16.090909090909097" fill="rgb(0, 0, 0)" stroke="rgb(66, 66, 66)" stroke-width="1px" opacity="0.25"></line><line x1="0" y1="0" x2="260" y2="0" fill="rgb(0, 0, 0)" stroke="rgb(66, 66, 66)" stroke-width="1px" opacity="0.25"></line></g></g></g><g><g><line x1="0" y1="177" x2="260" y2="177" fill="rgb(0, 0, 0)" stroke="rgb(153, 153, 153)" stroke-width="1.5px"></line></g></g><g><g><line x1="17.333333333333332" y1="0" x2="17.333333333333332" y2="177" fill="rgb(0, 0, 0)" stroke="rgb(153, 153, 153)" stroke-width="1.5px"></line></g></g><g><g><g><g><g><path stroke="rgb(255, 112, 67)" stroke-width="2px" d="M17.593333333333334,160.18499957597604L17.68,160.07186097339252L18.200000000000003,159.4830754630912L18.546666666666667,158.89055440174258L18.633333333333333,158.5098171953549L18.893333333333334,158.07339209356746L18.98,157.75044937890632L19.066666666666666,157.48892273019734L19.24,157.1885540118555L19.326666666666668,156.93743172276112L19.586666666666666,156.5697156731806L19.673333333333332,156.27737503885228L20.62666666666667,155.30483637193055L20.8,154.57719481662875L21.406666666666666,153.63387374546429L21.493333333333332,152.99573496993904L21.580000000000002,152.54054597664194L21.753333333333334,152.12264883941816L22.013333333333335,151.65469743004957L22.273333333333333,151.15670890206502L22.533333333333335,150.64069561919143L22.619999999999997,150.25868523548598L22.706666666666667,149.95707200915004L22.793333333333333,149.70369654903627L22.966666666666665,149.40685328170252L23.053333333333335,149.15633903225122L23.14,148.93362103969463L23.226666666666667,148.72758163992935L23.4,148.45913967976747L23.486666666666668,148.22566584531114L24.006666666666668,147.65112647627964L24.18,147.1615845441881L24.44,146.6506323459206L24.7,146.12683398277713L25.046666666666667,145.52291827367458L25.913333333333334,144.4364780443975L26.26,143.49497815298264L26.52,142.71285023086745L26.606666666666666,142.17116477364223L26.779999999999998,141.70133515196483L27.386666666666667,140.91257362953706L27.82,140.07727131481545L28.166666666666668,139.28645323031392L28.25333333333333,138.73955367409314L28.42666666666667,138.26659559248517L28.6,137.83800333223593L28.686666666666667,137.50843833383314L29.12,136.94865299668143L29.206666666666663,136.5403740253582L29.813333333333333,135.78854289314697L29.986666666666665,135.19262492928814L30.073333333333334,134.76266638193522L30.333333333333332,134.28746419994934L30.939999999999998,133.49547914134112L31.2,132.803061052602L31.373333333333335,132.2427909148235L31.546666666666667,131.7618114208496L32.06666666666667,131.03876774408783L32.15333333333333,130.53253376899158L32.24,130.1563837416662L32.5,129.71346667169644L32.67333333333334,129.30289901840766L33.02,128.76692173059223L33.28,128.22810830432846L33.36666666666667,127.83241060630255L33.45333333333333,127.52258234521936L33.800000000000004,127.04704869272727L33.88666666666666,126.68932073219277L33.97333333333333,126.4022743136044L34.58,125.72318271303467L34.84,125.09850069911832L34.92666666666667,124.65128184850084L35.01333333333333,124.3105427690911L35.1,124.03368967917761L35.27333333333333,123.72275854069427L35.620000000000005,123.24656503499043L35.79333333333333,122.81602964703286L35.96666666666667,122.41289100295144L36.31333333333333,121.88137112066038L36.400000000000006,121.49004954901814L36.486666666666665,121.1828488369935L36.74666666666667,120.78129948297583L37.18,120.17832540568376L38.04666666666667,119.0924501563173L38.22,118.29610572216212L38.48,117.60107200809449L38.56666666666667,117.11164401061464L38.653333333333336,116.7455775698591L39.346666666666664,115.94666431372141L39.693333333333335,115.17767966419663L39.78,114.64388110544249L39.86666666666666,114.25119232792238L40.04,113.8707616501034L40.733333333333334,113.06322985172766L40.82,112.50630113043458L41.08,111.95491684408421L41.25333333333334,111.47926886096705L41.42666666666666,111.04906078656151L41.6,110.64611853061126L41.77333333333333,110.25953389250586L41.86,109.95517534060336L42.03333333333333,109.62774092492657L42.20666666666666,109.28646286421362L42.29333333333333,109.00928638551818L42.46666666666667,108.69816308699401L42.9,108.14944276976973L42.986666666666665,107.74780281039588L43.07333333333333,107.4344091925039L43.160000000000004,107.17396337950113L43.85333333333333,106.43842437324345L44.02666666666667,105.85228168495358L44.373333333333335,105.2109593761375L44.72,104.53652929500566L44.89333333333333,103.98705383501967L44.98,103.58495891676043L45.239999999999995,103.12647491223034L46.10666666666667,102.12729370652103L46.54,101.165740518214L46.62666666666667,100.51639896296216L46.8,99.98197661850412L47.059999999999995,99.44409428502642L47.233333333333334,98.97654747363286L47.32,98.62361161775749L47.666666666666664,98.12221153516171L47.839999999999996,97.67655594752571L48.013333333333335,97.26434331040883L48.36,96.72737715906817L48.70666666666666,96.11556264564997L48.79333333333334,95.67606616855979L48.88,95.33995676680965L48.96666666666666,95.06588335672032L49.053333333333335,94.82903154162744L49.14,94.61450893707573L49.74666666666666,93.97893349815632L50.00666666666667,93.38036118123017L50.093333333333334,92.94880627557846L50.78666666666667,92.11060368695983L51.13333333333333,91.3180435647181L51.306666666666665,90.69768820683778L51.480000000000004,90.18065945403109L51.74,89.6532151487725L52.17333333333333,88.97470222750758L52.346666666666664,88.42277519021331L52.78,87.72957262972696L53.126666666666665,87.02401627082133L53.21333333333333,86.52827468643866L53.3,86.15841822031308L53.559999999999995,85.7192772870632L53.82,85.23856567353874L53.906666666666666,84.87773093638478L54.16666666666667,84.44400304051787L54.25333333333333,84.11135478750171L54.6,83.62213101307822L55.03333333333333,82.96655041031431L55.12,82.50079427961668L55.20666666666667,82.14893283215885L55.379999999999995,81.79299667914886L55.46666666666667,81.5070234718469L55.553333333333335,81.26303177842642L55.72666666666667,80.97181747783891L55.81333333333333,80.72468112844712L55.986666666666665,80.43158003427676L56.333333333333336,79.96608455516072L56.50666666666666,79.54196798315586L56.593333333333334,79.21509027091365L56.68,78.94655587452905L56.85333333333334,78.64061595216305L57.2,78.16741342967289L57.28666666666666,77.81108414713954L57.63333333333334,77.30765175500568L57.72,76.9331808042294L57.89333333333334,76.56368269568509L58.06666666666666,76.19716454602322L58.41333333333333,75.68761508715556L58.5,75.30947764279571L58.760000000000005,74.86536812260523L58.93333333333333,74.45408312595569L59.02,74.1349043589267L59.19333333333333,73.79857781417404L59.28,73.52437411828315L59.54,73.1426248471741L59.626666666666665,72.8411675154694L59.71333333333333,72.58788160095055L59.88666666666667,72.291090767704L60.14666666666667,71.89578921418152L60.49333333333333,71.36897345945422L60.84,70.76324918400404L60.92666666666667,70.32740310323793L61.18666666666667,69.84866840120372L61.446666666666665,69.34420052640867L61.53333333333333,68.96911203249235L61.62,68.67164742064655L61.70666666666667,68.42076088449981L61.79333333333333,68.1978211937725L61.879999999999995,67.9916458638401L62.14,67.65071361230613L62.22666666666667,67.37374649234648L62.31333333333333,67.13515845133144L62.4,66.91959411122639L62.66,66.57302845358883L63.26666666666667,65.85822718281796L63.52666666666667,65.21211936678088L63.61333333333334,64.75204316166263L63.78666666666666,64.33118190051313L63.873333333333335,64.00625362832743L63.96,63.738888895976764L64.13333333333334,63.43365077203108L64.30666666666666,63.10568861312841L64.48,62.76409577970826L64.65333333333334,62.414320795120915L64.74,62.13204803532922L65,61.74545732587966L65.17333333333333,61.36868361567466L65.43333333333332,60.92539233597713L65.52,60.58700979911933L66.04,59.94952242339886L66.12666666666668,59.494622228927284L66.21333333333332,59.149274343205064L66.56,58.652427042701206L66.82000000000001,58.137091608824335L66.99333333333333,57.6830748104197L67.25333333333333,57.19343393134564L67.60000000000001,56.6100145812874L67.94666666666666,55.97032814863864L68.03333333333333,55.51410477355337L68.12,55.16796297946295L68.29333333333334,54.81545861847342L68.46666666666665,54.45914046380117L68.55333333333333,54.17293805550181L68.64,53.92880884148293L68.81333333333333,53.63751202853632L68.98666666666666,53.317914656233114L69.16,52.981340694772626L69.24666666666666,52.70698480240035L69.50666666666666,52.32514421340244L69.59333333333333,52.02363209096442L70.02666666666666,51.480678479391806L70.2,51.01009077436969L70.46000000000001,50.51050735132515L70.54666666666667,50.13834952845916L70.72,49.7702355502043L71.06666666666666,49.25973234063758L71.24000000000001,48.80861113036228L71.32666666666667,48.465530635157826L71.58666666666666,48.042455284460594L71.76,47.64379078950701L71.84666666666666,47.332184323495554L72.19333333333333,46.855581874818185L72.54,46.27998558299793L72.80000000000001,45.717400754331265L72.88666666666667,45.30744208809197L72.97333333333333,44.9890553728524L73.06,44.72561557466936L73.14666666666666,44.49514392672028L73.58,43.99481459984103L73.75333333333333,43.5497977191782L73.83999999999999,43.210379821741256L74.01333333333334,42.8619097987438L74.1,42.58042001590606L74.36,42.19429909262886L74.53333333333333,41.81780725412729L75.14,41.08504652838126L75.39999999999999,40.42816303935911L75.83333333333334,39.67199035429274L75.92,39.14587522775692L76.00666666666666,38.757798382796146L76.26666666666667,38.30772522224515L76.44,37.89286204137929L76.52666666666667,37.571536363820506L76.61333333333334,37.30632944178921L76.87333333333333,36.9299782349959L77.30666666666667,36.34212491926683L77.47999999999999,35.844593645294125L77.65333333333334,35.40125559637526L77.74,35.062844997984634L77.91333333333334,34.714979354415L78.17333333333335,34.289032914698694L78.25999999999999,33.96105728182961L78.43333333333334,33.61945261757291L78.78,33.12485499640506L78.86666666666667,32.75568490820838L79.03999999999999,32.389367317211835L79.3,31.95234596258263L79.47333333333333,31.545317611726553L79.73333333333332,31.08387354763838L79.82,30.734595593689466L79.99333333333333,30.38021328324158L80.16666666666667,30.022764612437594L80.25333333333333,29.7358876409159L80.42666666666668,29.418942173467638L80.51333333333332,29.156367123959395L80.68666666666667,28.85400280971917L80.77333333333333,28.600172705679057L80.86,28.37546687421572L81.29333333333332,27.878597037227912L81.64,27.29084031242141L81.81333333333333,26.793366993002245L82.85333333333332,25.62597478705258L83.02666666666667,24.78072017894751L83.54666666666667,23.839113306935403L83.63333333333333,23.201741414688843L83.89333333333333,22.602091225766376L83.98,22.16988959691691L84.24000000000001,21.6933415660327L84.5,21.190185693927603L84.58666666666666,20.81588440162531L84.76,20.446484341708643L84.84666666666666,20.152436536719367L84.93333333333334,19.90359633822981L85.02000000000001,19.681888196553565L85.10666666666665,19.47645179605177L85.62666666666667,18.91873584860164L85.88666666666666,18.366879226557025L87.01333333333334,17.5007187832327L87.10000000000001,16.989864155098783L87.18666666666667,16.692200508992464L87.27333333333334,16.522443959189385L87.53333333333333,16.447122435802896L88.22666666666666,16.47269259630993L88.31333333333333,16.496883823388234L89.00666666666666,16.5821541412607L89.09333333333333,16.642165462758253L89.44,16.713553792926234L89.52666666666667,16.765228428887674L89.69999999999999,16.813923979099265L89.78666666666666,16.85198294708687L90.04666666666667,16.901358227288245L90.13333333333334,16.939825033269724L90.39333333333333,16.98944501626742L90.56666666666666,17.03690777470076L91,17.109608604890912L91.08666666666666,17.16207074086564L91.34666666666666,17.220087921859296L91.60666666666667,17.281430636950855L91.86666666666666,17.34476867250118L92.03999999999999,17.400462262466096L92.3,17.460418315853847L92.38666666666667,17.505233585747163L92.73333333333333,17.56750428495262L92.82,17.61371583524996L93.94666666666667,17.7564290150974L94.03333333333335,17.850898560866526L94.11999999999999,17.91642192618865L94.46666666666667,17.99111748265137L94.64,18.05362558516374L94.89999999999999,18.117670346079976L95.07333333333332,18.173787971264456L95.16,18.216300184235784L95.42,18.26833991851395L95.50666666666667,18.308412889854935L95.94,18.376679847789646L96.02666666666667,18.42648915332455L96.2,18.47405801236678L96.28666666666668,18.51144845856619L96.54666666666667,18.560415132781216L96.89333333333333,18.62517667457971L96.98,18.67288273043287L97.15333333333332,18.719197132579545L97.76,18.80889971763236L97.93333333333332,18.880412037298786L98.02,18.932161066959274L98.10666666666667,18.972059615529666L98.36666666666667,19.022531151167275L98.71333333333332,19.088195609819294L98.88666666666667,19.14528505364524L98.97333333333333,19.188380357801442L99.23333333333333,19.240777439703994L99.58,19.307589733201542L99.84,19.3742170087089L100.10000000000001,19.440725780508675L100.53333333333333,19.524854218718627L100.70666666666666,19.59302205027935L100.79333333333334,19.642771879989876L100.96666666666665,19.69031254645093L101.14,19.736527714962296L101.22666666666666,19.773098453929755L102.09333333333333,19.88349474048389L102.18,19.958574150277006L102.44,20.03015794910496L102.78666666666666,20.10848976567121L103.13333333333334,20.1908703928804L103.30666666666666,20.257985791383927L103.48,20.315945799120794L103.65333333333334,20.368412572397652L103.82666666666667,20.41758340499849L103.91333333333334,20.455931288876354L104.17333333333333,20.505476172155173L104.26,20.54404848643981L104.34666666666666,20.576033512871252L104.52000000000001,20.612915297364825L104.95333333333333,20.67927128964783L105.12666666666667,20.736775653652337L105.30000000000001,20.78896904068979L105.90666666666667,20.882199016677085L106.25333333333333,20.973518539538937L106.42666666666666,21.046001021890778L106.51333333333334,21.09833589561926L107.03333333333333,21.182805379303797L107.11999999999999,21.242332453831903L107.20666666666666,21.286894082866137L107.29333333333334,21.322476444604025L107.38,21.352671245964128L107.72666666666666,21.40616591759295L107.98666666666666,21.464798873522327L108.85333333333334,21.588428743796904L109.02666666666667,21.68029743459636L109.11333333333334,21.74426403339341L109.2,21.791489376989013L109.37333333333333,21.837515351781093L109.63333333333334,21.891667089608433L109.80666666666667,21.941845154482852L109.97999999999999,21.989642762042244L110.06666666666666,22.02716671089523L110.15333333333334,22.0585264645244L110.24,22.086187701019263L110.32666666666667,22.111629827233546L110.41333333333334,22.13574048727947L110.67333333333335,22.176743036259143L110.75999999999999,22.21018994996431L110.93333333333334,22.24794512036541L111.02,22.279443606923426L111.10666666666667,22.30718808317561L111.36666666666667,22.350370921879026L111.45333333333333,22.38512600941843L111.53999999999999,22.414824446259466L111.88666666666667,22.468025045633517L112.49333333333333,22.561859349022807L112.66666666666667,22.635850699691083L112.84,22.697936278726786L112.92666666666668,22.744033010465568L113.01333333333332,22.780536433826224L113.27333333333333,22.828970894337974L113.44666666666667,22.875722339279772L113.62,22.92146397487959L113.70666666666668,22.957754340556846L113.88,22.99721932859793L114.31333333333333,23.065121496552685L114.48666666666668,23.123553565960286L114.57333333333332,23.16745819192218L114.83333333333333,23.220337120451415L114.92,23.26090986188635L115.09333333333333,23.302944275382018L115.18,23.337010307796792L115.44,23.383982333741013L115.61333333333333,23.429856317942306L115.7,23.466226092780424L115.78666666666668,23.49689334200066L116.04666666666667,23.541829844484905L116.65333333333334,23.630705689740306L116.82666666666665,23.701721965528268L117,23.762022499635776L117.08666666666666,23.807048204417644L117.17333333333333,23.842909011604146L117.86666666666666,23.935184823998224L118.04,24.00824108006941L118.21333333333334,24.069765602346866L118.47333333333333,24.133216468665424L118.99333333333334,24.22435554790403L119.08,24.287884379764552L119.25333333333333,24.343692447515604L119.34,24.386022672483612L119.42666666666666,24.420266191781785L119.77333333333334,24.476190094173404L119.94666666666666,24.52743520424313L120.12,24.575873038919685L120.38000000000001,24.631471892677734L120.46666666666667,24.673676589249915L120.72666666666666,24.7255318136886L120.81333333333333,24.765490332669167L121.07333333333334,24.816001597009638L121.16000000000001,24.85515373993125L121.42,24.905181178636333L121.76666666666667,24.97057543267212L121.85333333333334,25.01865736941095L121.94,25.056351915771604L122.11333333333333,25.096659412222746L122.46,25.156225447362885L122.54666666666667,25.20081045276433L122.89333333333333,25.262939246817965L123.32666666666667,25.344443444836944L123.5,25.411036732283062L123.84666666666666,25.486374242020215L124.10666666666667,25.55810915435786L124.19333333333334,25.609995486077832L124.62666666666667,25.68535420669663L124.8,25.748260207702657L125.14666666666666,25.82138159911902L125.32,25.882945202603565L125.58,25.946419517646365L125.66666666666667,25.993349490989424L125.75333333333334,26.03035285931262L125.84,26.061400264623902L126.01333333333334,26.0977194764454L126.18666666666667,26.137198025716305L126.27333333333334,26.169730539596216L126.53333333333335,26.215786200876263L126.61999999999999,26.25226498196166L127.14,26.327224556517102L127.48666666666666,26.40757809206311L127.92,26.500017134977515L128.00666666666666,26.56432594504356L128.09333333333333,26.61175661540053L128.44,26.675592808427464L128.7,26.74043067719571L129.13333333333333,26.823560320043466L129.39333333333332,26.899970512247528L129.82666666666668,26.990043549156795L129.91333333333333,27.052932755619715L130.17333333333335,27.11720243244956L130.52,27.191142029360204L130.86666666666665,27.270887324776048L131.3,27.362961423612408L131.73333333333335,27.462429058044314L131.90666666666667,27.539800407338173L132.16666666666666,27.612759369866613L132.25333333333336,27.665380131701L132.42666666666665,27.71464335743639L133.03333333333336,27.80611523664247L133.9,27.949448460883048L134.16,28.06198454837951L134.42000000000002,28.156042353829456L134.50666666666666,28.22132242141681L134.68,28.278181230603952L135.02666666666667,28.347674306928972L135.20000000000002,28.407060921358728L135.54666666666665,28.47807442728601L135.63333333333333,28.529527915159772L135.72,28.56924539220139L135.80666666666667,28.601921262743726L135.89333333333332,28.6303721693865L136.5,28.70935665713698L136.58666666666667,28.76559273410464L136.9333333333333,28.834715917554696L137.36666666666667,28.92041300275484L137.45333333333332,28.98067663819229L137.8,29.05221635672423L138.06,29.121676340795474L138.40666666666667,29.198730122050993L140.14000000000001,29.42186633069487L140.48666666666668,29.59112584669394L141.35333333333332,29.781135399467043L141.44,29.903982768991565L141.78666666666666,30.01307272797574L141.96,30.096217472000962L142.04666666666668,30.15494970273347L142.13333333333333,30.199034425490318L142.22,30.23433064346182L142.48000000000002,30.282040780740072L142.74,30.337203016059156L142.91333333333333,30.387991125885307L143.08666666666667,30.43615476041572L143.17333333333332,30.473898325451348L143.34666666666666,30.514235233107442L143.43333333333334,30.5472827620185L143.60666666666668,30.58479830154313L143.69333333333333,30.616153009575267L143.86666666666667,30.652656603029257L143.95333333333332,30.683404143419047L144.12666666666667,30.71954343628763L144.73333333333332,30.80314095577363L144.99333333333334,30.87983562041733L145.08,30.93469780352092L145.25333333333333,30.985305882017816L145.86,31.077584672880782L146.20666666666668,31.16833348466801L146.46666666666667,31.249318924692474L146.72666666666666,31.32444634165924L146.81333333333333,31.378364429699918L147.16,31.4460968197938L147.24666666666667,31.495581638167486L147.50666666666666,31.551808682143793L148.11333333333334,31.64745885229443L148.2,31.713694338702187L148.28666666666666,31.76228101486418L148.45999999999998,31.80912378919612L148.63333333333333,31.85492022243003L148.72,31.891243466687722L149.32666666666668,31.974951357007168L149.76,32.0694030127857L150.28,32.17914256570028L150.54,32.27152245040111L150.62666666666667,32.33579576553898L150.88666666666668,32.4008959075738L151.49333333333334,32.50186993655952L151.75333333333333,32.58899050690304L151.84,32.650108233426536L151.92666666666668,32.695624253657996L152.70666666666668,32.80253857819645L152.96666666666667,32.89322332587158L153.05333333333334,32.956479558794065L153.2266666666667,33.01212406718228L153.4,33.063197794393204L153.48666666666668,33.10268741503714L153.57333333333332,33.135226571740866L153.66,33.163595450080464L153.92,33.20715293003631L154.26666666666668,33.26866895527928L154.35333333333332,33.31442395474245L154.44,33.350718592280984L154.7,33.39903152775619L155.13333333333333,33.47224621062814L155.5666666666667,33.560398195481426L155.65333333333334,33.62213477071075L155.73999999999998,33.66802210016573L156.08666666666667,33.73093603510818L156.17333333333335,33.77752978039101L156.26,33.81433141187806L156.95333333333335,33.907171718852496L157.21333333333334,33.98941205598929L157.38666666666666,34.056447026906056L157.90666666666667,34.149736568903606L158.07999999999998,34.22340106273688L158.34,34.29413591198893L158.68666666666667,34.37195835880962L159.03333333333333,34.45402961771479L159.20666666666665,34.5209631416926L159.46666666666664,34.5876594090314L159.55333333333334,34.63652255375203L159.98666666666665,34.710063615714525L160.07333333333335,34.76303363720939L160.42,34.83019718737576L160.50666666666666,34.879340701792955L160.59333333333333,34.91767219476062L160.68,34.9495164748586L160.85333333333335,34.986313811552115L161.02666666666664,35.02607923574626L161.37333333333333,35.0853200275322L161.54666666666665,35.138555271238495L161.72,35.18818718609699L161.98,35.244502487964205L162.06666666666666,35.287133306945144L162.41333333333336,35.34809333560319L162.67333333333335,35.41120550575011L162.84666666666666,35.46676357647299L163.36666666666665,35.553166978354206L163.45333333333335,35.61385440380027L163.54,35.659112243385295L163.62666666666667,35.69511233145367L164.06,35.76093930588152L164.14666666666665,35.8092808748556L164.23333333333335,35.8471274541007L164.58,35.905216938917214L164.84,35.96660678275923L165.01333333333335,36.021131457699155L165.27333333333334,36.08038241561523L165.44666666666666,36.13362001254287L165.53333333333336,36.174407955016825L165.62,36.20772610481856L165.70666666666665,36.23656237901696L166.22666666666666,36.30693644944019L166.57333333333335,36.38453868250688L166.66,36.43994540666424L166.74666666666667,36.48203482547604L166.83333333333334,36.51613386108049L167.26666666666665,36.580820204029976L167.96,36.69039133788188L168.04666666666665,36.764979402510384L168.39333333333332,36.845113778556936L168.56666666666666,36.91088517281962L168.82666666666665,36.97688041587259L169,37.03416833033913L169.08666666666667,37.077386463336424L169.26000000000002,37.1210081117695L169.34666666666666,37.15602648514672L170.04000000000002,37.247796837255265L170.12666666666667,37.31170443283774L170.3,37.367739758821976L171.16666666666666,37.489811051129436L171.34,37.58074459514865L171.6,37.661840874512265L171.94666666666666,37.74587643294317L172.03333333333333,37.80514315231908L172.12,37.84954856826199L172.38,37.902727970779864L172.64000000000001,37.961171765242675L172.81333333333333,38.013928810555086L172.98666666666668,38.06327005992053L173.33333333333331,38.12825634680928L173.50666666666666,38.18493888757724L174.02666666666667,38.272016971485506L174.20000000000002,38.34195459046519L174.54666666666668,38.41929869912248L174.98000000000002,38.50993208590367L175.32666666666668,38.59968990878512L175.58666666666667,38.68008075546607L175.67333333333332,38.73716064779204L175.84666666666666,38.78909935182234L175.93333333333334,38.829107958557884L176.10666666666668,38.87080389123393L176.19333333333333,38.904663088700225L176.28,38.93382399149734L176.45333333333332,38.96901130181035L176.62666666666667,39.007814456632886L177.23333333333332,39.09301403974796L177.32000000000002,39.152975427477664L177.40666666666667,39.19779764443287L177.49333333333334,39.233536358923324L177.75333333333333,39.281515740569716L178.53333333333333,39.38990808195711L178.96666666666667,39.49917040837637L179.05333333333334,39.5735731885453L179.14,39.62706024096402L179.48666666666668,39.694530263227996L179.57333333333332,39.74385766090374L179.74666666666667,39.791144868143924L180.00666666666666,39.846053345440126L180.26666666666668,39.90553458476995L180.52666666666667,39.967759481319945L180.61333333333334,40.01393605711058L180.78666666666666,40.05933277121969L180.95999999999998,40.1042615683199L181.13333333333333,40.148909615214755L181.56666666666666,40.2199253649385L181.91333333333333,40.29791260558547L182.17333333333332,40.371241102925765L182.69333333333333,40.46831050723412L182.78,40.53539378767978L182.86666666666667,40.58448914026455L183.12666666666667,40.6404825047675L183.56,40.718305445056124L184.07999999999998,40.818067768676755L184.16666666666669,40.886770547166485L184.25333333333333,40.936837598577696L184.51333333333332,40.99341398237651L184.77333333333334,41.05389596560791L185.03333333333333,41.11671756204212L185.12,41.163255904220044L185.46666666666667,41.22656044679623L185.55333333333334,41.27338855665931L185.64,41.31033080689451L185.9,41.35903230998774L186.07333333333332,41.40594023402167L186.33333333333334,41.46062114139415L186.59333333333333,41.51996583876973L186.85333333333332,41.582108810147176L187.2,41.65477238378639L187.2866666666667,41.70721591228727L187.37333333333333,41.74752741370517L187.45999999999998,41.780559698873276L187.54666666666668,41.8092244542915L187.72,41.84411407617716L187.80666666666667,41.87389323362592L187.89333333333335,41.90060611241256L187.98,41.92547922400191L188.67333333333335,42.01116241903772L188.8466666666667,42.08026310469395L188.93333333333334,42.13056890040502L189.01999999999998,42.16959776214904L189.36666666666667,42.2283928700082L189.54,42.28136070335842L189.62666666666667,42.32198678768592L189.88666666666666,42.37289859123452L189.97333333333333,42.41229105768106L192.05333333333334,42.64820826825231L192.14,42.798603978912425L192.48666666666665,42.92422294257795L192.57333333333335,43.008435958637904L192.66,43.06780915259126L192.92,43.129969221915346L193.09333333333333,43.18495603214453L193.35333333333335,43.24448427123416L193.44,43.28904659900527L193.61333333333334,43.33347101784596L193.7,43.36897105346774L193.78666666666666,43.399116459158165L194.13333333333335,43.45258523984189L194.39333333333335,43.51120266120423L194.74,43.581750904834365L195.34666666666666,43.685997541234016L195.43333333333334,43.757390907391155L195.52,43.80907231140282L195.60666666666665,43.84892653812717L196.47333333333336,43.96128917087872L196.56,44.03755213484701L196.73333333333335,44.10100068186274L197.08,44.17444760088492L197.51333333333335,44.262742673885036L197.94666666666666,44.359946639271946L198.12,44.435956040682086L198.20666666666665,44.49040706584553L198.38,44.540768449578344L198.46666666666667,44.57983066413539L198.55333333333334,44.61211337718701L198.9,44.666864542287406L199.07333333333335,44.71740226352567L199.16,44.75657028058599L199.33333333333334,44.79776185945691L199.59333333333333,44.84901295973158L199.76666666666665,44.89745438853111L200.11333333333334,44.96190078308029L200.20000000000002,45.009410257670424L200.54666666666665,45.07329747969397L200.63333333333333,45.12047519722546L200.98000000000002,45.184163365013845L201.06666666666666,45.23122165000423L201.24,45.277143643176466L201.32666666666665,45.31354222339716L201.41333333333333,45.34422675584696L201.67333333333332,45.38917362826893L202.28,45.478059441943664L202.36666666666667,45.54023256800916L202.45333333333332,45.58638182796582L202.7133333333333,45.64060753689192L203.06,45.70852449951703L203.58,45.80234323653956L204.01333333333332,45.902861400339916L204.1,45.9720176829375L204.44666666666666,46.04889298976551L204.53333333333333,46.10385981172296L204.70666666666668,46.154530673532165L205.31333333333333,46.246850880839254L205.66,46.337620796036255L205.83333333333331,46.409773513789155L205.92000000000002,46.461910528758274L206.52666666666667,46.555110427961324L206.70000000000002,46.62871738966114L206.87333333333333,46.69057233531578L207.04666666666668,46.74537607134327L207.48000000000002,46.82248523454662L207.91333333333333,46.91297390759872L208.08666666666667,46.98495788006472L208.17333333333332,47.0369936478617L208.26000000000002,47.077060492857214L208.52,47.12763675280662L208.78,47.184518661728376L208.95333333333332,47.23633482925945L209.04000000000002,47.276269914095444L209.21333333333334,47.31792173363177L209.3,47.35175820967093L209.82000000000002,47.425132401198645L210.16666666666666,47.504534706928L210.34,47.56986685900034L211.12,47.68867086264333L211.38,47.786489417781205L211.64,47.87171670381602L211.81333333333333,47.94054384407166L212.67999999999998,48.070290224941985L212.94,48.174674206416256L213.02666666666667,48.24614997961819L213.54666666666668,48.342104002986815L213.80666666666667,48.42621256996011L214.58666666666667,48.556282422543624L214.93333333333334,48.66970587136321L215.01999999999998,48.74660532497233L215.36666666666667,48.82812653440727L215.97333333333333,48.93895320383309L216.06,49.01429458980593L216.66666666666669,49.12141336515446L217.1,49.22991155195041L217.18666666666667,49.30385584834534L217.27333333333334,49.35706781049968L217.4466666666667,49.406685756427L217.62,49.45414354616141L217.96666666666667,49.517999757271525L218.05333333333334,49.565158868254954L218.31333333333333,49.619990487797104L218.74666666666667,49.697112634652505L219.26666666666668,49.796458228669955L219.44,49.87375635371514L219.7,49.94667138169436L220.13333333333333,50.034643573611966L220.30666666666667,50.10511765739729L220.39333333333335,50.15624749198582L220.48,50.19577077705634L220.65333333333334,50.23717551673335L220.73999999999998,50.27086374485693L220.82666666666668,50.29992206604845L221.08666666666667,50.34388946525873L221.17333333333335,50.37911528910227L221.26,50.40909616772576L221.60666666666668,50.46246623216932L221.78,50.51217903947018L222.29999999999998,50.59507528329818L222.56,50.671349182547054L222.82,50.74364967504849L222.99333333333334,50.80472073918409L223.42666666666665,50.885586552795566L223.94666666666666,50.98717834686662L224.38,51.09235659843938L224.55333333333334,51.17315431801775L224.72666666666666,51.2393237183995L224.81333333333333,51.28787074294591L224.9,51.325844341991136L224.98666666666665,51.357473885735644L225.07333333333335,51.38529699629971L225.16,51.41083624695552L226.02666666666664,51.51460989406594L226.37333333333333,51.61225187314493L226.63333333333335,51.697373213544395L226.98,51.783827555053584L227.76,51.91530487235866L228.02,52.02072741569377L228.36666666666665,52.11936247896431L228.45333333333335,52.18738515478729L228.62666666666667,52.2458895289158L228.71333333333334,52.28983753771027L228.88666666666666,52.333897111621695L228.97333333333336,52.36917824028588L229.49333333333334,52.44341922338862L230.01333333333335,52.541032372697735L230.36,52.63498179955265L230.70666666666665,52.72672924647835L230.88,52.799468483268484L230.96666666666667,52.85195740965994L231.31333333333333,52.91883230276428L231.66,52.994338775896345L231.83333333333334,53.0573296819536L232.00666666666666,53.112814994222695L232.61333333333334,53.20802387180568L232.70000000000002,53.273994582672856L233.04666666666665,53.3489548000059L233.39333333333332,53.429312467675196L233.6533333333333,53.50406322122888L233.82666666666665,53.566604441995814L233.91333333333333,53.6129708123166L234,53.649636018826456L234.26000000000002,53.698171295684446L234.4333333333333,53.74498323043401L234.52,53.78191577560108L234.69333333333333,53.821766071336064L234.86666666666667,53.86336701741179L235.12666666666667,53.914859991552596L235.3,53.96344654467181L235.47333333333333,54.01028924517807L235.56,54.047240249799195L235.64666666666668,54.07825623688922L235.82,54.11455659777798L235.9933333333333,54.15402758294594L236.42666666666668,54.221933349176865L236.6,54.28036757755014L236.68666666666667,54.32427349889145L236.86,54.36830782033099L237.29333333333332,54.43895158832481L237.46666666666667,54.49902861775583L237.64000000000001,54.5527656040492L237.72666666666666,54.59385318014257L237.98666666666668,54.64504187875068L238.68,54.74651442599774L239.20000000000002,54.86047026025019L239.63333333333333,54.97306693593176L239.72,55.04947032565808L239.89333333333332,55.1130031281286L240.15333333333334,55.177658962563L240.32666666666668,55.234143231858376L240.5,55.2857208156136L240.67333333333332,55.33435813450149L240.76000000000002,55.37238591015158L241.19333333333333,55.43942949712845L241.28,55.488501033631955L241.36666666666667,55.526789339851405L241.62666666666667,55.57629473007847L241.71333333333334,55.614843348532055L241.97333333333333,55.6645086725563L242.49333333333334,55.74738017287506L242.58,55.805948457383664L242.75333333333333,55.85877645026683L242.92666666666668,55.90816401463149L243.10000000000002,55.95548732188501L243.18666666666667,55.99272669055447L244.14,56.11236579279045L244.22666666666666,56.19299463844941L244.31333333333333,56.25021733016216L244.57333333333332,56.31108709814191L245.00666666666666,56.39183213405984L245.09333333333333,56.449124539927986L245.52666666666667,56.527726905035685L245.61333333333334,56.58373370841768L245.7,56.626183174764236L245.78666666666666,56.660498238889545L245.95999999999998,56.69877429954275L246.04666666666668,56.730585320252025L246.13333333333333,56.758517316994975L246.39333333333332,56.80181266799282L247.34666666666666,56.92508535962583L247.86666666666667,57.052121280509844L248.04,57.14603360167495L248.47333333333333,57.24660416950413L248.73333333333332,57.33348266315377L248.82,57.39445514366088L248.90666666666667,57.43988401628252L249.07999999999998,57.48483210849024L249.68666666666667,57.57371490757972L249.9466666666667,57.65358073998551L250.12,57.719191008063696L250.38,57.785089575406L250.55333333333334,57.84231948444611L250.7266666666667,57.89434819850491L251.07333333333332,57.96094696420963L251.42,58.0362840144452L251.5066666666667,58.090331628903925L251.59333333333333,58.131605581896515L251.68,58.165215338009446L251.85333333333332,58.20307196031194L252.02666666666667,58.24347670232815L252.11333333333334,58.27656493185524L252.2,58.305263253888896L252.37333333333333,58.3401730157438L252.45999999999998,58.36996051071739L252.54666666666668,58.3966783920189L252.72,58.43039988943454" style="fill: none;" fill="none"></path></g></g></g></g><g opacity="0.2"><g><g><g><path stroke="rgb(255, 112, 67)" stroke-width="2px" d="M17.593333333333334,160.18499957597604L17.68,160.0039778118424L18.200000000000003,158.91784137320198L18.546666666666667,158.19374963359652L18.633333333333333,158.01272669869516L18.893333333333334,157.46965906475882L18.98,157.28863612985745L19.066666666666666,157.10761436572383L19.24,156.7455684959211L19.326666666666668,156.56454439025202L19.586666666666666,156.02147675631568L19.673333333333332,155.84045499218203L20.62666666666667,153.84920387903483L20.8,153.4871580092321L21.406666666666666,152.22000097722577L21.493333333333332,152.03897687155668L21.580000000000002,151.85795510742307L21.753333333333334,151.49590923762034L22.013333333333335,150.952841603684L22.273333333333333,150.40977162821218L22.533333333333335,149.86670399427584L22.619999999999997,149.6856822301422L22.706666666666667,149.5046581244731L22.793333333333333,149.3236363603395L22.966666666666665,148.96159049053676L23.053333333333335,148.78056872640312L23.14,148.59954462073404L23.226666666666667,148.41852285660042L23.4,148.0564769867977L23.486666666666668,147.87545522266407L24.006666666666668,146.78931761325592L24.18,146.4272717434532L24.44,145.88420410951684L24.7,145.3411364755805L25.046666666666667,144.61704473597504L25.913333333333334,142.80681772849692L26.26,142.08272833042696L26.52,141.53965835495512L26.606666666666666,141.3586365908215L26.779999999999998,140.99659072101878L27.386666666666667,139.729431347477L27.82,138.82431784373793L28.166666666666668,138.1002261041325L28.25333333333333,137.91920433999888L28.42666666666667,137.55715847019613L28.6,137.19511494192886L28.686666666666667,137.01409083625978L29.12,136.10897499098527L29.206666666666663,135.9279555683871L29.813333333333333,134.6607961948453L29.986666666666665,134.29874798350713L30.073333333333334,134.11772856090894L30.333333333333332,133.57466092697263L30.939999999999998,132.30750155343082L31.2,131.76443391949445L31.373333333333335,131.4023857081563L31.546666666666667,131.04034217988902L32.06666666666667,129.95420222894543L32.15333333333333,129.77318280634725L32.24,129.59215870067817L32.5,129.0490910667418L32.67333333333334,128.68704753847453L33.02,127.96295579886912L33.28,127.41988816493276L33.36666666666667,127.23886405926368L33.45333333333333,127.05783995359458L33.800000000000004,126.33374821398914L33.88666666666666,126.15272879139096L33.97333333333333,125.97170468572189L34.58,124.7045453121801L34.84,124.16147767824374L34.92666666666667,123.98045357257466L35.01333333333333,123.79943414997648L35.1,123.61841004430741L35.27333333333333,123.25636183296925L35.620000000000005,122.53227477643469L35.79333333333333,122.17022656509653L35.96666666666667,121.80818303682926L36.31333333333333,121.08409129722382L36.400000000000006,120.90306719155475L36.486666666666665,120.72204776895657L36.74666666666667,120.17897545194931L37.18,119.27386428974569L38.04666666666667,117.46363728226757L38.22,117.10158907092938L38.48,116.55852143699303L38.56666666666667,116.37750201439485L38.653333333333336,116.19647790872577L39.346666666666664,114.74829442951491L39.693333333333335,114.02420268990947L39.78,113.84318326731129L39.86666666666666,113.6621591616422L40.04,113.30011563337493L40.733333333333334,111.85193215416407L40.82,111.67090804849498L41.08,111.12784041455863L41.25333333333334,110.76579688629135L41.42666666666666,110.40374867495319L41.6,110.04170514668591L41.77333333333333,109.67965693534777L41.86,109.49863751274958L42.03333333333333,109.13658930141142L42.20666666666666,108.77454577314414L42.29333333333333,108.59352166747506L42.46666666666667,108.2314781392078L42.9,107.32636229393326L42.986666666666665,107.14534287133507L43.07333333333333,106.964318765666L43.160000000000004,106.78329465999693L43.85333333333333,105.33511586385696L44.02666666666667,104.97306765251878L44.373333333333335,104.24897591291334L44.72,103.52488417330792L44.89333333333333,103.16284064504065L44.98,102.98181653937156L45.239999999999995,102.4387489054352L46.10666666666667,100.62852189795709L46.54,99.72341073575346L46.62666666666667,99.54238663008437L46.8,99.1803431018171L47.059999999999995,98.63727078480984L47.233333333333334,98.27522725654259L47.32,98.09420783394441L47.666666666666664,97.37011141126807L47.839999999999996,97.0080725660717L48.013333333333335,96.64602435473353L48.36,95.92192793205719L48.70666666666666,95.19784087552264L48.79333333333334,95.01682145292446L48.88,94.8357926641845L48.96666666666666,94.65477324158631L49.053333333333335,94.47375381898813L49.14,94.29272503024815L49.74666666666666,93.02557033977725L50.00666666666667,92.48250270584091L50.093333333333334,92.30147391710094L50.78666666666667,90.85329980403185L51.13333333333333,90.12920338135551L51.306666666666665,89.76715517001733L51.480000000000004,89.40511632482097L51.74,88.86204869088463L52.17333333333333,87.95693284561011L52.346666666666664,87.59488463427193L52.78,86.68976878899743L53.126666666666665,85.9656817324629L53.21333333333333,85.78466230986471L53.3,85.60363352112472L53.559999999999995,85.06056588718837L53.82,84.51749825325201L53.906666666666666,84.33647883065383L54.16666666666667,83.7934111967175L54.25333333333333,83.6123824079775L54.6,82.88829535144298L55.03333333333333,81.98317950616844L55.12,81.80216008357026L55.20666666666667,81.62114066097207L55.379999999999995,81.25909244963393L55.46666666666667,81.07806366089393L55.553333333333335,80.89704423829575L55.72666666666667,80.53499602695759L55.81333333333333,80.3539766043594L55.986666666666665,79.99192839302123L56.333333333333336,79.2678413364867L56.50666666666666,78.90579312514852L56.593333333333334,78.72477370255034L56.68,78.54375427995215L56.85333333333334,78.181706068614L57.2,77.45760964593767L57.28666666666666,77.27659022333948L57.63333333333334,76.55250316680494L57.72,76.37147437806495L57.89333333333334,76.00943553286858L58.06666666666666,75.64738732153043L58.41333333333333,74.92329089885409L58.5,74.74227147625591L58.760000000000005,74.19920384231955L58.93333333333333,73.83715563098139L59.02,73.6561362083832L59.19333333333333,73.29408799704503L59.28,73.11306857444684L59.54,72.57000094051051L59.626666666666665,72.38898151791233L59.71333333333333,72.20795272917233L59.88666666666667,71.84590451783417L60.14666666666667,71.30283688389781L60.49333333333333,70.5787498273633L60.84,69.85466277082875L60.92666666666667,69.67363398208876L61.18666666666667,69.13056634815241L61.446666666666665,68.58749871421605L61.53333333333333,68.40647929161787L61.62,68.22545050287789L61.70666666666667,68.04443108027971L61.79333333333333,67.86341165768152L61.879999999999995,67.68238286894153L62.14,67.1393152350052L62.22666666666667,66.95829581240702L62.31333333333333,66.77727638980883L62.4,66.59624760106884L62.66,66.0531799671325L63.26666666666667,64.78602527666162L63.52666666666667,64.24295764272526L63.61333333333334,64.06192885398526L63.78666666666666,63.69989000878889L63.873333333333335,63.51886122004892L63.96,63.337841797450736L64.13333333333334,62.97579358611256L64.30666666666666,62.6137453747744L64.48,62.25170652957804L64.65333333333334,61.88965831823986L64.74,61.70863889564168L65,61.16557126170534L65.17333333333333,60.80352305036716L65.43333333333332,60.260455416430815L65.52,60.07943599383263L66.04,58.99329135981812L66.12666666666668,58.81227193721994L66.21333333333332,58.63125251462176L66.56,57.907156091945424L66.82000000000001,57.364088458009064L66.99333333333333,57.0020496128127L67.25333333333333,56.45897261273455L67.60000000000001,55.73488555620003L67.94666666666666,55.01079849966548L68.03333333333333,54.829769710925504L68.12,54.64875028832732L68.29333333333334,54.286702076989144L68.46666666666665,53.92466323179278L68.55333333333333,53.743634443052805L68.64,53.56261502045462L68.81333333333333,53.200566809116445L68.98666666666666,52.83851859777827L69.16,52.4764797525819L69.24666666666666,52.29545096384193L69.50666666666666,51.75238332990557L69.59333333333333,51.571363907307386L70.02666666666666,50.66624806203287L70.2,50.304209216836504L70.46000000000001,49.761132216758355L70.54666666666667,49.58011279416017L70.72,49.21806458282201L71.06666666666666,48.493977526287466L71.24000000000001,48.13192931494931L71.32666666666667,47.95090989235113L71.58666666666666,47.40784225841477L71.76,47.04579404707659L71.84666666666666,46.86477462447841L72.19333333333333,46.140678201802075L72.54,45.41659114526755L72.80000000000001,44.87352351133119L72.88666666666667,44.69250408873301L72.97333333333333,44.51147529999304L73.06,44.330455877394854L73.14666666666666,44.14943645479667L73.58,43.24432060952215L73.75333333333333,42.88227239818397L73.83999999999999,42.70125297558579L74.01333333333334,42.33920476424763L74.1,42.15818534164945L74.36,41.61511770771309L74.53333333333333,41.253069496374934L75.14,39.98590543976224L75.39999999999999,39.44283780582588L75.83333333333334,38.53773132669318L75.92,38.35670253795318L76.00666666666666,38.175683115355L76.26666666666667,37.632615481418654L76.44,37.27056727008048L76.52666666666667,37.089547847482294L76.61333333333334,36.90851905874232L76.87333333333333,36.36545142480596L77.30666666666667,35.460344945673256L77.47999999999999,35.09829673433508L77.65333333333334,34.7362485229969L77.74,34.55522910039872L77.91333333333334,34.193180889060564L78.17333333333335,33.650113255124204L78.25999999999999,33.46909383252602L78.43333333333334,33.107045621187865L78.78,32.38295856465332L78.86666666666667,32.20192977591334L79.03999999999999,31.83989093071698L79.3,31.296813930638827L79.47333333333333,30.93477508544246L79.73333333333332,30.3917074515061L79.82,30.210678662766128L79.99333333333333,29.84863981756976L80.16666666666667,29.486591606231585L80.25333333333333,29.3055721836334L80.42666666666668,28.943523972295225L80.51333333333332,28.76250454969704L80.68666666666667,28.400456338358886L80.77333333333333,28.219427549618892L80.86,28.03840812702071L81.29333333333332,27.13329228174619L81.64,26.409205225211668L81.81333333333333,26.04715701387349L82.85333333333332,23.87488647812809L83.02666666666667,23.512838266789913L83.54666666666667,22.426702998917214L83.63333333333333,22.24568357631903L83.89333333333333,21.70261594238269L83.98,21.521587153642695L84.24000000000001,20.978519519706357L84.5,20.435451885769996L84.58666666666666,20.254432463171813L84.76,19.892384251833654L84.84666666666666,19.71136482923547L84.93333333333334,19.530336040495477L85.02000000000001,19.349325984039105L85.10666666666665,19.16829719529911L85.62666666666667,18.082161927426412L85.88666666666666,17.539094293490052L87.01333333333334,16.201478118246264L87.10000000000001,16.22358221289787L87.18666666666667,16.245705039833098L87.27333333333334,16.267809134484704L87.53333333333333,16.334140150723147L88.22666666666666,16.511047837070446L88.31333333333333,16.533170664005674L89.00666666666666,16.710059618069373L89.09333333333333,16.732182445004582L89.44,16.820636288178253L89.52666666666667,16.84274038282986L89.69999999999999,16.886967304416693L89.78666666666666,16.909071399068303L90.04666666666667,16.975421147590346L90.13333333333334,16.997525242241952L90.39333333333333,17.063874990763995L90.56666666666666,17.10810191235083L91,17.21865985017609L91.08666666666666,17.240763944827712L91.34666666666666,17.307113693349756L91.60666666666667,17.3734447095882L91.86666666666666,17.43977572582662L92.03999999999999,17.484002647413455L92.3,17.550352395935498L92.38666666666667,17.572456490587108L92.73333333333333,17.660910333760775L92.82,17.683033160695985L93.94666666666667,17.97049878486856L94.03333333333335,17.99260287952017L94.11999999999999,18.014706974171794L94.46666666666667,18.103160817345447L94.64,18.14738773893228L94.89999999999999,18.213737487454324L95.07333333333332,18.25796440904114L95.16,18.280068503692746L95.42,18.34639951993119L95.50666666666667,18.368522346866417L95.94,18.479080284691673L96.02666666666667,18.5012031116269L96.2,18.545411300930116L96.28666666666668,18.567534127865343L96.54666666666667,18.633865144103765L96.89333333333333,18.722318987277436L96.98,18.744441814212642L97.15333333333332,18.78866873579948L97.76,18.943453595211572L97.93333333333332,18.987680516798406L98.02,19.009784611450012L98.10666666666667,19.031907438385222L98.36666666666667,19.09823845462366L98.71333333333332,19.186692297797315L98.88666666666667,19.23091921938415L98.97333333333333,19.253023314035755L99.23333333333333,19.319373062557798L99.58,19.407808173447847L99.84,19.47415792196989L100.10000000000001,19.540488938208334L100.53333333333333,19.65104687603361L100.70666666666666,19.695273797620445L100.79333333333334,19.717396624555654L100.96666666666665,19.761623546142488L101.14,19.805850467729304L101.22666666666666,19.82795456238091L102.09333333333333,20.049089170315064L102.18,20.071193264966674L102.44,20.137533647346906L102.78666666666666,20.225987490520573L103.13333333333334,20.314441333694226L103.30666666666666,20.35865888913925L103.48,20.402885810726083L103.65333333333334,20.4471127323129L103.82666666666667,20.491339653899736L103.91333333333334,20.513453114693153L104.17333333333333,20.579793497073386L104.26,20.601906957866802L104.34666666666666,20.62401105251841L104.52000000000001,20.668237974105246L104.95333333333333,20.778805278072312L105.12666666666667,20.823032199659146L105.30000000000001,20.86725912124596L105.90666666666667,21.022043980658054L106.25333333333333,21.110497823831725L106.42666666666666,21.15472474541854L106.51333333333334,21.176838206211958L107.03333333333333,21.30950960483065L107.11999999999999,21.33162306562405L107.20666666666666,21.353736526417467L107.29333333333334,21.375849987210884L107.38,21.3979634480043L107.72666666666666,21.48640792503616L107.98666666666666,21.552748307416394L108.85333333333334,21.773873549208737L109.02666666666667,21.818100470795553L109.11333333333334,21.84021393158897L109.2,21.86232739238239L109.37333333333333,21.906554313969224L109.63333333333334,21.972894696349456L109.80666666666667,22.01711225179448L109.97999999999999,22.061339173381317L110.06666666666666,22.083452634174733L110.15333333333334,22.105566094968133L110.24,22.12767955576155L110.32666666666667,22.149793016554966L110.41333333333334,22.171906477348383L110.67333333333335,22.238246859728616L110.75999999999999,22.260360320522032L110.93333333333334,22.30457787596706L111.02,22.326691336760476L111.10666666666667,22.348804797553893L111.36666666666667,22.415145179934125L111.45333333333333,22.437258640727542L111.53999999999999,22.459372101520962L111.88666666666667,22.547825944694612L112.49333333333333,22.702610804106705L112.66666666666667,22.74683772569354L112.84,22.791064647280372L112.92666666666668,22.81317810807377L113.01333333333332,22.835291568867188L113.27333333333333,22.90162258510563L113.44666666666667,22.945849506692465L113.62,22.99007642827928L113.70666666666668,23.012189889072697L113.88,23.056416810659535L114.31333333333333,23.16697474848479L114.48666666666668,23.211201670071624L114.57333333333332,23.233315130865044L114.83333333333333,23.299655513245277L114.92,23.321768974038694L115.09333333333333,23.365995895625527L115.18,23.388109356418944L115.44,23.454440372657388L115.61333333333333,23.498667294244203L115.7,23.52078075503762L115.78666666666668,23.542894215831037L116.04666666666667,23.60923459821127L116.65333333333334,23.764019457623363L116.82666666666665,23.808246379210196L117,23.852473300797033L117.08666666666666,23.87458676159045L117.17333333333333,23.89670022238385L117.86666666666666,24.07359854258936L118.04,24.117825464176192L118.21333333333334,24.162052385763026L118.47333333333333,24.22839276814326L118.99333333333334,24.361064166761935L119.08,24.38317762755535L119.25333333333333,24.42740454914219L119.34,24.449518009935606L119.42666666666666,24.471631470729022L119.77333333333334,24.56007594776086L119.94666666666666,24.6043028693477L120.12,24.648529790934532L120.38000000000001,24.714870173314765L120.46666666666667,24.73698363410818L120.72666666666666,24.803314650346625L120.81333333333333,24.82542811114004L121.07333333333334,24.891768493520274L121.16000000000001,24.91388195431369L121.42,24.980222336693924L121.76666666666667,25.068666813725784L121.85333333333334,25.0907802745192L121.94,25.112893735312618L122.11333333333333,25.157120656899433L122.46,25.245574500073104L122.54666666666667,25.267687960866503L122.89333333333333,25.35613243789836L123.32666666666667,25.46669974186543L123.5,25.510926663452263L123.84666666666666,25.599380506625913L124.10666666666667,25.665711522864356L124.19333333333334,25.687824983657773L124.62666666666667,25.798392287624843L124.8,25.842619209211676L125.14666666666666,25.931063686243515L125.32,25.975290607830352L125.58,26.041630990210585L125.66666666666667,26.063744451004002L125.75333333333334,26.08585791179742L125.84,26.107971372590836L126.01333333333334,26.15219829417765L126.18666666666667,26.196415849622696L126.27333333333334,26.218529310416095L126.53333333333335,26.284869692796345L126.61999999999999,26.306983153589762L127.14,26.43966391835025L127.48666666666666,26.528108395382088L127.92,26.638675699349157L128.00666666666666,26.660789160142574L128.09333333333333,26.68290262093599L128.44,26.77134709796785L128.7,26.837687480348084L129.13333333333333,26.94825478431515L129.39333333333332,27.014585800553593L129.82666666666668,27.12515310452066L129.91333333333333,27.147266565314077L130.17333333333335,27.21360694769433L130.52,27.30205142472617L130.86666666666665,27.39050526789984L131.3,27.501072571866906L131.73333333333335,27.611630509692166L131.90666666666667,27.655857431279L132.16666666666666,27.722197813659232L132.25333333333336,27.74431127445265L132.42666666666665,27.788538196039486L133.03333333333336,27.94332305545158L133.9,28.164448297243922L134.16,28.230788679624155L134.42000000000002,28.297129062004387L134.50666666666666,28.319242522797804L134.68,28.36346944438464L135.02666666666667,28.451913921416498L135.20000000000002,28.496140843003314L135.54666666666665,28.584594686176985L135.63333333333333,28.606708146970384L135.72,28.6288216077638L135.80666666666667,28.650935068557217L135.89333333333332,28.673048529350634L136.5,28.827833388762727L136.58666666666667,28.849946849556144L136.9333333333333,28.938400692729793L137.36666666666667,29.04895863055507L137.45333333333332,29.07107209134847L137.8,29.15952593452214L138.06,29.225866316902373L138.40666666666667,29.314310793934233L140.14000000000001,29.756570643660712L140.48666666666668,29.84501512069255L141.35333333333332,30.066149728626705L141.44,30.088253823278315L141.78666666666666,30.176707666451964L141.96,30.220934588038798L142.04666666666668,30.243048048832215L142.13333333333333,30.265161509625614L142.22,30.28727497041903L142.48000000000002,30.353605986657474L142.74,30.419946369037724L142.91333333333333,30.46417329062454L143.08666666666667,30.508400212211377L143.17333333333332,30.530513673004794L143.34666666666666,30.57474059459161L143.43333333333334,30.596854055385027L143.60666666666668,30.64107161083005L143.69333333333333,30.663185071623467L143.86666666666667,30.707411993210304L143.95333333333332,30.72952545400372L144.12666666666667,30.773752375590536L144.73333333333332,30.92853723500263L144.99333333333334,30.99487761738288L145.08,31.016991078176297L145.25333333333333,31.061217999763112L145.86,31.216002859175205L146.20666666666668,31.304456702348876L146.46666666666667,31.37079708472911L146.72666666666666,31.43713746710936L146.81333333333333,31.45924156176097L147.16,31.54769540493462L147.24666666666667,31.569808865728035L147.50666666666666,31.636149248108268L148.11333333333334,31.79093410752038L148.2,31.813047568313777L148.28666666666666,31.835161029107194L148.45999999999998,31.87938795069403L148.63333333333333,31.923614872280865L148.72,31.945728333074264L149.32666666666668,32.100513192486375L149.76,32.21108049645344L150.28,32.34375189507212L150.54,32.41009227745235L150.62666666666667,32.43220573824577L150.88666666666668,32.49854612062602L151.49333333333334,32.65333098003811L151.75333333333333,32.719671362418346L151.84,32.74178482321176L151.92666666666668,32.76389828400518L152.70666666666668,32.96291006500411L152.96666666666667,33.02925044738434L153.05333333333334,33.051363908177755L153.2266666666667,33.09559082976459L153.4,33.13980838520962L153.48666666666668,33.16192184600303L153.57333333333332,33.18403530679643L153.66,33.20614876758985L153.92,33.2724891499701L154.26666666666668,33.36094299314375L154.35333333333332,33.38305645393717L154.44,33.405160548588775L154.7,33.47150093096903L155.13333333333333,33.582068234936095L155.5666666666667,33.69262617276135L155.65333333333334,33.71473963355477L155.73999999999998,33.73685309434819L156.08666666666667,33.82530693752184L156.17333333333335,33.84742039831526L156.26,33.86953385910867L156.95333333333335,34.04643217931418L157.21333333333334,34.11277256169441L157.38666666666666,34.156999483281254L157.90666666666667,34.28967088189992L158.07999999999998,34.333897803486764L158.34,34.400238185866996L158.68666666666667,34.488692029040664L159.03333333333333,34.577136506072506L159.20666666666665,34.62136342765934L159.46666666666664,34.68770381003957L159.55333333333334,34.709817270832986L159.98666666666665,34.82037520865826L160.07333333333335,34.84248866945168L160.42,34.930942512625336L160.50666666666666,34.95305597341875L160.59333333333333,34.97516943421215L160.68,34.99728289500557L160.85333333333335,35.0415098165924L161.02666666666664,35.085727372037425L161.37333333333333,35.17418121521108L161.54666666666665,35.21840813679791L161.72,35.262635058384745L161.98,35.32897544076498L162.06666666666666,35.35107953541659L162.41333333333336,35.439533378590255L162.67333333333335,35.50587376097049L162.84666666666666,35.55010068255732L163.36666666666665,35.682772081176L163.45333333333335,35.70488554196942L163.54,35.72699900276283L163.62666666666667,35.74911246355623L164.06,35.85967976752332L164.14666666666665,35.88179322831672L164.23333333333335,35.90389732296834L164.58,35.992351166141994L164.84,36.058691548522226L165.01333333333335,36.10291847010906L165.27333333333334,36.16925885248929L165.44666666666666,36.21347640793434L165.53333333333336,36.235589868727736L165.62,36.25770332952115L165.70666666666665,36.27981679031457L166.22666666666666,36.412497555075056L166.57333333333335,36.50094203210691L166.66,36.52305549290031L166.74666666666667,36.54516895369373L166.83333333333334,36.567282414487146L167.26666666666665,36.67784971845421L167.96,36.85474803865972L168.04666666666665,36.87686149945314L168.39333333333332,36.965315342626795L168.56666666666666,37.00954226421363L168.82666666666665,37.07587328045207L169,37.120100202038884L169.08666666666667,37.142213662832305L169.26000000000002,37.18644058441914L169.34666666666666,37.20855404521255L170.04000000000002,37.38545236541806L170.12666666666667,37.40756582621148L170.3,37.451792747798294L171.16666666666666,37.672917989590644L171.34,37.717144911177456L171.6,37.78348529355771L171.94666666666666,37.87192977058957L172.03333333333333,37.894043231382966L172.12,37.916156692176386L172.38,37.98249707455663L172.64000000000001,38.048837456936866L172.81333333333333,38.09306437852371L172.98666666666668,38.13728193396873L173.33333333333331,38.225735777142376L173.50666666666666,38.269962698729216L174.02666666666667,38.402634097347885L174.20000000000002,38.446861018934726L174.54666666666668,38.53531486210837L174.98000000000002,38.64588216607544L175.32666666666668,38.7343266431073L175.58666666666667,38.800667025487535L175.67333333333332,38.82278048628095L175.84666666666666,38.86700740786779L175.93333333333334,38.8891208686612L176.10666666666668,38.93334779024802L176.19333333333333,38.955451884899645L176.28,38.977565345693044L176.45333333333332,39.02179226727988L176.62666666666667,39.06601918886671L177.23333333333332,39.2208134144206L177.32000000000002,39.24291750907222L177.40666666666667,39.26503096986562L177.49333333333334,39.28714443065904L177.75333333333333,39.35348481303929L178.53333333333333,39.55249659403822L178.96666666666667,39.663063898005284L179.05333333333334,39.68517735879868L179.14,39.7072908195921L179.48666666666668,39.79573529662396L179.57333333333332,39.81784875741738L179.74666666666667,39.86207567900419L180.00666666666666,39.928416061384446L180.26666666666668,39.99475644376468L180.52666666666667,40.06109682614493L180.61333333333334,40.083200920796536L180.78666666666666,40.12742784238337L180.95999999999998,40.17165476397019L181.13333333333333,40.21588168555702L181.56666666666666,40.32644898952409L181.91333333333333,40.41489346655595L182.17333333333332,40.481233848936185L182.69333333333333,40.613914613696664L182.78,40.636018708348274L182.86666666666667,40.658132169141695L183.12666666666667,40.72447255152194L183.56,40.835039855489015L184.07999999999998,40.967711254107684L184.16666666666669,40.989824714901104L184.25333333333333,41.011938175694524L184.51333333333332,41.07827855807476L184.77333333333334,41.144618940455004L185.03333333333333,41.21094995669345L185.12,41.233063417486846L185.46666666666667,41.321517260660514L185.55333333333334,41.343630721453934L185.64,41.36574418224733L185.9,41.43208456462759L186.07333333333332,41.47630212007261L186.33333333333334,41.54264250245284L186.59333333333333,41.6089828848331L186.85333333333332,41.67532326721333L187.2,41.763767744245186L187.2866666666667,41.785881205038606L187.37333333333333,41.80799466583202L187.45999999999998,41.83010812662542L187.54666666666668,41.85222158741884L187.72,41.89644850900567L187.80666666666667,41.918561969799086L187.89333333333335,41.940675430592506L187.98,41.962788891385905L188.67333333333335,42.139687211591415L188.8466666666667,42.18391413317825L188.93333333333334,42.20602759397167L189.01999999999998,42.22814105476508L189.36666666666667,42.316585531796925L189.54,42.36081245338376L189.62666666666667,42.38292591417718L189.88666666666666,42.44926629655741L189.97333333333333,42.471379757350824L192.05333333333334,43.002084084109164L192.14,43.02419754490256L192.48666666666665,43.11265138807623L192.57333333333335,43.13475548272784L192.66,43.15686894352126L192.92,43.22320932590149L193.09333333333333,43.26743624748833L193.35333333333335,43.33377662986856L193.44,43.35589009066197L193.61333333333334,43.400107646107L193.7,43.422221106900416L193.78666666666666,43.444334567693836L194.13333333333335,43.53278841086748L194.39333333333335,43.599128793247736L194.74,43.68757327027958L195.34666666666666,43.84236749583348L195.43333333333334,43.8644809566269L195.52,43.88659441742031L195.60666666666665,43.90870787821371L196.47333333333336,44.129833120006055L196.56,44.151946580799475L196.73333333333335,44.19617350238631L197.08,44.28461797941815L197.51333333333335,44.39518528338522L197.94666666666666,44.50575258735228L198.12,44.54997014279733L198.20666666666665,44.57208360359073L198.38,44.61631052517756L198.46666666666667,44.63842398597098L198.55333333333334,44.660537446764394L198.9,44.74899128993805L199.07333333333335,44.79320884538307L199.16,44.81532230617649L199.33333333333334,44.8595492277633L199.59333333333333,44.92588961014356L199.76666666666665,44.97011653173039L200.11333333333334,45.05857037490404L200.20000000000002,45.080674469555646L200.54666666666665,45.1691283127293L200.63333333333333,45.19124177352272L200.98000000000002,45.279695616696365L201.06666666666666,45.301809077489786L201.24,45.34602663293481L201.32666666666665,45.36814009372823L201.41333333333333,45.39025355452164L201.67333333333332,45.456593936901875L202.28,45.61138816245578L202.36666666666667,45.633492257107385L202.45333333333332,45.655605717900805L202.7133333333333,45.72194610028106L203.06,45.810399943454705L203.58,45.94307134207338L204.01333333333332,46.05363864604045L204.1,46.07575210683387L204.44666666666666,46.164205950007535L204.53333333333333,46.186310044659145L204.70666666666668,46.23053696624596L205.31333333333333,46.385331191799864L205.66,46.47377566883172L205.83333333333331,46.518002590418554L205.92000000000002,46.54011605121195L206.52666666666667,46.69491027676585L206.70000000000002,46.73912783221088L206.87333333333333,46.78335475379772L207.04666666666668,46.82758167538453L207.48000000000002,46.93814897935162L207.91333333333333,47.04870691717687L208.08666666666667,47.09293383876371L208.17333333333332,47.115047299557126L208.26000000000002,47.137160760350525L208.52,47.20350114273078L208.78,47.26984152511101L208.95333333333332,47.314059080556035L209.04000000000002,47.336172541349455L209.21333333333334,47.38039946293629L209.3,47.4025129237297L209.82000000000002,47.53519368849019L210.16666666666666,47.62363816552203L210.34,47.667865087108865L211.12,47.866876868107795L211.38,47.93321725048803L211.64,47.999557632868274L211.81333333333333,48.043784554455094L212.67999999999998,48.26490979624744L212.94,48.33125017862767L213.02666666666667,48.35336363942109L213.54666666666668,48.48603503803978L213.80666666666667,48.55237542042001L214.58666666666667,48.75138720141894L214.93333333333334,48.83984104459259L215.01999999999998,48.86195450538601L215.36666666666667,48.95040834855966L215.97333333333333,49.10519320797175L216.06,49.12730666876517L216.66666666666669,49.28209152817726L217.1,49.39265883214433L217.18666666666667,49.41477229293775L217.27333333333334,49.43688575373116L217.4466666666667,49.481112675318L217.62,49.525330230763025L217.96666666666667,49.61378407393667L218.05333333333334,49.63589753473009L218.31333333333333,49.702237917110324L218.74666666666667,49.8127958549356L219.26666666666668,49.94547661969609L219.44,49.9897035412829L219.7,50.056043923663154L220.13333333333333,50.16660186148841L220.30666666666667,50.21082878307524L220.39333333333335,50.23294224386866L220.48,50.255055704662084L220.65333333333334,50.299282626248896L220.73999999999998,50.32139608704232L220.82666666666668,50.34350954783573L221.08666666666667,50.40984056407417L221.17333333333335,50.43195402486759L221.26,50.45406748566101L221.60666666666668,50.54252132883466L221.78,50.58674825042147L222.29999999999998,50.71941964904017L222.56,50.7857600314204L222.82,50.852100413800656L222.99333333333334,50.89632733538747L223.42666666666665,51.006885273212745L223.94666666666666,51.13956603797323L224.38,51.25012397579849L224.55333333333334,51.29435089738532L224.72666666666666,51.338577818972155L224.81333333333333,51.360691279765554L224.9,51.382804740558974L224.98666666666665,51.40491820135239L225.07333333333335,51.42703166214581L225.16,51.44914512293923L226.02666666666664,51.67027036473155L226.37333333333333,51.75871484176341L226.63333333333335,51.82505522414366L226.98,51.913509067317314L227.76,52.11252084831624L228.02,52.17886123069647L228.36666666666665,52.26731507387012L228.45333333333335,52.289419168521746L228.62666666666667,52.333646090108566L228.71333333333334,52.35575955090198L228.88666666666666,52.39998647248882L228.97333333333336,52.42209993328223L229.49333333333334,52.5547806980427L230.01333333333335,52.687452096661396L230.36,52.77590593983504L230.70666666666665,52.864350416866905L230.88,52.90857733845372L230.96666666666667,52.93069079924714L231.31333333333333,53.019144642420805L231.66,53.10759848559446L231.83333333333334,53.15181604103948L232.00666666666666,53.196042962626315L232.61333333333334,53.3508371881802L232.70000000000002,53.372950648973614L233.04666666666665,53.46139512600548L233.39333333333332,53.54984896917912L233.6533333333333,53.61618935155938L233.82666666666665,53.6604162731462L233.91333333333333,53.6825203677978L234,53.70463382859122L234.26000000000002,53.770974210971474L234.4333333333333,53.815201132558286L234.52,53.83731459335171L234.69333333333333,53.88154151493854L234.86666666666667,53.92576843652535L235.12666666666667,53.992099452763796L235.3,54.03632637435063L235.47333333333333,54.08055329593746L235.56,54.10266675673086L235.64666666666668,54.12478021752428L235.82,54.169007139111116L235.9933333333333,54.21323406069795L236.42666666666668,54.323791998523205L236.6,54.368018920110046L236.68666666666667,54.39013238090346L236.86,54.43435930249028L237.29333333333332,54.544917240315556L237.46666666666667,54.58914416190237L237.64000000000001,54.6333710834892L237.72666666666666,54.65548454428262L237.98666666666668,54.721824926662855L238.68,54.898723246868364L239.20000000000002,55.03140401162885L239.63333333333333,55.14196194945413L239.72,55.16407541024754L239.89333333333332,55.20830233183436L240.15333333333334,55.27464271421461L240.32666666666668,55.31886963580143L240.5,55.36308719124645L240.67333333333332,55.407314112833284L240.76000000000002,55.429427573626704L241.19333333333333,55.53999487759377L241.28,55.56210833838719L241.36666666666667,55.584221799180604L241.62666666666667,55.650552815419026L241.71333333333334,55.672666276212446L241.97333333333333,55.7390066585927L242.49333333333334,55.87168742335318L242.58,55.89380088414658L242.75333333333333,55.93801843959162L242.92666666666668,55.98224536117844L243.10000000000002,56.026472282765276L243.18666666666667,56.04858574355869L244.14,56.29182444614443L244.22666666666666,56.31393790693785L244.31333333333333,56.33605136773127L244.57333333333332,56.402391750111505L245.00666666666666,56.51294968793678L245.09333333333333,56.535063148730195L245.52666666666667,56.64563045269726L245.61333333333334,56.66774391349066L245.7,56.68985737428408L245.78666666666666,56.711970835077494L245.95999999999998,56.756188390522524L246.04666666666668,56.77830185131594L246.13333333333333,56.80041531210936L246.39333333333332,56.86675569448959L247.34666666666666,57.109994397075354L247.86666666666667,57.242675161835834L248.04,57.28690208342265L248.47333333333333,57.39746002124793L248.73333333333332,57.46380040362816L248.82,57.485913864421576L248.90666666666667,57.508027325215L249.07999999999998,57.55225424680183L249.68666666666667,57.70703910621393L249.9466666666667,57.77337948859416L250.12,57.81760641018099L250.38,57.883937426419436L250.55333333333334,57.92816434800625L250.7266666666667,57.97239126959308L251.07333333333332,58.060845112766735L251.42,58.14928958979859L251.5066666666667,58.17140305059201L251.59333333333333,58.193516511385425L251.68,58.215629972178824L251.85333333333332,58.25985689376566L252.02666666666667,58.3040838153525L252.11333333333334,58.32619727614591L252.2,58.34831073693931L252.37333333333333,58.392537658526145L252.45999999999998,58.414641753177754L252.54666666666668,58.43675521397117L252.72,58.48098213555801" style="fill: none;" fill="none"></path></g></g></g></g></g></g><g transform="translate(70, 177)" clip-path="url(#clip_1)"><clipPath id="clip_1"><rect width="260" height="22"></rect></clipPath><g><g><line x1="0" y1="0" x2="0" y2="5" style="visibility: inherit;" fill="rgb(0, 0, 0)" stroke="rgb(204, 204, 204)" stroke-width="1px"></line><line x1="17.333333333333332" y1="0" x2="17.333333333333332" y2="5" style="visibility: inherit;" fill="rgb(0, 0, 0)" stroke="rgb(204, 204, 204)" stroke-width="1px"></line><line x1="34.666666666666664" y1="0" x2="34.666666666666664" y2="5" style="visibility: inherit;" fill="rgb(0, 0, 0)" stroke="rgb(204, 204, 204)" stroke-width="1px"></line><line x1="52" y1="0" x2="52" y2="5" style="visibility: inherit;" fill="rgb(0, 0, 0)" stroke="rgb(204, 204, 204)" stroke-width="1px"></line><line x1="69.33333333333333" y1="0" x2="69.33333333333333" y2="5" style="visibility: inherit;" fill="rgb(0, 0, 0)" stroke="rgb(204, 204, 204)" stroke-width="1px"></line><line x1="86.66666666666666" y1="0" x2="86.66666666666666" y2="5" style="visibility: inherit;" fill="rgb(0, 0, 0)" stroke="rgb(204, 204, 204)" stroke-width="1px"></line><line x1="104" y1="0" x2="104" y2="5" style="visibility: inherit;" fill="rgb(0, 0, 0)" stroke="rgb(204, 204, 204)" stroke-width="1px"></line><line x1="121.33333333333333" y1="0" x2="121.33333333333333" y2="5" style="visibility: inherit;" fill="rgb(0, 0, 0)" stroke="rgb(204, 204, 204)" stroke-width="1px"></line><line x1="138.66666666666666" y1="0" x2="138.66666666666666" y2="5" style="visibility: inherit;" fill="rgb(0, 0, 0)" stroke="rgb(204, 204, 204)" stroke-width="1px"></line><line x1="156" y1="0" x2="156" y2="5" style="visibility: inherit;" fill="rgb(0, 0, 0)" stroke="rgb(204, 204, 204)" stroke-width="1px"></line><line x1="173.33333333333331" y1="0" x2="173.33333333333331" y2="5" style="visibility: inherit;" fill="rgb(0, 0, 0)" stroke="rgb(204, 204, 204)" stroke-width="1px"></line><line x1="190.66666666666666" y1="0" x2="190.66666666666666" y2="5" style="visibility: inherit;" fill="rgb(0, 0, 0)" stroke="rgb(204, 204, 204)" stroke-width="1px"></line><line x1="208" y1="0" x2="208" y2="5" style="visibility: inherit;" fill="rgb(0, 0, 0)" stroke="rgb(204, 204, 204)" stroke-width="1px"></line><line x1="225.33333333333334" y1="0" x2="225.33333333333334" y2="5" style="visibility: inherit;" fill="rgb(0, 0, 0)" stroke="rgb(204, 204, 204)" stroke-width="1px"></line><line x1="242.66666666666666" y1="0" x2="242.66666666666666" y2="5" style="visibility: inherit;" fill="rgb(0, 0, 0)" stroke="rgb(204, 204, 204)" stroke-width="1px"></line><line x1="260" y1="0" x2="260" y2="5" style="visibility: inherit;" fill="rgb(0, 0, 0)" stroke="rgb(204, 204, 204)" stroke-width="1px"></line></g><g transform="translate(0, 8)"><text x="0" y="0" dx="0em" dy="0.95em" style="text-anchor: middle; visibility: hidden; font-family: Roboto, sans-serif; font-size: 12px; font-weight: 200;" fill="rgb(33, 33, 33)" stroke="none" stroke-width="1px">-200</text><text x="17.333333333333332" y="0" dx="0em" dy="0.95em" style="text-anchor: middle; visibility: inherit; font-family: Roboto, sans-serif; font-size: 12px; font-weight: 200;" fill="rgb(33, 33, 33)" stroke="none" stroke-width="1px">0</text><text x="34.666666666666664" y="0" dx="0em" dy="0.95em" style="text-anchor: middle; visibility: hidden; font-family: Roboto, sans-serif; font-size: 12px; font-weight: 200;" fill="rgb(33, 33, 33)" stroke="none" stroke-width="1px">200</text><text x="52" y="0" dx="0em" dy="0.95em" style="text-anchor: middle; visibility: inherit; font-family: Roboto, sans-serif; font-size: 12px; font-weight: 200;" fill="rgb(33, 33, 33)" stroke="none" stroke-width="1px">400</text><text x="69.33333333333333" y="0" dx="0em" dy="0.95em" style="text-anchor: middle; visibility: hidden; font-family: Roboto, sans-serif; font-size: 12px; font-weight: 200;" fill="rgb(33, 33, 33)" stroke="none" stroke-width="1px">600</text><text x="86.66666666666666" y="0" dx="0em" dy="0.95em" style="text-anchor: middle; visibility: inherit; font-family: Roboto, sans-serif; font-size: 12px; font-weight: 200;" fill="rgb(33, 33, 33)" stroke="none" stroke-width="1px">800</text><text x="104" y="0" dx="0em" dy="0.95em" style="text-anchor: middle; visibility: hidden; font-family: Roboto, sans-serif; font-size: 12px; font-weight: 200;" fill="rgb(33, 33, 33)" stroke="none" stroke-width="1px">1k</text><text x="121.33333333333333" y="0" dx="0em" dy="0.95em" style="text-anchor: middle; visibility: inherit; font-family: Roboto, sans-serif; font-size: 12px; font-weight: 200;" fill="rgb(33, 33, 33)" stroke="none" stroke-width="1px">1.2k</text><text x="138.66666666666666" y="0" dx="0em" dy="0.95em" style="text-anchor: middle; visibility: hidden; font-family: Roboto, sans-serif; font-size: 12px; font-weight: 200;" fill="rgb(33, 33, 33)" stroke="none" stroke-width="1px">1.4k</text><text x="156" y="0" dx="0em" dy="0.95em" style="text-anchor: middle; visibility: inherit; font-family: Roboto, sans-serif; font-size: 12px; font-weight: 200;" fill="rgb(33, 33, 33)" stroke="none" stroke-width="1px">1.6k</text><text x="173.33333333333331" y="0" dx="0em" dy="0.95em" style="text-anchor: middle; visibility: hidden; font-family: Roboto, sans-serif; font-size: 12px; font-weight: 200;" fill="rgb(33, 33, 33)" stroke="none" stroke-width="1px">1.8k</text><text x="190.66666666666666" y="0" dx="0em" dy="0.95em" style="text-anchor: middle; visibility: inherit; font-family: Roboto, sans-serif; font-size: 12px; font-weight: 200;" fill="rgb(33, 33, 33)" stroke="none" stroke-width="1px">2k</text><text x="208" y="0" dx="0em" dy="0.95em" style="text-anchor: middle; visibility: hidden; font-family: Roboto, sans-serif; font-size: 12px; font-weight: 200;" fill="rgb(33, 33, 33)" stroke="none" stroke-width="1px">2.2k</text><text x="225.33333333333334" y="0" dx="0em" dy="0.95em" style="text-anchor: middle; visibility: inherit; font-family: Roboto, sans-serif; font-size: 12px; font-weight: 200;" fill="rgb(33, 33, 33)" stroke="none" stroke-width="1px">2.4k</text><text x="242.66666666666666" y="0" dx="0em" dy="0.95em" style="text-anchor: middle; visibility: hidden; font-family: Roboto, sans-serif; font-size: 12px; font-weight: 200;" fill="rgb(33, 33, 33)" stroke="none" stroke-width="1px">2.6k</text><text x="260" y="0" dx="0em" dy="0.95em" style="text-anchor: middle; visibility: hidden; font-family: Roboto, sans-serif; font-size: 12px; font-weight: 200;" fill="rgb(33, 33, 33)" stroke="none" stroke-width="1px">2.8k</text></g><line x1="0" y1="0" x2="260" y2="0" fill="rgb(0, 0, 0)" stroke="rgb(204, 204, 204)" stroke-width="1px"></line></g></g></g></g></svg>