<svg viewBox="0 0 330 200" xmlns="http://www.w3.org/2000/svg"><g><g><g><g><g><line x1="40" y1="177" x2="35" y2="177" style="visibility: inherit;" fill="rgb(0, 0, 0)" stroke="rgb(204, 204, 204)" stroke-width="1px"></line><line x1="40" y1="157.33333333333331" x2="35" y2="157.33333333333331" style="visibility: inherit;" fill="rgb(0, 0, 0)" stroke="rgb(204, 204, 204)" stroke-width="1px"></line><line x1="40" y1="137.66666666666666" x2="35" y2="137.66666666666666" style="visibility: inherit;" fill="rgb(0, 0, 0)" stroke="rgb(204, 204, 204)" stroke-width="1px"></line><line x1="40" y1="118.00000000000001" x2="35" y2="118.00000000000001" style="visibility: inherit;" fill="rgb(0, 0, 0)" stroke="rgb(204, 204, 204)" stroke-width="1px"></line><line x1="40" y1="98.33333333333334" x2="35" y2="98.33333333333334" style="visibility: inherit;" fill="rgb(0, 0, 0)" stroke="rgb(204, 204, 204)" stroke-width="1px"></line><line x1="40" y1="78.66666666666666" x2="35" y2="78.66666666666666" style="visibility: inherit;" fill="rgb(0, 0, 0)" stroke="rgb(204, 204, 204)" stroke-width="1px"></line><line x1="40" y1="59.00000000000001" x2="35" y2="59.00000000000001" style="visibility: inherit;" fill="rgb(0, 0, 0)" stroke="rgb(204, 204, 204)" stroke-width="1px"></line><line x1="40" y1="39.33333333333333" x2="35" y2="39.33333333333333" style="visibility: inherit;" fill="rgb(0, 0, 0)" stroke="rgb(204, 204, 204)" stroke-width="1px"></line><line x1="40" y1="19.666666666666675" x2="35" y2="19.666666666666675" style="visibility: inherit;" fill="rgb(0, 0, 0)" stroke="rgb(204, 204, 204)" stroke-width="1px"></line><line x1="40" y1="0" x2="35" y2="0" style="visibility: inherit;" fill="rgb(0, 0, 0)" stroke="rgb(204, 204, 204)" stroke-width="1px"></line></g><g transform="translate(30, 0)"><text x="0" y="177" dx="0em" dy="0.3em" style="text-anchor: end; visibility: hidden; font-family: Roboto, sans-serif; font-size: 12px; font-weight: 200;" fill="rgb(33, 33, 33)" stroke="none" stroke-width="1px">1</text><text x="0" y="157.33333333333331" dx="0em" dy="0.3em" style="text-anchor: end; visibility: inherit; font-family: Roboto, sans-serif; font-size: 12px; font-weight: 200;" fill="rgb(33, 33, 33)" stroke="none" stroke-width="1px">1.5</text><text x="0" y="137.66666666666666" dx="0em" dy="0.3em" style="text-anchor: end; visibility: hidden; font-family: Roboto, sans-serif; font-size: 12px; font-weight: 200;" fill="rgb(33, 33, 33)" stroke="none" stroke-width="1px">2</text><text x="0" y="118.00000000000001" dx="0em" dy="0.3em" style="text-anchor: end; visibility: inherit; font-family: Roboto, sans-serif; font-size: 12px; font-weight: 200;" fill="rgb(33, 33, 33)" stroke="none" stroke-width="1px">2.5</text><text x="0" y="98.33333333333334" dx="0em" dy="0.3em" style="text-anchor: end; visibility: hidden; font-family: Roboto, sans-serif; font-size: 12px; font-weight: 200;" fill="rgb(33, 33, 33)" stroke="none" stroke-width="1px">3</text><text x="0" y="78.66666666666666" dx="0em" dy="0.3em" style="text-anchor: end; visibility: inherit; font-family: Roboto, sans-serif; font-size: 12px; font-weight: 200;" fill="rgb(33, 33, 33)" stroke="none" stroke-width="1px">3.5</text><text x="0" y="59.00000000000001" dx="0em" dy="0.3em" style="text-anchor: end; visibility: hidden; font-family: Roboto, sans-serif; font-size: 12px; font-weight: 200;" fill="rgb(33, 33, 33)" stroke="none" stroke-width="1px">4</text><text x="0" y="39.33333333333333" dx="0em" dy="0.3em" style="text-anchor: end; visibility: inherit; font-family: Roboto, sans-serif; font-size: 12px; font-weight: 200;" fill="rgb(33, 33, 33)" stroke="none" stroke-width="1px">4.5</text><text x="0" y="19.666666666666675" dx="0em" dy="0.3em" style="text-anchor: end; visibility: hidden; font-family: Roboto, sans-serif; font-size: 12px; font-weight: 200;" fill="rgb(33, 33, 33)" stroke="none" stroke-width="1px">5</text><text x="0" y="0" dx="0em" dy="0.3em" style="text-anchor: end; visibility: hidden; font-family: Roboto, sans-serif; font-size: 12px; font-weight: 200;" fill="rgb(33, 33, 33)" stroke="none" stroke-width="1px">5.5</text></g><line x1="40" y1="0" x2="40" y2="177" fill="rgb(0, 0, 0)" stroke="rgb(204, 204, 204)" stroke-width="1px"></line></g></g><g transform="translate(40, 0)" clip-path="url(#clip_0)"><clipPath id="clip_0"><rect width="290" height="176"></rect></clipPath><g><g><g><line x1="0" y1="0" x2="0" y2="177" fill="rgb(0, 0, 0)" stroke="rgb(66, 66, 66)" stroke-width="1px" opacity="0.25"></line><line x1="29" y1="0" x2="29" y2="177" fill="rgb(0, 0, 0)" stroke="rgb(66, 66, 66)" stroke-width="1px" opacity="0.25"></line><line x1="58" y1="0" x2="58" y2="177" fill="rgb(0, 0, 0)" stroke="rgb(66, 66, 66)" stroke-width="1px" opacity="0.25"></line><line x1="87" y1="0" x2="87" y2="177" fill="rgb(0, 0, 0)" stroke="rgb(66, 66, 66)" stroke-width="1px" opacity="0.25"></line><line x1="116" y1="0" x2="116" y2="177" fill="rgb(0, 0, 0)" stroke="rgb(66, 66, 66)" stroke-width="1px" opacity="0.25"></line><line x1="145" y1="0" x2="145" y2="177" fill="rgb(0, 0, 0)" stroke="rgb(66, 66, 66)" stroke-width="1px" opacity="0.25"></line><line x1="174" y1="0" x2="174" y2="177" fill="rgb(0, 0, 0)" stroke="rgb(66, 66, 66)" stroke-width="1px" opacity="0.25"></line><line x1="203" y1="0" x2="203" y2="177" fill="rgb(0, 0, 0)" stroke="rgb(66, 66, 66)" stroke-width="1px" opacity="0.25"></line><line x1="232" y1="0" x2="232" y2="177" fill="rgb(0, 0, 0)" stroke="rgb(66, 66, 66)" stroke-width="1px" opacity="0.25"></line><line x1="261" y1="0" x2="261" y2="177" fill="rgb(0, 0, 0)" stroke="rgb(66, 66, 66)" stroke-width="1px" opacity="0.25"></line><line x1="290" y1="0" x2="290" y2="177" fill="rgb(0, 0, 0)" stroke="rgb(66, 66, 66)" stroke-width="1px" opacity="0.25"></line></g><g><line x1="0" y1="177" x2="290" y2="177" fill="rgb(0, 0, 0)" stroke="rgb(66, 66, 66)" stroke-width="1px" opacity="0.25"></line><line x1="0" y1="157.33333333333331" x2="290" y2="157.33333333333331" fill="rgb(0, 0, 0)" stroke="rgb(66, 66, 66)" stroke-width="1px" opacity="0.25"></line><line x1="0" y1="137.66666666666666" x2="290" y2="137.66666666666666" fill="rgb(0, 0, 0)" stroke="rgb(66, 66, 66)" stroke-width="1px" opacity="0.25"></line><line x1="0" y1="118.00000000000001" x2="290" y2="118.00000000000001" fill="rgb(0, 0, 0)" stroke="rgb(66, 66, 66)" stroke-width="1px" opacity="0.25"></line><line x1="0" y1="98.33333333333334" x2="290" y2="98.33333333333334" fill="rgb(0, 0, 0)" stroke="rgb(66, 66, 66)" stroke-width="1px" opacity="0.25"></line><line x1="0" y1="78.66666666666666" x2="290" y2="78.66666666666666" fill="rgb(0, 0, 0)" stroke="rgb(66, 66, 66)" stroke-width="1px" opacity="0.25"></line><line x1="0" y1="59.00000000000001" x2="290" y2="59.00000000000001" fill="rgb(0, 0, 0)" stroke="rgb(66, 66, 66)" stroke-width="1px" opacity="0.25"></line><line x1="0" y1="39.33333333333333" x2="290" y2="39.33333333333333" fill="rgb(0, 0, 0)" stroke="rgb(66, 66, 66)" stroke-width="1px" opacity="0.25"></line><line x1="0" y1="19.666666666666675" x2="290" y2="19.666666666666675" fill="rgb(0, 0, 0)" stroke="rgb(66, 66, 66)" stroke-width="1px" opacity="0.25"></line><line x1="0" y1="0" x2="290" y2="0" fill="rgb(0, 0, 0)" stroke="rgb(66, 66, 66)" stroke-width="1px" opacity="0.25"></line></g></g></g><g><g><line x1="0" y1="216.33333333333334" x2="290" y2="216.33333333333334" fill="rgb(0, 0, 0)" stroke="rgb(153, 153, 153)" stroke-width="1.5px"></line></g></g><g><g><line x1="29" y1="0" x2="29" y2="177" fill="rgb(0, 0, 0)" stroke="rgb(153, 153, 153)" stroke-width="1.5px"></line></g></g><g><g><g><g><g><path stroke="rgb(255, 112, 67)" stroke-width="2px" d="M29.261000000000003,11.665323575337732L29.6815,19.964709480603542L29.899,26.67692661285401L29.913500000000003,30.26126215270921L30.029500000000002,32.88027291713752L30.2905,37.61832824369674L30.493499999999997,42.15637781377498L30.5515,45.05262973909905L30.855999999999998,47.818511593118586L31.32,49.441404460429624L31.378,51.083643229980666L31.494,51.93369474202505L31.769499999999997,52.5539135008104L31.9435,53.23076109515022L32.320499999999996,55.3023149377729L32.538,53.35489009456236L32.7555,54.48911074292476L33.089,54.56469591885359L33.1325,53.788076842466005L33.582,51.88616984368935L33.6255,52.20998926800306L34.017,52.81986081553344L34.191,51.90289328705703L34.307,53.00182965495903L34.597,52.93692753399391L34.829,53.36017003940854L35.0175,55.17299169643344L35.322,54.12372972711136L35.3365,54.305855385875454L35.467,54.18767033532116L35.6845,53.464034524029756L35.7425,53.22725950172607L35.8875,54.22206869002735L35.9745,54.44803601520908L36.395,52.43888408475924L36.728500000000004,53.54010607663459L36.801,54.456493028889895L36.83,54.48033578934628L37.062,56.56272336952318L37.149,57.488216781536664L37.613,59.17178189725797L37.642,59.116475637555034L38.2365,63.05115801753956L38.323499999999996,64.63623604004638L38.338,64.9991148998224L38.541,65.61741670909704L38.6715,64.7410306986432L38.7875,64.0573032412531L39.4545,68.26967946576401L40.077999999999996,68.21940751008543L40.237500000000004,68.84767825086631L40.339,69.38110361901906L40.426,68.10496768797007L40.657999999999994,67.24699734912963L41.426500000000004,65.90418188929462L41.557,66.7412951697506L41.847,67.84147649861983L42.659000000000006,68.65746304506635L43.4855,69.27749263315152L43.558,69.23917923213294L43.7175,69.1540839146053L43.819,69.89839148544128L43.876999999999995,72.53840158794041L43.906,70.67868161845433L44.036500000000004,71.44608766624269L44.312,70.22734663559359L44.5295,71.36848055724322L44.616499999999995,70.26818719349716L44.921,68.82674311901577L45.0805,71.07422885480787L45.1095,69.40386475632548L45.3125,69.08472881422418L45.413999999999994,69.65889564577327L45.689499999999995,72.14392677599342L45.704,72.62483288240922L45.878,72.56999536390596L46.023,71.42102242331998L46.052,70.76684291057565L46.168,72.32110593453712L46.660999999999994,72.11510161003868L46.7625,71.83605639601586L47.153999999999996,72.60316429415249L47.183,74.63883898583394L47.2265,74.67318344470269L47.2845,74.96473719491405L47.3715,74.41270258713071L47.4295,75.26429966303691L47.821,74.5738570245881L48.212500000000006,75.31782444831407L48.502500000000005,75.79061653127279L48.9375,76.45901029453678L48.952,76.31045885769132L49.5465,76.39416455360812L49.8655,79.75621715664403L50.1265,79.39625583974244L50.141,78.61704478395613L50.663,79.96237393458267L50.779,81.65904425922778L50.894999999999996,80.6595071117704L50.9385,80.87593078378588L51.446,79.69045886852591L51.48950000000001,81.39086763933253L51.692499999999995,82.78218484446377L51.736000000000004,83.54020476654152L51.8085,83.58870301434386L51.982499999999995,83.23756978783402L52.141999999999996,82.51768295292098L52.5915,83.41748436485153L52.707499999999996,84.65492704825256L53.214999999999996,85.52320893992973L53.4325,84.98391304248567L53.678999999999995,86.40080594520168L53.708,86.58346757591009L53.75149999999999,87.11569937845213L53.8095,87.06416532663592L54.7375,87.91500918031585L54.7665,90.07073752062034L54.9405,93.5492801029077L55.7815,92.96675678244772L55.97,93.00617756139165L56.0715,93.41027601773101L56.535500000000006,92.5538335336122L56.579,92.9867317175591L56.666,95.09055822863525L56.6805,97.23662151758481L57.072,97.36657039641105L57.13,97.08557639312008L57.2025,97.08244560037808L57.42,97.158837973325L57.4345,97.10242539599452L57.695499999999996,96.34734270148427L59.01499999999999,98.80554027461774L59.1455,100.93327730757258L59.290499999999994,103.27199259914313L59.449999999999996,100.8058525215627L59.6675,100.15202983365702L59.7255,102.57604634054249L60.813,102.55123248470473L61.030499999999996,102.7535414622584L61.1175,101.85548149305735L61.4655,102.08305913661812L61.538,100.98647787444727L62.6255,102.06108469728392L63.2055,104.73401130217567L63.713,105.68384219593759L64.322,106.39359370104644L64.3945,106.61667036552531L64.583,107.28725272539835L64.699,106.32214297129859L64.7425,108.59161685272545L65.0325,109.06975511529737L65.2935,109.05304125836706L65.4965,109.63037065600086L65.52550000000001,110.30482990702828L65.685,110.97221132414045L66.3665,111.71523737289408L66.381,111.67696359581491L66.68549999999999,111.57296390628858L67.0915,112.58401430823034L67.20750000000001,115.09975404646572L67.3235,113.28693684204363L67.715,113.80213341870274L67.773,114.4884076223276L67.8745,114.84203730258359L67.91799999999999,112.93394012192694L68.0485,113.17240071459497L68.266,113.50670536456835L68.3965,113.14592944839596L68.643,113.49526392971873L68.71549999999999,113.33617838753501L68.72999999999999,113.68373796462956L68.9185,113.67720330429043L68.93299999999999,111.3827704867043L68.94749999999999,113.11671870630886L69.0925,112.74378979413852L69.136,113.52899342502641L69.3825,113.68792497550737L69.774,114.64275904159918L70.093,113.68821883794372L70.238,111.97431429582856L70.4845,112.53970198844685L70.49900000000001,114.39567705600349L71.3545,114.54793282712829L71.804,115.17426712730725L71.8475,115.3305634781869L71.949,114.91438041479299L71.99249999999999,115.00442817817674L72.1085,118.14504258042899L72.77550000000001,118.05855830633436L72.993,117.3199879017897L73.1815,117.43411564553347L73.70349999999999,117.52525655264398L73.71799999999999,117.45330707133655L73.9935,117.19564089715983L74.008,118.95027072553141L74.0225,117.6906975864826L74.2255,116.93846475041657L74.24,116.95638253066986L74.2545,119.13135254645775L74.35600000000001,119.8201982593403L74.60249999999999,119.19440071677361L75.0085,119.15481614010648L75.284,120.36248648327859L75.38550000000001,117.45830120342337L75.458,118.9347827774129L75.6465,118.56125603170247L75.69,118.382250941104L75.9945,117.72424738981701L76.3425,117.15756898747905L76.38600000000001,117.8399481790882L76.937,117.28130566384125L77.43,116.16639755947824L77.66199999999999,117.78403729667328L77.923,117.42716015062767L78.0825,117.64240569680156L78.358,119.79975679800444L78.56099999999999,121.27823486697L79.1845,120.86975273353647L79.5035,123.82310006338037L79.518,121.52599962543057L79.6195,119.91831717485552L79.6485,119.95637430505573L79.75,121.36990218414837L80.127,123.03056754899406L80.707,121.35049461264838L80.75049999999999,121.41483574870881L80.852,120.13525595921472L81.026,120.39218250110665L81.2,120.0530962896044L81.38850000000001,122.31646292716435L81.403,120.96145985112688L81.432,124.26728042117416L81.983,122.88056866418316L82.0265,122.32272590055662L82.0555,124.36196840318797L82.0845,123.15178040969028L82.128,122.87094794297805L82.18599999999999,122.92388451845206L82.2295,124.0413103227859L82.505,123.41730341067185L82.82400000000001,124.30392043243012L82.8965,124.15587279270187L83.433,124.98205841225445L83.5345,125.64587993209794L83.5635,126.16415988674899L83.83900000000001,125.59706968032006L84.79599999999999,122.11671634890249L84.82499999999999,120.82853550341294L85.1005,122.41839682237249L85.579,122.60142115260724L85.70949999999999,122.87887700898784L85.7675,123.62265898686653L85.85449999999999,123.3207524889827L86.02850000000001,124.04021099452893L86.072,123.38667237308454L86.507,125.16365625588197L86.6375,125.12199110663789L86.72449999999999,126.26690975950278L87.17399999999999,124.01610085244647L87.203,124.03215190296773L87.33349999999999,125.41474459484459L87.49300000000001,125.78969084768639L87.58,126.8461503876198L87.6815,124.56008007683052L88.218,126.68845321272428L88.5805,126.46741521478462L88.6675,124.33706648421746L88.7545,125.63922198179839L88.798,125.66098120747098L89.117,125.11724689963312L89.6245,124.74053125796429L89.78399999999999,124.25955332051343L90.2915,125.96238310772553L90.6105,126.72402340355539L90.7265,126.47813416033799L91.611,125.8737930964022L91.756,125.8610065605594L91.84299999999999,129.64384786842388L92.72749999999999,128.67361741398642L93.30749999999999,127.79205357115393L93.4235,128.47557819931265L93.583,127.58191280195248L93.75699999999999,128.12224344787478L94.6125,126.84159310089039L94.7575,127.76394850071163L94.8155,127.26407003833387L95.178,126.86908960600815L95.236,128.1391321515647L95.323,128.72134403957568L95.8305,127.41859209879424L95.874,126.08207541511963L96.41050000000001,128.94906735702264L96.55550000000001,130.1302229739263L96.947,130.35780532620558L97.00500000000001,130.74435931520983L97.034,130.25256206638014L97.121,130.38535510329243L97.2515,131.04935398197873L97.58500000000001,131.20322161414245L97.6865,131.94274900852454L98.0055,133.22212097544758L98.194,132.19762080609374L98.252,130.6913659991795L98.2665,131.6827909562175L98.7015,131.4489224680176L99.03500000000001,131.92352981137697L99.06400000000001,130.1599506861019L99.1075,128.97352619525086L99.122,130.47957311206832L99.238,129.55559232712056L99.789,129.0566153856929L99.9775,130.28338698145643L100.195,130.4052867309067L100.4705,131.14994439775626L100.63,129.93404050645162L100.7605,131.61645642107882L101.21,128.1551198116113L101.3695,127.8741810610594L101.8335,129.01380179866362L102.1815,128.50846952524313L102.45700000000001,130.0382206896535L102.6455,129.85240215815654L102.66,130.98447074944306L102.776,130.95933803590853L102.80499999999999,132.27391755187145L103.41399999999999,132.15966214102684L103.47200000000001,131.61229356147157L103.53,130.5736392975885L103.6895,130.90748847967618L103.733,131.82016549177706L103.7475,129.93302915295604L104.2115,130.33887493094193L104.371,132.82098643470042L104.39999999999999,132.00628980291822L104.47250000000001,131.33199024375045L104.50150000000001,130.0148345321959L104.661,130.1178738409606L104.7625,132.52925206031367L104.951,133.618094703392L105.1685,135.0239610319351L105.29899999999999,135.46026310394296L105.3425,136.0000097656454L105.7775,135.3157933019125L106.111,131.37044897054773L106.1255,131.8980409048506L106.169,131.3505145555243L106.19800000000001,130.5256769406103L106.256,131.7276905703924L106.343,130.79771244099032L106.749,130.81983236215686L106.865,133.23745529497967L107.1985,132.1271213728903L107.34349999999999,132.50303438735315L107.9525,129.77170639494446L108.083,130.38617300943167L108.1555,130.40754062308253L108.80799999999999,132.35316650692653L108.8805,129.90405447060283L109.0545,131.7989471044605L109.7215,131.6739462427178L110.258,132.17565401068603L111.17150000000001,131.88181121948128L112.08500000000001,132.3496139355665L112.491,132.14421806582803L112.8245,131.94655834346412L113.56400000000001,134.02349995002785L114.05699999999999,133.8763155207573L114.2455,134.21620259675612L114.289,134.8032066146129L115.246,132.97204771754704L115.362,132.65951939692633L115.478,133.32550951006337L115.7245,132.7868549436072L115.855,133.76213829575417L115.95649999999999,136.35477589483125L116.0435,136.47846256245214L116.1305,137.10244793821795L116.6525,137.6758435276911L116.7685,135.60691170540048L117.131,135.72380653607803L117.1455,135.04991648746307L117.60950000000001,134.35816046885316L117.63850000000001,136.20575931842126L117.9285,135.4618135164678L118.00099999999999,135.7673690877656L118.02999999999999,133.5864809212466L118.05900000000001,135.91178451323788L118.43599999999999,136.23824661380615L119.2625,137.4236896916622L119.5235,137.2872570406036L120.04549999999999,134.60887289349057L120.07449999999999,136.7652537999778L120.35,135.58253357678032L120.81400000000001,137.66427224796638L120.843,135.90277801705375L121.0315,136.27279213320995L121.191,137.03283672681522L121.2055,139.13497265071314L121.278,138.02293998335188L121.3505,137.31604854862525L121.887,138.68754808466016L122.14800000000001,138.58092802580424L122.4235,137.54116990854084L122.6555,139.1880361558382L122.8585,137.1099087270926L123.11949999999999,135.3735825144945L123.16300000000001,136.63521766207805L123.656,136.67819575990552L123.6995,137.87633671278942L123.917,135.57115731586134L123.98949999999999,136.09268784095315L124.17800000000001,134.84546700856765L124.2505,135.06738018835594L124.4825,137.67854730195808L124.55499999999999,135.91970054253144L124.62750000000001,136.69901226328335L124.6855,136.98260315875126L124.9175,136.79574494731375L125.4105,138.0256622304834L125.7585,136.5375316741258L126.3675,135.662321110697L126.44,137.88492130843684L126.585,138.62028298144273L126.64299999999999,139.34083831328988L126.875,136.73004810821317L127.0345,135.90620926704787L127.3825,135.9276135505445L127.62899999999999,136.83943241484207L127.9045,135.60098172215964L128.209,135.19864044778555L128.325,137.7686112057746L128.4555,138.60860737949096L128.6875,137.53112582041513L129.28199999999998,140.38863214457248L129.3255,137.71033929549185L129.485,138.3932172860455L129.5865,139.18732874427747L130.1375,137.01631023586498L130.3695,138.07993123988732L130.442,138.3315641605482L130.471,137.73315474134438L130.761,137.78573062862012L130.9205,137.99452778604658L131.138,137.84382500394403L131.283,140.46709409243397L132.1965,138.53913090360086L132.24,136.64711491504463L132.327,135.98071642064542L132.878,135.4784042557686L133.0665,135.77125797195887L133.081,136.1385548523485L133.11,137.81354940005656L133.5015,139.02554600279637L133.7625,136.54482265020079L134.1685,139.01705637596845L134.473,138.80699333562137L134.966,137.89567188231356L135.343,138.0128870873146L135.40099999999998,137.30564300627464L135.6185,138.01628388014012L135.691,138.58746347256445L135.8215,139.94385674056178L136.0825,140.25737407877108L136.648,140.90366303368842L136.8075,139.07220314807358L136.822,138.69324197093644L137.228,140.04074818523722L137.286,139.12787091711363L137.315,140.95892228273075L137.489,140.60571813734882L137.837,140.10774281910565L138.011,139.22513159488543L138.127,139.68073999310477L138.214,138.92985261733298L138.3735,139.51732795986513L138.4895,140.8067038946528L138.51850000000002,140.0982979830014L138.6055,138.40499923403505L139.0985,138.69536967541043L139.229,138.12441715080698L139.258,139.60865745830037L139.3015,140.45154930286108L139.751,139.98994584758577L139.838,139.37785505381922L140.07,137.68575787024318L141.0415,139.97627631511264L141.085,142.01933312228903L141.462,141.49602792945453L141.5345,138.61582367193867L142.013,139.82972061180374L142.0275,139.78692624296727L142.40449999999998,139.0909677981892L142.651,140.463996877644L142.709,140.88940797867787L142.825,138.1271907644813L142.8975,136.97492234849997L142.912,140.6173547165239L142.999,139.0750777596222L143.289,142.63034067992288L143.47750000000002,143.5850075072681L143.5645,140.28909667253305L143.927,140.446274470805L143.9705,141.1433184493694L144.797,139.40449387723882L145.46400000000003,139.44071490900524L145.667,138.78849523466909L145.78300000000002,141.0830734006688L146.1165,140.3981302876547L146.131,140.06752464170904L146.392,140.13030665514262L146.769,139.5865430438363L147.088,141.61697226388316L147.3635,142.12057223492698L147.378,141.61140456939046L147.78400000000002,142.68035522586683L148.132,142.48380628915575L148.32049999999998,142.40491857345074L148.69750000000002,144.49074977764587L149.0165,143.1800916957603L149.1035,143.26641155686454L149.21949999999998,142.37901518388475L149.292,141.28623895830245L150.0605,140.3824460803648L150.10399999999998,141.2067948996532L150.2635,139.03941323078718L150.4665,140.24353134860823L150.75650000000002,142.1774260932022L150.9595,141.2952674031544L151.032,141.75608191889253L151.62650000000002,141.5125867645049L152.1195,142.76113507668796L152.308,141.80326298189536L152.55450000000002,141.6350428619725L152.685,140.7112334465231L152.946,141.74045641592616L153.033,142.45715852998578L153.1635,142.2393896843367L153.787,142.8111404100283L153.961,144.66274085358125L153.99,145.87430988181833L154.0915,144.78843302585207L154.55550000000002,142.05834249093647L154.61350000000002,142.87808696886606L155.063,143.28540218945767L155.15,140.6958434407498L155.411,140.99348234084758L155.498,142.08435469635833L155.904,139.52365524233485L155.933,140.7377022981312L156.25199999999998,142.83171039102473L156.281,143.2519439376076L156.426,141.86562718053736L156.58550000000002,140.5087967540825L156.9335,139.37367961164344L157.0785,139.3511726539693L157.5425,139.95849930135577L157.615,141.02103479835293L157.7165,142.78701647201916L157.876,143.35623669671858L157.963,143.76590790777115L158.29649999999998,142.13805483835165L158.3545,141.20436833137606L159.2825,142.73797477385006L159.355,142.02484141846855L159.587,143.7277751628182L159.9785,143.55557111880907L160.2105,143.9481653768722L160.34099999999998,142.68659970753814L160.515,143.34733007903947L161.1965,143.67528037164243L161.2545,143.70811914563356L161.704,143.5553665905804L162.255,142.65620792406463L162.2985,142.57928571202953L162.4435,143.06554745693168L162.57399999999998,145.40220075682296L162.71900000000002,144.5766751319299L162.77700000000002,144.37904855907738L163.154,145.97905527731248L163.7195,145.06930655149898L163.89350000000002,145.587404071738L163.9225,144.99958450364053L164.024,144.47559603909838L164.1835,145.71681825832638L164.2415,144.21245754867462L164.3285,145.94198630517525L164.37199999999999,144.95531467357756L164.5025,144.85344227806416L164.60399999999998,143.63316305869233L164.7055,143.84774232145196L164.79250000000002,143.9493542844219L164.80700000000002,145.4043929458159L164.894,146.62250220858044L164.9665,145.07328948229346L165.1115,145.44764517654852L165.56099999999998,144.79825724905655L165.8945,143.11085361090855L165.92350000000002,144.5783980956528L166.112,145.42572550798576L166.344,144.54461745912903L166.576,143.1511640339796L166.5905,143.05428936022744L166.605,142.56850510798827L167.301,143.01799308834237L167.4315,142.4610836719141L167.56199999999998,144.5874901422659L167.70700000000002,143.9337771778583L168.0985,144.61788234980583L168.2145,144.84192984425036L168.3015,144.04279485418206L168.48999999999998,145.68665913983466L169.2295,144.93856720275252L169.244,143.75581686584096L169.2875,144.5214104864276L169.534,143.55456496556263L169.70800000000003,143.57364264297283L169.72250000000003,143.5765385737089L169.824,144.74990626037524L170.172,143.35576285437983L170.201,144.1538475365415L170.4185,144.48440160816756L170.433,143.0606264181883L170.69400000000002,144.4076135739456L170.92600000000002,145.166915658202L171.071,145.65521416848077L171.2885,144.55641184917195L171.44799999999998,146.76318229042153L171.63649999999998,146.12396514894166L171.82500000000002,143.1451706835524L172.07150000000001,144.3545054087378L172.173,145.02540180023536L172.463,145.0046258584819L172.60799999999998,144.2196642289258L172.782,143.70744557359004L172.7965,142.02033466008214L173.246,142.78364340011424L173.2605,142.6060052844533L173.275,144.42229664321633L173.42,145.20919298328494L173.6085,143.9175490172557L173.69549999999998,144.99486706446717L173.81150000000002,144.34734503701L173.8985,144.86008691951434L174.9135,143.63196767269454L175.305,146.51288345395852L175.7545,145.3101772642493L175.827,144.7604335731085L176.001,144.28271262163813L176.74050000000003,146.0631491679841L176.76950000000002,146.1941452546255L177.01600000000002,145.16193342149276L177.1175,142.53885234161228L177.2625,144.3311847175996L177.90050000000002,144.8963794465367L178.06,142.5455351048015L178.292,142.6080929223678L178.959,143.3939833512295L179.0025,144.45873831930092L179.017,146.07636702391903L179.72750000000002,146.00223135352175L180.4525,145.62261935512248L180.5395,145.10427172446265L180.554,145.50235217092842L180.641,145.7283472296302L181.2645,144.8738776729527L181.511,144.41770842190718L181.98950000000002,142.18897430012308L182.1345,144.9828880463621L182.3085,144.59405774084217L182.4245,145.79233097756398L182.642,145.76153438721792L182.90300000000002,146.69549179932295L183.1785,145.2696112366169L183.3235,146.22600465446607L183.3525,146.20016619421975L184.2515,146.28793892577053L184.3965,146.1203537383562L184.498,146.8282719214093L184.57049999999998,146.8106196101108L184.8025,146.12330385301107L184.904,145.0433727676884L185.0925,144.19138887972926L185.1795,144.3471399989801L185.73049999999998,145.2029755938298L186.209,146.8899376250255L187.00650000000002,146.70231943867293L187.0645,146.0586838575702L188.15200000000002,146.79302739217886L188.81900000000002,148.1514291710556L188.83350000000002,148.07965132078928L188.906,149.58897019514282L189.02200000000002,149.3290269598693L189.283,148.93283560824378L189.86299999999997,147.15090890100788L190.211,145.76818183683073L190.298,146.08832733406254L190.3125,148.81944766386525L190.42849999999999,146.37325820174323L190.80550000000002,145.38475560057068L190.965,146.5383832230642L191.516,146.73419485337382L191.57399999999998,148.19049933262772L191.661,147.6683312259601L191.7625,145.72781370495673L191.777,146.1955006504948L191.95100000000002,147.70119451591742L192.212,146.88449021444345L192.618,146.8502098337747L192.77749999999997,147.33971876398348L193.285,146.52378686167177L193.2995,146.32466185826485L193.4155,148.6557159865206L193.5895,149.11808604663443L193.778,147.02681336402395L194.213,147.19607579866747L194.358,148.30787336921514L194.4305,148.5172872628519L194.92350000000002,149.95247749203935L194.996,150.4594672424465L195.025,149.3565657239876L195.14100000000002,148.2895651719007L195.1845,148.35459208852248L195.2135,147.87891532798326L195.605,148.05523450664512L195.7935,147.83231545781192L196.127,148.77730894860684L196.1415,147.14912583496408L196.56199999999998,145.00022010445338L196.765,146.59910886549795L196.88099999999997,147.90564381915635L197.3595,147.28594483438118L197.82350000000002,146.84036531549484L198.59199999999998,148.66400948267255L198.83849999999998,149.63917672893052L199.172,149.0119735653836L199.375,148.88289729688398L199.462,149.45255519509612L199.5925,148.28358489012896L199.86800000000002,146.76407803139793L199.89700000000002,146.3803739212456L200.3465,147.17577302828445L200.3755,147.66161193276454L200.4335,148.25538606936738L200.62199999999999,149.84217512306574L200.738,146.2867445689261L200.7815,147.11421068560006L200.8395,147.6431656681553L201.07150000000001,148.88467370687258L201.202,148.1997851404647L201.28900000000002,147.8683775985102L201.82549999999998,149.30809123856983L201.89800000000002,148.24318407104312L202.1445,149.13450500642793L202.3475,147.35977862641536L202.362,146.60318537373536L202.565,147.31297282270108L202.594,147.32509499326258L202.66649999999998,146.18333678365693L202.9275,147.14360329064297L203.174,149.07425474655173L203.3915,148.70622715670788L203.82649999999998,150.0191081125672L203.91350000000003,148.41468246931643L203.98600000000002,147.98668907575694L204.102,148.01352452333504L204.9575,149.41619503753822L205.262,146.07344288184706L205.436,145.80328617029068L205.5375,146.50866654038037L205.5955,146.52787674180433L206.04500000000002,146.1562110545939L206.4075,148.34798698203002L206.451,148.11622611230356L206.567,147.61679021246675L206.79899999999998,147.69228183265992L206.92950000000002,147.2490160646228L207.379,149.3092530200196L207.408,148.83415722226974L207.466,149.37063418652144L207.582,148.53085320885296L207.5965,148.26335013128508L208.00250000000003,148.90322454105132L208.133,149.11194004613347L208.2055,148.66232912141993L208.30700000000002,148.55814070939368L208.365,149.88974415921777L208.713,150.77882123587693L208.771,150.10776254692573L208.79999999999998,149.89304338987012L209.1045,148.46344011880163L209.119,145.61715747032883L209.1335,146.67357620267663L209.3365,147.68272689582065L209.4235,149.38908633153332L209.5105,148.28989243841585L209.902,148.2262657344525L209.93099999999998,150.0867110804827L209.95999999999998,150.91752751168278L210.569,149.56832494435707L211.03300000000002,148.33345089414516L211.7145,149.5182834271121L212.309,150.87786582729387L212.39600000000002,149.53647803239724L212.4685,150.0742721178494L212.8455,149.5205521356083L213.26600000000002,149.0760622841726L213.54149999999998,150.45003841852807L214.339,148.00097261191803L214.4695,148.84225242726842L215.2815,149.89932382142248L215.441,151.06383984110178L216.0645,149.49971881402385L216.1225,150.06684219972004L216.369,150.02550551972217L216.688,149.94974456040916L217.09400000000002,149.71426755075964L217.15200000000002,150.41666239431686L217.181,150.99594826259926L217.2245,149.5684133853041L217.4565,149.7093993953182L217.64499999999998,150.1294329403627L217.761,150.92181113394827L217.84799999999998,150.99927621105948L217.90599999999998,150.6333516102213L218.02200000000002,151.1331620650199L218.03650000000002,151.42413380364815L218.0945,150.2809187409495L218.1815,153.0051132105121L218.196,150.78208791786406L218.77599999999998,148.69536689663315L218.834,147.68116085376968L220.226,148.19125091620265L220.371,145.78198808583406L220.545,147.91839265517066L220.79149999999998,149.95853160038595L220.893,149.71985299318038L221.02349999999998,149.9823162173967L221.125,148.92153198812844L221.2845,149.9039843835102L221.7775,149.16437810009717L221.908,151.32779018886484L222.5605,151.3942344236827L223.126,150.72873680085675L223.329,151.3492249347214L223.561,150.018883035428L224.09750000000003,149.3416233494957L224.634,149.06668799132586L225.06900000000002,149.499238767289L225.1995,150.28448293093615L225.214,149.7511960515406L225.475,151.65313923253774L225.591,151.32785394128655L225.852,150.31804288031555L226.02599999999998,149.66841256977258L226.08399999999997,147.8269344589778L226.5335,148.25270857145398L226.809,149.61402354476854L226.838,149.31525412701373L226.867,149.05297458670222L226.8815,149.69767487348128L227.07000000000002,149.7489818352521L227.679,150.34880888569714L227.882,150.20096678003688L228.17200000000003,147.10842545707038L228.5055,149.43925447391874L228.8245,150.57568183219874L229.12900000000002,151.87163205947346L229.5495,151.70282301111538L229.8105,153.9215840387554L230.0715,151.82634351381924L230.173,150.39001387196342L230.405,152.67435459596453L230.6225,151.76004930517595L230.78199999999998,151.27862991600148L230.98499999999999,150.62622545784063L231.5795,149.37934197560162L231.71,149.4614508007479L232.087,149.40233876632723L232.5075,152.5247604349876L232.667,151.08331395981457L233.20350000000002,152.21545554278939L233.479,150.36876510627258L233.6385,151.96117576984875L233.682,152.05804542518644L233.8415,150.91915326804113L233.92849999999999,151.4539094616385L234.01549999999997,152.28852581080267L234.03,154.08063895958546L234.291,151.761252956338L234.5665,151.201865241973L234.6245,151.71944338046416L234.726,150.071232831257L234.813,150.57249103135513L234.987,149.59609684634196L235.0305,149.36437346908244L235.14649999999997,150.53460375292772L235.23350000000002,150.9951398521086L235.24800000000002,151.09628237979138L235.74099999999999,151.73503221092537L235.8425,152.150187252072L236.36450000000002,149.5622152158265L236.9445,150.5204310378618L237.0605,149.71278247601907L237.13299999999998,147.91980679055325L237.23450000000003,147.65379418862028L237.30700000000002,148.29688857753374L237.32150000000001,150.0064306979932L237.4375,151.0897412732576L237.626,151.38582267177114L237.78549999999998,153.32552213954136L237.79999999999998,150.6267358351978L237.8725,148.97841351166758L238.07549999999998,151.11071309011416L238.19150000000002,152.0518319322342L238.20600000000002,152.8358405419394L238.322,152.56126410096118L239.163,154.0050430675103L239.192,150.43221374232095L239.7575,148.9478503299466L239.772,147.5413877784835L239.946,148.52990748601914L240.3665,149.79942108462907L241.0335,147.86785207552109L241.35250000000002,148.56365332422095L242.469,148.24202671895884L242.672,148.35384042611L242.8025,149.4172858688252L243.01999999999998,150.39858427204786L243.2665,149.98080117637772L243.38250000000002,149.793028206437L243.745,149.08067115792184L243.8755,149.64235198089608L244.17999999999998,150.32195767316696L244.33950000000002,149.39198766084598L244.528,149.38478057741375L244.586,150.37561506326549L245.03549999999998,148.10968309817048L245.10799999999998,150.95089140441416L245.19500000000002,149.13968506796994L245.3545,149.97987169828318L245.4125,149.61267563585224L245.63,148.66954362919202L245.833,149.11250911869766L246.2535,149.51072729459304L246.7755,151.7314437518372L247.4425,150.86265324095015L247.457,152.01504757328306L247.51500000000001,149.42973170075896L247.921,151.0645532055343L248.095,150.80013275009264L248.24,149.4840277027798L248.298,150.56719897538696L248.501,150.90790450384384L248.7185,150.41304609662393L249.052,151.00253922235626L249.18249999999998,151.18289401426907L249.3855,151.14186111864444L249.5015,151.04822829431492L251.111,151.84377392371218L251.34300000000002,151.53571826759807L251.546,153.25657147493263L251.749,152.9837258795478L251.8795,154.2199773871647L252.3,152.46173503103336L252.44500000000002,151.16046676299462L252.5755,153.476018197903L252.8075,152.81362389379873L252.8945,153.48916301044306L253.112,151.97061445462197L253.19899999999998,151.06218612679334L253.21349999999998,149.35326381815568L253.60500000000002,151.42139823611436L253.63400000000001,152.71814992850537L253.75,153.71143639977086L254.17049999999998,153.47667046921634L255.345,154.04080371382148L255.6785,153.17494752599185L255.751,153.3649223323269L256.186,152.54130377425372L256.65,152.09273124170474L256.824,151.01690583486658L256.969,150.8417033814945L257.3605,149.99753644845237L257.52,149.56019754478146L257.8535,149.47052197815265L257.955,150.6467516888854L257.99850000000004,152.15343969283563L258.1145,152.75706851413685L258.187,151.15043725131454L258.303,153.2612769776096L258.39,153.03135067066611L258.54949999999997,152.97455597226457L259.1585,153.09226818266293L259.1875,153.3348749362396L259.85450000000003,153.49159856734474L259.869,152.73242385445715L260.217,152.3339060262363L260.449,150.3983236381722L260.71,150.98822723801808L261.029,151.504108955319" style="fill: none;" fill="none"></path></g></g></g></g><g opacity="0.2"><g><g><g><path stroke="rgb(255, 112, 67)" stroke-width="2px" d="M29.261000000000003,11.665323575337732L29.6815,24.944341023763027L29.899,33.12065505981445L29.913500000000003,34.476440747578934L30.029500000000002,36.299653371175125L30.2905,44.17276446024578L30.493499999999997,48.645861307779946L30.5515,49.275392850240074L30.855999999999998,51.89765008290608L31.32,51.85121122996012L31.378,53.532106399536126L31.494,53.20414606730143L31.769499999999997,53.48221651713054L31.9435,54.24470647176107L32.320499999999996,58.40721066792805L32.538,50.43512630462646L32.7555,56.189961751302086L33.089,54.678054491678886L33.1325,52.6232665379842L33.582,49.03348318735759L33.6255,52.69570064544677L34.017,53.73464806874592L34.191,50.527460098266594L34.307,54.65022118886311L34.597,52.83957481384277L34.829,53.995031992594406L35.0175,57.892219543457024L35.322,52.5498383839925L35.3365,54.57904370625813L35.467,54.01039282480876L35.6845,52.378581047058105L35.7425,52.87209701538085L35.8875,55.71428235371908L35.9745,54.78698698679606L36.395,49.42515627543133L36.728500000000004,55.19193903605143L36.801,55.831073443094894L36.83,54.51609992980957L37.062,59.68630472819011L37.149,58.87645689646404L37.613,61.69712956746418L37.642,59.033516248067215L38.2365,68.9531815846761L38.323499999999996,67.01385307312012L38.338,65.54343318939209L38.541,66.5448694229126L38.6715,63.42645168304444L38.7875,63.031712055206306L39.4545,74.5882438023885L40.077999999999996,68.1439995765686L40.237500000000004,69.79008436203003L40.339,70.1812416712443L40.426,66.19076379140218L40.657999999999994,65.96004184087118L41.426500000000004,63.88995869954427L41.557,67.99696509043375L41.847,69.49174849192302L42.659000000000006,69.88144286473593L43.4855,70.20753701527913L43.558,69.18170913060506L43.7175,69.0264409383138L43.819,71.01485284169516L43.876999999999995,76.49841674168906L43.906,67.88910166422525L44.036500000000004,72.5971967379252L44.312,68.39923508961995L44.5295,73.0801814397176L44.616499999999995,68.617747147878L44.921,66.6645770072937L45.0805,74.4454574584961L45.1095,66.8983186086019L45.3125,68.60602490107219L45.413999999999994,70.52014589309692L45.689499999999995,75.87147347132365L45.704,73.34619204203288L45.878,72.48773908615112L46.023,69.697563012441L46.052,69.78557364145914L46.168,74.65250047047934L46.660999999999994,71.80609512329102L46.7625,71.41748857498169L47.153999999999996,73.75382614135742L47.183,77.69235102335611L47.2265,74.72470013300578L47.2845,75.40206782023111L47.3715,73.58465067545573L47.4295,76.54169527689616L47.821,73.53819306691487L48.212500000000006,76.43377558390299L48.502500000000005,76.49980465571086L48.9375,77.46160093943277L48.952,76.0876317024231L49.5465,76.51972309748332L49.8655,84.79929606119792L50.1265,78.85631386439005L50.141,77.44822820027669L50.663,81.98036766052246L50.779,84.20404974619548L50.894999999999996,79.1602013905843L50.9385,81.20056629180908L51.446,77.91225099563599L51.48950000000001,83.9414807955424L51.692499999999995,84.86916065216064L51.736000000000004,84.6772346496582L51.8085,83.66145038604736L51.982499999999995,82.71086994806925L52.141999999999996,81.43785270055136L52.5915,84.7671864827474L52.707499999999996,86.51109107335408L53.214999999999996,86.82563177744547L53.4325,84.17496919631958L53.678999999999995,88.52614529927571L53.708,86.85746002197266L53.75149999999999,87.91404708226523L53.8095,86.98686424891154L54.7375,89.19127496083578L54.7665,93.30433003107707L54.9405,98.7670939763387L55.7815,92.0929718017578L55.97,93.06530872980754L56.0715,94.01642370224L56.535500000000006,91.26916980743408L56.579,93.63607899347942L56.666,98.24629799524944L56.6805,100.45571645100911L57.072,97.56149371465048L57.13,96.66408538818358L57.2025,97.07774941126506L57.42,97.27342653274538L57.4345,97.01780652999877L57.695499999999996,95.21471865971883L59.01499999999999,102.49283663431802L59.1455,104.12488285700479L59.290499999999994,106.78006553649902L59.449999999999996,97.10664240519206L59.6675,99.17129580179851L59.7255,106.21207110087077L60.813,102.51401170094809L61.030499999999996,103.05700492858887L61.1175,100.50839153925578L61.4655,102.42442560195923L61.538,99.341605981191L62.6255,103.67299493153891L63.2055,108.74340120951335L63.713,107.10858853658041L64.322,107.45822095870972L64.3945,106.95128536224364L64.583,108.29312626520793L64.699,104.87447834014893L64.7425,111.99582767486572L65.0325,109.78696250915526L65.2935,109.0279704729716L65.4965,110.49636475245158L65.52550000000001,111.31651878356935L65.685,111.97328344980876L66.3665,112.82977644602458L66.381,111.61955293019612L66.68549999999999,111.41696437199911L67.0915,114.10058991114299L67.20750000000001,118.87336365381877L67.3235,110.56771103541057L67.715,114.5749282836914L67.773,115.51781892776488L67.8745,115.37248182296752L67.91799999999999,110.07179435094199L68.0485,113.53009160359701L68.266,114.0081623395284L68.3965,112.60476557413737L68.643,114.0192656517029L68.71549999999999,113.09755007425943L68.72999999999999,114.20507733027141L68.9185,113.66740131378175L68.93299999999999,107.9411212603251L68.94749999999999,115.71764103571574L69.0925,112.18439642588298L69.136,114.70679887135825L69.3825,113.92632230122884L69.774,116.07501014073691L70.093,112.25640853246054L70.238,109.40345748265584L70.4845,113.38778352737428L70.49900000000001,117.17963965733847L71.3545,114.7763164838155L71.804,116.11376857757567L71.8475,115.56500800450642L71.949,114.29010581970216L71.99249999999999,115.13949982325236L72.1085,122.85596418380739L72.77550000000001,117.92883189519246L72.993,116.21213229497273L73.1815,117.6053072611491L73.70349999999999,117.66196791330974L73.71799999999999,117.34538284937541L73.9935,116.80914163589476L74.008,121.58221546808878L74.0225,115.80133787790935L74.2255,115.81011549631755L74.24,116.98325920104979L74.2545,122.39380757013956L74.35600000000001,120.85346682866414L74.60249999999999,118.25570440292358L75.0085,119.0954392751058L75.284,122.1739919980367L75.38550000000001,113.10202328364053L75.458,121.1495051383972L75.6465,118.0009659131368L75.69,118.1137433052063L75.9945,116.73724206288655L76.3425,116.30755138397215L76.38600000000001,118.86351696650186L76.937,116.44334189097086L77.43,114.49403540293375L77.66199999999999,120.21049690246582L77.923,116.89184443155924L78.0825,117.96527401606242L78.358,123.03578344980876L78.56099999999999,123.49595197041829L79.1845,120.25702953338624L79.5035,128.25312105814615L79.518,118.08034896850587L79.6195,117.5067934989929L79.6485,120.01346000035605L79.75,123.49019400278728L80.127,125.52156559626262L80.707,118.83038520812988L80.75049999999999,121.51134745279948L80.852,118.21588627497356L81.026,120.7775723139445L81.2,119.54446697235106L81.38850000000001,125.71151288350423L81.403,118.92895523707072L81.432,129.22601127624512L81.983,120.80050102869669L82.0265,121.48596175511678L82.0555,127.42083215713502L82.0845,121.33649841944377L82.128,122.44969924290974L82.18599999999999,123.00328938166301L82.2295,125.7174490292867L82.505,122.48129304250081L82.82400000000001,125.63384596506754L82.8965,123.93380133310954L83.433,126.22133684158327L83.5345,126.6416122118632L83.5635,126.94157981872559L83.83900000000001,124.74643437067668L84.79599999999999,116.89618635177612L84.82499999999999,118.89626423517862L85.1005,124.80318880081175L85.579,122.8759576479594L85.70949999999999,123.29506079355876L85.7675,124.7383319536845L85.85449999999999,122.86789274215697L86.02850000000001,125.11939875284831L86.072,122.40636444091798L86.507,127.82913208007812L86.6375,125.05949338277182L86.72449999999999,127.98428773880006L87.17399999999999,120.63988749186197L87.203,124.0562284787496L87.33349999999999,127.4886336326599L87.49300000000001,126.35211022694905L87.58,128.43083969751993L87.6815,121.13097461064656L88.218,129.88101291656494L88.5805,126.13585821787515L88.6675,121.14154338836671L88.7545,127.59245522816975L88.798,125.69362004597981L89.117,124.30164543787639L89.6245,124.17545779546101L89.78399999999999,123.53808641433717L90.2915,128.5166277885437L90.6105,127.8664838473002L90.7265,126.10930029551189L91.611,124.96728150049846L91.756,125.84182675679524L91.84299999999999,135.31810983022055L92.72749999999999,127.21827173233034L93.30749999999999,126.4697078069051L93.4235,129.5008651415507L93.583,126.24141470591228L93.75699999999999,128.93273941675824L94.6125,124.92061758041382L94.7575,129.1474816004435L94.8155,126.51425234476726L95.178,126.27661895751955L95.236,130.0441959698995L95.323,129.5946618715922L95.8305,125.46446418762206L95.874,124.07730038960774L96.41050000000001,133.24955526987713L96.55550000000001,131.9019563992818L96.947,130.69917885462442L97.00500000000001,131.32419029871622L97.034,129.51486619313556L97.121,130.5845446586609L97.2515,132.04535230000812L97.58500000000001,131.43402306238812L97.6865,133.05204010009766L98.0055,135.14117892583212L98.194,130.660870552063L98.252,128.4319837888082L98.2665,133.1699283917745L98.7015,131.09811973571777L99.03500000000001,132.63544082641602L99.06400000000001,127.51458199818929L99.1075,127.19388945897421L99.122,132.73864348729452L99.238,128.16962114969888L99.789,128.30814997355142L99.9775,132.12354437510172L100.195,130.58813635508218L100.4705,132.2669308980306L100.63,128.11018466949463L100.7605,134.1400802930196L101.21,122.96311489741008L101.3695,127.45277293523152L101.8335,130.72323290506998L102.1815,127.7504711151123L102.45700000000001,132.33284743626913L102.6455,129.57367436091107L102.66,132.68257363637287L102.776,130.9216389656067L102.80499999999999,134.24578682581583L103.41399999999999,131.98827902475995L103.47200000000001,130.79124069213867L103.53,129.01565790176392L103.6895,131.40826225280762L103.733,133.18918100992838L103.7475,127.10232464472452L104.2115,130.94764359792072L104.371,136.54415369033813L104.39999999999999,130.78424485524494L104.47250000000001,130.32054090499878L104.50150000000001,128.0391009648641L104.661,130.27243280410767L104.7625,136.14631938934326L104.951,135.25135866800946L105.1685,137.13276052474976L105.29899999999999,136.11471621195474L105.3425,136.80962975819907L105.7775,134.28946860631305L106.111,125.45243247350056L106.1255,132.68942880630493L106.169,130.52922503153482L106.19800000000001,129.28842051823932L106.256,133.5307110150655L106.343,129.4027452468872L106.749,130.85301224390668L106.865,136.86388969421387L107.1985,130.46162048975626L107.34349999999999,133.06690390904745L107.9525,125.67471440633138L108.083,131.3078729311625L108.1555,130.43959204355875L108.80799999999999,135.27160533269247L108.8805,126.23038641611734L109.0545,134.64128605524698L109.7215,131.48644495010376L110.258,132.92821566263834L111.17150000000001,131.44104703267413L112.08500000000001,133.0513180096944L112.491,131.83612426122028L112.8245,131.6500687599182L113.56400000000001,137.13891235987344L114.05699999999999,133.65553887685138L114.2455,134.7260332107544L114.289,135.6837126413981L115.246,130.22530937194824L115.362,132.19072691599527L115.478,134.32449467976886L115.7245,131.97887309392294L115.855,135.2250633239746L115.95649999999999,140.24373229344684L116.0435,136.66399256388345L116.1305,138.03842600186667L116.6525,138.53593691190082L116.7685,132.5035139719645L117.131,135.8991487820943L117.1455,134.03908141454062L117.60950000000001,133.32052644093832L117.63850000000001,138.97715759277344L117.9285,134.3458948135376L118.00099999999999,136.2257024447123L118.02999999999999,130.31514867146808L118.05900000000001,139.39973990122476L118.43599999999999,136.72793976465863L119.2625,139.20185430844623L119.5235,137.0826080640157L120.04549999999999,130.59129667282104L120.07449999999999,139.99982515970865L120.35,133.80845324198407L120.81400000000001,140.78688025474548L120.843,133.26053667068481L121.0315,136.82781330744425L121.191,138.1729036172231L121.2055,142.28817653656006L121.278,136.35489098231L121.3505,136.25571139653525L121.887,140.74479738871258L122.14800000000001,138.42099793752035L122.4235,135.98153273264566L122.6555,141.65833552678427L122.8585,133.99271758397418L123.11949999999999,132.76909319559732L123.16300000000001,138.52767038345337L123.656,136.74266290664673L123.6995,139.6735481421153L123.917,132.11338822046915L123.98949999999999,136.87498362859088L124.17800000000001,132.9746357599894L124.2505,135.40024995803833L124.4825,141.59529797236127L124.55499999999999,133.2814304033915L124.62750000000001,137.86797984441122L124.6855,137.40798950195312L124.9175,136.51545763015747L125.4105,139.87053815523785L125.7585,134.30533583958942L126.3675,134.3495052655538L126.44,141.2188216050466L126.585,139.72332549095154L126.64299999999999,140.4216713110606L126.875,132.81386280059814L127.0345,134.67045100529987L127.3825,135.9597199757894L127.62899999999999,138.20716071128845L127.9045,133.743305683136L128.209,134.59512853622437L128.325,141.62356734275818L128.4555,139.86860164006552L128.6875,135.91490348180136L129.28199999999998,144.67489163080853L129.3255,133.69290002187094L129.485,139.417534271876L129.5865,140.37849593162537L130.1375,133.75978247324625L130.3695,139.67536274592084L130.442,138.70901354153952L130.471,136.83554061253867L130.761,137.8645944595337L130.9205,138.30772352218628L131.138,137.61777083079022L131.283,144.40199772516885L132.1965,135.64718612035117L132.24,133.8090909322103L132.327,134.98111867904663L132.878,134.72493600845337L133.0665,136.2105385462443L133.081,136.68950017293295L133.11,140.32604122161865L133.5015,140.84354090690613L133.7625,132.82373762130737L134.1685,142.72540696461996L134.473,138.4918987751007L134.966,136.52868970235187L135.343,138.18870989481607L135.40099999999998,136.24477688471475L135.6185,139.08224519093832L135.691,139.444232861201L135.8215,141.97844664255777L136.0825,140.727650086085L136.648,141.87309646606445L136.8075,136.3250133196513L136.822,138.1248002052307L137.228,142.06200750668842L137.286,137.7585550149282L137.315,143.7054993311564L137.489,140.0759119192759L137.837,139.3607798417409L138.011,137.90121475855508L138.127,140.36415259043378L138.214,137.80352155367532L138.3735,140.39854097366333L138.4895,142.74076779683432L138.51850000000002,139.0356891155243L138.6055,135.8650511105855L139.0985,139.13092533747354L139.229,137.26798836390176L139.258,141.8350179195404L139.3015,141.71588706970215L139.751,139.29754066467285L139.838,138.45971886316934L140.07,135.14761209487915L141.0415,143.4120539824168L141.085,145.0839183330536L141.462,140.71107014020285L141.5345,134.29551728566489L142.013,141.65056602160135L142.0275,139.72273468971252L142.40449999999998,138.04703013102215L142.651,142.52354049682617L142.709,141.5275246302287L142.825,133.98386494318643L142.8975,135.24651972452799L142.912,146.08100326855978L142.999,136.76166232426962L143.289,147.96323506037393L143.47750000000002,145.01700774828595L143.5645,135.34523042043048L143.927,140.6820411682129L143.9705,142.188884417216L144.797,136.79625701904297L145.46400000000003,139.49504645665488L145.667,137.81016572316489L145.78300000000002,144.52494064966837L146.1165,139.37071561813354L146.131,139.57161617279053L146.392,140.22447967529297L146.769,138.77089762687683L147.088,144.66261609395346L147.3635,142.8759721914927L147.378,140.8476530710856L147.78400000000002,144.28378121058148L148.132,142.18898288408914L148.32049999999998,142.2865869998932L148.69750000000002,147.6194965839386L149.0165,141.21410457293194L149.1035,143.39589134852093L149.21949999999998,141.0479206244151L149.292,139.647074619929L150.0605,139.02675676345825L150.10399999999998,142.44331812858582L150.2635,135.7883407274882L150.4665,142.04970852533978L150.75650000000002,145.07826821009317L150.9595,139.9720293680827L151.032,142.4473036924998L151.62650000000002,141.1473440329234L152.1195,144.63395754496258L152.308,140.36645483970642L152.55450000000002,141.3827126820882L152.685,139.325519323349L152.946,143.2842908700307L153.033,143.53221170107523L153.1635,141.91273641586304L153.787,143.66876649856567L153.961,147.44014151891074L153.99,147.69166342417398L154.0915,143.15961774190268L154.55550000000002,137.96320668856302L154.61350000000002,144.1077036857605L155.063,143.89637502034506L155.15,136.811505317688L155.411,141.43994069099426L155.498,143.72066322962445L155.904,135.68260606129965L155.933,142.55877288182577L156.25199999999998,145.972722530365L156.281,143.8822942574819L156.426,139.78615204493204L156.58550000000002,138.47355111440024L156.9335,137.6710038979848L157.0785,139.3174122174581L157.5425,140.86948927243552L157.615,142.61483804384866L157.7165,145.4359889825185L157.876,144.2100670337677L157.963,144.38041472434998L158.29649999999998,139.6962752342224L158.3545,139.80383857091266L159.2825,145.03838443756104L159.355,140.9551413853963L159.587,146.28217577934265L159.9785,143.2972650527954L160.2105,144.5370567639669L160.34099999999998,140.794251203537L160.515,144.3384256362915L161.1965,144.16720581054688L161.2545,143.7573773066203L161.704,143.32623775800067L162.255,141.30746992429096L162.2985,142.46390239397687L162.4435,143.79494007428488L162.57399999999998,148.90718070665997L162.71900000000002,143.33838669459024L162.77700000000002,144.08260869979858L163.154,148.3790653546651L163.7195,143.70468346277872L163.89350000000002,146.36455035209656L163.9225,144.11785515149435L164.024,143.68961334228516L164.1835,147.57865158716837L164.2415,141.95591648419696L164.3285,148.53627943992615L164.37199999999999,143.47530722618103L164.5025,144.70063368479413L164.60399999999998,141.8027442296346L164.7055,144.16961121559143L164.79250000000002,144.10177222887677L164.80700000000002,147.58695093790692L164.894,148.44966610272724L164.9665,142.74947039286297L165.1115,146.00917871793112L165.56099999999998,143.8241753578186L165.8945,140.57974815368652L165.92350000000002,146.77971482276917L166.112,146.69671662648517L166.344,143.22295538584393L166.576,141.0609838962555L166.5905,142.9089773495992L166.605,141.83982872962952L167.301,143.6922250588735L167.4315,141.62571954727173L167.56199999999998,147.77709984779358L167.70700000000002,142.95320773124695L168.0985,145.64404010772705L168.2145,145.17800108591717L168.3015,142.8440923690796L168.48999999999998,148.1524555683136L169.2295,143.8164292971293L169.244,141.98169136047363L169.2875,145.66980091730755L169.534,142.10429668426514L169.70800000000003,143.60225915908813L169.72250000000003,143.58088246981302L169.824,146.50995779037476L170.172,141.26454774538675L170.201,145.35097455978394L170.4185,144.9802327156067L170.433,140.9249636332194L170.69400000000002,146.4280943075816L170.92600000000002,146.30586878458658L171.071,146.38766193389893L171.2885,142.90820837020874L171.44799999999998,150.07333795229596L171.63649999999998,145.1651394367218L171.82500000000002,138.67697898546854L172.07150000000001,146.1685074965159L172.173,146.0317463874817L172.463,144.97346194585165L172.60799999999998,143.04222178459167L172.782,142.93911759058636L172.7965,139.48966828982034L173.246,143.92860651016235L173.2605,142.3395481109619L173.275,147.14673368136087L173.42,146.38953749338785L173.6085,141.98008306821188L173.69549999999998,146.61084413528442L173.81150000000002,143.3760619958242L173.8985,145.62919974327087L174.9135,141.7897888024648L175.305,150.8342571258545L175.7545,143.50611797968548L175.827,143.93581803639728L176.001,143.5661311944326L176.74050000000003,148.73380398750305L176.76950000000002,146.3906393845876L177.01600000000002,143.6136156717936L177.1175,138.6042307217916L177.2625,147.0196832815806L177.90050000000002,145.7441715399424L178.06,139.0192685921987L178.292,142.70192964871723L178.959,144.5728189945221L179.0025,146.05587077140808L179.017,148.50281008084616L179.72750000000002,145.8910278479258L180.4525,145.0532013575236L180.5395,144.3267502784729L180.554,146.09947284062704L180.641,146.0673398176829L181.2645,143.5921733379364L181.511,143.73345454533896L181.98950000000002,138.8458731174469L182.1345,149.17375866572064L182.3085,144.01081228256226L182.4245,147.5897408326467L182.642,145.71533950169882L182.90300000000002,148.09642791748047L183.1785,143.1307903925578L183.3235,147.66059478123984L183.3525,146.16140850385028L184.2515,146.4195980230967L184.3965,145.8689759572347L184.498,147.89014919598898L184.57049999999998,146.78414114316305L184.8025,145.09233021736145L184.904,143.42347613970438L185.0925,142.91341304779053L185.1795,144.58076667785645L185.73049999999998,146.4867289861043L186.209,149.42038067181906L187.00650000000002,146.42089215914407L187.0645,145.09323048591614L188.15200000000002,147.8945426940918L188.81900000000002,150.18903183937073L188.83350000000002,147.97198454538983L188.906,151.8529485066732L189.02200000000002,148.93911210695902L189.283,148.33854858080545L189.86299999999997,144.47801884015402L190.211,143.69409124056497L190.298,146.56854557991028L190.3125,152.91612815856934L190.42849999999999,142.70397400856018L190.80550000000002,143.90200169881186L190.965,148.2688246568044L191.516,147.0279122988383L191.57399999999998,150.37495605150858L191.661,146.88507906595868L191.7625,142.81703742345175L191.777,146.89703106880188L191.95100000000002,149.95973531405133L192.212,145.65943376223245L192.618,146.7987892627716L192.77749999999997,148.0739821592967L193.285,145.29988900820413L193.2995,146.0259743531545L193.4155,152.1522971789042L193.5895,149.8116411368052L193.778,143.88990434010822L194.213,147.44996945063275L194.358,149.97556972503662L194.4305,148.83140810330707L194.92350000000002,152.10526283582053L194.996,151.21995186805725L195.025,147.70221344629923L195.14100000000002,146.68906434377035L195.1845,148.4521324634552L195.2135,147.16540018717447L195.605,148.31971327463788L195.7935,147.49793688456217L196.127,150.1947991847992L196.1415,144.7068511644999L196.56199999999998,141.77686150868732L196.765,148.99744200706482L196.88099999999997,149.86544624964395L197.3595,146.35639635721844L197.82350000000002,146.17199603716531L198.59199999999998,151.39947573343915L198.83849999999998,151.10192759831747L199.172,148.07116882006326L199.375,148.68928289413452L199.462,150.30704204241437L199.5925,146.53012943267822L199.86800000000002,144.4848177433014L199.89700000000002,145.80481775601703L200.3465,148.36887168884277L200.3755,148.39037028948465L200.4335,149.14604727427164L200.62199999999999,152.22235870361328L200.738,140.95359873771667L200.7815,148.35540986061096L200.8395,148.43659814198813L201.07150000000001,150.74693576494855L201.202,147.17245229085287L201.28900000000002,147.37126628557843L201.82549999999998,151.46766169865927L201.89800000000002,146.645823319753L202.1445,150.47148640950522L202.3475,144.69768905639648L202.362,145.4682954947154L202.565,148.37765399614972L202.594,147.34327824910483L202.66649999999998,144.47069946924844L202.9275,148.58400305112204L203.174,151.97023193041485L203.3915,148.15418577194214L203.82649999999998,151.9884295463562L203.91350000000003,146.0080440044403L203.98600000000002,147.34469898541766L204.102,148.05377769470215L204.9575,151.520200808843L205.262,141.05931464831036L205.436,145.39805110295612L205.5375,147.56673709551495L205.5955,146.55669204394022L206.04500000000002,145.59871252377826L206.4075,151.6356508731842L206.451,147.76858480771384L206.567,146.86763636271158L206.79899999999998,147.80551926294962L206.92950000000002,146.58411741256714L207.379,152.39960845311484L207.408,148.12151352564493L207.466,150.17534963289896L207.582,147.27118174235025L207.5965,147.8620955149333L208.00250000000003,149.86303615570068L208.133,149.4250133037567L208.2055,147.98791273434955L208.30700000000002,148.40185809135437L208.365,151.88714933395386L208.713,152.1124368508657L208.771,149.10117451349896L208.79999999999998,149.57096465428668L209.1045,146.31903521219888L209.119,141.34773349761963L209.1335,148.2582043011983L209.3365,149.1964529355367L209.4235,151.94862548510235L209.5105,146.64110159873962L209.902,148.1308256785075L209.93099999999998,152.87737909952799L209.95999999999998,152.16375215848288L210.569,147.54452109336853L211.03300000000002,146.48113981882733L211.7145,151.2955322265625L212.309,152.91723942756653L212.39600000000002,147.52439634005228L212.4685,150.88096324602765L212.8455,148.6899721622467L213.26600000000002,148.40932750701904L213.54149999999998,152.51100262006122L214.339,144.327373902003L214.4695,150.10417215029398L215.2815,151.48493091265362L215.441,152.81061387062073L216.0645,147.15353727340698L216.1225,150.91752727826434L216.369,149.96350049972534L216.688,149.8361031214396L217.09400000000002,149.3610520362854L217.15200000000002,151.4702546596527L217.181,151.86487706502277L217.2245,147.42711106936136L217.4565,149.92087841033936L217.64499999999998,150.75948325792947L217.761,152.1103784243266L217.84799999999998,151.1154738267263L217.90599999999998,150.08446470896402L218.02200000000002,151.88287774721783L218.03650000000002,151.86059141159058L218.0945,148.56609614690143L218.1815,157.09140491485596L218.196,147.447549978892L218.77599999999998,145.56528536478677L218.834,146.1598517894745L220.226,148.9563860098521L220.371,142.16809384028116L220.545,151.1229995091756L220.79149999999998,153.01874001820883L220.893,149.36183508237204L221.02349999999998,150.3760110537211L221.125,147.33035564422607L221.2845,151.37766297658285L221.7775,148.0549686749776L221.908,154.5729083220164L222.5605,151.49390077590942L223.126,149.73049036661783L223.329,152.27995713551837L223.561,148.02337018648782L224.09750000000003,148.32573382059732L224.634,148.65428495407104L225.06900000000002,150.14806493123373L225.1995,151.46234917640686L225.214,148.9512657324473L225.475,154.5060540040334L225.591,150.8399260044098L225.852,148.80332628885907L226.02599999999998,148.69396710395813L226.08399999999997,145.06471729278564L226.5335,148.89136974016824L226.809,151.6559960047404L226.838,148.86710000038147L226.867,148.65955527623495L226.8815,150.6647253036499L227.07000000000002,149.82594227790833L227.679,151.24854946136475L227.882,149.97920362154642L228.17200000000003,142.46961347262064L228.5055,152.93549799919128L228.8245,152.28032286961874L229.12900000000002,153.81555740038556L229.5495,151.4496094385783L229.8105,157.24972558021545L230.0715,148.683482726415L230.173,148.2355194091797L230.405,156.10086568196616L230.6225,150.3885913689931L230.78199999999998,150.55650083223978L230.98499999999999,149.64761877059937L231.5795,147.50901675224304L231.71,149.5846140384674L232.087,149.31367071469623L232.5075,157.20839293797812L232.667,148.92114424705505L233.20350000000002,153.9136679172516L233.479,147.5987294514974L233.6385,154.349791765213L233.682,152.20334990819296L233.8415,149.2108150323232L233.92849999999999,152.25604375203451L234.01549999999997,153.54045033454895L234.03,156.7688086827596L234.291,148.28217395146686L234.5665,150.36278367042542L234.6245,152.49581058820087L234.726,147.5989170074463L234.813,151.32437833150226L234.987,148.13150556882223L235.0305,149.01678840319315L235.14649999999997,152.28994917869568L235.23350000000002,151.6859440008799L235.24800000000002,151.2479961713155L235.74099999999999,152.69315695762634L235.8425,152.77291981379193L236.36450000000002,145.68025716145834L236.9445,151.9577547709147L237.0605,148.501309633255L237.13299999999998,145.23034326235452L237.23450000000003,147.25477528572083L237.30700000000002,149.26153016090393L237.32150000000001,152.57074387868246L237.4375,152.71470713615417L237.626,151.8299447695414L237.78549999999998,156.2350713411967L237.79999999999998,146.57855637868244L237.8725,146.50593002637225L238.07549999999998,154.30916245778403L238.19150000000002,153.46351019541422L238.20600000000002,154.0118534564972L238.322,152.1493994394938L239.163,156.17071151733398L239.192,145.07296975453696L239.7575,146.7213052113851L239.772,145.43169395128885L239.946,150.0126870473226L240.3665,151.70369148254395L241.0335,144.97049856185913L241.35250000000002,149.60735519727072L242.469,147.75958681106567L242.672,148.52156098683676L242.8025,151.01245403289795L243.01999999999998,151.8705318768819L243.2665,149.35412653287253L243.38250000000002,149.51136875152588L243.745,148.0121355851491L243.8755,150.48487321535748L244.17999999999998,151.3413662115733L244.33950000000002,147.9970326423645L244.528,149.3739699522654L244.586,151.86186679204306L245.03549999999998,144.71078515052795L245.10799999999998,155.2127038637797L245.19500000000002,146.42287556330362L245.3545,151.24015164375305L245.4125,149.0618815422058L245.63,147.25484561920166L245.833,149.77695735295615L246.2535,150.10805455843607L246.7755,155.06251843770346L247.4425,149.55946747461957L247.457,153.74363907178244L247.51500000000001,145.55175789197287L247.921,153.51678546269736L248.095,150.40350206693014L248.24,147.5098701318105L248.298,152.1919558842977L248.501,151.41896279652914L248.7185,149.67075848579407L249.052,151.88677891095477L249.18249999999998,151.45342620213825L249.3855,151.08031177520752L249.5015,150.90777905782062L251.111,153.03709236780804L251.34300000000002,151.0736347834269L251.546,155.83785128593445L251.749,152.57445748647055L251.8795,156.0743546485901L252.3,149.82437149683633L252.44500000000002,149.2085643609365L252.5755,156.9493453502655L252.8075,151.82003243764242L252.8945,154.50247168540955L253.112,149.6927916208903L253.19899999999998,149.69954363505045L253.21349999999998,146.7898803551992L253.60500000000002,154.52359986305237L253.63400000000001,154.6632774670919L253.75,155.20136610666913L254.17049999999998,153.1245215733846L255.345,154.88700358072916L255.6785,151.87616324424744L255.751,153.64988454182944L256.186,151.30587593714398L256.65,151.41987244288126L256.824,149.40316772460938L256.969,150.57889970143637L257.3605,148.73128604888916L257.52,148.90418918927512L257.8535,149.33600862820944L257.955,152.41109625498456L257.99850000000004,154.413471698761L258.1145,153.66251174608865L258.187,148.74049035708111L258.303,156.42753656705221L258.39,152.68646121025085L258.54949999999997,152.88936392466226L259.1585,153.2688364982605L259.1875,153.69878506660461L259.85450000000003,153.7266840140025L259.869,151.59366178512573L260.217,151.73612928390503L260.449,147.49495005607605L260.71,151.87308263778687L261.029,152.27793153127033" style="fill: none;" fill="none"></path></g></g></g></g></g></g><g transform="translate(40, 177)" clip-path="url(#clip_1)"><clipPath id="clip_1"><rect width="290" height="22"></rect></clipPath><g><g><line x1="0" y1="0" x2="0" y2="5" style="visibility: inherit;" fill="rgb(0, 0, 0)" stroke="rgb(204, 204, 204)" stroke-width="1px"></line><line x1="29" y1="0" x2="29" y2="5" style="visibility: inherit;" fill="rgb(0, 0, 0)" stroke="rgb(204, 204, 204)" stroke-width="1px"></line><line x1="58" y1="0" x2="58" y2="5" style="visibility: inherit;" fill="rgb(0, 0, 0)" stroke="rgb(204, 204, 204)" stroke-width="1px"></line><line x1="87" y1="0" x2="87" y2="5" style="visibility: inherit;" fill="rgb(0, 0, 0)" stroke="rgb(204, 204, 204)" stroke-width="1px"></line><line x1="116" y1="0" x2="116" y2="5" style="visibility: inherit;" fill="rgb(0, 0, 0)" stroke="rgb(204, 204, 204)" stroke-width="1px"></line><line x1="145" y1="0" x2="145" y2="5" style="visibility: inherit;" fill="rgb(0, 0, 0)" stroke="rgb(204, 204, 204)" stroke-width="1px"></line><line x1="174" y1="0" x2="174" y2="5" style="visibility: inherit;" fill="rgb(0, 0, 0)" stroke="rgb(204, 204, 204)" stroke-width="1px"></line><line x1="203" y1="0" x2="203" y2="5" style="visibility: inherit;" fill="rgb(0, 0, 0)" stroke="rgb(204, 204, 204)" stroke-width="1px"></line><line x1="232" y1="0" x2="232" y2="5" style="visibility: inherit;" fill="rgb(0, 0, 0)" stroke="rgb(204, 204, 204)" stroke-width="1px"></line><line x1="261" y1="0" x2="261" y2="5" style="visibility: inherit;" fill="rgb(0, 0, 0)" stroke="rgb(204, 204, 204)" stroke-width="1px"></line><line x1="290" y1="0" x2="290" y2="5" style="visibility: inherit;" fill="rgb(0, 0, 0)" stroke="rgb(204, 204, 204)" stroke-width="1px"></line></g><g transform="translate(0, 8)"><text x="0" y="0" dx="0em" dy="0.95em" style="text-anchor: middle; visibility: hidden; font-family: Roboto, sans-serif; font-size: 12px; font-weight: 200;" fill="rgb(33, 33, 33)" stroke="none" stroke-width="1px">-2k</text><text x="29" y="0" dx="0em" dy="0.95em" style="text-anchor: middle; visibility: inherit; font-family: Roboto, sans-serif; font-size: 12px; font-weight: 200;" fill="rgb(33, 33, 33)" stroke="none" stroke-width="1px">0</text><text x="58" y="0" dx="0em" dy="0.95em" style="text-anchor: middle; visibility: inherit; font-family: Roboto, sans-serif; font-size: 12px; font-weight: 200;" fill="rgb(33, 33, 33)" stroke="none" stroke-width="1px">2k</text><text x="87" y="0" dx="0em" dy="0.95em" style="text-anchor: middle; visibility: inherit; font-family: Roboto, sans-serif; font-size: 12px; font-weight: 200;" fill="rgb(33, 33, 33)" stroke="none" stroke-width="1px">4k</text><text x="116" y="0" dx="0em" dy="0.95em" style="text-anchor: middle; visibility: inherit; font-family: Roboto, sans-serif; font-size: 12px; font-weight: 200;" fill="rgb(33, 33, 33)" stroke="none" stroke-width="1px">6k</text><text x="145" y="0" dx="0em" dy="0.95em" style="text-anchor: middle; visibility: inherit; font-family: Roboto, sans-serif; font-size: 12px; font-weight: 200;" fill="rgb(33, 33, 33)" stroke="none" stroke-width="1px">8k</text><text x="174" y="0" dx="0em" dy="0.95em" style="text-anchor: middle; visibility: inherit; font-family: Roboto, sans-serif; font-size: 12px; font-weight: 200;" fill="rgb(33, 33, 33)" stroke="none" stroke-width="1px">10k</text><text x="203" y="0" dx="0em" dy="0.95em" style="text-anchor: middle; visibility: inherit; font-family: Roboto, sans-serif; font-size: 12px; font-weight: 200;" fill="rgb(33, 33, 33)" stroke="none" stroke-width="1px">12k</text><text x="232" y="0" dx="0em" dy="0.95em" style="text-anchor: middle; visibility: inherit; font-family: Roboto, sans-serif; font-size: 12px; font-weight: 200;" fill="rgb(33, 33, 33)" stroke="none" stroke-width="1px">14k</text><text x="261" y="0" dx="0em" dy="0.95em" style="text-anchor: middle; visibility: inherit; font-family: Roboto, sans-serif; font-size: 12px; font-weight: 200;" fill="rgb(33, 33, 33)" stroke="none" stroke-width="1px">16k</text><text x="290" y="0" dx="0em" dy="0.95em" style="text-anchor: middle; visibility: hidden; font-family: Roboto, sans-serif; font-size: 12px; font-weight: 200;" fill="rgb(33, 33, 33)" stroke="none" stroke-width="1px">18k</text></g><line x1="0" y1="0" x2="290" y2="0" fill="rgb(0, 0, 0)" stroke="rgb(204, 204, 204)" stroke-width="1px"></line></g></g></g></g></svg>