<svg viewBox="0 0 330 200" xmlns="http://www.w3.org/2000/svg"><g><g><g><g><g><line x1="70" y1="177" x2="65" y2="177" style="visibility: inherit;" fill="rgb(0, 0, 0)" stroke="rgb(204, 204, 204)" stroke-width="1px"></line><line x1="70" y1="162.25" x2="65" y2="162.25" style="visibility: inherit;" fill="rgb(0, 0, 0)" stroke="rgb(204, 204, 204)" stroke-width="1px"></line><line x1="70" y1="147.5" x2="65" y2="147.5" style="visibility: inherit;" fill="rgb(0, 0, 0)" stroke="rgb(204, 204, 204)" stroke-width="1px"></line><line x1="70" y1="132.75" x2="65" y2="132.75" style="visibility: inherit;" fill="rgb(0, 0, 0)" stroke="rgb(204, 204, 204)" stroke-width="1px"></line><line x1="70" y1="118.00000000000001" x2="65" y2="118.00000000000001" style="visibility: inherit;" fill="rgb(0, 0, 0)" stroke="rgb(204, 204, 204)" stroke-width="1px"></line><line x1="70" y1="103.25" x2="65" y2="103.25" style="visibility: inherit;" fill="rgb(0, 0, 0)" stroke="rgb(204, 204, 204)" stroke-width="1px"></line><line x1="70" y1="88.5" x2="65" y2="88.5" style="visibility: inherit;" fill="rgb(0, 0, 0)" stroke="rgb(204, 204, 204)" stroke-width="1px"></line><line x1="70" y1="73.75000000000001" x2="65" y2="73.75000000000001" style="visibility: inherit;" fill="rgb(0, 0, 0)" stroke="rgb(204, 204, 204)" stroke-width="1px"></line><line x1="70" y1="59.00000000000001" x2="65" y2="59.00000000000001" style="visibility: inherit;" fill="rgb(0, 0, 0)" stroke="rgb(204, 204, 204)" stroke-width="1px"></line><line x1="70" y1="44.25" x2="65" y2="44.25" style="visibility: inherit;" fill="rgb(0, 0, 0)" stroke="rgb(204, 204, 204)" stroke-width="1px"></line><line x1="70" y1="29.500000000000014" x2="65" y2="29.500000000000014" style="visibility: inherit;" fill="rgb(0, 0, 0)" stroke="rgb(204, 204, 204)" stroke-width="1px"></line><line x1="70" y1="14.750000000000007" x2="65" y2="14.750000000000007" style="visibility: inherit;" fill="rgb(0, 0, 0)" stroke="rgb(204, 204, 204)" stroke-width="1px"></line><line x1="70" y1="0" x2="65" y2="0" style="visibility: inherit;" fill="rgb(0, 0, 0)" stroke="rgb(204, 204, 204)" stroke-width="1px"></line></g><g transform="translate(60, 0)"><text x="0" y="177" dx="0em" dy="0.3em" style="text-anchor: end; visibility: hidden; font-family: Roboto, sans-serif; font-size: 12px; font-weight: 200;" fill="rgb(33, 33, 33)" stroke="none" stroke-width="1px">-1e-4</text><text x="0" y="162.25" dx="0em" dy="0.3em" style="text-anchor: end; visibility: inherit; font-family: Roboto, sans-serif; font-size: 12px; font-weight: 200;" fill="rgb(33, 33, 33)" stroke="none" stroke-width="1px">0</text><text x="0" y="147.5" dx="0em" dy="0.3em" style="text-anchor: end; visibility: hidden; font-family: Roboto, sans-serif; font-size: 12px; font-weight: 200;" fill="rgb(33, 33, 33)" stroke="none" stroke-width="1px">1e-4</text><text x="0" y="132.75" dx="0em" dy="0.3em" style="text-anchor: end; visibility: inherit; font-family: Roboto, sans-serif; font-size: 12px; font-weight: 200;" fill="rgb(33, 33, 33)" stroke="none" stroke-width="1px">2e-4</text><text x="0" y="118.00000000000001" dx="0em" dy="0.3em" style="text-anchor: end; visibility: hidden; font-family: Roboto, sans-serif; font-size: 12px; font-weight: 200;" fill="rgb(33, 33, 33)" stroke="none" stroke-width="1px">3e-4</text><text x="0" y="103.25" dx="0em" dy="0.3em" style="text-anchor: end; visibility: inherit; font-family: Roboto, sans-serif; font-size: 12px; font-weight: 200;" fill="rgb(33, 33, 33)" stroke="none" stroke-width="1px">4e-4</text><text x="0" y="88.5" dx="0em" dy="0.3em" style="text-anchor: end; visibility: hidden; font-family: Roboto, sans-serif; font-size: 12px; font-weight: 200;" fill="rgb(33, 33, 33)" stroke="none" stroke-width="1px">5e-4</text><text x="0" y="73.75000000000001" dx="0em" dy="0.3em" style="text-anchor: end; visibility: inherit; font-family: Roboto, sans-serif; font-size: 12px; font-weight: 200;" fill="rgb(33, 33, 33)" stroke="none" stroke-width="1px">6e-4</text><text x="0" y="59.00000000000001" dx="0em" dy="0.3em" style="text-anchor: end; visibility: hidden; font-family: Roboto, sans-serif; font-size: 12px; font-weight: 200;" fill="rgb(33, 33, 33)" stroke="none" stroke-width="1px">7e-4</text><text x="0" y="44.25" dx="0em" dy="0.3em" style="text-anchor: end; visibility: inherit; font-family: Roboto, sans-serif; font-size: 12px; font-weight: 200;" fill="rgb(33, 33, 33)" stroke="none" stroke-width="1px">8e-4</text><text x="0" y="29.500000000000014" dx="0em" dy="0.3em" style="text-anchor: end; visibility: hidden; font-family: Roboto, sans-serif; font-size: 12px; font-weight: 200;" fill="rgb(33, 33, 33)" stroke="none" stroke-width="1px">9e-4</text><text x="0" y="14.750000000000007" dx="0em" dy="0.3em" style="text-anchor: end; visibility: inherit; font-family: Roboto, sans-serif; font-size: 12px; font-weight: 200;" fill="rgb(33, 33, 33)" stroke="none" stroke-width="1px">1e-3</text><text x="0" y="0" dx="0em" dy="0.3em" style="text-anchor: end; visibility: hidden; font-family: Roboto, sans-serif; font-size: 12px; font-weight: 200;" fill="rgb(33, 33, 33)" stroke="none" stroke-width="1px">1.1e-3</text></g><line x1="70" y1="0" x2="70" y2="177" fill="rgb(0, 0, 0)" stroke="rgb(204, 204, 204)" stroke-width="1px"></line></g></g><g transform="translate(70, 0)" clip-path="url(#clip_0)"><clipPath id="clip_0"><rect width="260" height="176"></rect></clipPath><g><g><g><line x1="0" y1="0" x2="0" y2="177" fill="rgb(0, 0, 0)" stroke="rgb(66, 66, 66)" stroke-width="1px" opacity="0.25"></line><line x1="26" y1="0" x2="26" y2="177" fill="rgb(0, 0, 0)" stroke="rgb(66, 66, 66)" stroke-width="1px" opacity="0.25"></line><line x1="52" y1="0" x2="52" y2="177" fill="rgb(0, 0, 0)" stroke="rgb(66, 66, 66)" stroke-width="1px" opacity="0.25"></line><line x1="78" y1="0" x2="78" y2="177" fill="rgb(0, 0, 0)" stroke="rgb(66, 66, 66)" stroke-width="1px" opacity="0.25"></line><line x1="104" y1="0" x2="104" y2="177" fill="rgb(0, 0, 0)" stroke="rgb(66, 66, 66)" stroke-width="1px" opacity="0.25"></line><line x1="130" y1="0" x2="130" y2="177" fill="rgb(0, 0, 0)" stroke="rgb(66, 66, 66)" stroke-width="1px" opacity="0.25"></line><line x1="156" y1="0" x2="156" y2="177" fill="rgb(0, 0, 0)" stroke="rgb(66, 66, 66)" stroke-width="1px" opacity="0.25"></line><line x1="182" y1="0" x2="182" y2="177" fill="rgb(0, 0, 0)" stroke="rgb(66, 66, 66)" stroke-width="1px" opacity="0.25"></line><line x1="208" y1="0" x2="208" y2="177" fill="rgb(0, 0, 0)" stroke="rgb(66, 66, 66)" stroke-width="1px" opacity="0.25"></line><line x1="234" y1="0" x2="234" y2="177" fill="rgb(0, 0, 0)" stroke="rgb(66, 66, 66)" stroke-width="1px" opacity="0.25"></line><line x1="260" y1="0" x2="260" y2="177" fill="rgb(0, 0, 0)" stroke="rgb(66, 66, 66)" stroke-width="1px" opacity="0.25"></line></g><g><line x1="0" y1="177" x2="260" y2="177" fill="rgb(0, 0, 0)" stroke="rgb(66, 66, 66)" stroke-width="1px" opacity="0.25"></line><line x1="0" y1="162.25" x2="260" y2="162.25" fill="rgb(0, 0, 0)" stroke="rgb(66, 66, 66)" stroke-width="1px" opacity="0.25"></line><line x1="0" y1="147.5" x2="260" y2="147.5" fill="rgb(0, 0, 0)" stroke="rgb(66, 66, 66)" stroke-width="1px" opacity="0.25"></line><line x1="0" y1="132.75" x2="260" y2="132.75" fill="rgb(0, 0, 0)" stroke="rgb(66, 66, 66)" stroke-width="1px" opacity="0.25"></line><line x1="0" y1="118.00000000000001" x2="260" y2="118.00000000000001" fill="rgb(0, 0, 0)" stroke="rgb(66, 66, 66)" stroke-width="1px" opacity="0.25"></line><line x1="0" y1="103.25" x2="260" y2="103.25" fill="rgb(0, 0, 0)" stroke="rgb(66, 66, 66)" stroke-width="1px" opacity="0.25"></line><line x1="0" y1="88.5" x2="260" y2="88.5" fill="rgb(0, 0, 0)" stroke="rgb(66, 66, 66)" stroke-width="1px" opacity="0.25"></line><line x1="0" y1="73.75000000000001" x2="260" y2="73.75000000000001" fill="rgb(0, 0, 0)" stroke="rgb(66, 66, 66)" stroke-width="1px" opacity="0.25"></line><line x1="0" y1="59.00000000000001" x2="260" y2="59.00000000000001" fill="rgb(0, 0, 0)" stroke="rgb(66, 66, 66)" stroke-width="1px" opacity="0.25"></line><line x1="0" y1="44.25" x2="260" y2="44.25" fill="rgb(0, 0, 0)" stroke="rgb(66, 66, 66)" stroke-width="1px" opacity="0.25"></line><line x1="0" y1="29.500000000000014" x2="260" y2="29.500000000000014" fill="rgb(0, 0, 0)" stroke="rgb(66, 66, 66)" stroke-width="1px" opacity="0.25"></line><line x1="0" y1="14.750000000000007" x2="260" y2="14.750000000000007" fill="rgb(0, 0, 0)" stroke="rgb(66, 66, 66)" stroke-width="1px" opacity="0.25"></line><line x1="0" y1="0" x2="260" y2="0" fill="rgb(0, 0, 0)" stroke="rgb(66, 66, 66)" stroke-width="1px" opacity="0.25"></line></g></g></g><g><g><line x1="0" y1="162.25" x2="260" y2="162.25" fill="rgb(0, 0, 0)" stroke="rgb(153, 153, 153)" stroke-width="1.5px"></line></g></g><g><g><line x1="26" y1="0" x2="26" y2="177" fill="rgb(0, 0, 0)" stroke="rgb(153, 153, 153)" stroke-width="1.5px"></line></g></g><g><g><g><g><g><path stroke="rgb(255, 112, 67)" stroke-width="2px" d="M26.234,145.92359392432263L26.611,144.41978461186955L26.806,143.32447053946683L26.819000000000003,142.80311443134568L26.923000000000002,142.24930483816044L27.157,141.31931862349074L27.339,140.31188966458453L27.391,139.5907716873595L27.663999999999998,138.46189882093032L28.08,136.7234402434499L28.132,135.55388362194103L28.236,134.58879166638332L28.482999999999997,133.37969597524838L28.639,132.2566872302545L28.976999999999997,130.7201648680788L29.171999999999997,129.3007606146383L29.366999999999997,127.95147724717569L29.665999999999997,126.3786635781136L29.705000000000002,125.3355091463781L30.108,123.68080694761508L30.147,122.58845976457012L30.498,121.03699340084977L30.654,119.70787219146429L30.758,118.64490633817137L31.018,117.34337825990936L31.226,116.03146226630102L31.395,114.81287545132412L31.668000000000003,113.38478693568396L31.681,112.49474748119692L31.798000000000002,111.66203503656357L31.993000000000002,110.66459562379487L32.045,109.93338275654558L32.175,109.16277924765893L32.253,108.50129236106243L32.63,107.14196312328211L32.929,105.56305328539919L32.994,104.44976948709825L33.02,103.71542370686869L33.228,102.74381734737506L33.306,101.96172873368808L33.722,100.43047434720523L33.748,99.4453479277836L34.281,97.49358365928818L34.358999999999995,96.1234002994071L34.372,95.26810338948394L34.553999999999995,94.29030013992596L34.671,93.40492927442804L34.775,92.60820816774853L35.373000000000005,90.60355089913776L35.931999999999995,87.97369433293805L36.075,86.03071597202711L36.166,84.63261554510689L36.244,83.594630489847L36.452,82.44084228189969L37.141,79.98963134215803L37.258,78.2202175796489L37.518,76.49481770227572L38.246,73.60107736132386L38.987,69.97314756520788L39.052,67.6304500654455L39.195,65.85977057863714L39.286,64.56504947617317L39.337999999999994,63.655465803870776L39.364000000000004,63.04334181220336L39.481,62.377380218537894L39.727999999999994,61.34724025373965L39.922999999999995,60.23134427708574L40.001,59.36268189198339L40.274,58.14454766403698L40.417,57.04860270606614L40.443,56.32466194299765L40.625,55.425670664398574L40.715999999999994,54.6539659211121L40.963,53.56038006654125L40.976,52.87103994252975L41.132000000000005,52.05918626990288L41.262,51.24019825639273L41.288,50.68243166000066L41.392,50.08227311476942L41.833999999999996,48.5938029812567L41.925000000000004,47.46840749077008L42.275999999999996,45.89710860048312L42.302,44.88795204377295L42.341,44.18289571019185L42.393,43.62711089921918L42.471,43.09451521352561L42.523,42.64221022553747L42.873999999999995,41.47476220249761L43.225,39.87823179267871L43.485,38.256565361171376L43.875,36.28793807246502L43.888,35.07357652222418L44.421,32.98427117532674L44.707,31.00056255903427L44.941,29.21296299192882L44.954,28.10721464039654L45.422,26.249016834817194L45.526,24.868596129821626L45.629999999999995,23.77484511942827L45.669,23.01903211363727L46.124,21.40398069251969L46.163000000000004,20.33538744029414L46.345,19.22960810245283L46.384,18.46657466594105L46.449,17.842818416192976L46.605,17.07031506812416L46.748,16.241752072331852L47.151,15.759745589141582L47.254999999999995,15.503311331753153L47.71,15.49281706105721L47.905,15.547966135314397L48.126,15.65069534180093L48.152,15.720520122446299L48.190999999999995,15.774709612971678L48.242999999999995,15.823604689297786L49.075,16.115098795299364L49.101,16.298189384157755L49.257000000000005,16.457201620513384L50.010999999999996,16.79019051526439L50.18,17.043235363532315L50.271,17.22373140813812L50.687000000000005,17.463114433508554L50.726,17.619032002364946L50.803999999999995,17.73715805094712L50.817,17.812127308473144L51.168,17.967712382704104L51.22,18.077444809253556L51.285000000000004,18.16376614407482L51.480000000000004,18.27700458164237L51.493,18.349041272559614L51.727,18.465996677418858L52.91,18.908927066003706L53.027,19.211551994309076L53.157,19.43409070907548L53.3,19.61267132409522L53.495,19.781265329781835L53.547,19.89880654945665L54.522,20.276549161879387L54.717,20.56463693175582L54.795,20.762068535201944L55.107,20.978836394846862L55.172,21.129378989525367L56.147,21.52692242695034L56.667,21.92930008628603L57.122,22.314092965624553L57.668,22.71701098111383L57.733,22.979243669298977L57.902,23.18983479362738L58.006,23.348959100750182L58.045,23.456721438658004L58.305,23.603306356969043L58.538999999999994,23.764987264012568L58.721,23.91934438228474L58.747,24.020149344253483L58.89,24.125693141846646L59.501,24.381543587180246L59.513999999999996,24.53914748275716L59.787,24.719730964046352L60.151,24.942778200911977L60.255,25.109376175557067L60.359,25.24210459286987L60.71,25.432338294468938L60.762,25.56286333169127L60.853,25.669854358173684L60.891999999999996,25.746336727697255L61.009,25.829092844565857L61.204,25.940188717109805L61.321,26.04371293579061L61.542,26.17546379467931L61.607,26.274996188904126L61.62,26.33881268806772L61.789,26.430354098983194L61.802,26.489372573909236L61.815,26.52888072149356L61.945,26.593549367827325L61.984,26.64463830926175L62.205,26.744928001802577L62.556000000000004,26.915701902790488L62.842,27.108281015703L62.972,27.264792241233692L63.193,27.428335304232295L63.206,27.530558204660167L63.973,27.833570560483235L64.37599999999999,28.142359441451337L64.415,28.33992052366638L64.506,28.487133177144422L64.545,28.587748522865386L64.649,28.68088736282369L65.247,28.92519777094772L65.442,29.133229652496887L65.611,29.311296858591735L66.079,29.565603962866447L66.092,29.722285288060004L66.339,29.89412110186178L66.35199999999999,30.001319652771564L66.365,30.069735845946155L66.547,30.168130701644934L66.56,30.231264677692934L66.573,30.27324212595044L66.664,30.327101164801995L66.88499999999999,30.42905291579311L67.249,30.6049176802279L67.496,30.788266991826394L67.587,30.926949148682496L67.652,31.03064032168776L67.82100000000001,31.14610653690826L67.86,31.22767401967468L68.133,31.362635653277646L68.445,31.541921531016605L68.48400000000001,31.66178424554618L68.978,31.88935934588718L69.42,32.16517706145216L69.628,32.39620695584264L69.862,32.60855484853384L70.005,32.78102440456047L70.252,32.96233315686209L70.434,33.12846698228909L70.99300000000001,33.40428662806016L71.279,33.659893187842584L71.292,33.81735418634076L71.38300000000001,33.94050678958868L71.409,34.02258904254286L71.5,34.10051096421242L71.838,34.25376714004881L72.358,34.509572442431335L72.39699999999999,34.675343377495004L72.488,34.803478508430246L72.64399999999999,34.92951403577999L72.80000000000001,35.054293235230446L72.96900000000001,35.18240883206606L72.982,35.263375252796145L73.008,35.32014923049162L73.502,35.50987108873218L73.541,35.63599195731068L73.567,35.71985860371522L73.593,35.778369282563375L73.632,35.82576344350641L73.684,35.87058475633512L73.72300000000001,35.9097687319185L73.97,36.01110613595415L74.256,36.162026784947315L74.321,36.27306105323483L74.802,36.491242023201856L74.89299999999999,36.65082317507915L74.91900000000001,36.75476599146292L75.16600000000001,36.89495869997884L76.024,37.24942551055177L76.05,37.470299722152944L76.297,37.68065126779929L76.726,37.942041222170765L76.84299999999999,38.135738455696135L76.89500000000001,38.268341612074224L76.973,38.372482447421376L77.129,38.48412139741828L77.168,38.563392521050574L77.558,38.733843034327485L77.675,38.87298003744807L77.753,38.98104118084075L78.15599999999999,39.172859334350605L78.182,39.29614435171394L78.29899999999999,39.40698205728641L78.44200000000001,39.51854206678979L78.52,39.61005701401211L78.611,39.693638552242525L79.09200000000001,39.89534788417534L79.417,40.11877944354097L79.495,40.27741732068065L79.573,40.39717555423276L79.61200000000001,40.48132168225017L79.89800000000001,40.62192413138044L80.353,40.849655318847695L80.496,41.03135141748794L80.95100000000001,41.28373879466121L81.237,41.52528942753697L81.34100000000001,41.702989439788176L82.134,42.05947875371068L82.26400000000001,42.31433609984734L82.342,42.49182944904963L83.13499999999999,42.84819476514281L83.655,43.22586211742743L83.759,43.48523559557592L83.902,43.68591706862493L84.05799999999999,43.85548040124293L84.825,44.198897016380066L84.955,44.44591074324554L85.007,44.610503795627686L85.332,44.81166558726291L85.384,44.948747478506945L85.462,45.055572120521646L85.917,45.26303662371959L85.956,45.399803079272516L86.43700000000001,45.633423361598815L86.56700000000001,45.81455928877779L86.91799999999999,46.033840930548536L86.97,46.18179473187385L86.99600000000001,46.2787577036745L87.074,46.36151442827518L87.19099999999999,46.44803515819004L87.49000000000001,46.59415943108746L87.58099999999999,46.71050656472294L87.86699999999999,46.87043305147602L88.036,47.019640454945204L88.088,47.12554971328959L88.101,47.193192330924944L88.491,47.356665740603674L88.79,47.548961621359425L88.816,47.67253327507031L88.855,47.758964020930975L88.868,47.814919531076114L88.972,47.88126246968894L89.46600000000001,48.0767257044799L89.635,48.24725515677179L89.83,48.41101503056972L90.077,48.58710140778608L90.22,48.73781062027582L90.33699999999999,48.86510284292411L90.74,49.068459643987325L90.88300000000001,49.23553454503715L91.299,49.46685801577001L91.611,49.70396099578695L91.858,49.924053236734764L92.027,50.10936009272077L92.03999999999999,50.22464126894111L92.14399999999999,50.32657960719903L92.17,50.395933301159225L92.716,50.60958780542152L92.768,50.754165324241725L92.82,50.85729665179672L92.963,50.96423626874164L93.00200000000001,51.04068779254273L93.015,51.090655769452106L93.431,51.251715085700695L93.574,51.39340806160975L93.6,51.4866179724126L93.665,51.56302579778592L93.691,51.61706118401533L93.834,51.69454323616486L93.925,51.76970503735163L94.094,51.868053629481004L94.28899999999999,51.98850498718141L94.40599999999999,52.0976424969561L94.44500000000001,52.175412756455074L94.83500000000001,52.344962751251984L95.134,52.540908017330636L95.147,52.66257223960653L95.18599999999999,52.74785852660624L95.212,52.8072209898115L95.264,52.859223283997515L95.34200000000001,52.91500360202944L95.70599999999999,53.06316550668869L95.81,53.18483228200998L96.109,53.35204761640325L96.23899999999999,53.49334057482239L96.78500000000001,53.75015863776004L96.90199999999999,53.94111273642506L96.967,54.07616707451569L97.55199999999999,54.34152971889035L97.617,54.521229184406735L97.773,54.6782033125052L98.37100000000001,54.960814893513266L98.85199999999999,55.28194568536466L99.671,55.732687592304714L100.49000000000001,56.26119616829796L100.854,56.692995027734L101.153,57.04628617834413L101.816,57.46716985175082L102.258,57.858972711155225L102.427,58.147305938215226L102.46600000000001,58.33259362808535L103.324,58.71412086172281L103.428,58.97580683443101L103.532,59.165588050581675L103.753,59.34909310795227L103.87,59.496062837529095L103.961,59.612917245172206L104.039,59.70760539702638L104.11699999999999,59.788997229659195L104.585,59.98529567560474L104.68900000000001,60.13584780994978L105.014,60.328585050762754L105.02699999999999,60.44832102362727L105.44300000000001,60.651244571700914L105.46900000000001,60.781189391550555L105.729,60.941080364774706L105.794,61.05749682760077L105.82,61.135540830553836L105.846,61.190557923331134L106.184,61.33007120183216L106.925,61.64726709349367L107.159,61.91131458454751L107.627,62.21720985979764L107.65299999999999,62.40893771595318L107.89999999999999,62.601804882584126L108.316,62.84860371266566L108.342,63.004877135972016L108.511,63.15188926712114L108.654,63.28515736622254L108.667,63.36921528831207L108.732,63.44012848620537L108.797,63.50315828383296L109.278,63.69253657140408L109.512,63.87989693425564L109.759,64.07014360490423L109.967,64.24983087234486L110.149,64.4149883726033L110.383,64.58781626306727L110.42200000000001,64.70380075097981L110.864,64.91266409908773L110.90299999999999,65.05027329583864L111.098,65.19428101631195L111.163,65.30116752748751L111.33200000000001,65.4185509456102L111.397,65.50945944112338L111.605,65.6295472377348L111.67,65.72207836034123L111.735,65.79807891279665L111.787,65.86006406053282L111.995,65.96279784847796L112.437,66.16370734235345L112.749,66.382565370508L113.295,66.68592247528684L113.36,66.88841518279376L113.49,67.05087456508107L113.54199999999999,67.16473501071634L113.75,67.29859054314899L113.893,67.42396468302044L114.205,67.59749806452056L114.426,67.77125442110082L114.673,67.95333525373462L114.946,68.14860489725798L115.05,68.29853631589773L115.167,68.42536186223602L115.375,68.5669998893425L115.90799999999999,68.81992793086378L115.947,68.98397250941075L116.09,69.1274566426988L116.18100000000001,69.24222312682066L116.675,69.46674048891705L116.883,69.66699017122637L116.948,69.80762185950354L116.974,69.90019156347527L117.23400000000001,70.03765746717269L117.37700000000001,70.16519782980302L117.572,70.30316424980398L117.702,70.42690785958776L118.521,70.7592174572872L118.56,70.97089096954103L118.63799999999999,71.12247401841364L119.132,71.36908131936048L119.30099999999999,71.57029377709392L119.314,71.69511831436269L119.34,71.77820716198138L119.69099999999999,71.938657121764L119.925,72.10866048794249L120.289,72.32535622148966L120.562,72.54139480556103L121.00399999999999,72.81029061136425L121.342,73.07813111768085L121.39399999999999,73.25522023773368L121.589,73.42291934644014L121.654,73.54401725630362L121.771,73.65354269737614L122.005,73.7929913523286L122.512,74.03641507955206L122.655,74.22752670204602L122.668,74.3462907381711L123.032,74.53224287368627L123.084,74.66019897125824L123.11,74.74516675505883L123.266,74.84530187412783L123.578,75.00369184314643L123.734,75.14788027334622L123.838,75.26716296399184L123.91600000000001,75.36331151989951L124.05900000000001,75.466058039604L124.163,75.56047558395244L124.18900000000001,75.62532023581893L124.267,75.68880253420714L124.709,75.86616456860048L124.82600000000001,76.00944848439093L124.852,76.10361295912263L124.891,76.1723993975958L125.294,76.34065616240595L125.372,76.46618572856036L125.58,76.6070427333045L126.45100000000001,76.96600518424304L126.49,77.19367384269235L126.828,77.43677462634457L126.893,77.6031169754275L127.322,77.83809797760892L127.33500000000001,77.98318364154652L127.673,78.17673806274372L127.894,78.36250704314227L127.946,78.49035324764424L128.05,78.59983060287118L128.115,78.6859988948989L128.12800000000001,78.7417969327443L128.206,78.79985126271981L128.466,78.9166079420195L128.63500000000002,79.03991346101661L128.713,79.1384757139352L129.038,79.3000190258923L129.077,79.4092327667007L129.818,79.70824893574667L130.41600000000003,80.07608574132324L130.59799999999998,80.35413296446323L130.702,80.55373093087297L131.001,80.76770497991933L131.014,80.90018647197586L131.24800000000002,81.05340532326669L131.586,81.25183965687583L131.87199999999999,81.46101846361314L132.119,81.66435276634117L132.132,81.79045041060668L132.496,81.98080271100608L132.80800000000002,82.19332642307495L132.97699999999998,82.3740921617336L133.315,82.58905119351145L133.601,82.80814481914994L133.679,82.96417993605336L133.783,83.09057063872115L133.848,83.1868869392134L134.53699999999998,83.4617763935548L134.576,83.6389978197938L134.719,83.79039149594908L134.901,83.93857284143628L135.161,84.10940916429499L135.343,84.26925609780423L135.40800000000002,84.38564613680137L135.941,84.62342538545708L136.38299999999998,84.9053655900109L136.552,85.12778122416054L136.773,85.33086693233052L136.89,85.48958505238696L137.124,85.65854931472975L137.202,85.78450337940373L137.319,85.89694251336256L137.878,86.14054534425274L138.03400000000002,86.33586149157546L138.06,86.46124187097452L138.151,86.56514610276298L138.567,86.75856717193903L138.619,86.89100462970752L139.022,87.09745200609487L139.1,87.24589593919559L139.334,87.40869568936493L139.412,87.53095448098685L139.77599999999998,87.71900346980009L139.802,87.84002355409346L140.088,88.00275381124129L140.114,88.10858609078741L140.244,88.21304578204628L140.387,88.32078241721347L140.699,88.48373329589103L140.82899999999998,88.62246758088072L141.245,88.83678668197753L141.31,88.9858600215272L141.40099999999998,89.10397659515398L141.544,89.21990392548997L141.62199999999999,89.31403926521187L141.921,89.46473573824554L141.973,89.57153843832859L142.805,89.89777883571034L142.87,90.114003235905L143.078,90.30927885819928L143.429,90.5370425999132L143.637,90.73924010999306L143.754,90.89742531119545L143.91,91.04149088070547L144.521,91.32045438918922L144.573,91.50421731054233L144.976,91.74145824795447L145.47,92.03946028202499L145.509,92.23054925610148L145.639,92.38616639833053L145.756,92.51640166169645L145.88600000000002,92.63550657749917L145.93800000000002,92.72335434324367L146.276,92.88256430839903L146.783,93.13784482174422L146.93900000000002,93.34016757853996L146.965,93.46975364074883L147.056,93.57617956509718L147.199,93.68509250586608L147.251,93.76682508659032L147.329,93.84044357654513L147.368,93.8969024241522L147.485,93.96764442787087L147.576,94.03876391712512L147.667,94.1101081805747L147.745,94.17749196303875L147.758,94.22201929514588L147.836,94.27331291880446L147.90099999999998,94.32457097189122L148.031,94.39628784440045L148.434,94.56630115250624L148.73299999999998,94.76252268944421L148.75900000000001,94.88844801973842L148.928,95.01725472933228L149.136,95.16007802014009L149.344,95.31131297680227L149.357,95.40614929630227L149.37,95.46714815063099L149.994,95.70036697550869L150.11100000000002,95.87716496558976L150.228,96.02010873766685L150.358,96.1468370415703L150.709,96.33347410937573L150.813,96.47822598258473L150.89100000000002,96.58965433090442L151.06,96.70976285131361L151.723,96.99073522947369L151.736,97.16341571899848L151.775,97.27931176634748L151.996,97.4184857224371L152.15200000000002,97.55114626200547L152.16500000000002,97.63483793124924L152.256,97.7137272198185L152.56799999999998,97.85936969053728L152.594,97.95494758109999L152.789,98.07373823498637L152.802,98.14910968994694L153.036,98.26806423610618L153.244,98.40497794597923L153.374,98.5280882125602L153.569,98.66339829205756L153.712,98.7896417259159L153.881,98.91863929764823L154.05,99.04928935210492L154.27100000000002,99.19731571245917L154.362,99.31480581569473L154.622,99.46722395895043L154.75199999999998,99.59963688556101L154.908,99.72824080744198L154.921,99.80949850607328L155.324,99.9852363098523L155.33700000000002,100.09477605474844L155.35,100.16459524718883L155.48,100.24745052043623L155.649,100.35041347867602L155.727,100.43676847801417L155.83100000000002,100.52135282726884L155.909,100.59668066121593L156.819,100.92861336331045L157.17000000000002,101.23837307003049L157.573,101.55121207866279L157.63799999999998,101.75939564560777L157.794,101.93346195168935L158.45700000000002,102.24680900125291L158.483,102.44300963912247L158.704,102.63036634952441L158.79500000000002,102.7714546627886L158.92499999999998,102.89706969140428L159.497,103.15267340459128L159.64,103.35109473578939L159.848,103.53568679955973L160.446,103.83486914197091L160.48499999999999,104.02666801817782L160.498,104.14584268940466L161.13500000000002,104.41806406704994L161.785,104.78620881404899L161.863,105.03167288664272L161.876,105.18304839282769L161.954,105.29845092093296L162.513,105.543830071185L162.734,105.76069388901642L163.163,106.02598948957295L163.293,106.22612889056404L163.449,106.39536697994731L163.553,106.52967946610302L163.74800000000002,106.6717108773452L163.982,106.83066311439944L164.229,107.0038631924436L164.359,107.14874527992728L164.385,107.24386694054894L165.191,107.55490630612243L165.321,107.78249196612369L165.412,107.94771764914748L165.47699999999998,108.06733493785333L165.685,108.20464457612833L165.77599999999998,108.31570464611636L165.945,108.4355921995265L166.023,108.53210195596688L166.517,108.74566528145438L166.946,109.00897886947857L167.661,109.39226082159657L167.713,109.63861480913022L168.68800000000002,110.09364508226825L169.286,110.55509035030006L169.299,110.8360528566219L169.364,111.02511223930657L169.46800000000002,111.17131750144313L169.702,111.33277404903396L170.22199999999998,111.59349785734318L170.53400000000002,111.84824103990596L170.612,112.02566417383791L170.625,112.1362151168258L170.72899999999998,112.23531531514428L171.067,112.40127845697002L171.20999999999998,112.54591372822536L171.704,112.78835236260183L171.756,112.9502003594906L171.834,113.07188638201815L171.925,113.17357228255771L171.938,113.23868088551015L172.09400000000002,113.32690049607024L172.32799999999997,113.45356393558923L172.692,113.6442574302667L172.83499999999998,113.80373263035908L173.29,114.04278575127763L173.303,114.19031468645747L173.407,114.31160168009112L173.563,114.43352832505992L173.732,114.55993582345853L174.12199999999999,114.75866816159522L174.252,114.91886960513443L174.317,115.03547063302352L174.75900000000001,115.24470390511739L174.824,115.39072574726531L174.85,115.48653126068548L174.954,115.57678420126334L174.99300000000002,115.64322543637019L175.019,115.69128258556574L175.37,115.83071524342046L175.53900000000002,115.96762634955061L175.838,116.14398656530321L175.851,116.2538980402575L176.22799999999998,116.43863570169887L176.41,116.60682687260973L176.51399999999998,116.740511207682L176.94299999999998,116.95589740145705L177.359,117.21620936495104L178.048,117.58949621709348L178.269,117.88310465605912L178.56799999999998,118.15348327151304L178.75,118.37305901483143L178.828,118.52938168521676L178.945,118.66004198260242L179.192,118.81626517971947L179.21800000000002,118.91819322324713L179.62099999999998,119.10633323396397L179.647,119.2274096485255L179.699,119.31644031352529L179.868,119.4231102239425L179.972,119.51988180271859L180.011,119.59023250361835L180.063,119.64882945754712L180.27100000000002,119.74952689495585L180.388,119.84681205255555L180.466,119.92976037150967L180.947,120.1310897718767L181.012,120.2723692909885L181.23299999999998,120.42677333013579L181.415,120.5767626105442L181.428,120.67085152429196L181.61,120.78465344658669L181.636,120.86112700809494L181.701,120.92749130676548L181.935,121.04104327627672L182.156,121.17881078566369L182.351,121.32291521084461L182.74099999999999,121.5322639879247L182.81900000000002,121.68245047856706L182.88400000000001,121.79304425184408L182.988,121.89217014833602L183.755,122.19332430179753L184.028,122.46003793781749L184.184,122.66922056821811L184.275,122.82340443348149L184.327,122.93229956890237L184.73000000000002,123.12461983475517L185.055,123.34241795447281L185.094,123.48538629706353L185.198,123.60393693514368L185.40599999999998,123.74060658304327L185.523,123.85947506693748L185.926,124.05777934187425L185.952,124.18495431496775L186.00400000000002,124.27764583221274L186.108,124.36603037508546L186.121,124.42315644631182L186.485,124.57212752001371L186.602,124.69837685938931L186.667,124.79460662478027L186.758,124.88101877103786L186.81,124.94925087505528L187.122,125.08850075216895L187.174,125.18843549470004L187.2,125.25658874835013L187.47299999999998,125.38350184448325L187.486,125.46374504766585L187.499,125.5159880322041L187.681,125.60468067984712L187.759,125.68247349282723L187.83700000000002,125.75372640500962L188.188,125.90707652065643L188.214,126.00727899817592L188.23999999999998,126.07559460994509L188.786,126.2886254063297L189.202,126.54752327282645L189.813,126.89538615950224L190.346,127.27204911676512L190.424,127.52262497408016L190.489,127.69345150879776L190.827,127.9024495939L191.204,128.14664007999315L191.451,128.3709822488977L192.166,128.73088134954386L192.28300000000002,128.98368664652304L193.011,129.3647598280797L193.154,129.63846198173664L193.713,129.97882176588266L193.765,130.1994233111961L193.986,130.4014197075014L194.272,130.61273489329338L194.63600000000002,130.85421943573465L194.68800000000002,131.01549497746225L194.714,131.12045271063027L194.753,131.19571596272823L194.961,131.3064140376015L195.13,131.4260835353798L195.234,131.5306557251355L195.31199999999998,131.61797626338324L195.36399999999998,131.68675340259475L195.46800000000002,131.7607901772104L195.481,131.80930844604552L195.533,131.85480422360945L195.611,131.9066789145421L195.624,131.94189993316743L196.14399999999998,132.12688242409732L196.19600000000003,132.25425673491813L197.444,132.72392120453452L197.574,133.04668192696153L197.73,133.28949366776934L197.951,133.50481618137124L198.042,133.6626839765554L198.159,133.79427049025736L198.25,133.90189582693856L198.393,134.01153013223316L198.835,134.21658337077034L198.952,134.3764811504841L199.53699999999998,134.65675071839564L200.04399999999998,134.98466613483157L200.226,135.23876224161316L200.434,135.45676002929662L200.91500000000002,135.73911996946424L201.396,136.06009720112235L201.786,136.37557052065176L201.903,136.60172034896084L201.916,136.74150645001205L202.15,136.89911064238865L202.25400000000002,137.02644364890338L202.488,137.17657512599513L202.644,137.31580931960178L202.696,137.41573465202865L203.099,137.60267389464804L203.346,137.79266531746828L203.372,137.91485343785487L203.398,137.99635871821826L203.411,138.049358090502L203.58,138.1344083667266L204.126,138.3574808203475L204.30800000000002,138.54867200800305L204.568,138.7453116604738L204.86700000000002,138.9575090040307L205.15300000000002,139.17494475817364L205.42600000000002,139.39142735460248L205.803,139.6401076889286L206.037,139.86304842127018L206.271,140.07054539242105L206.362,140.2237170035716L206.57,140.38116009387642L206.76500000000001,140.53706986760807L206.908,140.67567397656995L207.09,140.81618415743014L207.623,141.06843634976667L207.74,141.25665350176004L208.078,141.47608595722772L208.45499999999998,141.72653706554016L208.598,141.9218659752505L209.079,142.19062458863428L209.32600000000002,142.42970849247615L209.469,142.6182170795042L209.50799999999998,142.74361084391816L209.651,142.86390620585246L209.72899999999998,142.9606606474073L209.807,143.04329053673456L209.82000000000002,143.09696467439662L210.05399999999997,143.20290168873976L210.301,143.3442926331573L210.353,143.44551201607067L210.444,143.53491793284175L210.522,143.61313870729867L210.678,143.70922562076146L210.717,143.77916723959925L210.821,143.85390184342768L210.899,143.92331983011906L210.912,143.9690668261996L211.35399999999998,144.13578767920833L211.445,144.2644936194736L211.913,144.48918224712457L212.43300000000002,144.78784487418838L212.537,144.9998125122339L212.602,145.1474745446713L212.693,145.26474519259375L212.758,145.35558903095733L212.77100000000002,145.4141915380412L212.875,145.48212267481725L213.044,145.57613286830022L213.18699999999998,145.67759765839438L213.2,145.7425727365166L213.26500000000001,145.80203880371852L213.447,145.8950657302412L213.55100000000002,145.9836519479621L213.564,146.0408998826603L213.668,146.1080187052865L214.422,146.38587198108132L214.448,146.5607767839712L214.95499999999998,146.82547291211256L214.968,146.9883867930631L215.124,147.13528999970356L215.501,147.34222312943814L216.09900000000002,147.6548101114279L216.38500000000002,147.93247964863056L217.386,148.41449208898288L217.56799999999998,148.76104726867734L217.685,149.00584664236698L217.88,149.21416975684804L218.101,149.40879952393536L218.205,149.558347445995L218.53,149.75048215943673L218.647,149.90262925337473L218.92,150.07993865368059L219.06300000000002,150.2313829678685L219.232,150.37550063851708L219.28400000000002,150.47835648645062L219.68699999999998,150.66705360909245L219.75199999999998,150.80075290300616L219.83,150.9055501330302L219.97299999999998,151.013487145049L220.02499999999998,151.09463416852316L220.22,151.20476587287493L220.40200000000002,151.32819261096904L220.779,151.52103943029428L221.24699999999999,151.7842125853813L221.845,152.1305435825825L221.85799999999998,152.34243838496897L221.91,152.4859600826637L222.274,152.68676810296515L222.43,152.8564077932161L222.56,152.99915407730538L222.612,153.10118687866256L222.794,153.2197538456784L222.989,153.35233773079594L223.288,153.52610161394097L223.405,153.6672262097009L223.587,153.80924846799923L223.69099999999997,153.9272316701447L225.13400000000001,154.4527045355416L225.342,154.8335281637535L225.524,155.11936984152297L225.706,155.3482223490269L225.823,155.5223999047615L226.2,155.74569764395255L226.33,155.92063854276512L226.447,156.06246934792563L226.655,156.21310773999565L226.733,156.32806821427272L226.928,156.45848820374698L227.006,156.5613176364666L227.019,156.6271115001641L227.37,156.7771864013607L227.39600000000002,156.87542396485085L227.5,156.96713635011145L227.87699999999998,157.14095477237737L228.92999999999998,157.57704157467128L229.229,157.93290731544252L229.294,158.1669079948746L229.684,158.43019570502952L230.1,158.71924814906993L230.256,158.94183449356427L230.386,159.11634877019958L230.737,159.33165591915886L230.88,159.50589888253887L231.179,159.70465821264133L231.26999999999998,159.8525875074638L231.30900000000003,159.95363385753498L231.413,160.04703162206457L231.478,160.12355146209148L231.58200000000002,160.20223332059447L231.66,160.27401992839154L231.803,160.36215056707414L232.34900000000002,160.58707118450968L232.375,160.73021601676263L232.973,161.00453012758376L232.986,161.17321482497226L233.298,161.37273550686598L233.506,161.55798779814583L233.74,161.74287156380169L234.026,161.93982293821205" style="fill: none;" fill="none"></path></g></g></g></g><g opacity="0.2"><g><g><g><path stroke="rgb(255, 112, 67)" stroke-width="2px" d="M26.234,145.92359392432263L26.611,143.5174990243977L26.806,142.27296902996022L26.819000000000003,142.18999964819523L26.923000000000002,141.52625103329774L27.157,140.03281289356528L27.339,138.8712501344853L27.391,138.53937475383282L27.663999999999998,136.79703061521286L28.08,134.14203186280793L28.132,133.81015648215543L28.236,133.14640572085045L28.482999999999997,131.5700003457605L28.639,130.57437420380302L28.976999999999997,128.41718744917307L29.171999999999997,127.1726553083281L29.366999999999997,125.92812316748315L29.665999999999997,124.01984241174068L29.705000000000002,123.77093641285319L30.108,121.19890489580575L30.147,120.94999889691827L30.498,118.70984490693083L30.654,117.71421661856584L30.758,117.05047015007587L31.018,115.39109539322091L31.226,114.06359387061093L31.395,112.98499834688846L31.668000000000003,111.242656354676L31.681,111.15968911931851L31.798000000000002,110.41296682984103L31.993000000000002,109.16843683540357L32.045,108.83656360115856L32.175,108.00687407632358L32.253,107.50906207854861L32.63,105.10296932503117L32.929,103.1946885692887L32.994,102.7798438068712L33.02,102.6139050433412L33.228,101.28640781354623L33.306,100.78859581577126L33.722,98.13359277055135L33.748,97.96765829983632L34.281,94.56593725795392L34.358999999999995,94.06812526017895L34.372,93.98515802482143L34.553999999999995,92.82359526574145L34.671,92.076872976264L34.775,91.413126507774L35.373000000000005,87.59656499628909L35.931999999999995,84.02890948369168L36.075,83.11624843068421L36.166,82.53546490473673L36.244,82.03765290696174L36.452,80.71015996998176L37.141,76.31281493254937L37.258,75.56609693588689L37.518,73.90671788621694L38.246,69.26046684989707L38.987,64.53125287103467L39.052,64.1164038158022L39.195,63.20375134842471L39.286,62.622967822477236L39.337999999999994,62.29109029541725L39.364000000000004,62.12515582470224L39.481,61.37843782803976L39.727999999999994,59.80203030654229L39.922999999999995,58.557500312104835L40.001,58.05968831432984L40.274,56.31734632211739L40.417,55.404685269109905L40.443,55.23875079839492L40.625,54.07718374649995L40.715999999999994,53.496408806182444L40.963,51.920001284685L40.976,51.8370297565125L41.132000000000005,50.84140576096253L41.262,50.01171623612755L41.288,49.84578176541254L41.392,49.18203529692256L41.833999999999996,46.361097780987635L41.925000000000004,45.78031425504014L42.275999999999996,43.54016026505269L42.302,43.37421720870771L42.341,43.125311209820225L42.393,42.79343368276024L42.471,42.29562168498524L42.523,41.96375274355525L42.873999999999995,39.72359016793781L43.225,37.48343617795036L43.485,35.824065713910386L43.875,33.33499713940546L43.888,33.25203419686295L44.421,29.850313154980554L44.707,28.024999634595602L44.941,26.531563641270637L44.954,26.448592113098137L45.422,23.461720126448206L45.526,22.797965072328232L45.629999999999995,22.13421860383825L45.669,21.88531260495074L46.124,18.98140356084332L46.163000000000004,18.73249756195583L46.345,17.570939095690854L46.384,17.322024511173375L46.449,16.90718404157088L46.605,15.911560046020908L46.748,14.998907578643419L47.151,15.03673586435616L47.254999999999995,15.118659945670528L47.71,15.477075655013323L47.905,15.630689746700227L48.126,15.80478915153072L48.152,15.825257293414325L48.190999999999995,15.855993848759688L48.242999999999995,15.896947303786881L49.075,16.55233995430173L49.101,16.572825267445296L49.257000000000005,16.69571997504682L50.010999999999996,17.289673857390888L50.18,17.422802635934204L50.271,17.494475475046798L50.687000000000005,17.822188971564174L50.726,17.852908355649575L50.803999999999995,17.914347123820335L50.817,17.924581194762148L51.168,18.201089994050577L51.22,18.24204344907777L51.285000000000004,18.293248146306738L51.480000000000004,18.446862237993642L51.493,18.457096308935434L51.727,18.64142978470774L52.91,19.573322648881003L53.027,19.665489386767156L53.157,19.767898781225092L53.3,19.88054224662484L53.495,20.034156338311746L53.547,20.07511837896891L54.522,20.843163080513477L54.717,20.99676858657041L54.795,21.058215940371163L55.107,21.30398818431423L55.172,21.355192881543196L56.147,22.123237583087764L56.667,22.532866575289518L57.122,22.891282284632332L57.668,23.321388004347682L57.733,23.37259270157665L57.902,23.505721480119988L58.006,23.587645561434336L58.045,23.618364945519716L58.305,23.823183734435588L58.538999999999994,24.007508624577902L58.721,24.150880059693023L58.747,24.17135678720662L58.89,24.28400883823634L59.501,24.765319255180657L59.513999999999996,24.77555332612247L59.787,24.990606185980155L60.151,25.277349056210376L60.255,25.359273137524724L60.359,25.441197218839093L60.71,25.71768884686754L60.762,25.758650887524723L60.853,25.83034089789726L60.891999999999996,25.86106028198266L61.009,25.95322701986879L61.204,26.106832525925725L61.321,26.198999263811857L61.542,26.373090083012357L61.607,26.424294780241325L61.62,26.43453743681313L61.789,26.567666215356446L61.802,26.57790028629826L61.815,26.588142942870043L61.945,26.69055233732798L61.984,26.72127172141336L62.205,26.89536254061386L62.556000000000004,27.171862754272297L62.842,27.397149685071795L62.972,27.49955907952973L63.193,27.673649898730233L63.206,27.683892555302016L63.973,28.288089094217867L64.37599999999999,28.605542762903497L64.415,28.636262146988898L64.506,28.707952157361433L64.545,28.738671541446834L64.649,28.820595622761182L65.247,29.291663383133717L65.442,29.44527747482062L65.611,29.578397667733967L66.079,29.947064619278535L66.092,29.95730727585034L66.339,30.151874822564437L66.35199999999999,30.16211747913622L66.365,30.172360135708004L66.547,30.315722985193133L66.56,30.325965641764938L66.573,30.33620829833672L66.664,30.407889723079286L66.88499999999999,30.581980542279787L67.249,30.868714826880037L67.496,31.063290959224105L67.587,31.13497238396667L67.652,31.186177081195638L67.82100000000001,31.319305859738975L67.86,31.350025243824355L68.133,31.56507810368204L68.445,31.810850347625106L68.48400000000001,31.841578317340478L68.978,32.23072199639864L69.42,32.578903634799644L69.628,32.74275179742836L69.862,32.927076687570676L70.005,33.039728738600395L70.252,33.23429628531449L70.434,33.37766772042961L70.99300000000001,33.81801609671675L71.279,34.043303027516245L71.292,34.05354568408803L71.38300000000001,34.125235694460585L71.409,34.14571242197418L71.5,34.217393846716746L71.838,34.48365140380338L72.358,34.89328039600515L72.39699999999999,34.92399978009053L72.488,34.9956812048331L72.64399999999999,35.11856732680463L72.80000000000001,35.241462034406155L72.96900000000001,35.37458222731948L72.982,35.384824883891284L73.008,35.40531019703485L73.502,35.79445387609304L73.541,35.82517326017842L73.567,35.845658573322005L73.593,35.8661353008356L73.632,35.89685468492098L73.684,35.937816725578166L73.72300000000001,35.96854469529354L73.97,36.163112242007635L74.256,36.388407758437104L74.321,36.43961245566607L74.802,36.818513478152454L74.89299999999999,36.89019490289502L74.91900000000001,36.91068021603861L75.16600000000001,37.105247762752704L76.024,37.78112572641112L76.05,37.80161103955471L76.297,37.996178586268805L76.726,38.33412615372799L76.84299999999999,38.426284305984154L76.89500000000001,38.46724634664134L76.973,38.52869370044209L77.129,38.65157982241362L77.168,38.682299206499025L77.558,38.98951880424284L77.675,39.081685542128994L77.753,39.143132895929746L78.15599999999999,39.460586564615376L78.182,39.481071877758964L78.29899999999999,39.573238615645096L78.44200000000001,39.685882081044845L78.52,39.7473294348456L78.611,39.81901085958816L79.09200000000001,40.197911882074564L79.417,40.45392678258941L79.495,40.515374136390164L79.573,40.576812904560946L79.61200000000001,40.60754087427632L79.89800000000001,40.832827805075794L80.353,41.1912521000486L80.496,41.30389556544833L80.95100000000001,41.662319860421135L81.237,41.887615376850604L81.34100000000001,41.96953945816495L82.134,42.5942127245944L82.26400000000001,42.696622119052336L82.342,42.75806947285311L83.13499999999999,43.382742739282556L83.655,43.79236314585434L83.759,43.87429581279868L83.902,43.986939278198406L84.05799999999999,44.10982540016994L84.825,44.71402193908581L84.955,44.81643133354375L85.007,44.85739337420091L85.332,45.11340827471578L85.384,45.154370315372944L85.462,45.215809083543725L85.917,45.57423337851651L85.956,45.60495276260191L86.43700000000001,45.98385378508829L86.56700000000001,46.08626317954623L86.91799999999999,46.362763393204666L86.97,46.40372543386185L86.99600000000001,46.42420216137545L87.074,46.4856495151762L87.19099999999999,46.57781625306235L87.49000000000001,46.81334584043361L87.58099999999999,46.88502726517618L87.86699999999999,47.110322781605646L88.036,47.24345156014898L88.088,47.28441360080615L88.101,47.29465625737795L88.491,47.60187585512177L88.79,47.83740544249305L88.816,47.85789075563662L88.855,47.88861013972202L88.868,47.8988527962938L88.972,47.98077687760815L89.46600000000001,48.36992055666634L89.635,48.50304933520965L89.83,48.65665484126659L90.077,48.851230973610654L90.22,48.963874439010404L90.33699999999999,49.05604117689656L90.74,49.37349484558219L90.88300000000001,49.486146896611906L91.299,49.81384322186932L91.611,50.059615465812385L91.858,50.254191598156474L92.027,50.38732037669979L92.03999999999999,50.397563033271595L92.14399999999999,50.47948711458594L92.17,50.49996384209954L92.716,50.93006956181489L92.768,50.971031602472074L92.82,51.01199364312926L92.963,51.12464569415898L93.00200000000001,51.15536507824436L93.015,51.16560773481616L93.431,51.49330406007358L93.574,51.605947525473326L93.6,51.62643283861689L93.665,51.67763753584586L93.691,51.69811426335946L93.834,51.8107663143892L93.925,51.88244773913176L94.094,52.01557651767508L94.28899999999999,52.16918202373199L94.40599999999999,52.261348761618144L94.44500000000001,52.292068145703524L94.83500000000001,52.59928774344736L95.134,52.834825916448615L95.147,52.8450685730204L95.18599999999999,52.8757879571058L95.212,52.896264684619396L95.264,52.93722672527656L95.34200000000001,52.99867407907733L95.70599999999999,53.28540836367756L95.81,53.36733244499193L96.109,53.60287061799318L96.23899999999999,53.70528001245112L96.78500000000001,54.13538573216647L96.90199999999999,54.22754388442263L96.967,54.2787485816516L97.55199999999999,54.73957368545235L97.617,54.79077838268132L97.773,54.91366450465285L98.37100000000001,55.384732265025384L98.85199999999999,55.76364187314176L99.671,56.40880045271479L100.49000000000001,57.05395903228783L100.854,57.34069331688808L101.153,57.57622290425934L101.816,58.09849536186084L102.258,58.44667700026184L102.427,58.57980577880518L102.46600000000001,58.61052516289056L103.324,59.28641171217897L103.428,59.368335793493316L103.532,59.450259874807685L103.753,59.624350694008186L103.87,59.71651743189432L103.961,59.78819885663688L104.039,59.84963762480766L104.11699999999999,59.911084978608415L104.585,60.27974334452301L104.68900000000001,60.36167601146735L105.014,60.61769091198222L105.02699999999999,60.627924982924014L105.44300000000001,60.95562989381142L105.46900000000001,60.976106621325016L105.729,61.18091682461092L105.794,61.232121521839886L105.82,61.25260683498345L105.846,61.27308356249705L106.184,61.5393411195837L106.925,62.12306093098596L107.159,62.30738582112827L107.627,62.67605277267286L107.65299999999999,62.69652950018646L107.89999999999999,62.891105632530525L108.316,63.21880195778796L108.342,63.23928727093153L108.511,63.37240746384487L108.654,63.48505951487459L108.667,63.4953021714464L108.732,63.54649828304537L108.797,63.59770298027434L109.278,63.97660400276072L109.512,64.16093747853303L109.759,64.3555136108771L109.967,64.5193617735058L110.149,64.66272462299094L110.383,64.84705809876323L110.42200000000001,64.87777748284863L110.864,65.22595912124963L110.90299999999999,65.256687090965L111.098,65.41029259702191L111.163,65.46149729425088L111.33200000000001,65.5946260727942L111.397,65.6458221843932L111.605,65.80967893265188L111.67,65.86087504425086L111.735,65.91207974147983L111.787,65.953041782137L111.995,66.1168985303957L112.437,66.46507158316673L112.749,66.71085241273977L113.295,67.14095813245514L113.36,67.19215424405411L113.49,67.29456363851205L113.54199999999999,67.33552567916924L113.75,67.49937384179793L113.893,67.61202589282767L114.205,67.85779813677074L114.426,68.03188895597124L114.673,68.22645650268534L114.946,68.441509362543L115.05,68.52343344385737L115.167,68.6156001817435L115.375,68.77945693000221L115.90799999999999,69.19931999314578L115.947,69.23003937723115L116.09,69.34268284263091L116.18100000000001,69.41437285300344L116.675,69.80351653206162L116.883,69.96736469469033L116.948,70.0185693919193L116.974,70.0390461194329L117.23400000000001,70.24385632271878L117.37700000000001,70.35650837374851L117.572,70.51011387980543L117.702,70.61252327426337L118.521,71.2576818538364L118.56,71.28840123792179L118.63799999999999,71.34984859172255L119.132,71.73899227078073L119.30099999999999,71.87211246369407L119.314,71.88235512026586L119.34,71.90284043340944L119.69099999999999,72.17933206143789L119.925,72.36366553721018L120.289,72.65039982181042L120.562,72.8654526816681L121.00399999999999,73.2136343200691L121.342,73.47989187715575L121.39399999999999,73.52085391781293L121.589,73.67446800949983L121.654,73.72566412109882L121.771,73.81783085898496L122.005,74.00216433475725L122.512,74.40155067038722L122.655,74.51419413578697L122.668,74.52443679235876L123.032,74.811171076959L123.084,74.85213311761618L123.11,74.87261843075976L123.266,74.99550455273129L123.578,75.24127679667436L123.734,75.36416291864589L123.838,75.44608699996024L123.91600000000001,75.507534353761L124.05900000000001,75.62017781916074L124.163,75.7021019004751L124.18900000000001,75.72258721361868L124.267,75.78402598178945L124.709,76.13220762019046L124.82600000000001,76.2243743580766L124.852,76.24485967122018L124.891,76.27557905530557L125.294,76.59304130962119L125.372,76.65448007779196L125.58,76.81832824042067L126.45100000000001,77.50444886065088L126.49,77.53517683036625L126.828,77.80142580182292L126.893,77.85263049905188L127.322,78.1905694808811L127.33500000000001,78.20081213745289L127.673,78.46706969453953L127.894,78.64116051374003L127.946,78.68212255439721L128.05,78.76404663571157L128.115,78.81525133294053L128.12800000000001,78.82549398951232L128.206,78.8869327576831L128.466,79.09174296096899L128.63500000000002,79.22487173951231L128.713,79.28631909331307L129.038,79.54233399382792L129.077,79.57305337791331L129.818,80.15677318931557L130.41600000000003,80.6278409496881L130.59799999999998,80.77120379917324L130.702,80.85312788048759L131.001,81.08866605348885L131.014,81.09890871006064L131.24800000000002,81.28323360020295L131.586,81.5494911572896L131.87199999999999,81.77478667371906L132.119,81.96935422043316L132.132,81.97959687700495L132.496,82.2663311616052L132.80800000000002,82.51211199117824L132.97699999999998,82.64524076972157L133.315,82.91148974117823L133.601,83.1367852576077L133.679,83.19823261140846L133.783,83.28015669272281L133.848,83.33136138995178L134.53699999999998,83.87411057506688L134.576,83.90482995915227L134.719,84.017482010182L134.901,84.16084485966712L135.161,84.365663648583L135.343,84.50902649806812L135.40800000000002,84.56023119529709L135.941,84.98009425844066L136.38299999999998,85.32827589684166L136.552,85.46140467538498L136.773,85.63549549458548L136.89,85.72766223247163L137.124,85.91199570824392L137.202,85.9734344764147L137.319,86.06560121430084L137.878,86.50594959058799L138.03400000000002,86.62883571255952L138.06,86.64931244007312L138.151,86.72100245044567L138.567,87.04869877570309L138.619,87.08966081636027L139.022,87.40712307067588L139.1,87.46856183884665L139.334,87.65289531461895L139.412,87.7143426684197L139.77599999999998,88.00107695301995L139.802,88.02155368053354L140.088,88.24684919696301L140.114,88.2673345101066L140.244,88.36973531893454L140.387,88.48238736996427L140.699,88.72815961390732L140.82899999999998,88.83056900836526L141.245,89.1582653336227L141.31,89.20947003085166L141.40099999999998,89.28115145559423L141.544,89.39379492099395L141.62199999999999,89.45524227479473L141.921,89.690780447796L141.973,89.73174248845316L142.805,90.387139431783L142.87,90.43833983619696L143.078,90.60219229164066L143.429,90.87868821248414L143.637,91.04253637511283L143.754,91.13470311299896L143.91,91.2575892349705L144.521,91.73889965191483L144.573,91.779861692572L144.976,92.09731965407263L145.47,92.4864633331308L145.509,92.5171827172162L145.639,92.61959211167414L145.756,92.7117545567453L145.88600000000002,92.81416395120324L145.93800000000002,92.8551259918604L146.276,93.12137925613207L146.783,93.52076559176204L146.93900000000002,93.64365171373358L146.965,93.66413273406214L147.056,93.7358184516197L147.199,93.84846191701943L147.251,93.88942395767664L147.329,93.95087131147737L147.368,93.98159069556277L147.485,94.0737574334489L147.576,94.14544315100648L147.667,94.21712457574904L147.745,94.2785676367348L147.758,94.28881029330661L147.836,94.35025335429238L147.90099999999998,94.40145805152135L148.031,94.50386315316427L148.434,94.82132111466491L148.73299999999998,95.05685499485118L148.75900000000001,95.07733601517974L148.928,95.21046479372308L149.136,95.37431295635177L149.344,95.53816541179548L149.357,95.54840377555227L149.37,95.55864643212408L149.994,96.05019521282522L150.11100000000002,96.14236195071135L150.228,96.23452439578251L150.358,96.33692949742544L150.709,96.61342971108388L150.813,96.69535379239825L150.89100000000002,96.75679685338402L151.06,96.88992563192731L151.723,97.41219379671385L151.736,97.42243645328561L151.775,97.45315583737101L151.996,97.62724665657151L152.15200000000002,97.75013707135805L152.16500000000002,97.76037543511485L152.256,97.83206115267238L152.56799999999998,98.07783339661545L152.594,98.09831441694405L152.789,98.25192421581595L152.802,98.26216687238775L153.036,98.44649605534505L153.244,98.61034851078875L153.374,98.71275361243168L153.569,98.86636341130362L153.712,98.97900687670335L153.881,99.11213565524669L154.05,99.24526443378998L154.27100000000002,99.41935525299048L154.362,99.49104097054806L154.622,99.69585117383396L154.75199999999998,99.79825627547689L154.908,99.92114669026343L154.921,99.93138505402023L155.324,100.24884301552082L155.33700000000002,100.25908567209262L155.35,100.26932403584942L155.48,100.37173343030736L155.649,100.50485791603569L155.727,100.56630097702146L155.83100000000002,100.64822935115079L155.909,100.70967241213656L156.819,101.42651241645216L157.17000000000002,101.70301263011059L157.573,102.02047059161123L157.63799999999998,102.07167099602519L157.794,102.19456141081173L158.45700000000002,102.71682957559823L158.483,102.73731059592683L158.704,102.91140141512733L158.79500000000002,102.9830871326849L158.92499999999998,103.08549223432783L159.497,103.53607897437176L159.64,103.6487267325865L159.848,103.81257489521523L160.446,104.28364265558777L160.48499999999999,104.31436633248813L160.498,104.32460469624493L161.13500000000002,104.82639613351783L161.785,105.33842593454757L161.863,105.39986899553334L161.876,105.41011165210512L161.954,105.47155471309088L162.513,105.91189879656304L162.734,106.08598961576354L163.163,106.42393289040774L163.293,106.52633799205068L163.449,106.64922411402222L163.553,106.73114819533657L163.74800000000002,106.88475799420848L163.982,107.06909146998078L164.229,107.26366330950988L164.359,107.36606841115281L164.385,107.38654943148141L165.191,108.02146535448264L165.321,108.12387045612559L165.412,108.19555617368314L165.47699999999998,108.24676087091211L165.685,108.41060903354082L165.77599999999998,108.48229475109838L165.945,108.61542352964172L166.023,108.67686659062748L166.517,109.06601026968565L166.946,109.40394925151486L167.661,109.96718374977355L167.713,110.00814579043072L168.68800000000002,110.77619049197529L169.286,111.24725825234782L169.299,111.25749661610462L169.364,111.30870131333359L169.46800000000002,111.39062539464796L169.702,111.57495887042023L170.22199999999998,111.984583569807L170.53400000000002,112.23035581375007L170.612,112.29179887473583L170.625,112.30204153130762L170.72899999999998,112.38396561262199L171.067,112.65022316970862L171.20999999999998,112.76286663510837L171.704,113.15201031416656L171.756,113.19297235482372L171.834,113.25441541580949L171.925,113.32610113336706L171.938,113.33634378993884L172.09400000000002,113.45922991191037L172.32799999999997,113.64355909486767L172.692,113.9302976722829L172.83499999999998,114.04294543049764L173.29,114.40136543265544L173.303,114.41160808922723L173.407,114.4935321705416L173.563,114.61641829251313L173.732,114.74954707105644L174.12199999999999,115.05676666880026L174.252,115.15917177044321L174.317,115.2103721748572L174.75900000000001,115.5585538132582L174.824,115.60975851048717L174.85,115.63023953081574L174.954,115.7121636121301L174.99300000000002,115.74288728903048L175.019,115.76336830935907L175.37,116.03986423020251L175.53900000000002,116.17299300874583L175.838,116.4085268889321L175.851,116.4187652526889L176.22799999999998,116.71574219386093L176.41,116.85911362897605L176.51399999999998,116.9410377102904L176.94299999999998,117.27897669211961L177.359,117.60667731019204L178.048,118.14942649530714L178.269,118.32351731450764L178.56799999999998,118.55905119469391L178.75,118.702422629809L178.828,118.76386569079477L178.945,118.85603242868092L179.192,119.05059997539502L179.21800000000002,119.07108528853861L179.62099999999998,119.38854325003922L179.647,119.40902427036781L179.699,119.44998631102499L179.868,119.58311508956831L179.972,119.66503917088268L180.011,119.69575855496805L180.063,119.73672488844022L180.27100000000002,119.90057305106895L180.388,119.99273978895508L180.466,120.05418284994084L180.947,120.43308387242725L181.012,120.48428856965621L181.23299999999998,120.65837938885672L181.415,120.80174653115682L181.428,120.81198489491362L181.61,120.95535633002875L181.636,120.97583735035732L181.701,121.02703775477131L181.935,121.21137123054359L182.156,121.38546204974409L182.351,121.53907184861602L182.74099999999999,121.84628715354485L182.81900000000002,121.90773021453062L182.88400000000001,121.95893491175958L182.988,122.04085899307393L183.755,122.64505553198978L184.028,122.86010839184746L184.184,122.982994513819L184.275,123.05468023137655L184.327,123.09564227203373L184.73000000000002,123.41310023353435L185.055,123.66911513404922L185.094,123.69983881094959L185.198,123.78176289226396L185.40599999999998,123.94561105489265L185.523,124.0377777927788L185.926,124.35523575427942L185.952,124.37571677460802L186.00400000000002,124.41668310808019L186.108,124.49860718939453L186.121,124.50884555315133L186.485,124.79558413056657L186.602,124.88775086845273L186.667,124.93895127286669L186.758,125.01063699042426L186.81,125.05159903108142L187.122,125.2973755678395L187.174,125.33833760849666L187.2,125.35881862882526L187.47299999999998,125.57387148868293L187.486,125.58410985243972L187.499,125.59435250901153L187.681,125.73771965131164L187.759,125.7991627122974L187.83700000000002,125.86060577328317L188.188,126.13710169412663L188.214,126.1575827144552L188.23999999999998,126.1780680275988L188.786,126.60817160090664L189.202,126.93587007257156L189.813,127.4171804895159L190.346,127.83704355265947L190.424,127.89848876005271L190.489,127.9496913108742L190.827,128.21594672155334L191.204,128.51292580913287L191.451,128.70749550225446L192.166,129.27073000051314L192.28300000000002,129.3628945919918L193.011,129.93636960041476L193.154,130.049015212222L193.713,130.48936144210165L193.765,130.53032562916633L193.986,130.70441430195933L194.272,130.9297076719813L194.63600000000002,131.21644624939654L194.68800000000002,131.25740829005372L194.714,131.2778893103823L194.753,131.3086108408752L194.961,131.4724611499114L195.13,131.60558778204722L195.234,131.68751400976907L195.31199999999998,131.74895707075484L195.36399999999998,131.78991911141202L195.46800000000002,131.87184533913387L195.481,131.88208584929816L195.533,131.92304788995534L195.611,131.9844909509411L195.624,131.9947314611054L196.14399999999998,132.40435616049217L196.19600000000003,132.44531820114935L197.444,133.4284179089591L197.574,133.53082301060203L197.73,133.65371127898106L197.951,133.82779995177407L198.042,133.89948566933163L198.159,133.99165026081027L198.25,134.06333383196034L198.393,134.17598159017507L198.835,134.52416322857607L198.952,134.61632782005472L199.53699999999998,135.07715507026296L200.04399999999998,135.47653925948543L200.226,135.61990640178556L200.434,135.78375671082176L200.91500000000002,136.16265987971565L201.396,136.54156304860953L201.786,136.84878049994586L201.903,136.9409450914245L201.916,136.9511856015888L202.15,137.1355169309536L202.25400000000002,137.21744315867545L202.488,137.40177234163275L202.644,137.52466061001178L202.696,137.56562265066896L203.099,137.88308275857707L203.346,138.07765245169867L203.372,138.09813561843475L203.398,138.11861663876334L203.411,138.12885714892764L203.58,138.26198378106346L204.126,138.69208950077882L204.30800000000002,138.83545878948644L204.568,139.04027113917982L204.86700000000002,139.2758050193661L205.15300000000002,139.50109838938806L205.42600000000002,139.71615124924574L205.803,140.01312819041777L206.037,140.19745951978257L206.271,140.38179084914736L206.362,140.45347442029743L206.57,140.61732472933363L206.76500000000001,140.77093452820554L206.908,140.88358014001278L207.09,141.0269494287204L207.623,141.44681463827146L207.74,141.5389792297501L208.078,141.80523464042926L208.45499999999998,142.1022137280088L208.598,142.21485933981603L209.079,142.59376250870991L209.32600000000002,142.788334348239L209.469,142.90097996004624L209.50799999999998,142.93170149053913L209.651,143.04434924875386L209.72899999999998,143.10579230973963L209.807,143.1672353707254L209.82000000000002,143.1774758808897L210.05399999999997,143.36180721025448L210.301,143.55637904978357L210.353,143.59734109044075L210.444,143.6690268079983L210.522,143.73046986898407L210.678,143.8533559909556L210.717,143.88407966785599L210.821,143.96600374917034L210.899,144.0274468101561L210.912,144.0376873203204L211.35399999999998,144.3858689587214L211.445,144.45755252987146L211.913,144.82621518860105L212.43300000000002,145.23583881478407L212.537,145.31776396930218L212.602,145.3689675933274L212.693,145.44065116447746L212.758,145.49185478850268L212.77100000000002,145.50209529866697L212.875,145.58401937998133L213.044,145.71714815852465L213.18699999999998,145.82979484353564L213.2,145.84003535369993L213.26500000000001,145.8912379045214L213.447,146.03460612002527L213.55100000000002,146.11653127454338L213.564,146.12677178470767L213.668,146.20869693922577L214.422,146.8026518947736L214.448,146.82313398830593L214.95499999999998,147.22251710432465L214.968,147.23275761448895L215.124,147.35564480966423L215.501,147.65262282404L216.09900000000002,148.12369058441254L216.38500000000002,148.34898395443452L217.386,149.13751074951142L217.56799999999998,149.28088003821904L217.685,149.37304570290144L217.88,149.5266544285696L218.101,149.70074417456635L218.205,149.78266932908446L218.53,150.0386842295993L218.647,150.1308498942817L218.92,150.3459027541394L219.06300000000002,150.45854943915037L219.232,150.59167714448995L219.28400000000002,150.63264025835088L219.68699999999998,150.95009929305525L219.75199999999998,151.00130184387672L219.83,151.06274597806623L219.97299999999998,151.17539266307722L220.02499999999998,151.2163547037344L220.22,151.36996342940256L220.40200000000002,151.51333271811018L220.779,151.8103096592822L221.24699999999999,152.1789723180118L221.845,152.65004007838434L221.85799999999998,152.66028058854863L221.91,152.7012426292058L222.274,152.9879801334173L222.43,153.11086732859258L222.56,153.21327350343927L222.612,153.25423608069832L222.794,153.3976042962022L222.989,153.55121355847223L223.288,153.7867474386585L223.405,153.8789131033409L223.587,154.02228185544664L223.69099999999997,154.10420647336286L225.13400000000001,155.24091383363702L225.342,155.40476360607136L225.524,155.5481323581771L225.706,155.69150111028284L225.823,155.78366623836337L226.2,156.08064425273915L226.33,156.18304989098397L226.447,156.27521555566636L226.655,156.4390653281007L226.733,156.50050892568834L226.928,156.65411818795837L227.006,156.71556178554602L227.019,156.7258022957103L227.37,157.00229875315563L227.39600000000002,157.0227803100861L227.5,157.10470492800232L227.87699999999998,157.40168240577623L228.92999999999998,158.23117177811218L229.229,158.4667059265994L229.294,158.51790901402273L229.684,158.82512727026187L230.1,159.15282681513054L230.256,159.27571401030582L230.386,159.3781201851525L230.737,159.65461664259783L230.88,159.76726332760882L231.179,160.00279720779508L231.26999999999998,160.0744814496975L231.30900000000003,160.10520338264178L231.413,160.18712826885894L231.478,160.23833122213182L231.58200000000002,160.32025610834899L231.66,160.3816998400871L231.803,160.49434652509808L232.34900000000002,160.92445211066297L232.375,160.94493326514203L232.973,161.4160012938155L232.986,161.42624187105503L233.298,161.67201652970653L233.506,161.83586623506562L233.74,162.02019721228544L234.026,162.23524999982763" style="fill: none;" fill="none"></path></g></g></g></g></g></g><g transform="translate(70, 177)" clip-path="url(#clip_1)"><clipPath id="clip_1"><rect width="260" height="22"></rect></clipPath><g><g><line x1="0" y1="0" x2="0" y2="5" style="visibility: inherit;" fill="rgb(0, 0, 0)" stroke="rgb(204, 204, 204)" stroke-width="1px"></line><line x1="26" y1="0" x2="26" y2="5" style="visibility: inherit;" fill="rgb(0, 0, 0)" stroke="rgb(204, 204, 204)" stroke-width="1px"></line><line x1="52" y1="0" x2="52" y2="5" style="visibility: inherit;" fill="rgb(0, 0, 0)" stroke="rgb(204, 204, 204)" stroke-width="1px"></line><line x1="78" y1="0" x2="78" y2="5" style="visibility: inherit;" fill="rgb(0, 0, 0)" stroke="rgb(204, 204, 204)" stroke-width="1px"></line><line x1="104" y1="0" x2="104" y2="5" style="visibility: inherit;" fill="rgb(0, 0, 0)" stroke="rgb(204, 204, 204)" stroke-width="1px"></line><line x1="130" y1="0" x2="130" y2="5" style="visibility: inherit;" fill="rgb(0, 0, 0)" stroke="rgb(204, 204, 204)" stroke-width="1px"></line><line x1="156" y1="0" x2="156" y2="5" style="visibility: inherit;" fill="rgb(0, 0, 0)" stroke="rgb(204, 204, 204)" stroke-width="1px"></line><line x1="182" y1="0" x2="182" y2="5" style="visibility: inherit;" fill="rgb(0, 0, 0)" stroke="rgb(204, 204, 204)" stroke-width="1px"></line><line x1="208" y1="0" x2="208" y2="5" style="visibility: inherit;" fill="rgb(0, 0, 0)" stroke="rgb(204, 204, 204)" stroke-width="1px"></line><line x1="234" y1="0" x2="234" y2="5" style="visibility: inherit;" fill="rgb(0, 0, 0)" stroke="rgb(204, 204, 204)" stroke-width="1px"></line><line x1="260" y1="0" x2="260" y2="5" style="visibility: inherit;" fill="rgb(0, 0, 0)" stroke="rgb(204, 204, 204)" stroke-width="1px"></line></g><g transform="translate(0, 8)"><text x="0" y="0" dx="0em" dy="0.95em" style="text-anchor: middle; visibility: hidden; font-family: Roboto, sans-serif; font-size: 12px; font-weight: 200;" fill="rgb(33, 33, 33)" stroke="none" stroke-width="1px">-2k</text><text x="26" y="0" dx="0em" dy="0.95em" style="text-anchor: middle; visibility: inherit; font-family: Roboto, sans-serif; font-size: 12px; font-weight: 200;" fill="rgb(33, 33, 33)" stroke="none" stroke-width="1px">0</text><text x="52" y="0" dx="0em" dy="0.95em" style="text-anchor: middle; visibility: inherit; font-family: Roboto, sans-serif; font-size: 12px; font-weight: 200;" fill="rgb(33, 33, 33)" stroke="none" stroke-width="1px">2k</text><text x="78" y="0" dx="0em" dy="0.95em" style="text-anchor: middle; visibility: inherit; font-family: Roboto, sans-serif; font-size: 12px; font-weight: 200;" fill="rgb(33, 33, 33)" stroke="none" stroke-width="1px">4k</text><text x="104" y="0" dx="0em" dy="0.95em" style="text-anchor: middle; visibility: inherit; font-family: Roboto, sans-serif; font-size: 12px; font-weight: 200;" fill="rgb(33, 33, 33)" stroke="none" stroke-width="1px">6k</text><text x="130" y="0" dx="0em" dy="0.95em" style="text-anchor: middle; visibility: inherit; font-family: Roboto, sans-serif; font-size: 12px; font-weight: 200;" fill="rgb(33, 33, 33)" stroke="none" stroke-width="1px">8k</text><text x="156" y="0" dx="0em" dy="0.95em" style="text-anchor: middle; visibility: inherit; font-family: Roboto, sans-serif; font-size: 12px; font-weight: 200;" fill="rgb(33, 33, 33)" stroke="none" stroke-width="1px">10k</text><text x="182" y="0" dx="0em" dy="0.95em" style="text-anchor: middle; visibility: inherit; font-family: Roboto, sans-serif; font-size: 12px; font-weight: 200;" fill="rgb(33, 33, 33)" stroke="none" stroke-width="1px">12k</text><text x="208" y="0" dx="0em" dy="0.95em" style="text-anchor: middle; visibility: inherit; font-family: Roboto, sans-serif; font-size: 12px; font-weight: 200;" fill="rgb(33, 33, 33)" stroke="none" stroke-width="1px">14k</text><text x="234" y="0" dx="0em" dy="0.95em" style="text-anchor: middle; visibility: inherit; font-family: Roboto, sans-serif; font-size: 12px; font-weight: 200;" fill="rgb(33, 33, 33)" stroke="none" stroke-width="1px">16k</text><text x="260" y="0" dx="0em" dy="0.95em" style="text-anchor: middle; visibility: hidden; font-family: Roboto, sans-serif; font-size: 12px; font-weight: 200;" fill="rgb(33, 33, 33)" stroke="none" stroke-width="1px">18k</text></g><line x1="0" y1="0" x2="260" y2="0" fill="rgb(0, 0, 0)" stroke="rgb(204, 204, 204)" stroke-width="1px"></line></g></g></g></g></svg>